<?xml version="1.0" encoding="utf-8" standalone="no"?>
<!DOCTYPE svg PUBLIC "-//W3C//DTD SVG 1.1//EN"
  "http://www.w3.org/Graphics/SVG/1.1/DTD/svg11.dtd">
<!-- Created with matplotlib (https://matplotlib.org/) -->
<svg height="360pt" version="1.1" viewBox="0 0 720 360" width="720pt" xmlns="http://www.w3.org/2000/svg" xmlns:xlink="http://www.w3.org/1999/xlink">
 <defs>
  <style type="text/css">
*{stroke-linecap:butt;stroke-linejoin:round;white-space:pre;}
  </style>
 </defs>
 <g id="figure_1">
  <g id="patch_1">
   <path d="M 0 360 
L 720 360 
L 720 0 
L 0 0 
z
" style="fill:#ffffff;"/>
  </g>
  <g id="axes_1">
   <g id="patch_2">
    <path d="M 90 315 
L 648 315 
L 648 43.2 
L 90 43.2 
z
" style="fill:#ffffff;"/>
   </g>
   <g id="matplotlib.axis_1">
    <g id="xtick_1">
     <g id="line2d_1">
      <path clip-path="url(#p32dcbdd0e5)" d="M 115.363636 315 
L 115.363636 43.2 
" style="fill:none;stroke:#b0b0b0;stroke-linecap:square;stroke-width:0.8;"/>
     </g>
     <g id="line2d_2">
      <defs>
       <path d="M 0 0 
L 0 3.5 
" id="m54be4066f0" style="stroke:#000000;stroke-width:0.8;"/>
      </defs>
      <g>
       <use style="stroke:#000000;stroke-width:0.8;" x="115.363636" xlink:href="#m54be4066f0" y="315"/>
      </g>
     </g>
     <g id="text_1">
      <!-- 0 -->
      <defs>
       <path d="M 31.78125 66.40625 
Q 24.171875 66.40625 20.328125 58.90625 
Q 16.5 51.421875 16.5 36.375 
Q 16.5 21.390625 20.328125 13.890625 
Q 24.171875 6.390625 31.78125 6.390625 
Q 39.453125 6.390625 43.28125 13.890625 
Q 47.125 21.390625 47.125 36.375 
Q 47.125 51.421875 43.28125 58.90625 
Q 39.453125 66.40625 31.78125 66.40625 
z
M 31.78125 74.21875 
Q 44.046875 74.21875 50.515625 64.515625 
Q 56.984375 54.828125 56.984375 36.375 
Q 56.984375 17.96875 50.515625 8.265625 
Q 44.046875 -1.421875 31.78125 -1.421875 
Q 19.53125 -1.421875 13.0625 8.265625 
Q 6.59375 17.96875 6.59375 36.375 
Q 6.59375 54.828125 13.0625 64.515625 
Q 19.53125 74.21875 31.78125 74.21875 
z
" id="DejaVuSans-48"/>
      </defs>
      <g transform="translate(112.182386 329.598437)scale(0.1 -0.1)">
       <use xlink:href="#DejaVuSans-48"/>
      </g>
     </g>
    </g>
    <g id="xtick_2">
     <g id="line2d_3">
      <path clip-path="url(#p32dcbdd0e5)" d="M 183.045121 315 
L 183.045121 43.2 
" style="fill:none;stroke:#b0b0b0;stroke-linecap:square;stroke-width:0.8;"/>
     </g>
     <g id="line2d_4">
      <g>
       <use style="stroke:#000000;stroke-width:0.8;" x="183.045121" xlink:href="#m54be4066f0" y="315"/>
      </g>
     </g>
     <g id="text_2">
      <!-- 200 -->
      <defs>
       <path d="M 19.1875 8.296875 
L 53.609375 8.296875 
L 53.609375 0 
L 7.328125 0 
L 7.328125 8.296875 
Q 12.9375 14.109375 22.625 23.890625 
Q 32.328125 33.6875 34.8125 36.53125 
Q 39.546875 41.84375 41.421875 45.53125 
Q 43.3125 49.21875 43.3125 52.78125 
Q 43.3125 58.59375 39.234375 62.25 
Q 35.15625 65.921875 28.609375 65.921875 
Q 23.96875 65.921875 18.8125 64.3125 
Q 13.671875 62.703125 7.8125 59.421875 
L 7.8125 69.390625 
Q 13.765625 71.78125 18.9375 73 
Q 24.125 74.21875 28.421875 74.21875 
Q 39.75 74.21875 46.484375 68.546875 
Q 53.21875 62.890625 53.21875 53.421875 
Q 53.21875 48.921875 51.53125 44.890625 
Q 49.859375 40.875 45.40625 35.40625 
Q 44.1875 33.984375 37.640625 27.21875 
Q 31.109375 20.453125 19.1875 8.296875 
z
" id="DejaVuSans-50"/>
      </defs>
      <g transform="translate(173.501371 329.598437)scale(0.1 -0.1)">
       <use xlink:href="#DejaVuSans-50"/>
       <use x="63.623047" xlink:href="#DejaVuSans-48"/>
       <use x="127.246094" xlink:href="#DejaVuSans-48"/>
      </g>
     </g>
    </g>
    <g id="xtick_3">
     <g id="line2d_5">
      <path clip-path="url(#p32dcbdd0e5)" d="M 250.726606 315 
L 250.726606 43.2 
" style="fill:none;stroke:#b0b0b0;stroke-linecap:square;stroke-width:0.8;"/>
     </g>
     <g id="line2d_6">
      <g>
       <use style="stroke:#000000;stroke-width:0.8;" x="250.726606" xlink:href="#m54be4066f0" y="315"/>
      </g>
     </g>
     <g id="text_3">
      <!-- 400 -->
      <defs>
       <path d="M 37.796875 64.3125 
L 12.890625 25.390625 
L 37.796875 25.390625 
z
M 35.203125 72.90625 
L 47.609375 72.90625 
L 47.609375 25.390625 
L 58.015625 25.390625 
L 58.015625 17.1875 
L 47.609375 17.1875 
L 47.609375 0 
L 37.796875 0 
L 37.796875 17.1875 
L 4.890625 17.1875 
L 4.890625 26.703125 
z
" id="DejaVuSans-52"/>
      </defs>
      <g transform="translate(241.182856 329.598437)scale(0.1 -0.1)">
       <use xlink:href="#DejaVuSans-52"/>
       <use x="63.623047" xlink:href="#DejaVuSans-48"/>
       <use x="127.246094" xlink:href="#DejaVuSans-48"/>
      </g>
     </g>
    </g>
    <g id="xtick_4">
     <g id="line2d_7">
      <path clip-path="url(#p32dcbdd0e5)" d="M 318.40809 315 
L 318.40809 43.2 
" style="fill:none;stroke:#b0b0b0;stroke-linecap:square;stroke-width:0.8;"/>
     </g>
     <g id="line2d_8">
      <g>
       <use style="stroke:#000000;stroke-width:0.8;" x="318.40809" xlink:href="#m54be4066f0" y="315"/>
      </g>
     </g>
     <g id="text_4">
      <!-- 600 -->
      <defs>
       <path d="M 33.015625 40.375 
Q 26.375 40.375 22.484375 35.828125 
Q 18.609375 31.296875 18.609375 23.390625 
Q 18.609375 15.53125 22.484375 10.953125 
Q 26.375 6.390625 33.015625 6.390625 
Q 39.65625 6.390625 43.53125 10.953125 
Q 47.40625 15.53125 47.40625 23.390625 
Q 47.40625 31.296875 43.53125 35.828125 
Q 39.65625 40.375 33.015625 40.375 
z
M 52.59375 71.296875 
L 52.59375 62.3125 
Q 48.875 64.0625 45.09375 64.984375 
Q 41.3125 65.921875 37.59375 65.921875 
Q 27.828125 65.921875 22.671875 59.328125 
Q 17.53125 52.734375 16.796875 39.40625 
Q 19.671875 43.65625 24.015625 45.921875 
Q 28.375 48.1875 33.59375 48.1875 
Q 44.578125 48.1875 50.953125 41.515625 
Q 57.328125 34.859375 57.328125 23.390625 
Q 57.328125 12.15625 50.6875 5.359375 
Q 44.046875 -1.421875 33.015625 -1.421875 
Q 20.359375 -1.421875 13.671875 8.265625 
Q 6.984375 17.96875 6.984375 36.375 
Q 6.984375 53.65625 15.1875 63.9375 
Q 23.390625 74.21875 37.203125 74.21875 
Q 40.921875 74.21875 44.703125 73.484375 
Q 48.484375 72.75 52.59375 71.296875 
z
" id="DejaVuSans-54"/>
      </defs>
      <g transform="translate(308.86434 329.598437)scale(0.1 -0.1)">
       <use xlink:href="#DejaVuSans-54"/>
       <use x="63.623047" xlink:href="#DejaVuSans-48"/>
       <use x="127.246094" xlink:href="#DejaVuSans-48"/>
      </g>
     </g>
    </g>
    <g id="xtick_5">
     <g id="line2d_9">
      <path clip-path="url(#p32dcbdd0e5)" d="M 386.089575 315 
L 386.089575 43.2 
" style="fill:none;stroke:#b0b0b0;stroke-linecap:square;stroke-width:0.8;"/>
     </g>
     <g id="line2d_10">
      <g>
       <use style="stroke:#000000;stroke-width:0.8;" x="386.089575" xlink:href="#m54be4066f0" y="315"/>
      </g>
     </g>
     <g id="text_5">
      <!-- 800 -->
      <defs>
       <path d="M 31.78125 34.625 
Q 24.75 34.625 20.71875 30.859375 
Q 16.703125 27.09375 16.703125 20.515625 
Q 16.703125 13.921875 20.71875 10.15625 
Q 24.75 6.390625 31.78125 6.390625 
Q 38.8125 6.390625 42.859375 10.171875 
Q 46.921875 13.96875 46.921875 20.515625 
Q 46.921875 27.09375 42.890625 30.859375 
Q 38.875 34.625 31.78125 34.625 
z
M 21.921875 38.8125 
Q 15.578125 40.375 12.03125 44.71875 
Q 8.5 49.078125 8.5 55.328125 
Q 8.5 64.0625 14.71875 69.140625 
Q 20.953125 74.21875 31.78125 74.21875 
Q 42.671875 74.21875 48.875 69.140625 
Q 55.078125 64.0625 55.078125 55.328125 
Q 55.078125 49.078125 51.53125 44.71875 
Q 48 40.375 41.703125 38.8125 
Q 48.828125 37.15625 52.796875 32.3125 
Q 56.78125 27.484375 56.78125 20.515625 
Q 56.78125 9.90625 50.3125 4.234375 
Q 43.84375 -1.421875 31.78125 -1.421875 
Q 19.734375 -1.421875 13.25 4.234375 
Q 6.78125 9.90625 6.78125 20.515625 
Q 6.78125 27.484375 10.78125 32.3125 
Q 14.796875 37.15625 21.921875 38.8125 
z
M 18.3125 54.390625 
Q 18.3125 48.734375 21.84375 45.5625 
Q 25.390625 42.390625 31.78125 42.390625 
Q 38.140625 42.390625 41.71875 45.5625 
Q 45.3125 48.734375 45.3125 54.390625 
Q 45.3125 60.0625 41.71875 63.234375 
Q 38.140625 66.40625 31.78125 66.40625 
Q 25.390625 66.40625 21.84375 63.234375 
Q 18.3125 60.0625 18.3125 54.390625 
z
" id="DejaVuSans-56"/>
      </defs>
      <g transform="translate(376.545825 329.598437)scale(0.1 -0.1)">
       <use xlink:href="#DejaVuSans-56"/>
       <use x="63.623047" xlink:href="#DejaVuSans-48"/>
       <use x="127.246094" xlink:href="#DejaVuSans-48"/>
      </g>
     </g>
    </g>
    <g id="xtick_6">
     <g id="line2d_11">
      <path clip-path="url(#p32dcbdd0e5)" d="M 453.771059 315 
L 453.771059 43.2 
" style="fill:none;stroke:#b0b0b0;stroke-linecap:square;stroke-width:0.8;"/>
     </g>
     <g id="line2d_12">
      <g>
       <use style="stroke:#000000;stroke-width:0.8;" x="453.771059" xlink:href="#m54be4066f0" y="315"/>
      </g>
     </g>
     <g id="text_6">
      <!-- 1000 -->
      <defs>
       <path d="M 12.40625 8.296875 
L 28.515625 8.296875 
L 28.515625 63.921875 
L 10.984375 60.40625 
L 10.984375 69.390625 
L 28.421875 72.90625 
L 38.28125 72.90625 
L 38.28125 8.296875 
L 54.390625 8.296875 
L 54.390625 0 
L 12.40625 0 
z
" id="DejaVuSans-49"/>
      </defs>
      <g transform="translate(441.046059 329.598437)scale(0.1 -0.1)">
       <use xlink:href="#DejaVuSans-49"/>
       <use x="63.623047" xlink:href="#DejaVuSans-48"/>
       <use x="127.246094" xlink:href="#DejaVuSans-48"/>
       <use x="190.869141" xlink:href="#DejaVuSans-48"/>
      </g>
     </g>
    </g>
    <g id="xtick_7">
     <g id="line2d_13">
      <path clip-path="url(#p32dcbdd0e5)" d="M 521.452544 315 
L 521.452544 43.2 
" style="fill:none;stroke:#b0b0b0;stroke-linecap:square;stroke-width:0.8;"/>
     </g>
     <g id="line2d_14">
      <g>
       <use style="stroke:#000000;stroke-width:0.8;" x="521.452544" xlink:href="#m54be4066f0" y="315"/>
      </g>
     </g>
     <g id="text_7">
      <!-- 1200 -->
      <g transform="translate(508.727544 329.598437)scale(0.1 -0.1)">
       <use xlink:href="#DejaVuSans-49"/>
       <use x="63.623047" xlink:href="#DejaVuSans-50"/>
       <use x="127.246094" xlink:href="#DejaVuSans-48"/>
       <use x="190.869141" xlink:href="#DejaVuSans-48"/>
      </g>
     </g>
    </g>
    <g id="xtick_8">
     <g id="line2d_15">
      <path clip-path="url(#p32dcbdd0e5)" d="M 589.134029 315 
L 589.134029 43.2 
" style="fill:none;stroke:#b0b0b0;stroke-linecap:square;stroke-width:0.8;"/>
     </g>
     <g id="line2d_16">
      <g>
       <use style="stroke:#000000;stroke-width:0.8;" x="589.134029" xlink:href="#m54be4066f0" y="315"/>
      </g>
     </g>
     <g id="text_8">
      <!-- 1400 -->
      <g transform="translate(576.409029 329.598437)scale(0.1 -0.1)">
       <use xlink:href="#DejaVuSans-49"/>
       <use x="63.623047" xlink:href="#DejaVuSans-52"/>
       <use x="127.246094" xlink:href="#DejaVuSans-48"/>
       <use x="190.869141" xlink:href="#DejaVuSans-48"/>
      </g>
     </g>
    </g>
    <g id="text_9">
     <!-- Episode -->
     <defs>
      <path d="M 9.8125 72.90625 
L 55.90625 72.90625 
L 55.90625 64.59375 
L 19.671875 64.59375 
L 19.671875 43.015625 
L 54.390625 43.015625 
L 54.390625 34.71875 
L 19.671875 34.71875 
L 19.671875 8.296875 
L 56.78125 8.296875 
L 56.78125 0 
L 9.8125 0 
z
" id="DejaVuSans-69"/>
      <path d="M 18.109375 8.203125 
L 18.109375 -20.796875 
L 9.078125 -20.796875 
L 9.078125 54.6875 
L 18.109375 54.6875 
L 18.109375 46.390625 
Q 20.953125 51.265625 25.265625 53.625 
Q 29.59375 56 35.59375 56 
Q 45.5625 56 51.78125 48.09375 
Q 58.015625 40.1875 58.015625 27.296875 
Q 58.015625 14.40625 51.78125 6.484375 
Q 45.5625 -1.421875 35.59375 -1.421875 
Q 29.59375 -1.421875 25.265625 0.953125 
Q 20.953125 3.328125 18.109375 8.203125 
z
M 48.6875 27.296875 
Q 48.6875 37.203125 44.609375 42.84375 
Q 40.53125 48.484375 33.40625 48.484375 
Q 26.265625 48.484375 22.1875 42.84375 
Q 18.109375 37.203125 18.109375 27.296875 
Q 18.109375 17.390625 22.1875 11.75 
Q 26.265625 6.109375 33.40625 6.109375 
Q 40.53125 6.109375 44.609375 11.75 
Q 48.6875 17.390625 48.6875 27.296875 
z
" id="DejaVuSans-112"/>
      <path d="M 9.421875 54.6875 
L 18.40625 54.6875 
L 18.40625 0 
L 9.421875 0 
z
M 9.421875 75.984375 
L 18.40625 75.984375 
L 18.40625 64.59375 
L 9.421875 64.59375 
z
" id="DejaVuSans-105"/>
      <path d="M 44.28125 53.078125 
L 44.28125 44.578125 
Q 40.484375 46.53125 36.375 47.5 
Q 32.28125 48.484375 27.875 48.484375 
Q 21.1875 48.484375 17.84375 46.4375 
Q 14.5 44.390625 14.5 40.28125 
Q 14.5 37.15625 16.890625 35.375 
Q 19.28125 33.59375 26.515625 31.984375 
L 29.59375 31.296875 
Q 39.15625 29.25 43.1875 25.515625 
Q 47.21875 21.78125 47.21875 15.09375 
Q 47.21875 7.46875 41.1875 3.015625 
Q 35.15625 -1.421875 24.609375 -1.421875 
Q 20.21875 -1.421875 15.453125 -0.5625 
Q 10.6875 0.296875 5.421875 2 
L 5.421875 11.28125 
Q 10.40625 8.6875 15.234375 7.390625 
Q 20.0625 6.109375 24.8125 6.109375 
Q 31.15625 6.109375 34.5625 8.28125 
Q 37.984375 10.453125 37.984375 14.40625 
Q 37.984375 18.0625 35.515625 20.015625 
Q 33.0625 21.96875 24.703125 23.78125 
L 21.578125 24.515625 
Q 13.234375 26.265625 9.515625 29.90625 
Q 5.8125 33.546875 5.8125 39.890625 
Q 5.8125 47.609375 11.28125 51.796875 
Q 16.75 56 26.8125 56 
Q 31.78125 56 36.171875 55.265625 
Q 40.578125 54.546875 44.28125 53.078125 
z
" id="DejaVuSans-115"/>
      <path d="M 30.609375 48.390625 
Q 23.390625 48.390625 19.1875 42.75 
Q 14.984375 37.109375 14.984375 27.296875 
Q 14.984375 17.484375 19.15625 11.84375 
Q 23.34375 6.203125 30.609375 6.203125 
Q 37.796875 6.203125 41.984375 11.859375 
Q 46.1875 17.53125 46.1875 27.296875 
Q 46.1875 37.015625 41.984375 42.703125 
Q 37.796875 48.390625 30.609375 48.390625 
z
M 30.609375 56 
Q 42.328125 56 49.015625 48.375 
Q 55.71875 40.765625 55.71875 27.296875 
Q 55.71875 13.875 49.015625 6.21875 
Q 42.328125 -1.421875 30.609375 -1.421875 
Q 18.84375 -1.421875 12.171875 6.21875 
Q 5.515625 13.875 5.515625 27.296875 
Q 5.515625 40.765625 12.171875 48.375 
Q 18.84375 56 30.609375 56 
z
" id="DejaVuSans-111"/>
      <path d="M 45.40625 46.390625 
L 45.40625 75.984375 
L 54.390625 75.984375 
L 54.390625 0 
L 45.40625 0 
L 45.40625 8.203125 
Q 42.578125 3.328125 38.25 0.953125 
Q 33.9375 -1.421875 27.875 -1.421875 
Q 17.96875 -1.421875 11.734375 6.484375 
Q 5.515625 14.40625 5.515625 27.296875 
Q 5.515625 40.1875 11.734375 48.09375 
Q 17.96875 56 27.875 56 
Q 33.9375 56 38.25 53.625 
Q 42.578125 51.265625 45.40625 46.390625 
z
M 14.796875 27.296875 
Q 14.796875 17.390625 18.875 11.75 
Q 22.953125 6.109375 30.078125 6.109375 
Q 37.203125 6.109375 41.296875 11.75 
Q 45.40625 17.390625 45.40625 27.296875 
Q 45.40625 37.203125 41.296875 42.84375 
Q 37.203125 48.484375 30.078125 48.484375 
Q 22.953125 48.484375 18.875 42.84375 
Q 14.796875 37.203125 14.796875 27.296875 
z
" id="DejaVuSans-100"/>
      <path d="M 56.203125 29.59375 
L 56.203125 25.203125 
L 14.890625 25.203125 
Q 15.484375 15.921875 20.484375 11.0625 
Q 25.484375 6.203125 34.421875 6.203125 
Q 39.59375 6.203125 44.453125 7.46875 
Q 49.3125 8.734375 54.109375 11.28125 
L 54.109375 2.78125 
Q 49.265625 0.734375 44.1875 -0.34375 
Q 39.109375 -1.421875 33.890625 -1.421875 
Q 20.796875 -1.421875 13.15625 6.1875 
Q 5.515625 13.8125 5.515625 26.8125 
Q 5.515625 40.234375 12.765625 48.109375 
Q 20.015625 56 32.328125 56 
Q 43.359375 56 49.78125 48.890625 
Q 56.203125 41.796875 56.203125 29.59375 
z
M 47.21875 32.234375 
Q 47.125 39.59375 43.09375 43.984375 
Q 39.0625 48.390625 32.421875 48.390625 
Q 24.90625 48.390625 20.390625 44.140625 
Q 15.875 39.890625 15.1875 32.171875 
z
" id="DejaVuSans-101"/>
     </defs>
     <g transform="translate(349.3625 343.276563)scale(0.1 -0.1)">
      <use xlink:href="#DejaVuSans-69"/>
      <use x="63.183594" xlink:href="#DejaVuSans-112"/>
      <use x="126.660156" xlink:href="#DejaVuSans-105"/>
      <use x="154.443359" xlink:href="#DejaVuSans-115"/>
      <use x="206.542969" xlink:href="#DejaVuSans-111"/>
      <use x="267.724609" xlink:href="#DejaVuSans-100"/>
      <use x="331.201172" xlink:href="#DejaVuSans-101"/>
     </g>
    </g>
   </g>
   <g id="matplotlib.axis_2">
    <g id="ytick_1">
     <g id="line2d_17">
      <path clip-path="url(#p32dcbdd0e5)" d="M 90 314.430893 
L 648 314.430893 
" style="fill:none;stroke:#b0b0b0;stroke-linecap:square;stroke-width:0.8;"/>
     </g>
     <g id="line2d_18">
      <defs>
       <path d="M 0 0 
L -3.5 0 
" id="m09291e2689" style="stroke:#000000;stroke-width:0.8;"/>
      </defs>
      <g>
       <use style="stroke:#000000;stroke-width:0.8;" x="90" xlink:href="#m09291e2689" y="314.430893"/>
      </g>
     </g>
     <g id="text_10">
      <!-- −2.2 -->
      <defs>
       <path d="M 10.59375 35.5 
L 73.1875 35.5 
L 73.1875 27.203125 
L 10.59375 27.203125 
z
" id="DejaVuSans-8722"/>
       <path d="M 10.6875 12.40625 
L 21 12.40625 
L 21 0 
L 10.6875 0 
z
" id="DejaVuSans-46"/>
      </defs>
      <g transform="translate(58.717187 318.230112)scale(0.1 -0.1)">
       <use xlink:href="#DejaVuSans-8722"/>
       <use x="83.789062" xlink:href="#DejaVuSans-50"/>
       <use x="147.412109" xlink:href="#DejaVuSans-46"/>
       <use x="179.199219" xlink:href="#DejaVuSans-50"/>
      </g>
     </g>
    </g>
    <g id="ytick_2">
     <g id="line2d_19">
      <path clip-path="url(#p32dcbdd0e5)" d="M 90 277.247733 
L 648 277.247733 
" style="fill:none;stroke:#b0b0b0;stroke-linecap:square;stroke-width:0.8;"/>
     </g>
     <g id="line2d_20">
      <g>
       <use style="stroke:#000000;stroke-width:0.8;" x="90" xlink:href="#m09291e2689" y="277.247733"/>
      </g>
     </g>
     <g id="text_11">
      <!-- −2.0 -->
      <g transform="translate(58.717187 281.046951)scale(0.1 -0.1)">
       <use xlink:href="#DejaVuSans-8722"/>
       <use x="83.789062" xlink:href="#DejaVuSans-50"/>
       <use x="147.412109" xlink:href="#DejaVuSans-46"/>
       <use x="179.199219" xlink:href="#DejaVuSans-48"/>
      </g>
     </g>
    </g>
    <g id="ytick_3">
     <g id="line2d_21">
      <path clip-path="url(#p32dcbdd0e5)" d="M 90 240.064572 
L 648 240.064572 
" style="fill:none;stroke:#b0b0b0;stroke-linecap:square;stroke-width:0.8;"/>
     </g>
     <g id="line2d_22">
      <g>
       <use style="stroke:#000000;stroke-width:0.8;" x="90" xlink:href="#m09291e2689" y="240.064572"/>
      </g>
     </g>
     <g id="text_12">
      <!-- −1.8 -->
      <g transform="translate(58.717187 243.863791)scale(0.1 -0.1)">
       <use xlink:href="#DejaVuSans-8722"/>
       <use x="83.789062" xlink:href="#DejaVuSans-49"/>
       <use x="147.412109" xlink:href="#DejaVuSans-46"/>
       <use x="179.199219" xlink:href="#DejaVuSans-56"/>
      </g>
     </g>
    </g>
    <g id="ytick_4">
     <g id="line2d_23">
      <path clip-path="url(#p32dcbdd0e5)" d="M 90 202.881412 
L 648 202.881412 
" style="fill:none;stroke:#b0b0b0;stroke-linecap:square;stroke-width:0.8;"/>
     </g>
     <g id="line2d_24">
      <g>
       <use style="stroke:#000000;stroke-width:0.8;" x="90" xlink:href="#m09291e2689" y="202.881412"/>
      </g>
     </g>
     <g id="text_13">
      <!-- −1.6 -->
      <g transform="translate(58.717187 206.680631)scale(0.1 -0.1)">
       <use xlink:href="#DejaVuSans-8722"/>
       <use x="83.789062" xlink:href="#DejaVuSans-49"/>
       <use x="147.412109" xlink:href="#DejaVuSans-46"/>
       <use x="179.199219" xlink:href="#DejaVuSans-54"/>
      </g>
     </g>
    </g>
    <g id="ytick_5">
     <g id="line2d_25">
      <path clip-path="url(#p32dcbdd0e5)" d="M 90 165.698252 
L 648 165.698252 
" style="fill:none;stroke:#b0b0b0;stroke-linecap:square;stroke-width:0.8;"/>
     </g>
     <g id="line2d_26">
      <g>
       <use style="stroke:#000000;stroke-width:0.8;" x="90" xlink:href="#m09291e2689" y="165.698252"/>
      </g>
     </g>
     <g id="text_14">
      <!-- −1.4 -->
      <g transform="translate(58.717187 169.497471)scale(0.1 -0.1)">
       <use xlink:href="#DejaVuSans-8722"/>
       <use x="83.789062" xlink:href="#DejaVuSans-49"/>
       <use x="147.412109" xlink:href="#DejaVuSans-46"/>
       <use x="179.199219" xlink:href="#DejaVuSans-52"/>
      </g>
     </g>
    </g>
    <g id="ytick_6">
     <g id="line2d_27">
      <path clip-path="url(#p32dcbdd0e5)" d="M 90 128.515092 
L 648 128.515092 
" style="fill:none;stroke:#b0b0b0;stroke-linecap:square;stroke-width:0.8;"/>
     </g>
     <g id="line2d_28">
      <g>
       <use style="stroke:#000000;stroke-width:0.8;" x="90" xlink:href="#m09291e2689" y="128.515092"/>
      </g>
     </g>
     <g id="text_15">
      <!-- −1.2 -->
      <g transform="translate(58.717187 132.31431)scale(0.1 -0.1)">
       <use xlink:href="#DejaVuSans-8722"/>
       <use x="83.789062" xlink:href="#DejaVuSans-49"/>
       <use x="147.412109" xlink:href="#DejaVuSans-46"/>
       <use x="179.199219" xlink:href="#DejaVuSans-50"/>
      </g>
     </g>
    </g>
    <g id="ytick_7">
     <g id="line2d_29">
      <path clip-path="url(#p32dcbdd0e5)" d="M 90 91.331931 
L 648 91.331931 
" style="fill:none;stroke:#b0b0b0;stroke-linecap:square;stroke-width:0.8;"/>
     </g>
     <g id="line2d_30">
      <g>
       <use style="stroke:#000000;stroke-width:0.8;" x="90" xlink:href="#m09291e2689" y="91.331931"/>
      </g>
     </g>
     <g id="text_16">
      <!-- −1.0 -->
      <g transform="translate(58.717187 95.13115)scale(0.1 -0.1)">
       <use xlink:href="#DejaVuSans-8722"/>
       <use x="83.789062" xlink:href="#DejaVuSans-49"/>
       <use x="147.412109" xlink:href="#DejaVuSans-46"/>
       <use x="179.199219" xlink:href="#DejaVuSans-48"/>
      </g>
     </g>
    </g>
    <g id="ytick_8">
     <g id="line2d_31">
      <path clip-path="url(#p32dcbdd0e5)" d="M 90 54.148771 
L 648 54.148771 
" style="fill:none;stroke:#b0b0b0;stroke-linecap:square;stroke-width:0.8;"/>
     </g>
     <g id="line2d_32">
      <g>
       <use style="stroke:#000000;stroke-width:0.8;" x="90" xlink:href="#m09291e2689" y="54.148771"/>
      </g>
     </g>
     <g id="text_17">
      <!-- −0.8 -->
      <g transform="translate(58.717187 57.94799)scale(0.1 -0.1)">
       <use xlink:href="#DejaVuSans-8722"/>
       <use x="83.789062" xlink:href="#DejaVuSans-48"/>
       <use x="147.412109" xlink:href="#DejaVuSans-46"/>
       <use x="179.199219" xlink:href="#DejaVuSans-56"/>
      </g>
     </g>
    </g>
    <g id="text_18">
     <!-- Episode Reward (Smoothed) -->
     <defs>
      <path id="DejaVuSans-32"/>
      <path d="M 44.390625 34.1875 
Q 47.5625 33.109375 50.5625 29.59375 
Q 53.5625 26.078125 56.59375 19.921875 
L 66.609375 0 
L 56 0 
L 46.6875 18.703125 
Q 43.0625 26.03125 39.671875 28.421875 
Q 36.28125 30.8125 30.421875 30.8125 
L 19.671875 30.8125 
L 19.671875 0 
L 9.8125 0 
L 9.8125 72.90625 
L 32.078125 72.90625 
Q 44.578125 72.90625 50.734375 67.671875 
Q 56.890625 62.453125 56.890625 51.90625 
Q 56.890625 45.015625 53.6875 40.46875 
Q 50.484375 35.9375 44.390625 34.1875 
z
M 19.671875 64.796875 
L 19.671875 38.921875 
L 32.078125 38.921875 
Q 39.203125 38.921875 42.84375 42.21875 
Q 46.484375 45.515625 46.484375 51.90625 
Q 46.484375 58.296875 42.84375 61.546875 
Q 39.203125 64.796875 32.078125 64.796875 
z
" id="DejaVuSans-82"/>
      <path d="M 4.203125 54.6875 
L 13.1875 54.6875 
L 24.421875 12.015625 
L 35.59375 54.6875 
L 46.1875 54.6875 
L 57.421875 12.015625 
L 68.609375 54.6875 
L 77.59375 54.6875 
L 63.28125 0 
L 52.6875 0 
L 40.921875 44.828125 
L 29.109375 0 
L 18.5 0 
z
" id="DejaVuSans-119"/>
      <path d="M 34.28125 27.484375 
Q 23.390625 27.484375 19.1875 25 
Q 14.984375 22.515625 14.984375 16.5 
Q 14.984375 11.71875 18.140625 8.90625 
Q 21.296875 6.109375 26.703125 6.109375 
Q 34.1875 6.109375 38.703125 11.40625 
Q 43.21875 16.703125 43.21875 25.484375 
L 43.21875 27.484375 
z
M 52.203125 31.203125 
L 52.203125 0 
L 43.21875 0 
L 43.21875 8.296875 
Q 40.140625 3.328125 35.546875 0.953125 
Q 30.953125 -1.421875 24.3125 -1.421875 
Q 15.921875 -1.421875 10.953125 3.296875 
Q 6 8.015625 6 15.921875 
Q 6 25.140625 12.171875 29.828125 
Q 18.359375 34.515625 30.609375 34.515625 
L 43.21875 34.515625 
L 43.21875 35.40625 
Q 43.21875 41.609375 39.140625 45 
Q 35.0625 48.390625 27.6875 48.390625 
Q 23 48.390625 18.546875 47.265625 
Q 14.109375 46.140625 10.015625 43.890625 
L 10.015625 52.203125 
Q 14.9375 54.109375 19.578125 55.046875 
Q 24.21875 56 28.609375 56 
Q 40.484375 56 46.34375 49.84375 
Q 52.203125 43.703125 52.203125 31.203125 
z
" id="DejaVuSans-97"/>
      <path d="M 41.109375 46.296875 
Q 39.59375 47.171875 37.8125 47.578125 
Q 36.03125 48 33.890625 48 
Q 26.265625 48 22.1875 43.046875 
Q 18.109375 38.09375 18.109375 28.8125 
L 18.109375 0 
L 9.078125 0 
L 9.078125 54.6875 
L 18.109375 54.6875 
L 18.109375 46.1875 
Q 20.953125 51.171875 25.484375 53.578125 
Q 30.03125 56 36.53125 56 
Q 37.453125 56 38.578125 55.875 
Q 39.703125 55.765625 41.0625 55.515625 
z
" id="DejaVuSans-114"/>
      <path d="M 31 75.875 
Q 24.46875 64.65625 21.28125 53.65625 
Q 18.109375 42.671875 18.109375 31.390625 
Q 18.109375 20.125 21.3125 9.0625 
Q 24.515625 -2 31 -13.1875 
L 23.1875 -13.1875 
Q 15.875 -1.703125 12.234375 9.375 
Q 8.59375 20.453125 8.59375 31.390625 
Q 8.59375 42.28125 12.203125 53.3125 
Q 15.828125 64.359375 23.1875 75.875 
z
" id="DejaVuSans-40"/>
      <path d="M 53.515625 70.515625 
L 53.515625 60.890625 
Q 47.90625 63.578125 42.921875 64.890625 
Q 37.9375 66.21875 33.296875 66.21875 
Q 25.25 66.21875 20.875 63.09375 
Q 16.5 59.96875 16.5 54.203125 
Q 16.5 49.359375 19.40625 46.890625 
Q 22.3125 44.4375 30.421875 42.921875 
L 36.375 41.703125 
Q 47.40625 39.59375 52.65625 34.296875 
Q 57.90625 29 57.90625 20.125 
Q 57.90625 9.515625 50.796875 4.046875 
Q 43.703125 -1.421875 29.984375 -1.421875 
Q 24.8125 -1.421875 18.96875 -0.25 
Q 13.140625 0.921875 6.890625 3.21875 
L 6.890625 13.375 
Q 12.890625 10.015625 18.65625 8.296875 
Q 24.421875 6.59375 29.984375 6.59375 
Q 38.421875 6.59375 43.015625 9.90625 
Q 47.609375 13.234375 47.609375 19.390625 
Q 47.609375 24.75 44.3125 27.78125 
Q 41.015625 30.8125 33.5 32.328125 
L 27.484375 33.5 
Q 16.453125 35.6875 11.515625 40.375 
Q 6.59375 45.0625 6.59375 53.421875 
Q 6.59375 63.09375 13.40625 68.65625 
Q 20.21875 74.21875 32.171875 74.21875 
Q 37.3125 74.21875 42.625 73.28125 
Q 47.953125 72.359375 53.515625 70.515625 
z
" id="DejaVuSans-83"/>
      <path d="M 52 44.1875 
Q 55.375 50.25 60.0625 53.125 
Q 64.75 56 71.09375 56 
Q 79.640625 56 84.28125 50.015625 
Q 88.921875 44.046875 88.921875 33.015625 
L 88.921875 0 
L 79.890625 0 
L 79.890625 32.71875 
Q 79.890625 40.578125 77.09375 44.375 
Q 74.3125 48.1875 68.609375 48.1875 
Q 61.625 48.1875 57.5625 43.546875 
Q 53.515625 38.921875 53.515625 30.90625 
L 53.515625 0 
L 44.484375 0 
L 44.484375 32.71875 
Q 44.484375 40.625 41.703125 44.40625 
Q 38.921875 48.1875 33.109375 48.1875 
Q 26.21875 48.1875 22.15625 43.53125 
Q 18.109375 38.875 18.109375 30.90625 
L 18.109375 0 
L 9.078125 0 
L 9.078125 54.6875 
L 18.109375 54.6875 
L 18.109375 46.1875 
Q 21.1875 51.21875 25.484375 53.609375 
Q 29.78125 56 35.6875 56 
Q 41.65625 56 45.828125 52.96875 
Q 50 49.953125 52 44.1875 
z
" id="DejaVuSans-109"/>
      <path d="M 18.3125 70.21875 
L 18.3125 54.6875 
L 36.8125 54.6875 
L 36.8125 47.703125 
L 18.3125 47.703125 
L 18.3125 18.015625 
Q 18.3125 11.328125 20.140625 9.421875 
Q 21.96875 7.515625 27.59375 7.515625 
L 36.8125 7.515625 
L 36.8125 0 
L 27.59375 0 
Q 17.1875 0 13.234375 3.875 
Q 9.28125 7.765625 9.28125 18.015625 
L 9.28125 47.703125 
L 2.6875 47.703125 
L 2.6875 54.6875 
L 9.28125 54.6875 
L 9.28125 70.21875 
z
" id="DejaVuSans-116"/>
      <path d="M 54.890625 33.015625 
L 54.890625 0 
L 45.90625 0 
L 45.90625 32.71875 
Q 45.90625 40.484375 42.875 44.328125 
Q 39.84375 48.1875 33.796875 48.1875 
Q 26.515625 48.1875 22.3125 43.546875 
Q 18.109375 38.921875 18.109375 30.90625 
L 18.109375 0 
L 9.078125 0 
L 9.078125 75.984375 
L 18.109375 75.984375 
L 18.109375 46.1875 
Q 21.34375 51.125 25.703125 53.5625 
Q 30.078125 56 35.796875 56 
Q 45.21875 56 50.046875 50.171875 
Q 54.890625 44.34375 54.890625 33.015625 
z
" id="DejaVuSans-104"/>
      <path d="M 8.015625 75.875 
L 15.828125 75.875 
Q 23.140625 64.359375 26.78125 53.3125 
Q 30.421875 42.28125 30.421875 31.390625 
Q 30.421875 20.453125 26.78125 9.375 
Q 23.140625 -1.703125 15.828125 -13.1875 
L 8.015625 -13.1875 
Q 14.5 -2 17.703125 9.0625 
Q 20.90625 20.125 20.90625 31.390625 
Q 20.90625 42.671875 17.703125 53.65625 
Q 14.5 64.65625 8.015625 75.875 
z
" id="DejaVuSans-41"/>
     </defs>
     <g transform="translate(52.6375 250.289844)rotate(-90)scale(0.1 -0.1)">
      <use xlink:href="#DejaVuSans-69"/>
      <use x="63.183594" xlink:href="#DejaVuSans-112"/>
      <use x="126.660156" xlink:href="#DejaVuSans-105"/>
      <use x="154.443359" xlink:href="#DejaVuSans-115"/>
      <use x="206.542969" xlink:href="#DejaVuSans-111"/>
      <use x="267.724609" xlink:href="#DejaVuSans-100"/>
      <use x="331.201172" xlink:href="#DejaVuSans-101"/>
      <use x="392.724609" xlink:href="#DejaVuSans-32"/>
      <use x="424.511719" xlink:href="#DejaVuSans-82"/>
      <use x="493.931641" xlink:href="#DejaVuSans-101"/>
      <use x="555.455078" xlink:href="#DejaVuSans-119"/>
      <use x="637.242188" xlink:href="#DejaVuSans-97"/>
      <use x="698.521484" xlink:href="#DejaVuSans-114"/>
      <use x="739.619141" xlink:href="#DejaVuSans-100"/>
      <use x="803.095703" xlink:href="#DejaVuSans-32"/>
      <use x="834.882812" xlink:href="#DejaVuSans-40"/>
      <use x="873.896484" xlink:href="#DejaVuSans-83"/>
      <use x="937.373047" xlink:href="#DejaVuSans-109"/>
      <use x="1034.785156" xlink:href="#DejaVuSans-111"/>
      <use x="1095.966797" xlink:href="#DejaVuSans-111"/>
      <use x="1157.148438" xlink:href="#DejaVuSans-116"/>
      <use x="1196.357422" xlink:href="#DejaVuSans-104"/>
      <use x="1259.736328" xlink:href="#DejaVuSans-101"/>
      <use x="1321.259766" xlink:href="#DejaVuSans-100"/>
      <use x="1384.736328" xlink:href="#DejaVuSans-41"/>
     </g>
    </g>
   </g>
   <g id="line2d_33">
    <path clip-path="url(#p32dcbdd0e5)" d="M 115.363636 225.433528 
L 115.702044 194.378091 
L 116.040451 194.457198 
L 116.378859 142.728998 
L 116.717266 221.61024 
L 117.055673 107.525298 
L 117.394081 196.308165 
L 117.732488 141.311135 
L 118.070896 196.569175 
L 118.409303 211.695165 
L 118.747711 113.869365 
L 119.086118 158.751186 
L 119.424525 302.645455 
L 119.762933 191.345893 
L 120.10134 175.465702 
L 120.439748 90.262173 
L 120.778155 83.50245 
L 121.116563 69.904732 
L 121.45497 199.924238 
L 121.793377 193.947294 
L 122.131785 175.812203 
L 122.470192 271.139203 
L 122.8086 61.007409 
L 123.147007 180.114491 
L 123.485415 151.415428 
L 123.823822 105.508085 
L 124.162229 79.920395 
L 124.500637 134.433347 
L 124.839044 71.266517 
L 125.177452 126.121579 
L 125.515859 60.955167 
L 125.854266 122.992402 
L 126.192674 122.479805 
L 126.531081 67.845476 
L 126.869489 150.454262 
L 127.207896 132.921154 
L 127.546304 166.56404 
L 127.884711 84.809731 
L 128.223118 69.84931 
L 128.561526 143.691698 
L 128.899933 94.184745 
L 129.238341 91.85804 
L 129.576748 104.887272 
L 130.59197 70.366492 
L 130.930378 142.785875 
L 131.268785 143.607522 
L 131.607193 61.051153 
L 131.9456 141.182008 
L 132.284008 103.111785 
L 132.622415 116.360011 
L 132.960822 85.588523 
L 133.29923 69.108656 
L 133.637637 118.199837 
L 133.976045 69.914697 
L 134.314452 126.056821 
L 134.652859 144.530909 
L 134.991267 60.664075 
L 135.329674 143.764346 
L 135.668082 79.087935 
L 136.006489 84.392414 
L 136.344897 145.653231 
L 136.683304 126.598447 
L 137.021711 86.996946 
L 137.360119 65.773773 
L 137.698526 144.821024 
L 138.375341 69.840984 
L 138.713749 129.195887 
L 139.052156 74.172869 
L 139.390563 91.731748 
L 139.728971 82.316961 
L 140.067378 121.414695 
L 140.405786 75.709191 
L 140.744193 62.908896 
L 141.082601 60.766593 
L 141.421008 138.921951 
L 141.759415 121.384076 
L 142.097823 115.120125 
L 142.43623 80.872377 
L 142.774638 80.651214 
L 143.113045 62.844205 
L 143.451452 106.67355 
L 143.78986 64.81423 
L 144.128267 106.601714 
L 144.466675 118.067688 
L 144.805082 119.063902 
L 145.14349 84.470827 
L 145.481897 76.330435 
L 145.820304 84.393615 
L 146.158712 69.5473 
L 146.497119 88.119676 
L 146.835527 81.947845 
L 147.173934 79.737421 
L 147.512342 124.901694 
L 147.850749 91.90663 
L 148.189156 72.270056 
L 148.527564 61.952177 
L 148.865971 153.243268 
L 149.204379 168.759431 
L 149.542786 82.07522 
L 149.881194 65.640492 
L 150.219601 111.012261 
L 150.558008 63.960446 
L 150.896416 143.78728 
L 151.234823 79.421857 
L 151.573231 78.307371 
L 151.911638 146.508109 
L 152.250045 91.214106 
L 152.588453 73.59882 
L 152.92686 65.808805 
L 153.265268 135.182643 
L 153.603675 105.376781 
L 153.942083 85.849248 
L 154.28049 98.335491 
L 154.618897 133.822959 
L 154.957305 113.086529 
L 155.295712 77.932241 
L 155.63412 78.594523 
L 155.972527 68.482856 
L 156.310935 81.853428 
L 156.649342 64.506557 
L 156.987749 156.951544 
L 157.326157 149.469715 
L 157.664564 91.498727 
L 158.002972 71.034246 
L 158.341379 119.126919 
L 158.679787 150.6208 
L 159.018194 76.692538 
L 159.356601 95.232565 
L 159.695009 87.16665 
L 160.033416 153.315861 
L 160.371824 69.431407 
L 160.710231 112.205107 
L 161.048638 67.850606 
L 161.387046 116.699979 
L 161.725453 67.712288 
L 162.063861 175.555627 
L 162.402268 123.365493 
L 162.740676 106.630666 
L 163.079083 111.868217 
L 163.41749 69.671957 
L 163.755898 107.180584 
L 164.094305 76.819564 
L 164.432713 93.023135 
L 164.77112 179.569123 
L 165.109528 148.649408 
L 165.786342 141.824739 
L 166.12475 129.89701 
L 166.463157 182.228809 
L 166.801565 149.821111 
L 167.139972 167.74664 
L 167.816787 226.190562 
L 168.155194 121.143356 
L 168.493602 162.254678 
L 168.832009 163.506286 
L 169.170417 105.885743 
L 169.508824 155.475844 
L 169.847231 105.493726 
L 170.185639 90.7588 
L 170.524046 158.689816 
L 170.862454 172.516838 
L 171.200861 200.907 
L 171.539269 85.080162 
L 171.877676 207.690165 
L 172.554491 103.125655 
L 172.892898 146.243076 
L 173.231306 154.255269 
L 173.569713 234.260074 
L 173.908121 75.274913 
L 174.246528 218.422678 
L 174.584935 114.976806 
L 174.923343 171.856405 
L 175.26175 114.391495 
L 175.600158 90.867603 
L 175.938565 103.176554 
L 176.276973 101.113832 
L 176.61538 115.195603 
L 176.953787 74.159876 
L 177.292195 120.23565 
L 177.630602 73.178082 
L 177.96901 197.090786 
L 178.307417 135.356911 
L 178.645824 144.789477 
L 178.984232 120.247342 
L 179.322639 142.82973 
L 179.661047 66.292955 
L 179.999454 109.995145 
L 180.337862 108.83293 
L 180.676269 218.676602 
L 181.014676 148.420077 
L 181.691491 102.826037 
L 182.029899 99.848914 
L 182.368306 110.607709 
L 182.706714 110.929958 
L 183.045121 101.496895 
L 183.383528 96.299156 
L 183.721936 100.725211 
L 184.060343 79.38766 
L 184.398751 82.571439 
L 184.737158 63.150355 
L 185.075566 143.646018 
L 185.413973 134.252707 
L 186.090788 97.463925 
L 186.429195 92.034722 
L 186.767603 83.440472 
L 187.10601 58.386272 
L 187.444417 109.137575 
L 187.782825 73.573523 
L 188.121232 162.068878 
L 188.45964 90.423459 
L 188.798047 84.937097 
L 189.136455 65.934158 
L 189.474862 79.421722 
L 189.813269 129.588437 
L 190.151677 90.777775 
L 190.490084 65.918983 
L 190.828492 72.240315 
L 191.166899 74.273106 
L 191.505307 138.902566 
L 191.843714 67.180881 
L 192.182121 79.711007 
L 192.520529 123.728512 
L 192.858936 119.951976 
L 193.197344 106.486538 
L 193.535751 71.19356 
L 193.874159 102.281234 
L 194.212566 87.317419 
L 194.550973 87.305668 
L 194.889381 65.959463 
L 195.227788 72.23689 
L 195.566196 70.158714 
L 195.904603 107.155461 
L 196.24301 61.905095 
L 196.581418 134.591288 
L 196.919825 107.827793 
L 197.258233 97.061415 
L 197.59664 101.522709 
L 198.273455 69.926941 
L 198.611862 77.121074 
L 198.95027 93.86386 
L 199.288677 70.519967 
L 199.627085 73.720453 
L 199.965492 84.912134 
L 200.3039 63.782921 
L 200.642307 87.079778 
L 200.980714 74.221473 
L 201.319122 90.504937 
L 201.657529 158.127162 
L 201.995937 194.780704 
L 202.334344 80.21918 
L 202.672752 61.706542 
L 203.011159 145.174374 
L 203.349566 98.425711 
L 203.687974 83.207742 
L 204.026381 85.91302 
L 204.364789 85.91302 
L 204.703196 96.247814 
L 205.041603 74.920961 
L 205.380011 114.756543 
L 205.718418 80.40866 
L 206.395233 58.553001 
L 206.733641 146.222514 
L 207.072048 112.143925 
L 207.410455 136.00268 
L 207.748863 88.734248 
L 208.08727 135.440131 
L 208.425678 108.255473 
L 208.764085 71.716427 
L 209.102493 82.562738 
L 209.4409 75.084812 
L 209.779307 64.518104 
L 210.117715 60.011304 
L 210.456122 124.762776 
L 210.79453 66.600695 
L 211.132937 62.095362 
L 211.471345 67.193792 
L 211.809752 144.426593 
L 212.148159 120.746714 
L 212.486567 80.590708 
L 212.824974 76.733872 
L 213.163382 93.962413 
L 213.501789 65.955473 
L 213.840196 131.402543 
L 214.178604 65.129236 
L 214.517011 72.119249 
L 214.855419 75.251442 
L 215.193826 118.568401 
L 215.532234 77.388616 
L 215.870641 77.710985 
L 216.209048 74.566948 
L 216.547456 67.886981 
L 216.885863 215.21123 
L 217.562678 100.054193 
L 217.901086 74.950046 
L 218.239493 142.739211 
L 218.5779 133.437173 
L 218.916308 115.763444 
L 219.254715 77.351698 
L 219.593123 77.351698 
L 219.93153 79.19394 
L 220.269938 77.351698 
L 220.608345 98.624519 
L 220.946752 71.356044 
L 221.28516 72.556468 
L 221.623567 183.782362 
L 221.961975 127.339459 
L 222.300382 157.698761 
L 222.638789 89.70477 
L 222.977197 80.379228 
L 223.315604 75.738023 
L 223.654012 72.814229 
L 223.992419 73.343567 
L 224.330827 75.357259 
L 224.669234 98.993129 
L 225.007641 68.66828 
L 225.346049 95.955886 
L 225.684456 59.562539 
L 226.022864 126.325209 
L 226.361271 91.005047 
L 226.699679 81.974215 
L 227.038086 122.918387 
L 227.376493 68.378458 
L 227.714901 63.055218 
L 228.053308 116.845966 
L 228.391716 74.474687 
L 228.730123 67.168889 
L 229.068531 71.337038 
L 229.406938 60.476872 
L 229.745345 152.99787 
L 230.083753 101.414125 
L 230.42216 105.765478 
L 230.760568 97.896376 
L 231.098975 110.244961 
L 231.437382 101.378081 
L 231.77579 86.879909 
L 232.114197 65.215985 
L 232.452605 113.072486 
L 233.12942 60.824546 
L 233.467827 63.648641 
L 233.806234 126.325209 
L 234.144642 65.215985 
L 234.483049 58.955964 
L 234.821457 97.335145 
L 235.159864 58.421525 
L 235.836679 128.259474 
L 236.175086 75.713984 
L 236.513494 92.572179 
L 236.851901 66.336892 
L 237.190309 149.768642 
L 237.528716 86.87091 
L 237.867124 65.803817 
L 238.205531 125.601155 
L 238.543938 82.180267 
L 238.882346 89.001182 
L 239.220753 91.491041 
L 239.559161 63.237404 
L 239.897568 65.321704 
L 240.235975 58.421525 
L 240.574383 146.791261 
L 240.91279 85.801011 
L 241.251198 83.546968 
L 241.589605 93.355787 
L 241.928013 74.593967 
L 242.26642 77.436445 
L 242.604827 86.450823 
L 242.943235 87.29441 
L 243.281642 78.500467 
L 243.62005 64.222183 
L 243.958457 217.138826 
L 244.296865 140.949962 
L 244.635272 92.770514 
L 244.973679 100.23309 
L 245.312087 100.655793 
L 245.650494 100.265347 
L 245.988902 86.679163 
L 246.327309 82.103856 
L 246.665717 140.402887 
L 247.004124 122.900012 
L 247.342531 76.640995 
L 247.680939 91.997607 
L 248.019346 115.919938 
L 248.357754 70.229587 
L 248.696161 103.558164 
L 249.034569 61.550832 
L 249.372976 81.759995 
L 250.049791 81.759995 
L 250.388198 67.157875 
L 250.726606 58.874551 
L 251.065013 116.564032 
L 251.40342 69.76746 
L 251.741828 67.157875 
L 252.080235 58.874551 
L 252.418643 138.799255 
L 252.75705 90.201458 
L 253.095458 93.787126 
L 253.433865 93.554871 
L 253.772272 79.038958 
L 254.11068 81.111473 
L 254.449087 79.728501 
L 254.787495 79.728501 
L 255.125902 68.896415 
L 255.46431 63.08517 
L 255.802717 73.688966 
L 256.141124 66.910319 
L 256.479532 136.680989 
L 256.817939 125.34197 
L 257.156347 88.997142 
L 257.494754 68.314743 
L 257.833162 72.039135 
L 258.171569 92.900099 
L 258.509976 72.039135 
L 258.848384 83.061065 
L 259.186791 134.349319 
L 259.525199 80.525089 
L 259.863606 80.280686 
L 260.202013 138.044913 
L 260.540421 122.079651 
L 260.878828 81.510072 
L 261.217236 107.729391 
L 261.894051 74.203463 
L 262.232458 94.787311 
L 262.570865 70.713325 
L 262.909273 63.573609 
L 263.24768 74.877999 
L 263.586088 133.764525 
L 263.924495 79.203757 
L 264.262903 79.408523 
L 264.60131 87.21057 
L 264.939717 63.573609 
L 265.278125 124.928626 
L 265.616532 85.731921 
L 265.95494 68.866129 
L 266.293347 63.573609 
L 266.631755 113.126481 
L 266.970162 79.20424 
L 267.308569 63.573609 
L 267.646977 96.700945 
L 267.985384 65.860163 
L 268.323792 159.660885 
L 268.662199 98.426602 
L 269.000606 97.201632 
L 269.339014 81.225261 
L 269.677421 74.890901 
L 270.015829 85.266267 
L 270.354236 80.118011 
L 271.031051 62.07366 
L 271.369458 128.777842 
L 272.046273 85.151689 
L 272.384681 77.950832 
L 272.723088 79.577638 
L 273.061496 70.575627 
L 273.73831 82.438658 
L 274.076718 158.222831 
L 274.415125 105.03411 
L 274.753533 95.921825 
L 275.09194 93.523242 
L 275.430348 119.088769 
L 275.768755 90.619518 
L 276.107162 95.61223 
L 276.44557 72.564189 
L 276.783977 62.553212 
L 277.122385 126.824512 
L 277.460792 100.704967 
L 277.799199 123.943502 
L 278.137607 126.141469 
L 278.814422 66.334159 
L 279.152829 136.741007 
L 279.491237 75.062885 
L 279.829644 111.983983 
L 280.168051 64.044789 
L 280.506459 145.181098 
L 280.844866 87.13909 
L 281.183274 182.434619 
L 281.521681 107.245501 
L 281.860089 111.670067 
L 282.198496 89.397001 
L 282.536903 112.988333 
L 282.875311 115.142465 
L 283.213718 80.381496 
L 283.552126 209.06592 
L 283.890533 106.819458 
L 284.228941 167.21179 
L 284.567348 135.079786 
L 284.905755 159.353565 
L 285.244163 102.645051 
L 285.58257 95.362674 
L 285.920978 142.98553 
L 286.259385 109.784083 
L 286.597792 123.366715 
L 286.9362 104.652155 
L 287.274607 100.066174 
L 287.613015 100.066174 
L 287.951422 84.215708 
L 288.28983 88.438314 
L 288.628237 79.65778 
L 288.966644 79.65778 
L 289.305052 80.452879 
L 289.643459 79.65778 
L 289.981867 72.285996 
L 290.320274 79.65778 
L 290.997089 79.65778 
L 291.335496 95.064648 
L 291.673904 139.420011 
L 292.012311 96.375245 
L 292.350719 105.604296 
L 292.689126 146.934172 
L 293.027534 296.550812 
L 293.365941 176.291608 
L 293.704348 100.852307 
L 294.042756 135.36755 
L 294.381163 96.352742 
L 294.719571 108.66991 
L 295.057978 85.459508 
L 295.734793 85.459508 
L 296.0732 106.859284 
L 296.411608 88.150594 
L 296.750015 87.300543 
L 297.088423 89.832527 
L 297.42683 91.300011 
L 297.765237 70.8686 
L 298.103645 69.29182 
L 298.442052 89.49376 
L 298.78046 65.127287 
L 299.118867 76.491934 
L 299.457275 80.281935 
L 299.795682 80.281935 
L 300.134089 69.406842 
L 300.472497 152.534438 
L 301.149312 75.118851 
L 301.826127 75.118851 
L 302.164534 91.934335 
L 302.502941 72.689306 
L 303.856571 72.689306 
L 304.194978 66.30589 
L 304.533386 70.74047 
L 304.871793 149.974727 
L 305.210201 94.489177 
L 305.548608 74.900841 
L 305.887016 140.661384 
L 306.56383 68.796768 
L 306.902238 68.434203 
L 307.240645 89.162954 
L 307.579053 101.747418 
L 308.255868 61.08789 
L 308.594275 135.50807 
L 308.932682 69.97501 
L 309.27109 73.100347 
L 309.609497 58.274444 
L 309.947905 125.385457 
L 310.286312 93.25382 
L 310.62472 71.852372 
L 310.963127 116.050041 
L 311.301534 65.620979 
L 311.639942 120.534781 
L 311.978349 145.813573 
L 312.316757 64.70758 
L 312.655164 68.075293 
L 312.993571 146.257755 
L 313.331979 99.79046 
L 313.670386 79.065603 
L 314.008794 81.794245 
L 314.347201 65.446053 
L 314.685609 75.596441 
L 315.024016 81.1038 
L 315.362423 134.466236 
L 315.700831 91.044103 
L 316.039238 69.968969 
L 316.377646 123.822688 
L 316.716053 132.733178 
L 317.054461 83.286428 
L 317.392868 104.340905 
L 317.731275 80.714895 
L 318.069683 89.669414 
L 318.40809 77.815067 
L 318.746498 84.928423 
L 319.084905 74.889659 
L 319.423313 76.460673 
L 319.76172 82.250656 
L 320.100127 67.576698 
L 320.438535 147.866154 
L 320.776942 85.685027 
L 321.11535 82.443545 
L 321.453757 69.648786 
L 321.792164 177.384005 
L 322.130572 110.366846 
L 322.468979 116.52158 
L 322.807387 81.136891 
L 323.145794 211.16059 
L 323.484202 129.315659 
L 323.822609 124.06525 
L 324.161016 124.06525 
L 324.499424 108.281405 
L 324.837831 134.833688 
L 325.176239 124.954391 
L 325.514646 68.400284 
L 325.853054 64.646822 
L 326.191461 139.845981 
L 326.529868 62.126618 
L 326.868276 102.910638 
L 327.206683 76.530154 
L 327.545091 102.910638 
L 327.883498 64.646822 
L 328.221906 113.855767 
L 328.560313 90.964973 
L 328.89872 90.964973 
L 329.237128 77.46161 
L 329.575535 71.50365 
L 329.913943 62.333414 
L 330.25235 113.855767 
L 330.590757 71.272422 
L 330.929165 63.283409 
L 331.267572 62.333414 
L 331.60598 68.162751 
L 331.944387 145.02191 
L 332.621202 63.563365 
L 332.959609 72.178436 
L 333.298017 62.333414 
L 333.636424 117.815063 
L 333.974832 63.563365 
L 334.313239 67.085294 
L 334.651647 74.893273 
L 334.990054 110.942104 
L 335.328461 63.563365 
L 335.666869 65.761579 
L 336.005276 62.333414 
L 336.343684 96.461191 
L 336.682091 65.761579 
L 337.020499 62.333414 
L 337.358906 96.461191 
L 337.697313 62.625184 
L 338.035721 97.030528 
L 338.374128 67.085294 
L 338.712536 85.50945 
L 339.050943 67.085294 
L 339.38935 65.761579 
L 339.727758 72.178436 
L 340.066165 65.761579 
L 340.404573 72.178436 
L 340.74298 62.912075 
L 341.081388 72.178436 
L 341.419795 65.761579 
L 341.758202 65.761579 
L 342.09661 72.178436 
L 342.435017 63.732188 
L 342.773425 61.657424 
L 343.111832 97.490738 
L 343.45024 67.085294 
L 344.465462 67.085294 
L 344.803869 68.528457 
L 345.142277 73.946709 
L 345.480684 65.761579 
L 345.819092 72.178436 
L 346.495906 61.657424 
L 346.834314 76.707805 
L 347.172721 76.707805 
L 347.511129 135.596511 
L 347.849536 144.497235 
L 348.187943 61.241219 
L 348.526351 79.494726 
L 348.864758 60.202479 
L 349.203166 116.209554 
L 349.879981 75.849712 
L 350.218388 83.320075 
L 350.556795 119.613027 
L 350.895203 78.552206 
L 351.23361 89.953823 
L 351.910425 74.923706 
L 352.248833 76.155458 
L 352.925647 60.4845 
L 353.264055 134.811213 
L 353.602462 61.241219 
L 353.94087 114.32039 
L 354.279277 76.859217 
L 354.617685 61.241219 
L 354.956092 78.206493 
L 355.294499 77.296994 
L 355.632907 60.4845 
L 355.971314 147.093061 
L 356.309722 112.20792 
L 356.648129 61.535919 
L 356.986536 68.533606 
L 357.324944 60.202479 
L 357.663351 133.683034 
L 358.001759 64.364029 
L 358.340166 95.695483 
L 358.678574 69.952598 
L 359.016981 69.952598 
L 359.355388 65.555967 
L 359.693796 69.952598 
L 360.370611 96.535071 
L 360.709018 90.104744 
L 361.047426 69.304 
L 361.385833 108.474516 
L 361.72424 123.019738 
L 362.062648 69.952598 
L 362.401055 62.118947 
L 362.739463 77.440773 
L 363.07787 105.940583 
L 363.416278 75.570686 
L 363.754685 65.753214 
L 364.093092 150.083994 
L 364.4315 100.609575 
L 364.769907 119.396094 
L 365.108315 111.387683 
L 365.446722 106.979291 
L 365.785129 82.22443 
L 366.123537 110.862506 
L 366.461944 69.952598 
L 368.153981 69.952598 
L 368.492389 71.204131 
L 368.830796 69.952598 
L 369.507611 69.952598 
L 369.846019 80.078099 
L 370.184426 83.793352 
L 370.522833 69.952598 
L 370.861241 69.952598 
L 371.199648 90.616759 
L 371.538056 69.952598 
L 371.876463 69.952598 
L 372.214871 80.101268 
L 372.553278 94.351127 
L 372.891685 98.525435 
L 373.230093 86.784713 
L 373.5685 82.866092 
L 373.906908 75.498066 
L 374.245315 91.1656 
L 374.583722 69.952598 
L 374.92213 69.952598 
L 375.260537 61.107893 
L 375.598945 73.254705 
L 375.937352 109.079308 
L 376.27576 82.866092 
L 376.614167 84.94324 
L 376.952574 69.952598 
L 377.290982 69.952598 
L 377.629389 91.342785 
L 377.967797 68.871937 
L 378.306204 82.492621 
L 378.644612 82.331218 
L 378.983019 71.191203 
L 379.659834 71.191203 
L 379.998241 63.960082 
L 380.675056 63.431698 
L 381.013464 57.355989 
L 381.351871 79.065443 
L 381.690278 57.507947 
L 382.028686 74.257914 
L 382.367093 140.33706 
L 382.705501 122.991109 
L 383.382315 61.637157 
L 383.720723 110.96525 
L 384.05913 71.882262 
L 384.397538 93.831255 
L 384.735945 76.055642 
L 385.074353 75.529758 
L 385.751167 75.569406 
L 386.089575 108.724966 
L 386.427982 68.232812 
L 386.76639 93.580365 
L 387.104797 67.24964 
L 387.443205 76.055642 
L 387.781612 128.501875 
L 388.120019 123.010346 
L 388.458427 67.709241 
L 388.796834 67.709241 
L 389.135242 91.85617 
L 389.473649 68.232812 
L 389.812057 91.85617 
L 390.150464 68.232812 
L 390.488871 79.753099 
L 390.827279 76.055642 
L 391.165686 115.144369 
L 391.504094 68.232812 
L 391.842501 63.828891 
L 392.180908 65.995369 
L 392.519316 115.144369 
L 392.857723 68.232812 
L 393.196131 63.828891 
L 393.534538 65.995369 
L 393.872946 134.258327 
L 394.211353 131.405412 
L 394.54976 75.50093 
L 394.888168 81.54145 
L 395.226575 66.471817 
L 395.564983 111.117059 
L 395.90339 86.628028 
L 396.241798 86.628028 
L 396.580205 103.359762 
L 396.918612 74.775015 
L 397.25702 92.648482 
L 397.595427 67.375725 
L 397.933835 92.648482 
L 398.272242 69.154191 
L 398.61065 132.495274 
L 398.949057 77.693896 
L 399.287464 77.693896 
L 399.625872 125.355047 
L 399.964279 81.744931 
L 400.302687 75.431163 
L 400.641094 89.836785 
L 400.979501 117.67999 
L 401.317909 75.431163 
L 401.656316 75.431163 
L 401.994724 81.987875 
L 402.333131 77.693896 
L 402.671539 94.231171 
L 403.009946 66.144908 
L 403.348353 85.751762 
L 403.686761 85.751762 
L 404.025168 135.4762 
L 404.363576 85.598314 
L 404.701983 92.049515 
L 405.040391 70.310905 
L 405.378798 69.479731 
L 405.717205 232.132904 
L 406.055613 120.776607 
L 406.732428 79.926552 
L 407.070835 75.53934 
L 407.409243 66.059248 
L 407.74765 65.560614 
L 408.086057 70.440007 
L 408.762872 70.440007 
L 409.10128 77.382958 
L 409.439687 68.592332 
L 409.778094 124.463512 
L 410.116502 71.790637 
L 410.454909 77.370511 
L 410.793317 62.638705 
L 411.131724 67.147391 
L 411.470132 80.8237 
L 411.808539 58.272134 
L 412.146946 60.544647 
L 412.485354 92.084645 
L 412.823761 67.147391 
L 413.162169 77.403283 
L 413.500576 58.272134 
L 413.838984 70.492659 
L 414.177391 89.525384 
L 414.515798 67.147391 
L 414.854206 67.134234 
L 415.192613 77.371794 
L 415.531021 60.544647 
L 415.869428 77.371794 
L 416.207836 63.533778 
L 416.546243 82.613027 
L 416.88465 63.533778 
L 417.223058 77.371794 
L 417.561465 65.906181 
L 417.899873 105.696745 
L 418.23828 68.598205 
L 418.576687 63.533778 
L 418.915095 92.337381 
L 419.253502 69.437931 
L 419.59191 63.382472 
L 419.930317 78.45813 
L 420.268725 63.986481 
L 420.607132 124.419762 
L 420.945539 103.427194 
L 421.283947 55.554545 
L 421.622354 79.279827 
L 422.299169 79.279827 
L 422.637577 67.033997 
L 422.975984 103.967146 
L 423.314391 66.822534 
L 423.652799 82.117705 
L 423.991206 149.511665 
L 424.668021 65.757733 
L 425.344836 65.757733 
L 425.683243 99.759532 
L 426.021651 107.422366 
L 426.698466 65.757733 
L 427.036873 71.554432 
L 427.37528 139.600771 
L 428.052095 65.757733 
L 428.390503 64.772616 
L 428.72891 83.314313 
L 429.067318 80.282928 
L 429.405725 75.160233 
L 429.744132 84.726029 
L 430.08254 71.591435 
L 430.420947 75.95533 
L 430.759355 73.695007 
L 431.097762 64.431524 
L 431.43617 94.323854 
L 431.774577 89.527711 
L 432.112984 77.138967 
L 432.451392 94.323854 
L 433.128207 155.846614 
L 433.466614 83.388943 
L 433.805022 68.268378 
L 434.143429 76.111233 
L 435.497059 76.111233 
L 435.835466 78.73973 
L 436.173873 79.700986 
L 436.512281 109.027289 
L 436.850688 75.046827 
L 437.189096 75.656758 
L 437.527503 73.480052 
L 437.865911 78.678884 
L 438.204318 69.007103 
L 438.881133 139.319343 
L 439.21954 104.06533 
L 439.557948 111.358578 
L 439.896355 76.666337 
L 440.234763 70.349023 
L 440.57317 70.339849 
L 440.911577 173.611437 
L 441.249985 71.860036 
L 441.588392 98.612143 
L 441.9268 195.396485 
L 442.265207 140.374043 
L 442.603615 118.428028 
L 442.942022 104.06533 
L 443.280429 69.488246 
L 443.618837 62.03987 
L 443.957244 156.727274 
L 444.295652 88.055363 
L 444.634059 62.03987 
L 444.972466 72.087116 
L 445.310874 71.927091 
L 445.649281 71.927091 
L 446.326096 128.720717 
L 446.664504 191.843214 
L 447.002911 101.875928 
L 447.341318 74.322211 
L 447.679726 74.322211 
L 448.018133 79.71719 
L 448.356541 140.240586 
L 448.694948 109.846969 
L 449.033356 119.520245 
L 449.371763 107.793428 
L 449.71017 117.042201 
L 450.048578 90.158627 
L 450.386985 84.374486 
L 450.725393 112.761211 
L 451.0638 84.254643 
L 451.402208 78.835424 
L 451.740615 163.315571 
L 452.079022 88.989909 
L 452.41743 108.778614 
L 452.755837 111.280743 
L 453.094245 86.069289 
L 453.432652 91.921692 
L 453.771059 89.651955 
L 454.109467 89.083565 
L 454.447874 89.083565 
L 454.786282 78.425779 
L 455.124689 81.515173 
L 455.463097 111.767436 
L 455.801504 88.161478 
L 456.139911 90.158627 
L 456.478319 91.421932 
L 456.816726 107.249152 
L 457.155134 160.393596 
L 457.493541 109.611375 
L 457.831949 76.163147 
L 458.170356 74.30865 
L 460.200801 74.30865 
L 460.539208 85.914312 
L 460.877615 111.869257 
L 461.216023 68.948918 
L 461.55443 69.427572 
L 461.892838 158.590514 
L 462.231245 103.405038 
L 462.569652 78.047842 
L 464.26169 78.043788 
L 464.600097 77.365018 
L 464.938504 96.371013 
L 465.276912 100.449488 
L 465.615319 150.538931 
L 466.292134 75.242519 
L 466.630542 77.174025 
L 467.307356 66.872452 
L 467.645764 173.906148 
L 467.984171 108.479912 
L 468.322579 108.115346 
L 468.660986 61.577695 
L 468.999394 66.064495 
L 469.337801 121.988472 
L 469.676208 66.551095 
L 470.014616 178.37441 
L 470.353023 88.350554 
L 470.691431 88.350554 
L 471.029838 111.237518 
L 471.368245 88.350554 
L 471.706653 101.569245 
L 472.04506 94.663751 
L 472.383468 81.500586 
L 472.721875 81.500586 
L 473.060283 88.454588 
L 473.39869 78.132157 
L 473.737097 77.32183 
L 474.075505 69.153257 
L 474.413912 142.62485 
L 474.75232 69.427572 
L 475.090727 208.441242 
L 475.429135 129.598583 
L 475.767542 141.875827 
L 476.105949 88.344212 
L 476.444357 76.066499 
L 477.121172 76.066499 
L 477.459579 73.631621 
L 477.797987 74.511739 
L 478.136394 77.447708 
L 478.474801 118.287949 
L 478.813209 98.224667 
L 479.151616 154.734713 
L 479.490024 107.9323 
L 479.828431 106.813587 
L 480.166838 102.57315 
L 480.505246 75.214603 
L 480.843653 72.487359 
L 481.182061 86.588257 
L 481.520468 84.654792 
L 481.858876 170.786969 
L 482.197283 106.833949 
L 482.874098 83.647129 
L 483.550913 69.734299 
L 484.566135 69.734299 
L 484.904542 80.392773 
L 485.24295 59.29602 
L 485.581357 144.611896 
L 486.59658 88.86339 
L 486.934987 101.397626 
L 487.273394 104.888068 
L 487.611802 72.27991 
L 487.950209 77.347924 
L 488.288617 63.70237 
L 488.627024 76.22591 
L 489.303839 76.22591 
L 489.642246 84.190705 
L 489.980654 76.22591 
L 490.319061 84.190705 
L 490.657469 140.926745 
L 490.995876 85.763235 
L 491.334283 162.509698 
L 491.672691 129.692542 
L 492.011098 124.244654 
L 492.349506 95.92835 
L 492.687913 79.171655 
L 493.364728 79.171655 
L 493.703135 162.286412 
L 494.041543 104.90216 
L 494.718358 90.308483 
L 495.056765 73.548834 
L 495.395173 86.858648 
L 495.73358 86.858648 
L 496.071987 77.391604 
L 496.410395 90.290597 
L 496.748802 94.211491 
L 497.08721 78.976116 
L 497.425617 87.436735 
L 497.764025 67.652857 
L 498.102432 111.406836 
L 498.440839 95.232441 
L 498.779247 68.023859 
L 499.117654 104.064993 
L 499.456062 81.30789 
L 499.794469 93.461011 
L 500.132876 81.30789 
L 500.471284 90.404286 
L 500.809691 83.987015 
L 501.148099 85.055825 
L 501.486506 84.225946 
L 501.824914 86.932638 
L 502.163321 81.394844 
L 502.501728 92.413985 
L 502.840136 82.408098 
L 503.178543 82.408098 
L 503.516951 179.012875 
L 503.855358 119.586171 
L 504.193766 91.520683 
L 504.87058 91.520683 
L 505.208988 108.407907 
L 505.547395 108.407907 
L 505.885803 91.520683 
L 506.22421 90.030321 
L 506.562618 80.10046 
L 508.254655 80.10046 
L 508.593062 98.44272 
L 508.931469 80.10046 
L 509.269877 112.643732 
L 509.608284 92.126688 
L 509.946692 87.52494 
L 510.285099 70.678921 
L 510.961914 70.678921 
L 511.300321 187.295289 
L 511.638729 121.846488 
L 511.977136 127.433608 
L 512.315544 83.705723 
L 512.653951 88.648605 
L 512.992359 70.775245 
L 513.669173 60.629816 
L 514.007581 130.322941 
L 514.345988 64.737216 
L 514.684396 60.629816 
L 515.022803 82.306857 
L 515.361211 70.128293 
L 515.699618 70.128293 
L 516.038025 91.67454 
L 516.376433 58.155268 
L 516.71484 149.239543 
L 517.053248 92.115454 
L 517.391655 98.333126 
L 517.730062 80.571345 
L 518.06847 81.865891 
L 518.406877 131.016414 
L 518.745285 86.843475 
L 519.4221 74.01181 
L 519.760507 121.983113 
L 520.098914 85.406197 
L 520.437322 77.428064 
L 520.775729 90.012415 
L 521.114137 84.267808 
L 521.452544 73.030967 
L 521.790952 78.442252 
L 522.129359 71.904262 
L 522.467766 80.278839 
L 522.806174 58.155268 
L 523.482989 102.914283 
L 523.821396 67.65076 
L 524.159804 112.296045 
L 524.498211 83.456607 
L 524.836618 83.456607 
L 525.175026 81.187265 
L 525.513433 68.613202 
L 525.851841 115.961992 
L 526.190248 81.787933 
L 526.528655 105.367776 
L 526.867063 90.793141 
L 527.20547 90.793141 
L 527.543878 187.052316 
L 527.882285 90.669345 
L 528.220693 113.513156 
L 528.5591 113.513156 
L 529.235915 82.73897 
L 529.574322 101.912769 
L 529.91273 101.912769 
L 530.251137 76.335438 
L 530.927952 89.347528 
L 531.266359 139.250703 
L 531.604767 104.664764 
L 531.943174 104.130593 
L 532.281582 96.454853 
L 532.619989 104.130593 
L 532.958397 92.818818 
L 533.296804 93.073932 
L 533.635211 117.584976 
L 533.973619 86.045592 
L 534.312026 86.045592 
L 534.650434 89.905504 
L 535.327248 82.033785 
L 535.665656 89.905504 
L 536.004063 76.147173 
L 536.342471 132.612508 
L 536.680878 80.647775 
L 537.019286 88.539063 
L 537.357693 116.583691 
L 538.034508 82.650644 
L 538.372915 98.357511 
L 538.711323 94.462263 
L 539.04973 69.347245 
L 539.388138 159.174447 
L 539.726545 102.576324 
L 540.064952 94.232566 
L 540.40336 94.232566 
L 540.741767 78.676823 
L 541.080175 78.676823 
L 541.418582 74.362956 
L 541.75699 126.067439 
L 542.095397 87.091035 
L 542.433804 154.292703 
L 542.772212 86.674089 
L 543.110619 94.97522 
L 543.449027 91.924367 
L 543.787434 69.765367 
L 544.125841 213.388726 
L 544.464249 148.784083 
L 544.802656 111.786912 
L 545.141064 91.433453 
L 545.479471 103.031106 
L 545.817879 91.417603 
L 546.156286 87.959741 
L 546.494693 112.956703 
L 546.833101 102.862323 
L 547.171508 98.44885 
L 547.509916 95.667927 
L 547.848323 104.526191 
L 548.186731 95.036153 
L 548.525138 95.036153 
L 548.863545 122.892959 
L 549.201953 89.843523 
L 549.54036 89.843523 
L 549.878768 95.667927 
L 550.217175 89.843523 
L 550.555583 96.310629 
L 550.89399 92.26477 
L 551.232397 95.036153 
L 551.570805 95.667927 
L 551.909212 116.074405 
L 552.24762 71.274849 
L 552.586027 89.278817 
L 552.924434 87.288575 
L 553.262842 87.934463 
L 553.601249 99.192263 
L 553.939657 87.934463 
L 554.278064 83.255935 
L 554.616472 65.425809 
L 555.970101 65.425809 
L 556.308509 77.904741 
L 556.646916 65.425809 
L 556.985324 65.425809 
L 557.323731 104.001078 
L 558.000546 61.902665 
L 558.338953 63.304068 
L 558.677361 63.304068 
L 559.015768 80.744041 
L 559.354176 183.367973 
L 560.03099 92.623257 
L 560.369398 92.623257 
L 560.707805 95.253366 
L 561.046213 92.623257 
L 561.38462 97.579194 
L 561.723027 147.861244 
L 562.061435 108.781409 
L 562.399842 104.970238 
L 562.73825 77.63586 
L 563.076657 110.074349 
L 563.415065 87.288575 
L 563.753472 80.888058 
L 564.091879 87.934463 
L 564.768694 87.934463 
L 565.107102 92.591953 
L 565.445509 91.475263 
L 565.783917 91.475263 
L 566.460731 70.242252 
L 566.799139 59.592108 
L 567.137546 109.599303 
L 567.475954 72.893486 
L 567.814361 59.592108 
L 568.152769 109.599303 
L 568.491176 89.897134 
L 568.829583 77.129759 
L 569.167991 84.964784 
L 569.506398 84.964784 
L 569.844806 74.862719 
L 570.183213 81.056595 
L 570.52162 72.151571 
L 570.860028 72.832541 
L 571.198435 71.244939 
L 571.536843 72.832541 
L 571.87525 69.432909 
L 572.552065 78.813786 
L 572.890472 77.533496 
L 573.22888 69.432909 
L 573.567287 69.432909 
L 573.905695 80.130382 
L 574.244102 73.929523 
L 574.58251 60.739642 
L 575.259324 77.533496 
L 575.597732 69.432909 
L 575.936139 69.432909 
L 576.274547 73.784065 
L 576.612954 69.443592 
L 576.951362 69.443592 
L 577.289769 72.35018 
L 577.628176 78.813786 
L 577.966584 69.443592 
L 578.304991 69.443592 
L 578.643399 92.174476 
L 578.981806 82.886601 
L 579.320213 102.26693 
L 579.658621 82.886601 
L 579.997028 90.255116 
L 580.335436 86.536267 
L 580.673843 74.196228 
L 581.012251 69.443592 
L 582.704288 69.443592 
L 583.042695 84.704488 
L 583.381103 69.443592 
L 583.71951 66.37569 
L 584.057917 69.443592 
L 584.396325 66.37569 
L 584.734732 69.443592 
L 585.07314 66.37569 
L 585.411547 69.443592 
L 586.088362 77.435799 
L 586.426769 69.443592 
L 586.765177 66.37569 
L 587.103584 69.443592 
L 587.780399 77.423855 
L 588.118806 67.929899 
L 588.457214 84.573201 
L 588.795621 87.157849 
L 589.134029 57.717383 
L 589.472436 75.609067 
L 589.810844 75.609067 
L 590.149251 124.287303 
L 590.487658 100.779208 
L 590.826066 93.05454 
L 591.164473 93.05454 
L 591.502881 75.946157 
L 591.841288 73.348945 
L 592.179696 73.448996 
L 592.518103 57.476478 
L 592.85651 126.323712 
L 593.194918 77.518331 
L 593.533325 77.518331 
L 593.871733 72.800342 
L 594.21014 64.181653 
L 594.548548 86.519924 
L 594.886955 62.588983 
L 595.225362 64.181653 
L 595.56377 66.571829 
L 595.902177 104.176884 
L 596.240585 70.960153 
L 596.578992 57.717383 
L 596.917399 90.239226 
L 597.255807 64.181653 
L 597.594214 62.881212 
L 597.932622 103.639626 
L 598.271029 70.960153 
L 598.609437 57.717383 
L 598.947844 105.402802 
L 599.286251 70.960153 
L 599.624659 70.960153 
L 599.963066 63.495868 
L 600.301474 74.182419 
L 600.639881 116.968925 
L 600.978289 67.056643 
L 601.316696 70.960153 
L 601.655103 63.495868 
L 601.993511 65.816375 
L 602.331918 67.213183 
L 602.670326 85.352353 
L 603.008733 74.182419 
L 603.347141 67.213183 
L 603.685548 101.024348 
L 604.023955 70.960153 
L 604.70077 65.816375 
L 605.039178 60.029334 
L 605.377585 105.499358 
L 605.715992 65.816375 
L 606.0544 95.258209 
L 606.392807 63.495868 
L 606.731215 89.683545 
L 607.069622 63.495868 
L 607.40803 109.518604 
L 607.746437 71.937923 
L 608.084844 74.961099 
L 608.423252 79.266658 
L 608.761659 63.495868 
L 609.100067 89.683545 
L 609.438474 63.495868 
L 609.776882 64.653536 
L 610.115289 113.178675 
L 610.453696 91.628005 
L 610.792104 87.348105 
L 611.130511 67.99847 
L 611.468919 76.910115 
L 611.807326 79.266658 
L 612.484141 79.266658 
L 612.822548 65.29065 
L 613.160956 91.016088 
L 613.837771 66.576758 
L 614.176178 103.121003 
L 614.514585 78.721191 
L 615.868215 78.721191 
L 616.206623 64.685104 
L 616.54503 66.372592 
L 616.883437 91.373313 
L 617.221845 62.851577 
L 617.560252 138.025746 
L 617.89866 80.524485 
L 618.237067 61.683831 
L 618.575475 91.628005 
L 618.913882 74.546137 
L 619.252289 80.166973 
L 619.590697 65.453529 
L 619.929104 75.521179 
L 620.267512 63.073636 
L 620.605919 86.878622 
L 620.944327 66.372592 
L 621.282734 110.229044 
L 621.621141 88.508181 
L 621.959549 76.677677 
L 622.297956 76.677677 
L 622.636364 62.520217 
L 622.636364 62.520217 
" style="fill:none;stroke:#1f77b4;stroke-linecap:square;stroke-width:1.5;"/>
   </g>
   <g id="patch_3">
    <path d="M 90 315 
L 90 43.2 
" style="fill:none;stroke:#000000;stroke-linecap:square;stroke-linejoin:miter;stroke-width:0.8;"/>
   </g>
   <g id="patch_4">
    <path d="M 648 315 
L 648 43.2 
" style="fill:none;stroke:#000000;stroke-linecap:square;stroke-linejoin:miter;stroke-width:0.8;"/>
   </g>
   <g id="patch_5">
    <path d="M 90 315 
L 648 315 
" style="fill:none;stroke:#000000;stroke-linecap:square;stroke-linejoin:miter;stroke-width:0.8;"/>
   </g>
   <g id="patch_6">
    <path d="M 90 43.2 
L 648 43.2 
" style="fill:none;stroke:#000000;stroke-linecap:square;stroke-linejoin:miter;stroke-width:0.8;"/>
   </g>
   <g id="text_19">
    <!-- Episode Reward over Time (Smoothed over window size 1) -->
    <defs>
     <path d="M 2.984375 54.6875 
L 12.5 54.6875 
L 29.59375 8.796875 
L 46.6875 54.6875 
L 56.203125 54.6875 
L 35.6875 0 
L 23.484375 0 
z
" id="DejaVuSans-118"/>
     <path d="M -0.296875 72.90625 
L 61.375 72.90625 
L 61.375 64.59375 
L 35.5 64.59375 
L 35.5 0 
L 25.59375 0 
L 25.59375 64.59375 
L -0.296875 64.59375 
z
" id="DejaVuSans-84"/>
     <path d="M 54.890625 33.015625 
L 54.890625 0 
L 45.90625 0 
L 45.90625 32.71875 
Q 45.90625 40.484375 42.875 44.328125 
Q 39.84375 48.1875 33.796875 48.1875 
Q 26.515625 48.1875 22.3125 43.546875 
Q 18.109375 38.921875 18.109375 30.90625 
L 18.109375 0 
L 9.078125 0 
L 9.078125 54.6875 
L 18.109375 54.6875 
L 18.109375 46.1875 
Q 21.34375 51.125 25.703125 53.5625 
Q 30.078125 56 35.796875 56 
Q 45.21875 56 50.046875 50.171875 
Q 54.890625 44.34375 54.890625 33.015625 
z
" id="DejaVuSans-110"/>
     <path d="M 5.515625 54.6875 
L 48.1875 54.6875 
L 48.1875 46.484375 
L 14.40625 7.171875 
L 48.1875 7.171875 
L 48.1875 0 
L 4.296875 0 
L 4.296875 8.203125 
L 38.09375 47.515625 
L 5.515625 47.515625 
z
" id="DejaVuSans-122"/>
    </defs>
    <g transform="translate(192.289688 37.2)scale(0.12 -0.12)">
     <use xlink:href="#DejaVuSans-69"/>
     <use x="63.183594" xlink:href="#DejaVuSans-112"/>
     <use x="126.660156" xlink:href="#DejaVuSans-105"/>
     <use x="154.443359" xlink:href="#DejaVuSans-115"/>
     <use x="206.542969" xlink:href="#DejaVuSans-111"/>
     <use x="267.724609" xlink:href="#DejaVuSans-100"/>
     <use x="331.201172" xlink:href="#DejaVuSans-101"/>
     <use x="392.724609" xlink:href="#DejaVuSans-32"/>
     <use x="424.511719" xlink:href="#DejaVuSans-82"/>
     <use x="493.931641" xlink:href="#DejaVuSans-101"/>
     <use x="555.455078" xlink:href="#DejaVuSans-119"/>
     <use x="637.242188" xlink:href="#DejaVuSans-97"/>
     <use x="698.521484" xlink:href="#DejaVuSans-114"/>
     <use x="739.619141" xlink:href="#DejaVuSans-100"/>
     <use x="803.095703" xlink:href="#DejaVuSans-32"/>
     <use x="834.882812" xlink:href="#DejaVuSans-111"/>
     <use x="896.064453" xlink:href="#DejaVuSans-118"/>
     <use x="955.244141" xlink:href="#DejaVuSans-101"/>
     <use x="1016.767578" xlink:href="#DejaVuSans-114"/>
     <use x="1057.880859" xlink:href="#DejaVuSans-32"/>
     <use x="1089.667969" xlink:href="#DejaVuSans-84"/>
     <use x="1150.705078" xlink:href="#DejaVuSans-105"/>
     <use x="1178.488281" xlink:href="#DejaVuSans-109"/>
     <use x="1275.900391" xlink:href="#DejaVuSans-101"/>
     <use x="1337.423828" xlink:href="#DejaVuSans-32"/>
     <use x="1369.210938" xlink:href="#DejaVuSans-40"/>
     <use x="1408.224609" xlink:href="#DejaVuSans-83"/>
     <use x="1471.701172" xlink:href="#DejaVuSans-109"/>
     <use x="1569.113281" xlink:href="#DejaVuSans-111"/>
     <use x="1630.294922" xlink:href="#DejaVuSans-111"/>
     <use x="1691.476562" xlink:href="#DejaVuSans-116"/>
     <use x="1730.685547" xlink:href="#DejaVuSans-104"/>
     <use x="1794.064453" xlink:href="#DejaVuSans-101"/>
     <use x="1855.587891" xlink:href="#DejaVuSans-100"/>
     <use x="1919.064453" xlink:href="#DejaVuSans-32"/>
     <use x="1950.851562" xlink:href="#DejaVuSans-111"/>
     <use x="2012.033203" xlink:href="#DejaVuSans-118"/>
     <use x="2071.212891" xlink:href="#DejaVuSans-101"/>
     <use x="2132.736328" xlink:href="#DejaVuSans-114"/>
     <use x="2173.849609" xlink:href="#DejaVuSans-32"/>
     <use x="2205.636719" xlink:href="#DejaVuSans-119"/>
     <use x="2287.423828" xlink:href="#DejaVuSans-105"/>
     <use x="2315.207031" xlink:href="#DejaVuSans-110"/>
     <use x="2378.585938" xlink:href="#DejaVuSans-100"/>
     <use x="2442.0625" xlink:href="#DejaVuSans-111"/>
     <use x="2503.244141" xlink:href="#DejaVuSans-119"/>
     <use x="2585.03125" xlink:href="#DejaVuSans-32"/>
     <use x="2616.818359" xlink:href="#DejaVuSans-115"/>
     <use x="2668.917969" xlink:href="#DejaVuSans-105"/>
     <use x="2696.701172" xlink:href="#DejaVuSans-122"/>
     <use x="2749.191406" xlink:href="#DejaVuSans-101"/>
     <use x="2810.714844" xlink:href="#DejaVuSans-32"/>
     <use x="2842.501953" xlink:href="#DejaVuSans-49"/>
     <use x="2906.125" xlink:href="#DejaVuSans-41"/>
    </g>
   </g>
  </g>
 </g>
 <defs>
  <clipPath id="p32dcbdd0e5">
   <rect height="271.8" width="558" x="90" y="43.2"/>
  </clipPath>
 </defs>
</svg>
