<?xml version="1.0" encoding="utf-8" standalone="no"?>
<!DOCTYPE svg PUBLIC "-//W3C//DTD SVG 1.1//EN"
  "http://www.w3.org/Graphics/SVG/1.1/DTD/svg11.dtd">
<!-- Created with matplotlib (https://matplotlib.org/) -->
<svg height="360pt" version="1.1" viewBox="0 0 720 360" width="720pt" xmlns="http://www.w3.org/2000/svg" xmlns:xlink="http://www.w3.org/1999/xlink">
 <defs>
  <style type="text/css">
*{stroke-linecap:butt;stroke-linejoin:round;white-space:pre;}
  </style>
 </defs>
 <g id="figure_1">
  <g id="patch_1">
   <path d="M 0 360 
L 720 360 
L 720 0 
L 0 0 
z
" style="fill:#ffffff;"/>
  </g>
  <g id="axes_1">
   <g id="patch_2">
    <path d="M 90 315 
L 648 315 
L 648 43.2 
L 90 43.2 
z
" style="fill:#ffffff;"/>
   </g>
   <g id="matplotlib.axis_1">
    <g id="xtick_1">
     <g id="line2d_1">
      <path clip-path="url(#p332537b32b)" d="M 115.363636 315 
L 115.363636 43.2 
" style="fill:none;stroke:#b0b0b0;stroke-linecap:square;stroke-width:0.8;"/>
     </g>
     <g id="line2d_2">
      <defs>
       <path d="M 0 0 
L 0 3.5 
" id="mda83be52aa" style="stroke:#000000;stroke-width:0.8;"/>
      </defs>
      <g>
       <use style="stroke:#000000;stroke-width:0.8;" x="115.363636" xlink:href="#mda83be52aa" y="315"/>
      </g>
     </g>
     <g id="text_1">
      <!-- 0 -->
      <defs>
       <path d="M 31.78125 66.40625 
Q 24.171875 66.40625 20.328125 58.90625 
Q 16.5 51.421875 16.5 36.375 
Q 16.5 21.390625 20.328125 13.890625 
Q 24.171875 6.390625 31.78125 6.390625 
Q 39.453125 6.390625 43.28125 13.890625 
Q 47.125 21.390625 47.125 36.375 
Q 47.125 51.421875 43.28125 58.90625 
Q 39.453125 66.40625 31.78125 66.40625 
z
M 31.78125 74.21875 
Q 44.046875 74.21875 50.515625 64.515625 
Q 56.984375 54.828125 56.984375 36.375 
Q 56.984375 17.96875 50.515625 8.265625 
Q 44.046875 -1.421875 31.78125 -1.421875 
Q 19.53125 -1.421875 13.0625 8.265625 
Q 6.59375 17.96875 6.59375 36.375 
Q 6.59375 54.828125 13.0625 64.515625 
Q 19.53125 74.21875 31.78125 74.21875 
z
" id="DejaVuSans-48"/>
      </defs>
      <g transform="translate(112.182386 329.598437)scale(0.1 -0.1)">
       <use xlink:href="#DejaVuSans-48"/>
      </g>
     </g>
    </g>
    <g id="xtick_2">
     <g id="line2d_3">
      <path clip-path="url(#p332537b32b)" d="M 183.045121 315 
L 183.045121 43.2 
" style="fill:none;stroke:#b0b0b0;stroke-linecap:square;stroke-width:0.8;"/>
     </g>
     <g id="line2d_4">
      <g>
       <use style="stroke:#000000;stroke-width:0.8;" x="183.045121" xlink:href="#mda83be52aa" y="315"/>
      </g>
     </g>
     <g id="text_2">
      <!-- 200 -->
      <defs>
       <path d="M 19.1875 8.296875 
L 53.609375 8.296875 
L 53.609375 0 
L 7.328125 0 
L 7.328125 8.296875 
Q 12.9375 14.109375 22.625 23.890625 
Q 32.328125 33.6875 34.8125 36.53125 
Q 39.546875 41.84375 41.421875 45.53125 
Q 43.3125 49.21875 43.3125 52.78125 
Q 43.3125 58.59375 39.234375 62.25 
Q 35.15625 65.921875 28.609375 65.921875 
Q 23.96875 65.921875 18.8125 64.3125 
Q 13.671875 62.703125 7.8125 59.421875 
L 7.8125 69.390625 
Q 13.765625 71.78125 18.9375 73 
Q 24.125 74.21875 28.421875 74.21875 
Q 39.75 74.21875 46.484375 68.546875 
Q 53.21875 62.890625 53.21875 53.421875 
Q 53.21875 48.921875 51.53125 44.890625 
Q 49.859375 40.875 45.40625 35.40625 
Q 44.1875 33.984375 37.640625 27.21875 
Q 31.109375 20.453125 19.1875 8.296875 
z
" id="DejaVuSans-50"/>
      </defs>
      <g transform="translate(173.501371 329.598437)scale(0.1 -0.1)">
       <use xlink:href="#DejaVuSans-50"/>
       <use x="63.623047" xlink:href="#DejaVuSans-48"/>
       <use x="127.246094" xlink:href="#DejaVuSans-48"/>
      </g>
     </g>
    </g>
    <g id="xtick_3">
     <g id="line2d_5">
      <path clip-path="url(#p332537b32b)" d="M 250.726606 315 
L 250.726606 43.2 
" style="fill:none;stroke:#b0b0b0;stroke-linecap:square;stroke-width:0.8;"/>
     </g>
     <g id="line2d_6">
      <g>
       <use style="stroke:#000000;stroke-width:0.8;" x="250.726606" xlink:href="#mda83be52aa" y="315"/>
      </g>
     </g>
     <g id="text_3">
      <!-- 400 -->
      <defs>
       <path d="M 37.796875 64.3125 
L 12.890625 25.390625 
L 37.796875 25.390625 
z
M 35.203125 72.90625 
L 47.609375 72.90625 
L 47.609375 25.390625 
L 58.015625 25.390625 
L 58.015625 17.1875 
L 47.609375 17.1875 
L 47.609375 0 
L 37.796875 0 
L 37.796875 17.1875 
L 4.890625 17.1875 
L 4.890625 26.703125 
z
" id="DejaVuSans-52"/>
      </defs>
      <g transform="translate(241.182856 329.598437)scale(0.1 -0.1)">
       <use xlink:href="#DejaVuSans-52"/>
       <use x="63.623047" xlink:href="#DejaVuSans-48"/>
       <use x="127.246094" xlink:href="#DejaVuSans-48"/>
      </g>
     </g>
    </g>
    <g id="xtick_4">
     <g id="line2d_7">
      <path clip-path="url(#p332537b32b)" d="M 318.40809 315 
L 318.40809 43.2 
" style="fill:none;stroke:#b0b0b0;stroke-linecap:square;stroke-width:0.8;"/>
     </g>
     <g id="line2d_8">
      <g>
       <use style="stroke:#000000;stroke-width:0.8;" x="318.40809" xlink:href="#mda83be52aa" y="315"/>
      </g>
     </g>
     <g id="text_4">
      <!-- 600 -->
      <defs>
       <path d="M 33.015625 40.375 
Q 26.375 40.375 22.484375 35.828125 
Q 18.609375 31.296875 18.609375 23.390625 
Q 18.609375 15.53125 22.484375 10.953125 
Q 26.375 6.390625 33.015625 6.390625 
Q 39.65625 6.390625 43.53125 10.953125 
Q 47.40625 15.53125 47.40625 23.390625 
Q 47.40625 31.296875 43.53125 35.828125 
Q 39.65625 40.375 33.015625 40.375 
z
M 52.59375 71.296875 
L 52.59375 62.3125 
Q 48.875 64.0625 45.09375 64.984375 
Q 41.3125 65.921875 37.59375 65.921875 
Q 27.828125 65.921875 22.671875 59.328125 
Q 17.53125 52.734375 16.796875 39.40625 
Q 19.671875 43.65625 24.015625 45.921875 
Q 28.375 48.1875 33.59375 48.1875 
Q 44.578125 48.1875 50.953125 41.515625 
Q 57.328125 34.859375 57.328125 23.390625 
Q 57.328125 12.15625 50.6875 5.359375 
Q 44.046875 -1.421875 33.015625 -1.421875 
Q 20.359375 -1.421875 13.671875 8.265625 
Q 6.984375 17.96875 6.984375 36.375 
Q 6.984375 53.65625 15.1875 63.9375 
Q 23.390625 74.21875 37.203125 74.21875 
Q 40.921875 74.21875 44.703125 73.484375 
Q 48.484375 72.75 52.59375 71.296875 
z
" id="DejaVuSans-54"/>
      </defs>
      <g transform="translate(308.86434 329.598437)scale(0.1 -0.1)">
       <use xlink:href="#DejaVuSans-54"/>
       <use x="63.623047" xlink:href="#DejaVuSans-48"/>
       <use x="127.246094" xlink:href="#DejaVuSans-48"/>
      </g>
     </g>
    </g>
    <g id="xtick_5">
     <g id="line2d_9">
      <path clip-path="url(#p332537b32b)" d="M 386.089575 315 
L 386.089575 43.2 
" style="fill:none;stroke:#b0b0b0;stroke-linecap:square;stroke-width:0.8;"/>
     </g>
     <g id="line2d_10">
      <g>
       <use style="stroke:#000000;stroke-width:0.8;" x="386.089575" xlink:href="#mda83be52aa" y="315"/>
      </g>
     </g>
     <g id="text_5">
      <!-- 800 -->
      <defs>
       <path d="M 31.78125 34.625 
Q 24.75 34.625 20.71875 30.859375 
Q 16.703125 27.09375 16.703125 20.515625 
Q 16.703125 13.921875 20.71875 10.15625 
Q 24.75 6.390625 31.78125 6.390625 
Q 38.8125 6.390625 42.859375 10.171875 
Q 46.921875 13.96875 46.921875 20.515625 
Q 46.921875 27.09375 42.890625 30.859375 
Q 38.875 34.625 31.78125 34.625 
z
M 21.921875 38.8125 
Q 15.578125 40.375 12.03125 44.71875 
Q 8.5 49.078125 8.5 55.328125 
Q 8.5 64.0625 14.71875 69.140625 
Q 20.953125 74.21875 31.78125 74.21875 
Q 42.671875 74.21875 48.875 69.140625 
Q 55.078125 64.0625 55.078125 55.328125 
Q 55.078125 49.078125 51.53125 44.71875 
Q 48 40.375 41.703125 38.8125 
Q 48.828125 37.15625 52.796875 32.3125 
Q 56.78125 27.484375 56.78125 20.515625 
Q 56.78125 9.90625 50.3125 4.234375 
Q 43.84375 -1.421875 31.78125 -1.421875 
Q 19.734375 -1.421875 13.25 4.234375 
Q 6.78125 9.90625 6.78125 20.515625 
Q 6.78125 27.484375 10.78125 32.3125 
Q 14.796875 37.15625 21.921875 38.8125 
z
M 18.3125 54.390625 
Q 18.3125 48.734375 21.84375 45.5625 
Q 25.390625 42.390625 31.78125 42.390625 
Q 38.140625 42.390625 41.71875 45.5625 
Q 45.3125 48.734375 45.3125 54.390625 
Q 45.3125 60.0625 41.71875 63.234375 
Q 38.140625 66.40625 31.78125 66.40625 
Q 25.390625 66.40625 21.84375 63.234375 
Q 18.3125 60.0625 18.3125 54.390625 
z
" id="DejaVuSans-56"/>
      </defs>
      <g transform="translate(376.545825 329.598437)scale(0.1 -0.1)">
       <use xlink:href="#DejaVuSans-56"/>
       <use x="63.623047" xlink:href="#DejaVuSans-48"/>
       <use x="127.246094" xlink:href="#DejaVuSans-48"/>
      </g>
     </g>
    </g>
    <g id="xtick_6">
     <g id="line2d_11">
      <path clip-path="url(#p332537b32b)" d="M 453.771059 315 
L 453.771059 43.2 
" style="fill:none;stroke:#b0b0b0;stroke-linecap:square;stroke-width:0.8;"/>
     </g>
     <g id="line2d_12">
      <g>
       <use style="stroke:#000000;stroke-width:0.8;" x="453.771059" xlink:href="#mda83be52aa" y="315"/>
      </g>
     </g>
     <g id="text_6">
      <!-- 1000 -->
      <defs>
       <path d="M 12.40625 8.296875 
L 28.515625 8.296875 
L 28.515625 63.921875 
L 10.984375 60.40625 
L 10.984375 69.390625 
L 28.421875 72.90625 
L 38.28125 72.90625 
L 38.28125 8.296875 
L 54.390625 8.296875 
L 54.390625 0 
L 12.40625 0 
z
" id="DejaVuSans-49"/>
      </defs>
      <g transform="translate(441.046059 329.598437)scale(0.1 -0.1)">
       <use xlink:href="#DejaVuSans-49"/>
       <use x="63.623047" xlink:href="#DejaVuSans-48"/>
       <use x="127.246094" xlink:href="#DejaVuSans-48"/>
       <use x="190.869141" xlink:href="#DejaVuSans-48"/>
      </g>
     </g>
    </g>
    <g id="xtick_7">
     <g id="line2d_13">
      <path clip-path="url(#p332537b32b)" d="M 521.452544 315 
L 521.452544 43.2 
" style="fill:none;stroke:#b0b0b0;stroke-linecap:square;stroke-width:0.8;"/>
     </g>
     <g id="line2d_14">
      <g>
       <use style="stroke:#000000;stroke-width:0.8;" x="521.452544" xlink:href="#mda83be52aa" y="315"/>
      </g>
     </g>
     <g id="text_7">
      <!-- 1200 -->
      <g transform="translate(508.727544 329.598437)scale(0.1 -0.1)">
       <use xlink:href="#DejaVuSans-49"/>
       <use x="63.623047" xlink:href="#DejaVuSans-50"/>
       <use x="127.246094" xlink:href="#DejaVuSans-48"/>
       <use x="190.869141" xlink:href="#DejaVuSans-48"/>
      </g>
     </g>
    </g>
    <g id="xtick_8">
     <g id="line2d_15">
      <path clip-path="url(#p332537b32b)" d="M 589.134029 315 
L 589.134029 43.2 
" style="fill:none;stroke:#b0b0b0;stroke-linecap:square;stroke-width:0.8;"/>
     </g>
     <g id="line2d_16">
      <g>
       <use style="stroke:#000000;stroke-width:0.8;" x="589.134029" xlink:href="#mda83be52aa" y="315"/>
      </g>
     </g>
     <g id="text_8">
      <!-- 1400 -->
      <g transform="translate(576.409029 329.598437)scale(0.1 -0.1)">
       <use xlink:href="#DejaVuSans-49"/>
       <use x="63.623047" xlink:href="#DejaVuSans-52"/>
       <use x="127.246094" xlink:href="#DejaVuSans-48"/>
       <use x="190.869141" xlink:href="#DejaVuSans-48"/>
      </g>
     </g>
    </g>
    <g id="text_9">
     <!-- Episode -->
     <defs>
      <path d="M 9.8125 72.90625 
L 55.90625 72.90625 
L 55.90625 64.59375 
L 19.671875 64.59375 
L 19.671875 43.015625 
L 54.390625 43.015625 
L 54.390625 34.71875 
L 19.671875 34.71875 
L 19.671875 8.296875 
L 56.78125 8.296875 
L 56.78125 0 
L 9.8125 0 
z
" id="DejaVuSans-69"/>
      <path d="M 18.109375 8.203125 
L 18.109375 -20.796875 
L 9.078125 -20.796875 
L 9.078125 54.6875 
L 18.109375 54.6875 
L 18.109375 46.390625 
Q 20.953125 51.265625 25.265625 53.625 
Q 29.59375 56 35.59375 56 
Q 45.5625 56 51.78125 48.09375 
Q 58.015625 40.1875 58.015625 27.296875 
Q 58.015625 14.40625 51.78125 6.484375 
Q 45.5625 -1.421875 35.59375 -1.421875 
Q 29.59375 -1.421875 25.265625 0.953125 
Q 20.953125 3.328125 18.109375 8.203125 
z
M 48.6875 27.296875 
Q 48.6875 37.203125 44.609375 42.84375 
Q 40.53125 48.484375 33.40625 48.484375 
Q 26.265625 48.484375 22.1875 42.84375 
Q 18.109375 37.203125 18.109375 27.296875 
Q 18.109375 17.390625 22.1875 11.75 
Q 26.265625 6.109375 33.40625 6.109375 
Q 40.53125 6.109375 44.609375 11.75 
Q 48.6875 17.390625 48.6875 27.296875 
z
" id="DejaVuSans-112"/>
      <path d="M 9.421875 54.6875 
L 18.40625 54.6875 
L 18.40625 0 
L 9.421875 0 
z
M 9.421875 75.984375 
L 18.40625 75.984375 
L 18.40625 64.59375 
L 9.421875 64.59375 
z
" id="DejaVuSans-105"/>
      <path d="M 44.28125 53.078125 
L 44.28125 44.578125 
Q 40.484375 46.53125 36.375 47.5 
Q 32.28125 48.484375 27.875 48.484375 
Q 21.1875 48.484375 17.84375 46.4375 
Q 14.5 44.390625 14.5 40.28125 
Q 14.5 37.15625 16.890625 35.375 
Q 19.28125 33.59375 26.515625 31.984375 
L 29.59375 31.296875 
Q 39.15625 29.25 43.1875 25.515625 
Q 47.21875 21.78125 47.21875 15.09375 
Q 47.21875 7.46875 41.1875 3.015625 
Q 35.15625 -1.421875 24.609375 -1.421875 
Q 20.21875 -1.421875 15.453125 -0.5625 
Q 10.6875 0.296875 5.421875 2 
L 5.421875 11.28125 
Q 10.40625 8.6875 15.234375 7.390625 
Q 20.0625 6.109375 24.8125 6.109375 
Q 31.15625 6.109375 34.5625 8.28125 
Q 37.984375 10.453125 37.984375 14.40625 
Q 37.984375 18.0625 35.515625 20.015625 
Q 33.0625 21.96875 24.703125 23.78125 
L 21.578125 24.515625 
Q 13.234375 26.265625 9.515625 29.90625 
Q 5.8125 33.546875 5.8125 39.890625 
Q 5.8125 47.609375 11.28125 51.796875 
Q 16.75 56 26.8125 56 
Q 31.78125 56 36.171875 55.265625 
Q 40.578125 54.546875 44.28125 53.078125 
z
" id="DejaVuSans-115"/>
      <path d="M 30.609375 48.390625 
Q 23.390625 48.390625 19.1875 42.75 
Q 14.984375 37.109375 14.984375 27.296875 
Q 14.984375 17.484375 19.15625 11.84375 
Q 23.34375 6.203125 30.609375 6.203125 
Q 37.796875 6.203125 41.984375 11.859375 
Q 46.1875 17.53125 46.1875 27.296875 
Q 46.1875 37.015625 41.984375 42.703125 
Q 37.796875 48.390625 30.609375 48.390625 
z
M 30.609375 56 
Q 42.328125 56 49.015625 48.375 
Q 55.71875 40.765625 55.71875 27.296875 
Q 55.71875 13.875 49.015625 6.21875 
Q 42.328125 -1.421875 30.609375 -1.421875 
Q 18.84375 -1.421875 12.171875 6.21875 
Q 5.515625 13.875 5.515625 27.296875 
Q 5.515625 40.765625 12.171875 48.375 
Q 18.84375 56 30.609375 56 
z
" id="DejaVuSans-111"/>
      <path d="M 45.40625 46.390625 
L 45.40625 75.984375 
L 54.390625 75.984375 
L 54.390625 0 
L 45.40625 0 
L 45.40625 8.203125 
Q 42.578125 3.328125 38.25 0.953125 
Q 33.9375 -1.421875 27.875 -1.421875 
Q 17.96875 -1.421875 11.734375 6.484375 
Q 5.515625 14.40625 5.515625 27.296875 
Q 5.515625 40.1875 11.734375 48.09375 
Q 17.96875 56 27.875 56 
Q 33.9375 56 38.25 53.625 
Q 42.578125 51.265625 45.40625 46.390625 
z
M 14.796875 27.296875 
Q 14.796875 17.390625 18.875 11.75 
Q 22.953125 6.109375 30.078125 6.109375 
Q 37.203125 6.109375 41.296875 11.75 
Q 45.40625 17.390625 45.40625 27.296875 
Q 45.40625 37.203125 41.296875 42.84375 
Q 37.203125 48.484375 30.078125 48.484375 
Q 22.953125 48.484375 18.875 42.84375 
Q 14.796875 37.203125 14.796875 27.296875 
z
" id="DejaVuSans-100"/>
      <path d="M 56.203125 29.59375 
L 56.203125 25.203125 
L 14.890625 25.203125 
Q 15.484375 15.921875 20.484375 11.0625 
Q 25.484375 6.203125 34.421875 6.203125 
Q 39.59375 6.203125 44.453125 7.46875 
Q 49.3125 8.734375 54.109375 11.28125 
L 54.109375 2.78125 
Q 49.265625 0.734375 44.1875 -0.34375 
Q 39.109375 -1.421875 33.890625 -1.421875 
Q 20.796875 -1.421875 13.15625 6.1875 
Q 5.515625 13.8125 5.515625 26.8125 
Q 5.515625 40.234375 12.765625 48.109375 
Q 20.015625 56 32.328125 56 
Q 43.359375 56 49.78125 48.890625 
Q 56.203125 41.796875 56.203125 29.59375 
z
M 47.21875 32.234375 
Q 47.125 39.59375 43.09375 43.984375 
Q 39.0625 48.390625 32.421875 48.390625 
Q 24.90625 48.390625 20.390625 44.140625 
Q 15.875 39.890625 15.1875 32.171875 
z
" id="DejaVuSans-101"/>
     </defs>
     <g transform="translate(349.3625 343.276563)scale(0.1 -0.1)">
      <use xlink:href="#DejaVuSans-69"/>
      <use x="63.183594" xlink:href="#DejaVuSans-112"/>
      <use x="126.660156" xlink:href="#DejaVuSans-105"/>
      <use x="154.443359" xlink:href="#DejaVuSans-115"/>
      <use x="206.542969" xlink:href="#DejaVuSans-111"/>
      <use x="267.724609" xlink:href="#DejaVuSans-100"/>
      <use x="331.201172" xlink:href="#DejaVuSans-101"/>
     </g>
    </g>
   </g>
   <g id="matplotlib.axis_2">
    <g id="ytick_1">
     <g id="line2d_17">
      <path clip-path="url(#p332537b32b)" d="M 90 281.453334 
L 648 281.453334 
" style="fill:none;stroke:#b0b0b0;stroke-linecap:square;stroke-width:0.8;"/>
     </g>
     <g id="line2d_18">
      <defs>
       <path d="M 0 0 
L -3.5 0 
" id="m1a710ee00b" style="stroke:#000000;stroke-width:0.8;"/>
      </defs>
      <g>
       <use style="stroke:#000000;stroke-width:0.8;" x="90" xlink:href="#m1a710ee00b" y="281.453334"/>
      </g>
     </g>
     <g id="text_10">
      <!-- −1.4 -->
      <defs>
       <path d="M 10.59375 35.5 
L 73.1875 35.5 
L 73.1875 27.203125 
L 10.59375 27.203125 
z
" id="DejaVuSans-8722"/>
       <path d="M 10.6875 12.40625 
L 21 12.40625 
L 21 0 
L 10.6875 0 
z
" id="DejaVuSans-46"/>
      </defs>
      <g transform="translate(58.717187 285.252552)scale(0.1 -0.1)">
       <use xlink:href="#DejaVuSans-8722"/>
       <use x="83.789062" xlink:href="#DejaVuSans-49"/>
       <use x="147.412109" xlink:href="#DejaVuSans-46"/>
       <use x="179.199219" xlink:href="#DejaVuSans-52"/>
      </g>
     </g>
    </g>
    <g id="ytick_2">
     <g id="line2d_19">
      <path clip-path="url(#p332537b32b)" d="M 90 240.680092 
L 648 240.680092 
" style="fill:none;stroke:#b0b0b0;stroke-linecap:square;stroke-width:0.8;"/>
     </g>
     <g id="line2d_20">
      <g>
       <use style="stroke:#000000;stroke-width:0.8;" x="90" xlink:href="#m1a710ee00b" y="240.680092"/>
      </g>
     </g>
     <g id="text_11">
      <!-- −1.2 -->
      <g transform="translate(58.717187 244.479311)scale(0.1 -0.1)">
       <use xlink:href="#DejaVuSans-8722"/>
       <use x="83.789062" xlink:href="#DejaVuSans-49"/>
       <use x="147.412109" xlink:href="#DejaVuSans-46"/>
       <use x="179.199219" xlink:href="#DejaVuSans-50"/>
      </g>
     </g>
    </g>
    <g id="ytick_3">
     <g id="line2d_21">
      <path clip-path="url(#p332537b32b)" d="M 90 199.906851 
L 648 199.906851 
" style="fill:none;stroke:#b0b0b0;stroke-linecap:square;stroke-width:0.8;"/>
     </g>
     <g id="line2d_22">
      <g>
       <use style="stroke:#000000;stroke-width:0.8;" x="90" xlink:href="#m1a710ee00b" y="199.906851"/>
      </g>
     </g>
     <g id="text_12">
      <!-- −1.0 -->
      <g transform="translate(58.717187 203.70607)scale(0.1 -0.1)">
       <use xlink:href="#DejaVuSans-8722"/>
       <use x="83.789062" xlink:href="#DejaVuSans-49"/>
       <use x="147.412109" xlink:href="#DejaVuSans-46"/>
       <use x="179.199219" xlink:href="#DejaVuSans-48"/>
      </g>
     </g>
    </g>
    <g id="ytick_4">
     <g id="line2d_23">
      <path clip-path="url(#p332537b32b)" d="M 90 159.13361 
L 648 159.13361 
" style="fill:none;stroke:#b0b0b0;stroke-linecap:square;stroke-width:0.8;"/>
     </g>
     <g id="line2d_24">
      <g>
       <use style="stroke:#000000;stroke-width:0.8;" x="90" xlink:href="#m1a710ee00b" y="159.13361"/>
      </g>
     </g>
     <g id="text_13">
      <!-- −0.8 -->
      <g transform="translate(58.717187 162.932829)scale(0.1 -0.1)">
       <use xlink:href="#DejaVuSans-8722"/>
       <use x="83.789062" xlink:href="#DejaVuSans-48"/>
       <use x="147.412109" xlink:href="#DejaVuSans-46"/>
       <use x="179.199219" xlink:href="#DejaVuSans-56"/>
      </g>
     </g>
    </g>
    <g id="ytick_5">
     <g id="line2d_25">
      <path clip-path="url(#p332537b32b)" d="M 90 118.360369 
L 648 118.360369 
" style="fill:none;stroke:#b0b0b0;stroke-linecap:square;stroke-width:0.8;"/>
     </g>
     <g id="line2d_26">
      <g>
       <use style="stroke:#000000;stroke-width:0.8;" x="90" xlink:href="#m1a710ee00b" y="118.360369"/>
      </g>
     </g>
     <g id="text_14">
      <!-- −0.6 -->
      <g transform="translate(58.717187 122.159588)scale(0.1 -0.1)">
       <use xlink:href="#DejaVuSans-8722"/>
       <use x="83.789062" xlink:href="#DejaVuSans-48"/>
       <use x="147.412109" xlink:href="#DejaVuSans-46"/>
       <use x="179.199219" xlink:href="#DejaVuSans-54"/>
      </g>
     </g>
    </g>
    <g id="ytick_6">
     <g id="line2d_27">
      <path clip-path="url(#p332537b32b)" d="M 90 77.587128 
L 648 77.587128 
" style="fill:none;stroke:#b0b0b0;stroke-linecap:square;stroke-width:0.8;"/>
     </g>
     <g id="line2d_28">
      <g>
       <use style="stroke:#000000;stroke-width:0.8;" x="90" xlink:href="#m1a710ee00b" y="77.587128"/>
      </g>
     </g>
     <g id="text_15">
      <!-- −0.4 -->
      <g transform="translate(58.717187 81.386347)scale(0.1 -0.1)">
       <use xlink:href="#DejaVuSans-8722"/>
       <use x="83.789062" xlink:href="#DejaVuSans-48"/>
       <use x="147.412109" xlink:href="#DejaVuSans-46"/>
       <use x="179.199219" xlink:href="#DejaVuSans-52"/>
      </g>
     </g>
    </g>
    <g id="text_16">
     <!-- Episode Reward (Smoothed) -->
     <defs>
      <path id="DejaVuSans-32"/>
      <path d="M 44.390625 34.1875 
Q 47.5625 33.109375 50.5625 29.59375 
Q 53.5625 26.078125 56.59375 19.921875 
L 66.609375 0 
L 56 0 
L 46.6875 18.703125 
Q 43.0625 26.03125 39.671875 28.421875 
Q 36.28125 30.8125 30.421875 30.8125 
L 19.671875 30.8125 
L 19.671875 0 
L 9.8125 0 
L 9.8125 72.90625 
L 32.078125 72.90625 
Q 44.578125 72.90625 50.734375 67.671875 
Q 56.890625 62.453125 56.890625 51.90625 
Q 56.890625 45.015625 53.6875 40.46875 
Q 50.484375 35.9375 44.390625 34.1875 
z
M 19.671875 64.796875 
L 19.671875 38.921875 
L 32.078125 38.921875 
Q 39.203125 38.921875 42.84375 42.21875 
Q 46.484375 45.515625 46.484375 51.90625 
Q 46.484375 58.296875 42.84375 61.546875 
Q 39.203125 64.796875 32.078125 64.796875 
z
" id="DejaVuSans-82"/>
      <path d="M 4.203125 54.6875 
L 13.1875 54.6875 
L 24.421875 12.015625 
L 35.59375 54.6875 
L 46.1875 54.6875 
L 57.421875 12.015625 
L 68.609375 54.6875 
L 77.59375 54.6875 
L 63.28125 0 
L 52.6875 0 
L 40.921875 44.828125 
L 29.109375 0 
L 18.5 0 
z
" id="DejaVuSans-119"/>
      <path d="M 34.28125 27.484375 
Q 23.390625 27.484375 19.1875 25 
Q 14.984375 22.515625 14.984375 16.5 
Q 14.984375 11.71875 18.140625 8.90625 
Q 21.296875 6.109375 26.703125 6.109375 
Q 34.1875 6.109375 38.703125 11.40625 
Q 43.21875 16.703125 43.21875 25.484375 
L 43.21875 27.484375 
z
M 52.203125 31.203125 
L 52.203125 0 
L 43.21875 0 
L 43.21875 8.296875 
Q 40.140625 3.328125 35.546875 0.953125 
Q 30.953125 -1.421875 24.3125 -1.421875 
Q 15.921875 -1.421875 10.953125 3.296875 
Q 6 8.015625 6 15.921875 
Q 6 25.140625 12.171875 29.828125 
Q 18.359375 34.515625 30.609375 34.515625 
L 43.21875 34.515625 
L 43.21875 35.40625 
Q 43.21875 41.609375 39.140625 45 
Q 35.0625 48.390625 27.6875 48.390625 
Q 23 48.390625 18.546875 47.265625 
Q 14.109375 46.140625 10.015625 43.890625 
L 10.015625 52.203125 
Q 14.9375 54.109375 19.578125 55.046875 
Q 24.21875 56 28.609375 56 
Q 40.484375 56 46.34375 49.84375 
Q 52.203125 43.703125 52.203125 31.203125 
z
" id="DejaVuSans-97"/>
      <path d="M 41.109375 46.296875 
Q 39.59375 47.171875 37.8125 47.578125 
Q 36.03125 48 33.890625 48 
Q 26.265625 48 22.1875 43.046875 
Q 18.109375 38.09375 18.109375 28.8125 
L 18.109375 0 
L 9.078125 0 
L 9.078125 54.6875 
L 18.109375 54.6875 
L 18.109375 46.1875 
Q 20.953125 51.171875 25.484375 53.578125 
Q 30.03125 56 36.53125 56 
Q 37.453125 56 38.578125 55.875 
Q 39.703125 55.765625 41.0625 55.515625 
z
" id="DejaVuSans-114"/>
      <path d="M 31 75.875 
Q 24.46875 64.65625 21.28125 53.65625 
Q 18.109375 42.671875 18.109375 31.390625 
Q 18.109375 20.125 21.3125 9.0625 
Q 24.515625 -2 31 -13.1875 
L 23.1875 -13.1875 
Q 15.875 -1.703125 12.234375 9.375 
Q 8.59375 20.453125 8.59375 31.390625 
Q 8.59375 42.28125 12.203125 53.3125 
Q 15.828125 64.359375 23.1875 75.875 
z
" id="DejaVuSans-40"/>
      <path d="M 53.515625 70.515625 
L 53.515625 60.890625 
Q 47.90625 63.578125 42.921875 64.890625 
Q 37.9375 66.21875 33.296875 66.21875 
Q 25.25 66.21875 20.875 63.09375 
Q 16.5 59.96875 16.5 54.203125 
Q 16.5 49.359375 19.40625 46.890625 
Q 22.3125 44.4375 30.421875 42.921875 
L 36.375 41.703125 
Q 47.40625 39.59375 52.65625 34.296875 
Q 57.90625 29 57.90625 20.125 
Q 57.90625 9.515625 50.796875 4.046875 
Q 43.703125 -1.421875 29.984375 -1.421875 
Q 24.8125 -1.421875 18.96875 -0.25 
Q 13.140625 0.921875 6.890625 3.21875 
L 6.890625 13.375 
Q 12.890625 10.015625 18.65625 8.296875 
Q 24.421875 6.59375 29.984375 6.59375 
Q 38.421875 6.59375 43.015625 9.90625 
Q 47.609375 13.234375 47.609375 19.390625 
Q 47.609375 24.75 44.3125 27.78125 
Q 41.015625 30.8125 33.5 32.328125 
L 27.484375 33.5 
Q 16.453125 35.6875 11.515625 40.375 
Q 6.59375 45.0625 6.59375 53.421875 
Q 6.59375 63.09375 13.40625 68.65625 
Q 20.21875 74.21875 32.171875 74.21875 
Q 37.3125 74.21875 42.625 73.28125 
Q 47.953125 72.359375 53.515625 70.515625 
z
" id="DejaVuSans-83"/>
      <path d="M 52 44.1875 
Q 55.375 50.25 60.0625 53.125 
Q 64.75 56 71.09375 56 
Q 79.640625 56 84.28125 50.015625 
Q 88.921875 44.046875 88.921875 33.015625 
L 88.921875 0 
L 79.890625 0 
L 79.890625 32.71875 
Q 79.890625 40.578125 77.09375 44.375 
Q 74.3125 48.1875 68.609375 48.1875 
Q 61.625 48.1875 57.5625 43.546875 
Q 53.515625 38.921875 53.515625 30.90625 
L 53.515625 0 
L 44.484375 0 
L 44.484375 32.71875 
Q 44.484375 40.625 41.703125 44.40625 
Q 38.921875 48.1875 33.109375 48.1875 
Q 26.21875 48.1875 22.15625 43.53125 
Q 18.109375 38.875 18.109375 30.90625 
L 18.109375 0 
L 9.078125 0 
L 9.078125 54.6875 
L 18.109375 54.6875 
L 18.109375 46.1875 
Q 21.1875 51.21875 25.484375 53.609375 
Q 29.78125 56 35.6875 56 
Q 41.65625 56 45.828125 52.96875 
Q 50 49.953125 52 44.1875 
z
" id="DejaVuSans-109"/>
      <path d="M 18.3125 70.21875 
L 18.3125 54.6875 
L 36.8125 54.6875 
L 36.8125 47.703125 
L 18.3125 47.703125 
L 18.3125 18.015625 
Q 18.3125 11.328125 20.140625 9.421875 
Q 21.96875 7.515625 27.59375 7.515625 
L 36.8125 7.515625 
L 36.8125 0 
L 27.59375 0 
Q 17.1875 0 13.234375 3.875 
Q 9.28125 7.765625 9.28125 18.015625 
L 9.28125 47.703125 
L 2.6875 47.703125 
L 2.6875 54.6875 
L 9.28125 54.6875 
L 9.28125 70.21875 
z
" id="DejaVuSans-116"/>
      <path d="M 54.890625 33.015625 
L 54.890625 0 
L 45.90625 0 
L 45.90625 32.71875 
Q 45.90625 40.484375 42.875 44.328125 
Q 39.84375 48.1875 33.796875 48.1875 
Q 26.515625 48.1875 22.3125 43.546875 
Q 18.109375 38.921875 18.109375 30.90625 
L 18.109375 0 
L 9.078125 0 
L 9.078125 75.984375 
L 18.109375 75.984375 
L 18.109375 46.1875 
Q 21.34375 51.125 25.703125 53.5625 
Q 30.078125 56 35.796875 56 
Q 45.21875 56 50.046875 50.171875 
Q 54.890625 44.34375 54.890625 33.015625 
z
" id="DejaVuSans-104"/>
      <path d="M 8.015625 75.875 
L 15.828125 75.875 
Q 23.140625 64.359375 26.78125 53.3125 
Q 30.421875 42.28125 30.421875 31.390625 
Q 30.421875 20.453125 26.78125 9.375 
Q 23.140625 -1.703125 15.828125 -13.1875 
L 8.015625 -13.1875 
Q 14.5 -2 17.703125 9.0625 
Q 20.90625 20.125 20.90625 31.390625 
Q 20.90625 42.671875 17.703125 53.65625 
Q 14.5 64.65625 8.015625 75.875 
z
" id="DejaVuSans-41"/>
     </defs>
     <g transform="translate(52.6375 250.289844)rotate(-90)scale(0.1 -0.1)">
      <use xlink:href="#DejaVuSans-69"/>
      <use x="63.183594" xlink:href="#DejaVuSans-112"/>
      <use x="126.660156" xlink:href="#DejaVuSans-105"/>
      <use x="154.443359" xlink:href="#DejaVuSans-115"/>
      <use x="206.542969" xlink:href="#DejaVuSans-111"/>
      <use x="267.724609" xlink:href="#DejaVuSans-100"/>
      <use x="331.201172" xlink:href="#DejaVuSans-101"/>
      <use x="392.724609" xlink:href="#DejaVuSans-32"/>
      <use x="424.511719" xlink:href="#DejaVuSans-82"/>
      <use x="493.931641" xlink:href="#DejaVuSans-101"/>
      <use x="555.455078" xlink:href="#DejaVuSans-119"/>
      <use x="637.242188" xlink:href="#DejaVuSans-97"/>
      <use x="698.521484" xlink:href="#DejaVuSans-114"/>
      <use x="739.619141" xlink:href="#DejaVuSans-100"/>
      <use x="803.095703" xlink:href="#DejaVuSans-32"/>
      <use x="834.882812" xlink:href="#DejaVuSans-40"/>
      <use x="873.896484" xlink:href="#DejaVuSans-83"/>
      <use x="937.373047" xlink:href="#DejaVuSans-109"/>
      <use x="1034.785156" xlink:href="#DejaVuSans-111"/>
      <use x="1095.966797" xlink:href="#DejaVuSans-111"/>
      <use x="1157.148438" xlink:href="#DejaVuSans-116"/>
      <use x="1196.357422" xlink:href="#DejaVuSans-104"/>
      <use x="1259.736328" xlink:href="#DejaVuSans-101"/>
      <use x="1321.259766" xlink:href="#DejaVuSans-100"/>
      <use x="1384.736328" xlink:href="#DejaVuSans-41"/>
     </g>
    </g>
   </g>
   <g id="line2d_29">
    <path clip-path="url(#p332537b32b)" d="M 115.363636 150.987019 
L 116.040451 79.662912 
L 116.378859 302.645455 
L 116.717266 75.673093 
L 117.055673 115.378014 
L 117.394081 92.929572 
L 118.070896 65.36724 
L 118.409303 112.866673 
L 118.747711 124.876233 
L 119.086118 72.603494 
L 119.424525 90.780914 
L 119.762933 89.457647 
L 120.10134 106.478406 
L 120.439748 71.518387 
L 120.778155 90.83037 
L 121.116563 83.226606 
L 121.45497 82.098815 
L 121.793377 82.700837 
L 122.131785 93.255204 
L 122.470192 81.144501 
L 122.8086 75.681689 
L 123.147007 85.046819 
L 123.485415 86.645672 
L 123.823822 74.805134 
L 124.162229 82.930459 
L 124.500637 73.913884 
L 124.839044 76.306627 
L 125.177452 82.66544 
L 125.515859 86.027705 
L 125.854266 81.217417 
L 126.192674 92.355687 
L 126.531081 75.054126 
L 126.869489 91.734797 
L 127.207896 63.897438 
L 127.546304 67.86952 
L 127.884711 74.210317 
L 128.223118 75.761981 
L 128.561526 72.127606 
L 128.899933 83.009498 
L 129.238341 61.718946 
L 129.576748 68.611439 
L 130.253563 72.068244 
L 130.59197 76.107152 
L 130.930378 65.033628 
L 131.268785 58.586318 
L 131.607193 68.825789 
L 131.9456 65.980444 
L 132.284008 76.302653 
L 132.622415 57.312819 
L 132.960822 144.444797 
L 133.29923 79.66841 
L 133.637637 83.605807 
L 133.976045 96.276465 
L 134.314452 73.952286 
L 134.652859 83.23316 
L 134.991267 83.533646 
L 135.329674 73.969218 
L 135.668082 82.94545 
L 136.006489 80.097546 
L 136.344897 75.116535 
L 136.683304 82.10571 
L 137.021711 75.471276 
L 137.360119 86.96688 
L 137.698526 73.932482 
L 138.036934 81.487 
L 138.713749 79.661525 
L 139.052156 74.835755 
L 139.728971 85.097667 
L 140.067378 72.905563 
L 140.405786 74.013268 
L 140.744193 85.028865 
L 141.082601 90.919897 
L 141.421008 72.829918 
L 141.759415 78.028992 
L 142.43623 74.013268 
L 142.774638 74.803639 
L 143.113045 73.923712 
L 143.451452 84.545218 
L 143.78986 87.30105 
L 144.128267 80.72611 
L 144.466675 69.646245 
L 145.481897 84.859545 
L 146.158712 70.920164 
L 146.497119 74.013268 
L 146.835527 74.923381 
L 147.173934 78.264764 
L 147.512342 75.212213 
L 147.850749 76.149121 
L 148.189156 69.011457 
L 148.527564 72.262716 
L 148.865971 72.600026 
L 149.204379 75.966983 
L 149.542786 71.311339 
L 149.881194 70.646747 
L 150.219601 78.200826 
L 150.558008 79.456545 
L 150.896416 67.101873 
L 151.234823 70.94507 
L 151.573231 62.733722 
L 151.911638 65.541653 
L 152.250045 81.309604 
L 152.588453 83.072469 
L 152.92686 68.380976 
L 153.265268 62.802422 
L 153.603675 61.030842 
L 153.942083 56.350229 
L 154.28049 70.932336 
L 154.618897 116.440043 
L 154.957305 64.440343 
L 155.295712 63.683287 
L 155.63412 59.888553 
L 155.972527 62.290501 
L 156.649342 73.251306 
L 156.987749 66.136476 
L 157.326157 61.805871 
L 158.002972 68.685056 
L 158.341379 58.584942 
L 158.679787 55.634724 
L 159.018194 70.11667 
L 159.356601 118.930035 
L 159.695009 74.668549 
L 160.033416 73.677032 
L 160.710231 79.930954 
L 161.048638 69.805099 
L 161.387046 76.997654 
L 161.725453 70.59322 
L 162.063861 69.774319 
L 162.402268 81.594754 
L 162.740676 77.255549 
L 163.079083 69.707718 
L 163.41749 75.896496 
L 163.755898 71.114161 
L 164.094305 81.58966 
L 164.432713 84.434018 
L 164.77112 74.516141 
L 165.109528 69.704941 
L 165.786342 80.776563 
L 166.12475 66.365117 
L 166.801565 69.955868 
L 167.139972 68.448234 
L 167.47838 70.86825 
L 167.816787 77.928921 
L 168.155194 65.030833 
L 168.493602 66.813281 
L 168.832009 80.664119 
L 169.170417 78.233545 
L 169.508824 66.615537 
L 169.847231 59.998714 
L 170.185639 70.01861 
L 170.524046 60.192791 
L 170.862454 63.953526 
L 171.200861 79.174497 
L 171.539269 58.213328 
L 171.877676 71.148281 
L 172.216083 61.868803 
L 172.554491 65.278741 
L 173.231306 107.744542 
L 173.569713 72.039187 
L 173.908121 127.16561 
L 174.246528 112.486287 
L 174.584935 88.877473 
L 175.26175 67.890792 
L 175.600158 70.412005 
L 175.938565 70.926476 
L 176.276973 71.750864 
L 176.61538 70.730574 
L 176.953787 79.291805 
L 177.292195 68.28783 
L 177.630602 76.751724 
L 177.96901 71.619537 
L 178.307417 74.013268 
L 178.645824 74.921213 
L 178.984232 71.252052 
L 179.322639 75.338277 
L 179.661047 68.36266 
L 180.337862 73.87467 
L 180.676269 69.824276 
L 181.014676 71.252052 
L 181.353084 68.544589 
L 181.691491 68.740707 
L 182.029899 70.177279 
L 182.368306 75.714762 
L 182.706714 68.740707 
L 183.045121 71.224587 
L 183.721936 72.539516 
L 184.060343 68.740707 
L 184.398751 68.094597 
L 185.075566 68.211512 
L 185.413973 64.007383 
L 185.75238 67.456663 
L 186.090788 74.389269 
L 186.429195 64.302427 
L 186.767603 65.967231 
L 187.10601 73.405453 
L 187.444417 69.413198 
L 187.782825 68.849487 
L 188.121232 68.849487 
L 188.45964 63.882656 
L 188.798047 67.789867 
L 189.136455 68.849487 
L 189.474862 64.112561 
L 189.813269 64.509517 
L 190.151677 71.364773 
L 190.490084 65.085906 
L 190.828492 64.900149 
L 191.166899 77.432577 
L 191.505307 64.509517 
L 191.843714 65.140553 
L 192.182121 62.849127 
L 192.520529 55.930691 
L 192.858936 61.902037 
L 193.197344 61.020466 
L 193.535751 62.681883 
L 193.874159 66.782604 
L 194.212566 75.998845 
L 194.550973 65.613586 
L 194.889381 105.946884 
L 195.227788 69.684025 
L 195.566196 142.970801 
L 195.904603 89.34332 
L 196.24301 81.241208 
L 196.581418 78.827651 
L 196.919825 75.268781 
L 197.258233 79.717761 
L 197.59664 74.904203 
L 197.935048 74.920243 
L 198.273455 83.621477 
L 198.611862 74.013268 
L 198.95027 72.463415 
L 199.288677 79.078512 
L 199.627085 74.277405 
L 199.965492 83.568072 
L 200.3039 71.094665 
L 200.642307 75.62558 
L 200.980714 75.471276 
L 201.319122 75.471276 
L 201.657529 78.843352 
L 201.995937 75.862954 
L 202.672752 72.600026 
L 203.011159 75.78687 
L 203.349566 72.600026 
L 203.687974 75.471276 
L 204.364789 71.08341 
L 204.703196 77.173319 
L 205.041603 71.049795 
L 205.380011 75.471276 
L 206.056826 71.948908 
L 206.395233 71.047927 
L 206.733641 72.600026 
L 207.410455 72.600026 
L 207.748863 77.359106 
L 208.08727 75.891277 
L 208.425678 72.600026 
L 208.764085 72.600026 
L 209.102493 80.311316 
L 209.4409 72.600026 
L 209.779307 77.443133 
L 210.117715 77.440703 
L 210.456122 72.600026 
L 210.79453 75.471276 
L 211.132937 76.954745 
L 211.471345 77.343102 
L 211.809752 81.226246 
L 212.148159 71.197458 
L 212.486567 72.600026 
L 212.824974 72.600026 
L 213.163382 76.383655 
L 213.501789 68.000493 
L 213.840196 71.222774 
L 214.178604 71.049795 
L 214.517011 79.629973 
L 214.855419 72.019247 
L 215.193826 72.600026 
L 215.532234 72.600026 
L 215.870641 77.303019 
L 216.209048 72.600026 
L 216.547456 75.471276 
L 216.885863 72.600026 
L 217.224271 75.471276 
L 217.562678 77.324541 
L 218.239493 72.163494 
L 218.916308 72.106293 
L 219.254715 71.252052 
L 219.593123 71.252052 
L 219.93153 72.122315 
L 220.269938 72.131566 
L 220.608345 69.774319 
L 220.946752 74.530161 
L 221.28516 76.046182 
L 221.623567 75.868953 
L 221.961975 69.711026 
L 222.300382 71.252052 
L 222.638789 69.781177 
L 222.977197 71.252052 
L 223.315604 71.252052 
L 223.654012 69.700822 
L 223.992419 71.252052 
L 224.330827 71.252052 
L 224.669234 76.022085 
L 225.007641 69.998772 
L 225.346049 70.839276 
L 225.684456 68.486255 
L 226.022864 68.486255 
L 226.361271 72.600026 
L 226.699679 69.394649 
L 227.038086 70.785573 
L 227.376493 68.486255 
L 227.714901 71.791601 
L 228.053308 76.351887 
L 228.391716 74.768625 
L 228.730123 68.740707 
L 229.068531 69.645029 
L 229.406938 78.044537 
L 229.745345 77.845562 
L 230.083753 68.740707 
L 230.760568 67.583025 
L 231.098975 68.881922 
L 231.437382 78.294929 
L 231.77579 68.145582 
L 232.114197 68.985967 
L 232.452605 68.740707 
L 233.806234 68.740707 
L 234.144642 68.486255 
L 234.483049 68.740707 
L 235.159864 68.740707 
L 235.498272 73.357899 
L 235.836679 65.801946 
L 236.175086 65.801946 
L 236.513494 67.829995 
L 236.851901 76.292047 
L 237.190309 72.426625 
L 237.528716 64.61004 
L 237.867124 66.137036 
L 238.205531 63.968825 
L 238.543938 67.199197 
L 238.882346 71.723934 
L 239.559161 61.508521 
L 239.897568 67.742322 
L 240.235975 64.852182 
L 240.574383 69.410587 
L 240.91279 67.064502 
L 241.589605 59.846287 
L 241.928013 68.929958 
L 242.26642 118.570693 
L 242.604827 72.086663 
L 242.943235 69.467016 
L 243.281642 69.799945 
L 243.62005 66.986368 
L 243.958457 66.681721 
L 244.296865 68.849487 
L 247.342531 68.849487 
L 247.680939 64.410241 
L 248.019346 68.238352 
L 248.357754 68.408246 
L 248.696161 68.849487 
L 249.034569 77.182414 
L 249.372976 66.531028 
L 250.049791 66.531028 
L 250.388198 68.849487 
L 250.726606 68.849487 
L 251.065013 66.688861 
L 251.40342 66.688861 
L 251.741828 74.771058 
L 252.080235 66.688861 
L 252.418643 66.688861 
L 252.75705 71.420951 
L 253.095458 66.688861 
L 253.433865 68.636871 
L 253.772272 66.688861 
L 254.11068 67.548684 
L 254.449087 63.062254 
L 254.787495 66.027505 
L 255.802717 66.027505 
L 256.141124 67.480816 
L 256.479532 66.688861 
L 257.494754 66.688861 
L 257.833162 62.728455 
L 258.509976 62.728455 
L 258.848384 66.027505 
L 259.186791 62.728455 
L 259.525199 62.728455 
L 259.863606 63.546246 
L 260.202013 69.334305 
L 260.540421 66.027505 
L 260.878828 66.137036 
L 261.217236 70.706653 
L 261.555643 66.137036 
L 261.894051 64.805367 
L 262.232458 55.554545 
L 262.570865 55.554545 
L 262.909273 61.339375 
L 263.24768 62.945358 
L 263.586088 62.945358 
L 263.924495 68.480803 
L 264.262903 58.432668 
L 264.939717 98.275311 
L 265.278125 69.088383 
L 265.616532 69.088383 
L 265.95494 70.758907 
L 266.293347 85.087792 
L 266.631755 59.743133 
L 266.970162 99.499103 
L 267.308569 66.087618 
L 267.646977 76.326036 
L 268.323792 61.787646 
L 268.662199 153.86464 
L 269.000606 104.898107 
L 269.339014 94.918266 
L 269.677421 97.744442 
L 270.015829 98.952025 
L 270.354236 104.658307 
L 270.692644 79.878384 
L 271.031051 75.714035 
L 271.369458 77.773071 
L 271.707866 73.903054 
L 272.046273 73.015983 
L 272.384681 72.600026 
L 272.723088 81.133853 
L 273.061496 72.600026 
L 273.399903 72.600026 
L 273.73831 76.954745 
L 274.076718 76.954745 
L 274.415125 81.787651 
L 274.753533 75.471276 
L 275.430348 75.471276 
L 275.768755 72.600026 
L 276.107162 75.471276 
L 276.44557 80.271932 
L 276.783977 77.278071 
L 277.122385 80.232685 
L 277.460792 77.372901 
L 277.799199 75.471276 
L 278.137607 72.600026 
L 278.476014 76.954745 
L 278.814422 76.954745 
L 279.152829 75.466155 
L 279.491237 75.471276 
L 279.829644 72.600026 
L 280.168051 75.471276 
L 280.506459 72.600026 
L 280.844866 80.317002 
L 281.183274 72.600026 
L 281.860089 72.600026 
L 282.198496 80.271932 
L 282.536903 82.114492 
L 282.875311 72.600026 
L 285.58257 72.600026 
L 285.920978 71.053353 
L 286.259385 75.471276 
L 286.597792 72.600026 
L 288.628237 72.600026 
L 288.966644 73.504635 
L 289.305052 75.471276 
L 289.643459 75.471276 
L 289.981867 71.069443 
L 290.320274 77.855486 
L 290.997089 72.600026 
L 294.719571 72.600026 
L 295.057978 75.471276 
L 295.396385 72.600026 
L 296.750015 72.600026 
L 297.088423 75.471276 
L 297.42683 73.478429 
L 297.765237 75.471276 
L 298.103645 72.600026 
L 298.442052 72.600026 
L 298.78046 77.343102 
L 299.118867 75.471276 
L 299.457275 72.600026 
L 299.795682 71.063262 
L 300.134089 76.954745 
L 300.472497 75.471276 
L 300.810904 72.600026 
L 301.826127 72.600026 
L 302.164534 69.566983 
L 302.502941 76.954745 
L 302.841349 75.471276 
L 303.179756 72.600026 
L 304.194978 72.600026 
L 304.533386 71.252052 
L 304.871793 72.600026 
L 305.210201 76.09392 
L 305.548608 69.824276 
L 305.887016 76.08886 
L 306.225423 76.097811 
L 306.56383 71.252052 
L 306.902238 75.699553 
L 307.240645 71.252052 
L 307.579053 71.252052 
L 307.91746 76.096634 
L 308.255868 76.905953 
L 308.594275 71.252052 
L 308.932682 71.252052 
L 309.27109 71.051413 
L 309.609497 71.252052 
L 310.286312 71.252052 
L 310.62472 75.945709 
L 310.963127 73.066622 
L 311.301534 71.252052 
L 312.993571 71.252052 
L 313.331979 75.471276 
L 313.670386 71.252052 
L 315.362423 71.252052 
L 315.700831 76.090688 
L 316.039238 71.252052 
L 316.377646 71.252052 
L 316.716053 78.770858 
L 317.054461 71.252052 
L 320.438535 71.252052 
L 320.776942 76.968053 
L 321.11535 71.252052 
L 321.453757 72.164464 
L 321.792164 71.252052 
L 322.130572 71.252052 
L 322.468979 69.712898 
L 322.807387 71.252052 
L 323.145794 77.899744 
L 323.484202 71.252052 
L 324.161016 71.252052 
L 324.499424 69.834983 
L 324.837831 71.252052 
L 325.176239 68.31242 
L 325.514646 71.252052 
L 326.191461 71.252052 
L 326.529868 70.899865 
L 328.221906 70.899865 
L 328.560313 71.809237 
L 328.89872 70.899865 
L 329.575535 70.899865 
L 329.913943 71.252052 
L 330.25235 71.809757 
L 330.590757 70.899865 
L 330.929165 70.899865 
L 331.267572 71.804027 
L 331.60598 70.899865 
L 332.959609 70.899865 
L 333.298017 70.434435 
L 333.636424 70.899865 
L 335.666869 70.899865 
L 336.005276 68.49094 
L 336.343684 71.252052 
L 336.682091 70.899865 
L 337.697313 70.899865 
L 338.035721 72.719549 
L 338.374128 71.252052 
L 338.712536 70.899865 
L 340.74298 70.863716 
L 341.081388 72.122315 
L 341.419795 71.252052 
L 341.758202 72.122315 
L 342.773425 72.134218 
L 343.111832 72.412766 
L 343.45024 72.134218 
L 344.465462 72.134218 
L 344.803869 74.344067 
L 345.142277 72.134218 
L 346.157499 72.134218 
L 346.495906 74.344067 
L 346.834314 72.134218 
L 348.187943 72.134218 
L 348.526351 74.344067 
L 348.864758 70.899865 
L 349.203166 70.899865 
L 349.541573 69.48529 
L 349.879981 70.819596 
L 350.556795 70.819596 
L 350.895203 76.701773 
L 351.23361 73.510448 
L 351.572018 71.63477 
L 351.910425 73.510448 
L 352.248833 71.63477 
L 352.58724 73.510448 
L 352.925647 71.63477 
L 353.264055 73.510448 
L 353.602462 71.400103 
L 353.94087 71.400103 
L 354.279277 72.394165 
L 354.617685 71.400103 
L 354.956092 72.394165 
L 355.294499 71.400103 
L 355.632907 72.394165 
L 355.971314 71.400103 
L 356.309722 72.394165 
L 356.648129 72.394165 
L 356.986536 73.097167 
L 358.001759 73.097167 
L 358.340166 72.985329 
L 358.678574 73.212244 
L 359.016981 71.276503 
L 359.355388 72.456385 
L 359.693796 71.276503 
L 360.032203 71.276503 
L 360.709018 76.750796 
L 361.047426 73.897637 
L 361.385833 73.897637 
L 361.72424 74.797796 
L 362.062648 74.797796 
L 362.401055 81.4759 
L 362.739463 85.135849 
L 363.07787 85.092298 
L 363.416278 84.184035 
L 363.754685 86.892587 
L 364.093092 87.804725 
L 364.4315 87.140052 
L 364.769907 95.037593 
L 365.108315 87.638513 
L 365.446722 92.579983 
L 365.785129 90.361985 
L 366.123537 95.026996 
L 366.461944 90.485771 
L 366.800352 96.391842 
L 367.477167 90.422677 
L 367.815574 97.693072 
L 368.492389 77.522591 
L 368.830796 73.519263 
L 369.169204 75.460652 
L 369.846019 68.780475 
L 370.184426 95.841135 
L 370.522833 72.30276 
L 370.861241 74.161357 
L 371.538056 86.948816 
L 371.876463 76.718432 
L 372.214871 137.437627 
L 372.891685 98.60507 
L 373.230093 96.302448 
L 373.5685 98.40875 
L 373.906908 98.398782 
L 374.245315 106.144808 
L 374.583722 107.526309 
L 374.92213 141.532029 
L 375.260537 94.808833 
L 375.598945 90.620562 
L 375.937352 74.368826 
L 378.306204 74.368826 
L 378.644612 68.720302 
L 378.983019 60.40702 
L 379.321426 63.960811 
L 379.659834 63.546541 
L 379.998241 56.240307 
L 380.336649 63.546541 
L 381.351871 63.546541 
L 381.690278 80.546973 
L 382.028686 89.543406 
L 382.367093 65.363835 
L 382.705501 119.145181 
L 383.043908 78.030818 
L 383.382315 80.514942 
L 383.720723 77.050422 
L 384.05913 81.755542 
L 384.397538 82.289099 
L 384.735945 74.368826 
L 385.074353 73.932839 
L 385.41276 79.920932 
L 385.751167 80.803639 
L 386.089575 79.920932 
L 386.427982 80.440468 
L 386.76639 82.022822 
L 387.104797 87.386471 
L 387.443205 66.936327 
L 387.781612 68.878639 
L 388.120019 67.244825 
L 388.458427 60.475278 
L 389.135242 84.482698 
L 389.473649 64.746515 
L 389.812057 94.765585 
L 390.488871 64.854618 
L 390.827279 64.605873 
L 391.165686 91.882558 
L 391.504094 72.171497 
L 391.842501 82.906731 
L 392.180908 70.388557 
L 392.519316 114.817317 
L 393.196131 81.343303 
L 393.534538 84.98566 
L 393.872946 92.901591 
L 394.211353 77.333133 
L 394.54976 86.135573 
L 394.888168 78.496661 
L 395.226575 86.736315 
L 395.564983 86.135573 
L 395.90339 74.143046 
L 396.241798 73.069788 
L 396.580205 75.094496 
L 396.918612 71.722839 
L 397.25702 77.782646 
L 397.595427 65.475185 
L 397.933835 60.417853 
L 398.272242 89.678622 
L 398.61065 70.539843 
L 398.949057 104.235138 
L 399.625872 62.74583 
L 399.964279 68.602392 
L 400.302687 89.955013 
L 400.641094 68.202064 
L 400.979501 68.602392 
L 401.317909 124.869366 
L 401.656316 77.172445 
L 401.994724 78.852097 
L 402.333131 76.460106 
L 402.671539 78.852097 
L 403.009946 69.261258 
L 403.348353 81.950356 
L 403.686761 72.387659 
L 404.025168 82.244884 
L 404.363576 80.509506 
L 404.701983 81.378522 
L 405.040391 69.575078 
L 405.378798 62.74583 
L 405.717205 73.559196 
L 406.055613 123.297079 
L 406.39402 88.156871 
L 406.732428 82.191148 
L 407.070835 87.822161 
L 407.409243 84.11489 
L 407.74765 91.723861 
L 408.086057 87.240278 
L 408.424465 86.539787 
L 408.762872 86.539787 
L 409.10128 95.379954 
L 409.439687 92.376619 
L 409.778094 82.581843 
L 410.116502 77.52413 
L 410.454909 83.174491 
L 410.793317 82.581843 
L 411.131724 77.52413 
L 411.808539 87.469688 
L 412.146946 73.775184 
L 412.485354 88.122913 
L 412.823761 82.539716 
L 413.162169 74.207089 
L 413.838984 80.068748 
L 414.177391 82.399179 
L 414.515798 77.882561 
L 414.854206 76.413826 
L 415.192613 63.64133 
L 415.531021 66.288679 
L 415.869428 66.288679 
L 416.207836 70.744251 
L 416.546243 84.952898 
L 416.88465 80.794835 
L 417.223058 66.067805 
L 417.561465 63.575239 
L 417.899873 79.801283 
L 418.23828 82.6145 
L 418.576687 67.590313 
L 418.915095 99.704586 
L 419.253502 64.62231 
L 419.59191 69.467639 
L 419.930317 69.486622 
L 420.268725 71.635666 
L 420.945539 71.635666 
L 421.283947 67.322736 
L 421.622354 77.496578 
L 421.960762 143.418361 
L 422.299169 104.579107 
L 422.637577 95.455715 
L 422.975984 91.65842 
L 423.314391 91.847614 
L 423.652799 95.331926 
L 423.991206 97.415648 
L 424.329614 91.133235 
L 424.668021 91.919471 
L 425.006429 103.865817 
L 425.344836 102.025974 
L 425.683243 87.113901 
L 426.021651 93.063888 
L 426.360058 85.720041 
L 426.698466 83.640609 
L 427.036873 83.747967 
L 427.37528 93.826235 
L 427.713688 87.663985 
L 428.052095 75.104588 
L 428.390503 83.640609 
L 428.72891 88.878566 
L 429.067318 75.104588 
L 429.405725 75.104588 
L 429.744132 83.64875 
L 430.08254 78.183382 
L 430.420947 77.210859 
L 430.759355 75.104588 
L 431.097762 87.932552 
L 431.43617 78.183382 
L 431.774577 74.799874 
L 432.112984 80.477066 
L 432.451392 73.680754 
L 432.789799 76.76378 
L 433.128207 83.325141 
L 433.466614 77.624284 
L 433.805022 68.174921 
L 434.143429 77.624284 
L 434.481836 63.353641 
L 434.820244 66.866403 
L 435.158651 68.517223 
L 435.497059 95.998006 
L 435.835466 72.847286 
L 436.173873 68.671799 
L 436.512281 66.866403 
L 436.850688 69.771581 
L 437.189096 67.319748 
L 437.865911 80.181262 
L 438.204318 66.186469 
L 438.881133 85.642161 
L 439.21954 64.419542 
L 439.557948 137.198652 
L 439.896355 81.805019 
L 440.234763 87.465499 
L 440.57317 86.288926 
L 440.911577 93.187787 
L 441.249985 83.06333 
L 441.588392 83.189505 
L 441.9268 85.548495 
L 442.265207 86.663977 
L 442.603615 80.270067 
L 442.942022 79.878032 
L 443.280429 77.240009 
L 443.618837 77.738922 
L 443.957244 77.240009 
L 444.295652 72.935166 
L 445.649281 72.935166 
L 445.987689 80.270067 
L 446.326096 71.338938 
L 446.664504 89.101987 
L 447.002911 80.270067 
L 447.341318 80.270067 
L 447.679726 71.338938 
L 448.018133 85.363674 
L 448.356541 73.486207 
L 448.694948 80.918059 
L 449.033356 85.594301 
L 449.371763 78.248644 
L 449.71017 76.401773 
L 450.048578 81.655936 
L 450.386985 78.248644 
L 450.725393 79.762521 
L 451.0638 70.138422 
L 451.402208 73.788805 
L 451.740615 83.633602 
L 452.079022 69.335408 
L 452.41743 96.343195 
L 452.755837 70.227036 
L 453.094245 70.227036 
L 453.432652 96.321084 
L 453.771059 71.12931 
L 454.109467 76.023675 
L 454.447874 76.023675 
L 454.786282 73.20949 
L 455.124689 79.990697 
L 455.801504 73.140694 
L 456.139911 92.356465 
L 456.478319 77.30575 
L 456.816726 88.396169 
L 457.155134 75.982766 
L 457.493541 107.519576 
L 457.831949 64.768718 
L 458.170356 104.292372 
L 458.508763 74.148582 
L 458.847171 76.600017 
L 459.185578 77.982263 
L 459.523986 84.938316 
L 459.862393 82.892499 
L 460.200801 89.310781 
L 460.539208 82.657377 
L 460.877615 78.698521 
L 461.216023 86.142938 
L 461.55443 83.398562 
L 461.892838 88.587339 
L 462.231245 76.482021 
L 462.569652 74.03387 
L 463.246467 83.829484 
L 463.584875 77.526488 
L 463.923282 80.285989 
L 464.26169 67.11923 
L 464.600097 70.362615 
L 464.938504 69.020524 
L 465.276912 108.801614 
L 465.615319 79.03561 
L 465.953727 79.263651 
L 466.292134 73.993191 
L 466.630542 73.993191 
L 466.968949 86.388599 
L 467.307356 76.939932 
L 467.645764 79.03561 
L 467.984171 73.993191 
L 468.322579 81.614084 
L 468.660986 71.754003 
L 468.999394 72.20452 
L 469.337801 79.999754 
L 469.676208 69.085843 
L 470.014616 106.187208 
L 470.353023 79.903592 
L 470.691431 76.767572 
L 471.029838 90.092728 
L 471.368245 82.089395 
L 471.706653 81.656178 
L 472.04506 74.938496 
L 472.383468 72.186866 
L 472.721875 75.960094 
L 473.39869 75.743744 
L 473.737097 88.583806 
L 474.075505 71.824289 
L 474.413912 65.804782 
L 474.75232 77.710958 
L 475.090727 65.804782 
L 475.429135 70.459045 
L 475.767542 70.599996 
L 476.105949 72.490553 
L 476.444357 78.096377 
L 476.782764 61.350299 
L 477.121172 100.648858 
L 477.459579 81.801739 
L 477.797987 81.801739 
L 478.136394 71.406154 
L 478.474801 71.957798 
L 478.813209 79.59053 
L 479.151616 77.710958 
L 479.490024 75.042872 
L 479.828431 81.046311 
L 480.166838 78.307563 
L 480.505246 76.608292 
L 480.843653 69.586845 
L 481.182061 79.59053 
L 481.520468 74.789842 
L 482.197283 69.901621 
L 482.53569 71.608926 
L 482.874098 90.103348 
L 483.212505 86.100805 
L 483.88932 70.891693 
L 484.227728 73.332821 
L 484.566135 73.332821 
L 484.904542 75.9027 
L 485.24295 92.029307 
L 485.581357 70.973264 
L 485.919765 84.625141 
L 486.258172 72.224492 
L 486.934987 94.079975 
L 487.273394 79.999754 
L 487.611802 75.222948 
L 487.950209 79.999754 
L 488.288617 75.222948 
L 488.627024 75.698788 
L 488.965431 69.586845 
L 489.303839 69.586845 
L 489.642246 67.6776 
L 489.980654 85.927049 
L 490.319061 72.554772 
L 490.657469 79.949494 
L 490.995876 78.877901 
L 491.334283 69.586845 
L 491.672691 69.586845 
L 492.011098 75.934159 
L 492.349506 78.286372 
L 492.687913 69.765136 
L 493.026321 74.118484 
L 493.364728 75.578087 
L 493.703135 72.519674 
L 494.041543 78.715088 
L 494.37995 67.139845 
L 494.718358 147.834639 
L 495.056765 90.373936 
L 495.395173 93.263111 
L 496.410395 82.95891 
L 496.748802 85.346409 
L 497.08721 84.882189 
L 497.425617 90.307758 
L 497.764025 99.648181 
L 498.102432 85.619241 
L 498.440839 92.334874 
L 498.779247 81.190761 
L 499.117654 82.469683 
L 499.794469 82.373263 
L 500.132876 81.481358 
L 500.471284 76.068258 
L 500.809691 75.698788 
L 501.148099 84.434276 
L 501.486506 84.434276 
L 501.824914 71.819093 
L 502.163321 70.336756 
L 502.501728 90.34047 
L 502.840136 77.200877 
L 503.178543 71.819093 
L 503.516951 82.259534 
L 503.855358 79.262277 
L 504.193766 74.788038 
L 504.532173 72.750797 
L 504.87058 78.584803 
L 505.208988 74.716928 
L 505.547395 76.027735 
L 505.885803 76.012326 
L 506.22421 70.557266 
L 506.562618 70.426874 
L 506.901025 74.716928 
L 507.239432 76.012326 
L 507.57784 70.426874 
L 507.916247 77.558435 
L 508.254655 70.557266 
L 508.593062 73.102008 
L 508.931469 79.524439 
L 509.269877 77.753324 
L 509.608284 81.9617 
L 509.946692 73.823352 
L 510.285099 76.891067 
L 510.623507 78.60337 
L 510.961914 70.245514 
L 511.300321 73.48419 
L 511.638729 72.171916 
L 511.977136 66.984684 
L 512.315544 66.232669 
L 512.653951 106.301035 
L 512.992359 64.381242 
L 513.330766 63.736668 
L 513.669173 73.342863 
L 514.007581 78.159562 
L 514.345988 131.240893 
L 514.684396 86.499964 
L 515.022803 76.441861 
L 515.361211 84.119489 
L 515.699618 76.72146 
L 516.038025 81.91743 
L 516.376433 70.486368 
L 517.053248 82.565325 
L 517.391655 66.609695 
L 517.730062 69.815324 
L 518.06847 69.941591 
L 518.406877 69.941591 
L 518.745285 63.538101 
L 519.083692 67.333869 
L 519.4221 79.21846 
L 519.760507 66.748838 
L 520.098914 117.591229 
L 520.437322 81.842497 
L 520.775729 78.406822 
L 521.114137 72.043496 
L 521.452544 72.155815 
L 521.790952 67.829692 
L 522.129359 67.829692 
L 522.806174 62.096966 
L 523.144581 70.049046 
L 523.482989 69.2678 
L 524.159804 106.464548 
L 524.498211 70.371158 
L 524.836618 70.371158 
L 525.175026 73.593145 
L 525.513433 73.593145 
L 525.851841 78.637745 
L 526.190248 95.17478 
L 526.528655 72.578685 
L 526.867063 85.350748 
L 527.20547 72.578685 
L 527.882285 72.578685 
L 528.220693 109.418195 
L 528.5591 81.763964 
L 528.897507 66.871549 
L 529.235915 72.578685 
L 529.91273 72.578685 
L 530.251137 142.727374 
L 530.589545 85.772418 
L 530.927952 83.354446 
L 531.266359 90.389288 
L 531.604767 91.297981 
L 531.943174 85.179643 
L 533.973619 85.179643 
L 534.312026 84.688495 
L 534.650434 84.948959 
L 534.988841 77.648847 
L 535.327248 73.86241 
L 535.665656 81.101847 
L 536.342471 81.101847 
L 536.680878 76.645265 
L 537.019286 77.094864 
L 537.357693 72.27719 
L 537.6961 72.27719 
L 538.034508 73.361604 
L 538.372915 73.361604 
L 538.711323 67.907564 
L 539.04973 80.445344 
L 539.388138 75.801087 
L 539.726545 105.84209 
L 540.064952 69.560302 
L 540.40336 64.828878 
L 540.741767 72.431113 
L 541.080175 64.828878 
L 541.418582 69.01944 
L 541.75699 69.321547 
L 542.095397 89.33369 
L 542.433804 69.329612 
L 542.772212 65.444087 
L 543.110619 69.560302 
L 543.449027 70.505309 
L 543.787434 79.914938 
L 544.125841 67.12606 
L 544.464249 67.916653 
L 545.141064 79.430018 
L 545.479471 75.124494 
L 545.817879 77.800862 
L 546.156286 73.361604 
L 546.494693 65.682063 
L 546.833101 77.96806 
L 547.171508 76.374126 
L 547.509916 78.785235 
L 547.848323 69.090989 
L 548.186731 87.379168 
L 548.525138 77.826057 
L 548.863545 73.049147 
L 549.201953 73.049147 
L 549.54036 72.599814 
L 549.878768 69.38797 
L 550.217175 64.550666 
L 550.555583 72.666621 
L 550.89399 74.455927 
L 551.232397 64.550666 
L 551.570805 72.666621 
L 551.909212 68.571489 
L 552.924434 68.571489 
L 553.262842 69.960115 
L 553.939657 92.008647 
L 554.278064 91.212693 
L 554.616472 61.262315 
L 554.954879 76.759643 
L 555.293286 121.05749 
L 555.631694 72.039987 
L 555.970101 65.750805 
L 556.308509 63.355132 
L 556.646916 91.359872 
L 556.985324 63.355132 
L 557.323731 84.10814 
L 557.662138 63.169091 
L 558.000546 72.482665 
L 558.338953 108.768606 
L 558.677361 79.471829 
L 559.015768 71.468124 
L 559.354176 70.409057 
L 559.692583 72.77096 
L 560.03099 67.518155 
L 560.369398 91.284412 
L 560.707805 67.875571 
L 561.046213 65.808419 
L 561.38462 68.756911 
L 561.723027 68.069568 
L 562.061435 87.355038 
L 562.399842 68.157475 
L 562.73825 83.841116 
L 563.076657 63.019241 
L 563.753472 99.212431 
L 564.091879 68.658887 
L 564.430287 67.875571 
L 564.768694 68.157475 
L 565.107102 66.855064 
L 565.445509 66.855064 
L 566.122324 78.573987 
L 566.460731 66.855064 
L 567.475954 66.855064 
L 567.814361 65.251381 
L 568.152769 79.708537 
L 568.491176 81.310661 
L 568.829583 66.337062 
L 569.167991 84.239415 
L 569.506398 66.337062 
L 569.844806 78.265328 
L 570.183213 69.589729 
L 570.52162 75.210996 
L 570.860028 75.387379 
L 571.198435 96.853905 
L 571.536843 68.487979 
L 571.87525 68.570886 
L 572.213658 101.74768 
L 572.552065 70.419265 
L 572.890472 70.419265 
L 573.22888 75.669218 
L 573.567287 70.419265 
L 573.905695 71.914213 
L 574.244102 68.008051 
L 574.58251 68.041948 
L 574.920917 70.130335 
L 575.259324 68.041948 
L 575.597732 76.407442 
L 575.936139 68.041948 
L 576.274547 68.041948 
L 576.612954 72.498749 
L 576.951362 67.617756 
L 577.289769 66.612175 
L 577.628176 69.050035 
L 577.966584 73.995689 
L 578.304991 70.595427 
L 578.643399 70.855159 
L 578.981806 69.247475 
L 579.320213 70.945096 
L 579.658621 69.018634 
L 579.997028 70.945096 
L 580.335436 68.834598 
L 580.673843 71.482946 
L 581.012251 68.328633 
L 581.350658 64.045357 
L 581.689065 68.698605 
L 582.027473 68.802869 
L 582.36588 73.474253 
L 582.704288 61.328835 
L 583.042695 66.930972 
L 583.381103 68.708471 
L 583.71951 64.833143 
L 584.057917 66.490554 
L 584.396325 64.833143 
L 584.734732 69.12325 
L 585.07314 66.824289 
L 585.411547 70.476582 
L 585.749955 70.889821 
L 586.088362 67.906746 
L 586.426769 72.913165 
L 586.765177 71.362498 
L 587.103584 65.416337 
L 587.441992 74.085597 
L 587.780399 64.876448 
L 588.118806 67.906746 
L 588.457214 73.810483 
L 588.795621 66.480775 
L 589.134029 79.737059 
L 589.810844 65.283592 
L 590.487658 70.715603 
L 590.826066 96.818525 
L 591.164473 107.937601 
L 591.502881 73.369845 
L 591.841288 74.85043 
L 592.179696 63.759873 
L 592.518103 72.599707 
L 592.85651 71.314369 
L 593.194918 72.599707 
L 593.533325 71.314369 
L 593.871733 69.440799 
L 594.21014 71.314369 
L 594.548548 66.459548 
L 594.886955 67.906746 
L 595.225362 76.062482 
L 595.56377 79.646715 
L 595.902177 72.254858 
L 596.240585 71.282247 
L 596.578992 68.902568 
L 596.917399 72.881768 
L 597.255807 97.710633 
L 597.594214 75.977533 
L 597.932622 64.007413 
L 598.609437 79.624872 
L 598.947844 72.001039 
L 599.286251 85.96444 
L 599.624659 75.92001 
L 599.963066 69.381128 
L 600.301474 99.079794 
L 600.639881 63.868328 
L 600.978289 87.313785 
L 601.316696 84.175081 
L 601.655103 64.007413 
L 601.993511 88.344815 
L 602.331918 74.214636 
L 602.670326 78.991905 
L 603.008733 78.991905 
L 603.685548 95.120111 
L 604.023955 66.280243 
L 604.362363 75.839439 
L 604.70077 95.797271 
L 605.039178 61.474024 
L 605.377585 100.870715 
L 605.715992 75.699391 
L 606.0544 66.417057 
L 606.731215 84.209122 
L 607.069622 78.746013 
L 607.40803 118.35648 
L 607.746437 66.277152 
L 608.084844 64.200981 
L 608.423252 65.509786 
L 608.761659 63.453185 
L 609.100067 63.453185 
L 609.438474 64.928735 
L 609.776882 63.754863 
L 610.115289 68.220593 
L 613.499363 68.267083 
L 613.837771 69.794262 
L 614.514585 69.794262 
L 614.852993 70.551288 
L 615.1914 69.794262 
L 615.529808 70.551288 
L 615.868215 69.794262 
L 616.206623 69.794262 
L 616.54503 70.551288 
L 616.883437 69.794262 
L 617.221845 70.551288 
L 617.560252 70.6701 
L 617.89866 70.551288 
L 618.237067 73.143218 
L 618.575475 70.6701 
L 618.913882 72.587032 
L 619.252289 68.339108 
L 619.590697 73.143218 
L 619.929104 72.587032 
L 620.267512 68.339108 
L 620.605919 73.187681 
L 620.944327 71.970505 
L 621.282734 67.470963 
L 621.621141 73.062895 
L 621.959549 67.470963 
L 622.297956 73.062895 
L 622.636364 66.828391 
L 622.636364 66.828391 
" style="fill:none;stroke:#1f77b4;stroke-linecap:square;stroke-width:1.5;"/>
   </g>
   <g id="patch_3">
    <path d="M 90 315 
L 90 43.2 
" style="fill:none;stroke:#000000;stroke-linecap:square;stroke-linejoin:miter;stroke-width:0.8;"/>
   </g>
   <g id="patch_4">
    <path d="M 648 315 
L 648 43.2 
" style="fill:none;stroke:#000000;stroke-linecap:square;stroke-linejoin:miter;stroke-width:0.8;"/>
   </g>
   <g id="patch_5">
    <path d="M 90 315 
L 648 315 
" style="fill:none;stroke:#000000;stroke-linecap:square;stroke-linejoin:miter;stroke-width:0.8;"/>
   </g>
   <g id="patch_6">
    <path d="M 90 43.2 
L 648 43.2 
" style="fill:none;stroke:#000000;stroke-linecap:square;stroke-linejoin:miter;stroke-width:0.8;"/>
   </g>
   <g id="text_17">
    <!-- Episode Reward over Time (Smoothed over window size 1) -->
    <defs>
     <path d="M 2.984375 54.6875 
L 12.5 54.6875 
L 29.59375 8.796875 
L 46.6875 54.6875 
L 56.203125 54.6875 
L 35.6875 0 
L 23.484375 0 
z
" id="DejaVuSans-118"/>
     <path d="M -0.296875 72.90625 
L 61.375 72.90625 
L 61.375 64.59375 
L 35.5 64.59375 
L 35.5 0 
L 25.59375 0 
L 25.59375 64.59375 
L -0.296875 64.59375 
z
" id="DejaVuSans-84"/>
     <path d="M 54.890625 33.015625 
L 54.890625 0 
L 45.90625 0 
L 45.90625 32.71875 
Q 45.90625 40.484375 42.875 44.328125 
Q 39.84375 48.1875 33.796875 48.1875 
Q 26.515625 48.1875 22.3125 43.546875 
Q 18.109375 38.921875 18.109375 30.90625 
L 18.109375 0 
L 9.078125 0 
L 9.078125 54.6875 
L 18.109375 54.6875 
L 18.109375 46.1875 
Q 21.34375 51.125 25.703125 53.5625 
Q 30.078125 56 35.796875 56 
Q 45.21875 56 50.046875 50.171875 
Q 54.890625 44.34375 54.890625 33.015625 
z
" id="DejaVuSans-110"/>
     <path d="M 5.515625 54.6875 
L 48.1875 54.6875 
L 48.1875 46.484375 
L 14.40625 7.171875 
L 48.1875 7.171875 
L 48.1875 0 
L 4.296875 0 
L 4.296875 8.203125 
L 38.09375 47.515625 
L 5.515625 47.515625 
z
" id="DejaVuSans-122"/>
    </defs>
    <g transform="translate(192.289688 37.2)scale(0.12 -0.12)">
     <use xlink:href="#DejaVuSans-69"/>
     <use x="63.183594" xlink:href="#DejaVuSans-112"/>
     <use x="126.660156" xlink:href="#DejaVuSans-105"/>
     <use x="154.443359" xlink:href="#DejaVuSans-115"/>
     <use x="206.542969" xlink:href="#DejaVuSans-111"/>
     <use x="267.724609" xlink:href="#DejaVuSans-100"/>
     <use x="331.201172" xlink:href="#DejaVuSans-101"/>
     <use x="392.724609" xlink:href="#DejaVuSans-32"/>
     <use x="424.511719" xlink:href="#DejaVuSans-82"/>
     <use x="493.931641" xlink:href="#DejaVuSans-101"/>
     <use x="555.455078" xlink:href="#DejaVuSans-119"/>
     <use x="637.242188" xlink:href="#DejaVuSans-97"/>
     <use x="698.521484" xlink:href="#DejaVuSans-114"/>
     <use x="739.619141" xlink:href="#DejaVuSans-100"/>
     <use x="803.095703" xlink:href="#DejaVuSans-32"/>
     <use x="834.882812" xlink:href="#DejaVuSans-111"/>
     <use x="896.064453" xlink:href="#DejaVuSans-118"/>
     <use x="955.244141" xlink:href="#DejaVuSans-101"/>
     <use x="1016.767578" xlink:href="#DejaVuSans-114"/>
     <use x="1057.880859" xlink:href="#DejaVuSans-32"/>
     <use x="1089.667969" xlink:href="#DejaVuSans-84"/>
     <use x="1150.705078" xlink:href="#DejaVuSans-105"/>
     <use x="1178.488281" xlink:href="#DejaVuSans-109"/>
     <use x="1275.900391" xlink:href="#DejaVuSans-101"/>
     <use x="1337.423828" xlink:href="#DejaVuSans-32"/>
     <use x="1369.210938" xlink:href="#DejaVuSans-40"/>
     <use x="1408.224609" xlink:href="#DejaVuSans-83"/>
     <use x="1471.701172" xlink:href="#DejaVuSans-109"/>
     <use x="1569.113281" xlink:href="#DejaVuSans-111"/>
     <use x="1630.294922" xlink:href="#DejaVuSans-111"/>
     <use x="1691.476562" xlink:href="#DejaVuSans-116"/>
     <use x="1730.685547" xlink:href="#DejaVuSans-104"/>
     <use x="1794.064453" xlink:href="#DejaVuSans-101"/>
     <use x="1855.587891" xlink:href="#DejaVuSans-100"/>
     <use x="1919.064453" xlink:href="#DejaVuSans-32"/>
     <use x="1950.851562" xlink:href="#DejaVuSans-111"/>
     <use x="2012.033203" xlink:href="#DejaVuSans-118"/>
     <use x="2071.212891" xlink:href="#DejaVuSans-101"/>
     <use x="2132.736328" xlink:href="#DejaVuSans-114"/>
     <use x="2173.849609" xlink:href="#DejaVuSans-32"/>
     <use x="2205.636719" xlink:href="#DejaVuSans-119"/>
     <use x="2287.423828" xlink:href="#DejaVuSans-105"/>
     <use x="2315.207031" xlink:href="#DejaVuSans-110"/>
     <use x="2378.585938" xlink:href="#DejaVuSans-100"/>
     <use x="2442.0625" xlink:href="#DejaVuSans-111"/>
     <use x="2503.244141" xlink:href="#DejaVuSans-119"/>
     <use x="2585.03125" xlink:href="#DejaVuSans-32"/>
     <use x="2616.818359" xlink:href="#DejaVuSans-115"/>
     <use x="2668.917969" xlink:href="#DejaVuSans-105"/>
     <use x="2696.701172" xlink:href="#DejaVuSans-122"/>
     <use x="2749.191406" xlink:href="#DejaVuSans-101"/>
     <use x="2810.714844" xlink:href="#DejaVuSans-32"/>
     <use x="2842.501953" xlink:href="#DejaVuSans-49"/>
     <use x="2906.125" xlink:href="#DejaVuSans-41"/>
    </g>
   </g>
  </g>
 </g>
 <defs>
  <clipPath id="p332537b32b">
   <rect height="271.8" width="558" x="90" y="43.2"/>
  </clipPath>
 </defs>
</svg>
