<?xml version="1.0" encoding="utf-8" standalone="no"?>
<!DOCTYPE svg PUBLIC "-//W3C//DTD SVG 1.1//EN"
  "http://www.w3.org/Graphics/SVG/1.1/DTD/svg11.dtd">
<!-- Created with matplotlib (https://matplotlib.org/) -->
<svg height="360pt" version="1.1" viewBox="0 0 720 360" width="720pt" xmlns="http://www.w3.org/2000/svg" xmlns:xlink="http://www.w3.org/1999/xlink">
 <defs>
  <style type="text/css">
*{stroke-linecap:butt;stroke-linejoin:round;white-space:pre;}
  </style>
 </defs>
 <g id="figure_1">
  <g id="patch_1">
   <path d="M 0 360 
L 720 360 
L 720 0 
L 0 0 
z
" style="fill:#ffffff;"/>
  </g>
  <g id="axes_1">
   <g id="patch_2">
    <path d="M 90 315 
L 648 315 
L 648 43.2 
L 90 43.2 
z
" style="fill:#ffffff;"/>
   </g>
   <g id="matplotlib.axis_1">
    <g id="xtick_1">
     <g id="line2d_1">
      <path clip-path="url(#p83f310590d)" d="M 115.363636 315 
L 115.363636 43.2 
" style="fill:none;stroke:#b0b0b0;stroke-linecap:square;stroke-width:0.8;"/>
     </g>
     <g id="line2d_2">
      <defs>
       <path d="M 0 0 
L 0 3.5 
" id="m970d6b2b29" style="stroke:#000000;stroke-width:0.8;"/>
      </defs>
      <g>
       <use style="stroke:#000000;stroke-width:0.8;" x="115.363636" xlink:href="#m970d6b2b29" y="315"/>
      </g>
     </g>
     <g id="text_1">
      <!-- 0 -->
      <defs>
       <path d="M 31.78125 66.40625 
Q 24.171875 66.40625 20.328125 58.90625 
Q 16.5 51.421875 16.5 36.375 
Q 16.5 21.390625 20.328125 13.890625 
Q 24.171875 6.390625 31.78125 6.390625 
Q 39.453125 6.390625 43.28125 13.890625 
Q 47.125 21.390625 47.125 36.375 
Q 47.125 51.421875 43.28125 58.90625 
Q 39.453125 66.40625 31.78125 66.40625 
z
M 31.78125 74.21875 
Q 44.046875 74.21875 50.515625 64.515625 
Q 56.984375 54.828125 56.984375 36.375 
Q 56.984375 17.96875 50.515625 8.265625 
Q 44.046875 -1.421875 31.78125 -1.421875 
Q 19.53125 -1.421875 13.0625 8.265625 
Q 6.59375 17.96875 6.59375 36.375 
Q 6.59375 54.828125 13.0625 64.515625 
Q 19.53125 74.21875 31.78125 74.21875 
z
" id="DejaVuSans-48"/>
      </defs>
      <g transform="translate(112.182386 329.598437)scale(0.1 -0.1)">
       <use xlink:href="#DejaVuSans-48"/>
      </g>
     </g>
    </g>
    <g id="xtick_2">
     <g id="line2d_3">
      <path clip-path="url(#p83f310590d)" d="M 183.045121 315 
L 183.045121 43.2 
" style="fill:none;stroke:#b0b0b0;stroke-linecap:square;stroke-width:0.8;"/>
     </g>
     <g id="line2d_4">
      <g>
       <use style="stroke:#000000;stroke-width:0.8;" x="183.045121" xlink:href="#m970d6b2b29" y="315"/>
      </g>
     </g>
     <g id="text_2">
      <!-- 200 -->
      <defs>
       <path d="M 19.1875 8.296875 
L 53.609375 8.296875 
L 53.609375 0 
L 7.328125 0 
L 7.328125 8.296875 
Q 12.9375 14.109375 22.625 23.890625 
Q 32.328125 33.6875 34.8125 36.53125 
Q 39.546875 41.84375 41.421875 45.53125 
Q 43.3125 49.21875 43.3125 52.78125 
Q 43.3125 58.59375 39.234375 62.25 
Q 35.15625 65.921875 28.609375 65.921875 
Q 23.96875 65.921875 18.8125 64.3125 
Q 13.671875 62.703125 7.8125 59.421875 
L 7.8125 69.390625 
Q 13.765625 71.78125 18.9375 73 
Q 24.125 74.21875 28.421875 74.21875 
Q 39.75 74.21875 46.484375 68.546875 
Q 53.21875 62.890625 53.21875 53.421875 
Q 53.21875 48.921875 51.53125 44.890625 
Q 49.859375 40.875 45.40625 35.40625 
Q 44.1875 33.984375 37.640625 27.21875 
Q 31.109375 20.453125 19.1875 8.296875 
z
" id="DejaVuSans-50"/>
      </defs>
      <g transform="translate(173.501371 329.598437)scale(0.1 -0.1)">
       <use xlink:href="#DejaVuSans-50"/>
       <use x="63.623047" xlink:href="#DejaVuSans-48"/>
       <use x="127.246094" xlink:href="#DejaVuSans-48"/>
      </g>
     </g>
    </g>
    <g id="xtick_3">
     <g id="line2d_5">
      <path clip-path="url(#p83f310590d)" d="M 250.726606 315 
L 250.726606 43.2 
" style="fill:none;stroke:#b0b0b0;stroke-linecap:square;stroke-width:0.8;"/>
     </g>
     <g id="line2d_6">
      <g>
       <use style="stroke:#000000;stroke-width:0.8;" x="250.726606" xlink:href="#m970d6b2b29" y="315"/>
      </g>
     </g>
     <g id="text_3">
      <!-- 400 -->
      <defs>
       <path d="M 37.796875 64.3125 
L 12.890625 25.390625 
L 37.796875 25.390625 
z
M 35.203125 72.90625 
L 47.609375 72.90625 
L 47.609375 25.390625 
L 58.015625 25.390625 
L 58.015625 17.1875 
L 47.609375 17.1875 
L 47.609375 0 
L 37.796875 0 
L 37.796875 17.1875 
L 4.890625 17.1875 
L 4.890625 26.703125 
z
" id="DejaVuSans-52"/>
      </defs>
      <g transform="translate(241.182856 329.598437)scale(0.1 -0.1)">
       <use xlink:href="#DejaVuSans-52"/>
       <use x="63.623047" xlink:href="#DejaVuSans-48"/>
       <use x="127.246094" xlink:href="#DejaVuSans-48"/>
      </g>
     </g>
    </g>
    <g id="xtick_4">
     <g id="line2d_7">
      <path clip-path="url(#p83f310590d)" d="M 318.40809 315 
L 318.40809 43.2 
" style="fill:none;stroke:#b0b0b0;stroke-linecap:square;stroke-width:0.8;"/>
     </g>
     <g id="line2d_8">
      <g>
       <use style="stroke:#000000;stroke-width:0.8;" x="318.40809" xlink:href="#m970d6b2b29" y="315"/>
      </g>
     </g>
     <g id="text_4">
      <!-- 600 -->
      <defs>
       <path d="M 33.015625 40.375 
Q 26.375 40.375 22.484375 35.828125 
Q 18.609375 31.296875 18.609375 23.390625 
Q 18.609375 15.53125 22.484375 10.953125 
Q 26.375 6.390625 33.015625 6.390625 
Q 39.65625 6.390625 43.53125 10.953125 
Q 47.40625 15.53125 47.40625 23.390625 
Q 47.40625 31.296875 43.53125 35.828125 
Q 39.65625 40.375 33.015625 40.375 
z
M 52.59375 71.296875 
L 52.59375 62.3125 
Q 48.875 64.0625 45.09375 64.984375 
Q 41.3125 65.921875 37.59375 65.921875 
Q 27.828125 65.921875 22.671875 59.328125 
Q 17.53125 52.734375 16.796875 39.40625 
Q 19.671875 43.65625 24.015625 45.921875 
Q 28.375 48.1875 33.59375 48.1875 
Q 44.578125 48.1875 50.953125 41.515625 
Q 57.328125 34.859375 57.328125 23.390625 
Q 57.328125 12.15625 50.6875 5.359375 
Q 44.046875 -1.421875 33.015625 -1.421875 
Q 20.359375 -1.421875 13.671875 8.265625 
Q 6.984375 17.96875 6.984375 36.375 
Q 6.984375 53.65625 15.1875 63.9375 
Q 23.390625 74.21875 37.203125 74.21875 
Q 40.921875 74.21875 44.703125 73.484375 
Q 48.484375 72.75 52.59375 71.296875 
z
" id="DejaVuSans-54"/>
      </defs>
      <g transform="translate(308.86434 329.598437)scale(0.1 -0.1)">
       <use xlink:href="#DejaVuSans-54"/>
       <use x="63.623047" xlink:href="#DejaVuSans-48"/>
       <use x="127.246094" xlink:href="#DejaVuSans-48"/>
      </g>
     </g>
    </g>
    <g id="xtick_5">
     <g id="line2d_9">
      <path clip-path="url(#p83f310590d)" d="M 386.089575 315 
L 386.089575 43.2 
" style="fill:none;stroke:#b0b0b0;stroke-linecap:square;stroke-width:0.8;"/>
     </g>
     <g id="line2d_10">
      <g>
       <use style="stroke:#000000;stroke-width:0.8;" x="386.089575" xlink:href="#m970d6b2b29" y="315"/>
      </g>
     </g>
     <g id="text_5">
      <!-- 800 -->
      <defs>
       <path d="M 31.78125 34.625 
Q 24.75 34.625 20.71875 30.859375 
Q 16.703125 27.09375 16.703125 20.515625 
Q 16.703125 13.921875 20.71875 10.15625 
Q 24.75 6.390625 31.78125 6.390625 
Q 38.8125 6.390625 42.859375 10.171875 
Q 46.921875 13.96875 46.921875 20.515625 
Q 46.921875 27.09375 42.890625 30.859375 
Q 38.875 34.625 31.78125 34.625 
z
M 21.921875 38.8125 
Q 15.578125 40.375 12.03125 44.71875 
Q 8.5 49.078125 8.5 55.328125 
Q 8.5 64.0625 14.71875 69.140625 
Q 20.953125 74.21875 31.78125 74.21875 
Q 42.671875 74.21875 48.875 69.140625 
Q 55.078125 64.0625 55.078125 55.328125 
Q 55.078125 49.078125 51.53125 44.71875 
Q 48 40.375 41.703125 38.8125 
Q 48.828125 37.15625 52.796875 32.3125 
Q 56.78125 27.484375 56.78125 20.515625 
Q 56.78125 9.90625 50.3125 4.234375 
Q 43.84375 -1.421875 31.78125 -1.421875 
Q 19.734375 -1.421875 13.25 4.234375 
Q 6.78125 9.90625 6.78125 20.515625 
Q 6.78125 27.484375 10.78125 32.3125 
Q 14.796875 37.15625 21.921875 38.8125 
z
M 18.3125 54.390625 
Q 18.3125 48.734375 21.84375 45.5625 
Q 25.390625 42.390625 31.78125 42.390625 
Q 38.140625 42.390625 41.71875 45.5625 
Q 45.3125 48.734375 45.3125 54.390625 
Q 45.3125 60.0625 41.71875 63.234375 
Q 38.140625 66.40625 31.78125 66.40625 
Q 25.390625 66.40625 21.84375 63.234375 
Q 18.3125 60.0625 18.3125 54.390625 
z
" id="DejaVuSans-56"/>
      </defs>
      <g transform="translate(376.545825 329.598437)scale(0.1 -0.1)">
       <use xlink:href="#DejaVuSans-56"/>
       <use x="63.623047" xlink:href="#DejaVuSans-48"/>
       <use x="127.246094" xlink:href="#DejaVuSans-48"/>
      </g>
     </g>
    </g>
    <g id="xtick_6">
     <g id="line2d_11">
      <path clip-path="url(#p83f310590d)" d="M 453.771059 315 
L 453.771059 43.2 
" style="fill:none;stroke:#b0b0b0;stroke-linecap:square;stroke-width:0.8;"/>
     </g>
     <g id="line2d_12">
      <g>
       <use style="stroke:#000000;stroke-width:0.8;" x="453.771059" xlink:href="#m970d6b2b29" y="315"/>
      </g>
     </g>
     <g id="text_6">
      <!-- 1000 -->
      <defs>
       <path d="M 12.40625 8.296875 
L 28.515625 8.296875 
L 28.515625 63.921875 
L 10.984375 60.40625 
L 10.984375 69.390625 
L 28.421875 72.90625 
L 38.28125 72.90625 
L 38.28125 8.296875 
L 54.390625 8.296875 
L 54.390625 0 
L 12.40625 0 
z
" id="DejaVuSans-49"/>
      </defs>
      <g transform="translate(441.046059 329.598437)scale(0.1 -0.1)">
       <use xlink:href="#DejaVuSans-49"/>
       <use x="63.623047" xlink:href="#DejaVuSans-48"/>
       <use x="127.246094" xlink:href="#DejaVuSans-48"/>
       <use x="190.869141" xlink:href="#DejaVuSans-48"/>
      </g>
     </g>
    </g>
    <g id="xtick_7">
     <g id="line2d_13">
      <path clip-path="url(#p83f310590d)" d="M 521.452544 315 
L 521.452544 43.2 
" style="fill:none;stroke:#b0b0b0;stroke-linecap:square;stroke-width:0.8;"/>
     </g>
     <g id="line2d_14">
      <g>
       <use style="stroke:#000000;stroke-width:0.8;" x="521.452544" xlink:href="#m970d6b2b29" y="315"/>
      </g>
     </g>
     <g id="text_7">
      <!-- 1200 -->
      <g transform="translate(508.727544 329.598437)scale(0.1 -0.1)">
       <use xlink:href="#DejaVuSans-49"/>
       <use x="63.623047" xlink:href="#DejaVuSans-50"/>
       <use x="127.246094" xlink:href="#DejaVuSans-48"/>
       <use x="190.869141" xlink:href="#DejaVuSans-48"/>
      </g>
     </g>
    </g>
    <g id="xtick_8">
     <g id="line2d_15">
      <path clip-path="url(#p83f310590d)" d="M 589.134029 315 
L 589.134029 43.2 
" style="fill:none;stroke:#b0b0b0;stroke-linecap:square;stroke-width:0.8;"/>
     </g>
     <g id="line2d_16">
      <g>
       <use style="stroke:#000000;stroke-width:0.8;" x="589.134029" xlink:href="#m970d6b2b29" y="315"/>
      </g>
     </g>
     <g id="text_8">
      <!-- 1400 -->
      <g transform="translate(576.409029 329.598437)scale(0.1 -0.1)">
       <use xlink:href="#DejaVuSans-49"/>
       <use x="63.623047" xlink:href="#DejaVuSans-52"/>
       <use x="127.246094" xlink:href="#DejaVuSans-48"/>
       <use x="190.869141" xlink:href="#DejaVuSans-48"/>
      </g>
     </g>
    </g>
    <g id="text_9">
     <!-- Episode -->
     <defs>
      <path d="M 9.8125 72.90625 
L 55.90625 72.90625 
L 55.90625 64.59375 
L 19.671875 64.59375 
L 19.671875 43.015625 
L 54.390625 43.015625 
L 54.390625 34.71875 
L 19.671875 34.71875 
L 19.671875 8.296875 
L 56.78125 8.296875 
L 56.78125 0 
L 9.8125 0 
z
" id="DejaVuSans-69"/>
      <path d="M 18.109375 8.203125 
L 18.109375 -20.796875 
L 9.078125 -20.796875 
L 9.078125 54.6875 
L 18.109375 54.6875 
L 18.109375 46.390625 
Q 20.953125 51.265625 25.265625 53.625 
Q 29.59375 56 35.59375 56 
Q 45.5625 56 51.78125 48.09375 
Q 58.015625 40.1875 58.015625 27.296875 
Q 58.015625 14.40625 51.78125 6.484375 
Q 45.5625 -1.421875 35.59375 -1.421875 
Q 29.59375 -1.421875 25.265625 0.953125 
Q 20.953125 3.328125 18.109375 8.203125 
z
M 48.6875 27.296875 
Q 48.6875 37.203125 44.609375 42.84375 
Q 40.53125 48.484375 33.40625 48.484375 
Q 26.265625 48.484375 22.1875 42.84375 
Q 18.109375 37.203125 18.109375 27.296875 
Q 18.109375 17.390625 22.1875 11.75 
Q 26.265625 6.109375 33.40625 6.109375 
Q 40.53125 6.109375 44.609375 11.75 
Q 48.6875 17.390625 48.6875 27.296875 
z
" id="DejaVuSans-112"/>
      <path d="M 9.421875 54.6875 
L 18.40625 54.6875 
L 18.40625 0 
L 9.421875 0 
z
M 9.421875 75.984375 
L 18.40625 75.984375 
L 18.40625 64.59375 
L 9.421875 64.59375 
z
" id="DejaVuSans-105"/>
      <path d="M 44.28125 53.078125 
L 44.28125 44.578125 
Q 40.484375 46.53125 36.375 47.5 
Q 32.28125 48.484375 27.875 48.484375 
Q 21.1875 48.484375 17.84375 46.4375 
Q 14.5 44.390625 14.5 40.28125 
Q 14.5 37.15625 16.890625 35.375 
Q 19.28125 33.59375 26.515625 31.984375 
L 29.59375 31.296875 
Q 39.15625 29.25 43.1875 25.515625 
Q 47.21875 21.78125 47.21875 15.09375 
Q 47.21875 7.46875 41.1875 3.015625 
Q 35.15625 -1.421875 24.609375 -1.421875 
Q 20.21875 -1.421875 15.453125 -0.5625 
Q 10.6875 0.296875 5.421875 2 
L 5.421875 11.28125 
Q 10.40625 8.6875 15.234375 7.390625 
Q 20.0625 6.109375 24.8125 6.109375 
Q 31.15625 6.109375 34.5625 8.28125 
Q 37.984375 10.453125 37.984375 14.40625 
Q 37.984375 18.0625 35.515625 20.015625 
Q 33.0625 21.96875 24.703125 23.78125 
L 21.578125 24.515625 
Q 13.234375 26.265625 9.515625 29.90625 
Q 5.8125 33.546875 5.8125 39.890625 
Q 5.8125 47.609375 11.28125 51.796875 
Q 16.75 56 26.8125 56 
Q 31.78125 56 36.171875 55.265625 
Q 40.578125 54.546875 44.28125 53.078125 
z
" id="DejaVuSans-115"/>
      <path d="M 30.609375 48.390625 
Q 23.390625 48.390625 19.1875 42.75 
Q 14.984375 37.109375 14.984375 27.296875 
Q 14.984375 17.484375 19.15625 11.84375 
Q 23.34375 6.203125 30.609375 6.203125 
Q 37.796875 6.203125 41.984375 11.859375 
Q 46.1875 17.53125 46.1875 27.296875 
Q 46.1875 37.015625 41.984375 42.703125 
Q 37.796875 48.390625 30.609375 48.390625 
z
M 30.609375 56 
Q 42.328125 56 49.015625 48.375 
Q 55.71875 40.765625 55.71875 27.296875 
Q 55.71875 13.875 49.015625 6.21875 
Q 42.328125 -1.421875 30.609375 -1.421875 
Q 18.84375 -1.421875 12.171875 6.21875 
Q 5.515625 13.875 5.515625 27.296875 
Q 5.515625 40.765625 12.171875 48.375 
Q 18.84375 56 30.609375 56 
z
" id="DejaVuSans-111"/>
      <path d="M 45.40625 46.390625 
L 45.40625 75.984375 
L 54.390625 75.984375 
L 54.390625 0 
L 45.40625 0 
L 45.40625 8.203125 
Q 42.578125 3.328125 38.25 0.953125 
Q 33.9375 -1.421875 27.875 -1.421875 
Q 17.96875 -1.421875 11.734375 6.484375 
Q 5.515625 14.40625 5.515625 27.296875 
Q 5.515625 40.1875 11.734375 48.09375 
Q 17.96875 56 27.875 56 
Q 33.9375 56 38.25 53.625 
Q 42.578125 51.265625 45.40625 46.390625 
z
M 14.796875 27.296875 
Q 14.796875 17.390625 18.875 11.75 
Q 22.953125 6.109375 30.078125 6.109375 
Q 37.203125 6.109375 41.296875 11.75 
Q 45.40625 17.390625 45.40625 27.296875 
Q 45.40625 37.203125 41.296875 42.84375 
Q 37.203125 48.484375 30.078125 48.484375 
Q 22.953125 48.484375 18.875 42.84375 
Q 14.796875 37.203125 14.796875 27.296875 
z
" id="DejaVuSans-100"/>
      <path d="M 56.203125 29.59375 
L 56.203125 25.203125 
L 14.890625 25.203125 
Q 15.484375 15.921875 20.484375 11.0625 
Q 25.484375 6.203125 34.421875 6.203125 
Q 39.59375 6.203125 44.453125 7.46875 
Q 49.3125 8.734375 54.109375 11.28125 
L 54.109375 2.78125 
Q 49.265625 0.734375 44.1875 -0.34375 
Q 39.109375 -1.421875 33.890625 -1.421875 
Q 20.796875 -1.421875 13.15625 6.1875 
Q 5.515625 13.8125 5.515625 26.8125 
Q 5.515625 40.234375 12.765625 48.109375 
Q 20.015625 56 32.328125 56 
Q 43.359375 56 49.78125 48.890625 
Q 56.203125 41.796875 56.203125 29.59375 
z
M 47.21875 32.234375 
Q 47.125 39.59375 43.09375 43.984375 
Q 39.0625 48.390625 32.421875 48.390625 
Q 24.90625 48.390625 20.390625 44.140625 
Q 15.875 39.890625 15.1875 32.171875 
z
" id="DejaVuSans-101"/>
     </defs>
     <g transform="translate(349.3625 343.276563)scale(0.1 -0.1)">
      <use xlink:href="#DejaVuSans-69"/>
      <use x="63.183594" xlink:href="#DejaVuSans-112"/>
      <use x="126.660156" xlink:href="#DejaVuSans-105"/>
      <use x="154.443359" xlink:href="#DejaVuSans-115"/>
      <use x="206.542969" xlink:href="#DejaVuSans-111"/>
      <use x="267.724609" xlink:href="#DejaVuSans-100"/>
      <use x="331.201172" xlink:href="#DejaVuSans-101"/>
     </g>
    </g>
   </g>
   <g id="matplotlib.axis_2">
    <g id="ytick_1">
     <g id="line2d_17">
      <path clip-path="url(#p83f310590d)" d="M 90 269.631728 
L 648 269.631728 
" style="fill:none;stroke:#b0b0b0;stroke-linecap:square;stroke-width:0.8;"/>
     </g>
     <g id="line2d_18">
      <defs>
       <path d="M 0 0 
L -3.5 0 
" id="m5a97e3708f" style="stroke:#000000;stroke-width:0.8;"/>
      </defs>
      <g>
       <use style="stroke:#000000;stroke-width:0.8;" x="90" xlink:href="#m5a97e3708f" y="269.631728"/>
      </g>
     </g>
     <g id="text_10">
      <!-- −1.4 -->
      <defs>
       <path d="M 10.59375 35.5 
L 73.1875 35.5 
L 73.1875 27.203125 
L 10.59375 27.203125 
z
" id="DejaVuSans-8722"/>
       <path d="M 10.6875 12.40625 
L 21 12.40625 
L 21 0 
L 10.6875 0 
z
" id="DejaVuSans-46"/>
      </defs>
      <g transform="translate(58.717187 273.430947)scale(0.1 -0.1)">
       <use xlink:href="#DejaVuSans-8722"/>
       <use x="83.789062" xlink:href="#DejaVuSans-49"/>
       <use x="147.412109" xlink:href="#DejaVuSans-46"/>
       <use x="179.199219" xlink:href="#DejaVuSans-52"/>
      </g>
     </g>
    </g>
    <g id="ytick_2">
     <g id="line2d_19">
      <path clip-path="url(#p83f310590d)" d="M 90 216.099406 
L 648 216.099406 
" style="fill:none;stroke:#b0b0b0;stroke-linecap:square;stroke-width:0.8;"/>
     </g>
     <g id="line2d_20">
      <g>
       <use style="stroke:#000000;stroke-width:0.8;" x="90" xlink:href="#m5a97e3708f" y="216.099406"/>
      </g>
     </g>
     <g id="text_11">
      <!-- −1.2 -->
      <g transform="translate(58.717187 219.898625)scale(0.1 -0.1)">
       <use xlink:href="#DejaVuSans-8722"/>
       <use x="83.789062" xlink:href="#DejaVuSans-49"/>
       <use x="147.412109" xlink:href="#DejaVuSans-46"/>
       <use x="179.199219" xlink:href="#DejaVuSans-50"/>
      </g>
     </g>
    </g>
    <g id="ytick_3">
     <g id="line2d_21">
      <path clip-path="url(#p83f310590d)" d="M 90 162.567084 
L 648 162.567084 
" style="fill:none;stroke:#b0b0b0;stroke-linecap:square;stroke-width:0.8;"/>
     </g>
     <g id="line2d_22">
      <g>
       <use style="stroke:#000000;stroke-width:0.8;" x="90" xlink:href="#m5a97e3708f" y="162.567084"/>
      </g>
     </g>
     <g id="text_12">
      <!-- −1.0 -->
      <g transform="translate(58.717187 166.366302)scale(0.1 -0.1)">
       <use xlink:href="#DejaVuSans-8722"/>
       <use x="83.789062" xlink:href="#DejaVuSans-49"/>
       <use x="147.412109" xlink:href="#DejaVuSans-46"/>
       <use x="179.199219" xlink:href="#DejaVuSans-48"/>
      </g>
     </g>
    </g>
    <g id="ytick_4">
     <g id="line2d_23">
      <path clip-path="url(#p83f310590d)" d="M 90 109.034761 
L 648 109.034761 
" style="fill:none;stroke:#b0b0b0;stroke-linecap:square;stroke-width:0.8;"/>
     </g>
     <g id="line2d_24">
      <g>
       <use style="stroke:#000000;stroke-width:0.8;" x="90" xlink:href="#m5a97e3708f" y="109.034761"/>
      </g>
     </g>
     <g id="text_13">
      <!-- −0.8 -->
      <g transform="translate(58.717187 112.83398)scale(0.1 -0.1)">
       <use xlink:href="#DejaVuSans-8722"/>
       <use x="83.789062" xlink:href="#DejaVuSans-48"/>
       <use x="147.412109" xlink:href="#DejaVuSans-46"/>
       <use x="179.199219" xlink:href="#DejaVuSans-56"/>
      </g>
     </g>
    </g>
    <g id="ytick_5">
     <g id="line2d_25">
      <path clip-path="url(#p83f310590d)" d="M 90 55.502439 
L 648 55.502439 
" style="fill:none;stroke:#b0b0b0;stroke-linecap:square;stroke-width:0.8;"/>
     </g>
     <g id="line2d_26">
      <g>
       <use style="stroke:#000000;stroke-width:0.8;" x="90" xlink:href="#m5a97e3708f" y="55.502439"/>
      </g>
     </g>
     <g id="text_14">
      <!-- −0.6 -->
      <g transform="translate(58.717187 59.301658)scale(0.1 -0.1)">
       <use xlink:href="#DejaVuSans-8722"/>
       <use x="83.789062" xlink:href="#DejaVuSans-48"/>
       <use x="147.412109" xlink:href="#DejaVuSans-46"/>
       <use x="179.199219" xlink:href="#DejaVuSans-54"/>
      </g>
     </g>
    </g>
    <g id="text_15">
     <!-- Episode Reward (Smoothed) -->
     <defs>
      <path id="DejaVuSans-32"/>
      <path d="M 44.390625 34.1875 
Q 47.5625 33.109375 50.5625 29.59375 
Q 53.5625 26.078125 56.59375 19.921875 
L 66.609375 0 
L 56 0 
L 46.6875 18.703125 
Q 43.0625 26.03125 39.671875 28.421875 
Q 36.28125 30.8125 30.421875 30.8125 
L 19.671875 30.8125 
L 19.671875 0 
L 9.8125 0 
L 9.8125 72.90625 
L 32.078125 72.90625 
Q 44.578125 72.90625 50.734375 67.671875 
Q 56.890625 62.453125 56.890625 51.90625 
Q 56.890625 45.015625 53.6875 40.46875 
Q 50.484375 35.9375 44.390625 34.1875 
z
M 19.671875 64.796875 
L 19.671875 38.921875 
L 32.078125 38.921875 
Q 39.203125 38.921875 42.84375 42.21875 
Q 46.484375 45.515625 46.484375 51.90625 
Q 46.484375 58.296875 42.84375 61.546875 
Q 39.203125 64.796875 32.078125 64.796875 
z
" id="DejaVuSans-82"/>
      <path d="M 4.203125 54.6875 
L 13.1875 54.6875 
L 24.421875 12.015625 
L 35.59375 54.6875 
L 46.1875 54.6875 
L 57.421875 12.015625 
L 68.609375 54.6875 
L 77.59375 54.6875 
L 63.28125 0 
L 52.6875 0 
L 40.921875 44.828125 
L 29.109375 0 
L 18.5 0 
z
" id="DejaVuSans-119"/>
      <path d="M 34.28125 27.484375 
Q 23.390625 27.484375 19.1875 25 
Q 14.984375 22.515625 14.984375 16.5 
Q 14.984375 11.71875 18.140625 8.90625 
Q 21.296875 6.109375 26.703125 6.109375 
Q 34.1875 6.109375 38.703125 11.40625 
Q 43.21875 16.703125 43.21875 25.484375 
L 43.21875 27.484375 
z
M 52.203125 31.203125 
L 52.203125 0 
L 43.21875 0 
L 43.21875 8.296875 
Q 40.140625 3.328125 35.546875 0.953125 
Q 30.953125 -1.421875 24.3125 -1.421875 
Q 15.921875 -1.421875 10.953125 3.296875 
Q 6 8.015625 6 15.921875 
Q 6 25.140625 12.171875 29.828125 
Q 18.359375 34.515625 30.609375 34.515625 
L 43.21875 34.515625 
L 43.21875 35.40625 
Q 43.21875 41.609375 39.140625 45 
Q 35.0625 48.390625 27.6875 48.390625 
Q 23 48.390625 18.546875 47.265625 
Q 14.109375 46.140625 10.015625 43.890625 
L 10.015625 52.203125 
Q 14.9375 54.109375 19.578125 55.046875 
Q 24.21875 56 28.609375 56 
Q 40.484375 56 46.34375 49.84375 
Q 52.203125 43.703125 52.203125 31.203125 
z
" id="DejaVuSans-97"/>
      <path d="M 41.109375 46.296875 
Q 39.59375 47.171875 37.8125 47.578125 
Q 36.03125 48 33.890625 48 
Q 26.265625 48 22.1875 43.046875 
Q 18.109375 38.09375 18.109375 28.8125 
L 18.109375 0 
L 9.078125 0 
L 9.078125 54.6875 
L 18.109375 54.6875 
L 18.109375 46.1875 
Q 20.953125 51.171875 25.484375 53.578125 
Q 30.03125 56 36.53125 56 
Q 37.453125 56 38.578125 55.875 
Q 39.703125 55.765625 41.0625 55.515625 
z
" id="DejaVuSans-114"/>
      <path d="M 31 75.875 
Q 24.46875 64.65625 21.28125 53.65625 
Q 18.109375 42.671875 18.109375 31.390625 
Q 18.109375 20.125 21.3125 9.0625 
Q 24.515625 -2 31 -13.1875 
L 23.1875 -13.1875 
Q 15.875 -1.703125 12.234375 9.375 
Q 8.59375 20.453125 8.59375 31.390625 
Q 8.59375 42.28125 12.203125 53.3125 
Q 15.828125 64.359375 23.1875 75.875 
z
" id="DejaVuSans-40"/>
      <path d="M 53.515625 70.515625 
L 53.515625 60.890625 
Q 47.90625 63.578125 42.921875 64.890625 
Q 37.9375 66.21875 33.296875 66.21875 
Q 25.25 66.21875 20.875 63.09375 
Q 16.5 59.96875 16.5 54.203125 
Q 16.5 49.359375 19.40625 46.890625 
Q 22.3125 44.4375 30.421875 42.921875 
L 36.375 41.703125 
Q 47.40625 39.59375 52.65625 34.296875 
Q 57.90625 29 57.90625 20.125 
Q 57.90625 9.515625 50.796875 4.046875 
Q 43.703125 -1.421875 29.984375 -1.421875 
Q 24.8125 -1.421875 18.96875 -0.25 
Q 13.140625 0.921875 6.890625 3.21875 
L 6.890625 13.375 
Q 12.890625 10.015625 18.65625 8.296875 
Q 24.421875 6.59375 29.984375 6.59375 
Q 38.421875 6.59375 43.015625 9.90625 
Q 47.609375 13.234375 47.609375 19.390625 
Q 47.609375 24.75 44.3125 27.78125 
Q 41.015625 30.8125 33.5 32.328125 
L 27.484375 33.5 
Q 16.453125 35.6875 11.515625 40.375 
Q 6.59375 45.0625 6.59375 53.421875 
Q 6.59375 63.09375 13.40625 68.65625 
Q 20.21875 74.21875 32.171875 74.21875 
Q 37.3125 74.21875 42.625 73.28125 
Q 47.953125 72.359375 53.515625 70.515625 
z
" id="DejaVuSans-83"/>
      <path d="M 52 44.1875 
Q 55.375 50.25 60.0625 53.125 
Q 64.75 56 71.09375 56 
Q 79.640625 56 84.28125 50.015625 
Q 88.921875 44.046875 88.921875 33.015625 
L 88.921875 0 
L 79.890625 0 
L 79.890625 32.71875 
Q 79.890625 40.578125 77.09375 44.375 
Q 74.3125 48.1875 68.609375 48.1875 
Q 61.625 48.1875 57.5625 43.546875 
Q 53.515625 38.921875 53.515625 30.90625 
L 53.515625 0 
L 44.484375 0 
L 44.484375 32.71875 
Q 44.484375 40.625 41.703125 44.40625 
Q 38.921875 48.1875 33.109375 48.1875 
Q 26.21875 48.1875 22.15625 43.53125 
Q 18.109375 38.875 18.109375 30.90625 
L 18.109375 0 
L 9.078125 0 
L 9.078125 54.6875 
L 18.109375 54.6875 
L 18.109375 46.1875 
Q 21.1875 51.21875 25.484375 53.609375 
Q 29.78125 56 35.6875 56 
Q 41.65625 56 45.828125 52.96875 
Q 50 49.953125 52 44.1875 
z
" id="DejaVuSans-109"/>
      <path d="M 18.3125 70.21875 
L 18.3125 54.6875 
L 36.8125 54.6875 
L 36.8125 47.703125 
L 18.3125 47.703125 
L 18.3125 18.015625 
Q 18.3125 11.328125 20.140625 9.421875 
Q 21.96875 7.515625 27.59375 7.515625 
L 36.8125 7.515625 
L 36.8125 0 
L 27.59375 0 
Q 17.1875 0 13.234375 3.875 
Q 9.28125 7.765625 9.28125 18.015625 
L 9.28125 47.703125 
L 2.6875 47.703125 
L 2.6875 54.6875 
L 9.28125 54.6875 
L 9.28125 70.21875 
z
" id="DejaVuSans-116"/>
      <path d="M 54.890625 33.015625 
L 54.890625 0 
L 45.90625 0 
L 45.90625 32.71875 
Q 45.90625 40.484375 42.875 44.328125 
Q 39.84375 48.1875 33.796875 48.1875 
Q 26.515625 48.1875 22.3125 43.546875 
Q 18.109375 38.921875 18.109375 30.90625 
L 18.109375 0 
L 9.078125 0 
L 9.078125 75.984375 
L 18.109375 75.984375 
L 18.109375 46.1875 
Q 21.34375 51.125 25.703125 53.5625 
Q 30.078125 56 35.796875 56 
Q 45.21875 56 50.046875 50.171875 
Q 54.890625 44.34375 54.890625 33.015625 
z
" id="DejaVuSans-104"/>
      <path d="M 8.015625 75.875 
L 15.828125 75.875 
Q 23.140625 64.359375 26.78125 53.3125 
Q 30.421875 42.28125 30.421875 31.390625 
Q 30.421875 20.453125 26.78125 9.375 
Q 23.140625 -1.703125 15.828125 -13.1875 
L 8.015625 -13.1875 
Q 14.5 -2 17.703125 9.0625 
Q 20.90625 20.125 20.90625 31.390625 
Q 20.90625 42.671875 17.703125 53.65625 
Q 14.5 64.65625 8.015625 75.875 
z
" id="DejaVuSans-41"/>
     </defs>
     <g transform="translate(52.6375 250.289844)rotate(-90)scale(0.1 -0.1)">
      <use xlink:href="#DejaVuSans-69"/>
      <use x="63.183594" xlink:href="#DejaVuSans-112"/>
      <use x="126.660156" xlink:href="#DejaVuSans-105"/>
      <use x="154.443359" xlink:href="#DejaVuSans-115"/>
      <use x="206.542969" xlink:href="#DejaVuSans-111"/>
      <use x="267.724609" xlink:href="#DejaVuSans-100"/>
      <use x="331.201172" xlink:href="#DejaVuSans-101"/>
      <use x="392.724609" xlink:href="#DejaVuSans-32"/>
      <use x="424.511719" xlink:href="#DejaVuSans-82"/>
      <use x="493.931641" xlink:href="#DejaVuSans-101"/>
      <use x="555.455078" xlink:href="#DejaVuSans-119"/>
      <use x="637.242188" xlink:href="#DejaVuSans-97"/>
      <use x="698.521484" xlink:href="#DejaVuSans-114"/>
      <use x="739.619141" xlink:href="#DejaVuSans-100"/>
      <use x="803.095703" xlink:href="#DejaVuSans-32"/>
      <use x="834.882812" xlink:href="#DejaVuSans-40"/>
      <use x="873.896484" xlink:href="#DejaVuSans-83"/>
      <use x="937.373047" xlink:href="#DejaVuSans-109"/>
      <use x="1034.785156" xlink:href="#DejaVuSans-111"/>
      <use x="1095.966797" xlink:href="#DejaVuSans-111"/>
      <use x="1157.148438" xlink:href="#DejaVuSans-116"/>
      <use x="1196.357422" xlink:href="#DejaVuSans-104"/>
      <use x="1259.736328" xlink:href="#DejaVuSans-101"/>
      <use x="1321.259766" xlink:href="#DejaVuSans-100"/>
      <use x="1384.736328" xlink:href="#DejaVuSans-41"/>
     </g>
    </g>
   </g>
   <g id="line2d_27">
    <path clip-path="url(#p83f310590d)" d="M 115.363636 273.0621 
L 115.702044 302.645455 
L 116.040451 88.248924 
L 116.378859 154.440464 
L 116.717266 58.401805 
L 117.055673 59.638762 
L 117.394081 274.130224 
L 117.732488 133.005554 
L 118.070896 130.804636 
L 118.409303 287.135482 
L 118.747711 198.936792 
L 119.086118 272.005632 
L 119.762933 81.742066 
L 120.10134 56.859824 
L 120.439748 69.614006 
L 121.116563 61.026002 
L 121.45497 64.10051 
L 121.793377 56.974992 
L 122.131785 67.64442 
L 122.470192 63.039097 
L 122.8086 60.334798 
L 123.147007 66.451519 
L 123.485415 56.951901 
L 123.823822 69.508105 
L 124.162229 59.767937 
L 124.500637 71.843179 
L 124.839044 74.741335 
L 125.177452 62.373548 
L 125.515859 69.853434 
L 125.854266 58.668525 
L 126.192674 65.90969 
L 126.531081 62.930722 
L 126.869489 61.397005 
L 127.207896 65.844895 
L 127.546304 65.147004 
L 127.884711 60.371514 
L 128.223118 72.715617 
L 128.561526 69.082554 
L 128.899933 68.853231 
L 129.238341 58.877137 
L 129.576748 63.727695 
L 129.915156 74.624994 
L 130.253563 69.10967 
L 130.59197 60.860415 
L 130.930378 78.034382 
L 131.268785 70.045725 
L 131.607193 66.318463 
L 131.9456 60.882289 
L 132.284008 66.276744 
L 132.622415 57.339018 
L 132.960822 65.484697 
L 133.29923 63.55823 
L 133.637637 66.476274 
L 133.976045 65.862457 
L 134.314452 59.807049 
L 134.652859 67.885308 
L 134.991267 65.88113 
L 135.329674 58.783532 
L 135.668082 68.9551 
L 136.006489 60.465286 
L 136.344897 62.725833 
L 136.683304 62.552806 
L 137.021711 74.059916 
L 137.360119 68.751998 
L 137.698526 67.008042 
L 138.036934 57.236616 
L 138.713749 74.3236 
L 139.052156 63.942639 
L 139.390563 58.562485 
L 139.728971 61.82274 
L 140.067378 62.989443 
L 140.405786 60.637107 
L 140.744193 60.474342 
L 141.082601 67.575339 
L 141.421008 66.082427 
L 141.759415 55.554545 
L 142.097823 55.789779 
L 142.43623 65.088406 
L 142.774638 61.787934 
L 143.113045 59.828185 
L 143.451452 59.449238 
L 143.78986 71.368552 
L 144.128267 70.69352 
L 144.466675 63.019436 
L 144.805082 61.067082 
L 145.14349 65.036317 
L 145.481897 61.336797 
L 145.820304 59.615338 
L 146.158712 64.42837 
L 146.497119 57.149827 
L 147.173934 66.700762 
L 147.512342 60.848316 
L 147.850749 61.118532 
L 148.189156 65.621735 
L 148.527564 63.734573 
L 148.865971 58.088494 
L 149.204379 67.469036 
L 149.542786 61.636552 
L 149.881194 58.700008 
L 150.219601 63.934332 
L 150.558008 92.073915 
L 151.234823 215.829535 
L 151.573231 88.458166 
L 151.911638 201.956759 
L 152.250045 92.610956 
L 152.588453 276.430373 
L 152.92686 59.834053 
L 153.265268 164.973144 
L 153.603675 89.979267 
L 153.942083 56.67452 
L 154.28049 71.433464 
L 154.618897 60.597838 
L 154.957305 63.608726 
L 155.295712 63.992671 
L 155.63412 67.711996 
L 155.972527 68.009268 
L 156.310935 67.776195 
L 156.649342 68.98179 
L 156.987749 69.155933 
L 157.326157 60.251353 
L 157.664564 66.081977 
L 158.002972 65.686103 
L 158.341379 73.853496 
L 158.679787 65.389464 
L 159.018194 63.992671 
L 159.356601 63.756116 
L 159.695009 64.807558 
L 160.033416 62.798619 
L 160.371824 58.722365 
L 160.710231 60.346267 
L 161.048638 59.867447 
L 161.387046 68.79754 
L 161.725453 59.038218 
L 162.063861 69.530617 
L 162.402268 62.064666 
L 162.740676 73.900992 
L 163.079083 61.640883 
L 163.41749 62.943732 
L 163.755898 66.738319 
L 164.094305 58.350178 
L 164.432713 63.992671 
L 164.77112 63.992671 
L 165.109528 67.519723 
L 165.447935 74.229671 
L 165.786342 63.992671 
L 166.12475 61.264945 
L 166.463157 66.079618 
L 166.801565 62.926114 
L 167.139972 63.992671 
L 167.47838 66.587958 
L 167.816787 75.953443 
L 168.155194 66.020845 
L 168.493602 68.920256 
L 168.832009 75.215283 
L 169.170417 63.992671 
L 169.508824 62.892932 
L 169.847231 69.054882 
L 170.185639 58.221182 
L 170.524046 63.992671 
L 171.200861 56.933905 
L 171.539269 63.992671 
L 171.877676 63.992671 
L 172.216083 62.013953 
L 172.554491 62.878252 
L 172.892898 68.06617 
L 173.569713 58.992015 
L 174.246528 65.593451 
L 174.584935 57.437218 
L 174.923343 61.981904 
L 175.26175 62.069291 
L 175.600158 65.168427 
L 175.938565 60.248852 
L 176.276973 59.096677 
L 176.61538 64.941719 
L 176.953787 68.011184 
L 177.292195 58.070249 
L 177.630602 60.865658 
L 177.96901 72.879979 
L 178.307417 61.94409 
L 178.645824 58.743766 
L 178.984232 65.442461 
L 179.322639 64.606606 
L 179.661047 61.084496 
L 179.999454 59.042723 
L 180.337862 72.689922 
L 180.676269 60.891174 
L 181.014676 68.131101 
L 181.353084 66.759691 
L 181.691491 59.492846 
L 182.029899 67.847457 
L 182.368306 59.606464 
L 182.706714 66.688486 
L 183.045121 68.119637 
L 183.383528 62.080125 
L 183.721936 63.019436 
L 184.060343 63.019436 
L 184.398751 59.805151 
L 184.737158 60.370667 
L 185.075566 62.018136 
L 185.413973 60.916413 
L 185.75238 63.019436 
L 186.090788 60.051809 
L 186.429195 63.019436 
L 187.10601 63.019436 
L 187.444417 59.974516 
L 187.782825 62.111439 
L 188.121232 56.459179 
L 188.45964 59.226498 
L 188.798047 63.023272 
L 189.136455 61.057107 
L 189.474862 60.017504 
L 190.151677 60.254997 
L 190.490084 64.617643 
L 190.828492 66.922329 
L 191.166899 62.111439 
L 191.843714 62.111439 
L 192.182121 59.944001 
L 192.520529 62.111439 
L 192.858936 66.953201 
L 193.197344 60.9548 
L 193.535751 63.986675 
L 193.874159 59.436164 
L 194.212566 68.737265 
L 194.550973 61.2453 
L 194.889381 61.2453 
L 195.227788 60.19031 
L 195.566196 70.375127 
L 195.904603 62.111439 
L 196.24301 56.874133 
L 196.581418 62.111439 
L 196.919825 61.2453 
L 197.258233 62.397262 
L 197.59664 60.167621 
L 197.935048 61.2453 
L 198.273455 59.618058 
L 198.611862 62.811157 
L 198.95027 60.599312 
L 199.288677 67.900384 
L 199.627085 59.654008 
L 199.965492 62.633243 
L 200.3039 59.74071 
L 200.642307 59.116591 
L 200.980714 58.801406 
L 201.319122 60.091128 
L 201.657529 57.565724 
L 201.995937 58.504389 
L 202.334344 60.548744 
L 202.672752 63.827082 
L 203.349566 57.617785 
L 203.687974 58.504389 
L 204.026381 59.739383 
L 204.364789 58.618048 
L 204.703196 58.990315 
L 205.041603 57.325866 
L 205.380011 61.790679 
L 205.718418 60.642491 
L 206.056826 62.692392 
L 206.395233 58.990315 
L 207.072048 59.921439 
L 207.410455 61.314937 
L 207.748863 63.234283 
L 208.08727 65.890529 
L 208.425678 86.89111 
L 209.102493 216.525439 
L 209.4409 81.697562 
L 209.779307 276.226475 
L 210.456122 83.959681 
L 210.79453 180.325257 
L 211.132937 146.283793 
L 211.471345 158.550465 
L 211.809752 69.828816 
L 212.148159 177.825243 
L 212.486567 99.583185 
L 212.824974 79.708886 
L 213.163382 157.172558 
L 213.501789 123.830665 
L 214.517011 200.215795 
L 214.855419 195.892657 
L 215.532234 128.795172 
L 215.870641 257.44871 
L 216.209048 112.018439 
L 216.547456 161.495655 
L 216.885863 159.665441 
L 217.224271 123.996543 
L 217.562678 141.250834 
L 217.901086 107.781767 
L 218.239493 152.282269 
L 218.5779 115.124939 
L 218.916308 167.701465 
L 219.254715 80.504244 
L 219.593123 160.998598 
L 219.93153 124.290436 
L 220.269938 141.252068 
L 220.608345 95.014527 
L 220.946752 134.73432 
L 221.28516 79.21059 
L 221.623567 178.902052 
L 221.961975 77.393647 
L 222.300382 158.684395 
L 223.315604 64.968398 
L 223.654012 175.923946 
L 223.992419 92.106759 
L 224.330827 86.305091 
L 224.669234 69.016839 
L 225.007641 72.861563 
L 225.346049 80.993846 
L 225.684456 143.064628 
L 226.022864 62.926523 
L 226.361271 63.129567 
L 226.699679 60.566267 
L 227.038086 65.606932 
L 227.376493 57.028697 
L 227.714901 60.566267 
L 228.053308 59.567726 
L 228.391716 61.286422 
L 228.730123 62.111439 
L 229.068531 62.111439 
L 229.406938 67.20494 
L 229.745345 62.111439 
L 230.083753 59.068126 
L 230.42216 68.737265 
L 230.760568 62.111439 
L 231.098975 58.961673 
L 231.437382 62.111439 
L 231.77579 63.458561 
L 232.114197 59.512907 
L 232.452605 62.111439 
L 232.791012 61.07407 
L 233.12942 67.189936 
L 233.467827 62.111439 
L 233.806234 62.111439 
L 234.144642 60.9548 
L 234.483049 62.111439 
L 234.821457 68.744604 
L 235.159864 61.286422 
L 235.498272 61.286422 
L 235.836679 66.296712 
L 236.175086 63.647068 
L 236.513494 57.889016 
L 236.851901 60.152747 
L 237.190309 61.286422 
L 237.528716 61.171276 
L 237.867124 70.7038 
L 238.205531 61.286422 
L 238.543938 61.286422 
L 238.882346 63.817036 
L 239.220753 63.019436 
L 239.559161 63.019436 
L 239.897568 57.492094 
L 240.574383 62.111439 
L 240.91279 63.019436 
L 241.251198 66.90702 
L 241.589605 56.820202 
L 241.928013 63.019436 
L 242.604827 60.760848 
L 242.943235 62.259325 
L 243.281642 61.286422 
L 243.958457 61.286422 
L 244.296865 65.55387 
L 244.635272 57.294791 
L 244.973679 61.286422 
L 245.312087 60.051363 
L 245.650494 60.566267 
L 245.988902 60.566267 
L 246.327309 59.480725 
L 246.665717 60.566267 
L 248.696161 60.566267 
L 249.034569 61.286422 
L 249.711383 61.286422 
L 250.049791 66.296712 
L 250.388198 66.410784 
L 250.726606 61.286422 
L 251.40342 61.286422 
L 251.741828 58.613861 
L 252.080235 63.019436 
L 252.75705 63.019436 
L 253.095458 61.841342 
L 253.433865 59.902152 
L 253.772272 63.019436 
L 254.11068 59.106641 
L 254.449087 63.019436 
L 254.787495 62.111439 
L 255.125902 60.651714 
L 255.46431 60.391205 
L 255.802717 63.019436 
L 256.141124 61.918127 
L 256.479532 61.286422 
L 256.817939 62.111439 
L 257.156347 59.825381 
L 257.494754 62.111439 
L 258.509976 62.111439 
L 258.848384 60.30023 
L 259.186791 63.019436 
L 259.525199 63.019436 
L 259.863606 67.20494 
L 260.202013 62.111439 
L 261.555643 62.111439 
L 261.894051 63.019436 
L 262.232458 61.07407 
L 262.570865 61.805435 
L 262.909273 60.353746 
L 263.24768 70.87811 
L 263.586088 60.566267 
L 264.60131 60.566267 
L 264.939717 60.104726 
L 265.278125 61.286422 
L 265.95494 61.286422 
L 266.293347 66.296712 
L 266.631755 61.286422 
L 267.985384 61.286422 
L 268.323792 66.375593 
L 268.662199 61.286422 
L 269.339014 61.286422 
L 269.677421 66.276124 
L 270.015829 61.286422 
L 270.354236 67.647725 
L 270.692644 66.02679 
L 271.031051 63.019436 
L 271.369458 67.881438 
L 271.707866 63.019436 
L 272.046273 63.019436 
L 272.384681 62.111439 
L 272.723088 63.019436 
L 273.061496 59.308045 
L 273.399903 63.019436 
L 273.73831 63.019436 
L 274.076718 62.111439 
L 274.415125 62.111439 
L 274.753533 67.881438 
L 275.09194 63.019436 
L 275.430348 60.448883 
L 275.768755 62.111439 
L 276.107162 62.111439 
L 276.44557 63.019436 
L 276.783977 62.111439 
L 277.460792 62.111439 
L 277.799199 67.707868 
L 278.137607 62.111439 
L 278.476014 59.267202 
L 278.814422 63.019436 
L 279.152829 63.019436 
L 279.491237 62.111439 
L 280.844866 62.111439 
L 281.183274 63.019436 
L 281.521681 67.258567 
L 281.860089 61.286422 
L 282.198496 59.800447 
L 282.536903 60.566267 
L 283.552126 60.566267 
L 283.890533 62.151915 
L 284.567348 60.566267 
L 284.905755 60.566267 
L 285.244163 62.151915 
L 285.58257 61.286422 
L 285.920978 66.255374 
L 286.259385 61.286422 
L 286.9362 61.286422 
L 287.274607 64.741467 
L 287.613015 61.286422 
L 288.628237 61.286422 
L 288.966644 59.406982 
L 289.305052 61.82274 
L 289.643459 61.286422 
L 289.981867 60.44533 
L 290.320274 61.286422 
L 290.658682 61.286422 
L 290.997089 59.188636 
L 291.335496 62.111439 
L 291.673904 62.090761 
L 292.012311 61.286422 
L 292.689126 61.286422 
L 293.027534 60.484283 
L 293.365941 64.870599 
L 293.704348 66.780937 
L 294.042756 61.286422 
L 294.381163 61.286422 
L 294.719571 61.897016 
L 295.057978 60.142162 
L 295.396385 67.090411 
L 295.734793 61.286422 
L 296.0732 60.566267 
L 296.750015 60.673783 
L 298.78046 60.673783 
L 299.118867 61.370765 
L 299.457275 60.673783 
L 299.795682 60.673783 
L 300.134089 61.183899 
L 303.179756 61.183899 
L 303.518164 61.519631 
L 303.856571 60.335309 
L 304.194978 61.183899 
L 304.533386 61.183899 
L 304.871793 70.92502 
L 305.210201 61.183899 
L 305.548608 61.183899 
L 305.887016 59.271706 
L 306.225423 61.183899 
L 307.91746 61.183899 
L 308.255868 60.432721 
L 308.594275 57.568845 
L 308.932682 60.969533 
L 309.27109 61.669498 
L 309.609497 61.183899 
L 309.947905 61.570981 
L 310.286312 61.183899 
L 310.62472 61.570981 
L 310.963127 61.183899 
L 311.301534 61.570981 
L 311.639942 57.568845 
L 311.978349 62.138136 
L 312.316757 64.682773 
L 312.655164 57.568845 
L 312.993571 61.183899 
L 313.331979 66.043895 
L 313.670386 61.570981 
L 314.347201 61.570981 
L 314.685609 59.942804 
L 315.024016 61.570981 
L 315.700831 61.570981 
L 316.039238 59.942804 
L 316.377646 63.739623 
L 317.054461 59.942804 
L 317.731275 68.179384 
L 318.069683 63.739623 
L 318.40809 62.461578 
L 318.746498 63.133014 
L 319.084905 61.570981 
L 319.423313 64.854361 
L 320.100127 64.854361 
L 320.438535 67.740628 
L 320.776942 55.900995 
L 321.11535 71.314251 
L 321.453757 61.651951 
L 321.792164 61.651951 
L 322.130572 63.217365 
L 322.468979 61.651951 
L 322.807387 61.651951 
L 323.145794 63.217365 
L 323.484202 61.651951 
L 324.161016 61.651951 
L 325.176239 77.930657 
L 325.514646 79.92215 
L 325.853054 92.302735 
L 326.191461 134.499724 
L 326.529868 85.935052 
L 326.868276 71.663304 
L 327.206683 152.070034 
L 327.545091 80.393454 
L 327.883498 105.162337 
L 328.221906 78.825628 
L 328.560313 92.917 
L 328.89872 92.039155 
L 329.237128 101.166707 
L 329.575535 93.975975 
L 329.913943 105.559149 
L 330.25235 77.046881 
L 330.590757 65.021151 
L 330.929165 135.506292 
L 331.267572 66.23653 
L 331.60598 71.904639 
L 331.944387 155.644695 
L 332.282795 110.384876 
L 332.621202 136.614258 
L 332.959609 255.29092 
L 333.636424 71.038441 
L 333.974832 139.218072 
L 334.313239 96.127689 
L 334.651647 100.346136 
L 334.990054 148.095811 
L 335.328461 112.967579 
L 335.666869 124.974272 
L 336.005276 90.965731 
L 336.343684 147.988092 
L 336.682091 77.177494 
L 337.020499 92.983459 
L 337.358906 65.850522 
L 337.697313 169.026285 
L 338.035721 78.307015 
L 338.374128 184.160597 
L 338.712536 227.827121 
L 339.050943 198.479588 
L 339.38935 224.589113 
L 339.727758 147.316393 
L 340.066165 142.208215 
L 340.404573 96.277907 
L 340.74298 123.713431 
L 341.081388 86.913698 
L 341.419795 90.345697 
L 341.758202 90.437295 
L 342.09661 102.339356 
L 342.435017 84.726226 
L 342.773425 141.222083 
L 343.111832 133.187729 
L 343.45024 163.878452 
L 343.788647 86.51075 
L 344.127054 140.889972 
L 344.465462 170.990367 
L 344.803869 154.076358 
L 345.142277 259.047245 
L 345.480684 186.824813 
L 345.819092 148.897805 
L 346.157499 143.499862 
L 346.495906 148.897805 
L 346.834314 226.630831 
L 347.172721 226.085653 
L 347.511129 112.285853 
L 347.849536 109.911039 
L 348.526351 67.127821 
L 348.864758 64.80377 
L 349.203166 57.084498 
L 349.541573 57.568845 
L 349.879981 60.336608 
L 350.218388 60.336608 
L 350.895203 63.992671 
L 351.23361 61.963184 
L 351.572018 63.992671 
L 351.910425 61.963184 
L 352.248833 63.992671 
L 352.58724 61.963184 
L 352.925647 61.963184 
L 353.264055 63.992671 
L 353.602462 61.963184 
L 353.94087 61.963184 
L 354.279277 63.019436 
L 354.956092 63.019436 
L 355.294499 62.090761 
L 355.632907 62.111439 
L 355.971314 63.992671 
L 356.309722 62.111439 
L 356.648129 63.019436 
L 356.986536 63.019436 
L 357.324944 62.111439 
L 357.663351 63.992671 
L 358.001759 62.111439 
L 358.340166 63.019436 
L 358.678574 63.019436 
L 359.016981 62.111439 
L 359.355388 63.019436 
L 359.693796 62.111439 
L 360.032203 63.019436 
L 360.370611 62.111439 
L 360.709018 63.992671 
L 361.047426 62.111439 
L 361.385833 62.111439 
L 361.72424 60.020902 
L 362.062648 63.992671 
L 362.739463 62.111439 
L 363.07787 63.019436 
L 363.416278 62.111439 
L 363.754685 63.019436 
L 364.093092 60.962925 
L 364.4315 63.992671 
L 364.769907 62.111439 
L 365.785129 62.111439 
L 366.123537 63.019436 
L 366.461944 62.111439 
L 366.800352 63.019436 
L 367.138759 62.111439 
L 367.477167 62.111439 
L 367.815574 63.019436 
L 368.153981 62.111439 
L 368.492389 62.111439 
L 368.830796 63.019436 
L 369.169204 62.111439 
L 369.507611 62.111439 
L 369.846019 63.019436 
L 370.184426 62.111439 
L 370.522833 62.111439 
L 370.861241 63.019436 
L 371.199648 62.111439 
L 371.538056 62.111439 
L 371.876463 63.019436 
L 372.214871 62.111439 
L 372.553278 62.111439 
L 372.891685 63.019436 
L 373.230093 62.111439 
L 373.5685 62.111439 
L 373.906908 63.019436 
L 374.245315 62.111439 
L 374.583722 60.041513 
L 374.92213 68.011184 
L 375.260537 63.019436 
L 375.598945 62.111439 
L 375.937352 62.111439 
L 376.27576 59.471137 
L 376.614167 63.992671 
L 377.290982 62.111439 
L 380.336649 62.111439 
L 380.675056 63.019436 
L 381.013464 62.111439 
L 382.028686 62.111439 
L 382.367093 63.019436 
L 382.705501 62.111439 
L 383.382315 62.111439 
L 383.720723 63.019436 
L 384.05913 67.079509 
L 384.397538 63.019436 
L 384.735945 62.111439 
L 391.504094 62.111439 
L 391.842501 63.019436 
L 392.180908 62.111439 
L 394.54976 62.111439 
L 394.888168 63.019436 
L 395.226575 62.111439 
L 395.90339 62.111439 
L 396.241798 59.146038 
L 396.580205 63.992671 
L 397.25702 62.111439 
L 400.302687 62.111439 
L 400.641094 60.521709 
L 400.979501 62.111439 
L 402.333131 62.111439 
L 402.671539 60.566267 
L 409.10128 60.521709 
L 409.439687 63.019436 
L 409.778094 63.019436 
L 410.116502 60.521709 
L 410.454909 63.019436 
L 410.793317 60.521709 
L 411.131724 63.019436 
L 411.470132 60.521709 
L 411.808539 63.019436 
L 412.146946 60.521709 
L 412.485354 63.019436 
L 412.823761 60.521709 
L 413.162169 62.090761 
L 413.500576 60.566267 
L 417.899873 60.521709 
L 418.23828 62.090761 
L 418.576687 62.090761 
L 418.915095 60.521709 
L 419.253502 62.090761 
L 419.59191 62.090761 
L 419.930317 60.521709 
L 420.268725 62.090761 
L 420.607132 60.521709 
L 420.945539 62.090761 
L 421.283947 60.521709 
L 421.622354 62.090761 
L 421.960762 60.521709 
L 422.299169 62.090761 
L 422.637577 60.521709 
L 422.975984 62.090761 
L 423.314391 60.566267 
L 426.360058 60.521709 
L 426.698466 62.090761 
L 427.036873 62.090761 
L 427.37528 60.521709 
L 427.713688 62.090761 
L 428.052095 60.521709 
L 428.390503 62.090761 
L 428.72891 60.521709 
L 429.067318 62.090761 
L 429.405725 60.521709 
L 429.744132 62.090761 
L 430.08254 60.566267 
L 432.789799 60.521709 
L 433.128207 62.090761 
L 433.466614 62.090761 
L 433.805022 60.521709 
L 434.143429 62.090761 
L 434.481836 60.521709 
L 434.820244 62.090761 
L 435.158651 60.521709 
L 435.497059 62.090761 
L 435.835466 60.566267 
L 437.527503 60.566267 
L 437.865911 59.92719 
L 438.204318 60.521709 
L 438.542725 60.521709 
L 438.881133 62.090761 
L 439.21954 62.090761 
L 439.557948 60.521709 
L 439.896355 62.090761 
L 440.234763 60.521709 
L 440.57317 62.090761 
L 440.911577 60.521709 
L 441.249985 62.090761 
L 441.588392 60.521709 
L 441.9268 60.521709 
L 442.265207 62.090761 
L 442.603615 60.566267 
L 444.295652 60.521709 
L 444.634059 56.722387 
L 444.972466 62.090761 
L 445.649281 62.090761 
L 445.987689 60.521709 
L 447.002911 60.566267 
L 448.356541 60.521709 
L 448.694948 62.090761 
L 449.033356 60.521709 
L 449.371763 62.090761 
L 449.71017 60.521709 
L 450.048578 62.090761 
L 450.386985 60.566267 
L 452.41743 60.474686 
L 452.755837 62.090761 
L 453.094245 62.090761 
L 453.432652 60.40491 
L 453.771059 62.090761 
L 454.109467 62.090761 
L 454.447874 60.40491 
L 454.786282 62.090761 
L 455.124689 60.40491 
L 455.463097 62.090761 
L 455.801504 60.40491 
L 456.139911 62.090761 
L 456.478319 60.40491 
L 456.816726 62.090761 
L 457.155134 60.40491 
L 457.493541 62.090761 
L 457.831949 60.40491 
L 458.170356 62.090761 
L 458.508763 60.40491 
L 458.847171 62.090761 
L 459.185578 60.40491 
L 459.523986 62.090761 
L 459.862393 60.40491 
L 460.200801 62.090761 
L 460.539208 60.40491 
L 460.877615 62.090761 
L 461.216023 60.40491 
L 461.55443 62.090761 
L 461.892838 60.40491 
L 462.231245 60.40491 
L 462.569652 62.090761 
L 462.90806 60.40491 
L 463.246467 62.090761 
L 463.584875 60.40491 
L 463.923282 62.090761 
L 464.26169 60.40491 
L 464.600097 60.40491 
L 464.938504 62.090761 
L 465.276912 60.40491 
L 465.615319 62.090761 
L 465.953727 60.40491 
L 466.292134 60.40491 
L 466.630542 62.090761 
L 466.968949 60.40491 
L 467.307356 62.090761 
L 467.645764 60.40491 
L 467.984171 60.40491 
L 468.322579 62.090761 
L 468.660986 60.40491 
L 468.999394 62.090761 
L 469.337801 60.40491 
L 469.676208 60.40491 
L 470.014616 62.090761 
L 470.353023 60.40491 
L 470.691431 62.090761 
L 471.029838 60.40491 
L 471.368245 60.40491 
L 471.706653 62.090761 
L 472.04506 60.40491 
L 472.383468 62.090761 
L 472.721875 60.40491 
L 473.060283 60.40491 
L 473.39869 62.090761 
L 473.737097 60.40491 
L 474.075505 60.40491 
L 474.413912 62.090761 
L 474.75232 60.40491 
L 475.090727 60.40491 
L 475.429135 62.090761 
L 475.767542 60.40491 
L 476.105949 60.40491 
L 476.444357 62.090761 
L 476.782764 60.40491 
L 477.121172 62.090761 
L 477.459579 60.40491 
L 477.797987 59.90764 
L 478.136394 62.090761 
L 478.474801 62.090761 
L 478.813209 60.40491 
L 479.151616 60.40491 
L 479.490024 59.90764 
L 479.828431 62.090761 
L 480.166838 62.090761 
L 480.505246 60.40491 
L 480.843653 59.90764 
L 481.182061 62.090761 
L 481.520468 60.40491 
L 481.858876 60.40491 
L 482.197283 59.90764 
L 482.53569 62.090761 
L 482.874098 60.40491 
L 483.212505 59.90764 
L 483.550913 62.090761 
L 483.88932 60.40491 
L 484.227728 59.90764 
L 484.566135 62.090761 
L 484.904542 60.521709 
L 485.24295 62.090761 
L 485.581357 59.90764 
L 485.919765 62.090761 
L 486.258172 60.521709 
L 486.59658 62.090761 
L 486.934987 59.90764 
L 487.273394 62.090761 
L 487.611802 59.90764 
L 487.950209 62.090761 
L 488.288617 60.521709 
L 488.627024 62.090761 
L 488.965431 59.90764 
L 489.303839 62.090761 
L 489.642246 59.90764 
L 489.980654 60.521709 
L 490.319061 62.090761 
L 490.657469 59.90764 
L 490.995876 62.090761 
L 491.334283 59.90764 
L 491.672691 60.521709 
L 492.011098 62.090761 
L 492.349506 59.90764 
L 492.687913 62.090761 
L 493.026321 59.90764 
L 493.364728 60.521709 
L 493.703135 62.090761 
L 494.041543 59.90764 
L 494.37995 62.090761 
L 494.718358 60.521709 
L 495.056765 62.090761 
L 495.395173 59.90764 
L 495.73358 60.521709 
L 496.071987 62.090761 
L 496.410395 62.090761 
L 496.748802 59.90764 
L 497.08721 60.566267 
L 497.425617 62.090761 
L 497.764025 60.521709 
L 498.102432 62.090761 
L 498.440839 60.521709 
L 498.779247 62.090761 
L 499.117654 60.521709 
L 499.456062 62.090761 
L 499.794469 59.90764 
L 500.132876 60.521709 
L 500.471284 62.090761 
L 500.809691 62.090761 
L 501.148099 59.90764 
L 501.486506 60.566267 
L 501.824914 62.090761 
L 502.163321 60.521709 
L 502.501728 62.090761 
L 502.840136 60.521709 
L 503.178543 62.090761 
L 503.516951 60.521709 
L 503.855358 62.090761 
L 504.193766 60.566267 
L 504.532173 62.090761 
L 504.87058 60.521709 
L 505.208988 62.090761 
L 505.547395 60.521709 
L 505.885803 60.521709 
L 506.22421 62.090761 
L 506.562618 59.90764 
L 506.901025 60.566267 
L 507.239432 62.090761 
L 507.57784 60.521709 
L 507.916247 62.090761 
L 508.254655 60.521709 
L 508.593062 62.090761 
L 508.931469 68.744604 
L 509.269877 59.90764 
L 509.608284 60.566267 
L 509.946692 60.521709 
L 510.285099 62.090761 
L 510.623507 60.566267 
L 510.961914 62.090761 
L 511.300321 60.521709 
L 511.638729 60.521709 
L 511.977136 62.090761 
L 512.315544 60.521709 
L 512.653951 62.090761 
L 512.992359 60.566267 
L 513.330766 60.521709 
L 513.669173 62.090761 
L 514.007581 60.521709 
L 514.345988 62.090761 
L 514.684396 59.90764 
L 515.022803 60.566267 
L 515.361211 60.521709 
L 515.699618 62.090761 
L 516.038025 60.521709 
L 516.376433 60.566267 
L 516.71484 62.090761 
L 517.053248 60.521709 
L 517.391655 60.474686 
L 517.730062 62.090761 
L 518.06847 60.521709 
L 518.406877 62.090761 
L 518.745285 60.521709 
L 519.083692 62.090761 
L 519.4221 60.566267 
L 519.760507 60.474686 
L 520.098914 62.090761 
L 520.437322 59.522017 
L 520.775729 60.521709 
L 521.452544 60.521709 
L 521.790952 62.090761 
L 522.129359 60.566267 
L 523.144581 60.474686 
L 523.482989 62.090761 
L 523.821396 62.090761 
L 524.159804 60.521709 
L 524.498211 60.521709 
L 524.836618 62.090761 
L 525.175026 60.566267 
L 525.513433 60.474686 
L 525.851841 62.090761 
L 526.190248 60.474686 
L 526.528655 62.090761 
L 526.867063 60.521709 
L 527.20547 62.090761 
L 527.543878 60.521709 
L 527.882285 60.521709 
L 528.220693 62.090761 
L 528.5591 60.566267 
L 528.897507 60.474686 
L 529.235915 62.090761 
L 529.574322 60.521709 
L 529.91273 60.521709 
L 530.251137 62.090761 
L 530.589545 60.566267 
L 530.927952 60.474686 
L 531.266359 62.090761 
L 531.604767 60.474686 
L 531.943174 62.090761 
L 532.281582 60.521709 
L 532.619989 60.521709 
L 532.958397 62.090761 
L 533.296804 60.566267 
L 533.973619 60.521709 
L 534.312026 62.090761 
L 534.650434 60.566267 
L 534.988841 60.474686 
L 535.327248 62.090761 
L 535.665656 60.521709 
L 536.004063 60.521709 
L 536.342471 62.090761 
L 536.680878 60.566267 
L 537.019286 60.474686 
L 537.357693 62.090761 
L 537.6961 60.521709 
L 538.034508 60.566267 
L 538.372915 60.474686 
L 538.711323 62.090761 
L 539.04973 60.521709 
L 539.388138 60.521709 
L 539.726545 62.090761 
L 540.064952 60.566267 
L 540.40336 60.474686 
L 540.741767 62.090761 
L 541.080175 60.521709 
L 541.418582 60.521709 
L 541.75699 62.090761 
L 542.095397 60.566267 
L 543.110619 60.474686 
L 543.449027 62.090761 
L 543.787434 60.521709 
L 544.125841 60.521709 
L 544.464249 62.090761 
L 544.802656 60.566267 
L 545.817879 60.474686 
L 546.156286 62.090761 
L 546.494693 60.521709 
L 547.171508 60.521709 
L 547.509916 62.090761 
L 547.848323 60.566267 
L 548.186731 60.474686 
L 548.525138 60.521709 
L 548.863545 62.090761 
L 549.201953 60.521709 
L 549.54036 60.566267 
L 549.878768 60.474686 
L 550.217175 60.521709 
L 550.555583 62.090761 
L 550.89399 60.566267 
L 551.570805 60.521709 
L 551.909212 62.090761 
L 552.24762 60.566267 
L 553.262842 60.474686 
L 553.601249 60.521709 
L 553.939657 62.090761 
L 554.278064 60.566267 
L 555.293286 60.474686 
L 555.631694 60.521709 
L 555.970101 62.090761 
L 556.308509 60.566267 
L 556.646916 60.521709 
L 556.985324 62.090761 
L 557.323731 60.566267 
L 557.662138 60.474686 
L 558.338953 60.521709 
L 558.677361 62.090761 
L 559.015768 60.566267 
L 560.03099 60.521709 
L 560.369398 62.090761 
L 560.707805 60.566267 
L 561.046213 60.474686 
L 561.38462 60.566267 
L 562.061435 60.521709 
L 562.399842 62.090761 
L 562.73825 60.566267 
L 563.076657 60.474686 
L 563.415065 60.566267 
L 564.091879 60.521709 
L 564.430287 62.090761 
L 564.768694 60.566267 
L 565.783917 60.521709 
L 566.799139 60.566267 
L 567.137546 60.474686 
L 567.475954 60.566267 
L 567.814361 60.521709 
L 568.152769 62.090761 
L 568.491176 60.521709 
L 569.167991 60.566267 
L 570.183213 60.474686 
L 570.52162 60.521709 
L 570.860028 62.090761 
L 571.198435 60.566267 
L 571.536843 60.521709 
L 571.87525 57.028697 
L 572.213658 62.090761 
L 572.552065 62.090761 
L 572.890472 60.566267 
L 594.886955 60.521709 
L 595.225362 58.917524 
L 595.902177 60.566267 
L 597.594214 60.566267 
L 597.932622 59.90764 
L 598.271029 60.521709 
L 602.331918 60.566267 
L 602.670326 59.90764 
L 603.008733 60.521709 
L 603.347141 60.521709 
L 603.685548 58.917524 
L 604.362363 60.566267 
L 604.70077 60.566267 
L 605.039178 59.90764 
L 605.377585 60.566267 
L 606.392807 60.566267 
L 606.731215 59.90764 
L 607.069622 60.521709 
L 610.115289 60.521709 
L 610.453696 59.90764 
L 610.792104 60.521709 
L 611.130511 58.917524 
L 611.807326 60.566267 
L 612.145734 59.90764 
L 612.484141 60.566267 
L 613.160956 60.566267 
L 613.499363 59.90764 
L 613.837771 60.521709 
L 616.54503 60.521709 
L 616.883437 59.90764 
L 617.221845 58.917524 
L 617.560252 59.90764 
L 617.89866 59.90764 
L 618.237067 60.566267 
L 619.590697 60.521709 
L 619.929104 59.90764 
L 620.267512 60.521709 
L 621.282734 60.566267 
L 621.621141 60.521709 
L 621.959549 58.917524 
L 622.297956 59.90764 
L 622.636364 59.90764 
L 622.636364 59.90764 
" style="fill:none;stroke:#1f77b4;stroke-linecap:square;stroke-width:1.5;"/>
   </g>
   <g id="patch_3">
    <path d="M 90 315 
L 90 43.2 
" style="fill:none;stroke:#000000;stroke-linecap:square;stroke-linejoin:miter;stroke-width:0.8;"/>
   </g>
   <g id="patch_4">
    <path d="M 648 315 
L 648 43.2 
" style="fill:none;stroke:#000000;stroke-linecap:square;stroke-linejoin:miter;stroke-width:0.8;"/>
   </g>
   <g id="patch_5">
    <path d="M 90 315 
L 648 315 
" style="fill:none;stroke:#000000;stroke-linecap:square;stroke-linejoin:miter;stroke-width:0.8;"/>
   </g>
   <g id="patch_6">
    <path d="M 90 43.2 
L 648 43.2 
" style="fill:none;stroke:#000000;stroke-linecap:square;stroke-linejoin:miter;stroke-width:0.8;"/>
   </g>
   <g id="text_16">
    <!-- Episode Reward over Time (Smoothed over window size 1) -->
    <defs>
     <path d="M 2.984375 54.6875 
L 12.5 54.6875 
L 29.59375 8.796875 
L 46.6875 54.6875 
L 56.203125 54.6875 
L 35.6875 0 
L 23.484375 0 
z
" id="DejaVuSans-118"/>
     <path d="M -0.296875 72.90625 
L 61.375 72.90625 
L 61.375 64.59375 
L 35.5 64.59375 
L 35.5 0 
L 25.59375 0 
L 25.59375 64.59375 
L -0.296875 64.59375 
z
" id="DejaVuSans-84"/>
     <path d="M 54.890625 33.015625 
L 54.890625 0 
L 45.90625 0 
L 45.90625 32.71875 
Q 45.90625 40.484375 42.875 44.328125 
Q 39.84375 48.1875 33.796875 48.1875 
Q 26.515625 48.1875 22.3125 43.546875 
Q 18.109375 38.921875 18.109375 30.90625 
L 18.109375 0 
L 9.078125 0 
L 9.078125 54.6875 
L 18.109375 54.6875 
L 18.109375 46.1875 
Q 21.34375 51.125 25.703125 53.5625 
Q 30.078125 56 35.796875 56 
Q 45.21875 56 50.046875 50.171875 
Q 54.890625 44.34375 54.890625 33.015625 
z
" id="DejaVuSans-110"/>
     <path d="M 5.515625 54.6875 
L 48.1875 54.6875 
L 48.1875 46.484375 
L 14.40625 7.171875 
L 48.1875 7.171875 
L 48.1875 0 
L 4.296875 0 
L 4.296875 8.203125 
L 38.09375 47.515625 
L 5.515625 47.515625 
z
" id="DejaVuSans-122"/>
    </defs>
    <g transform="translate(192.289688 37.2)scale(0.12 -0.12)">
     <use xlink:href="#DejaVuSans-69"/>
     <use x="63.183594" xlink:href="#DejaVuSans-112"/>
     <use x="126.660156" xlink:href="#DejaVuSans-105"/>
     <use x="154.443359" xlink:href="#DejaVuSans-115"/>
     <use x="206.542969" xlink:href="#DejaVuSans-111"/>
     <use x="267.724609" xlink:href="#DejaVuSans-100"/>
     <use x="331.201172" xlink:href="#DejaVuSans-101"/>
     <use x="392.724609" xlink:href="#DejaVuSans-32"/>
     <use x="424.511719" xlink:href="#DejaVuSans-82"/>
     <use x="493.931641" xlink:href="#DejaVuSans-101"/>
     <use x="555.455078" xlink:href="#DejaVuSans-119"/>
     <use x="637.242188" xlink:href="#DejaVuSans-97"/>
     <use x="698.521484" xlink:href="#DejaVuSans-114"/>
     <use x="739.619141" xlink:href="#DejaVuSans-100"/>
     <use x="803.095703" xlink:href="#DejaVuSans-32"/>
     <use x="834.882812" xlink:href="#DejaVuSans-111"/>
     <use x="896.064453" xlink:href="#DejaVuSans-118"/>
     <use x="955.244141" xlink:href="#DejaVuSans-101"/>
     <use x="1016.767578" xlink:href="#DejaVuSans-114"/>
     <use x="1057.880859" xlink:href="#DejaVuSans-32"/>
     <use x="1089.667969" xlink:href="#DejaVuSans-84"/>
     <use x="1150.705078" xlink:href="#DejaVuSans-105"/>
     <use x="1178.488281" xlink:href="#DejaVuSans-109"/>
     <use x="1275.900391" xlink:href="#DejaVuSans-101"/>
     <use x="1337.423828" xlink:href="#DejaVuSans-32"/>
     <use x="1369.210938" xlink:href="#DejaVuSans-40"/>
     <use x="1408.224609" xlink:href="#DejaVuSans-83"/>
     <use x="1471.701172" xlink:href="#DejaVuSans-109"/>
     <use x="1569.113281" xlink:href="#DejaVuSans-111"/>
     <use x="1630.294922" xlink:href="#DejaVuSans-111"/>
     <use x="1691.476562" xlink:href="#DejaVuSans-116"/>
     <use x="1730.685547" xlink:href="#DejaVuSans-104"/>
     <use x="1794.064453" xlink:href="#DejaVuSans-101"/>
     <use x="1855.587891" xlink:href="#DejaVuSans-100"/>
     <use x="1919.064453" xlink:href="#DejaVuSans-32"/>
     <use x="1950.851562" xlink:href="#DejaVuSans-111"/>
     <use x="2012.033203" xlink:href="#DejaVuSans-118"/>
     <use x="2071.212891" xlink:href="#DejaVuSans-101"/>
     <use x="2132.736328" xlink:href="#DejaVuSans-114"/>
     <use x="2173.849609" xlink:href="#DejaVuSans-32"/>
     <use x="2205.636719" xlink:href="#DejaVuSans-119"/>
     <use x="2287.423828" xlink:href="#DejaVuSans-105"/>
     <use x="2315.207031" xlink:href="#DejaVuSans-110"/>
     <use x="2378.585938" xlink:href="#DejaVuSans-100"/>
     <use x="2442.0625" xlink:href="#DejaVuSans-111"/>
     <use x="2503.244141" xlink:href="#DejaVuSans-119"/>
     <use x="2585.03125" xlink:href="#DejaVuSans-32"/>
     <use x="2616.818359" xlink:href="#DejaVuSans-115"/>
     <use x="2668.917969" xlink:href="#DejaVuSans-105"/>
     <use x="2696.701172" xlink:href="#DejaVuSans-122"/>
     <use x="2749.191406" xlink:href="#DejaVuSans-101"/>
     <use x="2810.714844" xlink:href="#DejaVuSans-32"/>
     <use x="2842.501953" xlink:href="#DejaVuSans-49"/>
     <use x="2906.125" xlink:href="#DejaVuSans-41"/>
    </g>
   </g>
  </g>
 </g>
 <defs>
  <clipPath id="p83f310590d">
   <rect height="271.8" width="558" x="90" y="43.2"/>
  </clipPath>
 </defs>
</svg>
