<?xml version="1.0" encoding="utf-8" standalone="no"?>
<!DOCTYPE svg PUBLIC "-//W3C//DTD SVG 1.1//EN"
  "http://www.w3.org/Graphics/SVG/1.1/DTD/svg11.dtd">
<!-- Created with matplotlib (https://matplotlib.org/) -->
<svg height="360pt" version="1.1" viewBox="0 0 720 360" width="720pt" xmlns="http://www.w3.org/2000/svg" xmlns:xlink="http://www.w3.org/1999/xlink">
 <defs>
  <style type="text/css">
*{stroke-linecap:butt;stroke-linejoin:round;white-space:pre;}
  </style>
 </defs>
 <g id="figure_1">
  <g id="patch_1">
   <path d="M 0 360 
L 720 360 
L 720 0 
L 0 0 
z
" style="fill:#ffffff;"/>
  </g>
  <g id="axes_1">
   <g id="patch_2">
    <path d="M 90 315 
L 648 315 
L 648 43.2 
L 90 43.2 
z
" style="fill:#ffffff;"/>
   </g>
   <g id="matplotlib.axis_1">
    <g id="xtick_1">
     <g id="line2d_1">
      <path clip-path="url(#p40ca8c9b03)" d="M 115.363636 315 
L 115.363636 43.2 
" style="fill:none;stroke:#b0b0b0;stroke-linecap:square;stroke-width:0.8;"/>
     </g>
     <g id="line2d_2">
      <defs>
       <path d="M 0 0 
L 0 3.5 
" id="mc89ac39056" style="stroke:#000000;stroke-width:0.8;"/>
      </defs>
      <g>
       <use style="stroke:#000000;stroke-width:0.8;" x="115.363636" xlink:href="#mc89ac39056" y="315"/>
      </g>
     </g>
     <g id="text_1">
      <!-- 0 -->
      <defs>
       <path d="M 31.78125 66.40625 
Q 24.171875 66.40625 20.328125 58.90625 
Q 16.5 51.421875 16.5 36.375 
Q 16.5 21.390625 20.328125 13.890625 
Q 24.171875 6.390625 31.78125 6.390625 
Q 39.453125 6.390625 43.28125 13.890625 
Q 47.125 21.390625 47.125 36.375 
Q 47.125 51.421875 43.28125 58.90625 
Q 39.453125 66.40625 31.78125 66.40625 
z
M 31.78125 74.21875 
Q 44.046875 74.21875 50.515625 64.515625 
Q 56.984375 54.828125 56.984375 36.375 
Q 56.984375 17.96875 50.515625 8.265625 
Q 44.046875 -1.421875 31.78125 -1.421875 
Q 19.53125 -1.421875 13.0625 8.265625 
Q 6.59375 17.96875 6.59375 36.375 
Q 6.59375 54.828125 13.0625 64.515625 
Q 19.53125 74.21875 31.78125 74.21875 
z
" id="DejaVuSans-48"/>
      </defs>
      <g transform="translate(112.182386 329.598437)scale(0.1 -0.1)">
       <use xlink:href="#DejaVuSans-48"/>
      </g>
     </g>
    </g>
    <g id="xtick_2">
     <g id="line2d_3">
      <path clip-path="url(#p40ca8c9b03)" d="M 183.045121 315 
L 183.045121 43.2 
" style="fill:none;stroke:#b0b0b0;stroke-linecap:square;stroke-width:0.8;"/>
     </g>
     <g id="line2d_4">
      <g>
       <use style="stroke:#000000;stroke-width:0.8;" x="183.045121" xlink:href="#mc89ac39056" y="315"/>
      </g>
     </g>
     <g id="text_2">
      <!-- 200 -->
      <defs>
       <path d="M 19.1875 8.296875 
L 53.609375 8.296875 
L 53.609375 0 
L 7.328125 0 
L 7.328125 8.296875 
Q 12.9375 14.109375 22.625 23.890625 
Q 32.328125 33.6875 34.8125 36.53125 
Q 39.546875 41.84375 41.421875 45.53125 
Q 43.3125 49.21875 43.3125 52.78125 
Q 43.3125 58.59375 39.234375 62.25 
Q 35.15625 65.921875 28.609375 65.921875 
Q 23.96875 65.921875 18.8125 64.3125 
Q 13.671875 62.703125 7.8125 59.421875 
L 7.8125 69.390625 
Q 13.765625 71.78125 18.9375 73 
Q 24.125 74.21875 28.421875 74.21875 
Q 39.75 74.21875 46.484375 68.546875 
Q 53.21875 62.890625 53.21875 53.421875 
Q 53.21875 48.921875 51.53125 44.890625 
Q 49.859375 40.875 45.40625 35.40625 
Q 44.1875 33.984375 37.640625 27.21875 
Q 31.109375 20.453125 19.1875 8.296875 
z
" id="DejaVuSans-50"/>
      </defs>
      <g transform="translate(173.501371 329.598437)scale(0.1 -0.1)">
       <use xlink:href="#DejaVuSans-50"/>
       <use x="63.623047" xlink:href="#DejaVuSans-48"/>
       <use x="127.246094" xlink:href="#DejaVuSans-48"/>
      </g>
     </g>
    </g>
    <g id="xtick_3">
     <g id="line2d_5">
      <path clip-path="url(#p40ca8c9b03)" d="M 250.726606 315 
L 250.726606 43.2 
" style="fill:none;stroke:#b0b0b0;stroke-linecap:square;stroke-width:0.8;"/>
     </g>
     <g id="line2d_6">
      <g>
       <use style="stroke:#000000;stroke-width:0.8;" x="250.726606" xlink:href="#mc89ac39056" y="315"/>
      </g>
     </g>
     <g id="text_3">
      <!-- 400 -->
      <defs>
       <path d="M 37.796875 64.3125 
L 12.890625 25.390625 
L 37.796875 25.390625 
z
M 35.203125 72.90625 
L 47.609375 72.90625 
L 47.609375 25.390625 
L 58.015625 25.390625 
L 58.015625 17.1875 
L 47.609375 17.1875 
L 47.609375 0 
L 37.796875 0 
L 37.796875 17.1875 
L 4.890625 17.1875 
L 4.890625 26.703125 
z
" id="DejaVuSans-52"/>
      </defs>
      <g transform="translate(241.182856 329.598437)scale(0.1 -0.1)">
       <use xlink:href="#DejaVuSans-52"/>
       <use x="63.623047" xlink:href="#DejaVuSans-48"/>
       <use x="127.246094" xlink:href="#DejaVuSans-48"/>
      </g>
     </g>
    </g>
    <g id="xtick_4">
     <g id="line2d_7">
      <path clip-path="url(#p40ca8c9b03)" d="M 318.40809 315 
L 318.40809 43.2 
" style="fill:none;stroke:#b0b0b0;stroke-linecap:square;stroke-width:0.8;"/>
     </g>
     <g id="line2d_8">
      <g>
       <use style="stroke:#000000;stroke-width:0.8;" x="318.40809" xlink:href="#mc89ac39056" y="315"/>
      </g>
     </g>
     <g id="text_4">
      <!-- 600 -->
      <defs>
       <path d="M 33.015625 40.375 
Q 26.375 40.375 22.484375 35.828125 
Q 18.609375 31.296875 18.609375 23.390625 
Q 18.609375 15.53125 22.484375 10.953125 
Q 26.375 6.390625 33.015625 6.390625 
Q 39.65625 6.390625 43.53125 10.953125 
Q 47.40625 15.53125 47.40625 23.390625 
Q 47.40625 31.296875 43.53125 35.828125 
Q 39.65625 40.375 33.015625 40.375 
z
M 52.59375 71.296875 
L 52.59375 62.3125 
Q 48.875 64.0625 45.09375 64.984375 
Q 41.3125 65.921875 37.59375 65.921875 
Q 27.828125 65.921875 22.671875 59.328125 
Q 17.53125 52.734375 16.796875 39.40625 
Q 19.671875 43.65625 24.015625 45.921875 
Q 28.375 48.1875 33.59375 48.1875 
Q 44.578125 48.1875 50.953125 41.515625 
Q 57.328125 34.859375 57.328125 23.390625 
Q 57.328125 12.15625 50.6875 5.359375 
Q 44.046875 -1.421875 33.015625 -1.421875 
Q 20.359375 -1.421875 13.671875 8.265625 
Q 6.984375 17.96875 6.984375 36.375 
Q 6.984375 53.65625 15.1875 63.9375 
Q 23.390625 74.21875 37.203125 74.21875 
Q 40.921875 74.21875 44.703125 73.484375 
Q 48.484375 72.75 52.59375 71.296875 
z
" id="DejaVuSans-54"/>
      </defs>
      <g transform="translate(308.86434 329.598437)scale(0.1 -0.1)">
       <use xlink:href="#DejaVuSans-54"/>
       <use x="63.623047" xlink:href="#DejaVuSans-48"/>
       <use x="127.246094" xlink:href="#DejaVuSans-48"/>
      </g>
     </g>
    </g>
    <g id="xtick_5">
     <g id="line2d_9">
      <path clip-path="url(#p40ca8c9b03)" d="M 386.089575 315 
L 386.089575 43.2 
" style="fill:none;stroke:#b0b0b0;stroke-linecap:square;stroke-width:0.8;"/>
     </g>
     <g id="line2d_10">
      <g>
       <use style="stroke:#000000;stroke-width:0.8;" x="386.089575" xlink:href="#mc89ac39056" y="315"/>
      </g>
     </g>
     <g id="text_5">
      <!-- 800 -->
      <defs>
       <path d="M 31.78125 34.625 
Q 24.75 34.625 20.71875 30.859375 
Q 16.703125 27.09375 16.703125 20.515625 
Q 16.703125 13.921875 20.71875 10.15625 
Q 24.75 6.390625 31.78125 6.390625 
Q 38.8125 6.390625 42.859375 10.171875 
Q 46.921875 13.96875 46.921875 20.515625 
Q 46.921875 27.09375 42.890625 30.859375 
Q 38.875 34.625 31.78125 34.625 
z
M 21.921875 38.8125 
Q 15.578125 40.375 12.03125 44.71875 
Q 8.5 49.078125 8.5 55.328125 
Q 8.5 64.0625 14.71875 69.140625 
Q 20.953125 74.21875 31.78125 74.21875 
Q 42.671875 74.21875 48.875 69.140625 
Q 55.078125 64.0625 55.078125 55.328125 
Q 55.078125 49.078125 51.53125 44.71875 
Q 48 40.375 41.703125 38.8125 
Q 48.828125 37.15625 52.796875 32.3125 
Q 56.78125 27.484375 56.78125 20.515625 
Q 56.78125 9.90625 50.3125 4.234375 
Q 43.84375 -1.421875 31.78125 -1.421875 
Q 19.734375 -1.421875 13.25 4.234375 
Q 6.78125 9.90625 6.78125 20.515625 
Q 6.78125 27.484375 10.78125 32.3125 
Q 14.796875 37.15625 21.921875 38.8125 
z
M 18.3125 54.390625 
Q 18.3125 48.734375 21.84375 45.5625 
Q 25.390625 42.390625 31.78125 42.390625 
Q 38.140625 42.390625 41.71875 45.5625 
Q 45.3125 48.734375 45.3125 54.390625 
Q 45.3125 60.0625 41.71875 63.234375 
Q 38.140625 66.40625 31.78125 66.40625 
Q 25.390625 66.40625 21.84375 63.234375 
Q 18.3125 60.0625 18.3125 54.390625 
z
" id="DejaVuSans-56"/>
      </defs>
      <g transform="translate(376.545825 329.598437)scale(0.1 -0.1)">
       <use xlink:href="#DejaVuSans-56"/>
       <use x="63.623047" xlink:href="#DejaVuSans-48"/>
       <use x="127.246094" xlink:href="#DejaVuSans-48"/>
      </g>
     </g>
    </g>
    <g id="xtick_6">
     <g id="line2d_11">
      <path clip-path="url(#p40ca8c9b03)" d="M 453.771059 315 
L 453.771059 43.2 
" style="fill:none;stroke:#b0b0b0;stroke-linecap:square;stroke-width:0.8;"/>
     </g>
     <g id="line2d_12">
      <g>
       <use style="stroke:#000000;stroke-width:0.8;" x="453.771059" xlink:href="#mc89ac39056" y="315"/>
      </g>
     </g>
     <g id="text_6">
      <!-- 1000 -->
      <defs>
       <path d="M 12.40625 8.296875 
L 28.515625 8.296875 
L 28.515625 63.921875 
L 10.984375 60.40625 
L 10.984375 69.390625 
L 28.421875 72.90625 
L 38.28125 72.90625 
L 38.28125 8.296875 
L 54.390625 8.296875 
L 54.390625 0 
L 12.40625 0 
z
" id="DejaVuSans-49"/>
      </defs>
      <g transform="translate(441.046059 329.598437)scale(0.1 -0.1)">
       <use xlink:href="#DejaVuSans-49"/>
       <use x="63.623047" xlink:href="#DejaVuSans-48"/>
       <use x="127.246094" xlink:href="#DejaVuSans-48"/>
       <use x="190.869141" xlink:href="#DejaVuSans-48"/>
      </g>
     </g>
    </g>
    <g id="xtick_7">
     <g id="line2d_13">
      <path clip-path="url(#p40ca8c9b03)" d="M 521.452544 315 
L 521.452544 43.2 
" style="fill:none;stroke:#b0b0b0;stroke-linecap:square;stroke-width:0.8;"/>
     </g>
     <g id="line2d_14">
      <g>
       <use style="stroke:#000000;stroke-width:0.8;" x="521.452544" xlink:href="#mc89ac39056" y="315"/>
      </g>
     </g>
     <g id="text_7">
      <!-- 1200 -->
      <g transform="translate(508.727544 329.598437)scale(0.1 -0.1)">
       <use xlink:href="#DejaVuSans-49"/>
       <use x="63.623047" xlink:href="#DejaVuSans-50"/>
       <use x="127.246094" xlink:href="#DejaVuSans-48"/>
       <use x="190.869141" xlink:href="#DejaVuSans-48"/>
      </g>
     </g>
    </g>
    <g id="xtick_8">
     <g id="line2d_15">
      <path clip-path="url(#p40ca8c9b03)" d="M 589.134029 315 
L 589.134029 43.2 
" style="fill:none;stroke:#b0b0b0;stroke-linecap:square;stroke-width:0.8;"/>
     </g>
     <g id="line2d_16">
      <g>
       <use style="stroke:#000000;stroke-width:0.8;" x="589.134029" xlink:href="#mc89ac39056" y="315"/>
      </g>
     </g>
     <g id="text_8">
      <!-- 1400 -->
      <g transform="translate(576.409029 329.598437)scale(0.1 -0.1)">
       <use xlink:href="#DejaVuSans-49"/>
       <use x="63.623047" xlink:href="#DejaVuSans-52"/>
       <use x="127.246094" xlink:href="#DejaVuSans-48"/>
       <use x="190.869141" xlink:href="#DejaVuSans-48"/>
      </g>
     </g>
    </g>
    <g id="text_9">
     <!-- Episode -->
     <defs>
      <path d="M 9.8125 72.90625 
L 55.90625 72.90625 
L 55.90625 64.59375 
L 19.671875 64.59375 
L 19.671875 43.015625 
L 54.390625 43.015625 
L 54.390625 34.71875 
L 19.671875 34.71875 
L 19.671875 8.296875 
L 56.78125 8.296875 
L 56.78125 0 
L 9.8125 0 
z
" id="DejaVuSans-69"/>
      <path d="M 18.109375 8.203125 
L 18.109375 -20.796875 
L 9.078125 -20.796875 
L 9.078125 54.6875 
L 18.109375 54.6875 
L 18.109375 46.390625 
Q 20.953125 51.265625 25.265625 53.625 
Q 29.59375 56 35.59375 56 
Q 45.5625 56 51.78125 48.09375 
Q 58.015625 40.1875 58.015625 27.296875 
Q 58.015625 14.40625 51.78125 6.484375 
Q 45.5625 -1.421875 35.59375 -1.421875 
Q 29.59375 -1.421875 25.265625 0.953125 
Q 20.953125 3.328125 18.109375 8.203125 
z
M 48.6875 27.296875 
Q 48.6875 37.203125 44.609375 42.84375 
Q 40.53125 48.484375 33.40625 48.484375 
Q 26.265625 48.484375 22.1875 42.84375 
Q 18.109375 37.203125 18.109375 27.296875 
Q 18.109375 17.390625 22.1875 11.75 
Q 26.265625 6.109375 33.40625 6.109375 
Q 40.53125 6.109375 44.609375 11.75 
Q 48.6875 17.390625 48.6875 27.296875 
z
" id="DejaVuSans-112"/>
      <path d="M 9.421875 54.6875 
L 18.40625 54.6875 
L 18.40625 0 
L 9.421875 0 
z
M 9.421875 75.984375 
L 18.40625 75.984375 
L 18.40625 64.59375 
L 9.421875 64.59375 
z
" id="DejaVuSans-105"/>
      <path d="M 44.28125 53.078125 
L 44.28125 44.578125 
Q 40.484375 46.53125 36.375 47.5 
Q 32.28125 48.484375 27.875 48.484375 
Q 21.1875 48.484375 17.84375 46.4375 
Q 14.5 44.390625 14.5 40.28125 
Q 14.5 37.15625 16.890625 35.375 
Q 19.28125 33.59375 26.515625 31.984375 
L 29.59375 31.296875 
Q 39.15625 29.25 43.1875 25.515625 
Q 47.21875 21.78125 47.21875 15.09375 
Q 47.21875 7.46875 41.1875 3.015625 
Q 35.15625 -1.421875 24.609375 -1.421875 
Q 20.21875 -1.421875 15.453125 -0.5625 
Q 10.6875 0.296875 5.421875 2 
L 5.421875 11.28125 
Q 10.40625 8.6875 15.234375 7.390625 
Q 20.0625 6.109375 24.8125 6.109375 
Q 31.15625 6.109375 34.5625 8.28125 
Q 37.984375 10.453125 37.984375 14.40625 
Q 37.984375 18.0625 35.515625 20.015625 
Q 33.0625 21.96875 24.703125 23.78125 
L 21.578125 24.515625 
Q 13.234375 26.265625 9.515625 29.90625 
Q 5.8125 33.546875 5.8125 39.890625 
Q 5.8125 47.609375 11.28125 51.796875 
Q 16.75 56 26.8125 56 
Q 31.78125 56 36.171875 55.265625 
Q 40.578125 54.546875 44.28125 53.078125 
z
" id="DejaVuSans-115"/>
      <path d="M 30.609375 48.390625 
Q 23.390625 48.390625 19.1875 42.75 
Q 14.984375 37.109375 14.984375 27.296875 
Q 14.984375 17.484375 19.15625 11.84375 
Q 23.34375 6.203125 30.609375 6.203125 
Q 37.796875 6.203125 41.984375 11.859375 
Q 46.1875 17.53125 46.1875 27.296875 
Q 46.1875 37.015625 41.984375 42.703125 
Q 37.796875 48.390625 30.609375 48.390625 
z
M 30.609375 56 
Q 42.328125 56 49.015625 48.375 
Q 55.71875 40.765625 55.71875 27.296875 
Q 55.71875 13.875 49.015625 6.21875 
Q 42.328125 -1.421875 30.609375 -1.421875 
Q 18.84375 -1.421875 12.171875 6.21875 
Q 5.515625 13.875 5.515625 27.296875 
Q 5.515625 40.765625 12.171875 48.375 
Q 18.84375 56 30.609375 56 
z
" id="DejaVuSans-111"/>
      <path d="M 45.40625 46.390625 
L 45.40625 75.984375 
L 54.390625 75.984375 
L 54.390625 0 
L 45.40625 0 
L 45.40625 8.203125 
Q 42.578125 3.328125 38.25 0.953125 
Q 33.9375 -1.421875 27.875 -1.421875 
Q 17.96875 -1.421875 11.734375 6.484375 
Q 5.515625 14.40625 5.515625 27.296875 
Q 5.515625 40.1875 11.734375 48.09375 
Q 17.96875 56 27.875 56 
Q 33.9375 56 38.25 53.625 
Q 42.578125 51.265625 45.40625 46.390625 
z
M 14.796875 27.296875 
Q 14.796875 17.390625 18.875 11.75 
Q 22.953125 6.109375 30.078125 6.109375 
Q 37.203125 6.109375 41.296875 11.75 
Q 45.40625 17.390625 45.40625 27.296875 
Q 45.40625 37.203125 41.296875 42.84375 
Q 37.203125 48.484375 30.078125 48.484375 
Q 22.953125 48.484375 18.875 42.84375 
Q 14.796875 37.203125 14.796875 27.296875 
z
" id="DejaVuSans-100"/>
      <path d="M 56.203125 29.59375 
L 56.203125 25.203125 
L 14.890625 25.203125 
Q 15.484375 15.921875 20.484375 11.0625 
Q 25.484375 6.203125 34.421875 6.203125 
Q 39.59375 6.203125 44.453125 7.46875 
Q 49.3125 8.734375 54.109375 11.28125 
L 54.109375 2.78125 
Q 49.265625 0.734375 44.1875 -0.34375 
Q 39.109375 -1.421875 33.890625 -1.421875 
Q 20.796875 -1.421875 13.15625 6.1875 
Q 5.515625 13.8125 5.515625 26.8125 
Q 5.515625 40.234375 12.765625 48.109375 
Q 20.015625 56 32.328125 56 
Q 43.359375 56 49.78125 48.890625 
Q 56.203125 41.796875 56.203125 29.59375 
z
M 47.21875 32.234375 
Q 47.125 39.59375 43.09375 43.984375 
Q 39.0625 48.390625 32.421875 48.390625 
Q 24.90625 48.390625 20.390625 44.140625 
Q 15.875 39.890625 15.1875 32.171875 
z
" id="DejaVuSans-101"/>
     </defs>
     <g transform="translate(349.3625 343.276563)scale(0.1 -0.1)">
      <use xlink:href="#DejaVuSans-69"/>
      <use x="63.183594" xlink:href="#DejaVuSans-112"/>
      <use x="126.660156" xlink:href="#DejaVuSans-105"/>
      <use x="154.443359" xlink:href="#DejaVuSans-115"/>
      <use x="206.542969" xlink:href="#DejaVuSans-111"/>
      <use x="267.724609" xlink:href="#DejaVuSans-100"/>
      <use x="331.201172" xlink:href="#DejaVuSans-101"/>
     </g>
    </g>
   </g>
   <g id="matplotlib.axis_2">
    <g id="ytick_1">
     <g id="line2d_17">
      <path clip-path="url(#p40ca8c9b03)" d="M 90 305.719394 
L 648 305.719394 
" style="fill:none;stroke:#b0b0b0;stroke-linecap:square;stroke-width:0.8;"/>
     </g>
     <g id="line2d_18">
      <defs>
       <path d="M 0 0 
L -3.5 0 
" id="m4723d6e3fd" style="stroke:#000000;stroke-width:0.8;"/>
      </defs>
      <g>
       <use style="stroke:#000000;stroke-width:0.8;" x="90" xlink:href="#m4723d6e3fd" y="305.719394"/>
      </g>
     </g>
     <g id="text_10">
      <!-- −1.8 -->
      <defs>
       <path d="M 10.59375 35.5 
L 73.1875 35.5 
L 73.1875 27.203125 
L 10.59375 27.203125 
z
" id="DejaVuSans-8722"/>
       <path d="M 10.6875 12.40625 
L 21 12.40625 
L 21 0 
L 10.6875 0 
z
" id="DejaVuSans-46"/>
      </defs>
      <g transform="translate(58.717187 309.518613)scale(0.1 -0.1)">
       <use xlink:href="#DejaVuSans-8722"/>
       <use x="83.789062" xlink:href="#DejaVuSans-49"/>
       <use x="147.412109" xlink:href="#DejaVuSans-46"/>
       <use x="179.199219" xlink:href="#DejaVuSans-56"/>
      </g>
     </g>
    </g>
    <g id="ytick_2">
     <g id="line2d_19">
      <path clip-path="url(#p40ca8c9b03)" d="M 90 259.765036 
L 648 259.765036 
" style="fill:none;stroke:#b0b0b0;stroke-linecap:square;stroke-width:0.8;"/>
     </g>
     <g id="line2d_20">
      <g>
       <use style="stroke:#000000;stroke-width:0.8;" x="90" xlink:href="#m4723d6e3fd" y="259.765036"/>
      </g>
     </g>
     <g id="text_11">
      <!-- −1.6 -->
      <g transform="translate(58.717187 263.564255)scale(0.1 -0.1)">
       <use xlink:href="#DejaVuSans-8722"/>
       <use x="83.789062" xlink:href="#DejaVuSans-49"/>
       <use x="147.412109" xlink:href="#DejaVuSans-46"/>
       <use x="179.199219" xlink:href="#DejaVuSans-54"/>
      </g>
     </g>
    </g>
    <g id="ytick_3">
     <g id="line2d_21">
      <path clip-path="url(#p40ca8c9b03)" d="M 90 213.810679 
L 648 213.810679 
" style="fill:none;stroke:#b0b0b0;stroke-linecap:square;stroke-width:0.8;"/>
     </g>
     <g id="line2d_22">
      <g>
       <use style="stroke:#000000;stroke-width:0.8;" x="90" xlink:href="#m4723d6e3fd" y="213.810679"/>
      </g>
     </g>
     <g id="text_12">
      <!-- −1.4 -->
      <g transform="translate(58.717187 217.609897)scale(0.1 -0.1)">
       <use xlink:href="#DejaVuSans-8722"/>
       <use x="83.789062" xlink:href="#DejaVuSans-49"/>
       <use x="147.412109" xlink:href="#DejaVuSans-46"/>
       <use x="179.199219" xlink:href="#DejaVuSans-52"/>
      </g>
     </g>
    </g>
    <g id="ytick_4">
     <g id="line2d_23">
      <path clip-path="url(#p40ca8c9b03)" d="M 90 167.856321 
L 648 167.856321 
" style="fill:none;stroke:#b0b0b0;stroke-linecap:square;stroke-width:0.8;"/>
     </g>
     <g id="line2d_24">
      <g>
       <use style="stroke:#000000;stroke-width:0.8;" x="90" xlink:href="#m4723d6e3fd" y="167.856321"/>
      </g>
     </g>
     <g id="text_13">
      <!-- −1.2 -->
      <g transform="translate(58.717187 171.65554)scale(0.1 -0.1)">
       <use xlink:href="#DejaVuSans-8722"/>
       <use x="83.789062" xlink:href="#DejaVuSans-49"/>
       <use x="147.412109" xlink:href="#DejaVuSans-46"/>
       <use x="179.199219" xlink:href="#DejaVuSans-50"/>
      </g>
     </g>
    </g>
    <g id="ytick_5">
     <g id="line2d_25">
      <path clip-path="url(#p40ca8c9b03)" d="M 90 121.901963 
L 648 121.901963 
" style="fill:none;stroke:#b0b0b0;stroke-linecap:square;stroke-width:0.8;"/>
     </g>
     <g id="line2d_26">
      <g>
       <use style="stroke:#000000;stroke-width:0.8;" x="90" xlink:href="#m4723d6e3fd" y="121.901963"/>
      </g>
     </g>
     <g id="text_14">
      <!-- −1.0 -->
      <g transform="translate(58.717187 125.701182)scale(0.1 -0.1)">
       <use xlink:href="#DejaVuSans-8722"/>
       <use x="83.789062" xlink:href="#DejaVuSans-49"/>
       <use x="147.412109" xlink:href="#DejaVuSans-46"/>
       <use x="179.199219" xlink:href="#DejaVuSans-48"/>
      </g>
     </g>
    </g>
    <g id="ytick_6">
     <g id="line2d_27">
      <path clip-path="url(#p40ca8c9b03)" d="M 90 75.947606 
L 648 75.947606 
" style="fill:none;stroke:#b0b0b0;stroke-linecap:square;stroke-width:0.8;"/>
     </g>
     <g id="line2d_28">
      <g>
       <use style="stroke:#000000;stroke-width:0.8;" x="90" xlink:href="#m4723d6e3fd" y="75.947606"/>
      </g>
     </g>
     <g id="text_15">
      <!-- −0.8 -->
      <g transform="translate(58.717187 79.746824)scale(0.1 -0.1)">
       <use xlink:href="#DejaVuSans-8722"/>
       <use x="83.789062" xlink:href="#DejaVuSans-48"/>
       <use x="147.412109" xlink:href="#DejaVuSans-46"/>
       <use x="179.199219" xlink:href="#DejaVuSans-56"/>
      </g>
     </g>
    </g>
    <g id="text_16">
     <!-- Episode Reward (Smoothed) -->
     <defs>
      <path id="DejaVuSans-32"/>
      <path d="M 44.390625 34.1875 
Q 47.5625 33.109375 50.5625 29.59375 
Q 53.5625 26.078125 56.59375 19.921875 
L 66.609375 0 
L 56 0 
L 46.6875 18.703125 
Q 43.0625 26.03125 39.671875 28.421875 
Q 36.28125 30.8125 30.421875 30.8125 
L 19.671875 30.8125 
L 19.671875 0 
L 9.8125 0 
L 9.8125 72.90625 
L 32.078125 72.90625 
Q 44.578125 72.90625 50.734375 67.671875 
Q 56.890625 62.453125 56.890625 51.90625 
Q 56.890625 45.015625 53.6875 40.46875 
Q 50.484375 35.9375 44.390625 34.1875 
z
M 19.671875 64.796875 
L 19.671875 38.921875 
L 32.078125 38.921875 
Q 39.203125 38.921875 42.84375 42.21875 
Q 46.484375 45.515625 46.484375 51.90625 
Q 46.484375 58.296875 42.84375 61.546875 
Q 39.203125 64.796875 32.078125 64.796875 
z
" id="DejaVuSans-82"/>
      <path d="M 4.203125 54.6875 
L 13.1875 54.6875 
L 24.421875 12.015625 
L 35.59375 54.6875 
L 46.1875 54.6875 
L 57.421875 12.015625 
L 68.609375 54.6875 
L 77.59375 54.6875 
L 63.28125 0 
L 52.6875 0 
L 40.921875 44.828125 
L 29.109375 0 
L 18.5 0 
z
" id="DejaVuSans-119"/>
      <path d="M 34.28125 27.484375 
Q 23.390625 27.484375 19.1875 25 
Q 14.984375 22.515625 14.984375 16.5 
Q 14.984375 11.71875 18.140625 8.90625 
Q 21.296875 6.109375 26.703125 6.109375 
Q 34.1875 6.109375 38.703125 11.40625 
Q 43.21875 16.703125 43.21875 25.484375 
L 43.21875 27.484375 
z
M 52.203125 31.203125 
L 52.203125 0 
L 43.21875 0 
L 43.21875 8.296875 
Q 40.140625 3.328125 35.546875 0.953125 
Q 30.953125 -1.421875 24.3125 -1.421875 
Q 15.921875 -1.421875 10.953125 3.296875 
Q 6 8.015625 6 15.921875 
Q 6 25.140625 12.171875 29.828125 
Q 18.359375 34.515625 30.609375 34.515625 
L 43.21875 34.515625 
L 43.21875 35.40625 
Q 43.21875 41.609375 39.140625 45 
Q 35.0625 48.390625 27.6875 48.390625 
Q 23 48.390625 18.546875 47.265625 
Q 14.109375 46.140625 10.015625 43.890625 
L 10.015625 52.203125 
Q 14.9375 54.109375 19.578125 55.046875 
Q 24.21875 56 28.609375 56 
Q 40.484375 56 46.34375 49.84375 
Q 52.203125 43.703125 52.203125 31.203125 
z
" id="DejaVuSans-97"/>
      <path d="M 41.109375 46.296875 
Q 39.59375 47.171875 37.8125 47.578125 
Q 36.03125 48 33.890625 48 
Q 26.265625 48 22.1875 43.046875 
Q 18.109375 38.09375 18.109375 28.8125 
L 18.109375 0 
L 9.078125 0 
L 9.078125 54.6875 
L 18.109375 54.6875 
L 18.109375 46.1875 
Q 20.953125 51.171875 25.484375 53.578125 
Q 30.03125 56 36.53125 56 
Q 37.453125 56 38.578125 55.875 
Q 39.703125 55.765625 41.0625 55.515625 
z
" id="DejaVuSans-114"/>
      <path d="M 31 75.875 
Q 24.46875 64.65625 21.28125 53.65625 
Q 18.109375 42.671875 18.109375 31.390625 
Q 18.109375 20.125 21.3125 9.0625 
Q 24.515625 -2 31 -13.1875 
L 23.1875 -13.1875 
Q 15.875 -1.703125 12.234375 9.375 
Q 8.59375 20.453125 8.59375 31.390625 
Q 8.59375 42.28125 12.203125 53.3125 
Q 15.828125 64.359375 23.1875 75.875 
z
" id="DejaVuSans-40"/>
      <path d="M 53.515625 70.515625 
L 53.515625 60.890625 
Q 47.90625 63.578125 42.921875 64.890625 
Q 37.9375 66.21875 33.296875 66.21875 
Q 25.25 66.21875 20.875 63.09375 
Q 16.5 59.96875 16.5 54.203125 
Q 16.5 49.359375 19.40625 46.890625 
Q 22.3125 44.4375 30.421875 42.921875 
L 36.375 41.703125 
Q 47.40625 39.59375 52.65625 34.296875 
Q 57.90625 29 57.90625 20.125 
Q 57.90625 9.515625 50.796875 4.046875 
Q 43.703125 -1.421875 29.984375 -1.421875 
Q 24.8125 -1.421875 18.96875 -0.25 
Q 13.140625 0.921875 6.890625 3.21875 
L 6.890625 13.375 
Q 12.890625 10.015625 18.65625 8.296875 
Q 24.421875 6.59375 29.984375 6.59375 
Q 38.421875 6.59375 43.015625 9.90625 
Q 47.609375 13.234375 47.609375 19.390625 
Q 47.609375 24.75 44.3125 27.78125 
Q 41.015625 30.8125 33.5 32.328125 
L 27.484375 33.5 
Q 16.453125 35.6875 11.515625 40.375 
Q 6.59375 45.0625 6.59375 53.421875 
Q 6.59375 63.09375 13.40625 68.65625 
Q 20.21875 74.21875 32.171875 74.21875 
Q 37.3125 74.21875 42.625 73.28125 
Q 47.953125 72.359375 53.515625 70.515625 
z
" id="DejaVuSans-83"/>
      <path d="M 52 44.1875 
Q 55.375 50.25 60.0625 53.125 
Q 64.75 56 71.09375 56 
Q 79.640625 56 84.28125 50.015625 
Q 88.921875 44.046875 88.921875 33.015625 
L 88.921875 0 
L 79.890625 0 
L 79.890625 32.71875 
Q 79.890625 40.578125 77.09375 44.375 
Q 74.3125 48.1875 68.609375 48.1875 
Q 61.625 48.1875 57.5625 43.546875 
Q 53.515625 38.921875 53.515625 30.90625 
L 53.515625 0 
L 44.484375 0 
L 44.484375 32.71875 
Q 44.484375 40.625 41.703125 44.40625 
Q 38.921875 48.1875 33.109375 48.1875 
Q 26.21875 48.1875 22.15625 43.53125 
Q 18.109375 38.875 18.109375 30.90625 
L 18.109375 0 
L 9.078125 0 
L 9.078125 54.6875 
L 18.109375 54.6875 
L 18.109375 46.1875 
Q 21.1875 51.21875 25.484375 53.609375 
Q 29.78125 56 35.6875 56 
Q 41.65625 56 45.828125 52.96875 
Q 50 49.953125 52 44.1875 
z
" id="DejaVuSans-109"/>
      <path d="M 18.3125 70.21875 
L 18.3125 54.6875 
L 36.8125 54.6875 
L 36.8125 47.703125 
L 18.3125 47.703125 
L 18.3125 18.015625 
Q 18.3125 11.328125 20.140625 9.421875 
Q 21.96875 7.515625 27.59375 7.515625 
L 36.8125 7.515625 
L 36.8125 0 
L 27.59375 0 
Q 17.1875 0 13.234375 3.875 
Q 9.28125 7.765625 9.28125 18.015625 
L 9.28125 47.703125 
L 2.6875 47.703125 
L 2.6875 54.6875 
L 9.28125 54.6875 
L 9.28125 70.21875 
z
" id="DejaVuSans-116"/>
      <path d="M 54.890625 33.015625 
L 54.890625 0 
L 45.90625 0 
L 45.90625 32.71875 
Q 45.90625 40.484375 42.875 44.328125 
Q 39.84375 48.1875 33.796875 48.1875 
Q 26.515625 48.1875 22.3125 43.546875 
Q 18.109375 38.921875 18.109375 30.90625 
L 18.109375 0 
L 9.078125 0 
L 9.078125 75.984375 
L 18.109375 75.984375 
L 18.109375 46.1875 
Q 21.34375 51.125 25.703125 53.5625 
Q 30.078125 56 35.796875 56 
Q 45.21875 56 50.046875 50.171875 
Q 54.890625 44.34375 54.890625 33.015625 
z
" id="DejaVuSans-104"/>
      <path d="M 8.015625 75.875 
L 15.828125 75.875 
Q 23.140625 64.359375 26.78125 53.3125 
Q 30.421875 42.28125 30.421875 31.390625 
Q 30.421875 20.453125 26.78125 9.375 
Q 23.140625 -1.703125 15.828125 -13.1875 
L 8.015625 -13.1875 
Q 14.5 -2 17.703125 9.0625 
Q 20.90625 20.125 20.90625 31.390625 
Q 20.90625 42.671875 17.703125 53.65625 
Q 14.5 64.65625 8.015625 75.875 
z
" id="DejaVuSans-41"/>
     </defs>
     <g transform="translate(52.6375 250.289844)rotate(-90)scale(0.1 -0.1)">
      <use xlink:href="#DejaVuSans-69"/>
      <use x="63.183594" xlink:href="#DejaVuSans-112"/>
      <use x="126.660156" xlink:href="#DejaVuSans-105"/>
      <use x="154.443359" xlink:href="#DejaVuSans-115"/>
      <use x="206.542969" xlink:href="#DejaVuSans-111"/>
      <use x="267.724609" xlink:href="#DejaVuSans-100"/>
      <use x="331.201172" xlink:href="#DejaVuSans-101"/>
      <use x="392.724609" xlink:href="#DejaVuSans-32"/>
      <use x="424.511719" xlink:href="#DejaVuSans-82"/>
      <use x="493.931641" xlink:href="#DejaVuSans-101"/>
      <use x="555.455078" xlink:href="#DejaVuSans-119"/>
      <use x="637.242188" xlink:href="#DejaVuSans-97"/>
      <use x="698.521484" xlink:href="#DejaVuSans-114"/>
      <use x="739.619141" xlink:href="#DejaVuSans-100"/>
      <use x="803.095703" xlink:href="#DejaVuSans-32"/>
      <use x="834.882812" xlink:href="#DejaVuSans-40"/>
      <use x="873.896484" xlink:href="#DejaVuSans-83"/>
      <use x="937.373047" xlink:href="#DejaVuSans-109"/>
      <use x="1034.785156" xlink:href="#DejaVuSans-111"/>
      <use x="1095.966797" xlink:href="#DejaVuSans-111"/>
      <use x="1157.148438" xlink:href="#DejaVuSans-116"/>
      <use x="1196.357422" xlink:href="#DejaVuSans-104"/>
      <use x="1259.736328" xlink:href="#DejaVuSans-101"/>
      <use x="1321.259766" xlink:href="#DejaVuSans-100"/>
      <use x="1384.736328" xlink:href="#DejaVuSans-41"/>
     </g>
    </g>
   </g>
   <g id="line2d_29">
    <path clip-path="url(#p40ca8c9b03)" d="M 115.363636 262.909456 
L 115.702044 116.826507 
L 116.040451 236.03664 
L 116.378859 201.116151 
L 116.717266 196.552653 
L 117.055673 110.067737 
L 117.394081 267.038798 
L 117.732488 81.104714 
L 118.070896 89.435169 
L 118.409303 176.281415 
L 118.747711 143.875878 
L 119.086118 297.343267 
L 119.424525 217.45138 
L 119.762933 245.948759 
L 120.10134 84.094651 
L 120.439748 147.910742 
L 121.116563 83.740832 
L 121.45497 92.901812 
L 121.793377 56.322624 
L 122.131785 75.891727 
L 122.470192 82.687776 
L 122.8086 75.136406 
L 123.147007 117.05436 
L 123.485415 108.425444 
L 123.823822 88.442698 
L 124.162229 122.001815 
L 124.500637 70.700056 
L 124.839044 140.931069 
L 125.177452 122.019625 
L 125.515859 116.397893 
L 125.854266 89.463945 
L 126.192674 73.306438 
L 126.531081 91.485923 
L 126.869489 75.270786 
L 127.546304 118.280976 
L 127.884711 57.694511 
L 128.223118 72.961032 
L 128.561526 71.189558 
L 128.899933 74.84069 
L 129.238341 104.882459 
L 129.576748 123.465065 
L 129.915156 159.522783 
L 130.253563 265.138124 
L 130.59197 234.393838 
L 130.930378 177.27805 
L 131.268785 177.387458 
L 131.607193 94.895214 
L 131.9456 121.536638 
L 132.284008 88.191698 
L 132.622415 121.313946 
L 132.960822 302.645455 
L 133.29923 76.020915 
L 133.637637 98.302237 
L 133.976045 77.455528 
L 134.314452 81.306044 
L 134.652859 106.59818 
L 134.991267 65.972363 
L 135.329674 87.894702 
L 135.668082 83.738556 
L 136.006489 114.424371 
L 136.344897 84.014175 
L 136.683304 83.738556 
L 137.021711 68.470575 
L 137.360119 121.668078 
L 137.698526 62.257421 
L 138.036934 90.002394 
L 138.375341 99.708579 
L 138.713749 88.969854 
L 139.052156 91.049278 
L 139.390563 100.639933 
L 139.728971 175.418415 
L 140.067378 73.7682 
L 140.405786 59.684142 
L 140.744193 88.53999 
L 141.082601 71.565808 
L 141.421008 109.338445 
L 141.759415 91.531215 
L 142.097823 66.749323 
L 142.43623 75.703865 
L 142.774638 55.554545 
L 143.113045 89.528353 
L 143.451452 87.531392 
L 143.78986 104.533833 
L 144.128267 89.447802 
L 144.466675 67.197138 
L 144.805082 85.674441 
L 145.14349 59.115128 
L 145.481897 101.384474 
L 145.820304 78.417162 
L 146.158712 90.190735 
L 146.497119 89.979708 
L 146.835527 70.505979 
L 147.173934 110.739588 
L 147.512342 68.094155 
L 147.850749 83.738556 
L 148.189156 66.828658 
L 148.527564 95.478161 
L 148.865971 141.656096 
L 149.204379 78.729252 
L 149.542786 77.681675 
L 149.881194 70.597666 
L 150.219601 97.71373 
L 150.558008 91.498511 
L 150.896416 113.827915 
L 151.573231 78.235994 
L 151.911638 90.632997 
L 152.250045 108.56001 
L 152.588453 63.503579 
L 152.92686 83.297282 
L 153.265268 114.495639 
L 153.603675 87.863233 
L 153.942083 74.284612 
L 154.28049 109.785331 
L 154.618897 60.786728 
L 154.957305 130.199016 
L 155.295712 71.549154 
L 155.63412 67.457942 
L 155.972527 110.431004 
L 156.310935 56.092143 
L 156.649342 116.913998 
L 156.987749 86.703074 
L 157.326157 98.113667 
L 157.664564 61.51096 
L 158.002972 73.981344 
L 158.341379 177.522242 
L 158.679787 176.654638 
L 159.018194 156.113989 
L 159.356601 90.897663 
L 159.695009 69.191183 
L 160.033416 166.821682 
L 160.371824 143.905118 
L 160.710231 85.899924 
L 161.048638 63.252708 
L 161.387046 85.743436 
L 161.725453 81.665158 
L 162.063861 66.692498 
L 162.402268 83.738556 
L 162.740676 86.856759 
L 163.079083 104.88965 
L 163.41749 67.806338 
L 163.755898 94.672823 
L 164.094305 67.283764 
L 164.432713 70.920201 
L 164.77112 83.738556 
L 165.109528 67.42385 
L 165.447935 83.738556 
L 165.786342 134.886423 
L 166.12475 61.447179 
L 166.463157 83.738556 
L 166.801565 133.2674 
L 167.139972 90.829173 
L 167.47838 84.144036 
L 167.816787 71.148364 
L 168.155194 68.094155 
L 168.493602 111.656449 
L 168.832009 65.999577 
L 169.170417 85.719911 
L 169.508824 70.156963 
L 169.847231 71.608819 
L 170.185639 83.738556 
L 170.524046 120.040727 
L 170.862454 69.209354 
L 171.200861 66.692498 
L 171.539269 89.377101 
L 171.877676 127.861461 
L 172.216083 69.811128 
L 172.554491 69.024401 
L 172.892898 57.740862 
L 173.569713 97.17827 
L 173.908121 66.668747 
L 174.246528 84.886538 
L 174.584935 67.407194 
L 174.923343 116.948684 
L 175.26175 61.572131 
L 175.938565 71.690253 
L 176.276973 120.388927 
L 176.61538 66.022714 
L 176.953787 57.915457 
L 177.292195 83.738556 
L 177.630602 134.811126 
L 177.96901 62.533126 
L 178.307417 93.921191 
L 178.645824 68.536759 
L 178.984232 70.032941 
L 179.322639 66.749323 
L 179.661047 83.738556 
L 179.999454 66.668747 
L 180.337862 83.738556 
L 180.676269 87.142572 
L 181.014676 57.915457 
L 181.353084 70.198913 
L 181.691491 70.080019 
L 182.029899 97.213806 
L 182.368306 74.880177 
L 182.706714 66.111384 
L 183.045121 75.045878 
L 183.383528 57.298001 
L 183.721936 134.811249 
L 184.060343 92.054221 
L 184.398751 93.359535 
L 184.737158 87.989393 
L 185.075566 97.492028 
L 185.413973 56.299995 
L 185.75238 86.425251 
L 186.090788 78.057809 
L 186.429195 86.076035 
L 186.767603 62.92901 
L 187.10601 66.749323 
L 187.444417 58.965598 
L 187.782825 119.11971 
L 188.121232 85.131347 
L 188.45964 89.364585 
L 188.798047 85.969704 
L 189.136455 85.659438 
L 189.474862 74.800372 
L 189.813269 56.299995 
L 190.151677 66.749323 
L 190.490084 87.005947 
L 190.828492 69.920414 
L 191.166899 114.573655 
L 191.505307 125.514804 
L 191.843714 121.062796 
L 192.182121 126.874026 
L 192.520529 158.225704 
L 192.858936 159.607879 
L 193.197344 230.017977 
L 193.535751 126.802062 
L 193.874159 120.846577 
L 194.212566 109.724551 
L 194.550973 282.146677 
L 194.889381 107.040226 
L 195.227788 231.047303 
L 195.566196 257.613687 
L 195.904603 268.151039 
L 196.24301 138.539825 
L 196.581418 98.386347 
L 196.919825 73.937373 
L 197.258233 68.539318 
L 197.59664 66.828658 
L 197.935048 67.137722 
L 198.611862 116.601159 
L 198.95027 72.269251 
L 199.288677 101.684571 
L 199.627085 99.708579 
L 199.965492 100.688809 
L 200.3039 85.452689 
L 200.642307 83.738556 
L 200.980714 71.563696 
L 201.319122 66.936038 
L 201.657529 83.738556 
L 201.995937 129.332238 
L 202.334344 83.738556 
L 202.672752 113.914755 
L 203.011159 83.738556 
L 203.349566 90.612032 
L 203.687974 89.534738 
L 204.026381 83.738556 
L 204.364789 82.829235 
L 204.703196 83.738556 
L 205.041603 90.612032 
L 205.380011 83.738556 
L 205.718418 124.274136 
L 206.056826 89.640567 
L 206.395233 90.713289 
L 206.733641 83.738556 
L 207.072048 67.03137 
L 207.410455 100.744026 
L 207.748863 100.876663 
L 208.08727 83.738556 
L 208.425678 83.738556 
L 208.764085 85.612143 
L 209.102493 83.738556 
L 209.4409 105.145542 
L 209.779307 67.197138 
L 210.117715 83.738556 
L 210.456122 85.161728 
L 210.79453 109.066828 
L 211.132937 58.557765 
L 211.809752 112.045371 
L 212.148159 83.738556 
L 212.486567 104.301345 
L 212.824974 83.738556 
L 213.163382 124.854919 
L 213.501789 79.289063 
L 214.178604 90.499402 
L 214.517011 83.738556 
L 215.193826 83.738556 
L 215.532234 68.094155 
L 215.870641 83.738556 
L 216.209048 83.738556 
L 216.547456 72.779883 
L 216.885863 115.763159 
L 217.224271 106.111236 
L 217.562678 83.738556 
L 217.901086 91.052464 
L 218.239493 90.713289 
L 218.5779 66.692498 
L 218.916308 116.329675 
L 219.254715 83.738556 
L 220.269938 83.738556 
L 220.608345 101.25806 
L 220.946752 101.04508 
L 221.28516 83.738556 
L 221.623567 83.738556 
L 221.961975 66.828658 
L 222.300382 96.562276 
L 222.638789 89.377101 
L 222.977197 88.381363 
L 223.315604 79.755485 
L 223.654012 83.738556 
L 223.992419 111.610716 
L 224.330827 83.738556 
L 224.669234 89.377101 
L 225.346049 116.401307 
L 225.684456 85.472672 
L 226.022864 66.828658 
L 226.361271 90.499402 
L 226.699679 83.738556 
L 228.053308 83.738556 
L 228.391716 105.145542 
L 228.730123 140.49066 
L 229.068531 74.51348 
L 229.406938 83.738556 
L 229.745345 83.738556 
L 230.083753 89.274368 
L 230.42216 83.738556 
L 230.760568 83.738556 
L 231.098975 59.797325 
L 231.77579 75.30846 
L 232.114197 83.738556 
L 232.452605 83.738556 
L 232.791012 112.203973 
L 233.12942 83.738556 
L 234.144642 83.738556 
L 234.483049 71.5334 
L 234.821457 94.786399 
L 235.159864 83.738556 
L 235.498272 89.377101 
L 235.836679 83.738556 
L 236.513494 83.738556 
L 236.851901 107.875629 
L 237.190309 89.196989 
L 237.528716 84.93334 
L 237.867124 83.738556 
L 238.205531 100.876663 
L 238.543938 83.738556 
L 238.882346 112.383493 
L 239.220753 68.587612 
L 239.559161 100.876663 
L 239.897568 68.857074 
L 240.574383 101.04508 
L 240.91279 68.587612 
L 241.251198 83.738556 
L 241.928013 83.738556 
L 242.26642 66.749323 
L 242.604827 83.738556 
L 242.943235 89.585127 
L 243.281642 83.738556 
L 243.62005 118.69327 
L 243.958457 69.819631 
L 244.296865 83.738556 
L 244.973679 83.738556 
L 245.312087 72.392736 
L 245.650494 83.738556 
L 246.327309 83.738556 
L 246.665717 67.15952 
L 247.004124 83.738556 
L 247.342531 109.215413 
L 247.680939 68.587612 
L 248.019346 90.814823 
L 248.357754 83.738556 
L 248.696161 112.038669 
L 249.034569 67.695373 
L 249.372976 112.668176 
L 249.711383 67.695373 
L 250.049791 83.738556 
L 250.726606 83.738556 
L 251.065013 90.327675 
L 251.40342 83.738556 
L 252.080235 83.738556 
L 252.418643 111.610716 
L 252.75705 67.695373 
L 253.433865 74.37371 
L 253.772272 69.186197 
L 254.11068 83.738556 
L 255.125902 83.738556 
L 255.46431 84.014175 
L 255.802717 89.534738 
L 256.141124 66.668747 
L 256.479532 83.738556 
L 256.817939 109.153135 
L 257.156347 75.546168 
L 257.494754 68.587612 
L 257.833162 69.899109 
L 258.171569 83.738556 
L 258.848384 83.738556 
L 259.186791 90.713289 
L 259.525199 68.587612 
L 259.863606 83.738556 
L 260.202013 89.255115 
L 260.540421 68.587612 
L 260.878828 83.738556 
L 261.217236 68.587612 
L 261.555643 110.273746 
L 261.894051 68.587612 
L 262.232458 101.384474 
L 262.570865 67.464433 
L 262.909273 68.587612 
L 263.24768 83.738556 
L 263.586088 68.587612 
L 263.924495 69.899109 
L 264.262903 83.738556 
L 264.60131 83.738556 
L 264.939717 68.587612 
L 265.278125 115.843982 
L 265.95494 68.587612 
L 266.631755 68.587612 
L 266.970162 83.738556 
L 267.308569 77.537664 
L 267.646977 101.861564 
L 267.985384 68.587612 
L 268.662199 68.587612 
L 269.000606 83.738556 
L 269.339014 68.587612 
L 270.015829 68.587612 
L 270.354236 83.738556 
L 270.692644 68.587612 
L 271.031051 68.587612 
L 271.369458 71.116175 
L 271.707866 111.406547 
L 272.046273 68.587612 
L 272.723088 68.587612 
L 273.061496 59.579637 
L 273.399903 103.780589 
L 273.73831 68.587612 
L 274.076718 75.767946 
L 274.415125 68.587612 
L 274.753533 67.712482 
L 275.09194 70.810954 
L 275.430348 83.738556 
L 275.768755 68.587612 
L 276.107162 68.587612 
L 276.44557 67.380242 
L 276.783977 108.483759 
L 277.122385 68.587612 
L 277.460792 68.587612 
L 277.799199 111.610716 
L 278.137607 66.957174 
L 278.476014 68.587612 
L 279.829644 68.587612 
L 280.168051 66.898942 
L 280.506459 68.587612 
L 280.844866 65.188569 
L 281.183274 83.738556 
L 281.521681 68.587612 
L 281.860089 68.587612 
L 282.198496 89.377101 
L 282.536903 68.587612 
L 282.875311 90.814823 
L 283.213718 68.587612 
L 283.552126 67.15952 
L 283.890533 68.587612 
L 286.259385 68.587612 
L 286.597792 82.198681 
L 286.9362 68.587612 
L 287.613015 68.587612 
L 287.951422 121.452583 
L 288.28983 66.957174 
L 288.628237 68.587612 
L 293.027534 68.587612 
L 293.365941 101.861564 
L 293.704348 66.957174 
L 294.042756 68.587612 
L 294.381163 105.525068 
L 294.719571 66.957174 
L 295.057978 68.587612 
L 296.0732 68.587612 
L 296.411608 111.610716 
L 296.750015 66.957174 
L 297.088423 68.587612 
L 297.42683 67.321077 
L 297.765237 72.544162 
L 298.103645 68.587612 
L 298.78046 68.587612 
L 299.118867 106.111236 
L 299.795682 72.392736 
L 300.134089 68.587612 
L 301.149312 68.587612 
L 301.487719 86.856759 
L 301.826127 68.587612 
L 303.179756 68.587612 
L 303.518164 67.695373 
L 303.856571 90.002394 
L 304.194978 69.919173 
L 304.533386 68.587612 
L 306.225423 68.587612 
L 306.56383 67.345827 
L 306.902238 68.587612 
L 307.240645 83.983071 
L 307.579053 68.587612 
L 308.255868 68.587612 
L 308.594275 67.197138 
L 308.932682 68.587612 
L 309.947905 68.587612 
L 310.286312 67.264306 
L 310.62472 89.237952 
L 310.963127 68.587612 
L 312.655164 68.587612 
L 312.993571 133.18417 
L 313.331979 68.834734 
L 313.670386 66.957174 
L 314.008794 68.587612 
L 316.039238 68.587612 
L 316.377646 70.099995 
L 316.716053 68.587612 
L 317.731275 68.587612 
L 318.069683 106.111236 
L 318.40809 66.957174 
L 318.746498 104.308245 
L 319.084905 81.259855 
L 319.423313 66.957174 
L 319.76172 66.957174 
L 320.100127 68.587612 
L 321.453757 68.587612 
L 321.792164 67.23206 
L 322.130572 68.587612 
L 325.176239 68.587612 
L 325.514646 67.42385 
L 325.853054 68.587612 
L 326.191461 68.587612 
L 326.529868 109.866711 
L 326.868276 104.605241 
L 327.206683 68.834734 
L 327.545091 62.00582 
L 327.883498 68.587612 
L 329.913943 68.587612 
L 330.25235 79.139893 
L 330.590757 68.587612 
L 334.313239 68.587612 
L 334.651647 68.857074 
L 334.990054 68.587612 
L 338.374128 68.587612 
L 338.712536 116.603113 
L 339.050943 92.79514 
L 339.38935 92.79514 
L 340.066165 66.668747 
L 340.404573 66.957174 
L 340.74298 68.587612 
L 345.480684 68.587612 
L 345.819092 67.03137 
L 346.157499 68.587612 
L 346.495906 67.03137 
L 346.834314 68.587612 
L 349.541573 68.587612 
L 350.218388 72.779883 
L 350.556795 83.738556 
L 350.895203 68.587612 
L 351.23361 90.987924 
L 351.572018 66.957174 
L 351.910425 66.957174 
L 352.248833 68.587612 
L 352.58724 66.957174 
L 352.925647 72.779883 
L 353.264055 83.738556 
L 353.602462 66.957174 
L 353.94087 68.587612 
L 354.279277 66.957174 
L 354.617685 67.15952 
L 354.956092 68.587612 
L 355.294499 66.957174 
L 355.632907 68.587612 
L 355.971314 66.957174 
L 356.309722 68.587612 
L 356.648129 66.957174 
L 356.986536 68.587612 
L 357.324944 67.264306 
L 357.663351 66.957174 
L 358.001759 66.957174 
L 358.340166 72.779883 
L 358.678574 72.779883 
L 359.016981 83.738556 
L 359.355388 66.957174 
L 359.693796 66.828658 
L 360.032203 72.779883 
L 360.709018 72.779883 
L 361.047426 83.738556 
L 361.385833 66.957174 
L 362.062648 66.957174 
L 362.401055 89.767778 
L 362.739463 66.957174 
L 367.815574 66.957174 
L 368.153981 56.596839 
L 368.492389 72.779883 
L 369.507611 72.779883 
L 369.846019 90.260318 
L 370.184426 66.957174 
L 371.538056 66.957174 
L 371.876463 90.499402 
L 372.214871 66.957174 
L 372.553278 66.957174 
L 372.891685 67.937919 
L 373.230093 66.957174 
L 375.937352 66.957174 
L 376.27576 65.870206 
L 376.614167 66.957174 
L 381.351871 66.957174 
L 381.690278 63.055975 
L 382.028686 66.957174 
L 404.025168 66.957174 
L 404.363576 89.489075 
L 404.701983 66.692498 
L 405.040391 66.957174 
L 405.717205 66.957174 
L 406.055613 60.096426 
L 406.39402 66.957174 
L 412.485354 66.957174 
L 412.823761 71.261231 
L 413.162169 66.957174 
L 421.283947 66.957174 
L 421.622354 71.007761 
L 421.960762 66.957174 
L 428.052095 66.957174 
L 428.390503 91.136077 
L 428.72891 66.668747 
L 429.067318 66.957174 
L 433.466614 66.957174 
L 433.805022 57.641413 
L 434.143429 66.957174 
L 435.497059 66.957174 
L 435.835466 69.278318 
L 436.173873 66.957174 
L 438.204318 66.957174 
L 438.542725 89.918226 
L 438.881133 66.668747 
L 439.21954 66.957174 
L 492.349506 66.957174 
L 492.687913 84.148824 
L 493.026321 66.957174 
L 501.486506 66.957174 
L 501.824914 59.911877 
L 502.163321 66.957174 
L 622.636364 66.957174 
L 622.636364 66.957174 
" style="fill:none;stroke:#1f77b4;stroke-linecap:square;stroke-width:1.5;"/>
   </g>
   <g id="patch_3">
    <path d="M 90 315 
L 90 43.2 
" style="fill:none;stroke:#000000;stroke-linecap:square;stroke-linejoin:miter;stroke-width:0.8;"/>
   </g>
   <g id="patch_4">
    <path d="M 648 315 
L 648 43.2 
" style="fill:none;stroke:#000000;stroke-linecap:square;stroke-linejoin:miter;stroke-width:0.8;"/>
   </g>
   <g id="patch_5">
    <path d="M 90 315 
L 648 315 
" style="fill:none;stroke:#000000;stroke-linecap:square;stroke-linejoin:miter;stroke-width:0.8;"/>
   </g>
   <g id="patch_6">
    <path d="M 90 43.2 
L 648 43.2 
" style="fill:none;stroke:#000000;stroke-linecap:square;stroke-linejoin:miter;stroke-width:0.8;"/>
   </g>
   <g id="text_17">
    <!-- Episode Reward over Time (Smoothed over window size 1) -->
    <defs>
     <path d="M 2.984375 54.6875 
L 12.5 54.6875 
L 29.59375 8.796875 
L 46.6875 54.6875 
L 56.203125 54.6875 
L 35.6875 0 
L 23.484375 0 
z
" id="DejaVuSans-118"/>
     <path d="M -0.296875 72.90625 
L 61.375 72.90625 
L 61.375 64.59375 
L 35.5 64.59375 
L 35.5 0 
L 25.59375 0 
L 25.59375 64.59375 
L -0.296875 64.59375 
z
" id="DejaVuSans-84"/>
     <path d="M 54.890625 33.015625 
L 54.890625 0 
L 45.90625 0 
L 45.90625 32.71875 
Q 45.90625 40.484375 42.875 44.328125 
Q 39.84375 48.1875 33.796875 48.1875 
Q 26.515625 48.1875 22.3125 43.546875 
Q 18.109375 38.921875 18.109375 30.90625 
L 18.109375 0 
L 9.078125 0 
L 9.078125 54.6875 
L 18.109375 54.6875 
L 18.109375 46.1875 
Q 21.34375 51.125 25.703125 53.5625 
Q 30.078125 56 35.796875 56 
Q 45.21875 56 50.046875 50.171875 
Q 54.890625 44.34375 54.890625 33.015625 
z
" id="DejaVuSans-110"/>
     <path d="M 5.515625 54.6875 
L 48.1875 54.6875 
L 48.1875 46.484375 
L 14.40625 7.171875 
L 48.1875 7.171875 
L 48.1875 0 
L 4.296875 0 
L 4.296875 8.203125 
L 38.09375 47.515625 
L 5.515625 47.515625 
z
" id="DejaVuSans-122"/>
    </defs>
    <g transform="translate(192.289688 37.2)scale(0.12 -0.12)">
     <use xlink:href="#DejaVuSans-69"/>
     <use x="63.183594" xlink:href="#DejaVuSans-112"/>
     <use x="126.660156" xlink:href="#DejaVuSans-105"/>
     <use x="154.443359" xlink:href="#DejaVuSans-115"/>
     <use x="206.542969" xlink:href="#DejaVuSans-111"/>
     <use x="267.724609" xlink:href="#DejaVuSans-100"/>
     <use x="331.201172" xlink:href="#DejaVuSans-101"/>
     <use x="392.724609" xlink:href="#DejaVuSans-32"/>
     <use x="424.511719" xlink:href="#DejaVuSans-82"/>
     <use x="493.931641" xlink:href="#DejaVuSans-101"/>
     <use x="555.455078" xlink:href="#DejaVuSans-119"/>
     <use x="637.242188" xlink:href="#DejaVuSans-97"/>
     <use x="698.521484" xlink:href="#DejaVuSans-114"/>
     <use x="739.619141" xlink:href="#DejaVuSans-100"/>
     <use x="803.095703" xlink:href="#DejaVuSans-32"/>
     <use x="834.882812" xlink:href="#DejaVuSans-111"/>
     <use x="896.064453" xlink:href="#DejaVuSans-118"/>
     <use x="955.244141" xlink:href="#DejaVuSans-101"/>
     <use x="1016.767578" xlink:href="#DejaVuSans-114"/>
     <use x="1057.880859" xlink:href="#DejaVuSans-32"/>
     <use x="1089.667969" xlink:href="#DejaVuSans-84"/>
     <use x="1150.705078" xlink:href="#DejaVuSans-105"/>
     <use x="1178.488281" xlink:href="#DejaVuSans-109"/>
     <use x="1275.900391" xlink:href="#DejaVuSans-101"/>
     <use x="1337.423828" xlink:href="#DejaVuSans-32"/>
     <use x="1369.210938" xlink:href="#DejaVuSans-40"/>
     <use x="1408.224609" xlink:href="#DejaVuSans-83"/>
     <use x="1471.701172" xlink:href="#DejaVuSans-109"/>
     <use x="1569.113281" xlink:href="#DejaVuSans-111"/>
     <use x="1630.294922" xlink:href="#DejaVuSans-111"/>
     <use x="1691.476562" xlink:href="#DejaVuSans-116"/>
     <use x="1730.685547" xlink:href="#DejaVuSans-104"/>
     <use x="1794.064453" xlink:href="#DejaVuSans-101"/>
     <use x="1855.587891" xlink:href="#DejaVuSans-100"/>
     <use x="1919.064453" xlink:href="#DejaVuSans-32"/>
     <use x="1950.851562" xlink:href="#DejaVuSans-111"/>
     <use x="2012.033203" xlink:href="#DejaVuSans-118"/>
     <use x="2071.212891" xlink:href="#DejaVuSans-101"/>
     <use x="2132.736328" xlink:href="#DejaVuSans-114"/>
     <use x="2173.849609" xlink:href="#DejaVuSans-32"/>
     <use x="2205.636719" xlink:href="#DejaVuSans-119"/>
     <use x="2287.423828" xlink:href="#DejaVuSans-105"/>
     <use x="2315.207031" xlink:href="#DejaVuSans-110"/>
     <use x="2378.585938" xlink:href="#DejaVuSans-100"/>
     <use x="2442.0625" xlink:href="#DejaVuSans-111"/>
     <use x="2503.244141" xlink:href="#DejaVuSans-119"/>
     <use x="2585.03125" xlink:href="#DejaVuSans-32"/>
     <use x="2616.818359" xlink:href="#DejaVuSans-115"/>
     <use x="2668.917969" xlink:href="#DejaVuSans-105"/>
     <use x="2696.701172" xlink:href="#DejaVuSans-122"/>
     <use x="2749.191406" xlink:href="#DejaVuSans-101"/>
     <use x="2810.714844" xlink:href="#DejaVuSans-32"/>
     <use x="2842.501953" xlink:href="#DejaVuSans-49"/>
     <use x="2906.125" xlink:href="#DejaVuSans-41"/>
    </g>
   </g>
  </g>
 </g>
 <defs>
  <clipPath id="p40ca8c9b03">
   <rect height="271.8" width="558" x="90" y="43.2"/>
  </clipPath>
 </defs>
</svg>
