<?xml version="1.0" encoding="utf-8" standalone="no"?>
<!DOCTYPE svg PUBLIC "-//W3C//DTD SVG 1.1//EN"
  "http://www.w3.org/Graphics/SVG/1.1/DTD/svg11.dtd">
<!-- Created with matplotlib (https://matplotlib.org/) -->
<svg height="360pt" version="1.1" viewBox="0 0 720 360" width="720pt" xmlns="http://www.w3.org/2000/svg" xmlns:xlink="http://www.w3.org/1999/xlink">
 <defs>
  <style type="text/css">
*{stroke-linecap:butt;stroke-linejoin:round;white-space:pre;}
  </style>
 </defs>
 <g id="figure_1">
  <g id="patch_1">
   <path d="M 0 360 
L 720 360 
L 720 0 
L 0 0 
z
" style="fill:#ffffff;"/>
  </g>
  <g id="axes_1">
   <g id="patch_2">
    <path d="M 90 315 
L 648 315 
L 648 43.2 
L 90 43.2 
z
" style="fill:#ffffff;"/>
   </g>
   <g id="matplotlib.axis_1">
    <g id="xtick_1">
     <g id="line2d_1">
      <path clip-path="url(#p24114ca836)" d="M 115.363636 315 
L 115.363636 43.2 
" style="fill:none;stroke:#b0b0b0;stroke-linecap:square;stroke-width:0.8;"/>
     </g>
     <g id="line2d_2">
      <defs>
       <path d="M 0 0 
L 0 3.5 
" id="m9026da0000" style="stroke:#000000;stroke-width:0.8;"/>
      </defs>
      <g>
       <use style="stroke:#000000;stroke-width:0.8;" x="115.363636" xlink:href="#m9026da0000" y="315"/>
      </g>
     </g>
     <g id="text_1">
      <!-- 0 -->
      <defs>
       <path d="M 31.78125 66.40625 
Q 24.171875 66.40625 20.328125 58.90625 
Q 16.5 51.421875 16.5 36.375 
Q 16.5 21.390625 20.328125 13.890625 
Q 24.171875 6.390625 31.78125 6.390625 
Q 39.453125 6.390625 43.28125 13.890625 
Q 47.125 21.390625 47.125 36.375 
Q 47.125 51.421875 43.28125 58.90625 
Q 39.453125 66.40625 31.78125 66.40625 
z
M 31.78125 74.21875 
Q 44.046875 74.21875 50.515625 64.515625 
Q 56.984375 54.828125 56.984375 36.375 
Q 56.984375 17.96875 50.515625 8.265625 
Q 44.046875 -1.421875 31.78125 -1.421875 
Q 19.53125 -1.421875 13.0625 8.265625 
Q 6.59375 17.96875 6.59375 36.375 
Q 6.59375 54.828125 13.0625 64.515625 
Q 19.53125 74.21875 31.78125 74.21875 
z
" id="DejaVuSans-48"/>
      </defs>
      <g transform="translate(112.182386 329.598437)scale(0.1 -0.1)">
       <use xlink:href="#DejaVuSans-48"/>
      </g>
     </g>
    </g>
    <g id="xtick_2">
     <g id="line2d_3">
      <path clip-path="url(#p24114ca836)" d="M 183.045121 315 
L 183.045121 43.2 
" style="fill:none;stroke:#b0b0b0;stroke-linecap:square;stroke-width:0.8;"/>
     </g>
     <g id="line2d_4">
      <g>
       <use style="stroke:#000000;stroke-width:0.8;" x="183.045121" xlink:href="#m9026da0000" y="315"/>
      </g>
     </g>
     <g id="text_2">
      <!-- 200 -->
      <defs>
       <path d="M 19.1875 8.296875 
L 53.609375 8.296875 
L 53.609375 0 
L 7.328125 0 
L 7.328125 8.296875 
Q 12.9375 14.109375 22.625 23.890625 
Q 32.328125 33.6875 34.8125 36.53125 
Q 39.546875 41.84375 41.421875 45.53125 
Q 43.3125 49.21875 43.3125 52.78125 
Q 43.3125 58.59375 39.234375 62.25 
Q 35.15625 65.921875 28.609375 65.921875 
Q 23.96875 65.921875 18.8125 64.3125 
Q 13.671875 62.703125 7.8125 59.421875 
L 7.8125 69.390625 
Q 13.765625 71.78125 18.9375 73 
Q 24.125 74.21875 28.421875 74.21875 
Q 39.75 74.21875 46.484375 68.546875 
Q 53.21875 62.890625 53.21875 53.421875 
Q 53.21875 48.921875 51.53125 44.890625 
Q 49.859375 40.875 45.40625 35.40625 
Q 44.1875 33.984375 37.640625 27.21875 
Q 31.109375 20.453125 19.1875 8.296875 
z
" id="DejaVuSans-50"/>
      </defs>
      <g transform="translate(173.501371 329.598437)scale(0.1 -0.1)">
       <use xlink:href="#DejaVuSans-50"/>
       <use x="63.623047" xlink:href="#DejaVuSans-48"/>
       <use x="127.246094" xlink:href="#DejaVuSans-48"/>
      </g>
     </g>
    </g>
    <g id="xtick_3">
     <g id="line2d_5">
      <path clip-path="url(#p24114ca836)" d="M 250.726606 315 
L 250.726606 43.2 
" style="fill:none;stroke:#b0b0b0;stroke-linecap:square;stroke-width:0.8;"/>
     </g>
     <g id="line2d_6">
      <g>
       <use style="stroke:#000000;stroke-width:0.8;" x="250.726606" xlink:href="#m9026da0000" y="315"/>
      </g>
     </g>
     <g id="text_3">
      <!-- 400 -->
      <defs>
       <path d="M 37.796875 64.3125 
L 12.890625 25.390625 
L 37.796875 25.390625 
z
M 35.203125 72.90625 
L 47.609375 72.90625 
L 47.609375 25.390625 
L 58.015625 25.390625 
L 58.015625 17.1875 
L 47.609375 17.1875 
L 47.609375 0 
L 37.796875 0 
L 37.796875 17.1875 
L 4.890625 17.1875 
L 4.890625 26.703125 
z
" id="DejaVuSans-52"/>
      </defs>
      <g transform="translate(241.182856 329.598437)scale(0.1 -0.1)">
       <use xlink:href="#DejaVuSans-52"/>
       <use x="63.623047" xlink:href="#DejaVuSans-48"/>
       <use x="127.246094" xlink:href="#DejaVuSans-48"/>
      </g>
     </g>
    </g>
    <g id="xtick_4">
     <g id="line2d_7">
      <path clip-path="url(#p24114ca836)" d="M 318.40809 315 
L 318.40809 43.2 
" style="fill:none;stroke:#b0b0b0;stroke-linecap:square;stroke-width:0.8;"/>
     </g>
     <g id="line2d_8">
      <g>
       <use style="stroke:#000000;stroke-width:0.8;" x="318.40809" xlink:href="#m9026da0000" y="315"/>
      </g>
     </g>
     <g id="text_4">
      <!-- 600 -->
      <defs>
       <path d="M 33.015625 40.375 
Q 26.375 40.375 22.484375 35.828125 
Q 18.609375 31.296875 18.609375 23.390625 
Q 18.609375 15.53125 22.484375 10.953125 
Q 26.375 6.390625 33.015625 6.390625 
Q 39.65625 6.390625 43.53125 10.953125 
Q 47.40625 15.53125 47.40625 23.390625 
Q 47.40625 31.296875 43.53125 35.828125 
Q 39.65625 40.375 33.015625 40.375 
z
M 52.59375 71.296875 
L 52.59375 62.3125 
Q 48.875 64.0625 45.09375 64.984375 
Q 41.3125 65.921875 37.59375 65.921875 
Q 27.828125 65.921875 22.671875 59.328125 
Q 17.53125 52.734375 16.796875 39.40625 
Q 19.671875 43.65625 24.015625 45.921875 
Q 28.375 48.1875 33.59375 48.1875 
Q 44.578125 48.1875 50.953125 41.515625 
Q 57.328125 34.859375 57.328125 23.390625 
Q 57.328125 12.15625 50.6875 5.359375 
Q 44.046875 -1.421875 33.015625 -1.421875 
Q 20.359375 -1.421875 13.671875 8.265625 
Q 6.984375 17.96875 6.984375 36.375 
Q 6.984375 53.65625 15.1875 63.9375 
Q 23.390625 74.21875 37.203125 74.21875 
Q 40.921875 74.21875 44.703125 73.484375 
Q 48.484375 72.75 52.59375 71.296875 
z
" id="DejaVuSans-54"/>
      </defs>
      <g transform="translate(308.86434 329.598437)scale(0.1 -0.1)">
       <use xlink:href="#DejaVuSans-54"/>
       <use x="63.623047" xlink:href="#DejaVuSans-48"/>
       <use x="127.246094" xlink:href="#DejaVuSans-48"/>
      </g>
     </g>
    </g>
    <g id="xtick_5">
     <g id="line2d_9">
      <path clip-path="url(#p24114ca836)" d="M 386.089575 315 
L 386.089575 43.2 
" style="fill:none;stroke:#b0b0b0;stroke-linecap:square;stroke-width:0.8;"/>
     </g>
     <g id="line2d_10">
      <g>
       <use style="stroke:#000000;stroke-width:0.8;" x="386.089575" xlink:href="#m9026da0000" y="315"/>
      </g>
     </g>
     <g id="text_5">
      <!-- 800 -->
      <defs>
       <path d="M 31.78125 34.625 
Q 24.75 34.625 20.71875 30.859375 
Q 16.703125 27.09375 16.703125 20.515625 
Q 16.703125 13.921875 20.71875 10.15625 
Q 24.75 6.390625 31.78125 6.390625 
Q 38.8125 6.390625 42.859375 10.171875 
Q 46.921875 13.96875 46.921875 20.515625 
Q 46.921875 27.09375 42.890625 30.859375 
Q 38.875 34.625 31.78125 34.625 
z
M 21.921875 38.8125 
Q 15.578125 40.375 12.03125 44.71875 
Q 8.5 49.078125 8.5 55.328125 
Q 8.5 64.0625 14.71875 69.140625 
Q 20.953125 74.21875 31.78125 74.21875 
Q 42.671875 74.21875 48.875 69.140625 
Q 55.078125 64.0625 55.078125 55.328125 
Q 55.078125 49.078125 51.53125 44.71875 
Q 48 40.375 41.703125 38.8125 
Q 48.828125 37.15625 52.796875 32.3125 
Q 56.78125 27.484375 56.78125 20.515625 
Q 56.78125 9.90625 50.3125 4.234375 
Q 43.84375 -1.421875 31.78125 -1.421875 
Q 19.734375 -1.421875 13.25 4.234375 
Q 6.78125 9.90625 6.78125 20.515625 
Q 6.78125 27.484375 10.78125 32.3125 
Q 14.796875 37.15625 21.921875 38.8125 
z
M 18.3125 54.390625 
Q 18.3125 48.734375 21.84375 45.5625 
Q 25.390625 42.390625 31.78125 42.390625 
Q 38.140625 42.390625 41.71875 45.5625 
Q 45.3125 48.734375 45.3125 54.390625 
Q 45.3125 60.0625 41.71875 63.234375 
Q 38.140625 66.40625 31.78125 66.40625 
Q 25.390625 66.40625 21.84375 63.234375 
Q 18.3125 60.0625 18.3125 54.390625 
z
" id="DejaVuSans-56"/>
      </defs>
      <g transform="translate(376.545825 329.598437)scale(0.1 -0.1)">
       <use xlink:href="#DejaVuSans-56"/>
       <use x="63.623047" xlink:href="#DejaVuSans-48"/>
       <use x="127.246094" xlink:href="#DejaVuSans-48"/>
      </g>
     </g>
    </g>
    <g id="xtick_6">
     <g id="line2d_11">
      <path clip-path="url(#p24114ca836)" d="M 453.771059 315 
L 453.771059 43.2 
" style="fill:none;stroke:#b0b0b0;stroke-linecap:square;stroke-width:0.8;"/>
     </g>
     <g id="line2d_12">
      <g>
       <use style="stroke:#000000;stroke-width:0.8;" x="453.771059" xlink:href="#m9026da0000" y="315"/>
      </g>
     </g>
     <g id="text_6">
      <!-- 1000 -->
      <defs>
       <path d="M 12.40625 8.296875 
L 28.515625 8.296875 
L 28.515625 63.921875 
L 10.984375 60.40625 
L 10.984375 69.390625 
L 28.421875 72.90625 
L 38.28125 72.90625 
L 38.28125 8.296875 
L 54.390625 8.296875 
L 54.390625 0 
L 12.40625 0 
z
" id="DejaVuSans-49"/>
      </defs>
      <g transform="translate(441.046059 329.598437)scale(0.1 -0.1)">
       <use xlink:href="#DejaVuSans-49"/>
       <use x="63.623047" xlink:href="#DejaVuSans-48"/>
       <use x="127.246094" xlink:href="#DejaVuSans-48"/>
       <use x="190.869141" xlink:href="#DejaVuSans-48"/>
      </g>
     </g>
    </g>
    <g id="xtick_7">
     <g id="line2d_13">
      <path clip-path="url(#p24114ca836)" d="M 521.452544 315 
L 521.452544 43.2 
" style="fill:none;stroke:#b0b0b0;stroke-linecap:square;stroke-width:0.8;"/>
     </g>
     <g id="line2d_14">
      <g>
       <use style="stroke:#000000;stroke-width:0.8;" x="521.452544" xlink:href="#m9026da0000" y="315"/>
      </g>
     </g>
     <g id="text_7">
      <!-- 1200 -->
      <g transform="translate(508.727544 329.598437)scale(0.1 -0.1)">
       <use xlink:href="#DejaVuSans-49"/>
       <use x="63.623047" xlink:href="#DejaVuSans-50"/>
       <use x="127.246094" xlink:href="#DejaVuSans-48"/>
       <use x="190.869141" xlink:href="#DejaVuSans-48"/>
      </g>
     </g>
    </g>
    <g id="xtick_8">
     <g id="line2d_15">
      <path clip-path="url(#p24114ca836)" d="M 589.134029 315 
L 589.134029 43.2 
" style="fill:none;stroke:#b0b0b0;stroke-linecap:square;stroke-width:0.8;"/>
     </g>
     <g id="line2d_16">
      <g>
       <use style="stroke:#000000;stroke-width:0.8;" x="589.134029" xlink:href="#m9026da0000" y="315"/>
      </g>
     </g>
     <g id="text_8">
      <!-- 1400 -->
      <g transform="translate(576.409029 329.598437)scale(0.1 -0.1)">
       <use xlink:href="#DejaVuSans-49"/>
       <use x="63.623047" xlink:href="#DejaVuSans-52"/>
       <use x="127.246094" xlink:href="#DejaVuSans-48"/>
       <use x="190.869141" xlink:href="#DejaVuSans-48"/>
      </g>
     </g>
    </g>
    <g id="text_9">
     <!-- Episode -->
     <defs>
      <path d="M 9.8125 72.90625 
L 55.90625 72.90625 
L 55.90625 64.59375 
L 19.671875 64.59375 
L 19.671875 43.015625 
L 54.390625 43.015625 
L 54.390625 34.71875 
L 19.671875 34.71875 
L 19.671875 8.296875 
L 56.78125 8.296875 
L 56.78125 0 
L 9.8125 0 
z
" id="DejaVuSans-69"/>
      <path d="M 18.109375 8.203125 
L 18.109375 -20.796875 
L 9.078125 -20.796875 
L 9.078125 54.6875 
L 18.109375 54.6875 
L 18.109375 46.390625 
Q 20.953125 51.265625 25.265625 53.625 
Q 29.59375 56 35.59375 56 
Q 45.5625 56 51.78125 48.09375 
Q 58.015625 40.1875 58.015625 27.296875 
Q 58.015625 14.40625 51.78125 6.484375 
Q 45.5625 -1.421875 35.59375 -1.421875 
Q 29.59375 -1.421875 25.265625 0.953125 
Q 20.953125 3.328125 18.109375 8.203125 
z
M 48.6875 27.296875 
Q 48.6875 37.203125 44.609375 42.84375 
Q 40.53125 48.484375 33.40625 48.484375 
Q 26.265625 48.484375 22.1875 42.84375 
Q 18.109375 37.203125 18.109375 27.296875 
Q 18.109375 17.390625 22.1875 11.75 
Q 26.265625 6.109375 33.40625 6.109375 
Q 40.53125 6.109375 44.609375 11.75 
Q 48.6875 17.390625 48.6875 27.296875 
z
" id="DejaVuSans-112"/>
      <path d="M 9.421875 54.6875 
L 18.40625 54.6875 
L 18.40625 0 
L 9.421875 0 
z
M 9.421875 75.984375 
L 18.40625 75.984375 
L 18.40625 64.59375 
L 9.421875 64.59375 
z
" id="DejaVuSans-105"/>
      <path d="M 44.28125 53.078125 
L 44.28125 44.578125 
Q 40.484375 46.53125 36.375 47.5 
Q 32.28125 48.484375 27.875 48.484375 
Q 21.1875 48.484375 17.84375 46.4375 
Q 14.5 44.390625 14.5 40.28125 
Q 14.5 37.15625 16.890625 35.375 
Q 19.28125 33.59375 26.515625 31.984375 
L 29.59375 31.296875 
Q 39.15625 29.25 43.1875 25.515625 
Q 47.21875 21.78125 47.21875 15.09375 
Q 47.21875 7.46875 41.1875 3.015625 
Q 35.15625 -1.421875 24.609375 -1.421875 
Q 20.21875 -1.421875 15.453125 -0.5625 
Q 10.6875 0.296875 5.421875 2 
L 5.421875 11.28125 
Q 10.40625 8.6875 15.234375 7.390625 
Q 20.0625 6.109375 24.8125 6.109375 
Q 31.15625 6.109375 34.5625 8.28125 
Q 37.984375 10.453125 37.984375 14.40625 
Q 37.984375 18.0625 35.515625 20.015625 
Q 33.0625 21.96875 24.703125 23.78125 
L 21.578125 24.515625 
Q 13.234375 26.265625 9.515625 29.90625 
Q 5.8125 33.546875 5.8125 39.890625 
Q 5.8125 47.609375 11.28125 51.796875 
Q 16.75 56 26.8125 56 
Q 31.78125 56 36.171875 55.265625 
Q 40.578125 54.546875 44.28125 53.078125 
z
" id="DejaVuSans-115"/>
      <path d="M 30.609375 48.390625 
Q 23.390625 48.390625 19.1875 42.75 
Q 14.984375 37.109375 14.984375 27.296875 
Q 14.984375 17.484375 19.15625 11.84375 
Q 23.34375 6.203125 30.609375 6.203125 
Q 37.796875 6.203125 41.984375 11.859375 
Q 46.1875 17.53125 46.1875 27.296875 
Q 46.1875 37.015625 41.984375 42.703125 
Q 37.796875 48.390625 30.609375 48.390625 
z
M 30.609375 56 
Q 42.328125 56 49.015625 48.375 
Q 55.71875 40.765625 55.71875 27.296875 
Q 55.71875 13.875 49.015625 6.21875 
Q 42.328125 -1.421875 30.609375 -1.421875 
Q 18.84375 -1.421875 12.171875 6.21875 
Q 5.515625 13.875 5.515625 27.296875 
Q 5.515625 40.765625 12.171875 48.375 
Q 18.84375 56 30.609375 56 
z
" id="DejaVuSans-111"/>
      <path d="M 45.40625 46.390625 
L 45.40625 75.984375 
L 54.390625 75.984375 
L 54.390625 0 
L 45.40625 0 
L 45.40625 8.203125 
Q 42.578125 3.328125 38.25 0.953125 
Q 33.9375 -1.421875 27.875 -1.421875 
Q 17.96875 -1.421875 11.734375 6.484375 
Q 5.515625 14.40625 5.515625 27.296875 
Q 5.515625 40.1875 11.734375 48.09375 
Q 17.96875 56 27.875 56 
Q 33.9375 56 38.25 53.625 
Q 42.578125 51.265625 45.40625 46.390625 
z
M 14.796875 27.296875 
Q 14.796875 17.390625 18.875 11.75 
Q 22.953125 6.109375 30.078125 6.109375 
Q 37.203125 6.109375 41.296875 11.75 
Q 45.40625 17.390625 45.40625 27.296875 
Q 45.40625 37.203125 41.296875 42.84375 
Q 37.203125 48.484375 30.078125 48.484375 
Q 22.953125 48.484375 18.875 42.84375 
Q 14.796875 37.203125 14.796875 27.296875 
z
" id="DejaVuSans-100"/>
      <path d="M 56.203125 29.59375 
L 56.203125 25.203125 
L 14.890625 25.203125 
Q 15.484375 15.921875 20.484375 11.0625 
Q 25.484375 6.203125 34.421875 6.203125 
Q 39.59375 6.203125 44.453125 7.46875 
Q 49.3125 8.734375 54.109375 11.28125 
L 54.109375 2.78125 
Q 49.265625 0.734375 44.1875 -0.34375 
Q 39.109375 -1.421875 33.890625 -1.421875 
Q 20.796875 -1.421875 13.15625 6.1875 
Q 5.515625 13.8125 5.515625 26.8125 
Q 5.515625 40.234375 12.765625 48.109375 
Q 20.015625 56 32.328125 56 
Q 43.359375 56 49.78125 48.890625 
Q 56.203125 41.796875 56.203125 29.59375 
z
M 47.21875 32.234375 
Q 47.125 39.59375 43.09375 43.984375 
Q 39.0625 48.390625 32.421875 48.390625 
Q 24.90625 48.390625 20.390625 44.140625 
Q 15.875 39.890625 15.1875 32.171875 
z
" id="DejaVuSans-101"/>
     </defs>
     <g transform="translate(349.3625 343.276563)scale(0.1 -0.1)">
      <use xlink:href="#DejaVuSans-69"/>
      <use x="63.183594" xlink:href="#DejaVuSans-112"/>
      <use x="126.660156" xlink:href="#DejaVuSans-105"/>
      <use x="154.443359" xlink:href="#DejaVuSans-115"/>
      <use x="206.542969" xlink:href="#DejaVuSans-111"/>
      <use x="267.724609" xlink:href="#DejaVuSans-100"/>
      <use x="331.201172" xlink:href="#DejaVuSans-101"/>
     </g>
    </g>
   </g>
   <g id="matplotlib.axis_2">
    <g id="ytick_1">
     <g id="line2d_17">
      <path clip-path="url(#p24114ca836)" d="M 90 314.572176 
L 648 314.572176 
" style="fill:none;stroke:#b0b0b0;stroke-linecap:square;stroke-width:0.8;"/>
     </g>
     <g id="line2d_18">
      <defs>
       <path d="M 0 0 
L -3.5 0 
" id="mf0167bdbc6" style="stroke:#000000;stroke-width:0.8;"/>
      </defs>
      <g>
       <use style="stroke:#000000;stroke-width:0.8;" x="90" xlink:href="#mf0167bdbc6" y="314.572176"/>
      </g>
     </g>
     <g id="text_10">
      <!-- −2.4 -->
      <defs>
       <path d="M 10.59375 35.5 
L 73.1875 35.5 
L 73.1875 27.203125 
L 10.59375 27.203125 
z
" id="DejaVuSans-8722"/>
       <path d="M 10.6875 12.40625 
L 21 12.40625 
L 21 0 
L 10.6875 0 
z
" id="DejaVuSans-46"/>
      </defs>
      <g transform="translate(58.717187 318.371394)scale(0.1 -0.1)">
       <use xlink:href="#DejaVuSans-8722"/>
       <use x="83.789062" xlink:href="#DejaVuSans-50"/>
       <use x="147.412109" xlink:href="#DejaVuSans-46"/>
       <use x="179.199219" xlink:href="#DejaVuSans-52"/>
      </g>
     </g>
    </g>
    <g id="ytick_2">
     <g id="line2d_19">
      <path clip-path="url(#p24114ca836)" d="M 90 279.711082 
L 648 279.711082 
" style="fill:none;stroke:#b0b0b0;stroke-linecap:square;stroke-width:0.8;"/>
     </g>
     <g id="line2d_20">
      <g>
       <use style="stroke:#000000;stroke-width:0.8;" x="90" xlink:href="#mf0167bdbc6" y="279.711082"/>
      </g>
     </g>
     <g id="text_11">
      <!-- −2.2 -->
      <g transform="translate(58.717187 283.510301)scale(0.1 -0.1)">
       <use xlink:href="#DejaVuSans-8722"/>
       <use x="83.789062" xlink:href="#DejaVuSans-50"/>
       <use x="147.412109" xlink:href="#DejaVuSans-46"/>
       <use x="179.199219" xlink:href="#DejaVuSans-50"/>
      </g>
     </g>
    </g>
    <g id="ytick_3">
     <g id="line2d_21">
      <path clip-path="url(#p24114ca836)" d="M 90 244.849988 
L 648 244.849988 
" style="fill:none;stroke:#b0b0b0;stroke-linecap:square;stroke-width:0.8;"/>
     </g>
     <g id="line2d_22">
      <g>
       <use style="stroke:#000000;stroke-width:0.8;" x="90" xlink:href="#mf0167bdbc6" y="244.849988"/>
      </g>
     </g>
     <g id="text_12">
      <!-- −2.0 -->
      <g transform="translate(58.717187 248.649207)scale(0.1 -0.1)">
       <use xlink:href="#DejaVuSans-8722"/>
       <use x="83.789062" xlink:href="#DejaVuSans-50"/>
       <use x="147.412109" xlink:href="#DejaVuSans-46"/>
       <use x="179.199219" xlink:href="#DejaVuSans-48"/>
      </g>
     </g>
    </g>
    <g id="ytick_4">
     <g id="line2d_23">
      <path clip-path="url(#p24114ca836)" d="M 90 209.988895 
L 648 209.988895 
" style="fill:none;stroke:#b0b0b0;stroke-linecap:square;stroke-width:0.8;"/>
     </g>
     <g id="line2d_24">
      <g>
       <use style="stroke:#000000;stroke-width:0.8;" x="90" xlink:href="#mf0167bdbc6" y="209.988895"/>
      </g>
     </g>
     <g id="text_13">
      <!-- −1.8 -->
      <g transform="translate(58.717187 213.788114)scale(0.1 -0.1)">
       <use xlink:href="#DejaVuSans-8722"/>
       <use x="83.789062" xlink:href="#DejaVuSans-49"/>
       <use x="147.412109" xlink:href="#DejaVuSans-46"/>
       <use x="179.199219" xlink:href="#DejaVuSans-56"/>
      </g>
     </g>
    </g>
    <g id="ytick_5">
     <g id="line2d_25">
      <path clip-path="url(#p24114ca836)" d="M 90 175.127801 
L 648 175.127801 
" style="fill:none;stroke:#b0b0b0;stroke-linecap:square;stroke-width:0.8;"/>
     </g>
     <g id="line2d_26">
      <g>
       <use style="stroke:#000000;stroke-width:0.8;" x="90" xlink:href="#mf0167bdbc6" y="175.127801"/>
      </g>
     </g>
     <g id="text_14">
      <!-- −1.6 -->
      <g transform="translate(58.717187 178.92702)scale(0.1 -0.1)">
       <use xlink:href="#DejaVuSans-8722"/>
       <use x="83.789062" xlink:href="#DejaVuSans-49"/>
       <use x="147.412109" xlink:href="#DejaVuSans-46"/>
       <use x="179.199219" xlink:href="#DejaVuSans-54"/>
      </g>
     </g>
    </g>
    <g id="ytick_6">
     <g id="line2d_27">
      <path clip-path="url(#p24114ca836)" d="M 90 140.266708 
L 648 140.266708 
" style="fill:none;stroke:#b0b0b0;stroke-linecap:square;stroke-width:0.8;"/>
     </g>
     <g id="line2d_28">
      <g>
       <use style="stroke:#000000;stroke-width:0.8;" x="90" xlink:href="#mf0167bdbc6" y="140.266708"/>
      </g>
     </g>
     <g id="text_15">
      <!-- −1.4 -->
      <g transform="translate(58.717187 144.065926)scale(0.1 -0.1)">
       <use xlink:href="#DejaVuSans-8722"/>
       <use x="83.789062" xlink:href="#DejaVuSans-49"/>
       <use x="147.412109" xlink:href="#DejaVuSans-46"/>
       <use x="179.199219" xlink:href="#DejaVuSans-52"/>
      </g>
     </g>
    </g>
    <g id="ytick_7">
     <g id="line2d_29">
      <path clip-path="url(#p24114ca836)" d="M 90 105.405614 
L 648 105.405614 
" style="fill:none;stroke:#b0b0b0;stroke-linecap:square;stroke-width:0.8;"/>
     </g>
     <g id="line2d_30">
      <g>
       <use style="stroke:#000000;stroke-width:0.8;" x="90" xlink:href="#mf0167bdbc6" y="105.405614"/>
      </g>
     </g>
     <g id="text_16">
      <!-- −1.2 -->
      <g transform="translate(58.717187 109.204833)scale(0.1 -0.1)">
       <use xlink:href="#DejaVuSans-8722"/>
       <use x="83.789062" xlink:href="#DejaVuSans-49"/>
       <use x="147.412109" xlink:href="#DejaVuSans-46"/>
       <use x="179.199219" xlink:href="#DejaVuSans-50"/>
      </g>
     </g>
    </g>
    <g id="ytick_8">
     <g id="line2d_31">
      <path clip-path="url(#p24114ca836)" d="M 90 70.54452 
L 648 70.54452 
" style="fill:none;stroke:#b0b0b0;stroke-linecap:square;stroke-width:0.8;"/>
     </g>
     <g id="line2d_32">
      <g>
       <use style="stroke:#000000;stroke-width:0.8;" x="90" xlink:href="#mf0167bdbc6" y="70.54452"/>
      </g>
     </g>
     <g id="text_17">
      <!-- −1.0 -->
      <g transform="translate(58.717187 74.343739)scale(0.1 -0.1)">
       <use xlink:href="#DejaVuSans-8722"/>
       <use x="83.789062" xlink:href="#DejaVuSans-49"/>
       <use x="147.412109" xlink:href="#DejaVuSans-46"/>
       <use x="179.199219" xlink:href="#DejaVuSans-48"/>
      </g>
     </g>
    </g>
    <g id="text_18">
     <!-- Episode Reward (Smoothed) -->
     <defs>
      <path id="DejaVuSans-32"/>
      <path d="M 44.390625 34.1875 
Q 47.5625 33.109375 50.5625 29.59375 
Q 53.5625 26.078125 56.59375 19.921875 
L 66.609375 0 
L 56 0 
L 46.6875 18.703125 
Q 43.0625 26.03125 39.671875 28.421875 
Q 36.28125 30.8125 30.421875 30.8125 
L 19.671875 30.8125 
L 19.671875 0 
L 9.8125 0 
L 9.8125 72.90625 
L 32.078125 72.90625 
Q 44.578125 72.90625 50.734375 67.671875 
Q 56.890625 62.453125 56.890625 51.90625 
Q 56.890625 45.015625 53.6875 40.46875 
Q 50.484375 35.9375 44.390625 34.1875 
z
M 19.671875 64.796875 
L 19.671875 38.921875 
L 32.078125 38.921875 
Q 39.203125 38.921875 42.84375 42.21875 
Q 46.484375 45.515625 46.484375 51.90625 
Q 46.484375 58.296875 42.84375 61.546875 
Q 39.203125 64.796875 32.078125 64.796875 
z
" id="DejaVuSans-82"/>
      <path d="M 4.203125 54.6875 
L 13.1875 54.6875 
L 24.421875 12.015625 
L 35.59375 54.6875 
L 46.1875 54.6875 
L 57.421875 12.015625 
L 68.609375 54.6875 
L 77.59375 54.6875 
L 63.28125 0 
L 52.6875 0 
L 40.921875 44.828125 
L 29.109375 0 
L 18.5 0 
z
" id="DejaVuSans-119"/>
      <path d="M 34.28125 27.484375 
Q 23.390625 27.484375 19.1875 25 
Q 14.984375 22.515625 14.984375 16.5 
Q 14.984375 11.71875 18.140625 8.90625 
Q 21.296875 6.109375 26.703125 6.109375 
Q 34.1875 6.109375 38.703125 11.40625 
Q 43.21875 16.703125 43.21875 25.484375 
L 43.21875 27.484375 
z
M 52.203125 31.203125 
L 52.203125 0 
L 43.21875 0 
L 43.21875 8.296875 
Q 40.140625 3.328125 35.546875 0.953125 
Q 30.953125 -1.421875 24.3125 -1.421875 
Q 15.921875 -1.421875 10.953125 3.296875 
Q 6 8.015625 6 15.921875 
Q 6 25.140625 12.171875 29.828125 
Q 18.359375 34.515625 30.609375 34.515625 
L 43.21875 34.515625 
L 43.21875 35.40625 
Q 43.21875 41.609375 39.140625 45 
Q 35.0625 48.390625 27.6875 48.390625 
Q 23 48.390625 18.546875 47.265625 
Q 14.109375 46.140625 10.015625 43.890625 
L 10.015625 52.203125 
Q 14.9375 54.109375 19.578125 55.046875 
Q 24.21875 56 28.609375 56 
Q 40.484375 56 46.34375 49.84375 
Q 52.203125 43.703125 52.203125 31.203125 
z
" id="DejaVuSans-97"/>
      <path d="M 41.109375 46.296875 
Q 39.59375 47.171875 37.8125 47.578125 
Q 36.03125 48 33.890625 48 
Q 26.265625 48 22.1875 43.046875 
Q 18.109375 38.09375 18.109375 28.8125 
L 18.109375 0 
L 9.078125 0 
L 9.078125 54.6875 
L 18.109375 54.6875 
L 18.109375 46.1875 
Q 20.953125 51.171875 25.484375 53.578125 
Q 30.03125 56 36.53125 56 
Q 37.453125 56 38.578125 55.875 
Q 39.703125 55.765625 41.0625 55.515625 
z
" id="DejaVuSans-114"/>
      <path d="M 31 75.875 
Q 24.46875 64.65625 21.28125 53.65625 
Q 18.109375 42.671875 18.109375 31.390625 
Q 18.109375 20.125 21.3125 9.0625 
Q 24.515625 -2 31 -13.1875 
L 23.1875 -13.1875 
Q 15.875 -1.703125 12.234375 9.375 
Q 8.59375 20.453125 8.59375 31.390625 
Q 8.59375 42.28125 12.203125 53.3125 
Q 15.828125 64.359375 23.1875 75.875 
z
" id="DejaVuSans-40"/>
      <path d="M 53.515625 70.515625 
L 53.515625 60.890625 
Q 47.90625 63.578125 42.921875 64.890625 
Q 37.9375 66.21875 33.296875 66.21875 
Q 25.25 66.21875 20.875 63.09375 
Q 16.5 59.96875 16.5 54.203125 
Q 16.5 49.359375 19.40625 46.890625 
Q 22.3125 44.4375 30.421875 42.921875 
L 36.375 41.703125 
Q 47.40625 39.59375 52.65625 34.296875 
Q 57.90625 29 57.90625 20.125 
Q 57.90625 9.515625 50.796875 4.046875 
Q 43.703125 -1.421875 29.984375 -1.421875 
Q 24.8125 -1.421875 18.96875 -0.25 
Q 13.140625 0.921875 6.890625 3.21875 
L 6.890625 13.375 
Q 12.890625 10.015625 18.65625 8.296875 
Q 24.421875 6.59375 29.984375 6.59375 
Q 38.421875 6.59375 43.015625 9.90625 
Q 47.609375 13.234375 47.609375 19.390625 
Q 47.609375 24.75 44.3125 27.78125 
Q 41.015625 30.8125 33.5 32.328125 
L 27.484375 33.5 
Q 16.453125 35.6875 11.515625 40.375 
Q 6.59375 45.0625 6.59375 53.421875 
Q 6.59375 63.09375 13.40625 68.65625 
Q 20.21875 74.21875 32.171875 74.21875 
Q 37.3125 74.21875 42.625 73.28125 
Q 47.953125 72.359375 53.515625 70.515625 
z
" id="DejaVuSans-83"/>
      <path d="M 52 44.1875 
Q 55.375 50.25 60.0625 53.125 
Q 64.75 56 71.09375 56 
Q 79.640625 56 84.28125 50.015625 
Q 88.921875 44.046875 88.921875 33.015625 
L 88.921875 0 
L 79.890625 0 
L 79.890625 32.71875 
Q 79.890625 40.578125 77.09375 44.375 
Q 74.3125 48.1875 68.609375 48.1875 
Q 61.625 48.1875 57.5625 43.546875 
Q 53.515625 38.921875 53.515625 30.90625 
L 53.515625 0 
L 44.484375 0 
L 44.484375 32.71875 
Q 44.484375 40.625 41.703125 44.40625 
Q 38.921875 48.1875 33.109375 48.1875 
Q 26.21875 48.1875 22.15625 43.53125 
Q 18.109375 38.875 18.109375 30.90625 
L 18.109375 0 
L 9.078125 0 
L 9.078125 54.6875 
L 18.109375 54.6875 
L 18.109375 46.1875 
Q 21.1875 51.21875 25.484375 53.609375 
Q 29.78125 56 35.6875 56 
Q 41.65625 56 45.828125 52.96875 
Q 50 49.953125 52 44.1875 
z
" id="DejaVuSans-109"/>
      <path d="M 18.3125 70.21875 
L 18.3125 54.6875 
L 36.8125 54.6875 
L 36.8125 47.703125 
L 18.3125 47.703125 
L 18.3125 18.015625 
Q 18.3125 11.328125 20.140625 9.421875 
Q 21.96875 7.515625 27.59375 7.515625 
L 36.8125 7.515625 
L 36.8125 0 
L 27.59375 0 
Q 17.1875 0 13.234375 3.875 
Q 9.28125 7.765625 9.28125 18.015625 
L 9.28125 47.703125 
L 2.6875 47.703125 
L 2.6875 54.6875 
L 9.28125 54.6875 
L 9.28125 70.21875 
z
" id="DejaVuSans-116"/>
      <path d="M 54.890625 33.015625 
L 54.890625 0 
L 45.90625 0 
L 45.90625 32.71875 
Q 45.90625 40.484375 42.875 44.328125 
Q 39.84375 48.1875 33.796875 48.1875 
Q 26.515625 48.1875 22.3125 43.546875 
Q 18.109375 38.921875 18.109375 30.90625 
L 18.109375 0 
L 9.078125 0 
L 9.078125 75.984375 
L 18.109375 75.984375 
L 18.109375 46.1875 
Q 21.34375 51.125 25.703125 53.5625 
Q 30.078125 56 35.796875 56 
Q 45.21875 56 50.046875 50.171875 
Q 54.890625 44.34375 54.890625 33.015625 
z
" id="DejaVuSans-104"/>
      <path d="M 8.015625 75.875 
L 15.828125 75.875 
Q 23.140625 64.359375 26.78125 53.3125 
Q 30.421875 42.28125 30.421875 31.390625 
Q 30.421875 20.453125 26.78125 9.375 
Q 23.140625 -1.703125 15.828125 -13.1875 
L 8.015625 -13.1875 
Q 14.5 -2 17.703125 9.0625 
Q 20.90625 20.125 20.90625 31.390625 
Q 20.90625 42.671875 17.703125 53.65625 
Q 14.5 64.65625 8.015625 75.875 
z
" id="DejaVuSans-41"/>
     </defs>
     <g transform="translate(52.6375 250.289844)rotate(-90)scale(0.1 -0.1)">
      <use xlink:href="#DejaVuSans-69"/>
      <use x="63.183594" xlink:href="#DejaVuSans-112"/>
      <use x="126.660156" xlink:href="#DejaVuSans-105"/>
      <use x="154.443359" xlink:href="#DejaVuSans-115"/>
      <use x="206.542969" xlink:href="#DejaVuSans-111"/>
      <use x="267.724609" xlink:href="#DejaVuSans-100"/>
      <use x="331.201172" xlink:href="#DejaVuSans-101"/>
      <use x="392.724609" xlink:href="#DejaVuSans-32"/>
      <use x="424.511719" xlink:href="#DejaVuSans-82"/>
      <use x="493.931641" xlink:href="#DejaVuSans-101"/>
      <use x="555.455078" xlink:href="#DejaVuSans-119"/>
      <use x="637.242188" xlink:href="#DejaVuSans-97"/>
      <use x="698.521484" xlink:href="#DejaVuSans-114"/>
      <use x="739.619141" xlink:href="#DejaVuSans-100"/>
      <use x="803.095703" xlink:href="#DejaVuSans-32"/>
      <use x="834.882812" xlink:href="#DejaVuSans-40"/>
      <use x="873.896484" xlink:href="#DejaVuSans-83"/>
      <use x="937.373047" xlink:href="#DejaVuSans-109"/>
      <use x="1034.785156" xlink:href="#DejaVuSans-111"/>
      <use x="1095.966797" xlink:href="#DejaVuSans-111"/>
      <use x="1157.148438" xlink:href="#DejaVuSans-116"/>
      <use x="1196.357422" xlink:href="#DejaVuSans-104"/>
      <use x="1259.736328" xlink:href="#DejaVuSans-101"/>
      <use x="1321.259766" xlink:href="#DejaVuSans-100"/>
      <use x="1384.736328" xlink:href="#DejaVuSans-41"/>
     </g>
    </g>
   </g>
   <g id="line2d_33">
    <path clip-path="url(#p24114ca836)" d="M 115.363636 227.251797 
L 115.702044 173.669923 
L 116.040451 84.9225 
L 116.378859 205.349508 
L 116.717266 173.485824 
L 117.055673 218.41781 
L 117.394081 190.367218 
L 117.732488 236.733651 
L 118.070896 167.240063 
L 118.409303 221.891356 
L 118.747711 166.178532 
L 119.086118 237.723307 
L 119.424525 212.006763 
L 119.762933 87.633686 
L 120.10134 109.332656 
L 120.439748 84.02052 
L 120.778155 95.398168 
L 121.116563 68.935331 
L 121.45497 227.140247 
L 122.131785 83.416891 
L 122.470192 102.049402 
L 122.8086 191.767727 
L 123.147007 119.510165 
L 123.485415 71.426919 
L 123.823822 186.13205 
L 124.162229 86.944982 
L 124.500637 74.578524 
L 124.839044 79.853361 
L 125.177452 141.42203 
L 125.515859 90.84293 
L 125.854266 125.039216 
L 126.192674 185.157645 
L 126.531081 89.284524 
L 126.869489 103.063598 
L 127.207896 219.077419 
L 127.546304 146.435385 
L 127.884711 227.163838 
L 128.223118 228.2815 
L 128.561526 246.743928 
L 128.899933 201.983295 
L 129.576748 275.649002 
L 129.915156 191.493666 
L 130.253563 202.727519 
L 130.59197 93.214542 
L 130.930378 114.516264 
L 131.268785 122.304515 
L 131.607193 168.796322 
L 131.9456 122.80284 
L 132.284008 145.417634 
L 132.622415 137.985563 
L 132.960822 119.241412 
L 133.637637 145.370934 
L 133.976045 122.207213 
L 134.314452 153.737892 
L 134.652859 109.893018 
L 134.991267 104.471043 
L 135.329674 146.115696 
L 135.668082 269.696872 
L 136.006489 104.14558 
L 137.021711 146.775044 
L 137.360119 145.262438 
L 137.698526 126.578596 
L 138.036934 155.045769 
L 138.713749 115.640837 
L 139.052156 138.434868 
L 139.390563 140.351146 
L 139.728971 121.816119 
L 140.067378 128.344634 
L 140.405786 114.355223 
L 140.744193 133.546627 
L 141.082601 132.273108 
L 141.421008 148.853788 
L 141.759415 104.236181 
L 142.097823 128.693813 
L 142.43623 132.963726 
L 142.774638 134.473501 
L 143.113045 102.796622 
L 143.78986 152.200623 
L 144.128267 93.024201 
L 144.466675 83.43535 
L 144.805082 109.815542 
L 145.14349 113.739151 
L 145.481897 121.631528 
L 145.820304 110.408411 
L 146.158712 106.815904 
L 146.497119 118.380417 
L 147.173934 90.238817 
L 147.512342 83.602022 
L 147.850749 136.817276 
L 148.189156 163.1785 
L 148.527564 139.543883 
L 148.865971 232.33655 
L 149.204379 84.946986 
L 149.881194 150.091564 
L 150.219601 133.596877 
L 150.558008 95.45508 
L 150.896416 106.662907 
L 151.234823 102.499263 
L 151.573231 70.129834 
L 151.911638 263.567276 
L 152.250045 135.731407 
L 152.588453 148.232709 
L 152.92686 97.556016 
L 153.265268 114.711735 
L 153.603675 123.659538 
L 153.942083 111.325314 
L 154.28049 134.507311 
L 154.957305 108.411646 
L 155.295712 126.650652 
L 155.63412 124.338059 
L 155.972527 212.746952 
L 156.310935 251.552924 
L 156.649342 180.726852 
L 156.987749 183.727511 
L 157.326157 228.724351 
L 158.002972 135.433895 
L 158.341379 198.90555 
L 158.679787 98.408476 
L 159.018194 149.612816 
L 159.356601 163.384075 
L 159.695009 143.124855 
L 160.033416 163.866417 
L 160.371824 164.411091 
L 160.710231 155.567631 
L 161.048638 159.189416 
L 161.387046 155.019542 
L 161.725453 137.648983 
L 162.402268 171.378001 
L 162.740676 155.034924 
L 163.079083 155.034924 
L 163.41749 151.435653 
L 163.755898 138.374927 
L 164.432713 161.294473 
L 164.77112 148.785231 
L 165.109528 167.243276 
L 165.447935 105.486888 
L 165.786342 136.870167 
L 166.12475 98.04271 
L 166.463157 144.47811 
L 166.801565 106.939632 
L 167.139972 127.970774 
L 168.155194 110.601166 
L 168.493602 130.000837 
L 168.832009 136.509999 
L 169.170417 97.680152 
L 169.508824 106.527124 
L 169.847231 103.007775 
L 170.185639 71.329359 
L 170.524046 80.469167 
L 170.862454 68.782298 
L 171.200861 138.09001 
L 171.539269 70.168067 
L 171.877676 250.084435 
L 172.216083 165.970693 
L 172.554491 156.135734 
L 172.892898 124.693464 
L 173.231306 111.820615 
L 173.569713 126.032 
L 173.908121 126.021853 
L 174.246528 136.972743 
L 174.584935 81.436612 
L 174.923343 84.322196 
L 175.26175 83.705488 
L 175.600158 168.882526 
L 175.938565 133.599468 
L 176.276973 70.439678 
L 176.61538 168.672253 
L 176.953787 93.970393 
L 177.292195 213.008822 
L 177.630602 143.924752 
L 177.96901 154.807472 
L 178.307417 104.268057 
L 178.645824 106.307541 
L 178.984232 158.944775 
L 179.322639 105.941496 
L 179.661047 169.123037 
L 179.999454 89.89787 
L 180.337862 93.414083 
L 180.676269 89.693539 
L 181.014676 121.995723 
L 181.353084 86.433333 
L 181.691491 140.449422 
L 182.029899 99.093813 
L 182.368306 105.798938 
L 182.706714 97.662692 
L 183.045121 109.616453 
L 183.383528 106.228964 
L 183.721936 121.862383 
L 184.060343 103.947217 
L 184.398751 233.214343 
L 184.737158 152.032194 
L 185.075566 144.978383 
L 185.413973 242.261646 
L 185.75238 85.292042 
L 186.090788 101.971618 
L 186.429195 86.311985 
L 186.767603 84.918209 
L 187.10601 105.310202 
L 187.444417 105.294033 
L 187.782825 123.13301 
L 188.121232 192.926898 
L 188.45964 109.549992 
L 188.798047 112.755969 
L 189.136455 111.14358 
L 189.474862 98.658596 
L 189.813269 98.668133 
L 190.151677 134.072791 
L 190.490084 123.287582 
L 190.828492 128.139148 
L 191.166899 185.366632 
L 191.505307 86.461879 
L 191.843714 113.797813 
L 192.182121 82.679837 
L 192.520529 111.865919 
L 192.858936 81.765871 
L 193.197344 72.365302 
L 193.535751 72.911847 
L 193.874159 209.963878 
L 194.212566 138.219335 
L 194.550973 110.918763 
L 194.889381 110.918763 
L 195.566196 104.722603 
L 195.904603 87.355497 
L 196.24301 128.740114 
L 196.581418 93.733691 
L 196.919825 203.383627 
L 197.258233 88.963185 
L 197.935048 106.848729 
L 198.273455 97.241015 
L 198.611862 101.123214 
L 198.95027 102.653168 
L 199.288677 151.599817 
L 199.627085 87.903496 
L 199.965492 134.30599 
L 200.3039 238.178046 
L 200.642307 79.910879 
L 200.980714 79.463789 
L 201.319122 102.120064 
L 201.657529 86.871219 
L 201.995937 179.14024 
L 202.334344 84.980355 
L 202.672752 101.287763 
L 203.011159 132.192557 
L 203.687974 91.981146 
L 204.026381 117.871681 
L 204.364789 94.733248 
L 204.703196 90.873617 
L 205.041603 80.797291 
L 205.380011 113.605492 
L 205.718418 84.977212 
L 206.056826 83.253018 
L 206.395233 89.943607 
L 206.733641 80.117846 
L 207.072048 125.571035 
L 207.410455 148.195298 
L 207.748863 117.255609 
L 208.08727 147.770486 
L 208.425678 124.851596 
L 208.764085 88.691884 
L 209.102493 91.62552 
L 209.4409 302.645455 
L 209.779307 187.411391 
L 210.117715 211.071261 
L 210.456122 194.604637 
L 211.132937 73.311303 
L 211.471345 123.885316 
L 211.809752 84.451144 
L 212.148159 92.724968 
L 212.486567 78.897279 
L 212.824974 102.509571 
L 213.163382 94.162617 
L 214.178604 94.162617 
L 214.517011 78.830847 
L 214.855419 84.618206 
L 215.193826 81.940004 
L 215.532234 81.940004 
L 215.870641 104.292097 
L 216.547456 70.201358 
L 216.885863 80.359844 
L 217.224271 189.463604 
L 217.562678 94.349991 
L 217.901086 73.445311 
L 218.239493 161.569759 
L 218.5779 96.880124 
L 218.916308 80.73461 
L 219.254715 212.835606 
L 219.593123 125.781223 
L 219.93153 89.550238 
L 220.608345 144.470554 
L 220.946752 92.724968 
L 221.28516 103.30885 
L 221.623567 89.251437 
L 221.961975 92.724968 
L 222.300382 102.912144 
L 222.638789 83.695897 
L 222.977197 102.912144 
L 223.315604 77.036829 
L 223.654012 91.209802 
L 223.992419 99.699346 
L 224.330827 101.23576 
L 224.669234 86.743769 
L 225.007641 106.711731 
L 225.346049 86.335028 
L 225.684456 92.724968 
L 226.022864 88.702546 
L 226.361271 163.759391 
L 226.699679 88.735971 
L 227.038086 75.825211 
L 227.376493 85.987117 
L 227.714901 110.895344 
L 228.053308 85.957349 
L 228.391716 168.455254 
L 228.730123 98.170059 
L 229.068531 98.241856 
L 229.406938 101.031606 
L 229.745345 117.497831 
L 230.083753 88.746163 
L 230.42216 106.465064 
L 230.760568 92.724968 
L 231.098975 94.178513 
L 231.437382 242.757864 
L 231.77579 155.605835 
L 232.114197 120.653289 
L 232.452605 126.12931 
L 232.791012 92.656625 
L 233.12942 127.44538 
L 233.467827 104.15197 
L 233.806234 99.533126 
L 234.483049 99.533126 
L 234.821457 94.59913 
L 235.159864 82.096569 
L 235.498272 96.798888 
L 235.836679 120.27834 
L 236.175086 229.37382 
L 236.513494 138.735159 
L 236.851901 167.186685 
L 237.190309 295.516394 
L 237.528716 246.656884 
L 237.867124 118.211291 
L 238.205531 79.897684 
L 238.543938 86.37224 
L 238.882346 97.402316 
L 239.220753 73.354533 
L 239.559161 144.111827 
L 239.897568 63.687059 
L 240.235975 141.252941 
L 240.574383 60.069146 
L 240.91279 144.085263 
L 241.251198 128.138486 
L 241.589605 66.718906 
L 242.26642 177.26668 
L 242.604827 111.60955 
L 242.943235 112.949307 
L 243.281642 107.044842 
L 243.62005 76.803569 
L 243.958457 60.069146 
L 244.296865 171.619016 
L 244.635272 102.858246 
L 244.973679 121.763913 
L 245.312087 76.803569 
L 245.650494 77.042933 
L 246.327309 73.331045 
L 246.665717 153.719409 
L 247.004124 76.803569 
L 247.342531 89.287093 
L 247.680939 77.042933 
L 248.019346 104.673712 
L 248.357754 69.556265 
L 248.696161 73.331045 
L 249.034569 118.039852 
L 249.372976 69.505602 
L 249.711383 73.331045 
L 250.049791 135.658869 
L 250.388198 79.468126 
L 250.726606 60.909487 
L 251.065013 94.134677 
L 251.40342 149.338882 
L 251.741828 93.752545 
L 252.080235 74.242687 
L 252.418643 61.251052 
L 252.75705 135.658869 
L 253.095458 74.242687 
L 253.433865 77.372395 
L 253.772272 86.942546 
L 254.11068 106.78751 
L 254.449087 93.798381 
L 254.787495 74.242687 
L 255.125902 67.994283 
L 255.46431 74.338833 
L 255.802717 70.85275 
L 256.141124 187.252725 
L 256.479532 174.281457 
L 256.817939 91.568917 
L 257.156347 86.942507 
L 257.494754 93.49645 
L 257.833162 77.588015 
L 258.171569 70.92857 
L 258.509976 72.489294 
L 258.848384 106.78751 
L 259.186791 90.316882 
L 259.525199 63.521012 
L 259.863606 183.532943 
L 260.202013 160.031353 
L 260.540421 106.994265 
L 260.878828 117.06235 
L 261.217236 58.576978 
L 261.555643 115.683632 
L 261.894051 100.488366 
L 262.232458 93.630025 
L 262.570865 180.675803 
L 262.909273 115.050111 
L 263.24768 110.398806 
L 263.586088 77.297525 
L 263.924495 96.989085 
L 264.262903 102.855567 
L 264.60131 63.521012 
L 265.278125 90.026324 
L 265.616532 145.103937 
L 265.95494 113.844042 
L 266.293347 100.272403 
L 266.631755 93.546642 
L 266.970162 93.499447 
L 267.308569 71.162016 
L 267.646977 67.513815 
L 267.985384 153.025062 
L 268.323792 107.006558 
L 268.662199 118.925213 
L 269.000606 64.773476 
L 269.339014 109.686449 
L 269.677421 135.322532 
L 270.015829 67.339302 
L 270.354236 80.181054 
L 270.692644 60.856527 
L 271.031051 142.338609 
L 271.369458 63.521012 
L 271.707866 73.468135 
L 272.384681 121.584647 
L 272.723088 59.168982 
L 273.061496 153.935025 
L 273.399903 66.663661 
L 273.73831 59.168982 
L 274.076718 124.979431 
L 274.415125 59.168982 
L 274.753533 146.104297 
L 275.09194 59.168982 
L 275.430348 122.097805 
L 275.768755 80.053702 
L 276.107162 80.053702 
L 276.44557 89.801011 
L 276.783977 67.16274 
L 277.122385 110.706551 
L 277.799199 99.755755 
L 278.137607 118.364305 
L 278.476014 65.150129 
L 278.814422 67.16274 
L 279.152829 140.384796 
L 279.491237 62.219084 
L 279.829644 110.216941 
L 280.168051 77.546464 
L 280.506459 150.978019 
L 280.844866 90.417308 
L 281.183274 83.924252 
L 281.521681 81.827586 
L 281.860089 69.458449 
L 282.198496 78.442801 
L 282.536903 65.338675 
L 282.875311 170.969129 
L 283.213718 125.094289 
L 283.552126 140.675379 
L 283.890533 96.340043 
L 284.228941 94.42507 
L 284.567348 90.417308 
L 284.905755 71.293104 
L 285.244163 63.425842 
L 285.58257 67.337473 
L 285.920978 116.992503 
L 286.259385 78.754418 
L 286.597792 79.891112 
L 286.9362 65.720802 
L 287.274607 58.571322 
L 287.613015 153.964088 
L 287.951422 90.417308 
L 288.628237 63.425842 
L 288.966644 62.234432 
L 289.305052 153.653704 
L 289.643459 113.956331 
L 289.981867 90.417308 
L 290.320274 91.443239 
L 290.658682 81.228358 
L 290.997089 76.442437 
L 291.673904 76.442437 
L 292.012311 64.808726 
L 292.689126 88.18923 
L 293.027534 63.425842 
L 293.365941 149.275052 
L 293.704348 117.349436 
L 294.042756 127.200138 
L 294.381163 71.875784 
L 294.719571 63.425842 
L 295.057978 77.215973 
L 296.0732 77.215973 
L 296.411608 67.071652 
L 296.750015 61.060683 
L 297.088423 85.406428 
L 297.42683 67.16274 
L 297.765237 62.573814 
L 298.103645 180.001036 
L 298.442052 90.168651 
L 298.78046 76.249851 
L 299.118867 72.296863 
L 299.457275 63.425842 
L 299.795682 59.210035 
L 300.134089 158.496813 
L 300.472497 103.887755 
L 300.810904 103.883083 
L 301.149312 83.91262 
L 301.487719 84.158572 
L 301.826127 79.996475 
L 302.164534 82.561907 
L 302.502941 72.296863 
L 302.841349 85.453135 
L 303.179756 72.296863 
L 303.518164 80.116701 
L 303.856571 58.758197 
L 304.194978 159.037168 
L 304.533386 107.006069 
L 304.871793 86.972545 
L 305.210201 83.91262 
L 305.548608 70.77691 
L 305.887016 69.242965 
L 306.225423 75.531436 
L 306.56383 64.981444 
L 306.902238 70.08073 
L 307.240645 132.605652 
L 307.579053 76.249851 
L 307.91746 65.579108 
L 308.255868 64.981444 
L 308.594275 58.871341 
L 308.932682 126.822049 
L 309.27109 62.504962 
L 309.609497 79.400785 
L 309.947905 77.469797 
L 310.286312 61.229062 
L 310.62472 159.901206 
L 310.963127 103.592539 
L 311.301534 117.108508 
L 311.639942 106.395423 
L 312.316757 93.707157 
L 312.655164 61.300144 
L 312.993571 71.828154 
L 313.331979 65.238401 
L 313.670386 62.107816 
L 314.008794 64.271401 
L 314.347201 117.779578 
L 314.685609 65.280416 
L 315.024016 71.65701 
L 315.362423 159.664504 
L 315.700831 113.696299 
L 316.039238 110.395413 
L 316.377646 133.882612 
L 316.716053 104.904767 
L 317.054461 110.543949 
L 317.392868 87.518092 
L 317.731275 87.028084 
L 318.069683 100.585001 
L 318.40809 87.028084 
L 318.746498 100.511696 
L 319.084905 96.466213 
L 319.423313 97.074754 
L 319.76172 62.989023 
L 320.100127 68.651249 
L 320.438535 62.080683 
L 320.776942 65.5928 
L 321.11535 64.098081 
L 321.453757 110.957182 
L 321.792164 63.826283 
L 322.130572 171.600878 
L 322.468979 100.207773 
L 322.807387 86.828802 
L 323.145794 94.422501 
L 323.484202 97.712585 
L 323.822609 94.422501 
L 324.161016 100.98845 
L 324.837831 75.252872 
L 325.176239 78.411529 
L 325.514646 70.812267 
L 325.853054 80.415947 
L 326.191461 69.105349 
L 326.529868 71.116609 
L 326.868276 66.235751 
L 327.206683 126.126749 
L 327.545091 78.411529 
L 328.221906 59.671914 
L 328.560313 66.235751 
L 330.25235 66.235751 
L 330.590757 59.758098 
L 330.929165 140.782683 
L 331.267572 77.078909 
L 331.60598 73.728486 
L 331.944387 80.28044 
L 332.282795 71.450875 
L 332.621202 89.855908 
L 332.959609 75.215269 
L 333.298017 67.752805 
L 333.636424 154.847388 
L 333.974832 70.986908 
L 334.313239 84.151517 
L 334.651647 86.431291 
L 334.990054 115.694613 
L 335.328461 100.893983 
L 335.666869 107.006556 
L 336.005276 80.441038 
L 336.682091 80.441038 
L 337.020499 77.971186 
L 337.358906 68.068834 
L 337.697313 74.447034 
L 338.035721 120.096057 
L 338.374128 74.205689 
L 339.050943 74.227328 
L 339.38935 67.20352 
L 339.727758 71.116609 
L 340.066165 64.753234 
L 340.404573 82.234818 
L 340.74298 112.085778 
L 341.081388 73.067121 
L 341.419795 63.867769 
L 342.09661 108.933009 
L 342.435017 74.227328 
L 342.773425 74.227328 
L 343.111832 63.867769 
L 343.45024 119.880424 
L 343.788647 73.067121 
L 344.127054 70.890955 
L 344.465462 63.867769 
L 344.803869 63.104154 
L 345.142277 103.876247 
L 345.480684 71.116609 
L 345.819092 63.104154 
L 346.157499 149.21332 
L 346.495906 113.74786 
L 346.834314 100.354912 
L 347.172721 77.368831 
L 347.511129 63.675843 
L 347.849536 62.85028 
L 348.187943 109.520782 
L 348.526351 73.673467 
L 348.864758 88.764807 
L 349.203166 82.926468 
L 349.541573 111.561496 
L 349.879981 185.716207 
L 350.218388 157.44534 
L 350.556795 119.644023 
L 350.895203 106.315772 
L 351.23361 128.9618 
L 351.572018 128.9618 
L 351.910425 97.100736 
L 352.248833 77.573946 
L 352.58724 100.355554 
L 352.925647 76.922145 
L 353.264055 77.800329 
L 353.602462 74.042189 
L 353.94087 74.042189 
L 354.279277 81.15262 
L 354.617685 65.204138 
L 354.956092 69.651321 
L 355.294499 92.401604 
L 355.632907 97.42668 
L 356.309722 64.4013 
L 356.648129 107.276738 
L 356.986536 64.4013 
L 357.324944 67.480035 
L 358.340166 67.480035 
L 358.678574 59.449156 
L 359.016981 74.362403 
L 359.355388 68.22469 
L 359.693796 68.216249 
L 360.032203 79.800559 
L 360.370611 68.216249 
L 360.709018 181.711903 
L 361.385833 81.096906 
L 361.72424 100.277686 
L 362.062648 73.949126 
L 362.401055 73.949126 
L 362.739463 74.8094 
L 363.07787 67.07966 
L 363.416278 68.143544 
L 364.093092 68.143544 
L 364.4315 96.173156 
L 364.769907 61.40715 
L 365.108315 96.173156 
L 365.446722 74.362403 
L 365.785129 65.890994 
L 366.123537 85.260867 
L 366.461944 87.754717 
L 366.800352 82.109002 
L 367.477167 68.535071 
L 367.815574 88.881279 
L 368.153981 88.881279 
L 368.492389 121.839155 
L 368.830796 80.495812 
L 369.169204 82.109002 
L 369.507611 121.928339 
L 369.846019 103.614857 
L 370.184426 74.111229 
L 371.199648 74.111229 
L 371.538056 87.444601 
L 371.876463 70.514325 
L 372.214871 74.362403 
L 372.553278 73.729349 
L 372.891685 64.621779 
L 373.230093 108.499593 
L 373.5685 74.524084 
L 374.245315 72.76358 
L 374.583722 68.660882 
L 374.92213 73.652251 
L 375.260537 72.76358 
L 375.937352 64.835074 
L 376.27576 95.830186 
L 376.614167 77.487329 
L 376.952574 78.097442 
L 377.290982 73.652251 
L 377.629389 74.180251 
L 377.967797 89.563155 
L 378.306204 80.795385 
L 378.644612 80.288452 
L 378.983019 77.487329 
L 379.321426 87.810445 
L 379.659834 101.560182 
L 379.998241 80.124036 
L 380.675056 66.884988 
L 381.013464 77.247133 
L 381.351871 175.416823 
L 382.367093 103.619288 
L 383.043908 89.367384 
L 383.382315 90.429295 
L 383.720723 80.290377 
L 384.05913 84.292625 
L 384.397538 90.429295 
L 384.735945 84.292625 
L 385.074353 84.292625 
L 385.751167 65.408585 
L 386.089575 64.441739 
L 386.427982 68.418122 
L 386.76639 118.039059 
L 387.104797 65.408585 
L 387.443205 64.441739 
L 387.781612 78.513244 
L 388.120019 68.418122 
L 388.458427 63.890823 
L 388.796834 147.278545 
L 389.135242 117.087413 
L 389.473649 123.82293 
L 389.812057 66.560639 
L 390.150464 64.638626 
L 390.488871 137.010359 
L 390.827279 106.984953 
L 391.165686 90.51157 
L 391.504094 113.735485 
L 391.842501 95.781011 
L 392.180908 68.867383 
L 392.519316 93.268385 
L 392.857723 93.268385 
L 393.196131 108.499593 
L 393.534538 65.540034 
L 393.872946 108.499593 
L 394.211353 65.540034 
L 394.54976 98.24768 
L 394.888168 64.621779 
L 395.226575 77.657562 
L 395.564983 190.982013 
L 395.90339 143.186493 
L 396.241798 116.263172 
L 396.580205 103.844836 
L 396.918612 112.928611 
L 397.25702 109.528133 
L 397.595427 114.155351 
L 397.933835 112.928611 
L 398.61065 66.241972 
L 398.949057 76.746231 
L 399.287464 62.489608 
L 399.625872 77.657562 
L 399.964279 138.981821 
L 400.302687 67.716681 
L 400.641094 65.540034 
L 400.979501 102.182438 
L 401.317909 67.716681 
L 401.656316 62.489608 
L 401.994724 80.485036 
L 402.333131 108.711809 
L 402.671539 65.540034 
L 403.009946 62.489608 
L 403.348353 67.66559 
L 403.686761 95.339835 
L 404.025168 133.713912 
L 404.363576 67.716681 
L 404.701983 68.35612 
L 405.040391 65.421417 
L 405.378798 115.695327 
L 405.717205 67.716681 
L 406.055613 65.540034 
L 406.39402 65.421417 
L 406.732428 96.922045 
L 407.070835 68.35612 
L 407.409243 68.35612 
L 407.74765 65.421417 
L 408.086057 67.434318 
L 408.424465 67.434318 
L 408.762872 89.278031 
L 409.10128 68.35612 
L 409.439687 63.327443 
L 409.778094 71.509027 
L 410.116502 100.087649 
L 410.454909 62.489608 
L 410.793317 115.695327 
L 411.131724 93.74659 
L 411.470132 62.660874 
L 411.808539 65.540034 
L 412.146946 69.537019 
L 412.485354 61.369736 
L 412.823761 133.35845 
L 413.162169 56.009285 
L 413.500576 63.327443 
L 413.838984 113.830439 
L 414.177391 56.009285 
L 414.515798 74.659387 
L 414.854206 65.421417 
L 415.192613 82.697483 
L 415.531021 59.572754 
L 415.869428 145.531524 
L 416.207836 82.631104 
L 416.546243 129.640213 
L 417.561465 56.009285 
L 417.899873 68.181591 
L 418.23828 91.862589 
L 418.576687 91.862589 
L 418.915095 92.971422 
L 419.253502 151.36837 
L 419.59191 92.736873 
L 420.268725 56.009285 
L 420.607132 64.58317 
L 421.283947 133.783198 
L 421.960762 56.009285 
L 422.637577 81.72026 
L 422.975984 81.72026 
L 423.314391 173.667577 
L 423.652799 115.514564 
L 423.991206 117.07484 
L 424.329614 128.978382 
L 424.668021 102.09295 
L 425.006429 102.092951 
L 425.344836 80.370394 
L 425.683243 75.730366 
L 426.021651 75.730366 
L 426.360058 75.96927 
L 426.698466 75.730366 
L 427.036873 75.96927 
L 427.37528 71.118995 
L 427.713688 75.730366 
L 428.052095 71.118995 
L 428.390503 75.96927 
L 428.72891 77.606896 
L 429.067318 80.370394 
L 429.405725 77.606896 
L 429.744132 77.008185 
L 430.08254 71.118995 
L 430.420947 77.606896 
L 430.759355 90.191382 
L 431.43617 77.606896 
L 431.774577 103.653342 
L 432.112984 80.02849 
L 432.451392 67.08766 
L 432.789799 71.691237 
L 433.128207 67.08766 
L 433.466614 66.277476 
L 433.805022 81.025589 
L 434.143429 68.17536 
L 434.481836 128.677868 
L 434.820244 80.394443 
L 435.497059 66.538569 
L 435.835466 71.959228 
L 436.512281 71.959228 
L 436.850688 90.652652 
L 437.189096 68.02372 
L 437.527503 68.02372 
L 437.865911 83.626759 
L 438.204318 57.801777 
L 438.542725 109.79354 
L 438.881133 71.959228 
L 439.21954 79.954266 
L 439.896355 70.410487 
L 440.234763 57.801777 
L 440.57317 74.28616 
L 440.911577 72.39179 
L 441.249985 108.746125 
L 441.588392 68.02372 
L 442.265207 68.02372 
L 442.603615 87.211899 
L 443.280429 93.7931 
L 443.618837 100.285515 
L 443.957244 87.033783 
L 444.295652 107.205383 
L 444.972466 120.589119 
L 445.310874 116.305206 
L 445.649281 82.061928 
L 445.987689 110.569592 
L 446.326096 107.224573 
L 447.002911 82.061928 
L 447.341318 110.569592 
L 447.679726 87.033783 
L 448.018133 107.221418 
L 448.356541 97.31336 
L 448.694948 93.728297 
L 449.033356 68.02372 
L 449.71017 68.02372 
L 450.048578 91.987497 
L 450.386985 70.26085 
L 450.725393 87.839472 
L 451.0638 64.724969 
L 451.402208 133.445126 
L 451.740615 103.808395 
L 452.079022 102.873109 
L 452.41743 97.122265 
L 452.755837 97.05946 
L 453.094245 69.781004 
L 453.432652 70.26085 
L 453.771059 120.654838 
L 454.109467 87.298703 
L 454.447874 77.859995 
L 454.786282 87.987119 
L 455.124689 107.587079 
L 455.463097 77.859995 
L 455.801504 64.724969 
L 456.139911 71.571306 
L 456.478319 85.338615 
L 456.816726 65.410146 
L 457.155134 111.580959 
L 457.831949 67.886755 
L 458.170356 69.264046 
L 458.508763 116.596611 
L 458.847171 90.409769 
L 459.185578 90.138936 
L 459.523986 70.26085 
L 459.862393 71.571306 
L 460.200801 85.444103 
L 460.539208 69.264046 
L 460.877615 72.765673 
L 461.216023 71.571306 
L 461.55443 68.827915 
L 461.892838 74.833134 
L 462.231245 139.688602 
L 462.569652 107.161028 
L 462.90806 103.794463 
L 463.246467 94.030778 
L 463.584875 76.100968 
L 463.923282 72.952221 
L 464.26169 118.515303 
L 464.600097 89.569812 
L 464.938504 72.819265 
L 465.615319 62.913818 
L 465.953727 62.490053 
L 466.292134 136.766907 
L 466.630542 88.161881 
L 466.968949 83.711723 
L 467.307356 84.233554 
L 467.645764 91.114395 
L 467.984171 103.96409 
L 468.322579 68.037835 
L 468.660986 81.657415 
L 468.999394 60.892963 
L 469.337801 76.138303 
L 469.676208 121.666932 
L 470.014616 68.638203 
L 470.353023 68.777115 
L 470.691431 72.944143 
L 471.029838 62.490053 
L 471.368245 115.888084 
L 471.706653 62.84279 
L 472.04506 81.296923 
L 472.383468 70.710746 
L 472.721875 72.944143 
L 473.060283 62.490053 
L 473.39869 143.704966 
L 473.737097 75.263259 
L 474.075505 88.877082 
L 474.413912 62.84279 
L 474.75232 81.296923 
L 475.090727 77.205394 
L 475.429135 96.894617 
L 476.105949 70.710746 
L 476.444357 72.944143 
L 476.782764 72.944143 
L 477.121172 91.161812 
L 477.459579 87.304052 
L 477.797987 87.304052 
L 478.136394 72.944143 
L 478.474801 131.364332 
L 478.813209 80.938869 
L 479.151616 85.394526 
L 479.490024 82.000117 
L 479.828431 81.901332 
L 480.166838 80.678113 
L 480.505246 95.819432 
L 480.843653 66.068823 
L 481.182061 91.708207 
L 481.520468 85.259855 
L 481.858876 81.901332 
L 482.197283 91.708207 
L 482.53569 66.068823 
L 482.874098 72.302356 
L 483.212505 70.646086 
L 483.550913 137.850077 
L 483.88932 80.643119 
L 484.227728 80.938869 
L 484.566135 66.068823 
L 484.904542 61.346074 
L 485.24295 89.242845 
L 485.581357 59.277105 
L 485.919765 133.334584 
L 486.258172 73.974618 
L 486.59658 68.821294 
L 486.934987 69.775978 
L 487.950209 69.775978 
L 488.288617 67.902553 
L 488.627024 72.302356 
L 489.303839 66.594381 
L 489.642246 79.600856 
L 490.657469 59.277105 
L 490.995876 89.242845 
L 491.334283 59.277105 
L 491.672691 122.690473 
L 492.011098 72.302356 
L 492.349506 69.775978 
L 492.687913 83.87372 
L 493.026321 72.302356 
L 493.364728 69.775978 
L 493.703135 83.87372 
L 494.041543 72.302356 
L 494.37995 66.594381 
L 494.718358 68.369178 
L 495.056765 68.369178 
L 495.395173 59.277105 
L 495.73358 106.892383 
L 496.071987 80.062546 
L 496.410395 72.302356 
L 496.748802 72.897106 
L 497.08721 142.685634 
L 497.425617 87.130284 
L 497.764025 97.22912 
L 498.102432 88.681017 
L 498.440839 87.130284 
L 498.779247 88.681017 
L 499.117654 97.506483 
L 499.456062 84.498653 
L 499.794469 64.262312 
L 500.132876 72.153527 
L 500.471284 59.277105 
L 500.809691 110.980698 
L 501.148099 99.331045 
L 501.486506 61.668586 
L 501.824914 72.897106 
L 502.163321 59.277105 
L 502.501728 157.108529 
L 503.178543 78.464205 
L 503.516951 60.236556 
L 503.855358 75.487312 
L 504.193766 157.91683 
L 504.532173 133.876788 
L 504.87058 88.872726 
L 505.208988 106.451882 
L 505.547395 82.982637 
L 505.885803 74.337774 
L 506.22421 71.192761 
L 506.562618 77.031657 
L 506.901025 77.031657 
L 507.239432 69.444377 
L 507.57784 77.031657 
L 507.916247 69.444377 
L 509.269877 69.444377 
L 509.608284 78.880569 
L 509.946692 106.404855 
L 510.285099 74.01699 
L 510.623507 79.79959 
L 510.961914 69.878031 
L 511.300321 65.753747 
L 511.638729 70.348586 
L 511.977136 70.348586 
L 512.315544 67.489152 
L 512.653951 83.87372 
L 512.992359 79.79959 
L 513.330766 69.878031 
L 513.669173 67.315793 
L 514.007581 85.52295 
L 514.345988 63.032873 
L 514.684396 113.21196 
L 515.022803 79.329961 
L 515.361211 71.213854 
L 515.699618 68.376359 
L 516.038025 70.151533 
L 516.376433 70.151533 
L 517.053248 64.892494 
L 517.391655 70.348586 
L 517.730062 87.154945 
L 518.06847 81.990327 
L 518.406877 67.452536 
L 518.745285 160.835435 
L 519.4221 77.35925 
L 519.760507 62.84279 
L 520.098914 68.96215 
L 520.437322 68.603034 
L 520.775729 101.208599 
L 521.114137 68.96215 
L 521.452544 107.957909 
L 521.790952 62.84279 
L 522.129359 68.96215 
L 522.467766 79.922463 
L 522.806174 107.957909 
L 523.144581 62.84279 
L 523.482989 63.005772 
L 523.821396 65.630079 
L 524.159804 128.797298 
L 524.498211 68.376359 
L 524.836618 68.376359 
L 525.175026 63.806655 
L 525.513433 64.379245 
L 525.851841 101.836273 
L 526.190248 117.318267 
L 526.528655 62.84279 
L 527.20547 75.018758 
L 527.543878 73.245145 
L 527.882285 62.627561 
L 528.220693 70.159947 
L 528.5591 178.798825 
L 529.235915 115.466898 
L 529.574322 115.466898 
L 529.91273 103.804136 
L 530.251137 117.036622 
L 530.589545 90.016186 
L 530.927952 85.667989 
L 531.266359 85.667989 
L 531.604767 96.779127 
L 531.943174 85.667989 
L 532.281582 96.779127 
L 532.619989 85.667989 
L 532.958397 96.779127 
L 533.296804 85.667989 
L 533.635211 79.605584 
L 533.973619 59.463277 
L 534.312026 95.035459 
L 534.650434 85.946272 
L 535.665656 85.946272 
L 536.004063 78.777008 
L 536.342471 95.44493 
L 536.680878 91.363381 
L 537.357693 65.252887 
L 537.6961 78.777008 
L 538.034508 62.259527 
L 538.372915 145.860699 
L 538.711323 70.65883 
L 539.04973 88.021286 
L 539.388138 80.981278 
L 539.726545 88.028309 
L 540.064952 70.65883 
L 540.741767 88.028309 
L 541.080175 70.65883 
L 541.418582 80.981278 
L 541.75699 65.918553 
L 542.095397 59.463277 
L 542.433804 168.035389 
L 543.110619 80.106984 
L 544.125841 80.106984 
L 544.464249 93.560029 
L 544.802656 93.560029 
L 545.141064 83.517709 
L 545.479471 77.580718 
L 545.817879 77.580718 
L 546.156286 75.252397 
L 546.494693 70.985068 
L 546.833101 70.985068 
L 547.171508 74.258624 
L 547.509916 74.258624 
L 547.848323 68.045525 
L 548.525138 68.045525 
L 549.201953 83.908112 
L 549.54036 75.271716 
L 549.878768 77.126175 
L 550.217175 77.402195 
L 550.555583 77.402195 
L 550.89399 64.866089 
L 551.232397 77.402195 
L 551.570805 77.402195 
L 551.909212 123.202108 
L 552.24762 77.126175 
L 552.586027 77.402195 
L 552.924434 83.667538 
L 553.262842 70.016559 
L 553.601249 161.174941 
L 554.278064 80.625031 
L 555.293286 80.677889 
L 555.631694 78.992939 
L 555.970101 65.816139 
L 556.308509 77.264966 
L 556.646916 75.54728 
L 556.985324 75.54728 
L 557.323731 88.922808 
L 557.662138 95.348077 
L 558.000546 75.161014 
L 558.338953 99.776557 
L 558.677361 76.984487 
L 559.015768 77.402195 
L 559.354176 75.650544 
L 559.692583 73.272063 
L 560.03099 102.574639 
L 560.369398 71.970515 
L 560.707805 99.270495 
L 561.046213 66.022979 
L 561.38462 75.54728 
L 562.061435 101.177436 
L 562.399842 71.691874 
L 562.73825 67.745236 
L 563.076657 67.745236 
L 563.415065 77.597413 
L 563.753472 66.022979 
L 564.091879 64.866089 
L 564.430287 99.776557 
L 564.768694 75.161014 
L 565.107102 76.293702 
L 565.445509 88.922808 
L 565.783917 65.850872 
L 566.122324 65.049724 
L 566.460731 70.384283 
L 566.799139 127.882139 
L 567.137546 74.627822 
L 567.475954 67.745236 
L 568.491176 67.745236 
L 568.829583 68.118946 
L 569.167991 88.295198 
L 569.506398 68.932902 
L 569.844806 62.957989 
L 570.183213 65.923354 
L 570.52162 131.882798 
L 570.860028 68.118946 
L 571.198435 68.118946 
L 571.536843 75.349691 
L 571.87525 114.58128 
L 572.552065 73.335143 
L 572.890472 63.911679 
L 573.22888 75.349691 
L 573.567287 95.157757 
L 573.905695 68.118946 
L 574.244102 63.911679 
L 574.58251 63.911679 
L 574.920917 70.708139 
L 575.597732 66.03065 
L 575.936139 112.373728 
L 576.274547 67.842387 
L 576.612954 69.638337 
L 576.951362 70.813774 
L 577.628176 70.813774 
L 577.966584 69.638337 
L 578.304991 65.597005 
L 578.981806 71.36933 
L 579.658621 71.36933 
L 579.997028 83.071127 
L 580.335436 62.272917 
L 580.673843 96.699193 
L 581.012251 69.638337 
L 581.350658 65.902211 
L 581.689065 73.715712 
L 582.027473 65.597005 
L 582.36588 63.70218 
L 582.704288 125.46899 
L 583.381103 71.083802 
L 583.71951 71.041813 
L 584.057917 72.308402 
L 584.396325 78.484455 
L 584.734732 69.638337 
L 585.07314 72.300961 
L 585.411547 65.597005 
L 585.749955 101.619228 
L 586.088362 78.484455 
L 586.426769 71.041813 
L 586.765177 71.041813 
L 587.103584 72.308402 
L 587.441992 78.484455 
L 587.780399 69.638337 
L 588.118806 121.515404 
L 588.457214 110.298263 
L 588.795621 64.682718 
L 589.134029 84.208416 
L 589.472436 78.901537 
L 589.810844 101.858728 
L 590.149251 74.559784 
L 590.487658 84.208416 
L 590.826066 72.727714 
L 591.164473 72.727714 
L 591.502881 67.580496 
L 591.841288 72.727714 
L 592.179696 72.727714 
L 592.518103 69.95329 
L 592.85651 60.236111 
L 593.194918 138.973826 
L 593.533325 93.48452 
L 594.548548 93.48452 
L 594.886955 96.822247 
L 595.225362 84.063922 
L 596.917399 84.063922 
L 597.594214 97.643024 
L 597.932622 73.297357 
L 598.271029 66.913072 
L 598.609437 77.143257 
L 598.947844 78.940238 
L 599.286251 69.020059 
L 599.624659 74.093481 
L 599.963066 75.136638 
L 600.301474 79.986366 
L 600.639881 78.940238 
L 600.978289 69.012192 
L 601.316696 74.093481 
L 601.993511 68.320517 
L 602.331918 82.663894 
L 603.008733 82.663894 
L 603.347141 120.743279 
L 603.685548 84.445753 
L 604.023955 74.808239 
L 604.362363 74.808239 
L 605.039178 92.112583 
L 605.377585 90.840354 
L 605.715992 74.83023 
L 606.0544 92.112583 
L 606.392807 77.506037 
L 606.731215 77.506037 
L 607.40803 65.901689 
L 608.084844 79.174074 
L 608.423252 65.901689 
L 608.761659 65.901689 
L 609.100067 68.641663 
L 609.438474 65.901689 
L 611.130511 65.901689 
L 611.807326 97.625451 
L 612.145734 60.414999 
L 612.484141 68.932902 
L 612.822548 88.972923 
L 613.160956 68.932902 
L 613.499363 88.972923 
L 613.837771 134.058163 
L 614.176178 74.148339 
L 614.514585 74.148339 
L 614.852993 80.924229 
L 615.529808 74.148339 
L 615.868215 80.924229 
L 616.206623 55.554545 
L 616.54503 68.932902 
L 616.883437 96.81009 
L 617.221845 68.932902 
L 617.560252 85.133726 
L 617.89866 162.989906 
L 618.237067 129.712983 
L 618.575475 57.819861 
L 618.913882 63.708725 
L 619.252289 116.308975 
L 619.590697 72.177189 
L 619.929104 89.264404 
L 620.267512 88.972923 
L 620.605919 93.054341 
L 620.944327 61.11442 
L 621.282734 60.191419 
L 621.621141 124.229284 
L 621.959549 61.785129 
L 622.297956 60.191419 
L 622.636364 129.470588 
L 622.636364 129.470588 
" style="fill:none;stroke:#1f77b4;stroke-linecap:square;stroke-width:1.5;"/>
   </g>
   <g id="patch_3">
    <path d="M 90 315 
L 90 43.2 
" style="fill:none;stroke:#000000;stroke-linecap:square;stroke-linejoin:miter;stroke-width:0.8;"/>
   </g>
   <g id="patch_4">
    <path d="M 648 315 
L 648 43.2 
" style="fill:none;stroke:#000000;stroke-linecap:square;stroke-linejoin:miter;stroke-width:0.8;"/>
   </g>
   <g id="patch_5">
    <path d="M 90 315 
L 648 315 
" style="fill:none;stroke:#000000;stroke-linecap:square;stroke-linejoin:miter;stroke-width:0.8;"/>
   </g>
   <g id="patch_6">
    <path d="M 90 43.2 
L 648 43.2 
" style="fill:none;stroke:#000000;stroke-linecap:square;stroke-linejoin:miter;stroke-width:0.8;"/>
   </g>
   <g id="text_19">
    <!-- Episode Reward over Time (Smoothed over window size 1) -->
    <defs>
     <path d="M 2.984375 54.6875 
L 12.5 54.6875 
L 29.59375 8.796875 
L 46.6875 54.6875 
L 56.203125 54.6875 
L 35.6875 0 
L 23.484375 0 
z
" id="DejaVuSans-118"/>
     <path d="M -0.296875 72.90625 
L 61.375 72.90625 
L 61.375 64.59375 
L 35.5 64.59375 
L 35.5 0 
L 25.59375 0 
L 25.59375 64.59375 
L -0.296875 64.59375 
z
" id="DejaVuSans-84"/>
     <path d="M 54.890625 33.015625 
L 54.890625 0 
L 45.90625 0 
L 45.90625 32.71875 
Q 45.90625 40.484375 42.875 44.328125 
Q 39.84375 48.1875 33.796875 48.1875 
Q 26.515625 48.1875 22.3125 43.546875 
Q 18.109375 38.921875 18.109375 30.90625 
L 18.109375 0 
L 9.078125 0 
L 9.078125 54.6875 
L 18.109375 54.6875 
L 18.109375 46.1875 
Q 21.34375 51.125 25.703125 53.5625 
Q 30.078125 56 35.796875 56 
Q 45.21875 56 50.046875 50.171875 
Q 54.890625 44.34375 54.890625 33.015625 
z
" id="DejaVuSans-110"/>
     <path d="M 5.515625 54.6875 
L 48.1875 54.6875 
L 48.1875 46.484375 
L 14.40625 7.171875 
L 48.1875 7.171875 
L 48.1875 0 
L 4.296875 0 
L 4.296875 8.203125 
L 38.09375 47.515625 
L 5.515625 47.515625 
z
" id="DejaVuSans-122"/>
    </defs>
    <g transform="translate(192.289688 37.2)scale(0.12 -0.12)">
     <use xlink:href="#DejaVuSans-69"/>
     <use x="63.183594" xlink:href="#DejaVuSans-112"/>
     <use x="126.660156" xlink:href="#DejaVuSans-105"/>
     <use x="154.443359" xlink:href="#DejaVuSans-115"/>
     <use x="206.542969" xlink:href="#DejaVuSans-111"/>
     <use x="267.724609" xlink:href="#DejaVuSans-100"/>
     <use x="331.201172" xlink:href="#DejaVuSans-101"/>
     <use x="392.724609" xlink:href="#DejaVuSans-32"/>
     <use x="424.511719" xlink:href="#DejaVuSans-82"/>
     <use x="493.931641" xlink:href="#DejaVuSans-101"/>
     <use x="555.455078" xlink:href="#DejaVuSans-119"/>
     <use x="637.242188" xlink:href="#DejaVuSans-97"/>
     <use x="698.521484" xlink:href="#DejaVuSans-114"/>
     <use x="739.619141" xlink:href="#DejaVuSans-100"/>
     <use x="803.095703" xlink:href="#DejaVuSans-32"/>
     <use x="834.882812" xlink:href="#DejaVuSans-111"/>
     <use x="896.064453" xlink:href="#DejaVuSans-118"/>
     <use x="955.244141" xlink:href="#DejaVuSans-101"/>
     <use x="1016.767578" xlink:href="#DejaVuSans-114"/>
     <use x="1057.880859" xlink:href="#DejaVuSans-32"/>
     <use x="1089.667969" xlink:href="#DejaVuSans-84"/>
     <use x="1150.705078" xlink:href="#DejaVuSans-105"/>
     <use x="1178.488281" xlink:href="#DejaVuSans-109"/>
     <use x="1275.900391" xlink:href="#DejaVuSans-101"/>
     <use x="1337.423828" xlink:href="#DejaVuSans-32"/>
     <use x="1369.210938" xlink:href="#DejaVuSans-40"/>
     <use x="1408.224609" xlink:href="#DejaVuSans-83"/>
     <use x="1471.701172" xlink:href="#DejaVuSans-109"/>
     <use x="1569.113281" xlink:href="#DejaVuSans-111"/>
     <use x="1630.294922" xlink:href="#DejaVuSans-111"/>
     <use x="1691.476562" xlink:href="#DejaVuSans-116"/>
     <use x="1730.685547" xlink:href="#DejaVuSans-104"/>
     <use x="1794.064453" xlink:href="#DejaVuSans-101"/>
     <use x="1855.587891" xlink:href="#DejaVuSans-100"/>
     <use x="1919.064453" xlink:href="#DejaVuSans-32"/>
     <use x="1950.851562" xlink:href="#DejaVuSans-111"/>
     <use x="2012.033203" xlink:href="#DejaVuSans-118"/>
     <use x="2071.212891" xlink:href="#DejaVuSans-101"/>
     <use x="2132.736328" xlink:href="#DejaVuSans-114"/>
     <use x="2173.849609" xlink:href="#DejaVuSans-32"/>
     <use x="2205.636719" xlink:href="#DejaVuSans-119"/>
     <use x="2287.423828" xlink:href="#DejaVuSans-105"/>
     <use x="2315.207031" xlink:href="#DejaVuSans-110"/>
     <use x="2378.585938" xlink:href="#DejaVuSans-100"/>
     <use x="2442.0625" xlink:href="#DejaVuSans-111"/>
     <use x="2503.244141" xlink:href="#DejaVuSans-119"/>
     <use x="2585.03125" xlink:href="#DejaVuSans-32"/>
     <use x="2616.818359" xlink:href="#DejaVuSans-115"/>
     <use x="2668.917969" xlink:href="#DejaVuSans-105"/>
     <use x="2696.701172" xlink:href="#DejaVuSans-122"/>
     <use x="2749.191406" xlink:href="#DejaVuSans-101"/>
     <use x="2810.714844" xlink:href="#DejaVuSans-32"/>
     <use x="2842.501953" xlink:href="#DejaVuSans-49"/>
     <use x="2906.125" xlink:href="#DejaVuSans-41"/>
    </g>
   </g>
  </g>
 </g>
 <defs>
  <clipPath id="p24114ca836">
   <rect height="271.8" width="558" x="90" y="43.2"/>
  </clipPath>
 </defs>
</svg>
