<?xml version="1.0" encoding="utf-8" standalone="no"?>
<!DOCTYPE svg PUBLIC "-//W3C//DTD SVG 1.1//EN"
  "http://www.w3.org/Graphics/SVG/1.1/DTD/svg11.dtd">
<!-- Created with matplotlib (https://matplotlib.org/) -->
<svg height="360pt" version="1.1" viewBox="0 0 720 360" width="720pt" xmlns="http://www.w3.org/2000/svg" xmlns:xlink="http://www.w3.org/1999/xlink">
 <defs>
  <style type="text/css">
*{stroke-linecap:butt;stroke-linejoin:round;white-space:pre;}
  </style>
 </defs>
 <g id="figure_1">
  <g id="patch_1">
   <path d="M 0 360 
L 720 360 
L 720 0 
L 0 0 
z
" style="fill:#ffffff;"/>
  </g>
  <g id="axes_1">
   <g id="patch_2">
    <path d="M 90 315 
L 648 315 
L 648 43.2 
L 90 43.2 
z
" style="fill:#ffffff;"/>
   </g>
   <g id="matplotlib.axis_1">
    <g id="xtick_1">
     <g id="line2d_1">
      <path clip-path="url(#pa84d2a1d60)" d="M 115.363636 315 
L 115.363636 43.2 
" style="fill:none;stroke:#b0b0b0;stroke-linecap:square;stroke-width:0.8;"/>
     </g>
     <g id="line2d_2">
      <defs>
       <path d="M 0 0 
L 0 3.5 
" id="m1e2a3d8afe" style="stroke:#000000;stroke-width:0.8;"/>
      </defs>
      <g>
       <use style="stroke:#000000;stroke-width:0.8;" x="115.363636" xlink:href="#m1e2a3d8afe" y="315"/>
      </g>
     </g>
     <g id="text_1">
      <!-- 0 -->
      <defs>
       <path d="M 31.78125 66.40625 
Q 24.171875 66.40625 20.328125 58.90625 
Q 16.5 51.421875 16.5 36.375 
Q 16.5 21.390625 20.328125 13.890625 
Q 24.171875 6.390625 31.78125 6.390625 
Q 39.453125 6.390625 43.28125 13.890625 
Q 47.125 21.390625 47.125 36.375 
Q 47.125 51.421875 43.28125 58.90625 
Q 39.453125 66.40625 31.78125 66.40625 
z
M 31.78125 74.21875 
Q 44.046875 74.21875 50.515625 64.515625 
Q 56.984375 54.828125 56.984375 36.375 
Q 56.984375 17.96875 50.515625 8.265625 
Q 44.046875 -1.421875 31.78125 -1.421875 
Q 19.53125 -1.421875 13.0625 8.265625 
Q 6.59375 17.96875 6.59375 36.375 
Q 6.59375 54.828125 13.0625 64.515625 
Q 19.53125 74.21875 31.78125 74.21875 
z
" id="DejaVuSans-48"/>
      </defs>
      <g transform="translate(112.182386 329.598437)scale(0.1 -0.1)">
       <use xlink:href="#DejaVuSans-48"/>
      </g>
     </g>
    </g>
    <g id="xtick_2">
     <g id="line2d_3">
      <path clip-path="url(#pa84d2a1d60)" d="M 183.045121 315 
L 183.045121 43.2 
" style="fill:none;stroke:#b0b0b0;stroke-linecap:square;stroke-width:0.8;"/>
     </g>
     <g id="line2d_4">
      <g>
       <use style="stroke:#000000;stroke-width:0.8;" x="183.045121" xlink:href="#m1e2a3d8afe" y="315"/>
      </g>
     </g>
     <g id="text_2">
      <!-- 200 -->
      <defs>
       <path d="M 19.1875 8.296875 
L 53.609375 8.296875 
L 53.609375 0 
L 7.328125 0 
L 7.328125 8.296875 
Q 12.9375 14.109375 22.625 23.890625 
Q 32.328125 33.6875 34.8125 36.53125 
Q 39.546875 41.84375 41.421875 45.53125 
Q 43.3125 49.21875 43.3125 52.78125 
Q 43.3125 58.59375 39.234375 62.25 
Q 35.15625 65.921875 28.609375 65.921875 
Q 23.96875 65.921875 18.8125 64.3125 
Q 13.671875 62.703125 7.8125 59.421875 
L 7.8125 69.390625 
Q 13.765625 71.78125 18.9375 73 
Q 24.125 74.21875 28.421875 74.21875 
Q 39.75 74.21875 46.484375 68.546875 
Q 53.21875 62.890625 53.21875 53.421875 
Q 53.21875 48.921875 51.53125 44.890625 
Q 49.859375 40.875 45.40625 35.40625 
Q 44.1875 33.984375 37.640625 27.21875 
Q 31.109375 20.453125 19.1875 8.296875 
z
" id="DejaVuSans-50"/>
      </defs>
      <g transform="translate(173.501371 329.598437)scale(0.1 -0.1)">
       <use xlink:href="#DejaVuSans-50"/>
       <use x="63.623047" xlink:href="#DejaVuSans-48"/>
       <use x="127.246094" xlink:href="#DejaVuSans-48"/>
      </g>
     </g>
    </g>
    <g id="xtick_3">
     <g id="line2d_5">
      <path clip-path="url(#pa84d2a1d60)" d="M 250.726606 315 
L 250.726606 43.2 
" style="fill:none;stroke:#b0b0b0;stroke-linecap:square;stroke-width:0.8;"/>
     </g>
     <g id="line2d_6">
      <g>
       <use style="stroke:#000000;stroke-width:0.8;" x="250.726606" xlink:href="#m1e2a3d8afe" y="315"/>
      </g>
     </g>
     <g id="text_3">
      <!-- 400 -->
      <defs>
       <path d="M 37.796875 64.3125 
L 12.890625 25.390625 
L 37.796875 25.390625 
z
M 35.203125 72.90625 
L 47.609375 72.90625 
L 47.609375 25.390625 
L 58.015625 25.390625 
L 58.015625 17.1875 
L 47.609375 17.1875 
L 47.609375 0 
L 37.796875 0 
L 37.796875 17.1875 
L 4.890625 17.1875 
L 4.890625 26.703125 
z
" id="DejaVuSans-52"/>
      </defs>
      <g transform="translate(241.182856 329.598437)scale(0.1 -0.1)">
       <use xlink:href="#DejaVuSans-52"/>
       <use x="63.623047" xlink:href="#DejaVuSans-48"/>
       <use x="127.246094" xlink:href="#DejaVuSans-48"/>
      </g>
     </g>
    </g>
    <g id="xtick_4">
     <g id="line2d_7">
      <path clip-path="url(#pa84d2a1d60)" d="M 318.40809 315 
L 318.40809 43.2 
" style="fill:none;stroke:#b0b0b0;stroke-linecap:square;stroke-width:0.8;"/>
     </g>
     <g id="line2d_8">
      <g>
       <use style="stroke:#000000;stroke-width:0.8;" x="318.40809" xlink:href="#m1e2a3d8afe" y="315"/>
      </g>
     </g>
     <g id="text_4">
      <!-- 600 -->
      <defs>
       <path d="M 33.015625 40.375 
Q 26.375 40.375 22.484375 35.828125 
Q 18.609375 31.296875 18.609375 23.390625 
Q 18.609375 15.53125 22.484375 10.953125 
Q 26.375 6.390625 33.015625 6.390625 
Q 39.65625 6.390625 43.53125 10.953125 
Q 47.40625 15.53125 47.40625 23.390625 
Q 47.40625 31.296875 43.53125 35.828125 
Q 39.65625 40.375 33.015625 40.375 
z
M 52.59375 71.296875 
L 52.59375 62.3125 
Q 48.875 64.0625 45.09375 64.984375 
Q 41.3125 65.921875 37.59375 65.921875 
Q 27.828125 65.921875 22.671875 59.328125 
Q 17.53125 52.734375 16.796875 39.40625 
Q 19.671875 43.65625 24.015625 45.921875 
Q 28.375 48.1875 33.59375 48.1875 
Q 44.578125 48.1875 50.953125 41.515625 
Q 57.328125 34.859375 57.328125 23.390625 
Q 57.328125 12.15625 50.6875 5.359375 
Q 44.046875 -1.421875 33.015625 -1.421875 
Q 20.359375 -1.421875 13.671875 8.265625 
Q 6.984375 17.96875 6.984375 36.375 
Q 6.984375 53.65625 15.1875 63.9375 
Q 23.390625 74.21875 37.203125 74.21875 
Q 40.921875 74.21875 44.703125 73.484375 
Q 48.484375 72.75 52.59375 71.296875 
z
" id="DejaVuSans-54"/>
      </defs>
      <g transform="translate(308.86434 329.598437)scale(0.1 -0.1)">
       <use xlink:href="#DejaVuSans-54"/>
       <use x="63.623047" xlink:href="#DejaVuSans-48"/>
       <use x="127.246094" xlink:href="#DejaVuSans-48"/>
      </g>
     </g>
    </g>
    <g id="xtick_5">
     <g id="line2d_9">
      <path clip-path="url(#pa84d2a1d60)" d="M 386.089575 315 
L 386.089575 43.2 
" style="fill:none;stroke:#b0b0b0;stroke-linecap:square;stroke-width:0.8;"/>
     </g>
     <g id="line2d_10">
      <g>
       <use style="stroke:#000000;stroke-width:0.8;" x="386.089575" xlink:href="#m1e2a3d8afe" y="315"/>
      </g>
     </g>
     <g id="text_5">
      <!-- 800 -->
      <defs>
       <path d="M 31.78125 34.625 
Q 24.75 34.625 20.71875 30.859375 
Q 16.703125 27.09375 16.703125 20.515625 
Q 16.703125 13.921875 20.71875 10.15625 
Q 24.75 6.390625 31.78125 6.390625 
Q 38.8125 6.390625 42.859375 10.171875 
Q 46.921875 13.96875 46.921875 20.515625 
Q 46.921875 27.09375 42.890625 30.859375 
Q 38.875 34.625 31.78125 34.625 
z
M 21.921875 38.8125 
Q 15.578125 40.375 12.03125 44.71875 
Q 8.5 49.078125 8.5 55.328125 
Q 8.5 64.0625 14.71875 69.140625 
Q 20.953125 74.21875 31.78125 74.21875 
Q 42.671875 74.21875 48.875 69.140625 
Q 55.078125 64.0625 55.078125 55.328125 
Q 55.078125 49.078125 51.53125 44.71875 
Q 48 40.375 41.703125 38.8125 
Q 48.828125 37.15625 52.796875 32.3125 
Q 56.78125 27.484375 56.78125 20.515625 
Q 56.78125 9.90625 50.3125 4.234375 
Q 43.84375 -1.421875 31.78125 -1.421875 
Q 19.734375 -1.421875 13.25 4.234375 
Q 6.78125 9.90625 6.78125 20.515625 
Q 6.78125 27.484375 10.78125 32.3125 
Q 14.796875 37.15625 21.921875 38.8125 
z
M 18.3125 54.390625 
Q 18.3125 48.734375 21.84375 45.5625 
Q 25.390625 42.390625 31.78125 42.390625 
Q 38.140625 42.390625 41.71875 45.5625 
Q 45.3125 48.734375 45.3125 54.390625 
Q 45.3125 60.0625 41.71875 63.234375 
Q 38.140625 66.40625 31.78125 66.40625 
Q 25.390625 66.40625 21.84375 63.234375 
Q 18.3125 60.0625 18.3125 54.390625 
z
" id="DejaVuSans-56"/>
      </defs>
      <g transform="translate(376.545825 329.598437)scale(0.1 -0.1)">
       <use xlink:href="#DejaVuSans-56"/>
       <use x="63.623047" xlink:href="#DejaVuSans-48"/>
       <use x="127.246094" xlink:href="#DejaVuSans-48"/>
      </g>
     </g>
    </g>
    <g id="xtick_6">
     <g id="line2d_11">
      <path clip-path="url(#pa84d2a1d60)" d="M 453.771059 315 
L 453.771059 43.2 
" style="fill:none;stroke:#b0b0b0;stroke-linecap:square;stroke-width:0.8;"/>
     </g>
     <g id="line2d_12">
      <g>
       <use style="stroke:#000000;stroke-width:0.8;" x="453.771059" xlink:href="#m1e2a3d8afe" y="315"/>
      </g>
     </g>
     <g id="text_6">
      <!-- 1000 -->
      <defs>
       <path d="M 12.40625 8.296875 
L 28.515625 8.296875 
L 28.515625 63.921875 
L 10.984375 60.40625 
L 10.984375 69.390625 
L 28.421875 72.90625 
L 38.28125 72.90625 
L 38.28125 8.296875 
L 54.390625 8.296875 
L 54.390625 0 
L 12.40625 0 
z
" id="DejaVuSans-49"/>
      </defs>
      <g transform="translate(441.046059 329.598437)scale(0.1 -0.1)">
       <use xlink:href="#DejaVuSans-49"/>
       <use x="63.623047" xlink:href="#DejaVuSans-48"/>
       <use x="127.246094" xlink:href="#DejaVuSans-48"/>
       <use x="190.869141" xlink:href="#DejaVuSans-48"/>
      </g>
     </g>
    </g>
    <g id="xtick_7">
     <g id="line2d_13">
      <path clip-path="url(#pa84d2a1d60)" d="M 521.452544 315 
L 521.452544 43.2 
" style="fill:none;stroke:#b0b0b0;stroke-linecap:square;stroke-width:0.8;"/>
     </g>
     <g id="line2d_14">
      <g>
       <use style="stroke:#000000;stroke-width:0.8;" x="521.452544" xlink:href="#m1e2a3d8afe" y="315"/>
      </g>
     </g>
     <g id="text_7">
      <!-- 1200 -->
      <g transform="translate(508.727544 329.598437)scale(0.1 -0.1)">
       <use xlink:href="#DejaVuSans-49"/>
       <use x="63.623047" xlink:href="#DejaVuSans-50"/>
       <use x="127.246094" xlink:href="#DejaVuSans-48"/>
       <use x="190.869141" xlink:href="#DejaVuSans-48"/>
      </g>
     </g>
    </g>
    <g id="xtick_8">
     <g id="line2d_15">
      <path clip-path="url(#pa84d2a1d60)" d="M 589.134029 315 
L 589.134029 43.2 
" style="fill:none;stroke:#b0b0b0;stroke-linecap:square;stroke-width:0.8;"/>
     </g>
     <g id="line2d_16">
      <g>
       <use style="stroke:#000000;stroke-width:0.8;" x="589.134029" xlink:href="#m1e2a3d8afe" y="315"/>
      </g>
     </g>
     <g id="text_8">
      <!-- 1400 -->
      <g transform="translate(576.409029 329.598437)scale(0.1 -0.1)">
       <use xlink:href="#DejaVuSans-49"/>
       <use x="63.623047" xlink:href="#DejaVuSans-52"/>
       <use x="127.246094" xlink:href="#DejaVuSans-48"/>
       <use x="190.869141" xlink:href="#DejaVuSans-48"/>
      </g>
     </g>
    </g>
    <g id="text_9">
     <!-- Episode -->
     <defs>
      <path d="M 9.8125 72.90625 
L 55.90625 72.90625 
L 55.90625 64.59375 
L 19.671875 64.59375 
L 19.671875 43.015625 
L 54.390625 43.015625 
L 54.390625 34.71875 
L 19.671875 34.71875 
L 19.671875 8.296875 
L 56.78125 8.296875 
L 56.78125 0 
L 9.8125 0 
z
" id="DejaVuSans-69"/>
      <path d="M 18.109375 8.203125 
L 18.109375 -20.796875 
L 9.078125 -20.796875 
L 9.078125 54.6875 
L 18.109375 54.6875 
L 18.109375 46.390625 
Q 20.953125 51.265625 25.265625 53.625 
Q 29.59375 56 35.59375 56 
Q 45.5625 56 51.78125 48.09375 
Q 58.015625 40.1875 58.015625 27.296875 
Q 58.015625 14.40625 51.78125 6.484375 
Q 45.5625 -1.421875 35.59375 -1.421875 
Q 29.59375 -1.421875 25.265625 0.953125 
Q 20.953125 3.328125 18.109375 8.203125 
z
M 48.6875 27.296875 
Q 48.6875 37.203125 44.609375 42.84375 
Q 40.53125 48.484375 33.40625 48.484375 
Q 26.265625 48.484375 22.1875 42.84375 
Q 18.109375 37.203125 18.109375 27.296875 
Q 18.109375 17.390625 22.1875 11.75 
Q 26.265625 6.109375 33.40625 6.109375 
Q 40.53125 6.109375 44.609375 11.75 
Q 48.6875 17.390625 48.6875 27.296875 
z
" id="DejaVuSans-112"/>
      <path d="M 9.421875 54.6875 
L 18.40625 54.6875 
L 18.40625 0 
L 9.421875 0 
z
M 9.421875 75.984375 
L 18.40625 75.984375 
L 18.40625 64.59375 
L 9.421875 64.59375 
z
" id="DejaVuSans-105"/>
      <path d="M 44.28125 53.078125 
L 44.28125 44.578125 
Q 40.484375 46.53125 36.375 47.5 
Q 32.28125 48.484375 27.875 48.484375 
Q 21.1875 48.484375 17.84375 46.4375 
Q 14.5 44.390625 14.5 40.28125 
Q 14.5 37.15625 16.890625 35.375 
Q 19.28125 33.59375 26.515625 31.984375 
L 29.59375 31.296875 
Q 39.15625 29.25 43.1875 25.515625 
Q 47.21875 21.78125 47.21875 15.09375 
Q 47.21875 7.46875 41.1875 3.015625 
Q 35.15625 -1.421875 24.609375 -1.421875 
Q 20.21875 -1.421875 15.453125 -0.5625 
Q 10.6875 0.296875 5.421875 2 
L 5.421875 11.28125 
Q 10.40625 8.6875 15.234375 7.390625 
Q 20.0625 6.109375 24.8125 6.109375 
Q 31.15625 6.109375 34.5625 8.28125 
Q 37.984375 10.453125 37.984375 14.40625 
Q 37.984375 18.0625 35.515625 20.015625 
Q 33.0625 21.96875 24.703125 23.78125 
L 21.578125 24.515625 
Q 13.234375 26.265625 9.515625 29.90625 
Q 5.8125 33.546875 5.8125 39.890625 
Q 5.8125 47.609375 11.28125 51.796875 
Q 16.75 56 26.8125 56 
Q 31.78125 56 36.171875 55.265625 
Q 40.578125 54.546875 44.28125 53.078125 
z
" id="DejaVuSans-115"/>
      <path d="M 30.609375 48.390625 
Q 23.390625 48.390625 19.1875 42.75 
Q 14.984375 37.109375 14.984375 27.296875 
Q 14.984375 17.484375 19.15625 11.84375 
Q 23.34375 6.203125 30.609375 6.203125 
Q 37.796875 6.203125 41.984375 11.859375 
Q 46.1875 17.53125 46.1875 27.296875 
Q 46.1875 37.015625 41.984375 42.703125 
Q 37.796875 48.390625 30.609375 48.390625 
z
M 30.609375 56 
Q 42.328125 56 49.015625 48.375 
Q 55.71875 40.765625 55.71875 27.296875 
Q 55.71875 13.875 49.015625 6.21875 
Q 42.328125 -1.421875 30.609375 -1.421875 
Q 18.84375 -1.421875 12.171875 6.21875 
Q 5.515625 13.875 5.515625 27.296875 
Q 5.515625 40.765625 12.171875 48.375 
Q 18.84375 56 30.609375 56 
z
" id="DejaVuSans-111"/>
      <path d="M 45.40625 46.390625 
L 45.40625 75.984375 
L 54.390625 75.984375 
L 54.390625 0 
L 45.40625 0 
L 45.40625 8.203125 
Q 42.578125 3.328125 38.25 0.953125 
Q 33.9375 -1.421875 27.875 -1.421875 
Q 17.96875 -1.421875 11.734375 6.484375 
Q 5.515625 14.40625 5.515625 27.296875 
Q 5.515625 40.1875 11.734375 48.09375 
Q 17.96875 56 27.875 56 
Q 33.9375 56 38.25 53.625 
Q 42.578125 51.265625 45.40625 46.390625 
z
M 14.796875 27.296875 
Q 14.796875 17.390625 18.875 11.75 
Q 22.953125 6.109375 30.078125 6.109375 
Q 37.203125 6.109375 41.296875 11.75 
Q 45.40625 17.390625 45.40625 27.296875 
Q 45.40625 37.203125 41.296875 42.84375 
Q 37.203125 48.484375 30.078125 48.484375 
Q 22.953125 48.484375 18.875 42.84375 
Q 14.796875 37.203125 14.796875 27.296875 
z
" id="DejaVuSans-100"/>
      <path d="M 56.203125 29.59375 
L 56.203125 25.203125 
L 14.890625 25.203125 
Q 15.484375 15.921875 20.484375 11.0625 
Q 25.484375 6.203125 34.421875 6.203125 
Q 39.59375 6.203125 44.453125 7.46875 
Q 49.3125 8.734375 54.109375 11.28125 
L 54.109375 2.78125 
Q 49.265625 0.734375 44.1875 -0.34375 
Q 39.109375 -1.421875 33.890625 -1.421875 
Q 20.796875 -1.421875 13.15625 6.1875 
Q 5.515625 13.8125 5.515625 26.8125 
Q 5.515625 40.234375 12.765625 48.109375 
Q 20.015625 56 32.328125 56 
Q 43.359375 56 49.78125 48.890625 
Q 56.203125 41.796875 56.203125 29.59375 
z
M 47.21875 32.234375 
Q 47.125 39.59375 43.09375 43.984375 
Q 39.0625 48.390625 32.421875 48.390625 
Q 24.90625 48.390625 20.390625 44.140625 
Q 15.875 39.890625 15.1875 32.171875 
z
" id="DejaVuSans-101"/>
     </defs>
     <g transform="translate(349.3625 343.276563)scale(0.1 -0.1)">
      <use xlink:href="#DejaVuSans-69"/>
      <use x="63.183594" xlink:href="#DejaVuSans-112"/>
      <use x="126.660156" xlink:href="#DejaVuSans-105"/>
      <use x="154.443359" xlink:href="#DejaVuSans-115"/>
      <use x="206.542969" xlink:href="#DejaVuSans-111"/>
      <use x="267.724609" xlink:href="#DejaVuSans-100"/>
      <use x="331.201172" xlink:href="#DejaVuSans-101"/>
     </g>
    </g>
   </g>
   <g id="matplotlib.axis_2">
    <g id="ytick_1">
     <g id="line2d_17">
      <path clip-path="url(#pa84d2a1d60)" d="M 90 284.55639 
L 648 284.55639 
" style="fill:none;stroke:#b0b0b0;stroke-linecap:square;stroke-width:0.8;"/>
     </g>
     <g id="line2d_18">
      <defs>
       <path d="M 0 0 
L -3.5 0 
" id="me9ba00882b" style="stroke:#000000;stroke-width:0.8;"/>
      </defs>
      <g>
       <use style="stroke:#000000;stroke-width:0.8;" x="90" xlink:href="#me9ba00882b" y="284.55639"/>
      </g>
     </g>
     <g id="text_10">
      <!-- −2.2 -->
      <defs>
       <path d="M 10.59375 35.5 
L 73.1875 35.5 
L 73.1875 27.203125 
L 10.59375 27.203125 
z
" id="DejaVuSans-8722"/>
       <path d="M 10.6875 12.40625 
L 21 12.40625 
L 21 0 
L 10.6875 0 
z
" id="DejaVuSans-46"/>
      </defs>
      <g transform="translate(58.717187 288.355608)scale(0.1 -0.1)">
       <use xlink:href="#DejaVuSans-8722"/>
       <use x="83.789062" xlink:href="#DejaVuSans-50"/>
       <use x="147.412109" xlink:href="#DejaVuSans-46"/>
       <use x="179.199219" xlink:href="#DejaVuSans-50"/>
      </g>
     </g>
    </g>
    <g id="ytick_2">
     <g id="line2d_19">
      <path clip-path="url(#pa84d2a1d60)" d="M 90 246.716609 
L 648 246.716609 
" style="fill:none;stroke:#b0b0b0;stroke-linecap:square;stroke-width:0.8;"/>
     </g>
     <g id="line2d_20">
      <g>
       <use style="stroke:#000000;stroke-width:0.8;" x="90" xlink:href="#me9ba00882b" y="246.716609"/>
      </g>
     </g>
     <g id="text_11">
      <!-- −2.0 -->
      <g transform="translate(58.717187 250.515828)scale(0.1 -0.1)">
       <use xlink:href="#DejaVuSans-8722"/>
       <use x="83.789062" xlink:href="#DejaVuSans-50"/>
       <use x="147.412109" xlink:href="#DejaVuSans-46"/>
       <use x="179.199219" xlink:href="#DejaVuSans-48"/>
      </g>
     </g>
    </g>
    <g id="ytick_3">
     <g id="line2d_21">
      <path clip-path="url(#pa84d2a1d60)" d="M 90 208.876828 
L 648 208.876828 
" style="fill:none;stroke:#b0b0b0;stroke-linecap:square;stroke-width:0.8;"/>
     </g>
     <g id="line2d_22">
      <g>
       <use style="stroke:#000000;stroke-width:0.8;" x="90" xlink:href="#me9ba00882b" y="208.876828"/>
      </g>
     </g>
     <g id="text_12">
      <!-- −1.8 -->
      <g transform="translate(58.717187 212.676047)scale(0.1 -0.1)">
       <use xlink:href="#DejaVuSans-8722"/>
       <use x="83.789062" xlink:href="#DejaVuSans-49"/>
       <use x="147.412109" xlink:href="#DejaVuSans-46"/>
       <use x="179.199219" xlink:href="#DejaVuSans-56"/>
      </g>
     </g>
    </g>
    <g id="ytick_4">
     <g id="line2d_23">
      <path clip-path="url(#pa84d2a1d60)" d="M 90 171.037048 
L 648 171.037048 
" style="fill:none;stroke:#b0b0b0;stroke-linecap:square;stroke-width:0.8;"/>
     </g>
     <g id="line2d_24">
      <g>
       <use style="stroke:#000000;stroke-width:0.8;" x="90" xlink:href="#me9ba00882b" y="171.037048"/>
      </g>
     </g>
     <g id="text_13">
      <!-- −1.6 -->
      <g transform="translate(58.717187 174.836266)scale(0.1 -0.1)">
       <use xlink:href="#DejaVuSans-8722"/>
       <use x="83.789062" xlink:href="#DejaVuSans-49"/>
       <use x="147.412109" xlink:href="#DejaVuSans-46"/>
       <use x="179.199219" xlink:href="#DejaVuSans-54"/>
      </g>
     </g>
    </g>
    <g id="ytick_5">
     <g id="line2d_25">
      <path clip-path="url(#pa84d2a1d60)" d="M 90 133.197267 
L 648 133.197267 
" style="fill:none;stroke:#b0b0b0;stroke-linecap:square;stroke-width:0.8;"/>
     </g>
     <g id="line2d_26">
      <g>
       <use style="stroke:#000000;stroke-width:0.8;" x="90" xlink:href="#me9ba00882b" y="133.197267"/>
      </g>
     </g>
     <g id="text_14">
      <!-- −1.4 -->
      <g transform="translate(58.717187 136.996486)scale(0.1 -0.1)">
       <use xlink:href="#DejaVuSans-8722"/>
       <use x="83.789062" xlink:href="#DejaVuSans-49"/>
       <use x="147.412109" xlink:href="#DejaVuSans-46"/>
       <use x="179.199219" xlink:href="#DejaVuSans-52"/>
      </g>
     </g>
    </g>
    <g id="ytick_6">
     <g id="line2d_27">
      <path clip-path="url(#pa84d2a1d60)" d="M 90 95.357486 
L 648 95.357486 
" style="fill:none;stroke:#b0b0b0;stroke-linecap:square;stroke-width:0.8;"/>
     </g>
     <g id="line2d_28">
      <g>
       <use style="stroke:#000000;stroke-width:0.8;" x="90" xlink:href="#me9ba00882b" y="95.357486"/>
      </g>
     </g>
     <g id="text_15">
      <!-- −1.2 -->
      <g transform="translate(58.717187 99.156705)scale(0.1 -0.1)">
       <use xlink:href="#DejaVuSans-8722"/>
       <use x="83.789062" xlink:href="#DejaVuSans-49"/>
       <use x="147.412109" xlink:href="#DejaVuSans-46"/>
       <use x="179.199219" xlink:href="#DejaVuSans-50"/>
      </g>
     </g>
    </g>
    <g id="ytick_7">
     <g id="line2d_29">
      <path clip-path="url(#pa84d2a1d60)" d="M 90 57.517706 
L 648 57.517706 
" style="fill:none;stroke:#b0b0b0;stroke-linecap:square;stroke-width:0.8;"/>
     </g>
     <g id="line2d_30">
      <g>
       <use style="stroke:#000000;stroke-width:0.8;" x="90" xlink:href="#me9ba00882b" y="57.517706"/>
      </g>
     </g>
     <g id="text_16">
      <!-- −1.0 -->
      <g transform="translate(58.717187 61.316924)scale(0.1 -0.1)">
       <use xlink:href="#DejaVuSans-8722"/>
       <use x="83.789062" xlink:href="#DejaVuSans-49"/>
       <use x="147.412109" xlink:href="#DejaVuSans-46"/>
       <use x="179.199219" xlink:href="#DejaVuSans-48"/>
      </g>
     </g>
    </g>
    <g id="text_17">
     <!-- Episode Reward (Smoothed) -->
     <defs>
      <path id="DejaVuSans-32"/>
      <path d="M 44.390625 34.1875 
Q 47.5625 33.109375 50.5625 29.59375 
Q 53.5625 26.078125 56.59375 19.921875 
L 66.609375 0 
L 56 0 
L 46.6875 18.703125 
Q 43.0625 26.03125 39.671875 28.421875 
Q 36.28125 30.8125 30.421875 30.8125 
L 19.671875 30.8125 
L 19.671875 0 
L 9.8125 0 
L 9.8125 72.90625 
L 32.078125 72.90625 
Q 44.578125 72.90625 50.734375 67.671875 
Q 56.890625 62.453125 56.890625 51.90625 
Q 56.890625 45.015625 53.6875 40.46875 
Q 50.484375 35.9375 44.390625 34.1875 
z
M 19.671875 64.796875 
L 19.671875 38.921875 
L 32.078125 38.921875 
Q 39.203125 38.921875 42.84375 42.21875 
Q 46.484375 45.515625 46.484375 51.90625 
Q 46.484375 58.296875 42.84375 61.546875 
Q 39.203125 64.796875 32.078125 64.796875 
z
" id="DejaVuSans-82"/>
      <path d="M 4.203125 54.6875 
L 13.1875 54.6875 
L 24.421875 12.015625 
L 35.59375 54.6875 
L 46.1875 54.6875 
L 57.421875 12.015625 
L 68.609375 54.6875 
L 77.59375 54.6875 
L 63.28125 0 
L 52.6875 0 
L 40.921875 44.828125 
L 29.109375 0 
L 18.5 0 
z
" id="DejaVuSans-119"/>
      <path d="M 34.28125 27.484375 
Q 23.390625 27.484375 19.1875 25 
Q 14.984375 22.515625 14.984375 16.5 
Q 14.984375 11.71875 18.140625 8.90625 
Q 21.296875 6.109375 26.703125 6.109375 
Q 34.1875 6.109375 38.703125 11.40625 
Q 43.21875 16.703125 43.21875 25.484375 
L 43.21875 27.484375 
z
M 52.203125 31.203125 
L 52.203125 0 
L 43.21875 0 
L 43.21875 8.296875 
Q 40.140625 3.328125 35.546875 0.953125 
Q 30.953125 -1.421875 24.3125 -1.421875 
Q 15.921875 -1.421875 10.953125 3.296875 
Q 6 8.015625 6 15.921875 
Q 6 25.140625 12.171875 29.828125 
Q 18.359375 34.515625 30.609375 34.515625 
L 43.21875 34.515625 
L 43.21875 35.40625 
Q 43.21875 41.609375 39.140625 45 
Q 35.0625 48.390625 27.6875 48.390625 
Q 23 48.390625 18.546875 47.265625 
Q 14.109375 46.140625 10.015625 43.890625 
L 10.015625 52.203125 
Q 14.9375 54.109375 19.578125 55.046875 
Q 24.21875 56 28.609375 56 
Q 40.484375 56 46.34375 49.84375 
Q 52.203125 43.703125 52.203125 31.203125 
z
" id="DejaVuSans-97"/>
      <path d="M 41.109375 46.296875 
Q 39.59375 47.171875 37.8125 47.578125 
Q 36.03125 48 33.890625 48 
Q 26.265625 48 22.1875 43.046875 
Q 18.109375 38.09375 18.109375 28.8125 
L 18.109375 0 
L 9.078125 0 
L 9.078125 54.6875 
L 18.109375 54.6875 
L 18.109375 46.1875 
Q 20.953125 51.171875 25.484375 53.578125 
Q 30.03125 56 36.53125 56 
Q 37.453125 56 38.578125 55.875 
Q 39.703125 55.765625 41.0625 55.515625 
z
" id="DejaVuSans-114"/>
      <path d="M 31 75.875 
Q 24.46875 64.65625 21.28125 53.65625 
Q 18.109375 42.671875 18.109375 31.390625 
Q 18.109375 20.125 21.3125 9.0625 
Q 24.515625 -2 31 -13.1875 
L 23.1875 -13.1875 
Q 15.875 -1.703125 12.234375 9.375 
Q 8.59375 20.453125 8.59375 31.390625 
Q 8.59375 42.28125 12.203125 53.3125 
Q 15.828125 64.359375 23.1875 75.875 
z
" id="DejaVuSans-40"/>
      <path d="M 53.515625 70.515625 
L 53.515625 60.890625 
Q 47.90625 63.578125 42.921875 64.890625 
Q 37.9375 66.21875 33.296875 66.21875 
Q 25.25 66.21875 20.875 63.09375 
Q 16.5 59.96875 16.5 54.203125 
Q 16.5 49.359375 19.40625 46.890625 
Q 22.3125 44.4375 30.421875 42.921875 
L 36.375 41.703125 
Q 47.40625 39.59375 52.65625 34.296875 
Q 57.90625 29 57.90625 20.125 
Q 57.90625 9.515625 50.796875 4.046875 
Q 43.703125 -1.421875 29.984375 -1.421875 
Q 24.8125 -1.421875 18.96875 -0.25 
Q 13.140625 0.921875 6.890625 3.21875 
L 6.890625 13.375 
Q 12.890625 10.015625 18.65625 8.296875 
Q 24.421875 6.59375 29.984375 6.59375 
Q 38.421875 6.59375 43.015625 9.90625 
Q 47.609375 13.234375 47.609375 19.390625 
Q 47.609375 24.75 44.3125 27.78125 
Q 41.015625 30.8125 33.5 32.328125 
L 27.484375 33.5 
Q 16.453125 35.6875 11.515625 40.375 
Q 6.59375 45.0625 6.59375 53.421875 
Q 6.59375 63.09375 13.40625 68.65625 
Q 20.21875 74.21875 32.171875 74.21875 
Q 37.3125 74.21875 42.625 73.28125 
Q 47.953125 72.359375 53.515625 70.515625 
z
" id="DejaVuSans-83"/>
      <path d="M 52 44.1875 
Q 55.375 50.25 60.0625 53.125 
Q 64.75 56 71.09375 56 
Q 79.640625 56 84.28125 50.015625 
Q 88.921875 44.046875 88.921875 33.015625 
L 88.921875 0 
L 79.890625 0 
L 79.890625 32.71875 
Q 79.890625 40.578125 77.09375 44.375 
Q 74.3125 48.1875 68.609375 48.1875 
Q 61.625 48.1875 57.5625 43.546875 
Q 53.515625 38.921875 53.515625 30.90625 
L 53.515625 0 
L 44.484375 0 
L 44.484375 32.71875 
Q 44.484375 40.625 41.703125 44.40625 
Q 38.921875 48.1875 33.109375 48.1875 
Q 26.21875 48.1875 22.15625 43.53125 
Q 18.109375 38.875 18.109375 30.90625 
L 18.109375 0 
L 9.078125 0 
L 9.078125 54.6875 
L 18.109375 54.6875 
L 18.109375 46.1875 
Q 21.1875 51.21875 25.484375 53.609375 
Q 29.78125 56 35.6875 56 
Q 41.65625 56 45.828125 52.96875 
Q 50 49.953125 52 44.1875 
z
" id="DejaVuSans-109"/>
      <path d="M 18.3125 70.21875 
L 18.3125 54.6875 
L 36.8125 54.6875 
L 36.8125 47.703125 
L 18.3125 47.703125 
L 18.3125 18.015625 
Q 18.3125 11.328125 20.140625 9.421875 
Q 21.96875 7.515625 27.59375 7.515625 
L 36.8125 7.515625 
L 36.8125 0 
L 27.59375 0 
Q 17.1875 0 13.234375 3.875 
Q 9.28125 7.765625 9.28125 18.015625 
L 9.28125 47.703125 
L 2.6875 47.703125 
L 2.6875 54.6875 
L 9.28125 54.6875 
L 9.28125 70.21875 
z
" id="DejaVuSans-116"/>
      <path d="M 54.890625 33.015625 
L 54.890625 0 
L 45.90625 0 
L 45.90625 32.71875 
Q 45.90625 40.484375 42.875 44.328125 
Q 39.84375 48.1875 33.796875 48.1875 
Q 26.515625 48.1875 22.3125 43.546875 
Q 18.109375 38.921875 18.109375 30.90625 
L 18.109375 0 
L 9.078125 0 
L 9.078125 75.984375 
L 18.109375 75.984375 
L 18.109375 46.1875 
Q 21.34375 51.125 25.703125 53.5625 
Q 30.078125 56 35.796875 56 
Q 45.21875 56 50.046875 50.171875 
Q 54.890625 44.34375 54.890625 33.015625 
z
" id="DejaVuSans-104"/>
      <path d="M 8.015625 75.875 
L 15.828125 75.875 
Q 23.140625 64.359375 26.78125 53.3125 
Q 30.421875 42.28125 30.421875 31.390625 
Q 30.421875 20.453125 26.78125 9.375 
Q 23.140625 -1.703125 15.828125 -13.1875 
L 8.015625 -13.1875 
Q 14.5 -2 17.703125 9.0625 
Q 20.90625 20.125 20.90625 31.390625 
Q 20.90625 42.671875 17.703125 53.65625 
Q 14.5 64.65625 8.015625 75.875 
z
" id="DejaVuSans-41"/>
     </defs>
     <g transform="translate(52.6375 250.289844)rotate(-90)scale(0.1 -0.1)">
      <use xlink:href="#DejaVuSans-69"/>
      <use x="63.183594" xlink:href="#DejaVuSans-112"/>
      <use x="126.660156" xlink:href="#DejaVuSans-105"/>
      <use x="154.443359" xlink:href="#DejaVuSans-115"/>
      <use x="206.542969" xlink:href="#DejaVuSans-111"/>
      <use x="267.724609" xlink:href="#DejaVuSans-100"/>
      <use x="331.201172" xlink:href="#DejaVuSans-101"/>
      <use x="392.724609" xlink:href="#DejaVuSans-32"/>
      <use x="424.511719" xlink:href="#DejaVuSans-82"/>
      <use x="493.931641" xlink:href="#DejaVuSans-101"/>
      <use x="555.455078" xlink:href="#DejaVuSans-119"/>
      <use x="637.242188" xlink:href="#DejaVuSans-97"/>
      <use x="698.521484" xlink:href="#DejaVuSans-114"/>
      <use x="739.619141" xlink:href="#DejaVuSans-100"/>
      <use x="803.095703" xlink:href="#DejaVuSans-32"/>
      <use x="834.882812" xlink:href="#DejaVuSans-40"/>
      <use x="873.896484" xlink:href="#DejaVuSans-83"/>
      <use x="937.373047" xlink:href="#DejaVuSans-109"/>
      <use x="1034.785156" xlink:href="#DejaVuSans-111"/>
      <use x="1095.966797" xlink:href="#DejaVuSans-111"/>
      <use x="1157.148438" xlink:href="#DejaVuSans-116"/>
      <use x="1196.357422" xlink:href="#DejaVuSans-104"/>
      <use x="1259.736328" xlink:href="#DejaVuSans-101"/>
      <use x="1321.259766" xlink:href="#DejaVuSans-100"/>
      <use x="1384.736328" xlink:href="#DejaVuSans-41"/>
     </g>
    </g>
   </g>
   <g id="line2d_31">
    <path clip-path="url(#pa84d2a1d60)" d="M 115.363636 243.155677 
L 115.702044 221.385252 
L 116.040451 184.488952 
L 116.378859 166.966131 
L 116.717266 276.330206 
L 117.055673 87.054131 
L 117.394081 194.678672 
L 117.732488 72.938332 
L 118.070896 214.151412 
L 118.409303 278.670757 
L 118.747711 89.449807 
L 119.086118 185.826966 
L 119.424525 69.687594 
L 119.762933 155.384725 
L 120.10134 279.978732 
L 120.439748 217.86594 
L 120.778155 84.138624 
L 121.116563 79.786142 
L 121.45497 115.841984 
L 121.793377 112.136834 
L 122.131785 80.248826 
L 122.470192 100.248477 
L 122.8086 86.120841 
L 123.147007 82.443327 
L 123.485415 82.438535 
L 123.823822 277.402846 
L 124.162229 269.753538 
L 124.500637 82.162625 
L 124.839044 142.4255 
L 125.177452 134.171551 
L 125.515859 131.487522 
L 125.854266 221.859747 
L 126.531081 108.179307 
L 126.869489 130.685264 
L 127.207896 108.357714 
L 127.546304 163.313261 
L 127.884711 106.925726 
L 128.223118 142.572614 
L 128.561526 103.411044 
L 128.899933 141.907521 
L 129.238341 114.622715 
L 129.576748 114.922661 
L 129.915156 90.080195 
L 130.253563 124.536563 
L 130.59197 129.944874 
L 130.930378 94.166964 
L 131.268785 117.987723 
L 131.607193 94.123136 
L 131.9456 114.371078 
L 132.284008 123.342328 
L 132.622415 87.545389 
L 132.960822 144.715954 
L 133.29923 75.758596 
L 133.637637 216.665539 
L 133.976045 110.385943 
L 134.314452 119.315355 
L 134.652859 116.007398 
L 134.991267 90.929194 
L 135.329674 120.001138 
L 136.006489 80.835714 
L 136.344897 86.05127 
L 136.683304 106.230646 
L 137.021711 118.110852 
L 137.360119 91.372253 
L 137.698526 55.554545 
L 138.036934 145.204829 
L 138.375341 202.200437 
L 138.713749 81.383071 
L 139.052156 112.786365 
L 139.390563 125.516889 
L 139.728971 109.214719 
L 140.067378 141.98655 
L 140.405786 162.710017 
L 140.744193 302.645455 
L 141.082601 105.392153 
L 141.421008 76.80332 
L 142.097823 73.013865 
L 142.43623 89.18822 
L 142.774638 90.066857 
L 143.113045 84.589239 
L 143.451452 119.616256 
L 143.78986 89.100068 
L 144.128267 143.591094 
L 144.466675 81.640793 
L 144.805082 61.670799 
L 145.14349 246.948931 
L 145.481897 125.260025 
L 145.820304 135.631246 
L 146.158712 97.405329 
L 146.497119 128.072476 
L 146.835527 98.177176 
L 147.173934 111.037526 
L 147.512342 106.409782 
L 147.850749 112.987579 
L 148.189156 100.735711 
L 148.527564 129.640455 
L 148.865971 225.558147 
L 149.204379 79.668682 
L 149.542786 110.409974 
L 149.881194 121.373361 
L 150.219601 90.145677 
L 150.896416 214.677196 
L 151.234823 251.46168 
L 151.573231 213.955379 
L 151.911638 207.508221 
L 152.250045 203.34365 
L 152.588453 227.390023 
L 152.92686 229.176707 
L 153.265268 220.9881 
L 153.603675 228.138336 
L 153.942083 221.953275 
L 154.28049 221.355953 
L 154.618897 225.071027 
L 154.957305 225.918495 
L 155.295712 228.277233 
L 155.63412 227.108063 
L 155.972527 232.437067 
L 156.310935 225.006442 
L 156.649342 202.530404 
L 156.987749 208.232632 
L 157.326157 221.37668 
L 157.664564 229.050478 
L 158.002972 219.969142 
L 158.341379 229.900476 
L 159.018194 223.833562 
L 159.356601 230.309637 
L 159.695009 231.832959 
L 160.033416 220.124549 
L 160.371824 213.868955 
L 160.710231 222.21777 
L 161.048638 216.690098 
L 161.387046 215.178372 
L 162.063861 240.513617 
L 162.402268 226.752578 
L 162.740676 227.78116 
L 163.079083 230.753557 
L 163.41749 227.959903 
L 163.755898 219.12819 
L 164.094305 227.347175 
L 164.432713 220.222485 
L 164.77112 219.224189 
L 165.109528 225.571046 
L 165.447935 225.20017 
L 165.786342 223.659649 
L 166.12475 208.030894 
L 166.463157 223.636299 
L 166.801565 231.583572 
L 167.139972 223.511201 
L 167.47838 218.532353 
L 167.816787 233.25834 
L 168.155194 221.416883 
L 168.493602 225.610392 
L 168.832009 225.895577 
L 169.170417 230.210688 
L 169.508824 221.118818 
L 169.847231 203.011212 
L 170.185639 223.207123 
L 170.524046 217.686311 
L 170.862454 201.9629 
L 171.200861 220.827897 
L 171.539269 219.845201 
L 171.877676 217.646111 
L 172.554491 225.912264 
L 172.892898 228.940911 
L 173.231306 230.375027 
L 173.569713 229.423333 
L 173.908121 229.521293 
L 174.246528 212.075624 
L 174.584935 228.047187 
L 174.923343 234.060269 
L 175.26175 230.326121 
L 175.600158 229.641707 
L 175.938565 223.001588 
L 176.276973 220.681098 
L 176.61538 225.031484 
L 176.953787 222.807444 
L 177.292195 229.15223 
L 177.630602 224.213952 
L 177.96901 222.142064 
L 178.307417 218.144134 
L 178.645824 206.942855 
L 178.984232 215.321194 
L 179.322639 218.487195 
L 179.661047 217.646111 
L 179.999454 219.97491 
L 180.337862 219.891608 
L 180.676269 214.295359 
L 181.014676 218.532353 
L 181.353084 230.023483 
L 182.029899 223.630227 
L 182.368306 230.150502 
L 182.706714 221.645679 
L 183.045121 218.144134 
L 183.383528 225.872639 
L 183.721936 222.143279 
L 184.060343 202.199365 
L 184.398751 219.975008 
L 184.737158 222.635288 
L 185.075566 224.260562 
L 185.413973 222.187334 
L 186.090788 234.127662 
L 186.429195 218.693908 
L 186.767603 225.918148 
L 187.10601 218.487195 
L 187.444417 222.142064 
L 187.782825 215.779993 
L 188.121232 219.087834 
L 188.45964 219.224189 
L 188.798047 218.487195 
L 189.474862 222.818065 
L 189.813269 219.128121 
L 190.151677 225.638144 
L 190.490084 222.639132 
L 190.828492 234.681866 
L 191.166899 234.00422 
L 191.505307 225.999514 
L 191.843714 203.574546 
L 192.182121 217.686311 
L 192.520529 225.899892 
L 193.197344 207.925039 
L 193.535751 216.250504 
L 193.874159 220.078384 
L 194.212566 230.586002 
L 194.550973 221.790912 
L 194.889381 225.025816 
L 195.227788 217.646111 
L 195.566196 225.114292 
L 195.904603 217.60989 
L 196.24301 221.369996 
L 196.581418 203.679166 
L 196.919825 216.250504 
L 197.258233 239.650794 
L 197.59664 226.965646 
L 198.273455 219.254934 
L 198.611862 224.445544 
L 198.95027 231.691511 
L 199.288677 250.527253 
L 199.627085 238.640868 
L 199.965492 234.121622 
L 200.3039 224.676269 
L 200.642307 228.108397 
L 200.980714 220.929112 
L 201.319122 226.496964 
L 201.657529 226.670901 
L 201.995937 216.300146 
L 202.334344 211.887851 
L 202.672752 225.906821 
L 203.011159 229.751041 
L 203.349566 221.378519 
L 203.687974 227.456802 
L 204.026381 219.934807 
L 204.364789 228.9783 
L 204.703196 225.256886 
L 205.041603 218.144134 
L 205.380011 206.951148 
L 205.718418 222.19442 
L 206.056826 223.440819 
L 206.395233 229.515157 
L 206.733641 200.722515 
L 207.072048 224.43076 
L 207.748863 213.709541 
L 208.08727 233.668032 
L 208.425678 219.885594 
L 208.764085 219.020835 
L 209.102493 221.064405 
L 209.4409 223.794719 
L 209.779307 220.001984 
L 210.117715 213.964494 
L 210.456122 216.250504 
L 210.79453 194.962697 
L 211.132937 218.487195 
L 211.471345 225.521486 
L 211.809752 219.934807 
L 212.148159 230.419964 
L 212.486567 226.69204 
L 212.824974 227.464026 
L 213.163382 222.142064 
L 213.501789 231.959995 
L 213.840196 213.615573 
L 214.178604 213.448541 
L 214.517011 222.527467 
L 214.855419 221.772255 
L 215.193826 219.31603 
L 215.532234 224.012471 
L 215.870641 215.151993 
L 216.209048 224.43076 
L 216.547456 225.042487 
L 216.885863 221.790912 
L 217.224271 235.357979 
L 217.562678 214.237495 
L 217.901086 207.925039 
L 218.239493 205.50927 
L 218.5779 216.763073 
L 218.916308 218.532353 
L 219.254715 218.509265 
L 219.593123 223.633557 
L 219.93153 225.623871 
L 220.269938 228.285775 
L 220.608345 225.729488 
L 220.946752 220.260816 
L 221.28516 228.012534 
L 221.623567 222.142064 
L 221.961975 223.232791 
L 222.300382 218.958827 
L 222.638789 204.528799 
L 222.977197 219.224189 
L 223.315604 207.239567 
L 223.654012 210.98137 
L 223.992419 217.343435 
L 224.669234 221.790912 
L 225.007641 220.30962 
L 225.346049 212.501562 
L 225.684456 220.77584 
L 226.022864 222.142064 
L 226.361271 224.431111 
L 226.699679 211.948801 
L 227.376493 223.228839 
L 227.714901 224.882696 
L 228.053308 219.788876 
L 228.391716 207.766198 
L 229.068531 223.58393 
L 229.406938 217.686311 
L 229.745345 217.646111 
L 230.083753 223.563118 
L 230.42216 222.500591 
L 230.760568 218.537494 
L 231.098975 205.943935 
L 231.437382 219.483558 
L 231.77579 207.772341 
L 232.114197 230.374673 
L 232.791012 208.157338 
L 233.12942 219.933181 
L 233.467827 219.224189 
L 233.806234 217.343435 
L 234.483049 227.500859 
L 234.821457 226.970802 
L 235.159864 227.290779 
L 235.498272 224.902743 
L 235.836679 215.321194 
L 236.175086 222.924555 
L 236.513494 217.943908 
L 236.851901 202.093638 
L 237.190309 218.154255 
L 237.528716 208.133574 
L 237.867124 216.250504 
L 238.205531 207.925039 
L 238.543938 225.167073 
L 239.220753 218.487195 
L 239.559161 213.159327 
L 239.897568 218.430889 
L 240.235975 218.144134 
L 240.574383 221.790912 
L 240.91279 211.691311 
L 241.251198 219.224189 
L 241.589605 204.528799 
L 241.928013 216.250504 
L 242.26642 217.60989 
L 242.604827 223.23279 
L 243.281642 215.224653 
L 243.62005 217.343435 
L 243.958457 208.827693 
L 244.296865 215.788739 
L 244.635272 218.068689 
L 244.973679 207.766198 
L 245.312087 216.250504 
L 245.650494 227.742535 
L 245.988902 218.487195 
L 246.327309 221.874709 
L 246.665717 208.396821 
L 247.004124 201.057102 
L 247.342531 218.5392 
L 247.680939 200.651759 
L 248.019346 204.528799 
L 248.357754 223.232791 
L 249.034569 205.50927 
L 249.372976 215.321194 
L 250.388198 218.068008 
L 250.726606 218.144134 
L 251.065013 225.168105 
L 251.741828 217.646111 
L 252.080235 217.646111 
L 252.418643 224.430757 
L 253.772272 215.321194 
L 254.11068 205.943935 
L 254.449087 224.27577 
L 254.787495 222.147574 
L 255.125902 215.889951 
L 255.46431 225.168105 
L 255.802717 189.169237 
L 256.141124 215.321194 
L 257.156347 218.067152 
L 257.494754 216.250504 
L 257.833162 211.495714 
L 258.171569 225.168105 
L 258.509976 221.790912 
L 258.848384 221.790912 
L 259.186791 218.487195 
L 259.525199 207.766198 
L 259.863606 228.708572 
L 260.202013 218.144134 
L 260.540421 215.788739 
L 260.878828 189.089115 
L 261.555643 222.19442 
L 261.894051 205.50927 
L 262.232458 215.779993 
L 262.570865 207.385806 
L 262.909273 218.487195 
L 263.24768 217.343435 
L 263.586088 215.321194 
L 263.924495 201.057102 
L 264.262903 205.50927 
L 264.60131 219.224189 
L 264.939717 207.925039 
L 265.278125 220.666068 
L 265.616532 216.763069 
L 265.95494 216.250504 
L 266.293347 217.343435 
L 266.631755 215.779993 
L 266.970162 221.790912 
L 267.646977 214.874248 
L 267.985384 221.790912 
L 268.323792 200.651759 
L 268.662199 207.766198 
L 269.000606 222.833891 
L 269.339014 221.732655 
L 269.677421 222.147574 
L 270.015829 215.321194 
L 270.354236 187.727358 
L 270.692644 217.692383 
L 271.031051 208.204946 
L 271.369458 217.692383 
L 271.707866 215.321194 
L 272.046273 206.691696 
L 272.384681 219.981075 
L 272.723088 207.797966 
L 273.061496 226.345525 
L 273.399903 224.088006 
L 273.73831 206.038822 
L 274.076718 221.790912 
L 274.415125 217.343435 
L 274.753533 232.363791 
L 275.768755 207.925039 
L 276.107162 189.089115 
L 276.44557 205.771447 
L 276.783977 201.057102 
L 277.122385 216.250504 
L 277.460792 205.943935 
L 277.799199 219.224189 
L 278.476014 215.779993 
L 278.814422 218.144134 
L 279.152829 205.50927 
L 279.491237 187.727358 
L 279.829644 211.453186 
L 280.844866 224.67452 
L 281.183274 224.729199 
L 281.521681 219.224189 
L 281.860089 209.365564 
L 282.198496 221.790912 
L 282.536903 205.970678 
L 282.875311 225.320201 
L 283.213718 219.224189 
L 283.552126 215.321194 
L 283.890533 208.060131 
L 284.228941 218.5392 
L 284.567348 218.144134 
L 284.905755 221.790912 
L 285.244163 222.833891 
L 285.58257 227.534221 
L 285.920978 226.183748 
L 286.259385 227.534221 
L 286.597792 219.719392 
L 286.9362 223.072011 
L 287.274607 205.943935 
L 287.613015 222.147574 
L 287.951422 187.727358 
L 288.28983 207.000994 
L 288.628237 205.50927 
L 288.966644 218.538449 
L 289.305052 217.343435 
L 289.643459 213.32963 
L 289.981867 205.50927 
L 290.320274 222.954383 
L 290.658682 213.78116 
L 290.997089 216.250504 
L 291.335496 217.221872 
L 291.673904 217.609886 
L 292.012311 205.771447 
L 292.350719 216.250504 
L 292.689126 219.224189 
L 293.027534 202.464878 
L 293.365941 205.50927 
L 293.704348 219.224189 
L 294.042756 215.321194 
L 294.381163 214.900102 
L 294.719571 216.250504 
L 295.057978 190.016055 
L 295.396385 215.779993 
L 295.734793 189.089115 
L 296.0732 201.057102 
L 296.411608 205.943935 
L 296.750015 184.368883 
L 297.088423 216.250504 
L 297.42683 205.943935 
L 297.765237 222.706954 
L 298.103645 221.790912 
L 298.442052 221.790912 
L 298.78046 197.650707 
L 299.118867 212.827992 
L 299.457275 219.224189 
L 299.795682 207.925039 
L 300.134089 216.250504 
L 300.472497 214.468455 
L 300.810904 216.765438 
L 301.487719 205.50927 
L 301.826127 205.771447 
L 302.164534 216.250504 
L 302.502941 193.671275 
L 302.841349 205.50927 
L 303.179756 225.168105 
L 303.518164 219.224189 
L 303.856571 208.979933 
L 304.194978 216.250504 
L 304.533386 201.057102 
L 304.871793 205.943935 
L 305.210201 219.224189 
L 305.548608 205.50927 
L 305.887016 215.779993 
L 306.225423 215.321194 
L 306.56383 207.925039 
L 306.902238 193.671215 
L 307.240645 216.250504 
L 307.579053 205.50927 
L 307.91746 216.765438 
L 308.255868 205.943935 
L 308.594275 217.12765 
L 308.932682 216.250504 
L 309.27109 187.727358 
L 309.609497 202.498289 
L 309.947905 207.925039 
L 310.286312 207.797966 
L 310.62472 202.464878 
L 310.963127 211.887851 
L 311.301534 214.468455 
L 311.639942 220.147546 
L 311.978349 219.503221 
L 312.316757 219.224189 
L 312.655164 205.50927 
L 312.993571 205.771447 
L 313.331979 216.250504 
L 313.670386 216.250504 
L 314.008794 205.50927 
L 314.347201 219.224189 
L 314.685609 187.727358 
L 315.024016 205.771447 
L 315.362423 216.250504 
L 315.700831 207.925039 
L 316.039238 219.224189 
L 316.377646 215.779993 
L 316.716053 220.147546 
L 317.054461 215.321194 
L 317.392868 208.571778 
L 317.731275 216.250504 
L 318.40809 187.727358 
L 318.746498 205.50927 
L 319.084905 207.925039 
L 319.423313 205.943935 
L 319.76172 219.224189 
L 320.100127 205.50927 
L 320.438535 215.321194 
L 320.776942 216.250504 
L 321.11535 205.771447 
L 321.453757 216.250504 
L 321.792164 193.671275 
L 322.130572 219.224189 
L 322.468979 223.601169 
L 322.807387 215.779993 
L 323.484202 223.601169 
L 323.822609 203.32757 
L 324.161016 216.250504 
L 324.499424 187.727358 
L 324.837831 216.250504 
L 325.176239 211.453186 
L 325.514646 219.224189 
L 325.853054 219.503221 
L 326.191461 205.50927 
L 326.529868 205.943935 
L 326.868276 220.147546 
L 327.206683 223.601169 
L 327.545091 201.057102 
L 327.883498 205.771447 
L 328.221906 216.250504 
L 328.560313 187.727358 
L 328.89872 216.250504 
L 329.237128 207.925039 
L 329.575535 206.951148 
L 329.913943 192.380971 
L 330.25235 217.691852 
L 330.590757 216.250504 
L 330.929165 205.771447 
L 331.267572 187.727358 
L 331.60598 207.925039 
L 331.944387 219.224189 
L 332.282795 215.321194 
L 332.621202 219.224189 
L 332.959609 216.765438 
L 333.298017 222.187334 
L 333.636424 216.34198 
L 333.974832 216.250504 
L 334.313239 202.49898 
L 334.651647 207.925039 
L 334.990054 205.50927 
L 335.328461 217.343435 
L 335.666869 215.321194 
L 336.005276 219.224189 
L 336.343684 205.771447 
L 336.682091 216.250504 
L 337.020499 216.250504 
L 337.358906 219.224189 
L 337.697313 215.779993 
L 338.035721 227.734977 
L 338.374128 187.727358 
L 339.050943 223.601169 
L 339.38935 219.503221 
L 339.727758 205.50927 
L 340.066165 205.943935 
L 340.404573 222.435213 
L 340.74298 187.727358 
L 341.081388 216.250504 
L 341.419795 205.771447 
L 341.758202 218.5392 
L 342.09661 205.943935 
L 342.435017 219.224189 
L 342.773425 215.779993 
L 343.45024 223.601169 
L 343.788647 219.503221 
L 344.465462 187.727358 
L 344.803869 222.19442 
L 345.480684 187.727358 
L 345.819092 205.50927 
L 346.157499 201.057102 
L 346.495906 216.250504 
L 346.834314 205.771447 
L 347.172721 216.250504 
L 347.511129 205.50927 
L 347.849536 219.224189 
L 348.187943 180.006641 
L 348.526351 216.250504 
L 348.864758 193.671275 
L 349.203166 207.925039 
L 349.541573 205.50927 
L 349.879981 219.224189 
L 350.218388 196.073 
L 350.556795 214.468455 
L 351.23361 231.402064 
L 351.572018 223.601169 
L 351.910425 219.503221 
L 352.248833 223.601169 
L 352.58724 216.765438 
L 352.925647 220.147546 
L 353.264055 219.503221 
L 353.602462 187.727358 
L 354.279277 216.250504 
L 354.617685 216.250504 
L 354.956092 205.771447 
L 355.294499 216.250504 
L 355.632907 187.727358 
L 355.971314 187.727358 
L 356.648129 219.224189 
L 356.986536 201.057102 
L 357.324944 216.250504 
L 357.663351 205.50927 
L 358.001759 219.224189 
L 358.340166 207.978018 
L 358.678574 216.250504 
L 359.016981 216.250504 
L 359.355388 219.224189 
L 359.693796 216.765438 
L 360.032203 223.601169 
L 360.709018 219.503221 
L 361.047426 223.601169 
L 361.385833 220.147546 
L 361.72424 219.503221 
L 362.062648 196.550914 
L 362.401055 205.771447 
L 362.739463 187.727358 
L 363.416278 216.250504 
L 363.754685 216.250504 
L 364.093092 187.727358 
L 364.4315 205.771447 
L 364.769907 216.250504 
L 365.108315 187.727358 
L 365.446722 219.224189 
L 365.785129 219.224189 
L 366.123537 223.601169 
L 366.461944 220.147546 
L 366.800352 223.601169 
L 367.138759 219.503221 
L 367.477167 223.601169 
L 367.815574 220.147546 
L 368.153981 219.503221 
L 368.492389 223.601169 
L 368.830796 220.147546 
L 369.169204 225.889048 
L 369.507611 220.147546 
L 369.846019 218.622858 
L 370.184426 223.601169 
L 370.522833 220.911554 
L 370.861241 223.601169 
L 371.199648 214.468455 
L 371.876463 187.727358 
L 372.214871 211.715363 
L 372.553278 216.250504 
L 372.891685 216.250504 
L 373.230093 187.727358 
L 373.906908 216.250504 
L 374.245315 187.727358 
L 374.583722 217.692382 
L 374.92213 216.250504 
L 375.260537 205.771447 
L 375.598945 216.250504 
L 375.937352 219.224189 
L 376.27576 196.073 
L 376.614167 219.224189 
L 376.952574 196.073 
L 377.629389 219.224189 
L 377.967797 216.34198 
L 378.306204 216.250504 
L 378.644612 219.224189 
L 378.983019 219.503221 
L 379.321426 220.147546 
L 379.659834 223.601169 
L 379.998241 219.503221 
L 380.336649 223.601169 
L 380.675056 220.147546 
L 381.013464 223.601169 
L 381.351871 218.271787 
L 381.690278 220.147546 
L 382.028686 223.601169 
L 382.367093 223.601169 
L 382.705501 221.814626 
L 383.043908 225.819718 
L 383.382315 201.057102 
L 383.720723 187.727358 
L 384.05913 216.250504 
L 384.397538 216.250504 
L 384.735945 187.727358 
L 385.41276 216.250504 
L 385.751167 219.224189 
L 386.427982 214.900102 
L 386.76639 216.250504 
L 387.104797 216.250504 
L 387.443205 187.727358 
L 387.781612 219.224189 
L 388.458427 214.468455 
L 388.796834 219.503221 
L 389.135242 203.810962 
L 389.473649 205.771447 
L 389.812057 216.250504 
L 390.150464 216.250504 
L 390.488871 219.224189 
L 390.827279 196.073 
L 391.165686 223.601169 
L 391.504094 219.503221 
L 391.842501 223.601169 
L 392.180908 220.147546 
L 392.519316 223.601169 
L 392.857723 218.271787 
L 393.196131 223.601169 
L 393.534538 220.147546 
L 393.872946 223.601169 
L 394.211353 222.409443 
L 394.54976 196.073 
L 394.888168 216.765438 
L 395.226575 218.622858 
L 395.90339 225.575341 
L 396.241798 219.224189 
L 396.580205 219.224189 
L 396.918612 216.250504 
L 397.25702 216.250504 
L 397.595427 219.224189 
L 397.933835 216.341977 
L 398.61065 216.250504 
L 398.949057 207.978018 
L 399.287464 216.250504 
L 399.625872 216.765438 
L 399.964279 214.468455 
L 400.302687 218.207317 
L 400.641094 219.503221 
L 400.979501 214.900102 
L 401.317909 216.250504 
L 401.656316 216.250504 
L 401.994724 219.224189 
L 402.333131 214.468455 
L 402.671539 223.601169 
L 403.009946 213.561226 
L 403.348353 219.224189 
L 403.686761 220.147546 
L 404.025168 223.601169 
L 404.701983 203.810962 
L 405.040391 216.250504 
L 405.378798 216.250504 
L 405.717205 219.224189 
L 406.055613 216.765438 
L 406.39402 223.601169 
L 406.732428 222.10903 
L 407.070835 210.901712 
L 407.409243 225.200157 
L 407.74765 224.46659 
L 408.086057 216.765438 
L 408.424465 214.468455 
L 408.762872 219.224189 
L 409.10128 214.900102 
L 409.439687 216.250504 
L 409.778094 216.250504 
L 410.116502 225.168105 
L 410.454909 223.601169 
L 410.793317 228.690099 
L 411.131724 223.601169 
L 411.470132 228.690099 
L 411.808539 225.200157 
L 412.146946 224.46659 
L 412.485354 216.765438 
L 412.823761 216.765438 
L 413.162169 214.468455 
L 413.500576 196.073 
L 413.838984 219.224189 
L 414.177391 214.900102 
L 414.515798 219.224189 
L 414.854206 196.073 
L 415.192613 223.601169 
L 415.869428 203.810962 
L 416.207836 219.224189 
L 416.546243 207.978018 
L 416.88465 216.250504 
L 417.223058 219.224189 
L 417.561465 216.765438 
L 417.899873 223.601169 
L 418.23828 225.575341 
L 418.576687 214.468455 
L 418.915095 196.073 
L 419.59191 228.690099 
L 419.930317 225.200157 
L 420.268725 224.46659 
L 420.607132 216.765438 
L 420.945539 214.900102 
L 421.283947 219.224189 
L 421.622354 219.224189 
L 421.960762 223.601169 
L 422.299169 222.409443 
L 422.637577 219.224189 
L 422.975984 195.81186 
L 423.314391 203.810962 
L 423.652799 219.224189 
L 424.329614 228.690099 
L 424.668021 225.200157 
L 425.006429 224.46659 
L 425.344836 225.575341 
L 425.683243 196.073 
L 426.360058 219.224189 
L 426.698466 196.073 
L 427.036873 214.468455 
L 427.37528 209.027608 
L 427.713688 219.224189 
L 428.052095 207.978018 
L 428.390503 219.224189 
L 428.72891 223.601169 
L 429.067318 225.575341 
L 429.405725 203.810962 
L 429.744132 219.224189 
L 430.08254 195.81186 
L 430.420947 223.601169 
L 430.759355 228.690099 
L 431.097762 228.690099 
L 431.43617 225.200157 
L 431.774577 224.46659 
L 432.112984 228.690099 
L 432.451392 225.200157 
L 432.789799 224.46659 
L 433.128207 210.901712 
L 433.466614 228.690099 
L 433.805022 225.575341 
L 434.143429 216.765438 
L 434.481836 216.765438 
L 434.820244 214.900102 
L 435.158651 219.224189 
L 435.497059 219.224189 
L 435.835466 223.601169 
L 436.173873 222.10903 
L 436.850688 228.690099 
L 437.189096 224.46659 
L 437.527503 214.468455 
L 438.204318 219.224189 
L 438.542725 213.561226 
L 438.881133 219.224189 
L 439.21954 196.073 
L 439.557948 196.073 
L 439.896355 203.810962 
L 440.234763 219.224189 
L 440.57317 196.073 
L 441.249985 219.224189 
L 441.588392 219.224189 
L 441.9268 223.601169 
L 442.265207 195.81186 
L 442.942022 219.224189 
L 443.280429 203.810962 
L 443.618837 196.073 
L 443.957244 223.601169 
L 444.295652 212.398495 
L 444.634059 214.900102 
L 444.972466 219.224189 
L 445.310874 195.81186 
L 445.987689 219.224189 
L 446.326096 223.601169 
L 446.664504 222.409443 
L 447.002911 225.575341 
L 447.679726 214.733811 
L 448.018133 228.690099 
L 448.356541 225.200157 
L 448.694948 228.690099 
L 449.033356 224.46659 
L 449.371763 225.575341 
L 449.71017 196.073 
L 450.048578 223.601169 
L 450.386985 225.200157 
L 450.725393 228.690099 
L 451.0638 224.46659 
L 451.402208 210.901712 
L 451.740615 225.200157 
L 452.079022 226.573154 
L 452.755837 216.765438 
L 453.094245 216.765438 
L 453.432652 219.224189 
L 453.771059 219.224189 
L 454.109467 223.601169 
L 454.447874 212.398495 
L 454.786282 219.224189 
L 455.124689 219.224189 
L 455.463097 223.601169 
L 455.801504 210.901712 
L 456.139911 224.46659 
L 456.478319 216.765438 
L 456.816726 214.468455 
L 457.155134 219.224189 
L 457.493541 195.81186 
L 457.831949 219.224189 
L 458.170356 223.601169 
L 458.508763 222.409443 
L 458.847171 219.224189 
L 459.185578 214.733811 
L 459.523986 225.575341 
L 459.862393 219.224189 
L 460.200801 223.601169 
L 460.539208 225.200157 
L 460.877615 228.690099 
L 461.216023 228.690099 
L 461.55443 224.46659 
L 461.892838 210.901712 
L 462.231245 225.200157 
L 462.569652 222.187334 
L 462.90806 196.073 
L 463.246467 219.224189 
L 463.584875 219.224189 
L 463.923282 223.601169 
L 464.26169 212.398495 
L 464.600097 219.224189 
L 464.938504 196.073 
L 465.276912 219.224189 
L 465.615319 213.561226 
L 466.292134 223.601169 
L 466.630542 210.901712 
L 466.968949 228.690099 
L 467.307356 224.46659 
L 467.645764 196.073 
L 467.984171 203.810962 
L 468.322579 219.224189 
L 468.660986 207.978018 
L 468.999394 219.224189 
L 469.337801 196.073 
L 469.676208 203.810962 
L 470.014616 219.224189 
L 470.353023 223.601169 
L 470.691431 214.733811 
L 471.029838 222.409443 
L 471.368245 196.073 
L 471.706653 225.575341 
L 472.04506 219.224189 
L 472.383468 223.601169 
L 472.721875 222.10903 
L 473.060283 225.575341 
L 473.737097 212.398495 
L 474.075505 219.224189 
L 474.75232 228.690099 
L 475.090727 225.200157 
L 475.429135 228.690099 
L 475.767542 228.690099 
L 476.105949 225.26051 
L 476.444357 233.899629 
L 476.782764 228.690099 
L 477.121172 225.200157 
L 477.459579 224.46659 
L 477.797987 195.81186 
L 478.136394 219.224189 
L 478.474801 223.601169 
L 478.813209 210.901712 
L 479.151616 212.341368 
L 479.490024 207.978018 
L 479.828431 219.224189 
L 480.166838 219.224189 
L 480.505246 223.601169 
L 480.843653 214.733811 
L 481.182061 225.575341 
L 481.520468 219.224189 
L 481.858876 223.601169 
L 482.197283 222.10903 
L 482.874098 228.690099 
L 483.550913 219.224189 
L 483.88932 186.209188 
L 484.227728 219.224189 
L 484.566135 196.073 
L 484.904542 219.224189 
L 485.24295 223.601169 
L 485.581357 195.81186 
L 485.919765 196.073 
L 486.258172 196.073 
L 486.59658 223.601169 
L 486.934987 212.398495 
L 487.273394 219.224189 
L 487.611802 210.901712 
L 487.950209 214.733811 
L 488.288617 225.575341 
L 488.965431 210.901712 
L 489.303839 222.409443 
L 489.642246 219.224189 
L 489.980654 223.601169 
L 490.319061 222.10903 
L 490.657469 225.575341 
L 491.334283 212.398495 
L 491.672691 219.224189 
L 492.011098 219.224189 
L 492.349506 223.601169 
L 492.687913 210.901712 
L 493.026321 225.200157 
L 493.364728 228.690099 
L 493.703135 224.46659 
L 494.041543 223.601169 
L 494.37995 214.733811 
L 495.056765 222.409443 
L 495.395173 219.224189 
L 495.73358 223.601169 
L 496.071987 225.575341 
L 496.748802 212.398495 
L 497.08721 219.224189 
L 497.764025 228.690099 
L 498.102432 228.690099 
L 498.440839 225.200157 
L 498.779247 228.690099 
L 499.117654 224.46659 
L 499.456062 210.901712 
L 499.794469 228.690099 
L 500.132876 225.200157 
L 500.471284 210.901712 
L 500.809691 228.690099 
L 501.148099 228.690099 
L 501.824914 219.224189 
L 502.163321 219.224189 
L 502.501728 223.601169 
L 502.840136 223.601169 
L 503.516951 214.733811 
L 503.855358 212.398495 
L 504.193766 219.224189 
L 504.532173 219.224189 
L 504.87058 223.601169 
L 505.208988 210.901712 
L 505.547395 225.200157 
L 505.885803 210.901712 
L 506.22421 225.575341 
L 506.901025 214.733811 
L 507.239432 212.398495 
L 507.57784 219.224189 
L 507.916247 219.224189 
L 508.254655 223.601169 
L 508.593062 210.901712 
L 508.931469 228.690099 
L 509.269877 228.690099 
L 509.946692 219.224189 
L 510.285099 223.601169 
L 510.623507 210.901712 
L 510.961914 222.10903 
L 511.300321 225.200157 
L 511.638729 219.224189 
L 511.977136 223.601169 
L 512.315544 219.224189 
L 512.653951 212.398495 
L 512.992359 219.224189 
L 513.330766 219.224189 
L 513.669173 223.601169 
L 514.007581 214.733811 
L 514.345988 210.901712 
L 514.684396 228.690099 
L 515.361211 228.690099 
L 515.699618 225.200157 
L 516.038025 228.690099 
L 516.376433 204.104238 
L 516.71484 223.601169 
L 517.053248 228.690099 
L 517.391655 204.104238 
L 517.730062 228.690099 
L 518.06847 234.1454 
L 519.083692 234.1454 
L 519.4221 204.104238 
L 519.760507 228.690099 
L 520.098914 204.104238 
L 520.437322 228.690099 
L 520.775729 204.104238 
L 521.114137 228.690099 
L 521.452544 234.1454 
L 523.821396 234.1454 
L 524.159804 232.784447 
L 524.498211 232.784447 
L 525.175026 219.224189 
L 525.513433 224.762747 
L 525.851841 219.224189 
L 526.190248 224.762747 
L 526.528655 216.250504 
L 526.867063 219.224189 
L 527.20547 224.762747 
L 527.543878 216.250504 
L 527.882285 219.224189 
L 528.5591 228.690099 
L 528.897507 223.597085 
L 529.574322 223.601169 
L 529.91273 219.224189 
L 530.251137 228.690099 
L 530.589545 224.762747 
L 530.927952 216.250504 
L 531.266359 216.250504 
L 531.604767 219.224189 
L 531.943174 223.601169 
L 532.281582 219.224189 
L 532.619989 228.690099 
L 532.958397 223.601169 
L 533.296804 223.597085 
L 533.635211 216.250504 
L 533.973619 219.224189 
L 534.312026 223.601169 
L 534.650434 223.601169 
L 534.988841 219.224189 
L 535.327248 228.690099 
L 536.004063 228.690099 
L 536.342471 232.784447 
L 537.019286 216.250504 
L 537.357693 216.250504 
L 537.6961 219.224189 
L 538.034508 219.224189 
L 538.372915 223.601169 
L 538.711323 223.597085 
L 539.04973 216.250504 
L 539.388138 219.224189 
L 539.726545 223.601169 
L 540.064952 223.601169 
L 540.40336 228.690099 
L 540.741767 228.690099 
L 541.080175 224.762747 
L 541.418582 219.224189 
L 542.095397 228.690099 
L 542.433804 229.836132 
L 542.772212 229.836132 
L 543.110619 230.615863 
L 543.449027 234.1454 
L 544.464249 234.1454 
L 544.802656 232.784447 
L 545.141064 232.784447 
L 545.817879 219.224189 
L 546.156286 228.690099 
L 546.494693 223.601169 
L 547.171508 232.784447 
L 547.509916 234.1454 
L 550.555583 234.1454 
L 550.89399 245.739483 
L 553.939657 245.739483 
L 554.278064 245.306857 
L 558.338953 245.306857 
L 558.677361 245.739483 
L 559.015768 213.684902 
L 559.354176 245.739483 
L 559.692583 245.739483 
L 560.03099 213.684902 
L 560.369398 235.38984 
L 564.091879 235.38984 
L 564.430287 234.1454 
L 564.768694 235.38984 
L 565.107102 235.38984 
L 565.445509 234.1454 
L 565.783917 232.315041 
L 566.122324 234.1454 
L 566.460731 245.739483 
L 566.799139 241.727627 
L 567.137546 245.739483 
L 567.475954 245.739483 
L 567.814361 213.684902 
L 568.152769 245.739483 
L 568.491176 213.684902 
L 568.829583 245.739483 
L 569.167991 213.684902 
L 569.506398 245.739483 
L 569.844806 213.684902 
L 570.183213 213.684902 
L 570.52162 245.739483 
L 570.860028 213.684902 
L 571.198435 245.739483 
L 571.536843 251.497699 
L 572.890472 251.497699 
L 573.22888 251.37438 
L 575.259324 251.37438 
L 575.597732 228.869443 
L 575.936139 251.497699 
L 576.274547 251.497699 
L 576.612954 251.37438 
L 576.951362 228.869443 
L 577.289769 251.497699 
L 577.628176 228.869443 
L 577.966584 251.497699 
L 578.304991 251.37438 
L 578.643399 228.869443 
L 578.981806 251.37438 
L 579.320213 243.432247 
L 579.658621 251.497699 
L 579.997028 228.869443 
L 580.335436 249.477442 
L 581.012251 249.477442 
L 581.350658 251.497699 
L 581.689065 251.497699 
L 582.027473 243.432247 
L 582.36588 228.869443 
L 583.042695 268.690239 
L 583.381103 255.931756 
L 583.71951 268.690239 
L 584.057917 255.931756 
L 584.396325 255.931756 
L 585.07314 219.79861 
L 585.411547 251.497699 
L 586.088362 219.79861 
L 586.426769 239.212781 
L 586.765177 230.337462 
L 587.103584 196.849568 
L 587.441992 196.849568 
L 587.780399 219.218573 
L 589.472436 219.218573 
L 589.810844 225.575341 
L 590.487658 225.575341 
L 590.826066 207.138391 
L 591.164473 219.218573 
L 591.502881 219.218573 
L 591.841288 216.250504 
L 592.179696 223.601169 
L 592.518103 225.575341 
L 592.85651 234.1454 
L 593.194918 207.138391 
L 593.533325 219.218573 
L 593.871733 216.250504 
L 594.21014 223.601169 
L 594.548548 223.601169 
L 594.886955 216.250504 
L 595.225362 196.849568 
L 595.56377 216.250504 
L 595.902177 216.250504 
L 596.240585 219.218573 
L 596.578992 216.250504 
L 596.917399 216.250504 
L 597.255807 219.218573 
L 597.594214 216.250504 
L 597.932622 219.224189 
L 598.271029 216.250504 
L 598.609437 219.224189 
L 598.947844 216.250504 
L 599.286251 223.601169 
L 599.624659 223.601169 
L 599.963066 196.073 
L 600.301474 216.250504 
L 600.639881 219.224189 
L 600.978289 216.250504 
L 601.316696 219.224189 
L 601.655103 216.250504 
L 601.993511 196.073 
L 602.331918 223.601169 
L 603.008733 216.250504 
L 603.347141 223.601169 
L 603.685548 216.250504 
L 604.023955 196.073 
L 604.362363 219.224189 
L 604.70077 216.250504 
L 605.039178 196.073 
L 605.377585 223.601169 
L 606.0544 216.250504 
L 606.392807 223.601169 
L 606.731215 196.073 
L 607.069622 223.601169 
L 607.746437 216.250504 
L 608.084844 216.250504 
L 608.423252 196.073 
L 608.761659 219.224189 
L 609.100067 216.250504 
L 609.438474 196.073 
L 609.776882 223.601169 
L 610.115289 224.762747 
L 610.453696 219.224189 
L 610.792104 216.250504 
L 611.130511 219.224189 
L 611.468919 216.250504 
L 612.145734 228.690099 
L 612.484141 228.690099 
L 612.822548 219.224189 
L 613.160956 219.224189 
L 613.837771 228.690099 
L 614.176178 223.601169 
L 614.514585 224.762747 
L 614.852993 219.224189 
L 615.1914 219.224189 
L 615.529808 216.250504 
L 616.206623 228.690099 
L 616.54503 224.762747 
L 616.883437 219.224189 
L 617.221845 219.224189 
L 617.560252 216.250504 
L 618.237067 228.690099 
L 618.575475 234.1454 
L 620.605919 234.1454 
L 620.944327 207.138391 
L 621.282734 219.224189 
L 621.621141 223.601169 
L 621.959549 195.81186 
L 622.297956 219.224189 
L 622.636364 223.601169 
L 622.636364 223.601169 
" style="fill:none;stroke:#1f77b4;stroke-linecap:square;stroke-width:1.5;"/>
   </g>
   <g id="patch_3">
    <path d="M 90 315 
L 90 43.2 
" style="fill:none;stroke:#000000;stroke-linecap:square;stroke-linejoin:miter;stroke-width:0.8;"/>
   </g>
   <g id="patch_4">
    <path d="M 648 315 
L 648 43.2 
" style="fill:none;stroke:#000000;stroke-linecap:square;stroke-linejoin:miter;stroke-width:0.8;"/>
   </g>
   <g id="patch_5">
    <path d="M 90 315 
L 648 315 
" style="fill:none;stroke:#000000;stroke-linecap:square;stroke-linejoin:miter;stroke-width:0.8;"/>
   </g>
   <g id="patch_6">
    <path d="M 90 43.2 
L 648 43.2 
" style="fill:none;stroke:#000000;stroke-linecap:square;stroke-linejoin:miter;stroke-width:0.8;"/>
   </g>
   <g id="text_18">
    <!-- Episode Reward over Time (Smoothed over window size 1) -->
    <defs>
     <path d="M 2.984375 54.6875 
L 12.5 54.6875 
L 29.59375 8.796875 
L 46.6875 54.6875 
L 56.203125 54.6875 
L 35.6875 0 
L 23.484375 0 
z
" id="DejaVuSans-118"/>
     <path d="M -0.296875 72.90625 
L 61.375 72.90625 
L 61.375 64.59375 
L 35.5 64.59375 
L 35.5 0 
L 25.59375 0 
L 25.59375 64.59375 
L -0.296875 64.59375 
z
" id="DejaVuSans-84"/>
     <path d="M 54.890625 33.015625 
L 54.890625 0 
L 45.90625 0 
L 45.90625 32.71875 
Q 45.90625 40.484375 42.875 44.328125 
Q 39.84375 48.1875 33.796875 48.1875 
Q 26.515625 48.1875 22.3125 43.546875 
Q 18.109375 38.921875 18.109375 30.90625 
L 18.109375 0 
L 9.078125 0 
L 9.078125 54.6875 
L 18.109375 54.6875 
L 18.109375 46.1875 
Q 21.34375 51.125 25.703125 53.5625 
Q 30.078125 56 35.796875 56 
Q 45.21875 56 50.046875 50.171875 
Q 54.890625 44.34375 54.890625 33.015625 
z
" id="DejaVuSans-110"/>
     <path d="M 5.515625 54.6875 
L 48.1875 54.6875 
L 48.1875 46.484375 
L 14.40625 7.171875 
L 48.1875 7.171875 
L 48.1875 0 
L 4.296875 0 
L 4.296875 8.203125 
L 38.09375 47.515625 
L 5.515625 47.515625 
z
" id="DejaVuSans-122"/>
    </defs>
    <g transform="translate(192.289688 37.2)scale(0.12 -0.12)">
     <use xlink:href="#DejaVuSans-69"/>
     <use x="63.183594" xlink:href="#DejaVuSans-112"/>
     <use x="126.660156" xlink:href="#DejaVuSans-105"/>
     <use x="154.443359" xlink:href="#DejaVuSans-115"/>
     <use x="206.542969" xlink:href="#DejaVuSans-111"/>
     <use x="267.724609" xlink:href="#DejaVuSans-100"/>
     <use x="331.201172" xlink:href="#DejaVuSans-101"/>
     <use x="392.724609" xlink:href="#DejaVuSans-32"/>
     <use x="424.511719" xlink:href="#DejaVuSans-82"/>
     <use x="493.931641" xlink:href="#DejaVuSans-101"/>
     <use x="555.455078" xlink:href="#DejaVuSans-119"/>
     <use x="637.242188" xlink:href="#DejaVuSans-97"/>
     <use x="698.521484" xlink:href="#DejaVuSans-114"/>
     <use x="739.619141" xlink:href="#DejaVuSans-100"/>
     <use x="803.095703" xlink:href="#DejaVuSans-32"/>
     <use x="834.882812" xlink:href="#DejaVuSans-111"/>
     <use x="896.064453" xlink:href="#DejaVuSans-118"/>
     <use x="955.244141" xlink:href="#DejaVuSans-101"/>
     <use x="1016.767578" xlink:href="#DejaVuSans-114"/>
     <use x="1057.880859" xlink:href="#DejaVuSans-32"/>
     <use x="1089.667969" xlink:href="#DejaVuSans-84"/>
     <use x="1150.705078" xlink:href="#DejaVuSans-105"/>
     <use x="1178.488281" xlink:href="#DejaVuSans-109"/>
     <use x="1275.900391" xlink:href="#DejaVuSans-101"/>
     <use x="1337.423828" xlink:href="#DejaVuSans-32"/>
     <use x="1369.210938" xlink:href="#DejaVuSans-40"/>
     <use x="1408.224609" xlink:href="#DejaVuSans-83"/>
     <use x="1471.701172" xlink:href="#DejaVuSans-109"/>
     <use x="1569.113281" xlink:href="#DejaVuSans-111"/>
     <use x="1630.294922" xlink:href="#DejaVuSans-111"/>
     <use x="1691.476562" xlink:href="#DejaVuSans-116"/>
     <use x="1730.685547" xlink:href="#DejaVuSans-104"/>
     <use x="1794.064453" xlink:href="#DejaVuSans-101"/>
     <use x="1855.587891" xlink:href="#DejaVuSans-100"/>
     <use x="1919.064453" xlink:href="#DejaVuSans-32"/>
     <use x="1950.851562" xlink:href="#DejaVuSans-111"/>
     <use x="2012.033203" xlink:href="#DejaVuSans-118"/>
     <use x="2071.212891" xlink:href="#DejaVuSans-101"/>
     <use x="2132.736328" xlink:href="#DejaVuSans-114"/>
     <use x="2173.849609" xlink:href="#DejaVuSans-32"/>
     <use x="2205.636719" xlink:href="#DejaVuSans-119"/>
     <use x="2287.423828" xlink:href="#DejaVuSans-105"/>
     <use x="2315.207031" xlink:href="#DejaVuSans-110"/>
     <use x="2378.585938" xlink:href="#DejaVuSans-100"/>
     <use x="2442.0625" xlink:href="#DejaVuSans-111"/>
     <use x="2503.244141" xlink:href="#DejaVuSans-119"/>
     <use x="2585.03125" xlink:href="#DejaVuSans-32"/>
     <use x="2616.818359" xlink:href="#DejaVuSans-115"/>
     <use x="2668.917969" xlink:href="#DejaVuSans-105"/>
     <use x="2696.701172" xlink:href="#DejaVuSans-122"/>
     <use x="2749.191406" xlink:href="#DejaVuSans-101"/>
     <use x="2810.714844" xlink:href="#DejaVuSans-32"/>
     <use x="2842.501953" xlink:href="#DejaVuSans-49"/>
     <use x="2906.125" xlink:href="#DejaVuSans-41"/>
    </g>
   </g>
  </g>
 </g>
 <defs>
  <clipPath id="pa84d2a1d60">
   <rect height="271.8" width="558" x="90" y="43.2"/>
  </clipPath>
 </defs>
</svg>
