<?xml version="1.0" encoding="utf-8" standalone="no"?>
<!DOCTYPE svg PUBLIC "-//W3C//DTD SVG 1.1//EN"
  "http://www.w3.org/Graphics/SVG/1.1/DTD/svg11.dtd">
<!-- Created with matplotlib (https://matplotlib.org/) -->
<svg height="360pt" version="1.1" viewBox="0 0 720 360" width="720pt" xmlns="http://www.w3.org/2000/svg" xmlns:xlink="http://www.w3.org/1999/xlink">
 <defs>
  <style type="text/css">
*{stroke-linecap:butt;stroke-linejoin:round;white-space:pre;}
  </style>
 </defs>
 <g id="figure_1">
  <g id="patch_1">
   <path d="M 0 360 
L 720 360 
L 720 0 
L 0 0 
z
" style="fill:#ffffff;"/>
  </g>
  <g id="axes_1">
   <g id="patch_2">
    <path d="M 90 315 
L 648 315 
L 648 43.2 
L 90 43.2 
z
" style="fill:#ffffff;"/>
   </g>
   <g id="matplotlib.axis_1">
    <g id="xtick_1">
     <g id="line2d_1">
      <path clip-path="url(#pb5523f3942)" d="M 115.363636 315 
L 115.363636 43.2 
" style="fill:none;stroke:#b0b0b0;stroke-linecap:square;stroke-width:0.8;"/>
     </g>
     <g id="line2d_2">
      <defs>
       <path d="M 0 0 
L 0 3.5 
" id="mb63331bb34" style="stroke:#000000;stroke-width:0.8;"/>
      </defs>
      <g>
       <use style="stroke:#000000;stroke-width:0.8;" x="115.363636" xlink:href="#mb63331bb34" y="315"/>
      </g>
     </g>
     <g id="text_1">
      <!-- 0 -->
      <defs>
       <path d="M 31.78125 66.40625 
Q 24.171875 66.40625 20.328125 58.90625 
Q 16.5 51.421875 16.5 36.375 
Q 16.5 21.390625 20.328125 13.890625 
Q 24.171875 6.390625 31.78125 6.390625 
Q 39.453125 6.390625 43.28125 13.890625 
Q 47.125 21.390625 47.125 36.375 
Q 47.125 51.421875 43.28125 58.90625 
Q 39.453125 66.40625 31.78125 66.40625 
z
M 31.78125 74.21875 
Q 44.046875 74.21875 50.515625 64.515625 
Q 56.984375 54.828125 56.984375 36.375 
Q 56.984375 17.96875 50.515625 8.265625 
Q 44.046875 -1.421875 31.78125 -1.421875 
Q 19.53125 -1.421875 13.0625 8.265625 
Q 6.59375 17.96875 6.59375 36.375 
Q 6.59375 54.828125 13.0625 64.515625 
Q 19.53125 74.21875 31.78125 74.21875 
z
" id="DejaVuSans-48"/>
      </defs>
      <g transform="translate(112.182386 329.598437)scale(0.1 -0.1)">
       <use xlink:href="#DejaVuSans-48"/>
      </g>
     </g>
    </g>
    <g id="xtick_2">
     <g id="line2d_3">
      <path clip-path="url(#pb5523f3942)" d="M 183.045121 315 
L 183.045121 43.2 
" style="fill:none;stroke:#b0b0b0;stroke-linecap:square;stroke-width:0.8;"/>
     </g>
     <g id="line2d_4">
      <g>
       <use style="stroke:#000000;stroke-width:0.8;" x="183.045121" xlink:href="#mb63331bb34" y="315"/>
      </g>
     </g>
     <g id="text_2">
      <!-- 200 -->
      <defs>
       <path d="M 19.1875 8.296875 
L 53.609375 8.296875 
L 53.609375 0 
L 7.328125 0 
L 7.328125 8.296875 
Q 12.9375 14.109375 22.625 23.890625 
Q 32.328125 33.6875 34.8125 36.53125 
Q 39.546875 41.84375 41.421875 45.53125 
Q 43.3125 49.21875 43.3125 52.78125 
Q 43.3125 58.59375 39.234375 62.25 
Q 35.15625 65.921875 28.609375 65.921875 
Q 23.96875 65.921875 18.8125 64.3125 
Q 13.671875 62.703125 7.8125 59.421875 
L 7.8125 69.390625 
Q 13.765625 71.78125 18.9375 73 
Q 24.125 74.21875 28.421875 74.21875 
Q 39.75 74.21875 46.484375 68.546875 
Q 53.21875 62.890625 53.21875 53.421875 
Q 53.21875 48.921875 51.53125 44.890625 
Q 49.859375 40.875 45.40625 35.40625 
Q 44.1875 33.984375 37.640625 27.21875 
Q 31.109375 20.453125 19.1875 8.296875 
z
" id="DejaVuSans-50"/>
      </defs>
      <g transform="translate(173.501371 329.598437)scale(0.1 -0.1)">
       <use xlink:href="#DejaVuSans-50"/>
       <use x="63.623047" xlink:href="#DejaVuSans-48"/>
       <use x="127.246094" xlink:href="#DejaVuSans-48"/>
      </g>
     </g>
    </g>
    <g id="xtick_3">
     <g id="line2d_5">
      <path clip-path="url(#pb5523f3942)" d="M 250.726606 315 
L 250.726606 43.2 
" style="fill:none;stroke:#b0b0b0;stroke-linecap:square;stroke-width:0.8;"/>
     </g>
     <g id="line2d_6">
      <g>
       <use style="stroke:#000000;stroke-width:0.8;" x="250.726606" xlink:href="#mb63331bb34" y="315"/>
      </g>
     </g>
     <g id="text_3">
      <!-- 400 -->
      <defs>
       <path d="M 37.796875 64.3125 
L 12.890625 25.390625 
L 37.796875 25.390625 
z
M 35.203125 72.90625 
L 47.609375 72.90625 
L 47.609375 25.390625 
L 58.015625 25.390625 
L 58.015625 17.1875 
L 47.609375 17.1875 
L 47.609375 0 
L 37.796875 0 
L 37.796875 17.1875 
L 4.890625 17.1875 
L 4.890625 26.703125 
z
" id="DejaVuSans-52"/>
      </defs>
      <g transform="translate(241.182856 329.598437)scale(0.1 -0.1)">
       <use xlink:href="#DejaVuSans-52"/>
       <use x="63.623047" xlink:href="#DejaVuSans-48"/>
       <use x="127.246094" xlink:href="#DejaVuSans-48"/>
      </g>
     </g>
    </g>
    <g id="xtick_4">
     <g id="line2d_7">
      <path clip-path="url(#pb5523f3942)" d="M 318.40809 315 
L 318.40809 43.2 
" style="fill:none;stroke:#b0b0b0;stroke-linecap:square;stroke-width:0.8;"/>
     </g>
     <g id="line2d_8">
      <g>
       <use style="stroke:#000000;stroke-width:0.8;" x="318.40809" xlink:href="#mb63331bb34" y="315"/>
      </g>
     </g>
     <g id="text_4">
      <!-- 600 -->
      <defs>
       <path d="M 33.015625 40.375 
Q 26.375 40.375 22.484375 35.828125 
Q 18.609375 31.296875 18.609375 23.390625 
Q 18.609375 15.53125 22.484375 10.953125 
Q 26.375 6.390625 33.015625 6.390625 
Q 39.65625 6.390625 43.53125 10.953125 
Q 47.40625 15.53125 47.40625 23.390625 
Q 47.40625 31.296875 43.53125 35.828125 
Q 39.65625 40.375 33.015625 40.375 
z
M 52.59375 71.296875 
L 52.59375 62.3125 
Q 48.875 64.0625 45.09375 64.984375 
Q 41.3125 65.921875 37.59375 65.921875 
Q 27.828125 65.921875 22.671875 59.328125 
Q 17.53125 52.734375 16.796875 39.40625 
Q 19.671875 43.65625 24.015625 45.921875 
Q 28.375 48.1875 33.59375 48.1875 
Q 44.578125 48.1875 50.953125 41.515625 
Q 57.328125 34.859375 57.328125 23.390625 
Q 57.328125 12.15625 50.6875 5.359375 
Q 44.046875 -1.421875 33.015625 -1.421875 
Q 20.359375 -1.421875 13.671875 8.265625 
Q 6.984375 17.96875 6.984375 36.375 
Q 6.984375 53.65625 15.1875 63.9375 
Q 23.390625 74.21875 37.203125 74.21875 
Q 40.921875 74.21875 44.703125 73.484375 
Q 48.484375 72.75 52.59375 71.296875 
z
" id="DejaVuSans-54"/>
      </defs>
      <g transform="translate(308.86434 329.598437)scale(0.1 -0.1)">
       <use xlink:href="#DejaVuSans-54"/>
       <use x="63.623047" xlink:href="#DejaVuSans-48"/>
       <use x="127.246094" xlink:href="#DejaVuSans-48"/>
      </g>
     </g>
    </g>
    <g id="xtick_5">
     <g id="line2d_9">
      <path clip-path="url(#pb5523f3942)" d="M 386.089575 315 
L 386.089575 43.2 
" style="fill:none;stroke:#b0b0b0;stroke-linecap:square;stroke-width:0.8;"/>
     </g>
     <g id="line2d_10">
      <g>
       <use style="stroke:#000000;stroke-width:0.8;" x="386.089575" xlink:href="#mb63331bb34" y="315"/>
      </g>
     </g>
     <g id="text_5">
      <!-- 800 -->
      <defs>
       <path d="M 31.78125 34.625 
Q 24.75 34.625 20.71875 30.859375 
Q 16.703125 27.09375 16.703125 20.515625 
Q 16.703125 13.921875 20.71875 10.15625 
Q 24.75 6.390625 31.78125 6.390625 
Q 38.8125 6.390625 42.859375 10.171875 
Q 46.921875 13.96875 46.921875 20.515625 
Q 46.921875 27.09375 42.890625 30.859375 
Q 38.875 34.625 31.78125 34.625 
z
M 21.921875 38.8125 
Q 15.578125 40.375 12.03125 44.71875 
Q 8.5 49.078125 8.5 55.328125 
Q 8.5 64.0625 14.71875 69.140625 
Q 20.953125 74.21875 31.78125 74.21875 
Q 42.671875 74.21875 48.875 69.140625 
Q 55.078125 64.0625 55.078125 55.328125 
Q 55.078125 49.078125 51.53125 44.71875 
Q 48 40.375 41.703125 38.8125 
Q 48.828125 37.15625 52.796875 32.3125 
Q 56.78125 27.484375 56.78125 20.515625 
Q 56.78125 9.90625 50.3125 4.234375 
Q 43.84375 -1.421875 31.78125 -1.421875 
Q 19.734375 -1.421875 13.25 4.234375 
Q 6.78125 9.90625 6.78125 20.515625 
Q 6.78125 27.484375 10.78125 32.3125 
Q 14.796875 37.15625 21.921875 38.8125 
z
M 18.3125 54.390625 
Q 18.3125 48.734375 21.84375 45.5625 
Q 25.390625 42.390625 31.78125 42.390625 
Q 38.140625 42.390625 41.71875 45.5625 
Q 45.3125 48.734375 45.3125 54.390625 
Q 45.3125 60.0625 41.71875 63.234375 
Q 38.140625 66.40625 31.78125 66.40625 
Q 25.390625 66.40625 21.84375 63.234375 
Q 18.3125 60.0625 18.3125 54.390625 
z
" id="DejaVuSans-56"/>
      </defs>
      <g transform="translate(376.545825 329.598437)scale(0.1 -0.1)">
       <use xlink:href="#DejaVuSans-56"/>
       <use x="63.623047" xlink:href="#DejaVuSans-48"/>
       <use x="127.246094" xlink:href="#DejaVuSans-48"/>
      </g>
     </g>
    </g>
    <g id="xtick_6">
     <g id="line2d_11">
      <path clip-path="url(#pb5523f3942)" d="M 453.771059 315 
L 453.771059 43.2 
" style="fill:none;stroke:#b0b0b0;stroke-linecap:square;stroke-width:0.8;"/>
     </g>
     <g id="line2d_12">
      <g>
       <use style="stroke:#000000;stroke-width:0.8;" x="453.771059" xlink:href="#mb63331bb34" y="315"/>
      </g>
     </g>
     <g id="text_6">
      <!-- 1000 -->
      <defs>
       <path d="M 12.40625 8.296875 
L 28.515625 8.296875 
L 28.515625 63.921875 
L 10.984375 60.40625 
L 10.984375 69.390625 
L 28.421875 72.90625 
L 38.28125 72.90625 
L 38.28125 8.296875 
L 54.390625 8.296875 
L 54.390625 0 
L 12.40625 0 
z
" id="DejaVuSans-49"/>
      </defs>
      <g transform="translate(441.046059 329.598437)scale(0.1 -0.1)">
       <use xlink:href="#DejaVuSans-49"/>
       <use x="63.623047" xlink:href="#DejaVuSans-48"/>
       <use x="127.246094" xlink:href="#DejaVuSans-48"/>
       <use x="190.869141" xlink:href="#DejaVuSans-48"/>
      </g>
     </g>
    </g>
    <g id="xtick_7">
     <g id="line2d_13">
      <path clip-path="url(#pb5523f3942)" d="M 521.452544 315 
L 521.452544 43.2 
" style="fill:none;stroke:#b0b0b0;stroke-linecap:square;stroke-width:0.8;"/>
     </g>
     <g id="line2d_14">
      <g>
       <use style="stroke:#000000;stroke-width:0.8;" x="521.452544" xlink:href="#mb63331bb34" y="315"/>
      </g>
     </g>
     <g id="text_7">
      <!-- 1200 -->
      <g transform="translate(508.727544 329.598437)scale(0.1 -0.1)">
       <use xlink:href="#DejaVuSans-49"/>
       <use x="63.623047" xlink:href="#DejaVuSans-50"/>
       <use x="127.246094" xlink:href="#DejaVuSans-48"/>
       <use x="190.869141" xlink:href="#DejaVuSans-48"/>
      </g>
     </g>
    </g>
    <g id="xtick_8">
     <g id="line2d_15">
      <path clip-path="url(#pb5523f3942)" d="M 589.134029 315 
L 589.134029 43.2 
" style="fill:none;stroke:#b0b0b0;stroke-linecap:square;stroke-width:0.8;"/>
     </g>
     <g id="line2d_16">
      <g>
       <use style="stroke:#000000;stroke-width:0.8;" x="589.134029" xlink:href="#mb63331bb34" y="315"/>
      </g>
     </g>
     <g id="text_8">
      <!-- 1400 -->
      <g transform="translate(576.409029 329.598437)scale(0.1 -0.1)">
       <use xlink:href="#DejaVuSans-49"/>
       <use x="63.623047" xlink:href="#DejaVuSans-52"/>
       <use x="127.246094" xlink:href="#DejaVuSans-48"/>
       <use x="190.869141" xlink:href="#DejaVuSans-48"/>
      </g>
     </g>
    </g>
    <g id="text_9">
     <!-- Episode -->
     <defs>
      <path d="M 9.8125 72.90625 
L 55.90625 72.90625 
L 55.90625 64.59375 
L 19.671875 64.59375 
L 19.671875 43.015625 
L 54.390625 43.015625 
L 54.390625 34.71875 
L 19.671875 34.71875 
L 19.671875 8.296875 
L 56.78125 8.296875 
L 56.78125 0 
L 9.8125 0 
z
" id="DejaVuSans-69"/>
      <path d="M 18.109375 8.203125 
L 18.109375 -20.796875 
L 9.078125 -20.796875 
L 9.078125 54.6875 
L 18.109375 54.6875 
L 18.109375 46.390625 
Q 20.953125 51.265625 25.265625 53.625 
Q 29.59375 56 35.59375 56 
Q 45.5625 56 51.78125 48.09375 
Q 58.015625 40.1875 58.015625 27.296875 
Q 58.015625 14.40625 51.78125 6.484375 
Q 45.5625 -1.421875 35.59375 -1.421875 
Q 29.59375 -1.421875 25.265625 0.953125 
Q 20.953125 3.328125 18.109375 8.203125 
z
M 48.6875 27.296875 
Q 48.6875 37.203125 44.609375 42.84375 
Q 40.53125 48.484375 33.40625 48.484375 
Q 26.265625 48.484375 22.1875 42.84375 
Q 18.109375 37.203125 18.109375 27.296875 
Q 18.109375 17.390625 22.1875 11.75 
Q 26.265625 6.109375 33.40625 6.109375 
Q 40.53125 6.109375 44.609375 11.75 
Q 48.6875 17.390625 48.6875 27.296875 
z
" id="DejaVuSans-112"/>
      <path d="M 9.421875 54.6875 
L 18.40625 54.6875 
L 18.40625 0 
L 9.421875 0 
z
M 9.421875 75.984375 
L 18.40625 75.984375 
L 18.40625 64.59375 
L 9.421875 64.59375 
z
" id="DejaVuSans-105"/>
      <path d="M 44.28125 53.078125 
L 44.28125 44.578125 
Q 40.484375 46.53125 36.375 47.5 
Q 32.28125 48.484375 27.875 48.484375 
Q 21.1875 48.484375 17.84375 46.4375 
Q 14.5 44.390625 14.5 40.28125 
Q 14.5 37.15625 16.890625 35.375 
Q 19.28125 33.59375 26.515625 31.984375 
L 29.59375 31.296875 
Q 39.15625 29.25 43.1875 25.515625 
Q 47.21875 21.78125 47.21875 15.09375 
Q 47.21875 7.46875 41.1875 3.015625 
Q 35.15625 -1.421875 24.609375 -1.421875 
Q 20.21875 -1.421875 15.453125 -0.5625 
Q 10.6875 0.296875 5.421875 2 
L 5.421875 11.28125 
Q 10.40625 8.6875 15.234375 7.390625 
Q 20.0625 6.109375 24.8125 6.109375 
Q 31.15625 6.109375 34.5625 8.28125 
Q 37.984375 10.453125 37.984375 14.40625 
Q 37.984375 18.0625 35.515625 20.015625 
Q 33.0625 21.96875 24.703125 23.78125 
L 21.578125 24.515625 
Q 13.234375 26.265625 9.515625 29.90625 
Q 5.8125 33.546875 5.8125 39.890625 
Q 5.8125 47.609375 11.28125 51.796875 
Q 16.75 56 26.8125 56 
Q 31.78125 56 36.171875 55.265625 
Q 40.578125 54.546875 44.28125 53.078125 
z
" id="DejaVuSans-115"/>
      <path d="M 30.609375 48.390625 
Q 23.390625 48.390625 19.1875 42.75 
Q 14.984375 37.109375 14.984375 27.296875 
Q 14.984375 17.484375 19.15625 11.84375 
Q 23.34375 6.203125 30.609375 6.203125 
Q 37.796875 6.203125 41.984375 11.859375 
Q 46.1875 17.53125 46.1875 27.296875 
Q 46.1875 37.015625 41.984375 42.703125 
Q 37.796875 48.390625 30.609375 48.390625 
z
M 30.609375 56 
Q 42.328125 56 49.015625 48.375 
Q 55.71875 40.765625 55.71875 27.296875 
Q 55.71875 13.875 49.015625 6.21875 
Q 42.328125 -1.421875 30.609375 -1.421875 
Q 18.84375 -1.421875 12.171875 6.21875 
Q 5.515625 13.875 5.515625 27.296875 
Q 5.515625 40.765625 12.171875 48.375 
Q 18.84375 56 30.609375 56 
z
" id="DejaVuSans-111"/>
      <path d="M 45.40625 46.390625 
L 45.40625 75.984375 
L 54.390625 75.984375 
L 54.390625 0 
L 45.40625 0 
L 45.40625 8.203125 
Q 42.578125 3.328125 38.25 0.953125 
Q 33.9375 -1.421875 27.875 -1.421875 
Q 17.96875 -1.421875 11.734375 6.484375 
Q 5.515625 14.40625 5.515625 27.296875 
Q 5.515625 40.1875 11.734375 48.09375 
Q 17.96875 56 27.875 56 
Q 33.9375 56 38.25 53.625 
Q 42.578125 51.265625 45.40625 46.390625 
z
M 14.796875 27.296875 
Q 14.796875 17.390625 18.875 11.75 
Q 22.953125 6.109375 30.078125 6.109375 
Q 37.203125 6.109375 41.296875 11.75 
Q 45.40625 17.390625 45.40625 27.296875 
Q 45.40625 37.203125 41.296875 42.84375 
Q 37.203125 48.484375 30.078125 48.484375 
Q 22.953125 48.484375 18.875 42.84375 
Q 14.796875 37.203125 14.796875 27.296875 
z
" id="DejaVuSans-100"/>
      <path d="M 56.203125 29.59375 
L 56.203125 25.203125 
L 14.890625 25.203125 
Q 15.484375 15.921875 20.484375 11.0625 
Q 25.484375 6.203125 34.421875 6.203125 
Q 39.59375 6.203125 44.453125 7.46875 
Q 49.3125 8.734375 54.109375 11.28125 
L 54.109375 2.78125 
Q 49.265625 0.734375 44.1875 -0.34375 
Q 39.109375 -1.421875 33.890625 -1.421875 
Q 20.796875 -1.421875 13.15625 6.1875 
Q 5.515625 13.8125 5.515625 26.8125 
Q 5.515625 40.234375 12.765625 48.109375 
Q 20.015625 56 32.328125 56 
Q 43.359375 56 49.78125 48.890625 
Q 56.203125 41.796875 56.203125 29.59375 
z
M 47.21875 32.234375 
Q 47.125 39.59375 43.09375 43.984375 
Q 39.0625 48.390625 32.421875 48.390625 
Q 24.90625 48.390625 20.390625 44.140625 
Q 15.875 39.890625 15.1875 32.171875 
z
" id="DejaVuSans-101"/>
     </defs>
     <g transform="translate(349.3625 343.276563)scale(0.1 -0.1)">
      <use xlink:href="#DejaVuSans-69"/>
      <use x="63.183594" xlink:href="#DejaVuSans-112"/>
      <use x="126.660156" xlink:href="#DejaVuSans-105"/>
      <use x="154.443359" xlink:href="#DejaVuSans-115"/>
      <use x="206.542969" xlink:href="#DejaVuSans-111"/>
      <use x="267.724609" xlink:href="#DejaVuSans-100"/>
      <use x="331.201172" xlink:href="#DejaVuSans-101"/>
     </g>
    </g>
   </g>
   <g id="matplotlib.axis_2">
    <g id="ytick_1">
     <g id="line2d_17">
      <path clip-path="url(#pb5523f3942)" d="M 90 287.407132 
L 648 287.407132 
" style="fill:none;stroke:#b0b0b0;stroke-linecap:square;stroke-width:0.8;"/>
     </g>
     <g id="line2d_18">
      <defs>
       <path d="M 0 0 
L -3.5 0 
" id="mea1c3695c5" style="stroke:#000000;stroke-width:0.8;"/>
      </defs>
      <g>
       <use style="stroke:#000000;stroke-width:0.8;" x="90" xlink:href="#mea1c3695c5" y="287.407132"/>
      </g>
     </g>
     <g id="text_10">
      <!-- −2.6 -->
      <defs>
       <path d="M 10.59375 35.5 
L 73.1875 35.5 
L 73.1875 27.203125 
L 10.59375 27.203125 
z
" id="DejaVuSans-8722"/>
       <path d="M 10.6875 12.40625 
L 21 12.40625 
L 21 0 
L 10.6875 0 
z
" id="DejaVuSans-46"/>
      </defs>
      <g transform="translate(58.717187 291.206351)scale(0.1 -0.1)">
       <use xlink:href="#DejaVuSans-8722"/>
       <use x="83.789062" xlink:href="#DejaVuSans-50"/>
       <use x="147.412109" xlink:href="#DejaVuSans-46"/>
       <use x="179.199219" xlink:href="#DejaVuSans-54"/>
      </g>
     </g>
    </g>
    <g id="ytick_2">
     <g id="line2d_19">
      <path clip-path="url(#pb5523f3942)" d="M 90 254.981029 
L 648 254.981029 
" style="fill:none;stroke:#b0b0b0;stroke-linecap:square;stroke-width:0.8;"/>
     </g>
     <g id="line2d_20">
      <g>
       <use style="stroke:#000000;stroke-width:0.8;" x="90" xlink:href="#mea1c3695c5" y="254.981029"/>
      </g>
     </g>
     <g id="text_11">
      <!-- −2.4 -->
      <g transform="translate(58.717187 258.780248)scale(0.1 -0.1)">
       <use xlink:href="#DejaVuSans-8722"/>
       <use x="83.789062" xlink:href="#DejaVuSans-50"/>
       <use x="147.412109" xlink:href="#DejaVuSans-46"/>
       <use x="179.199219" xlink:href="#DejaVuSans-52"/>
      </g>
     </g>
    </g>
    <g id="ytick_3">
     <g id="line2d_21">
      <path clip-path="url(#pb5523f3942)" d="M 90 222.554925 
L 648 222.554925 
" style="fill:none;stroke:#b0b0b0;stroke-linecap:square;stroke-width:0.8;"/>
     </g>
     <g id="line2d_22">
      <g>
       <use style="stroke:#000000;stroke-width:0.8;" x="90" xlink:href="#mea1c3695c5" y="222.554925"/>
      </g>
     </g>
     <g id="text_12">
      <!-- −2.2 -->
      <g transform="translate(58.717187 226.354144)scale(0.1 -0.1)">
       <use xlink:href="#DejaVuSans-8722"/>
       <use x="83.789062" xlink:href="#DejaVuSans-50"/>
       <use x="147.412109" xlink:href="#DejaVuSans-46"/>
       <use x="179.199219" xlink:href="#DejaVuSans-50"/>
      </g>
     </g>
    </g>
    <g id="ytick_4">
     <g id="line2d_23">
      <path clip-path="url(#pb5523f3942)" d="M 90 190.128822 
L 648 190.128822 
" style="fill:none;stroke:#b0b0b0;stroke-linecap:square;stroke-width:0.8;"/>
     </g>
     <g id="line2d_24">
      <g>
       <use style="stroke:#000000;stroke-width:0.8;" x="90" xlink:href="#mea1c3695c5" y="190.128822"/>
      </g>
     </g>
     <g id="text_13">
      <!-- −2.0 -->
      <g transform="translate(58.717187 193.92804)scale(0.1 -0.1)">
       <use xlink:href="#DejaVuSans-8722"/>
       <use x="83.789062" xlink:href="#DejaVuSans-50"/>
       <use x="147.412109" xlink:href="#DejaVuSans-46"/>
       <use x="179.199219" xlink:href="#DejaVuSans-48"/>
      </g>
     </g>
    </g>
    <g id="ytick_5">
     <g id="line2d_25">
      <path clip-path="url(#pb5523f3942)" d="M 90 157.702718 
L 648 157.702718 
" style="fill:none;stroke:#b0b0b0;stroke-linecap:square;stroke-width:0.8;"/>
     </g>
     <g id="line2d_26">
      <g>
       <use style="stroke:#000000;stroke-width:0.8;" x="90" xlink:href="#mea1c3695c5" y="157.702718"/>
      </g>
     </g>
     <g id="text_14">
      <!-- −1.8 -->
      <g transform="translate(58.717187 161.501937)scale(0.1 -0.1)">
       <use xlink:href="#DejaVuSans-8722"/>
       <use x="83.789062" xlink:href="#DejaVuSans-49"/>
       <use x="147.412109" xlink:href="#DejaVuSans-46"/>
       <use x="179.199219" xlink:href="#DejaVuSans-56"/>
      </g>
     </g>
    </g>
    <g id="ytick_6">
     <g id="line2d_27">
      <path clip-path="url(#pb5523f3942)" d="M 90 125.276615 
L 648 125.276615 
" style="fill:none;stroke:#b0b0b0;stroke-linecap:square;stroke-width:0.8;"/>
     </g>
     <g id="line2d_28">
      <g>
       <use style="stroke:#000000;stroke-width:0.8;" x="90" xlink:href="#mea1c3695c5" y="125.276615"/>
      </g>
     </g>
     <g id="text_15">
      <!-- −1.6 -->
      <g transform="translate(58.717187 129.075833)scale(0.1 -0.1)">
       <use xlink:href="#DejaVuSans-8722"/>
       <use x="83.789062" xlink:href="#DejaVuSans-49"/>
       <use x="147.412109" xlink:href="#DejaVuSans-46"/>
       <use x="179.199219" xlink:href="#DejaVuSans-54"/>
      </g>
     </g>
    </g>
    <g id="ytick_7">
     <g id="line2d_29">
      <path clip-path="url(#pb5523f3942)" d="M 90 92.850511 
L 648 92.850511 
" style="fill:none;stroke:#b0b0b0;stroke-linecap:square;stroke-width:0.8;"/>
     </g>
     <g id="line2d_30">
      <g>
       <use style="stroke:#000000;stroke-width:0.8;" x="90" xlink:href="#mea1c3695c5" y="92.850511"/>
      </g>
     </g>
     <g id="text_16">
      <!-- −1.4 -->
      <g transform="translate(58.717187 96.64973)scale(0.1 -0.1)">
       <use xlink:href="#DejaVuSans-8722"/>
       <use x="83.789062" xlink:href="#DejaVuSans-49"/>
       <use x="147.412109" xlink:href="#DejaVuSans-46"/>
       <use x="179.199219" xlink:href="#DejaVuSans-52"/>
      </g>
     </g>
    </g>
    <g id="ytick_8">
     <g id="line2d_31">
      <path clip-path="url(#pb5523f3942)" d="M 90 60.424407 
L 648 60.424407 
" style="fill:none;stroke:#b0b0b0;stroke-linecap:square;stroke-width:0.8;"/>
     </g>
     <g id="line2d_32">
      <g>
       <use style="stroke:#000000;stroke-width:0.8;" x="90" xlink:href="#mea1c3695c5" y="60.424407"/>
      </g>
     </g>
     <g id="text_17">
      <!-- −1.2 -->
      <g transform="translate(58.717187 64.223626)scale(0.1 -0.1)">
       <use xlink:href="#DejaVuSans-8722"/>
       <use x="83.789062" xlink:href="#DejaVuSans-49"/>
       <use x="147.412109" xlink:href="#DejaVuSans-46"/>
       <use x="179.199219" xlink:href="#DejaVuSans-50"/>
      </g>
     </g>
    </g>
    <g id="text_18">
     <!-- Episode Reward (Smoothed) -->
     <defs>
      <path id="DejaVuSans-32"/>
      <path d="M 44.390625 34.1875 
Q 47.5625 33.109375 50.5625 29.59375 
Q 53.5625 26.078125 56.59375 19.921875 
L 66.609375 0 
L 56 0 
L 46.6875 18.703125 
Q 43.0625 26.03125 39.671875 28.421875 
Q 36.28125 30.8125 30.421875 30.8125 
L 19.671875 30.8125 
L 19.671875 0 
L 9.8125 0 
L 9.8125 72.90625 
L 32.078125 72.90625 
Q 44.578125 72.90625 50.734375 67.671875 
Q 56.890625 62.453125 56.890625 51.90625 
Q 56.890625 45.015625 53.6875 40.46875 
Q 50.484375 35.9375 44.390625 34.1875 
z
M 19.671875 64.796875 
L 19.671875 38.921875 
L 32.078125 38.921875 
Q 39.203125 38.921875 42.84375 42.21875 
Q 46.484375 45.515625 46.484375 51.90625 
Q 46.484375 58.296875 42.84375 61.546875 
Q 39.203125 64.796875 32.078125 64.796875 
z
" id="DejaVuSans-82"/>
      <path d="M 4.203125 54.6875 
L 13.1875 54.6875 
L 24.421875 12.015625 
L 35.59375 54.6875 
L 46.1875 54.6875 
L 57.421875 12.015625 
L 68.609375 54.6875 
L 77.59375 54.6875 
L 63.28125 0 
L 52.6875 0 
L 40.921875 44.828125 
L 29.109375 0 
L 18.5 0 
z
" id="DejaVuSans-119"/>
      <path d="M 34.28125 27.484375 
Q 23.390625 27.484375 19.1875 25 
Q 14.984375 22.515625 14.984375 16.5 
Q 14.984375 11.71875 18.140625 8.90625 
Q 21.296875 6.109375 26.703125 6.109375 
Q 34.1875 6.109375 38.703125 11.40625 
Q 43.21875 16.703125 43.21875 25.484375 
L 43.21875 27.484375 
z
M 52.203125 31.203125 
L 52.203125 0 
L 43.21875 0 
L 43.21875 8.296875 
Q 40.140625 3.328125 35.546875 0.953125 
Q 30.953125 -1.421875 24.3125 -1.421875 
Q 15.921875 -1.421875 10.953125 3.296875 
Q 6 8.015625 6 15.921875 
Q 6 25.140625 12.171875 29.828125 
Q 18.359375 34.515625 30.609375 34.515625 
L 43.21875 34.515625 
L 43.21875 35.40625 
Q 43.21875 41.609375 39.140625 45 
Q 35.0625 48.390625 27.6875 48.390625 
Q 23 48.390625 18.546875 47.265625 
Q 14.109375 46.140625 10.015625 43.890625 
L 10.015625 52.203125 
Q 14.9375 54.109375 19.578125 55.046875 
Q 24.21875 56 28.609375 56 
Q 40.484375 56 46.34375 49.84375 
Q 52.203125 43.703125 52.203125 31.203125 
z
" id="DejaVuSans-97"/>
      <path d="M 41.109375 46.296875 
Q 39.59375 47.171875 37.8125 47.578125 
Q 36.03125 48 33.890625 48 
Q 26.265625 48 22.1875 43.046875 
Q 18.109375 38.09375 18.109375 28.8125 
L 18.109375 0 
L 9.078125 0 
L 9.078125 54.6875 
L 18.109375 54.6875 
L 18.109375 46.1875 
Q 20.953125 51.171875 25.484375 53.578125 
Q 30.03125 56 36.53125 56 
Q 37.453125 56 38.578125 55.875 
Q 39.703125 55.765625 41.0625 55.515625 
z
" id="DejaVuSans-114"/>
      <path d="M 31 75.875 
Q 24.46875 64.65625 21.28125 53.65625 
Q 18.109375 42.671875 18.109375 31.390625 
Q 18.109375 20.125 21.3125 9.0625 
Q 24.515625 -2 31 -13.1875 
L 23.1875 -13.1875 
Q 15.875 -1.703125 12.234375 9.375 
Q 8.59375 20.453125 8.59375 31.390625 
Q 8.59375 42.28125 12.203125 53.3125 
Q 15.828125 64.359375 23.1875 75.875 
z
" id="DejaVuSans-40"/>
      <path d="M 53.515625 70.515625 
L 53.515625 60.890625 
Q 47.90625 63.578125 42.921875 64.890625 
Q 37.9375 66.21875 33.296875 66.21875 
Q 25.25 66.21875 20.875 63.09375 
Q 16.5 59.96875 16.5 54.203125 
Q 16.5 49.359375 19.40625 46.890625 
Q 22.3125 44.4375 30.421875 42.921875 
L 36.375 41.703125 
Q 47.40625 39.59375 52.65625 34.296875 
Q 57.90625 29 57.90625 20.125 
Q 57.90625 9.515625 50.796875 4.046875 
Q 43.703125 -1.421875 29.984375 -1.421875 
Q 24.8125 -1.421875 18.96875 -0.25 
Q 13.140625 0.921875 6.890625 3.21875 
L 6.890625 13.375 
Q 12.890625 10.015625 18.65625 8.296875 
Q 24.421875 6.59375 29.984375 6.59375 
Q 38.421875 6.59375 43.015625 9.90625 
Q 47.609375 13.234375 47.609375 19.390625 
Q 47.609375 24.75 44.3125 27.78125 
Q 41.015625 30.8125 33.5 32.328125 
L 27.484375 33.5 
Q 16.453125 35.6875 11.515625 40.375 
Q 6.59375 45.0625 6.59375 53.421875 
Q 6.59375 63.09375 13.40625 68.65625 
Q 20.21875 74.21875 32.171875 74.21875 
Q 37.3125 74.21875 42.625 73.28125 
Q 47.953125 72.359375 53.515625 70.515625 
z
" id="DejaVuSans-83"/>
      <path d="M 52 44.1875 
Q 55.375 50.25 60.0625 53.125 
Q 64.75 56 71.09375 56 
Q 79.640625 56 84.28125 50.015625 
Q 88.921875 44.046875 88.921875 33.015625 
L 88.921875 0 
L 79.890625 0 
L 79.890625 32.71875 
Q 79.890625 40.578125 77.09375 44.375 
Q 74.3125 48.1875 68.609375 48.1875 
Q 61.625 48.1875 57.5625 43.546875 
Q 53.515625 38.921875 53.515625 30.90625 
L 53.515625 0 
L 44.484375 0 
L 44.484375 32.71875 
Q 44.484375 40.625 41.703125 44.40625 
Q 38.921875 48.1875 33.109375 48.1875 
Q 26.21875 48.1875 22.15625 43.53125 
Q 18.109375 38.875 18.109375 30.90625 
L 18.109375 0 
L 9.078125 0 
L 9.078125 54.6875 
L 18.109375 54.6875 
L 18.109375 46.1875 
Q 21.1875 51.21875 25.484375 53.609375 
Q 29.78125 56 35.6875 56 
Q 41.65625 56 45.828125 52.96875 
Q 50 49.953125 52 44.1875 
z
" id="DejaVuSans-109"/>
      <path d="M 18.3125 70.21875 
L 18.3125 54.6875 
L 36.8125 54.6875 
L 36.8125 47.703125 
L 18.3125 47.703125 
L 18.3125 18.015625 
Q 18.3125 11.328125 20.140625 9.421875 
Q 21.96875 7.515625 27.59375 7.515625 
L 36.8125 7.515625 
L 36.8125 0 
L 27.59375 0 
Q 17.1875 0 13.234375 3.875 
Q 9.28125 7.765625 9.28125 18.015625 
L 9.28125 47.703125 
L 2.6875 47.703125 
L 2.6875 54.6875 
L 9.28125 54.6875 
L 9.28125 70.21875 
z
" id="DejaVuSans-116"/>
      <path d="M 54.890625 33.015625 
L 54.890625 0 
L 45.90625 0 
L 45.90625 32.71875 
Q 45.90625 40.484375 42.875 44.328125 
Q 39.84375 48.1875 33.796875 48.1875 
Q 26.515625 48.1875 22.3125 43.546875 
Q 18.109375 38.921875 18.109375 30.90625 
L 18.109375 0 
L 9.078125 0 
L 9.078125 75.984375 
L 18.109375 75.984375 
L 18.109375 46.1875 
Q 21.34375 51.125 25.703125 53.5625 
Q 30.078125 56 35.796875 56 
Q 45.21875 56 50.046875 50.171875 
Q 54.890625 44.34375 54.890625 33.015625 
z
" id="DejaVuSans-104"/>
      <path d="M 8.015625 75.875 
L 15.828125 75.875 
Q 23.140625 64.359375 26.78125 53.3125 
Q 30.421875 42.28125 30.421875 31.390625 
Q 30.421875 20.453125 26.78125 9.375 
Q 23.140625 -1.703125 15.828125 -13.1875 
L 8.015625 -13.1875 
Q 14.5 -2 17.703125 9.0625 
Q 20.90625 20.125 20.90625 31.390625 
Q 20.90625 42.671875 17.703125 53.65625 
Q 14.5 64.65625 8.015625 75.875 
z
" id="DejaVuSans-41"/>
     </defs>
     <g transform="translate(52.6375 250.289844)rotate(-90)scale(0.1 -0.1)">
      <use xlink:href="#DejaVuSans-69"/>
      <use x="63.183594" xlink:href="#DejaVuSans-112"/>
      <use x="126.660156" xlink:href="#DejaVuSans-105"/>
      <use x="154.443359" xlink:href="#DejaVuSans-115"/>
      <use x="206.542969" xlink:href="#DejaVuSans-111"/>
      <use x="267.724609" xlink:href="#DejaVuSans-100"/>
      <use x="331.201172" xlink:href="#DejaVuSans-101"/>
      <use x="392.724609" xlink:href="#DejaVuSans-32"/>
      <use x="424.511719" xlink:href="#DejaVuSans-82"/>
      <use x="493.931641" xlink:href="#DejaVuSans-101"/>
      <use x="555.455078" xlink:href="#DejaVuSans-119"/>
      <use x="637.242188" xlink:href="#DejaVuSans-97"/>
      <use x="698.521484" xlink:href="#DejaVuSans-114"/>
      <use x="739.619141" xlink:href="#DejaVuSans-100"/>
      <use x="803.095703" xlink:href="#DejaVuSans-32"/>
      <use x="834.882812" xlink:href="#DejaVuSans-40"/>
      <use x="873.896484" xlink:href="#DejaVuSans-83"/>
      <use x="937.373047" xlink:href="#DejaVuSans-109"/>
      <use x="1034.785156" xlink:href="#DejaVuSans-111"/>
      <use x="1095.966797" xlink:href="#DejaVuSans-111"/>
      <use x="1157.148438" xlink:href="#DejaVuSans-116"/>
      <use x="1196.357422" xlink:href="#DejaVuSans-104"/>
      <use x="1259.736328" xlink:href="#DejaVuSans-101"/>
      <use x="1321.259766" xlink:href="#DejaVuSans-100"/>
      <use x="1384.736328" xlink:href="#DejaVuSans-41"/>
     </g>
    </g>
   </g>
   <g id="line2d_33">
    <path clip-path="url(#pb5523f3942)" d="M 115.363636 175.004568 
L 115.702044 121.788164 
L 116.040451 196.04522 
L 116.378859 179.273095 
L 116.717266 175.005559 
L 117.055673 199.958637 
L 117.394081 109.708987 
L 117.732488 198.095481 
L 118.070896 190.566224 
L 118.409303 152.472485 
L 118.747711 192.930719 
L 119.086118 208.0919 
L 119.424525 182.430391 
L 119.762933 194.764058 
L 120.10134 93.220663 
L 120.439748 170.303504 
L 120.778155 191.449312 
L 121.116563 117.997454 
L 121.45497 222.515187 
L 121.793377 221.095123 
L 122.131785 146.784777 
L 122.470192 192.316538 
L 122.8086 201.513563 
L 123.147007 82.118314 
L 123.485415 196.721827 
L 123.823822 183.488707 
L 124.162229 215.770464 
L 124.500637 302.645455 
L 124.839044 153.051192 
L 125.177452 102.860177 
L 125.515859 198.964912 
L 125.854266 208.161629 
L 126.192674 206.578224 
L 126.531081 210.060793 
L 126.869489 219.37369 
L 127.207896 217.273322 
L 127.546304 246.653468 
L 127.884711 218.635929 
L 128.223118 171.797711 
L 128.561526 221.465047 
L 128.899933 173.136701 
L 129.238341 237.411008 
L 129.576748 176.436586 
L 129.915156 265.925413 
L 130.253563 261.708594 
L 130.59197 194.654094 
L 130.930378 211.430552 
L 131.268785 209.25932 
L 131.607193 223.437068 
L 131.9456 55.554545 
L 132.284008 199.909476 
L 132.622415 184.973712 
L 132.960822 152.516437 
L 133.29923 210.045513 
L 133.976045 182.556662 
L 134.314452 194.703203 
L 134.652859 187.000301 
L 134.991267 154.458668 
L 135.329674 178.653528 
L 135.668082 178.774554 
L 136.344897 176.128602 
L 136.683304 187.167315 
L 137.021711 175.005559 
L 137.360119 174.261306 
L 138.036934 182.698206 
L 138.375341 178.137833 
L 138.713749 182.786504 
L 139.052156 178.601445 
L 139.390563 184.248291 
L 139.728971 169.116583 
L 140.067378 176.241145 
L 140.405786 178.086553 
L 140.744193 187.596091 
L 141.082601 177.636355 
L 141.421008 178.653007 
L 141.759415 173.044303 
L 142.097823 179.978329 
L 142.43623 176.176789 
L 142.774638 175.515993 
L 143.113045 185.976346 
L 143.451452 169.279065 
L 144.128267 183.626093 
L 144.466675 185.643144 
L 144.805082 166.894761 
L 145.14349 176.143292 
L 145.481897 180.740272 
L 145.820304 164.775807 
L 146.158712 172.646087 
L 146.497119 184.477508 
L 146.835527 178.161503 
L 147.173934 185.140338 
L 147.512342 180.351849 
L 147.850749 178.033459 
L 148.189156 178.137988 
L 148.527564 182.682439 
L 148.865971 172.272324 
L 149.204379 174.993324 
L 149.542786 171.088815 
L 149.881194 181.270318 
L 150.219601 181.263049 
L 150.558008 177.412676 
L 150.896416 181.323046 
L 151.234823 182.3826 
L 151.573231 199.323746 
L 151.911638 182.482542 
L 152.250045 173.457078 
L 152.588453 174.269032 
L 152.92686 176.7904 
L 153.265268 176.177609 
L 153.603675 178.451563 
L 153.942083 173.044303 
L 154.28049 165.825165 
L 154.618897 182.511463 
L 154.957305 177.987173 
L 155.295712 179.077437 
L 155.63412 183.240961 
L 156.310935 177.607998 
L 156.649342 184.466622 
L 156.987749 179.373932 
L 157.326157 182.48346 
L 157.664564 183.208207 
L 158.341379 176.751586 
L 158.679787 180.55774 
L 159.018194 194.57839 
L 159.356601 179.127395 
L 159.695009 192.940611 
L 160.033416 177.087829 
L 160.371824 181.332432 
L 160.710231 176.128602 
L 161.048638 159.139105 
L 161.387046 178.733819 
L 161.725453 176.176789 
L 162.063861 181.218344 
L 162.402268 173.0503 
L 162.740676 176.438385 
L 163.079083 182.394689 
L 163.41749 180.428721 
L 163.755898 180.60645 
L 164.094305 178.162728 
L 164.77112 169.552695 
L 165.109528 186.417344 
L 165.786342 183.694974 
L 166.12475 185.699619 
L 166.463157 178.525662 
L 166.801565 174.173967 
L 167.139972 172.491229 
L 167.47838 172.324407 
L 167.816787 178.645513 
L 168.155194 174.280391 
L 168.493602 186.201566 
L 168.832009 192.405437 
L 169.170417 182.505909 
L 169.508824 178.601436 
L 169.847231 179.355715 
L 170.185639 173.477123 
L 170.524046 182.663808 
L 170.862454 181.204175 
L 171.200861 178.648268 
L 171.539269 173.044303 
L 171.877676 179.322149 
L 172.216083 176.176789 
L 172.554491 177.394459 
L 172.892898 175.226027 
L 173.231306 174.280398 
L 173.569713 180.087544 
L 173.908121 178.143416 
L 174.246528 173.044303 
L 174.584935 186.423511 
L 174.923343 174.896586 
L 175.600158 173.785441 
L 176.276973 156.135734 
L 176.61538 169.887843 
L 176.953787 170.299363 
L 177.292195 155.479561 
L 177.630602 183.61315 
L 177.96901 172.49538 
L 178.307417 172.572274 
L 178.645824 176.189874 
L 178.984232 185.192775 
L 179.322639 182.367671 
L 179.661047 175.005559 
L 179.999454 181.169007 
L 180.337862 175.477165 
L 180.676269 174.280403 
L 181.014676 178.292335 
L 181.353084 178.390495 
L 181.691491 183.219818 
L 182.029899 176.128602 
L 182.368306 181.836375 
L 182.706714 177.650995 
L 183.045121 179.370858 
L 183.383528 174.954279 
L 183.721936 173.51408 
L 184.060343 188.84929 
L 184.398751 177.123977 
L 184.737158 184.662413 
L 185.075566 185.180522 
L 185.75238 180.562145 
L 186.090788 187.843358 
L 186.429195 185.750736 
L 186.767603 176.222553 
L 187.10601 177.364194 
L 187.444417 184.009663 
L 187.782825 188.245017 
L 188.121232 174.261306 
L 188.45964 179.313865 
L 188.798047 186.360449 
L 189.136455 174.566559 
L 189.474862 173.785441 
L 189.813269 175.518536 
L 190.151677 181.222132 
L 190.490084 168.134723 
L 190.828492 181.270271 
L 191.166899 172.49538 
L 191.505307 174.954284 
L 191.843714 173.547536 
L 192.182121 187.154082 
L 192.858936 173.050072 
L 193.197344 172.319147 
L 193.535751 178.086558 
L 193.874159 181.267266 
L 194.212566 172.985839 
L 194.550973 174.280402 
L 194.889381 183.202147 
L 195.566196 149.676081 
L 195.904603 173.049549 
L 196.24301 178.089858 
L 196.581418 172.557466 
L 196.919825 176.176789 
L 197.258233 173.044303 
L 197.59664 172.993028 
L 198.273455 184.450625 
L 198.611862 154.075757 
L 198.95027 175.017903 
L 199.288677 172.49538 
L 199.627085 183.215049 
L 199.965492 175.464827 
L 200.3039 172.319147 
L 200.642307 173.044303 
L 200.980714 168.546948 
L 201.319122 187.551231 
L 201.657529 174.770772 
L 201.995937 181.270318 
L 202.334344 167.436825 
L 202.672752 182.70148 
L 203.349566 172.319147 
L 203.687974 178.153306 
L 204.026381 181.3348 
L 204.364789 173.905392 
L 204.703196 176.128602 
L 205.041603 177.394459 
L 205.380011 183.219818 
L 205.718418 181.332349 
L 206.056826 168.058528 
L 206.395233 177.451842 
L 206.733641 172.319147 
L 207.072048 182.408901 
L 207.748863 163.315562 
L 208.08727 173.044303 
L 208.425678 171.088815 
L 208.764085 174.233581 
L 209.102493 172.319147 
L 209.4409 177.607996 
L 209.779307 173.750595 
L 210.117715 172.993028 
L 210.456122 176.176789 
L 210.79453 172.319147 
L 211.132937 172.324407 
L 211.471345 174.993621 
L 211.809752 165.89326 
L 212.148159 179.077437 
L 212.486567 173.537322 
L 213.501789 181.332115 
L 213.840196 182.487976 
L 214.178604 187.59691 
L 214.517011 178.126288 
L 214.855419 171.824185 
L 215.193826 176.128602 
L 215.532234 176.219233 
L 215.870641 176.176789 
L 216.209048 174.269032 
L 216.547456 182.27691 
L 216.885863 152.781174 
L 217.224271 175.646742 
L 217.562678 172.319147 
L 217.901086 171.088815 
L 218.239493 173.245795 
L 218.5779 178.153306 
L 218.916308 173.044303 
L 219.254715 176.176789 
L 219.593123 172.993028 
L 220.269938 182.150068 
L 220.608345 172.319147 
L 220.946752 180.128338 
L 221.28516 173.044303 
L 221.623567 172.272324 
L 221.961975 174.280403 
L 222.300382 174.456636 
L 222.638789 175.969988 
L 222.977197 176.128602 
L 223.315604 183.043073 
L 223.654012 172.030449 
L 223.992419 172.319147 
L 224.330827 176.182339 
L 224.669234 172.993028 
L 225.007641 181.267266 
L 225.346049 179.373398 
L 225.684456 164.148991 
L 226.361271 178.283078 
L 226.699679 175.011232 
L 227.038086 176.128602 
L 227.376493 168.134723 
L 227.714901 172.993028 
L 228.053308 176.176789 
L 228.391716 174.993621 
L 228.730123 176.176789 
L 229.068531 172.49538 
L 229.406938 172.272324 
L 229.745345 181.222132 
L 230.083753 175.515994 
L 230.42216 179.262722 
L 230.760568 179.371177 
L 231.098975 178.126288 
L 231.437382 172.557466 
L 231.77579 178.135267 
L 232.114197 172.993028 
L 232.452605 173.537322 
L 232.791012 171.824185 
L 233.12942 168.500023 
L 233.467827 168.546948 
L 233.806234 181.975863 
L 234.144642 176.176789 
L 234.483049 173.044303 
L 235.159864 179.861184 
L 235.498272 175.504624 
L 235.836679 174.280403 
L 236.175086 172.319147 
L 236.851901 181.267266 
L 237.190309 174.993621 
L 237.528716 164.494477 
L 237.867124 173.730962 
L 238.205531 173.785441 
L 238.543938 172.993028 
L 238.882346 171.088815 
L 239.220753 187.372583 
L 239.559161 176.176789 
L 239.897568 174.279894 
L 240.235975 153.598593 
L 240.574383 167.436825 
L 240.91279 175.646742 
L 241.251198 169.490198 
L 241.589605 173.554738 
L 241.928013 171.088815 
L 242.26642 177.412373 
L 242.604827 176.128602 
L 242.943235 173.044303 
L 243.281642 172.319147 
L 243.62005 185.699979 
L 243.958457 160.79374 
L 244.296865 179.550133 
L 244.635272 175.69032 
L 244.973679 178.126288 
L 245.312087 173.025128 
L 245.650494 178.503533 
L 245.988902 178.089858 
L 246.327309 174.993621 
L 246.665717 176.176789 
L 247.004124 176.565233 
L 247.342531 181.267266 
L 247.680939 183.142477 
L 248.019346 174.269032 
L 248.357754 172.993028 
L 248.696161 185.190053 
L 249.034569 173.72643 
L 249.372976 181.53191 
L 249.711383 160.799731 
L 250.049791 175.646742 
L 250.388198 149.985915 
L 250.726606 171.088815 
L 251.065013 168.500023 
L 251.40342 178.086558 
L 251.741828 171.088815 
L 252.080235 176.128602 
L 252.418643 176.176789 
L 252.75705 172.319147 
L 253.095458 173.044303 
L 253.433865 169.000689 
L 253.772272 172.49538 
L 254.11068 172.272324 
L 254.449087 169.552695 
L 254.787495 173.554738 
L 255.125902 172.993028 
L 255.46431 175.005157 
L 255.802717 172.933586 
L 256.141124 177.554275 
L 256.479532 171.824185 
L 256.817939 174.233581 
L 257.156347 173.044303 
L 257.494754 176.176789 
L 257.833162 172.319147 
L 258.171569 176.886058 
L 258.509976 167.436825 
L 259.186791 177.364193 
L 259.525199 172.319147 
L 259.863606 181.24695 
L 260.202013 178.69661 
L 260.540421 177.412676 
L 260.878828 168.134723 
L 261.217236 176.176789 
L 261.555643 174.993621 
L 261.894051 177.409921 
L 262.232458 172.49538 
L 262.570865 149.676081 
L 262.909273 168.546948 
L 263.24768 175.646742 
L 263.586088 178.089139 
L 263.924495 174.270179 
L 264.262903 168.007166 
L 264.60131 172.993028 
L 264.939717 173.044303 
L 265.278125 176.176789 
L 265.616532 172.319147 
L 265.95494 177.357489 
L 266.293347 173.044303 
L 266.631755 188.297291 
L 266.970162 178.126288 
L 267.308569 172.557466 
L 267.646977 186.020644 
L 267.985384 175.496897 
L 268.323792 176.128602 
L 268.662199 178.135267 
L 269.000606 172.030449 
L 269.339014 169.242008 
L 269.677421 164.494477 
L 270.015829 172.49538 
L 270.692644 171.088815 
L 271.031051 176.128602 
L 271.369458 173.554738 
L 271.707866 172.993028 
L 272.046273 173.044303 
L 272.384681 154.300209 
L 272.723088 173.785441 
L 273.061496 172.49538 
L 273.399903 172.272324 
L 273.73831 176.128602 
L 274.076718 176.176789 
L 274.415125 173.905392 
L 275.09194 176.176789 
L 275.430348 174.269032 
L 275.768755 177.390001 
L 276.107162 174.993621 
L 276.44557 175.646742 
L 276.783977 172.319147 
L 277.122385 160.178114 
L 277.460792 171.088815 
L 277.799199 172.272324 
L 278.137607 171.088815 
L 278.476014 181.221539 
L 278.814422 176.176789 
L 279.152829 173.044303 
L 279.491237 172.319147 
L 279.829644 177.952339 
L 280.168051 154.300209 
L 280.506459 175.646742 
L 280.844866 171.824185 
L 281.183274 173.044303 
L 281.521681 178.089858 
L 281.860089 174.993621 
L 282.198496 182.014885 
L 282.536903 178.645512 
L 282.875311 172.319147 
L 283.213718 178.113508 
L 283.552126 160.799731 
L 283.890533 173.41461 
L 284.228941 149.676081 
L 284.567348 171.088815 
L 284.905755 174.954284 
L 285.244163 168.500023 
L 285.58257 185.833193 
L 285.920978 176.128602 
L 286.259385 176.176789 
L 286.597792 172.319147 
L 286.9362 176.083141 
L 287.274607 172.993028 
L 287.613015 176.176789 
L 287.951422 172.319147 
L 288.28983 171.824185 
L 288.628237 176.128602 
L 288.966644 178.126288 
L 289.305052 170.514657 
L 289.643459 178.135267 
L 289.981867 172.557466 
L 290.320274 178.645512 
L 290.658682 164.494477 
L 290.997089 172.49538 
L 291.335496 171.088815 
L 291.673904 172.272324 
L 292.012311 172.993028 
L 292.350719 172.50919 
L 292.689126 176.128602 
L 293.027534 176.176789 
L 293.365941 173.044303 
L 293.704348 172.319147 
L 294.042756 170.961856 
L 294.381163 175.646742 
L 294.719571 173.044303 
L 295.057978 173.182372 
L 295.396385 172.49538 
L 295.734793 176.128602 
L 296.0732 176.176789 
L 296.411608 181.267266 
L 296.750015 174.269032 
L 297.088423 181.267266 
L 297.42683 172.319147 
L 297.765237 178.126288 
L 298.103645 149.676081 
L 298.442052 172.993028 
L 298.78046 171.824185 
L 299.118867 168.546948 
L 299.457275 182.388277 
L 299.795682 171.344856 
L 300.134089 172.83008 
L 300.472497 172.272324 
L 300.810904 171.088815 
L 301.149312 176.128602 
L 301.487719 173.044303 
L 301.826127 172.319147 
L 302.164534 172.993028 
L 302.502941 176.176789 
L 302.841349 168.134723 
L 303.179756 176.128602 
L 303.518164 173.297063 
L 303.856571 176.176789 
L 304.194978 167.397699 
L 304.533386 172.272324 
L 304.871793 172.49538 
L 305.210201 172.044164 
L 305.548608 176.128602 
L 305.887016 176.176789 
L 306.225423 172.319147 
L 306.56383 178.135267 
L 306.902238 172.319147 
L 307.240645 182.658045 
L 307.579053 171.824185 
L 307.91746 168.500023 
L 308.255868 176.882334 
L 308.594275 172.993028 
L 308.932682 176.176789 
L 309.27109 173.044303 
L 309.609497 181.267266 
L 309.947905 177.412676 
L 310.286312 181.267266 
L 310.62472 174.993621 
L 310.963127 178.645512 
L 311.301534 160.799731 
L 311.639942 176.128602 
L 311.978349 172.319147 
L 312.316757 178.135267 
L 312.655164 176.128602 
L 312.993571 178.645512 
L 313.331979 171.240321 
L 313.670386 174.269032 
L 314.008794 149.676081 
L 314.347201 172.993028 
L 315.024016 171.824185 
L 315.362423 171.088815 
L 315.700831 172.272324 
L 316.039238 172.49538 
L 316.377646 176.128602 
L 316.716053 172.993028 
L 317.054461 171.088815 
L 317.392868 172.272324 
L 317.731275 176.128602 
L 318.069683 172.319147 
L 318.40809 176.176789 
L 318.746498 173.044303 
L 319.084905 176.176789 
L 319.423313 173.044303 
L 319.76172 175.69032 
L 320.100127 172.030449 
L 320.438535 161.775512 
L 320.776942 175.646742 
L 321.11535 172.993028 
L 321.453757 168.546948 
L 321.792164 175.646742 
L 322.130572 164.494477 
L 322.468979 171.088815 
L 322.807387 174.456636 
L 323.145794 171.344856 
L 323.484202 176.128602 
L 323.822609 172.993028 
L 324.161016 173.507915 
L 324.499424 172.319147 
L 324.837831 171.824185 
L 325.176239 171.088815 
L 325.514646 176.128602 
L 325.853054 173.044303 
L 326.191461 173.923521 
L 326.529868 178.137833 
L 326.868276 176.176789 
L 327.545091 167.436825 
L 327.883498 176.128602 
L 328.221906 175.507124 
L 328.560313 154.300209 
L 328.89872 169.242008 
L 329.237128 160.799731 
L 329.575535 172.49538 
L 330.25235 171.088815 
L 330.590757 177.364193 
L 330.929165 172.272324 
L 331.267572 172.993028 
L 331.60598 172.319147 
L 331.944387 175.646742 
L 332.282795 173.044303 
L 332.621202 181.270318 
L 332.959609 175.969988 
L 333.298017 174.280403 
L 333.974832 178.135267 
L 334.313239 149.676081 
L 334.651647 175.646742 
L 334.990054 174.954284 
L 335.328461 168.500023 
L 335.666869 168.546948 
L 336.343684 177.364193 
L 336.682091 173.050054 
L 337.020499 172.49538 
L 337.358906 172.272324 
L 337.697313 176.128602 
L 338.035721 172.319147 
L 338.374128 173.044303 
L 338.712536 172.319147 
L 339.050943 173.044303 
L 339.38935 176.176789 
L 339.727758 174.094218 
L 340.066165 168.092718 
L 340.404573 175.646742 
L 340.74298 172.49538 
L 341.081388 176.128602 
L 341.419795 173.044303 
L 341.758202 176.176789 
L 342.09661 181.267266 
L 342.435017 178.126288 
L 342.773425 172.319147 
L 343.111832 174.269032 
L 343.45024 178.135267 
L 343.788647 169.242008 
L 344.127054 165.730068 
L 344.803869 176.182345 
L 345.142277 172.993028 
L 345.480684 171.824185 
L 345.819092 171.088815 
L 346.157499 176.128602 
L 346.495906 172.993028 
L 346.834314 172.272324 
L 347.172721 172.319147 
L 347.511129 175.646742 
L 347.849536 171.088815 
L 348.187943 176.128602 
L 348.526351 174.279894 
L 348.864758 168.134723 
L 349.203166 176.176789 
L 349.541573 167.436825 
L 349.879981 165.893258 
L 350.218388 176.128602 
L 350.556795 154.300209 
L 350.895203 171.824185 
L 351.23361 172.49538 
L 351.572018 171.344856 
L 351.910425 172.993028 
L 352.248833 171.088815 
L 352.58724 172.272324 
L 352.925647 175.646742 
L 353.264055 177.364194 
L 353.602462 172.319147 
L 353.94087 172.319147 
L 354.279277 176.176789 
L 354.617685 173.044303 
L 354.956092 176.176789 
L 355.294499 172.319147 
L 355.632907 173.044303 
L 355.971314 179.350176 
L 356.309722 174.993621 
L 356.648129 181.24695 
L 356.986536 178.645512 
L 357.324944 172.557466 
L 357.663351 178.135267 
L 358.001759 149.676081 
L 358.340166 172.993028 
L 358.678574 171.824185 
L 359.016981 172.49538 
L 359.355388 168.500023 
L 359.693796 171.088815 
L 360.032203 176.128602 
L 360.370611 172.993028 
L 360.709018 172.272324 
L 361.047426 175.646742 
L 361.385833 168.546948 
L 361.72424 171.824185 
L 362.062648 171.088815 
L 362.401055 176.128602 
L 363.07787 176.176789 
L 363.416278 172.319147 
L 363.754685 176.176789 
L 364.093092 173.044303 
L 364.4315 175.507124 
L 364.769907 165.518932 
L 365.108315 172.993028 
L 365.446722 166.455733 
L 365.785129 175.646742 
L 366.123537 172.49538 
L 366.461944 171.344856 
L 366.800352 171.088815 
L 367.138759 172.993028 
L 367.477167 176.128602 
L 367.815574 172.272324 
L 368.153981 175.646742 
L 368.492389 172.993028 
L 368.830796 171.824185 
L 369.169204 171.088815 
L 369.507611 176.128602 
L 369.846019 173.044303 
L 370.184426 171.240321 
L 370.522833 173.044303 
L 370.861241 177.056746 
L 371.199648 168.134723 
L 371.538056 167.436825 
L 371.876463 160.799731 
L 372.214871 172.993028 
L 372.553278 176.128602 
L 372.891685 176.176789 
L 373.230093 172.319147 
L 373.5685 176.176789 
L 374.245315 169.000689 
L 374.583722 173.722127 
L 374.92213 172.272324 
L 375.260537 175.646742 
L 375.598945 172.49538 
L 375.937352 176.128602 
L 376.27576 167.397699 
L 376.614167 149.676081 
L 376.952574 171.088815 
L 377.290982 171.824185 
L 377.629389 171.088815 
L 377.967797 172.272324 
L 378.306204 168.546948 
L 378.644612 177.607998 
L 378.983019 176.128602 
L 379.321426 172.319147 
L 379.659834 172.993028 
L 379.998241 176.176789 
L 380.336649 176.176789 
L 380.675056 172.319147 
L 381.013464 173.044303 
L 381.351871 179.077437 
L 381.690278 172.319147 
L 382.028686 173.044303 
L 382.367093 179.350176 
L 382.705501 178.126288 
L 383.382315 172.319147 
L 383.720723 164.494477 
L 384.05913 172.49538 
L 384.397538 176.128602 
L 384.735945 168.092718 
L 385.074353 171.824185 
L 385.41276 171.088815 
L 385.751167 175.646742 
L 386.089575 168.500023 
L 386.427982 171.088815 
L 386.76639 172.49538 
L 387.104797 171.344856 
L 387.443205 171.088815 
L 387.781612 172.993028 
L 388.120019 176.128602 
L 388.458427 172.272324 
L 388.796834 172.993028 
L 389.135242 176.128602 
L 389.473649 176.176789 
L 389.812057 173.044303 
L 390.150464 181.270318 
L 390.488871 175.969988 
L 390.827279 154.300209 
L 391.165686 151.637327 
L 391.504094 172.993028 
L 391.842501 171.824185 
L 392.180908 175.646742 
L 392.519316 172.49538 
L 392.857723 176.128602 
L 393.534538 168.546948 
L 393.872946 171.088815 
L 394.211353 176.128602 
L 394.54976 176.176789 
L 395.226575 174.952074 
L 395.564983 160.799731 
L 395.90339 175.646742 
L 396.241798 171.824185 
L 396.580205 171.088815 
L 396.918612 176.128602 
L 397.25702 176.176789 
L 397.595427 173.044303 
L 397.933835 179.077437 
L 398.272242 173.044303 
L 398.61065 178.113508 
L 398.949057 172.319147 
L 399.287464 172.272324 
L 399.625872 160.445109 
L 399.964279 172.49538 
L 400.302687 176.128602 
L 400.641094 175.924526 
L 400.979501 172.272324 
L 401.317909 175.646742 
L 401.994724 168.500023 
L 402.333131 171.088815 
L 402.671539 171.088815 
L 403.009946 175.646742 
L 403.348353 172.49538 
L 403.686761 176.128602 
L 404.025168 172.993028 
L 404.363576 172.272324 
L 404.701983 176.128602 
L 405.378798 176.176789 
L 405.717205 175.969988 
L 406.055613 169.000689 
L 406.39402 172.993028 
L 406.732428 175.646742 
L 407.070835 171.344856 
L 407.409243 171.824185 
L 407.74765 171.088815 
L 408.086057 168.546948 
L 408.424465 168.500023 
L 408.762872 171.088815 
L 409.10128 172.49538 
L 409.439687 176.128602 
L 409.778094 172.272324 
L 410.116502 176.128602 
L 410.454909 172.993028 
L 410.793317 185.359442 
L 411.131724 176.176789 
L 411.470132 172.319147 
L 411.808539 165.518932 
L 412.146946 149.676081 
L 412.485354 171.824185 
L 412.823761 175.646742 
L 413.162169 171.344856 
L 413.500576 171.088815 
L 413.838984 172.993028 
L 414.177391 172.272324 
L 414.515798 172.49538 
L 414.854206 171.088815 
L 415.192613 172.272324 
L 415.531021 166.824294 
L 415.869428 171.824185 
L 416.207836 171.088815 
L 416.546243 176.128602 
L 416.88465 172.993028 
L 417.223058 176.128602 
L 417.561465 172.319147 
L 417.899873 176.176789 
L 418.23828 176.176789 
L 418.576687 172.319147 
L 419.253502 181.24695 
L 419.59191 172.319147 
L 419.930317 175.507124 
L 420.268725 181.267266 
L 420.607132 178.645512 
L 420.945539 181.267266 
L 421.283947 178.135267 
L 421.622354 178.645512 
L 422.299169 150.684359 
L 422.637577 172.993028 
L 422.975984 160.799731 
L 423.314391 179.030321 
L 423.652799 149.676081 
L 423.991206 172.993028 
L 424.329614 175.646742 
L 424.668021 174.426886 
L 425.006429 176.917715 
L 425.344836 176.128602 
L 425.683243 175.68169 
L 426.021651 175.646742 
L 426.698466 168.500023 
L 427.036873 171.088815 
L 427.37528 168.546948 
L 427.713688 173.335454 
L 428.052095 171.088815 
L 428.390503 171.824185 
L 428.72891 171.088815 
L 429.067318 176.128602 
L 429.405725 172.993028 
L 429.744132 176.128602 
L 430.08254 160.445109 
L 430.420947 172.272324 
L 430.759355 175.646742 
L 431.097762 172.49538 
L 431.43617 176.128602 
L 431.774577 172.272324 
L 432.112984 176.128602 
L 432.789799 176.176789 
L 433.128207 172.319147 
L 433.466614 173.044303 
L 434.143429 179.077437 
L 434.481836 172.319147 
L 434.820244 173.044303 
L 435.158651 178.135267 
L 435.497059 175.969988 
L 435.835466 166.92335 
L 436.850688 174.456622 
L 437.527503 168.500023 
L 437.865911 171.088815 
L 438.204318 168.546948 
L 438.542725 175.646742 
L 438.881133 171.824185 
L 439.21954 171.088815 
L 439.557948 172.49538 
L 439.896355 172.993028 
L 440.234763 171.344856 
L 440.57317 171.088815 
L 440.911577 176.128602 
L 441.249985 172.272324 
L 441.588392 172.993028 
L 441.9268 176.128602 
L 442.265207 172.993028 
L 442.603615 172.272324 
L 442.942022 176.128602 
L 443.280429 150.684359 
L 443.957244 180.740272 
L 444.295652 171.824185 
L 444.634059 171.088815 
L 444.972466 172.993028 
L 445.310874 175.646742 
L 445.649281 172.49538 
L 445.987689 176.128602 
L 446.326096 165.46053 
L 446.664504 172.272324 
L 447.002911 171.088815 
L 447.341318 176.128602 
L 447.679726 164.307832 
L 448.356541 176.128602 
L 448.694948 168.092718 
L 449.033356 175.646742 
L 449.371763 171.088815 
L 449.71017 171.824185 
L 450.048578 168.546948 
L 450.386985 171.088815 
L 450.725393 175.646742 
L 451.0638 176.128602 
L 451.402208 176.176789 
L 451.740615 173.044303 
L 452.079022 176.176789 
L 452.41743 176.176789 
L 452.755837 178.137833 
L 453.094245 154.300209 
L 453.432652 176.176789 
L 453.771059 179.077437 
L 454.109467 175.507124 
L 454.447874 175.969988 
L 455.124689 160.445109 
L 455.463097 175.924526 
L 455.801504 172.272324 
L 456.139911 172.49538 
L 456.478319 175.646742 
L 456.816726 171.824185 
L 457.155134 172.49538 
L 457.493541 171.344856 
L 457.831949 168.500023 
L 458.170356 171.344856 
L 458.508763 171.088815 
L 458.847171 168.546948 
L 459.185578 171.824185 
L 459.523986 168.500023 
L 459.862393 175.646742 
L 460.200801 171.088815 
L 460.539208 172.49538 
L 460.877615 176.128602 
L 461.216023 176.128602 
L 461.55443 172.993028 
L 461.892838 172.272324 
L 462.231245 179.030321 
L 462.569652 172.993028 
L 462.90806 172.272324 
L 463.246467 176.128602 
L 463.584875 172.993028 
L 463.923282 175.924526 
L 464.26169 172.272324 
L 464.600097 176.128602 
L 464.938504 149.676081 
L 465.276912 175.646742 
L 465.615319 171.824185 
L 465.953727 172.49538 
L 466.292134 171.088815 
L 466.630542 178.086557 
L 466.968949 171.088815 
L 467.307356 171.344856 
L 467.645764 171.088815 
L 467.984171 172.272324 
L 468.322579 175.646742 
L 468.660986 176.128602 
L 468.999394 172.993028 
L 469.337801 172.272324 
L 469.676208 176.128602 
L 470.014616 150.684359 
L 470.353023 172.993028 
L 470.691431 171.824185 
L 471.029838 171.088815 
L 471.368245 172.272324 
L 471.706653 171.088815 
L 472.04506 176.128602 
L 472.383468 172.993028 
L 472.721875 165.46053 
L 473.060283 172.272324 
L 473.39869 175.646742 
L 473.737097 172.49538 
L 474.075505 176.128602 
L 474.413912 176.176789 
L 474.75232 181.269727 
L 475.090727 171.824185 
L 475.429135 168.897086 
L 475.767542 171.088815 
L 476.105949 165.269535 
L 476.444357 171.088815 
L 476.782764 168.500023 
L 477.121172 163.836541 
L 477.459579 171.088815 
L 477.797987 171.088815 
L 478.136394 171.344856 
L 478.474801 172.49538 
L 478.813209 176.128602 
L 479.151616 176.128602 
L 479.490024 172.993028 
L 479.828431 172.272324 
L 480.166838 175.461651 
L 480.505246 172.993028 
L 480.843653 154.243978 
L 481.182061 175.646742 
L 481.520468 172.49538 
L 481.858876 172.272324 
L 482.197283 171.824185 
L 482.53569 176.128602 
L 482.874098 160.445109 
L 483.212505 171.088815 
L 483.88932 179.030321 
L 484.227728 160.799731 
L 484.566135 175.924526 
L 484.904542 172.272324 
L 485.24295 176.128602 
L 486.258172 176.176789 
L 487.273394 176.176789 
L 487.611802 159.393728 
L 487.950209 179.077437 
L 488.288617 175.507124 
L 488.627024 181.04115 
L 488.965431 175.969988 
L 489.303839 176.176789 
L 489.642246 181.04115 
L 489.980654 179.077437 
L 490.319061 179.350176 
L 490.657469 178.645512 
L 490.995876 181.267266 
L 491.334283 178.135267 
L 491.672691 167.397699 
L 492.011098 166.92335 
L 492.349506 171.824185 
L 492.687913 172.49538 
L 493.026321 168.897086 
L 493.364728 171.824185 
L 493.703135 172.49538 
L 494.041543 172.31658 
L 494.37995 168.500023 
L 494.718358 173.635127 
L 495.056765 171.088815 
L 495.395173 175.646742 
L 495.73358 171.344856 
L 496.071987 172.324407 
L 496.410395 171.824185 
L 496.748802 168.500023 
L 497.08721 171.088815 
L 497.425617 172.49538 
L 497.764025 168.546948 
L 498.102432 171.088815 
L 498.440839 175.646742 
L 498.779247 171.824185 
L 499.117654 171.344856 
L 499.456062 172.49538 
L 499.794469 168.500023 
L 500.132876 171.088815 
L 500.471284 175.646742 
L 501.148099 168.546948 
L 501.486506 175.646742 
L 501.824914 172.49538 
L 502.163321 176.128602 
L 502.501728 181.222132 
L 502.840136 175.461651 
L 503.178543 172.993028 
L 503.516951 179.030321 
L 503.855358 172.272324 
L 504.193766 176.128602 
L 504.532173 172.993028 
L 504.87058 172.272324 
L 505.208988 175.924526 
L 505.547395 176.128602 
L 505.885803 172.993028 
L 506.22421 172.272324 
L 506.562618 179.030321 
L 507.239432 172.993028 
L 507.57784 176.128602 
L 507.916247 164.494477 
L 508.593062 172.49538 
L 508.931469 171.824185 
L 509.269877 175.646742 
L 509.608284 171.088815 
L 509.946692 172.49538 
L 510.285099 171.088815 
L 510.623507 171.088815 
L 510.961914 172.993028 
L 511.300321 176.128602 
L 511.638729 176.128602 
L 511.977136 150.684359 
L 512.315544 172.272324 
L 512.653951 172.993028 
L 512.992359 171.824185 
L 513.330766 171.088815 
L 513.669173 171.344856 
L 514.007581 171.088815 
L 514.345988 172.993028 
L 514.684396 171.088815 
L 515.022803 172.272324 
L 515.361211 168.546948 
L 515.699618 175.646742 
L 516.038025 171.088815 
L 516.71484 172.49538 
L 517.053248 176.128602 
L 517.391655 176.128602 
L 517.730062 172.272324 
L 518.06847 150.684359 
L 518.745285 176.128602 
L 519.083692 160.445109 
L 519.4221 171.088815 
L 519.760507 168.500023 
L 520.098914 171.088815 
L 520.437322 171.344856 
L 520.775729 171.088815 
L 521.114137 175.646742 
L 521.452544 172.49538 
L 521.790952 172.272324 
L 522.129359 176.128602 
L 522.467766 172.993028 
L 522.806174 176.128602 
L 523.144581 172.272324 
L 523.482989 172.993028 
L 523.821396 176.128602 
L 524.159804 173.869276 
L 524.498211 169.242008 
L 525.175026 172.993028 
L 525.513433 171.088815 
L 525.851841 172.272324 
L 526.190248 168.546948 
L 526.528655 171.088815 
L 526.867063 171.824185 
L 527.20547 171.088815 
L 527.543878 176.128602 
L 527.882285 176.128602 
L 528.220693 172.272324 
L 528.5591 150.684359 
L 528.897507 172.993028 
L 529.235915 172.272324 
L 529.574322 164.307832 
L 529.91273 171.088815 
L 530.251137 171.088815 
L 530.589545 176.128602 
L 530.927952 169.242008 
L 531.266359 168.092718 
L 531.604767 154.568445 
L 531.943174 171.088815 
L 532.281582 168.500023 
L 532.619989 171.088815 
L 532.958397 172.49538 
L 533.296804 171.344856 
L 533.635211 168.546948 
L 533.973619 171.088815 
L 534.312026 175.646742 
L 534.650434 172.49538 
L 534.988841 171.824185 
L 535.327248 175.646742 
L 535.665656 172.993028 
L 536.004063 171.344856 
L 536.342471 168.500023 
L 536.680878 168.546948 
L 537.019286 171.088815 
L 537.357693 175.646742 
L 537.6961 172.49538 
L 538.034508 176.128602 
L 538.372915 172.272324 
L 538.711323 176.128602 
L 539.04973 172.993028 
L 539.388138 173.869276 
L 540.064952 172.272324 
L 540.40336 176.128602 
L 540.741767 172.876274 
L 541.080175 171.824185 
L 541.418582 175.646742 
L 541.75699 172.49538 
L 542.095397 171.344856 
L 542.433804 171.088815 
L 542.772212 172.272324 
L 543.110619 172.993028 
L 543.449027 154.568445 
L 543.787434 171.088815 
L 544.125841 168.500023 
L 544.464249 171.088815 
L 544.802656 171.824185 
L 545.141064 175.646742 
L 545.479471 172.49538 
L 545.817879 172.993028 
L 546.156286 176.128602 
L 546.494693 160.445109 
L 546.833101 175.646742 
L 547.509916 168.546948 
L 547.848323 171.344856 
L 548.186731 168.500023 
L 548.525138 171.088815 
L 548.863545 168.546948 
L 549.201953 175.646742 
L 549.54036 171.824185 
L 549.878768 166.04591 
L 550.217175 172.49538 
L 550.555583 175.646742 
L 550.89399 171.344856 
L 551.232397 168.500023 
L 551.570805 171.088815 
L 551.909212 172.49538 
L 552.24762 176.128602 
L 552.586027 176.128602 
L 552.924434 172.272324 
L 553.262842 173.869276 
L 553.601249 172.993028 
L 553.939657 172.876274 
L 554.278064 175.646742 
L 554.616472 171.824185 
L 554.954879 171.088815 
L 555.293286 176.128602 
L 555.631694 150.684359 
L 555.970101 172.993028 
L 556.308509 172.272324 
L 556.646916 160.445109 
L 556.985324 171.088815 
L 557.323731 171.344856 
L 557.662138 171.088815 
L 558.000546 172.49538 
L 558.338953 172.272324 
L 558.677361 176.128602 
L 559.015768 172.272324 
L 559.354176 173.869276 
L 559.692583 172.993028 
L 560.03099 154.568445 
L 560.369398 171.088815 
L 560.707805 168.546948 
L 561.046213 171.088815 
L 561.38462 175.646742 
L 561.723027 171.824185 
L 562.061435 172.49538 
L 562.399842 176.128602 
L 562.73825 172.272324 
L 563.076657 176.128602 
L 563.415065 172.993028 
L 563.753472 175.924526 
L 564.091879 172.272324 
L 564.430287 179.030321 
L 564.768694 175.461651 
L 565.107102 175.924526 
L 565.445509 179.030321 
L 565.783917 175.461651 
L 566.122324 168.944767 
L 566.460731 154.243978 
L 566.799139 175.924526 
L 567.137546 179.030321 
L 567.475954 165.46053 
L 567.814361 175.461651 
L 568.152769 172.876274 
L 568.491176 173.869276 
L 568.829583 175.924526 
L 569.167991 179.030321 
L 569.506398 168.738756 
L 569.844806 179.030321 
L 570.183213 177.877858 
L 570.52162 175.461651 
L 570.860028 154.243978 
L 571.198435 167.397699 
L 571.87525 172.31658 
L 572.213658 171.824185 
L 572.552065 175.646742 
L 573.22888 168.897086 
L 573.567287 171.088815 
L 573.905695 171.088815 
L 574.244102 171.824185 
L 574.58251 171.088815 
L 574.920917 172.49538 
L 575.259324 171.088815 
L 575.597732 176.128602 
L 575.936139 172.993028 
L 576.274547 172.272324 
L 576.612954 172.876274 
L 576.951362 171.088815 
L 577.289769 171.088815 
L 577.628176 175.646742 
L 577.966584 171.824185 
L 578.304991 175.646742 
L 578.643399 172.49538 
L 578.981806 176.128602 
L 579.320213 172.272324 
L 579.658621 173.869276 
L 579.997028 172.993028 
L 580.335436 163.562095 
L 580.673843 171.088815 
L 581.012251 171.088815 
L 581.350658 176.128602 
L 581.689065 166.214494 
L 582.027473 166.04591 
L 582.36588 171.344856 
L 582.704288 171.088815 
L 583.042695 175.646742 
L 583.381103 171.824185 
L 583.71951 172.993028 
L 584.057917 172.49538 
L 584.396325 172.272324 
L 584.734732 176.128602 
L 585.07314 172.993028 
L 585.411547 168.738756 
L 585.749955 175.924526 
L 586.088362 179.030321 
L 586.426769 175.461651 
L 586.765177 177.145256 
L 587.103584 169.552695 
L 587.441992 177.145256 
L 587.780399 172.876274 
L 588.118806 171.088815 
L 588.457214 154.568445 
L 588.795621 171.088815 
L 589.134029 171.088815 
L 589.472436 168.546948 
L 589.810844 163.562095 
L 590.149251 168.500023 
L 590.487658 171.088815 
L 590.826066 171.344856 
L 591.164473 171.088815 
L 591.502881 175.646742 
L 591.841288 175.646742 
L 592.179696 172.49538 
L 592.518103 172.31658 
L 592.85651 168.500023 
L 593.194918 168.546948 
L 593.533325 171.344856 
L 593.871733 171.088815 
L 594.548548 172.49538 
L 594.886955 175.646742 
L 595.225362 171.824185 
L 595.56377 175.646742 
L 595.902177 176.128602 
L 596.240585 176.128602 
L 596.917399 169.552695 
L 597.255807 172.993028 
L 597.594214 173.869276 
L 597.932622 172.49538 
L 598.271029 166.214494 
L 598.609437 168.546948 
L 598.947844 168.500023 
L 599.286251 171.344856 
L 599.624659 171.088815 
L 600.301474 166.04591 
L 600.639881 171.344856 
L 600.978289 171.088815 
L 601.316696 168.500023 
L 601.655103 171.088815 
L 601.993511 175.646742 
L 602.331918 172.49538 
L 602.670326 171.824185 
L 603.008733 175.646742 
L 603.347141 172.49538 
L 603.685548 172.31658 
L 604.023955 171.344856 
L 604.362363 168.546948 
L 604.70077 168.500023 
L 605.039178 171.088815 
L 605.377585 171.344856 
L 605.715992 171.088815 
L 606.392807 172.49538 
L 606.731215 175.646742 
L 607.069622 171.824185 
L 607.40803 175.646742 
L 607.746437 176.128602 
L 608.084844 172.993028 
L 608.423252 176.128602 
L 608.761659 172.272324 
L 609.100067 176.128602 
L 609.438474 172.993028 
L 609.776882 166.824294 
L 610.115289 172.876274 
L 610.453696 171.824185 
L 610.792104 168.546948 
L 611.130511 168.500023 
L 611.468919 154.568445 
L 611.807326 171.088815 
L 612.145734 171.088815 
L 612.484141 171.344856 
L 612.822548 171.088815 
L 613.499363 166.04591 
L 613.837771 171.344856 
L 614.176178 171.088815 
L 614.514585 172.49538 
L 614.852993 175.646742 
L 615.1914 171.824185 
L 615.529808 175.646742 
L 615.868215 172.49538 
L 616.206623 175.646742 
L 616.54503 171.824185 
L 616.883437 172.49538 
L 617.221845 176.128602 
L 617.560252 173.869276 
L 617.89866 176.128602 
L 618.237067 172.272324 
L 618.575475 179.030321 
L 618.913882 175.924526 
L 619.252289 180.989952 
L 619.590697 177.145256 
L 620.267512 180.989952 
L 620.605919 177.145256 
L 620.944327 179.083811 
L 621.621141 175.461651 
L 622.297956 186.264252 
L 622.636364 178.063538 
L 622.636364 178.063538 
" style="fill:none;stroke:#1f77b4;stroke-linecap:square;stroke-width:1.5;"/>
   </g>
   <g id="patch_3">
    <path d="M 90 315 
L 90 43.2 
" style="fill:none;stroke:#000000;stroke-linecap:square;stroke-linejoin:miter;stroke-width:0.8;"/>
   </g>
   <g id="patch_4">
    <path d="M 648 315 
L 648 43.2 
" style="fill:none;stroke:#000000;stroke-linecap:square;stroke-linejoin:miter;stroke-width:0.8;"/>
   </g>
   <g id="patch_5">
    <path d="M 90 315 
L 648 315 
" style="fill:none;stroke:#000000;stroke-linecap:square;stroke-linejoin:miter;stroke-width:0.8;"/>
   </g>
   <g id="patch_6">
    <path d="M 90 43.2 
L 648 43.2 
" style="fill:none;stroke:#000000;stroke-linecap:square;stroke-linejoin:miter;stroke-width:0.8;"/>
   </g>
   <g id="text_19">
    <!-- Episode Reward over Time (Smoothed over window size 1) -->
    <defs>
     <path d="M 2.984375 54.6875 
L 12.5 54.6875 
L 29.59375 8.796875 
L 46.6875 54.6875 
L 56.203125 54.6875 
L 35.6875 0 
L 23.484375 0 
z
" id="DejaVuSans-118"/>
     <path d="M -0.296875 72.90625 
L 61.375 72.90625 
L 61.375 64.59375 
L 35.5 64.59375 
L 35.5 0 
L 25.59375 0 
L 25.59375 64.59375 
L -0.296875 64.59375 
z
" id="DejaVuSans-84"/>
     <path d="M 54.890625 33.015625 
L 54.890625 0 
L 45.90625 0 
L 45.90625 32.71875 
Q 45.90625 40.484375 42.875 44.328125 
Q 39.84375 48.1875 33.796875 48.1875 
Q 26.515625 48.1875 22.3125 43.546875 
Q 18.109375 38.921875 18.109375 30.90625 
L 18.109375 0 
L 9.078125 0 
L 9.078125 54.6875 
L 18.109375 54.6875 
L 18.109375 46.1875 
Q 21.34375 51.125 25.703125 53.5625 
Q 30.078125 56 35.796875 56 
Q 45.21875 56 50.046875 50.171875 
Q 54.890625 44.34375 54.890625 33.015625 
z
" id="DejaVuSans-110"/>
     <path d="M 5.515625 54.6875 
L 48.1875 54.6875 
L 48.1875 46.484375 
L 14.40625 7.171875 
L 48.1875 7.171875 
L 48.1875 0 
L 4.296875 0 
L 4.296875 8.203125 
L 38.09375 47.515625 
L 5.515625 47.515625 
z
" id="DejaVuSans-122"/>
    </defs>
    <g transform="translate(192.289688 37.2)scale(0.12 -0.12)">
     <use xlink:href="#DejaVuSans-69"/>
     <use x="63.183594" xlink:href="#DejaVuSans-112"/>
     <use x="126.660156" xlink:href="#DejaVuSans-105"/>
     <use x="154.443359" xlink:href="#DejaVuSans-115"/>
     <use x="206.542969" xlink:href="#DejaVuSans-111"/>
     <use x="267.724609" xlink:href="#DejaVuSans-100"/>
     <use x="331.201172" xlink:href="#DejaVuSans-101"/>
     <use x="392.724609" xlink:href="#DejaVuSans-32"/>
     <use x="424.511719" xlink:href="#DejaVuSans-82"/>
     <use x="493.931641" xlink:href="#DejaVuSans-101"/>
     <use x="555.455078" xlink:href="#DejaVuSans-119"/>
     <use x="637.242188" xlink:href="#DejaVuSans-97"/>
     <use x="698.521484" xlink:href="#DejaVuSans-114"/>
     <use x="739.619141" xlink:href="#DejaVuSans-100"/>
     <use x="803.095703" xlink:href="#DejaVuSans-32"/>
     <use x="834.882812" xlink:href="#DejaVuSans-111"/>
     <use x="896.064453" xlink:href="#DejaVuSans-118"/>
     <use x="955.244141" xlink:href="#DejaVuSans-101"/>
     <use x="1016.767578" xlink:href="#DejaVuSans-114"/>
     <use x="1057.880859" xlink:href="#DejaVuSans-32"/>
     <use x="1089.667969" xlink:href="#DejaVuSans-84"/>
     <use x="1150.705078" xlink:href="#DejaVuSans-105"/>
     <use x="1178.488281" xlink:href="#DejaVuSans-109"/>
     <use x="1275.900391" xlink:href="#DejaVuSans-101"/>
     <use x="1337.423828" xlink:href="#DejaVuSans-32"/>
     <use x="1369.210938" xlink:href="#DejaVuSans-40"/>
     <use x="1408.224609" xlink:href="#DejaVuSans-83"/>
     <use x="1471.701172" xlink:href="#DejaVuSans-109"/>
     <use x="1569.113281" xlink:href="#DejaVuSans-111"/>
     <use x="1630.294922" xlink:href="#DejaVuSans-111"/>
     <use x="1691.476562" xlink:href="#DejaVuSans-116"/>
     <use x="1730.685547" xlink:href="#DejaVuSans-104"/>
     <use x="1794.064453" xlink:href="#DejaVuSans-101"/>
     <use x="1855.587891" xlink:href="#DejaVuSans-100"/>
     <use x="1919.064453" xlink:href="#DejaVuSans-32"/>
     <use x="1950.851562" xlink:href="#DejaVuSans-111"/>
     <use x="2012.033203" xlink:href="#DejaVuSans-118"/>
     <use x="2071.212891" xlink:href="#DejaVuSans-101"/>
     <use x="2132.736328" xlink:href="#DejaVuSans-114"/>
     <use x="2173.849609" xlink:href="#DejaVuSans-32"/>
     <use x="2205.636719" xlink:href="#DejaVuSans-119"/>
     <use x="2287.423828" xlink:href="#DejaVuSans-105"/>
     <use x="2315.207031" xlink:href="#DejaVuSans-110"/>
     <use x="2378.585938" xlink:href="#DejaVuSans-100"/>
     <use x="2442.0625" xlink:href="#DejaVuSans-111"/>
     <use x="2503.244141" xlink:href="#DejaVuSans-119"/>
     <use x="2585.03125" xlink:href="#DejaVuSans-32"/>
     <use x="2616.818359" xlink:href="#DejaVuSans-115"/>
     <use x="2668.917969" xlink:href="#DejaVuSans-105"/>
     <use x="2696.701172" xlink:href="#DejaVuSans-122"/>
     <use x="2749.191406" xlink:href="#DejaVuSans-101"/>
     <use x="2810.714844" xlink:href="#DejaVuSans-32"/>
     <use x="2842.501953" xlink:href="#DejaVuSans-49"/>
     <use x="2906.125" xlink:href="#DejaVuSans-41"/>
    </g>
   </g>
  </g>
 </g>
 <defs>
  <clipPath id="pb5523f3942">
   <rect height="271.8" width="558" x="90" y="43.2"/>
  </clipPath>
 </defs>
</svg>
