<?xml version="1.0" encoding="utf-8" standalone="no"?>
<!DOCTYPE svg PUBLIC "-//W3C//DTD SVG 1.1//EN"
  "http://www.w3.org/Graphics/SVG/1.1/DTD/svg11.dtd">
<!-- Created with matplotlib (https://matplotlib.org/) -->
<svg height="360pt" version="1.1" viewBox="0 0 720 360" width="720pt" xmlns="http://www.w3.org/2000/svg" xmlns:xlink="http://www.w3.org/1999/xlink">
 <defs>
  <style type="text/css">
*{stroke-linecap:butt;stroke-linejoin:round;white-space:pre;}
  </style>
 </defs>
 <g id="figure_1">
  <g id="patch_1">
   <path d="M 0 360 
L 720 360 
L 720 0 
L 0 0 
z
" style="fill:#ffffff;"/>
  </g>
  <g id="axes_1">
   <g id="patch_2">
    <path d="M 90 315 
L 648 315 
L 648 43.2 
L 90 43.2 
z
" style="fill:#ffffff;"/>
   </g>
   <g id="matplotlib.axis_1">
    <g id="xtick_1">
     <g id="line2d_1">
      <path clip-path="url(#p37d7d371c8)" d="M 115.363636 315 
L 115.363636 43.2 
" style="fill:none;stroke:#b0b0b0;stroke-linecap:square;stroke-width:0.8;"/>
     </g>
     <g id="line2d_2">
      <defs>
       <path d="M 0 0 
L 0 3.5 
" id="m26147e63ed" style="stroke:#000000;stroke-width:0.8;"/>
      </defs>
      <g>
       <use style="stroke:#000000;stroke-width:0.8;" x="115.363636" xlink:href="#m26147e63ed" y="315"/>
      </g>
     </g>
     <g id="text_1">
      <!-- 0 -->
      <defs>
       <path d="M 31.78125 66.40625 
Q 24.171875 66.40625 20.328125 58.90625 
Q 16.5 51.421875 16.5 36.375 
Q 16.5 21.390625 20.328125 13.890625 
Q 24.171875 6.390625 31.78125 6.390625 
Q 39.453125 6.390625 43.28125 13.890625 
Q 47.125 21.390625 47.125 36.375 
Q 47.125 51.421875 43.28125 58.90625 
Q 39.453125 66.40625 31.78125 66.40625 
z
M 31.78125 74.21875 
Q 44.046875 74.21875 50.515625 64.515625 
Q 56.984375 54.828125 56.984375 36.375 
Q 56.984375 17.96875 50.515625 8.265625 
Q 44.046875 -1.421875 31.78125 -1.421875 
Q 19.53125 -1.421875 13.0625 8.265625 
Q 6.59375 17.96875 6.59375 36.375 
Q 6.59375 54.828125 13.0625 64.515625 
Q 19.53125 74.21875 31.78125 74.21875 
z
" id="DejaVuSans-48"/>
      </defs>
      <g transform="translate(112.182386 329.598437)scale(0.1 -0.1)">
       <use xlink:href="#DejaVuSans-48"/>
      </g>
     </g>
    </g>
    <g id="xtick_2">
     <g id="line2d_3">
      <path clip-path="url(#p37d7d371c8)" d="M 183.045121 315 
L 183.045121 43.2 
" style="fill:none;stroke:#b0b0b0;stroke-linecap:square;stroke-width:0.8;"/>
     </g>
     <g id="line2d_4">
      <g>
       <use style="stroke:#000000;stroke-width:0.8;" x="183.045121" xlink:href="#m26147e63ed" y="315"/>
      </g>
     </g>
     <g id="text_2">
      <!-- 200 -->
      <defs>
       <path d="M 19.1875 8.296875 
L 53.609375 8.296875 
L 53.609375 0 
L 7.328125 0 
L 7.328125 8.296875 
Q 12.9375 14.109375 22.625 23.890625 
Q 32.328125 33.6875 34.8125 36.53125 
Q 39.546875 41.84375 41.421875 45.53125 
Q 43.3125 49.21875 43.3125 52.78125 
Q 43.3125 58.59375 39.234375 62.25 
Q 35.15625 65.921875 28.609375 65.921875 
Q 23.96875 65.921875 18.8125 64.3125 
Q 13.671875 62.703125 7.8125 59.421875 
L 7.8125 69.390625 
Q 13.765625 71.78125 18.9375 73 
Q 24.125 74.21875 28.421875 74.21875 
Q 39.75 74.21875 46.484375 68.546875 
Q 53.21875 62.890625 53.21875 53.421875 
Q 53.21875 48.921875 51.53125 44.890625 
Q 49.859375 40.875 45.40625 35.40625 
Q 44.1875 33.984375 37.640625 27.21875 
Q 31.109375 20.453125 19.1875 8.296875 
z
" id="DejaVuSans-50"/>
      </defs>
      <g transform="translate(173.501371 329.598437)scale(0.1 -0.1)">
       <use xlink:href="#DejaVuSans-50"/>
       <use x="63.623047" xlink:href="#DejaVuSans-48"/>
       <use x="127.246094" xlink:href="#DejaVuSans-48"/>
      </g>
     </g>
    </g>
    <g id="xtick_3">
     <g id="line2d_5">
      <path clip-path="url(#p37d7d371c8)" d="M 250.726606 315 
L 250.726606 43.2 
" style="fill:none;stroke:#b0b0b0;stroke-linecap:square;stroke-width:0.8;"/>
     </g>
     <g id="line2d_6">
      <g>
       <use style="stroke:#000000;stroke-width:0.8;" x="250.726606" xlink:href="#m26147e63ed" y="315"/>
      </g>
     </g>
     <g id="text_3">
      <!-- 400 -->
      <defs>
       <path d="M 37.796875 64.3125 
L 12.890625 25.390625 
L 37.796875 25.390625 
z
M 35.203125 72.90625 
L 47.609375 72.90625 
L 47.609375 25.390625 
L 58.015625 25.390625 
L 58.015625 17.1875 
L 47.609375 17.1875 
L 47.609375 0 
L 37.796875 0 
L 37.796875 17.1875 
L 4.890625 17.1875 
L 4.890625 26.703125 
z
" id="DejaVuSans-52"/>
      </defs>
      <g transform="translate(241.182856 329.598437)scale(0.1 -0.1)">
       <use xlink:href="#DejaVuSans-52"/>
       <use x="63.623047" xlink:href="#DejaVuSans-48"/>
       <use x="127.246094" xlink:href="#DejaVuSans-48"/>
      </g>
     </g>
    </g>
    <g id="xtick_4">
     <g id="line2d_7">
      <path clip-path="url(#p37d7d371c8)" d="M 318.40809 315 
L 318.40809 43.2 
" style="fill:none;stroke:#b0b0b0;stroke-linecap:square;stroke-width:0.8;"/>
     </g>
     <g id="line2d_8">
      <g>
       <use style="stroke:#000000;stroke-width:0.8;" x="318.40809" xlink:href="#m26147e63ed" y="315"/>
      </g>
     </g>
     <g id="text_4">
      <!-- 600 -->
      <defs>
       <path d="M 33.015625 40.375 
Q 26.375 40.375 22.484375 35.828125 
Q 18.609375 31.296875 18.609375 23.390625 
Q 18.609375 15.53125 22.484375 10.953125 
Q 26.375 6.390625 33.015625 6.390625 
Q 39.65625 6.390625 43.53125 10.953125 
Q 47.40625 15.53125 47.40625 23.390625 
Q 47.40625 31.296875 43.53125 35.828125 
Q 39.65625 40.375 33.015625 40.375 
z
M 52.59375 71.296875 
L 52.59375 62.3125 
Q 48.875 64.0625 45.09375 64.984375 
Q 41.3125 65.921875 37.59375 65.921875 
Q 27.828125 65.921875 22.671875 59.328125 
Q 17.53125 52.734375 16.796875 39.40625 
Q 19.671875 43.65625 24.015625 45.921875 
Q 28.375 48.1875 33.59375 48.1875 
Q 44.578125 48.1875 50.953125 41.515625 
Q 57.328125 34.859375 57.328125 23.390625 
Q 57.328125 12.15625 50.6875 5.359375 
Q 44.046875 -1.421875 33.015625 -1.421875 
Q 20.359375 -1.421875 13.671875 8.265625 
Q 6.984375 17.96875 6.984375 36.375 
Q 6.984375 53.65625 15.1875 63.9375 
Q 23.390625 74.21875 37.203125 74.21875 
Q 40.921875 74.21875 44.703125 73.484375 
Q 48.484375 72.75 52.59375 71.296875 
z
" id="DejaVuSans-54"/>
      </defs>
      <g transform="translate(308.86434 329.598437)scale(0.1 -0.1)">
       <use xlink:href="#DejaVuSans-54"/>
       <use x="63.623047" xlink:href="#DejaVuSans-48"/>
       <use x="127.246094" xlink:href="#DejaVuSans-48"/>
      </g>
     </g>
    </g>
    <g id="xtick_5">
     <g id="line2d_9">
      <path clip-path="url(#p37d7d371c8)" d="M 386.089575 315 
L 386.089575 43.2 
" style="fill:none;stroke:#b0b0b0;stroke-linecap:square;stroke-width:0.8;"/>
     </g>
     <g id="line2d_10">
      <g>
       <use style="stroke:#000000;stroke-width:0.8;" x="386.089575" xlink:href="#m26147e63ed" y="315"/>
      </g>
     </g>
     <g id="text_5">
      <!-- 800 -->
      <defs>
       <path d="M 31.78125 34.625 
Q 24.75 34.625 20.71875 30.859375 
Q 16.703125 27.09375 16.703125 20.515625 
Q 16.703125 13.921875 20.71875 10.15625 
Q 24.75 6.390625 31.78125 6.390625 
Q 38.8125 6.390625 42.859375 10.171875 
Q 46.921875 13.96875 46.921875 20.515625 
Q 46.921875 27.09375 42.890625 30.859375 
Q 38.875 34.625 31.78125 34.625 
z
M 21.921875 38.8125 
Q 15.578125 40.375 12.03125 44.71875 
Q 8.5 49.078125 8.5 55.328125 
Q 8.5 64.0625 14.71875 69.140625 
Q 20.953125 74.21875 31.78125 74.21875 
Q 42.671875 74.21875 48.875 69.140625 
Q 55.078125 64.0625 55.078125 55.328125 
Q 55.078125 49.078125 51.53125 44.71875 
Q 48 40.375 41.703125 38.8125 
Q 48.828125 37.15625 52.796875 32.3125 
Q 56.78125 27.484375 56.78125 20.515625 
Q 56.78125 9.90625 50.3125 4.234375 
Q 43.84375 -1.421875 31.78125 -1.421875 
Q 19.734375 -1.421875 13.25 4.234375 
Q 6.78125 9.90625 6.78125 20.515625 
Q 6.78125 27.484375 10.78125 32.3125 
Q 14.796875 37.15625 21.921875 38.8125 
z
M 18.3125 54.390625 
Q 18.3125 48.734375 21.84375 45.5625 
Q 25.390625 42.390625 31.78125 42.390625 
Q 38.140625 42.390625 41.71875 45.5625 
Q 45.3125 48.734375 45.3125 54.390625 
Q 45.3125 60.0625 41.71875 63.234375 
Q 38.140625 66.40625 31.78125 66.40625 
Q 25.390625 66.40625 21.84375 63.234375 
Q 18.3125 60.0625 18.3125 54.390625 
z
" id="DejaVuSans-56"/>
      </defs>
      <g transform="translate(376.545825 329.598437)scale(0.1 -0.1)">
       <use xlink:href="#DejaVuSans-56"/>
       <use x="63.623047" xlink:href="#DejaVuSans-48"/>
       <use x="127.246094" xlink:href="#DejaVuSans-48"/>
      </g>
     </g>
    </g>
    <g id="xtick_6">
     <g id="line2d_11">
      <path clip-path="url(#p37d7d371c8)" d="M 453.771059 315 
L 453.771059 43.2 
" style="fill:none;stroke:#b0b0b0;stroke-linecap:square;stroke-width:0.8;"/>
     </g>
     <g id="line2d_12">
      <g>
       <use style="stroke:#000000;stroke-width:0.8;" x="453.771059" xlink:href="#m26147e63ed" y="315"/>
      </g>
     </g>
     <g id="text_6">
      <!-- 1000 -->
      <defs>
       <path d="M 12.40625 8.296875 
L 28.515625 8.296875 
L 28.515625 63.921875 
L 10.984375 60.40625 
L 10.984375 69.390625 
L 28.421875 72.90625 
L 38.28125 72.90625 
L 38.28125 8.296875 
L 54.390625 8.296875 
L 54.390625 0 
L 12.40625 0 
z
" id="DejaVuSans-49"/>
      </defs>
      <g transform="translate(441.046059 329.598437)scale(0.1 -0.1)">
       <use xlink:href="#DejaVuSans-49"/>
       <use x="63.623047" xlink:href="#DejaVuSans-48"/>
       <use x="127.246094" xlink:href="#DejaVuSans-48"/>
       <use x="190.869141" xlink:href="#DejaVuSans-48"/>
      </g>
     </g>
    </g>
    <g id="xtick_7">
     <g id="line2d_13">
      <path clip-path="url(#p37d7d371c8)" d="M 521.452544 315 
L 521.452544 43.2 
" style="fill:none;stroke:#b0b0b0;stroke-linecap:square;stroke-width:0.8;"/>
     </g>
     <g id="line2d_14">
      <g>
       <use style="stroke:#000000;stroke-width:0.8;" x="521.452544" xlink:href="#m26147e63ed" y="315"/>
      </g>
     </g>
     <g id="text_7">
      <!-- 1200 -->
      <g transform="translate(508.727544 329.598437)scale(0.1 -0.1)">
       <use xlink:href="#DejaVuSans-49"/>
       <use x="63.623047" xlink:href="#DejaVuSans-50"/>
       <use x="127.246094" xlink:href="#DejaVuSans-48"/>
       <use x="190.869141" xlink:href="#DejaVuSans-48"/>
      </g>
     </g>
    </g>
    <g id="xtick_8">
     <g id="line2d_15">
      <path clip-path="url(#p37d7d371c8)" d="M 589.134029 315 
L 589.134029 43.2 
" style="fill:none;stroke:#b0b0b0;stroke-linecap:square;stroke-width:0.8;"/>
     </g>
     <g id="line2d_16">
      <g>
       <use style="stroke:#000000;stroke-width:0.8;" x="589.134029" xlink:href="#m26147e63ed" y="315"/>
      </g>
     </g>
     <g id="text_8">
      <!-- 1400 -->
      <g transform="translate(576.409029 329.598437)scale(0.1 -0.1)">
       <use xlink:href="#DejaVuSans-49"/>
       <use x="63.623047" xlink:href="#DejaVuSans-52"/>
       <use x="127.246094" xlink:href="#DejaVuSans-48"/>
       <use x="190.869141" xlink:href="#DejaVuSans-48"/>
      </g>
     </g>
    </g>
    <g id="text_9">
     <!-- Episode -->
     <defs>
      <path d="M 9.8125 72.90625 
L 55.90625 72.90625 
L 55.90625 64.59375 
L 19.671875 64.59375 
L 19.671875 43.015625 
L 54.390625 43.015625 
L 54.390625 34.71875 
L 19.671875 34.71875 
L 19.671875 8.296875 
L 56.78125 8.296875 
L 56.78125 0 
L 9.8125 0 
z
" id="DejaVuSans-69"/>
      <path d="M 18.109375 8.203125 
L 18.109375 -20.796875 
L 9.078125 -20.796875 
L 9.078125 54.6875 
L 18.109375 54.6875 
L 18.109375 46.390625 
Q 20.953125 51.265625 25.265625 53.625 
Q 29.59375 56 35.59375 56 
Q 45.5625 56 51.78125 48.09375 
Q 58.015625 40.1875 58.015625 27.296875 
Q 58.015625 14.40625 51.78125 6.484375 
Q 45.5625 -1.421875 35.59375 -1.421875 
Q 29.59375 -1.421875 25.265625 0.953125 
Q 20.953125 3.328125 18.109375 8.203125 
z
M 48.6875 27.296875 
Q 48.6875 37.203125 44.609375 42.84375 
Q 40.53125 48.484375 33.40625 48.484375 
Q 26.265625 48.484375 22.1875 42.84375 
Q 18.109375 37.203125 18.109375 27.296875 
Q 18.109375 17.390625 22.1875 11.75 
Q 26.265625 6.109375 33.40625 6.109375 
Q 40.53125 6.109375 44.609375 11.75 
Q 48.6875 17.390625 48.6875 27.296875 
z
" id="DejaVuSans-112"/>
      <path d="M 9.421875 54.6875 
L 18.40625 54.6875 
L 18.40625 0 
L 9.421875 0 
z
M 9.421875 75.984375 
L 18.40625 75.984375 
L 18.40625 64.59375 
L 9.421875 64.59375 
z
" id="DejaVuSans-105"/>
      <path d="M 44.28125 53.078125 
L 44.28125 44.578125 
Q 40.484375 46.53125 36.375 47.5 
Q 32.28125 48.484375 27.875 48.484375 
Q 21.1875 48.484375 17.84375 46.4375 
Q 14.5 44.390625 14.5 40.28125 
Q 14.5 37.15625 16.890625 35.375 
Q 19.28125 33.59375 26.515625 31.984375 
L 29.59375 31.296875 
Q 39.15625 29.25 43.1875 25.515625 
Q 47.21875 21.78125 47.21875 15.09375 
Q 47.21875 7.46875 41.1875 3.015625 
Q 35.15625 -1.421875 24.609375 -1.421875 
Q 20.21875 -1.421875 15.453125 -0.5625 
Q 10.6875 0.296875 5.421875 2 
L 5.421875 11.28125 
Q 10.40625 8.6875 15.234375 7.390625 
Q 20.0625 6.109375 24.8125 6.109375 
Q 31.15625 6.109375 34.5625 8.28125 
Q 37.984375 10.453125 37.984375 14.40625 
Q 37.984375 18.0625 35.515625 20.015625 
Q 33.0625 21.96875 24.703125 23.78125 
L 21.578125 24.515625 
Q 13.234375 26.265625 9.515625 29.90625 
Q 5.8125 33.546875 5.8125 39.890625 
Q 5.8125 47.609375 11.28125 51.796875 
Q 16.75 56 26.8125 56 
Q 31.78125 56 36.171875 55.265625 
Q 40.578125 54.546875 44.28125 53.078125 
z
" id="DejaVuSans-115"/>
      <path d="M 30.609375 48.390625 
Q 23.390625 48.390625 19.1875 42.75 
Q 14.984375 37.109375 14.984375 27.296875 
Q 14.984375 17.484375 19.15625 11.84375 
Q 23.34375 6.203125 30.609375 6.203125 
Q 37.796875 6.203125 41.984375 11.859375 
Q 46.1875 17.53125 46.1875 27.296875 
Q 46.1875 37.015625 41.984375 42.703125 
Q 37.796875 48.390625 30.609375 48.390625 
z
M 30.609375 56 
Q 42.328125 56 49.015625 48.375 
Q 55.71875 40.765625 55.71875 27.296875 
Q 55.71875 13.875 49.015625 6.21875 
Q 42.328125 -1.421875 30.609375 -1.421875 
Q 18.84375 -1.421875 12.171875 6.21875 
Q 5.515625 13.875 5.515625 27.296875 
Q 5.515625 40.765625 12.171875 48.375 
Q 18.84375 56 30.609375 56 
z
" id="DejaVuSans-111"/>
      <path d="M 45.40625 46.390625 
L 45.40625 75.984375 
L 54.390625 75.984375 
L 54.390625 0 
L 45.40625 0 
L 45.40625 8.203125 
Q 42.578125 3.328125 38.25 0.953125 
Q 33.9375 -1.421875 27.875 -1.421875 
Q 17.96875 -1.421875 11.734375 6.484375 
Q 5.515625 14.40625 5.515625 27.296875 
Q 5.515625 40.1875 11.734375 48.09375 
Q 17.96875 56 27.875 56 
Q 33.9375 56 38.25 53.625 
Q 42.578125 51.265625 45.40625 46.390625 
z
M 14.796875 27.296875 
Q 14.796875 17.390625 18.875 11.75 
Q 22.953125 6.109375 30.078125 6.109375 
Q 37.203125 6.109375 41.296875 11.75 
Q 45.40625 17.390625 45.40625 27.296875 
Q 45.40625 37.203125 41.296875 42.84375 
Q 37.203125 48.484375 30.078125 48.484375 
Q 22.953125 48.484375 18.875 42.84375 
Q 14.796875 37.203125 14.796875 27.296875 
z
" id="DejaVuSans-100"/>
      <path d="M 56.203125 29.59375 
L 56.203125 25.203125 
L 14.890625 25.203125 
Q 15.484375 15.921875 20.484375 11.0625 
Q 25.484375 6.203125 34.421875 6.203125 
Q 39.59375 6.203125 44.453125 7.46875 
Q 49.3125 8.734375 54.109375 11.28125 
L 54.109375 2.78125 
Q 49.265625 0.734375 44.1875 -0.34375 
Q 39.109375 -1.421875 33.890625 -1.421875 
Q 20.796875 -1.421875 13.15625 6.1875 
Q 5.515625 13.8125 5.515625 26.8125 
Q 5.515625 40.234375 12.765625 48.109375 
Q 20.015625 56 32.328125 56 
Q 43.359375 56 49.78125 48.890625 
Q 56.203125 41.796875 56.203125 29.59375 
z
M 47.21875 32.234375 
Q 47.125 39.59375 43.09375 43.984375 
Q 39.0625 48.390625 32.421875 48.390625 
Q 24.90625 48.390625 20.390625 44.140625 
Q 15.875 39.890625 15.1875 32.171875 
z
" id="DejaVuSans-101"/>
     </defs>
     <g transform="translate(349.3625 343.276563)scale(0.1 -0.1)">
      <use xlink:href="#DejaVuSans-69"/>
      <use x="63.183594" xlink:href="#DejaVuSans-112"/>
      <use x="126.660156" xlink:href="#DejaVuSans-105"/>
      <use x="154.443359" xlink:href="#DejaVuSans-115"/>
      <use x="206.542969" xlink:href="#DejaVuSans-111"/>
      <use x="267.724609" xlink:href="#DejaVuSans-100"/>
      <use x="331.201172" xlink:href="#DejaVuSans-101"/>
     </g>
    </g>
   </g>
   <g id="matplotlib.axis_2">
    <g id="ytick_1">
     <g id="line2d_17">
      <path clip-path="url(#p37d7d371c8)" d="M 90 313.05254 
L 648 313.05254 
" style="fill:none;stroke:#b0b0b0;stroke-linecap:square;stroke-width:0.8;"/>
     </g>
     <g id="line2d_18">
      <defs>
       <path d="M 0 0 
L -3.5 0 
" id="m933d205ed3" style="stroke:#000000;stroke-width:0.8;"/>
      </defs>
      <g>
       <use style="stroke:#000000;stroke-width:0.8;" x="90" xlink:href="#m933d205ed3" y="313.05254"/>
      </g>
     </g>
     <g id="text_10">
      <!-- −2.6 -->
      <defs>
       <path d="M 10.59375 35.5 
L 73.1875 35.5 
L 73.1875 27.203125 
L 10.59375 27.203125 
z
" id="DejaVuSans-8722"/>
       <path d="M 10.6875 12.40625 
L 21 12.40625 
L 21 0 
L 10.6875 0 
z
" id="DejaVuSans-46"/>
      </defs>
      <g transform="translate(58.717187 316.851758)scale(0.1 -0.1)">
       <use xlink:href="#DejaVuSans-8722"/>
       <use x="83.789062" xlink:href="#DejaVuSans-50"/>
       <use x="147.412109" xlink:href="#DejaVuSans-46"/>
       <use x="179.199219" xlink:href="#DejaVuSans-54"/>
      </g>
     </g>
    </g>
    <g id="ytick_2">
     <g id="line2d_19">
      <path clip-path="url(#p37d7d371c8)" d="M 90 278.967941 
L 648 278.967941 
" style="fill:none;stroke:#b0b0b0;stroke-linecap:square;stroke-width:0.8;"/>
     </g>
     <g id="line2d_20">
      <g>
       <use style="stroke:#000000;stroke-width:0.8;" x="90" xlink:href="#m933d205ed3" y="278.967941"/>
      </g>
     </g>
     <g id="text_11">
      <!-- −2.4 -->
      <g transform="translate(58.717187 282.767159)scale(0.1 -0.1)">
       <use xlink:href="#DejaVuSans-8722"/>
       <use x="83.789062" xlink:href="#DejaVuSans-50"/>
       <use x="147.412109" xlink:href="#DejaVuSans-46"/>
       <use x="179.199219" xlink:href="#DejaVuSans-52"/>
      </g>
     </g>
    </g>
    <g id="ytick_3">
     <g id="line2d_21">
      <path clip-path="url(#p37d7d371c8)" d="M 90 244.883342 
L 648 244.883342 
" style="fill:none;stroke:#b0b0b0;stroke-linecap:square;stroke-width:0.8;"/>
     </g>
     <g id="line2d_22">
      <g>
       <use style="stroke:#000000;stroke-width:0.8;" x="90" xlink:href="#m933d205ed3" y="244.883342"/>
      </g>
     </g>
     <g id="text_12">
      <!-- −2.2 -->
      <g transform="translate(58.717187 248.68256)scale(0.1 -0.1)">
       <use xlink:href="#DejaVuSans-8722"/>
       <use x="83.789062" xlink:href="#DejaVuSans-50"/>
       <use x="147.412109" xlink:href="#DejaVuSans-46"/>
       <use x="179.199219" xlink:href="#DejaVuSans-50"/>
      </g>
     </g>
    </g>
    <g id="ytick_4">
     <g id="line2d_23">
      <path clip-path="url(#p37d7d371c8)" d="M 90 210.798743 
L 648 210.798743 
" style="fill:none;stroke:#b0b0b0;stroke-linecap:square;stroke-width:0.8;"/>
     </g>
     <g id="line2d_24">
      <g>
       <use style="stroke:#000000;stroke-width:0.8;" x="90" xlink:href="#m933d205ed3" y="210.798743"/>
      </g>
     </g>
     <g id="text_13">
      <!-- −2.0 -->
      <g transform="translate(58.717187 214.597961)scale(0.1 -0.1)">
       <use xlink:href="#DejaVuSans-8722"/>
       <use x="83.789062" xlink:href="#DejaVuSans-50"/>
       <use x="147.412109" xlink:href="#DejaVuSans-46"/>
       <use x="179.199219" xlink:href="#DejaVuSans-48"/>
      </g>
     </g>
    </g>
    <g id="ytick_5">
     <g id="line2d_25">
      <path clip-path="url(#p37d7d371c8)" d="M 90 176.714144 
L 648 176.714144 
" style="fill:none;stroke:#b0b0b0;stroke-linecap:square;stroke-width:0.8;"/>
     </g>
     <g id="line2d_26">
      <g>
       <use style="stroke:#000000;stroke-width:0.8;" x="90" xlink:href="#m933d205ed3" y="176.714144"/>
      </g>
     </g>
     <g id="text_14">
      <!-- −1.8 -->
      <g transform="translate(58.717187 180.513362)scale(0.1 -0.1)">
       <use xlink:href="#DejaVuSans-8722"/>
       <use x="83.789062" xlink:href="#DejaVuSans-49"/>
       <use x="147.412109" xlink:href="#DejaVuSans-46"/>
       <use x="179.199219" xlink:href="#DejaVuSans-56"/>
      </g>
     </g>
    </g>
    <g id="ytick_6">
     <g id="line2d_27">
      <path clip-path="url(#p37d7d371c8)" d="M 90 142.629545 
L 648 142.629545 
" style="fill:none;stroke:#b0b0b0;stroke-linecap:square;stroke-width:0.8;"/>
     </g>
     <g id="line2d_28">
      <g>
       <use style="stroke:#000000;stroke-width:0.8;" x="90" xlink:href="#m933d205ed3" y="142.629545"/>
      </g>
     </g>
     <g id="text_15">
      <!-- −1.6 -->
      <g transform="translate(58.717187 146.428764)scale(0.1 -0.1)">
       <use xlink:href="#DejaVuSans-8722"/>
       <use x="83.789062" xlink:href="#DejaVuSans-49"/>
       <use x="147.412109" xlink:href="#DejaVuSans-46"/>
       <use x="179.199219" xlink:href="#DejaVuSans-54"/>
      </g>
     </g>
    </g>
    <g id="ytick_7">
     <g id="line2d_29">
      <path clip-path="url(#p37d7d371c8)" d="M 90 108.544946 
L 648 108.544946 
" style="fill:none;stroke:#b0b0b0;stroke-linecap:square;stroke-width:0.8;"/>
     </g>
     <g id="line2d_30">
      <g>
       <use style="stroke:#000000;stroke-width:0.8;" x="90" xlink:href="#m933d205ed3" y="108.544946"/>
      </g>
     </g>
     <g id="text_16">
      <!-- −1.4 -->
      <g transform="translate(58.717187 112.344165)scale(0.1 -0.1)">
       <use xlink:href="#DejaVuSans-8722"/>
       <use x="83.789062" xlink:href="#DejaVuSans-49"/>
       <use x="147.412109" xlink:href="#DejaVuSans-46"/>
       <use x="179.199219" xlink:href="#DejaVuSans-52"/>
      </g>
     </g>
    </g>
    <g id="ytick_8">
     <g id="line2d_31">
      <path clip-path="url(#p37d7d371c8)" d="M 90 74.460347 
L 648 74.460347 
" style="fill:none;stroke:#b0b0b0;stroke-linecap:square;stroke-width:0.8;"/>
     </g>
     <g id="line2d_32">
      <g>
       <use style="stroke:#000000;stroke-width:0.8;" x="90" xlink:href="#m933d205ed3" y="74.460347"/>
      </g>
     </g>
     <g id="text_17">
      <!-- −1.2 -->
      <g transform="translate(58.717187 78.259566)scale(0.1 -0.1)">
       <use xlink:href="#DejaVuSans-8722"/>
       <use x="83.789062" xlink:href="#DejaVuSans-49"/>
       <use x="147.412109" xlink:href="#DejaVuSans-46"/>
       <use x="179.199219" xlink:href="#DejaVuSans-50"/>
      </g>
     </g>
    </g>
    <g id="text_18">
     <!-- Episode Reward (Smoothed) -->
     <defs>
      <path id="DejaVuSans-32"/>
      <path d="M 44.390625 34.1875 
Q 47.5625 33.109375 50.5625 29.59375 
Q 53.5625 26.078125 56.59375 19.921875 
L 66.609375 0 
L 56 0 
L 46.6875 18.703125 
Q 43.0625 26.03125 39.671875 28.421875 
Q 36.28125 30.8125 30.421875 30.8125 
L 19.671875 30.8125 
L 19.671875 0 
L 9.8125 0 
L 9.8125 72.90625 
L 32.078125 72.90625 
Q 44.578125 72.90625 50.734375 67.671875 
Q 56.890625 62.453125 56.890625 51.90625 
Q 56.890625 45.015625 53.6875 40.46875 
Q 50.484375 35.9375 44.390625 34.1875 
z
M 19.671875 64.796875 
L 19.671875 38.921875 
L 32.078125 38.921875 
Q 39.203125 38.921875 42.84375 42.21875 
Q 46.484375 45.515625 46.484375 51.90625 
Q 46.484375 58.296875 42.84375 61.546875 
Q 39.203125 64.796875 32.078125 64.796875 
z
" id="DejaVuSans-82"/>
      <path d="M 4.203125 54.6875 
L 13.1875 54.6875 
L 24.421875 12.015625 
L 35.59375 54.6875 
L 46.1875 54.6875 
L 57.421875 12.015625 
L 68.609375 54.6875 
L 77.59375 54.6875 
L 63.28125 0 
L 52.6875 0 
L 40.921875 44.828125 
L 29.109375 0 
L 18.5 0 
z
" id="DejaVuSans-119"/>
      <path d="M 34.28125 27.484375 
Q 23.390625 27.484375 19.1875 25 
Q 14.984375 22.515625 14.984375 16.5 
Q 14.984375 11.71875 18.140625 8.90625 
Q 21.296875 6.109375 26.703125 6.109375 
Q 34.1875 6.109375 38.703125 11.40625 
Q 43.21875 16.703125 43.21875 25.484375 
L 43.21875 27.484375 
z
M 52.203125 31.203125 
L 52.203125 0 
L 43.21875 0 
L 43.21875 8.296875 
Q 40.140625 3.328125 35.546875 0.953125 
Q 30.953125 -1.421875 24.3125 -1.421875 
Q 15.921875 -1.421875 10.953125 3.296875 
Q 6 8.015625 6 15.921875 
Q 6 25.140625 12.171875 29.828125 
Q 18.359375 34.515625 30.609375 34.515625 
L 43.21875 34.515625 
L 43.21875 35.40625 
Q 43.21875 41.609375 39.140625 45 
Q 35.0625 48.390625 27.6875 48.390625 
Q 23 48.390625 18.546875 47.265625 
Q 14.109375 46.140625 10.015625 43.890625 
L 10.015625 52.203125 
Q 14.9375 54.109375 19.578125 55.046875 
Q 24.21875 56 28.609375 56 
Q 40.484375 56 46.34375 49.84375 
Q 52.203125 43.703125 52.203125 31.203125 
z
" id="DejaVuSans-97"/>
      <path d="M 41.109375 46.296875 
Q 39.59375 47.171875 37.8125 47.578125 
Q 36.03125 48 33.890625 48 
Q 26.265625 48 22.1875 43.046875 
Q 18.109375 38.09375 18.109375 28.8125 
L 18.109375 0 
L 9.078125 0 
L 9.078125 54.6875 
L 18.109375 54.6875 
L 18.109375 46.1875 
Q 20.953125 51.171875 25.484375 53.578125 
Q 30.03125 56 36.53125 56 
Q 37.453125 56 38.578125 55.875 
Q 39.703125 55.765625 41.0625 55.515625 
z
" id="DejaVuSans-114"/>
      <path d="M 31 75.875 
Q 24.46875 64.65625 21.28125 53.65625 
Q 18.109375 42.671875 18.109375 31.390625 
Q 18.109375 20.125 21.3125 9.0625 
Q 24.515625 -2 31 -13.1875 
L 23.1875 -13.1875 
Q 15.875 -1.703125 12.234375 9.375 
Q 8.59375 20.453125 8.59375 31.390625 
Q 8.59375 42.28125 12.203125 53.3125 
Q 15.828125 64.359375 23.1875 75.875 
z
" id="DejaVuSans-40"/>
      <path d="M 53.515625 70.515625 
L 53.515625 60.890625 
Q 47.90625 63.578125 42.921875 64.890625 
Q 37.9375 66.21875 33.296875 66.21875 
Q 25.25 66.21875 20.875 63.09375 
Q 16.5 59.96875 16.5 54.203125 
Q 16.5 49.359375 19.40625 46.890625 
Q 22.3125 44.4375 30.421875 42.921875 
L 36.375 41.703125 
Q 47.40625 39.59375 52.65625 34.296875 
Q 57.90625 29 57.90625 20.125 
Q 57.90625 9.515625 50.796875 4.046875 
Q 43.703125 -1.421875 29.984375 -1.421875 
Q 24.8125 -1.421875 18.96875 -0.25 
Q 13.140625 0.921875 6.890625 3.21875 
L 6.890625 13.375 
Q 12.890625 10.015625 18.65625 8.296875 
Q 24.421875 6.59375 29.984375 6.59375 
Q 38.421875 6.59375 43.015625 9.90625 
Q 47.609375 13.234375 47.609375 19.390625 
Q 47.609375 24.75 44.3125 27.78125 
Q 41.015625 30.8125 33.5 32.328125 
L 27.484375 33.5 
Q 16.453125 35.6875 11.515625 40.375 
Q 6.59375 45.0625 6.59375 53.421875 
Q 6.59375 63.09375 13.40625 68.65625 
Q 20.21875 74.21875 32.171875 74.21875 
Q 37.3125 74.21875 42.625 73.28125 
Q 47.953125 72.359375 53.515625 70.515625 
z
" id="DejaVuSans-83"/>
      <path d="M 52 44.1875 
Q 55.375 50.25 60.0625 53.125 
Q 64.75 56 71.09375 56 
Q 79.640625 56 84.28125 50.015625 
Q 88.921875 44.046875 88.921875 33.015625 
L 88.921875 0 
L 79.890625 0 
L 79.890625 32.71875 
Q 79.890625 40.578125 77.09375 44.375 
Q 74.3125 48.1875 68.609375 48.1875 
Q 61.625 48.1875 57.5625 43.546875 
Q 53.515625 38.921875 53.515625 30.90625 
L 53.515625 0 
L 44.484375 0 
L 44.484375 32.71875 
Q 44.484375 40.625 41.703125 44.40625 
Q 38.921875 48.1875 33.109375 48.1875 
Q 26.21875 48.1875 22.15625 43.53125 
Q 18.109375 38.875 18.109375 30.90625 
L 18.109375 0 
L 9.078125 0 
L 9.078125 54.6875 
L 18.109375 54.6875 
L 18.109375 46.1875 
Q 21.1875 51.21875 25.484375 53.609375 
Q 29.78125 56 35.6875 56 
Q 41.65625 56 45.828125 52.96875 
Q 50 49.953125 52 44.1875 
z
" id="DejaVuSans-109"/>
      <path d="M 18.3125 70.21875 
L 18.3125 54.6875 
L 36.8125 54.6875 
L 36.8125 47.703125 
L 18.3125 47.703125 
L 18.3125 18.015625 
Q 18.3125 11.328125 20.140625 9.421875 
Q 21.96875 7.515625 27.59375 7.515625 
L 36.8125 7.515625 
L 36.8125 0 
L 27.59375 0 
Q 17.1875 0 13.234375 3.875 
Q 9.28125 7.765625 9.28125 18.015625 
L 9.28125 47.703125 
L 2.6875 47.703125 
L 2.6875 54.6875 
L 9.28125 54.6875 
L 9.28125 70.21875 
z
" id="DejaVuSans-116"/>
      <path d="M 54.890625 33.015625 
L 54.890625 0 
L 45.90625 0 
L 45.90625 32.71875 
Q 45.90625 40.484375 42.875 44.328125 
Q 39.84375 48.1875 33.796875 48.1875 
Q 26.515625 48.1875 22.3125 43.546875 
Q 18.109375 38.921875 18.109375 30.90625 
L 18.109375 0 
L 9.078125 0 
L 9.078125 75.984375 
L 18.109375 75.984375 
L 18.109375 46.1875 
Q 21.34375 51.125 25.703125 53.5625 
Q 30.078125 56 35.796875 56 
Q 45.21875 56 50.046875 50.171875 
Q 54.890625 44.34375 54.890625 33.015625 
z
" id="DejaVuSans-104"/>
      <path d="M 8.015625 75.875 
L 15.828125 75.875 
Q 23.140625 64.359375 26.78125 53.3125 
Q 30.421875 42.28125 30.421875 31.390625 
Q 30.421875 20.453125 26.78125 9.375 
Q 23.140625 -1.703125 15.828125 -13.1875 
L 8.015625 -13.1875 
Q 14.5 -2 17.703125 9.0625 
Q 20.90625 20.125 20.90625 31.390625 
Q 20.90625 42.671875 17.703125 53.65625 
Q 14.5 64.65625 8.015625 75.875 
z
" id="DejaVuSans-41"/>
     </defs>
     <g transform="translate(52.6375 250.289844)rotate(-90)scale(0.1 -0.1)">
      <use xlink:href="#DejaVuSans-69"/>
      <use x="63.183594" xlink:href="#DejaVuSans-112"/>
      <use x="126.660156" xlink:href="#DejaVuSans-105"/>
      <use x="154.443359" xlink:href="#DejaVuSans-115"/>
      <use x="206.542969" xlink:href="#DejaVuSans-111"/>
      <use x="267.724609" xlink:href="#DejaVuSans-100"/>
      <use x="331.201172" xlink:href="#DejaVuSans-101"/>
      <use x="392.724609" xlink:href="#DejaVuSans-32"/>
      <use x="424.511719" xlink:href="#DejaVuSans-82"/>
      <use x="493.931641" xlink:href="#DejaVuSans-101"/>
      <use x="555.455078" xlink:href="#DejaVuSans-119"/>
      <use x="637.242188" xlink:href="#DejaVuSans-97"/>
      <use x="698.521484" xlink:href="#DejaVuSans-114"/>
      <use x="739.619141" xlink:href="#DejaVuSans-100"/>
      <use x="803.095703" xlink:href="#DejaVuSans-32"/>
      <use x="834.882812" xlink:href="#DejaVuSans-40"/>
      <use x="873.896484" xlink:href="#DejaVuSans-83"/>
      <use x="937.373047" xlink:href="#DejaVuSans-109"/>
      <use x="1034.785156" xlink:href="#DejaVuSans-111"/>
      <use x="1095.966797" xlink:href="#DejaVuSans-111"/>
      <use x="1157.148438" xlink:href="#DejaVuSans-116"/>
      <use x="1196.357422" xlink:href="#DejaVuSans-104"/>
      <use x="1259.736328" xlink:href="#DejaVuSans-101"/>
      <use x="1321.259766" xlink:href="#DejaVuSans-100"/>
      <use x="1384.736328" xlink:href="#DejaVuSans-41"/>
     </g>
    </g>
   </g>
   <g id="line2d_33">
    <path clip-path="url(#p37d7d371c8)" d="M 115.363636 194.606889 
L 115.702044 129.085283 
L 116.040451 254.393376 
L 116.378859 222.060625 
L 116.717266 215.063456 
L 117.394081 194.640521 
L 117.732488 206.140301 
L 118.070896 302.645455 
L 118.409303 248.065916 
L 118.747711 225.770859 
L 119.424525 264.884128 
L 119.762933 204.065718 
L 120.10134 246.830041 
L 120.439748 233.044392 
L 120.778155 244.904523 
L 121.116563 230.390698 
L 121.45497 188.31127 
L 121.793377 223.731156 
L 122.131785 220.306007 
L 122.470192 224.438174 
L 122.8086 219.556629 
L 123.147007 196.218785 
L 123.485415 233.443656 
L 124.162229 223.122114 
L 124.500637 227.396124 
L 124.839044 207.571516 
L 125.177452 205.437306 
L 125.515859 218.740927 
L 125.854266 217.425541 
L 126.192674 206.875404 
L 126.531081 229.162971 
L 126.869489 219.320728 
L 127.207896 219.304195 
L 127.546304 223.083937 
L 127.884711 214.022407 
L 128.223118 234.92345 
L 128.561526 225.531102 
L 128.899933 193.043461 
L 129.238341 219.556629 
L 129.576748 215.791651 
L 129.915156 230.889083 
L 130.253563 226.355356 
L 130.59197 223.671413 
L 130.930378 230.222152 
L 131.268785 242.057614 
L 131.607193 230.701753 
L 131.9456 231.715568 
L 132.284008 219.016287 
L 132.622415 220.297721 
L 132.960822 232.45595 
L 133.637637 221.593567 
L 133.976045 221.153003 
L 134.314452 203.313272 
L 134.652859 214.778287 
L 134.991267 221.113464 
L 135.329674 240.845243 
L 135.668082 197.713136 
L 136.006489 225.95172 
L 136.344897 202.124613 
L 136.683304 227.549828 
L 137.021711 222.448804 
L 137.360119 244.946237 
L 137.698526 219.572902 
L 138.036934 219.725445 
L 138.375341 217.737656 
L 138.713749 218.354298 
L 139.052156 223.025812 
L 139.390563 214.874111 
L 139.728971 224.374669 
L 140.067378 219.298702 
L 140.405786 217.426666 
L 140.744193 248.888852 
L 141.082601 220.227583 
L 141.421008 219.855839 
L 141.759415 226.889463 
L 142.097823 204.0935 
L 142.43623 228.25906 
L 142.774638 216.199016 
L 143.113045 214.26336 
L 143.451452 222.825193 
L 143.78986 219.189202 
L 144.128267 213.516616 
L 144.466675 227.957046 
L 144.805082 220.297765 
L 145.14349 231.59124 
L 145.481897 229.457825 
L 145.820304 213.649303 
L 146.158712 243.388078 
L 146.497119 243.171534 
L 146.835527 212.531743 
L 147.173934 222.847653 
L 147.512342 227.005593 
L 147.850749 186.445864 
L 148.189156 230.780542 
L 148.527564 208.948824 
L 148.865971 223.466018 
L 149.204379 243.538591 
L 149.542786 241.557742 
L 149.881194 238.736956 
L 150.219601 224.568762 
L 150.558008 220.914499 
L 150.896416 243.998033 
L 151.234823 219.202843 
L 151.573231 218.845575 
L 151.911638 226.718044 
L 152.250045 222.31249 
L 152.588453 238.479155 
L 152.92686 225.805281 
L 153.265268 231.688101 
L 153.603675 230.927761 
L 153.942083 230.763015 
L 154.28049 214.420742 
L 154.957305 246.881109 
L 155.63412 219.047745 
L 155.972527 218.810817 
L 156.310935 225.816475 
L 156.649342 217.626443 
L 156.987749 234.114147 
L 157.326157 222.866076 
L 157.664564 248.71427 
L 158.002972 230.858347 
L 158.341379 226.90733 
L 158.679787 225.323622 
L 159.018194 228.344782 
L 159.356601 225.146812 
L 159.695009 232.381712 
L 160.033416 232.252771 
L 160.371824 222.348798 
L 160.710231 235.297457 
L 161.048638 261.061926 
L 161.387046 230.552431 
L 161.725453 220.003966 
L 162.063861 231.711988 
L 162.402268 231.790445 
L 162.740676 211.996731 
L 163.079083 235.745801 
L 163.41749 222.152671 
L 163.755898 241.010862 
L 164.094305 243.573465 
L 164.432713 241.230897 
L 164.77112 237.676322 
L 165.109528 191.299899 
L 165.447935 189.2509 
L 165.786342 260.478424 
L 166.12475 227.138974 
L 166.463157 226.652729 
L 166.801565 244.490181 
L 167.139972 280.533793 
L 167.47838 76.15505 
L 167.816787 124.040702 
L 168.155194 136.206482 
L 168.493602 136.969262 
L 168.832009 132.914002 
L 169.170417 140.261741 
L 169.508824 134.907693 
L 169.847231 120.748232 
L 170.185639 131.615314 
L 170.524046 137.731817 
L 170.862454 138.962728 
L 171.200861 123.504699 
L 171.539269 126.953879 
L 172.216083 136.206249 
L 172.554491 148.372029 
L 172.892898 140.261741 
L 173.231306 140.261741 
L 173.908121 126.797407 
L 174.246528 135.670465 
L 174.584935 136.206256 
L 174.923343 141.024598 
L 175.600158 125.566263 
L 175.938565 131.633716 
L 176.276973 144.316769 
L 176.61538 144.316776 
L 176.953787 140.261741 
L 177.292195 130.852449 
L 177.630602 140.261741 
L 177.96901 126.797174 
L 178.307417 122.741916 
L 178.645824 117.074415 
L 178.984232 138.962721 
L 179.322639 132.151222 
L 179.661047 129.621523 
L 180.337862 132.151222 
L 181.014676 126.265845 
L 181.353084 144.316776 
L 181.691491 136.969262 
L 182.029899 136.206482 
L 182.368306 124.804426 
L 182.706714 106.52846 
L 183.045121 128.858567 
L 183.721936 132.914002 
L 184.060343 130.852439 
L 184.398751 107.820317 
L 184.737158 144.316809 
L 185.075566 119.993811 
L 185.413973 136.969037 
L 185.75238 127.559954 
L 186.090788 125.584197 
L 186.429195 132.151024 
L 186.767603 132.151024 
L 187.10601 122.741717 
L 187.444417 130.852432 
L 187.782825 132.151024 
L 188.121232 136.206482 
L 188.798047 118.686493 
L 189.136455 136.969037 
L 189.474862 128.878184 
L 189.813269 132.151024 
L 190.151677 140.261509 
L 190.490084 128.096361 
L 190.828492 128.858742 
L 191.166899 126.797174 
L 191.505307 126.797174 
L 191.843714 133.676875 
L 192.182121 131.615017 
L 192.520529 124.040701 
L 192.858936 132.151024 
L 193.535751 132.151024 
L 193.874159 128.095961 
L 194.212566 132.151221 
L 194.550973 122.741942 
L 194.889381 105.37533 
L 195.227788 129.621297 
L 195.566196 124.040505 
L 195.904603 140.261516 
L 196.24301 105.235504 
L 196.581418 124.040505 
L 196.919825 124.040505 
L 197.258233 122.273587 
L 197.59664 126.798054 
L 197.935048 118.686457 
L 198.273455 138.97393 
L 198.611862 134.918671 
L 198.95027 128.893649 
L 199.288677 90.299874 
L 199.627085 132.151222 
L 199.965492 108.586536 
L 200.3039 132.151222 
L 200.642307 123.504694 
L 200.980714 102.467594 
L 201.319122 132.151222 
L 201.657529 111.338813 
L 202.334344 135.68145 
L 202.672752 119.993375 
L 203.011159 132.151222 
L 203.349566 117.455749 
L 203.687974 120.277118 
L 204.026381 132.15114 
L 204.703196 132.15114 
L 205.041603 127.560047 
L 205.380011 134.912208 
L 205.718418 110.576309 
L 206.056826 136.206256 
L 206.395233 128.09588 
L 206.733641 115.930102 
L 207.072048 132.913921 
L 207.410455 128.115411 
L 207.748863 126.862077 
L 208.08727 132.15114 
L 208.425678 110.653457 
L 208.764085 128.095962 
L 209.102493 132.151222 
L 209.4409 107.283726 
L 209.779307 115.930101 
L 210.117715 128.09588 
L 210.456122 128.09588 
L 210.79453 132.151222 
L 211.132937 97.179752 
L 211.471345 126.797174 
L 211.809752 119.985478 
L 212.148159 128.096361 
L 212.486567 110.57617 
L 212.824974 132.151221 
L 213.163382 111.6316 
L 213.501789 124.803402 
L 213.840196 126.797173 
L 214.178604 116.692998 
L 214.517011 119.985472 
L 214.855419 112.695848 
L 215.193826 119.985246 
L 215.532234 118.697701 
L 215.870641 119.985246 
L 216.209048 128.09588 
L 216.547456 128.09588 
L 216.885863 121.510922 
L 217.224271 107.819594 
L 217.562678 106.520914 
L 217.901086 128.09588 
L 218.239493 111.874962 
L 218.5779 114.63143 
L 219.254715 128.85866 
L 219.593123 119.985246 
L 219.93153 120.748141 
L 220.269938 111.874962 
L 220.608345 128.09588 
L 220.946752 111.874962 
L 221.28516 133.60873 
L 221.623567 128.09588 
L 221.961975 111.874962 
L 222.300382 132.15114 
L 222.977197 119.985246 
L 223.315604 124.040623 
L 223.654012 101.168085 
L 223.992419 103.536357 
L 224.330827 119.985246 
L 225.007641 119.985246 
L 225.346049 128.09588 
L 226.022864 111.874962 
L 226.361271 128.09588 
L 226.699679 118.686776 
L 227.038086 115.409143 
L 227.376493 119.985246 
L 227.714901 119.985478 
L 228.053308 111.874962 
L 228.391716 119.985478 
L 228.730123 111.874962 
L 229.068531 111.874962 
L 229.406938 119.985246 
L 229.745345 100.471964 
L 230.083753 119.985246 
L 230.42216 132.151251 
L 230.760568 132.151251 
L 231.098975 107.819703 
L 231.77579 124.040505 
L 232.452605 114.632277 
L 232.791012 115.929987 
L 233.12942 119.985246 
L 233.806234 119.985604 
L 234.144642 126.797092 
L 234.483049 107.819702 
L 235.159864 130.852258 
L 235.498272 124.040737 
L 235.836679 94.355161 
L 236.175086 119.991396 
L 236.513494 126.796998 
L 236.851901 94.355192 
L 237.190309 130.852258 
L 237.528716 120.754163 
L 237.867124 128.09588 
L 238.543938 119.991383 
L 238.882346 120.748026 
L 239.220753 124.045975 
L 239.897568 124.045975 
L 240.235975 122.747186 
L 240.574383 124.040505 
L 240.91279 122.747186 
L 241.251198 130.852241 
L 241.589605 119.454707 
L 241.928013 94.068528 
L 242.26642 134.907469 
L 242.604827 123.509967 
L 242.943235 126.802446 
L 243.281642 116.698903 
L 243.62005 131.618208 
L 243.958457 116.698903 
L 244.296865 130.855427 
L 244.635272 115.936123 
L 244.973679 119.991383 
L 245.650494 119.991383 
L 245.988902 108.052425 
L 246.327309 119.991383 
L 246.665717 125.011439 
L 247.342531 93.062372 
L 247.680939 134.910687 
L 248.019346 112.656442 
L 248.357754 119.454707 
L 248.696161 120.78322 
L 249.034569 122.747903 
L 249.372976 134.910687 
L 249.711383 93.062372 
L 250.049791 122.208901 
L 250.388198 118.691926 
L 250.726606 126.803162 
L 251.065013 111.886128 
L 251.40342 130.855427 
L 251.741828 124.049209 
L 252.418643 104.292207 
L 252.75705 128.498334 
L 253.095458 119.454707 
L 253.433865 83.249833 
L 253.772272 136.972255 
L 254.11068 112.874965 
L 254.449087 102.832678 
L 254.787495 120.983482 
L 255.125902 123.512529 
L 255.46431 114.866002 
L 255.802717 111.573522 
L 256.141124 114.866002 
L 256.479532 97.414069 
L 256.817939 114.866002 
L 257.156347 114.866002 
L 257.494754 79.932052 
L 257.833162 114.866002 
L 258.171569 83.985513 
L 258.509976 108.05419 
L 258.848384 120.756969 
L 259.186791 101.401792 
L 259.525199 89.302169 
L 259.863606 131.618208 
L 260.540421 109.049455 
L 260.878828 103.000052 
L 261.217236 117.469621 
L 261.555643 120.756729 
L 261.894051 101.006693 
L 262.232458 101.006693 
L 262.570865 103.873045 
L 262.909273 112.874965 
L 263.24768 73.938317 
L 263.586088 79.385953 
L 263.924495 115.697311 
L 264.262903 99.707866 
L 264.60131 101.827325 
L 264.939717 68.54289 
L 265.278125 113.306227 
L 265.616532 73.750543 
L 265.95494 91.923279 
L 266.293347 76.190885 
L 266.631755 109.167976 
L 266.970162 68.750434 
L 267.308569 85.089493 
L 267.646977 85.089592 
L 267.985384 95.729757 
L 268.323792 74.542501 
L 268.662199 84.338013 
L 269.000606 68.198671 
L 269.339014 66.501514 
L 269.677421 186.845187 
L 270.015829 62.292188 
L 270.354236 77.437306 
L 270.692644 86.310576 
L 271.031051 86.084307 
L 271.369458 86.084307 
L 271.707866 71.87978 
L 272.046273 68.750434 
L 272.384681 87.619202 
L 272.723088 69.846851 
L 274.415125 69.846851 
L 274.753533 66.395941 
L 275.09194 69.846851 
L 275.430348 88.801932 
L 275.768755 168.210352 
L 276.107162 55.554545 
L 276.44557 67.750965 
L 276.783977 67.750965 
L 277.122385 63.022397 
L 277.460792 125.441778 
L 277.799199 76.476289 
L 278.476014 59.709602 
L 278.814422 196.47289 
L 279.152829 94.537977 
L 279.491237 70.83694 
L 279.829644 87.535448 
L 280.168051 87.535448 
L 280.506459 82.919039 
L 280.844866 67.582876 
L 282.198496 67.582876 
L 282.536903 115.156826 
L 283.213718 94.559536 
L 284.228941 184.526028 
L 284.567348 245.117116 
L 284.905755 214.453333 
L 285.244163 220.609912 
L 285.58257 259.08924 
L 285.920978 172.973784 
L 286.259385 247.490685 
L 286.597792 236.914009 
L 286.9362 252.754579 
L 287.951422 218.428715 
L 288.28983 200.408736 
L 288.628237 199.109948 
L 288.966644 192.682153 
L 289.305052 197.81116 
L 289.643459 201.070721 
L 289.981867 201.798072 
L 290.320274 197.617349 
L 290.658682 201.798072 
L 290.997089 197.81116 
L 291.335496 203.922573 
L 291.673904 201.070721 
L 292.012311 202.672127 
L 292.350719 198.567898 
L 292.689126 196.933038 
L 293.027534 201.798072 
L 293.365941 192.682153 
L 293.704348 198.567898 
L 294.042756 199.771933 
L 294.381163 201.861005 
L 294.719571 195.848355 
L 295.396385 205.92812 
L 295.734793 204.067854 
L 296.0732 192.988614 
L 296.411608 198.572652 
L 296.750015 190.69798 
L 297.088423 201.861005 
L 297.42683 200.449401 
L 297.765237 197.805491 
L 298.103645 198.868596 
L 298.442052 190.007688 
L 298.78046 201.798072 
L 299.118867 196.512371 
L 299.457275 206.777782 
L 299.795682 198.567898 
L 300.134089 197.805491 
L 300.472497 205.14922 
L 300.810904 203.501488 
L 301.149312 197.805491 
L 301.487719 201.798072 
L 301.826127 203.092511 
L 302.502941 200.989932 
L 302.841349 200.615172 
L 303.179756 190.494308 
L 303.518164 196.933038 
L 303.856571 196.512371 
L 304.194978 201.412771 
L 304.533386 201.861005 
L 304.871793 203.909057 
L 305.210201 197.805491 
L 305.548608 199.865056 
L 305.887016 199.795172 
L 306.902238 209.272678 
L 307.240645 204.067854 
L 307.579053 201.798072 
L 307.91746 192.682153 
L 308.255868 197.738463 
L 308.932682 201.866419 
L 309.27109 197.805491 
L 309.609497 201.798072 
L 309.947905 200.989932 
L 310.62472 198.856503 
L 310.963127 196.512371 
L 311.301534 205.92445 
L 311.639942 197.805491 
L 311.978349 203.889099 
L 312.655164 192.682153 
L 312.993571 197.738463 
L 313.331979 196.933038 
L 313.670386 196.512371 
L 314.008794 199.698596 
L 314.347201 200.989932 
L 314.685609 203.85964 
L 315.024016 198.567898 
L 315.362423 199.795172 
L 315.700831 205.612238 
L 316.039238 197.617349 
L 316.377646 197.738463 
L 316.716053 190.494308 
L 317.392868 203.028595 
L 317.731275 201.861005 
L 318.069683 207.212066 
L 318.40809 201.928687 
L 318.746498 199.795172 
L 319.084905 193.342183 
L 319.423313 190.494308 
L 319.76172 203.0515 
L 320.100127 201.798072 
L 320.776942 192.682153 
L 321.11535 198.496384 
L 321.453757 197.738463 
L 321.792164 197.617349 
L 322.130572 196.512371 
L 322.468979 201.798072 
L 322.807387 196.933038 
L 323.145794 200.989932 
L 323.484202 189.873233 
L 323.822609 191.933846 
L 324.161016 201.851954 
L 324.499424 191.246532 
L 324.837831 201.798072 
L 325.176239 192.988614 
L 325.514646 197.617349 
L 325.853054 197.738463 
L 326.191461 202.287457 
L 326.529868 196.512371 
L 326.868276 198.567898 
L 327.206683 198.496384 
L 327.545091 201.861005 
L 327.883498 189.44201 
L 328.221906 190.69798 
L 328.560313 203.909057 
L 328.89872 198.567898 
L 329.237128 198.457472 
L 329.575535 190.494308 
L 330.25235 201.798072 
L 330.590757 197.738463 
L 330.929165 196.933038 
L 331.267572 200.989932 
L 331.60598 192.682153 
L 331.944387 197.617349 
L 332.282795 196.512371 
L 332.621202 201.36476 
L 332.959609 186.115024 
L 333.298017 196.933038 
L 333.636424 196.512371 
L 333.974832 197.738463 
L 334.313239 198.496384 
L 334.651647 198.28928 
L 334.990054 200.989932 
L 335.328461 197.617349 
L 335.666869 192.682153 
L 336.005276 200.989932 
L 336.343684 197.738463 
L 336.682091 190.494308 
L 337.020499 202.151475 
L 337.358906 197.617349 
L 337.697313 203.09686 
L 338.035721 196.512371 
L 338.374128 200.76354 
L 338.712536 203.039084 
L 339.050943 200.989932 
L 339.727758 191.933846 
L 340.74298 206.34398 
L 341.081388 197.617349 
L 341.419795 192.682153 
L 341.758202 174.315338 
L 342.09661 196.512371 
L 342.435017 198.496384 
L 342.773425 203.092511 
L 343.111832 196.933038 
L 343.45024 201.901337 
L 343.788647 197.617349 
L 344.127054 185.079809 
L 344.465462 196.512371 
L 344.803869 201.798072 
L 345.480684 193.091884 
L 346.157499 200.989932 
L 346.495906 191.933846 
L 346.834314 188.809168 
L 347.172721 200.989932 
L 347.511129 197.617349 
L 347.849536 201.798072 
L 348.187943 196.512371 
L 348.526351 198.496384 
L 348.864758 199.296148 
L 349.203166 203.436669 
L 349.541573 192.682153 
L 349.879981 196.933038 
L 350.218388 196.512371 
L 350.556795 201.901337 
L 350.895203 198.496384 
L 351.23361 203.092511 
L 351.572018 197.617349 
L 351.910425 193.980941 
L 352.248833 174.315338 
L 352.58724 196.512371 
L 352.925647 196.933038 
L 353.264055 191.933846 
L 353.602462 190.494308 
L 353.94087 200.989932 
L 354.279277 197.617349 
L 354.617685 188.809168 
L 355.294499 201.798072 
L 355.632907 183.638768 
L 355.971314 196.512371 
L 356.309722 196.933038 
L 356.648129 187.654601 
L 356.986536 203.0515 
L 357.324944 196.933038 
L 357.663351 203.850432 
L 358.001759 201.798072 
L 358.340166 174.315338 
L 358.678574 196.512371 
L 359.016981 197.617349 
L 359.355388 191.933846 
L 359.693796 198.71146 
L 360.032203 197.738463 
L 360.370611 201.901337 
L 360.709018 185.079809 
L 361.047426 196.512371 
L 361.72424 188.809168 
L 362.062648 196.512371 
L 362.401055 196.933038 
L 362.739463 200.989932 
L 363.07787 199.678918 
L 363.416278 188.669895 
L 363.754685 191.793096 
L 364.093092 174.315338 
L 364.4315 196.512371 
L 364.769907 196.933038 
L 365.108315 197.617349 
L 365.446722 200.989932 
L 366.123537 185.079809 
L 366.461944 196.512371 
L 366.800352 196.933038 
L 367.138759 201.901337 
L 367.477167 192.682153 
L 368.153981 188.809168 
L 368.492389 196.512371 
L 368.830796 200.989932 
L 369.169204 197.617349 
L 369.507611 199.037252 
L 370.184426 191.933846 
L 370.522833 198.71146 
L 370.861241 208.190645 
L 371.199648 196.512371 
L 371.538056 192.682153 
L 371.876463 174.315338 
L 372.214871 196.512371 
L 372.891685 183.638768 
L 373.230093 185.079809 
L 373.5685 188.809168 
L 373.906908 196.512371 
L 374.245315 200.989932 
L 374.583722 196.933038 
L 374.92213 197.617349 
L 375.260537 201.901337 
L 375.598945 198.71146 
L 376.27576 196.933038 
L 376.614167 188.669895 
L 376.952574 196.512371 
L 377.290982 191.933846 
L 377.629389 192.682153 
L 377.967797 179.669229 
L 378.306204 196.512371 
L 378.644612 196.512371 
L 378.983019 200.989932 
L 379.321426 192.682153 
L 379.659834 191.933846 
L 379.998241 197.617349 
L 380.336649 190.494308 
L 380.675056 201.901337 
L 381.013464 185.079809 
L 381.351871 174.315338 
L 381.690278 196.512371 
L 382.028686 190.107956 
L 382.367093 196.512371 
L 382.705501 196.933038 
L 383.043908 200.989932 
L 383.382315 197.617349 
L 383.720723 198.542217 
L 384.05913 196.512371 
L 384.397538 192.682153 
L 384.735945 191.933846 
L 385.074353 189.852886 
L 385.41276 174.315338 
L 385.751167 196.512371 
L 386.089575 185.079809 
L 386.427982 188.809168 
L 386.76639 190.494308 
L 387.104797 200.989932 
L 387.443205 200.989932 
L 387.781612 174.315338 
L 388.120019 196.512371 
L 388.458427 197.617349 
L 388.796834 196.933038 
L 389.135242 198.71146 
L 389.473649 201.901337 
L 389.812057 198.71146 
L 390.150464 198.542217 
L 390.488871 196.512371 
L 390.827279 185.079809 
L 391.165686 196.512371 
L 391.504094 192.682153 
L 391.842501 192.682153 
L 392.180908 188.809168 
L 392.519316 196.512371 
L 392.857723 191.933846 
L 393.196131 200.989932 
L 393.534538 190.494308 
L 393.872946 183.638768 
L 394.211353 174.315338 
L 394.54976 196.512371 
L 394.888168 186.378597 
L 395.226575 188.809168 
L 395.564983 196.512371 
L 395.90339 196.933038 
L 396.241798 200.989932 
L 396.580205 197.617349 
L 396.918612 200.989932 
L 397.25702 191.933846 
L 397.595427 192.682153 
L 397.933835 174.315338 
L 398.272242 196.512371 
L 398.61065 191.759892 
L 398.949057 196.512371 
L 399.287464 196.933038 
L 399.625872 196.933038 
L 399.964279 197.617349 
L 400.641094 185.079809 
L 400.979501 196.512371 
L 401.656316 188.809168 
L 401.994724 196.512371 
L 402.333131 190.494308 
L 402.671539 200.989932 
L 403.009946 192.682153 
L 403.348353 174.315338 
L 403.686761 196.512371 
L 404.025168 191.933846 
L 404.363576 197.617349 
L 404.701983 185.079809 
L 405.040391 196.512371 
L 405.378798 190.494308 
L 405.717205 200.989932 
L 406.055613 190.494308 
L 406.39402 201.901337 
L 406.732428 174.315338 
L 407.070835 196.512371 
L 407.409243 188.809168 
L 407.74765 196.512371 
L 408.086057 200.989932 
L 408.424465 192.682153 
L 408.762872 191.933846 
L 409.10128 198.542217 
L 409.439687 196.512371 
L 409.778094 174.315338 
L 410.116502 196.512371 
L 410.454909 185.079809 
L 410.793317 192.682153 
L 411.131724 188.809168 
L 411.470132 196.512371 
L 411.808539 200.989932 
L 412.146946 190.494308 
L 412.485354 198.71146 
L 412.823761 201.901337 
L 413.162169 198.542217 
L 413.500576 174.315338 
L 413.838984 196.512371 
L 414.515798 174.315338 
L 414.854206 196.512371 
L 415.531021 188.809168 
L 415.869428 196.512371 
L 416.207836 200.989932 
L 416.546243 192.682153 
L 416.88465 191.933846 
L 417.223058 188.669895 
L 417.561465 196.512371 
L 417.899873 174.315338 
L 418.23828 196.512371 
L 418.576687 190.494308 
L 418.915095 200.989932 
L 419.253502 190.19655 
L 419.59191 192.682153 
L 419.930317 185.079809 
L 420.268725 174.315338 
L 420.607132 196.512371 
L 420.945539 196.512371 
L 421.283947 191.933846 
L 421.622354 190.494308 
L 421.960762 198.71146 
L 422.299169 201.901337 
L 422.637577 200.989932 
L 422.975984 188.809168 
L 423.314391 196.512371 
L 423.991206 174.315338 
L 424.329614 196.512371 
L 424.668021 192.682153 
L 425.006429 174.315338 
L 425.344836 196.512371 
L 425.683243 192.682153 
L 426.021651 191.933846 
L 426.360058 190.494308 
L 426.698466 185.079809 
L 427.036873 188.809168 
L 427.37528 196.512371 
L 427.713688 192.652071 
L 428.052095 200.989932 
L 428.390503 190.19655 
L 428.72891 192.652071 
L 429.067318 192.682153 
L 429.405725 190.494308 
L 429.744132 185.079809 
L 430.08254 196.512371 
L 430.420947 192.682153 
L 430.759355 174.315338 
L 431.097762 196.512371 
L 431.43617 196.512371 
L 431.774577 191.933846 
L 432.112984 190.19655 
L 432.451392 190.494308 
L 432.789799 185.079809 
L 433.128207 174.315338 
L 433.466614 196.512371 
L 433.805022 188.809168 
L 434.143429 196.512371 
L 434.481836 192.682153 
L 434.820244 196.512371 
L 435.158651 192.652071 
L 435.497059 192.253231 
L 435.835466 190.494308 
L 436.173873 192.682153 
L 436.512281 190.494308 
L 436.850688 190.195999 
L 437.189096 192.652071 
L 437.527503 192.652071 
L 437.865911 190.195999 
L 438.204318 192.682153 
L 438.542725 190.19655 
L 438.881133 196.512371 
L 439.21954 192.682153 
L 439.557948 196.512371 
L 439.896355 184.238159 
L 440.234763 185.079809 
L 440.57317 196.512371 
L 440.911577 192.682153 
L 441.249985 174.315338 
L 441.588392 196.512371 
L 441.9268 196.512371 
L 442.265207 192.652071 
L 442.603615 190.195999 
L 442.942022 190.19655 
L 443.280429 192.682153 
L 443.618837 192.652071 
L 443.957244 190.195999 
L 444.295652 190.19655 
L 444.634059 184.238159 
L 444.972466 196.512371 
L 445.310874 192.682153 
L 445.649281 192.652071 
L 445.987689 190.195999 
L 446.326096 192.652071 
L 446.664504 181.134092 
L 447.002911 192.682153 
L 447.341318 190.19655 
L 447.679726 196.512371 
L 448.018133 192.652071 
L 448.356541 190.195999 
L 448.694948 184.238159 
L 449.033356 192.682153 
L 449.371763 196.512371 
L 449.71017 192.652071 
L 450.048578 190.19655 
L 450.386985 181.134092 
L 450.725393 192.682153 
L 451.0638 196.512371 
L 451.402208 190.195999 
L 451.740615 192.652071 
L 452.079022 190.19655 
L 452.41743 181.134092 
L 452.755837 192.682153 
L 453.094245 196.512371 
L 453.432652 192.652071 
L 453.771059 190.195999 
L 454.109467 192.652071 
L 454.447874 190.19655 
L 454.786282 184.238159 
L 455.124689 192.682153 
L 455.463097 190.195999 
L 455.801504 192.652071 
L 456.139911 181.134092 
L 456.478319 192.682153 
L 456.816726 196.512371 
L 457.155134 190.19655 
L 457.493541 192.652071 
L 457.831949 190.195999 
L 458.170356 192.652071 
L 458.847171 176.228078 
L 459.185578 196.512371 
L 459.523986 192.682153 
L 459.862393 192.682153 
L 460.200801 196.512371 
L 460.539208 190.19655 
L 460.877615 190.195999 
L 461.216023 192.652071 
L 461.55443 190.19655 
L 461.892838 176.228078 
L 462.231245 196.512371 
L 462.569652 192.682153 
L 462.90806 190.195999 
L 463.246467 192.652071 
L 463.584875 192.652071 
L 463.923282 190.195999 
L 464.26169 181.134092 
L 464.600097 184.238159 
L 464.938504 192.682153 
L 465.276912 196.512371 
L 465.615319 190.19655 
L 465.953727 191.889872 
L 466.292134 196.512371 
L 466.630542 176.228078 
L 466.968949 196.512371 
L 467.307356 192.682153 
L 467.645764 192.652071 
L 467.984171 190.195999 
L 468.322579 191.889872 
L 468.660986 196.512371 
L 468.999394 176.228078 
L 469.337801 196.512371 
L 469.676208 192.682153 
L 470.014616 190.19655 
L 470.353023 181.134092 
L 470.691431 192.652071 
L 471.029838 190.195999 
L 471.368245 191.889872 
L 471.706653 192.682153 
L 472.04506 176.228078 
L 472.383468 196.512371 
L 472.721875 192.652071 
L 473.060283 190.195999 
L 473.39869 190.19655 
L 473.737097 184.238159 
L 474.075505 192.682153 
L 474.413912 192.652071 
L 474.75232 190.195999 
L 475.090727 191.889872 
L 475.429135 196.512371 
L 475.767542 181.134092 
L 476.105949 192.682153 
L 476.444357 192.652071 
L 476.782764 190.19655 
L 477.121172 176.228078 
L 477.459579 196.512371 
L 477.797987 192.682153 
L 478.136394 190.195999 
L 478.474801 192.652071 
L 478.813209 191.889872 
L 479.151616 196.512371 
L 479.490024 176.228078 
L 479.828431 196.512371 
L 480.166838 192.682153 
L 480.505246 181.134092 
L 480.843653 192.652071 
L 481.182061 190.19655 
L 481.520468 190.195999 
L 481.858876 191.889872 
L 482.197283 196.512371 
L 482.53569 176.228078 
L 482.874098 192.682153 
L 483.212505 184.238159 
L 483.550913 196.512371 
L 483.88932 184.806263 
L 484.227728 196.512371 
L 484.566135 192.682153 
L 484.904542 181.134092 
L 485.24295 176.228078 
L 485.581357 192.682153 
L 485.919765 192.652071 
L 486.258172 190.195999 
L 486.59658 184.806263 
L 486.934987 192.682153 
L 487.273394 184.238159 
L 487.611802 196.512371 
L 487.950209 192.652071 
L 488.288617 191.889872 
L 488.627024 176.228078 
L 488.965431 196.512371 
L 489.303839 181.134092 
L 489.642246 192.682153 
L 489.980654 192.652071 
L 490.319061 190.19655 
L 490.657469 190.195999 
L 490.995876 191.889872 
L 491.334283 176.228078 
L 491.672691 200.989932 
L 492.349506 192.682153 
L 492.687913 184.238159 
L 493.026321 192.682153 
L 493.364728 192.652071 
L 494.041543 176.228078 
L 494.37995 196.512371 
L 494.718358 181.134092 
L 495.056765 192.652071 
L 495.395173 191.889872 
L 495.73358 176.228078 
L 496.071987 196.512371 
L 496.410395 192.682153 
L 496.748802 184.806263 
L 497.08721 196.512371 
L 497.425617 176.228078 
L 497.764025 192.682153 
L 498.102432 184.238159 
L 498.440839 181.134092 
L 498.779247 192.652071 
L 499.117654 184.806263 
L 499.456062 192.682153 
L 499.794469 176.228078 
L 500.132876 196.512371 
L 500.471284 181.134092 
L 500.809691 192.652071 
L 501.486506 176.228078 
L 501.824914 192.682153 
L 502.163321 192.652071 
L 502.501728 190.19655 
L 502.840136 184.806263 
L 503.178543 196.512371 
L 503.516951 184.238159 
L 503.855358 192.682153 
L 504.193766 176.228078 
L 504.532173 192.682153 
L 504.87058 192.652071 
L 505.208988 190.195999 
L 505.547395 191.889872 
L 505.885803 196.512371 
L 506.22421 176.228078 
L 506.562618 192.682153 
L 506.901025 192.652071 
L 507.239432 191.889872 
L 507.57784 181.134092 
L 507.916247 184.839691 
L 508.254655 196.512371 
L 508.593062 194.825924 
L 508.931469 176.228078 
L 509.269877 196.512371 
L 509.608284 184.238159 
L 509.946692 192.682153 
L 510.285099 192.652071 
L 510.623507 192.219443 
L 510.961914 192.682153 
L 511.300321 176.228078 
L 511.638729 196.512371 
L 511.977136 192.652071 
L 512.315544 184.806263 
L 512.653951 192.682153 
L 513.330766 176.228078 
L 513.669173 196.512371 
L 514.007581 181.134092 
L 514.345988 192.652071 
L 514.684396 186.334636 
L 515.022803 196.512371 
L 515.361211 192.682153 
L 515.699618 176.228078 
L 516.038025 192.682153 
L 516.376433 192.652071 
L 516.71484 184.806263 
L 517.053248 192.682153 
L 517.391655 181.134092 
L 517.730062 192.652071 
L 518.406877 176.228078 
L 518.745285 176.228078 
L 519.083692 196.512371 
L 519.4221 184.238159 
L 519.760507 192.682153 
L 520.098914 192.652071 
L 520.437322 194.825924 
L 520.775729 192.652071 
L 521.114137 186.334636 
L 521.452544 196.512371 
L 521.790952 192.682153 
L 522.129359 176.228078 
L 522.467766 176.228078 
L 522.806174 192.682153 
L 523.144581 192.652071 
L 523.482989 184.806263 
L 523.821396 196.512371 
L 524.159804 181.134092 
L 524.498211 192.652071 
L 524.836618 176.228078 
L 525.513433 192.682153 
L 525.851841 192.652071 
L 526.190248 192.219443 
L 526.528655 192.682153 
L 526.867063 176.228078 
L 527.20547 196.512371 
L 527.543878 181.134092 
L 527.882285 192.652071 
L 528.220693 191.889872 
L 528.5591 176.228078 
L 528.897507 192.682153 
L 529.235915 176.228078 
L 529.574322 196.512371 
L 529.91273 184.839691 
L 530.251137 177.526866 
L 530.589545 192.682153 
L 530.927952 192.652071 
L 531.266359 186.334636 
L 531.604767 196.512371 
L 531.943174 184.238159 
L 532.281582 192.682153 
L 532.619989 192.652071 
L 532.958397 194.825924 
L 533.296804 184.806263 
L 533.635211 196.512371 
L 533.973619 176.228078 
L 534.312026 192.682153 
L 534.650434 192.652071 
L 534.988841 184.806263 
L 535.327248 192.682153 
L 535.665656 181.134092 
L 536.004063 192.652071 
L 536.342471 191.889872 
L 536.680878 196.512371 
L 537.019286 176.228078 
L 537.357693 176.228078 
L 538.034508 192.682153 
L 538.372915 192.652071 
L 538.711323 194.825924 
L 539.04973 184.839691 
L 539.388138 196.512371 
L 539.726545 186.334636 
L 540.064952 196.512371 
L 540.40336 176.228078 
L 540.741767 192.682153 
L 541.080175 192.652071 
L 541.418582 194.825924 
L 541.75699 192.652071 
L 542.095397 192.219443 
L 542.433804 176.228078 
L 542.772212 196.512371 
L 543.110619 176.228078 
L 543.449027 192.682153 
L 543.787434 176.228078 
L 544.125841 181.134092 
L 544.464249 192.652071 
L 544.802656 184.806263 
L 545.141064 196.512371 
L 545.479471 176.228078 
L 545.817879 192.682153 
L 546.156286 176.228078 
L 546.833101 192.682153 
L 547.509916 192.652071 
L 547.848323 184.806263 
L 548.186731 196.512371 
L 548.525138 181.134092 
L 548.863545 176.228078 
L 549.201953 192.682153 
L 549.54036 192.652071 
L 550.217175 176.228078 
L 550.555583 196.512371 
L 550.89399 176.228078 
L 551.232397 176.228078 
L 551.570805 192.682153 
L 551.909212 192.652071 
L 552.24762 186.334636 
L 552.586027 196.512371 
L 552.924434 192.682153 
L 553.262842 192.652071 
L 553.601249 194.825924 
L 553.939657 192.652071 
L 554.278064 194.825924 
L 554.616472 176.228078 
L 554.954879 176.228078 
L 555.293286 196.512371 
L 555.631694 176.228078 
L 556.308509 176.228078 
L 556.646916 192.682153 
L 557.323731 192.652071 
L 557.662138 181.134092 
L 558.000546 184.806263 
L 558.338953 196.512371 
L 558.677361 184.238159 
L 559.015768 192.682153 
L 559.354176 176.228078 
L 559.692583 176.228078 
L 560.03099 196.512371 
L 560.369398 176.228078 
L 560.707805 176.228078 
L 561.046213 192.682153 
L 561.38462 192.652071 
L 562.061435 176.228078 
L 562.73825 176.228078 
L 563.076657 192.682153 
L 563.415065 192.652071 
L 563.753472 186.334636 
L 564.091879 196.512371 
L 564.430287 176.228078 
L 565.107102 176.228078 
L 565.445509 192.682153 
L 566.122324 192.652071 
L 566.460731 184.806263 
L 566.799139 181.134092 
L 567.137546 192.652071 
L 567.475954 184.806263 
L 567.814361 196.512371 
L 568.152769 176.228078 
L 568.829583 176.228078 
L 569.167991 192.682153 
L 569.506398 192.652071 
L 569.844806 184.839691 
L 570.183213 184.238159 
L 570.52162 192.682153 
L 570.860028 192.652071 
L 571.198435 191.889872 
L 571.536843 196.512371 
L 571.87525 194.825924 
L 572.213658 184.806263 
L 572.552065 196.512371 
L 572.890472 176.228078 
L 575.259324 176.228078 
L 575.597732 167.501511 
L 575.936139 196.512371 
L 576.274547 192.682153 
L 576.612954 176.228078 
L 576.951362 176.228078 
L 577.289769 167.501511 
L 577.628176 196.512371 
L 577.966584 176.228078 
L 578.304991 176.228078 
L 578.643399 167.501511 
L 578.981806 192.682153 
L 579.320213 176.228078 
L 579.658621 167.501511 
L 579.997028 196.512371 
L 580.335436 176.228078 
L 580.673843 167.501511 
L 581.012251 192.682153 
L 581.350658 176.228078 
L 581.689065 167.501511 
L 582.027473 192.682153 
L 582.36588 176.228078 
L 582.704288 167.501511 
L 583.042695 176.228078 
L 583.381103 176.228078 
L 583.71951 167.501511 
L 584.057917 176.228078 
L 584.396325 167.501511 
L 584.734732 192.682153 
L 585.07314 176.228078 
L 585.411547 167.501511 
L 585.749955 176.228078 
L 586.088362 167.501511 
L 586.426769 176.228078 
L 586.765177 167.501511 
L 587.103584 176.228078 
L 587.441992 167.501511 
L 587.780399 176.228078 
L 588.118806 167.501511 
L 588.457214 176.228078 
L 588.795621 167.501511 
L 589.134029 176.228078 
L 589.472436 167.501511 
L 589.810844 176.228078 
L 590.149251 167.501511 
L 590.487658 176.228078 
L 590.826066 167.501511 
L 591.164473 167.501511 
L 591.502881 176.228078 
L 591.841288 167.501511 
L 592.179696 167.501511 
L 592.518103 176.228078 
L 592.85651 167.501511 
L 593.194918 167.501511 
L 593.533325 176.228078 
L 593.871733 167.501511 
L 594.21014 167.501511 
L 594.548548 176.228078 
L 594.886955 167.501511 
L 595.225362 167.501511 
L 595.56377 176.228078 
L 595.902177 167.501511 
L 596.240585 167.501511 
L 596.578992 176.228078 
L 596.917399 167.501511 
L 597.255807 167.501511 
L 597.594214 176.228078 
L 597.932622 167.501511 
L 598.609437 167.501511 
L 598.947844 176.228078 
L 599.286251 167.501511 
L 599.963066 167.501511 
L 600.301474 176.228078 
L 600.639881 167.501511 
L 601.316696 167.501511 
L 601.655103 176.228078 
L 601.993511 167.501511 
L 603.008733 167.501511 
L 603.347141 176.228078 
L 603.685548 167.501511 
L 604.70077 167.501511 
L 605.039178 176.228078 
L 605.377585 167.501511 
L 606.731215 167.501511 
L 607.069622 176.228078 
L 607.40803 170.400486 
L 607.746437 176.228078 
L 608.084844 176.228078 
L 608.423252 168.850741 
L 608.761659 196.512371 
L 609.100067 176.228078 
L 609.438474 170.400486 
L 609.776882 192.682153 
L 610.115289 176.228078 
L 610.453696 192.682153 
L 610.792104 168.850741 
L 611.130511 196.512371 
L 611.468919 192.682153 
L 611.807326 170.400486 
L 612.145734 196.512371 
L 612.484141 176.228078 
L 612.822548 192.682153 
L 613.160956 176.228078 
L 613.499363 196.512371 
L 613.837771 168.850741 
L 614.176178 196.512371 
L 614.514585 192.682153 
L 614.852993 176.228078 
L 615.1914 192.682153 
L 615.529808 176.228078 
L 615.868215 196.512371 
L 616.206623 176.228078 
L 616.54503 176.228078 
L 616.883437 192.682153 
L 617.221845 176.228078 
L 617.560252 196.512371 
L 617.89866 170.400486 
L 618.237067 196.512371 
L 618.575475 192.682153 
L 618.913882 176.228078 
L 619.252289 192.682153 
L 619.590697 176.228078 
L 619.929104 176.228078 
L 620.267512 196.512371 
L 620.605919 168.850741 
L 620.944327 196.512371 
L 621.282734 192.682153 
L 621.621141 176.228078 
L 621.959549 192.682153 
L 622.297956 176.228078 
L 622.636364 176.228078 
L 622.636364 176.228078 
" style="fill:none;stroke:#1f77b4;stroke-linecap:square;stroke-width:1.5;"/>
   </g>
   <g id="patch_3">
    <path d="M 90 315 
L 90 43.2 
" style="fill:none;stroke:#000000;stroke-linecap:square;stroke-linejoin:miter;stroke-width:0.8;"/>
   </g>
   <g id="patch_4">
    <path d="M 648 315 
L 648 43.2 
" style="fill:none;stroke:#000000;stroke-linecap:square;stroke-linejoin:miter;stroke-width:0.8;"/>
   </g>
   <g id="patch_5">
    <path d="M 90 315 
L 648 315 
" style="fill:none;stroke:#000000;stroke-linecap:square;stroke-linejoin:miter;stroke-width:0.8;"/>
   </g>
   <g id="patch_6">
    <path d="M 90 43.2 
L 648 43.2 
" style="fill:none;stroke:#000000;stroke-linecap:square;stroke-linejoin:miter;stroke-width:0.8;"/>
   </g>
   <g id="text_19">
    <!-- Episode Reward over Time (Smoothed over window size 1) -->
    <defs>
     <path d="M 2.984375 54.6875 
L 12.5 54.6875 
L 29.59375 8.796875 
L 46.6875 54.6875 
L 56.203125 54.6875 
L 35.6875 0 
L 23.484375 0 
z
" id="DejaVuSans-118"/>
     <path d="M -0.296875 72.90625 
L 61.375 72.90625 
L 61.375 64.59375 
L 35.5 64.59375 
L 35.5 0 
L 25.59375 0 
L 25.59375 64.59375 
L -0.296875 64.59375 
z
" id="DejaVuSans-84"/>
     <path d="M 54.890625 33.015625 
L 54.890625 0 
L 45.90625 0 
L 45.90625 32.71875 
Q 45.90625 40.484375 42.875 44.328125 
Q 39.84375 48.1875 33.796875 48.1875 
Q 26.515625 48.1875 22.3125 43.546875 
Q 18.109375 38.921875 18.109375 30.90625 
L 18.109375 0 
L 9.078125 0 
L 9.078125 54.6875 
L 18.109375 54.6875 
L 18.109375 46.1875 
Q 21.34375 51.125 25.703125 53.5625 
Q 30.078125 56 35.796875 56 
Q 45.21875 56 50.046875 50.171875 
Q 54.890625 44.34375 54.890625 33.015625 
z
" id="DejaVuSans-110"/>
     <path d="M 5.515625 54.6875 
L 48.1875 54.6875 
L 48.1875 46.484375 
L 14.40625 7.171875 
L 48.1875 7.171875 
L 48.1875 0 
L 4.296875 0 
L 4.296875 8.203125 
L 38.09375 47.515625 
L 5.515625 47.515625 
z
" id="DejaVuSans-122"/>
    </defs>
    <g transform="translate(192.289688 37.2)scale(0.12 -0.12)">
     <use xlink:href="#DejaVuSans-69"/>
     <use x="63.183594" xlink:href="#DejaVuSans-112"/>
     <use x="126.660156" xlink:href="#DejaVuSans-105"/>
     <use x="154.443359" xlink:href="#DejaVuSans-115"/>
     <use x="206.542969" xlink:href="#DejaVuSans-111"/>
     <use x="267.724609" xlink:href="#DejaVuSans-100"/>
     <use x="331.201172" xlink:href="#DejaVuSans-101"/>
     <use x="392.724609" xlink:href="#DejaVuSans-32"/>
     <use x="424.511719" xlink:href="#DejaVuSans-82"/>
     <use x="493.931641" xlink:href="#DejaVuSans-101"/>
     <use x="555.455078" xlink:href="#DejaVuSans-119"/>
     <use x="637.242188" xlink:href="#DejaVuSans-97"/>
     <use x="698.521484" xlink:href="#DejaVuSans-114"/>
     <use x="739.619141" xlink:href="#DejaVuSans-100"/>
     <use x="803.095703" xlink:href="#DejaVuSans-32"/>
     <use x="834.882812" xlink:href="#DejaVuSans-111"/>
     <use x="896.064453" xlink:href="#DejaVuSans-118"/>
     <use x="955.244141" xlink:href="#DejaVuSans-101"/>
     <use x="1016.767578" xlink:href="#DejaVuSans-114"/>
     <use x="1057.880859" xlink:href="#DejaVuSans-32"/>
     <use x="1089.667969" xlink:href="#DejaVuSans-84"/>
     <use x="1150.705078" xlink:href="#DejaVuSans-105"/>
     <use x="1178.488281" xlink:href="#DejaVuSans-109"/>
     <use x="1275.900391" xlink:href="#DejaVuSans-101"/>
     <use x="1337.423828" xlink:href="#DejaVuSans-32"/>
     <use x="1369.210938" xlink:href="#DejaVuSans-40"/>
     <use x="1408.224609" xlink:href="#DejaVuSans-83"/>
     <use x="1471.701172" xlink:href="#DejaVuSans-109"/>
     <use x="1569.113281" xlink:href="#DejaVuSans-111"/>
     <use x="1630.294922" xlink:href="#DejaVuSans-111"/>
     <use x="1691.476562" xlink:href="#DejaVuSans-116"/>
     <use x="1730.685547" xlink:href="#DejaVuSans-104"/>
     <use x="1794.064453" xlink:href="#DejaVuSans-101"/>
     <use x="1855.587891" xlink:href="#DejaVuSans-100"/>
     <use x="1919.064453" xlink:href="#DejaVuSans-32"/>
     <use x="1950.851562" xlink:href="#DejaVuSans-111"/>
     <use x="2012.033203" xlink:href="#DejaVuSans-118"/>
     <use x="2071.212891" xlink:href="#DejaVuSans-101"/>
     <use x="2132.736328" xlink:href="#DejaVuSans-114"/>
     <use x="2173.849609" xlink:href="#DejaVuSans-32"/>
     <use x="2205.636719" xlink:href="#DejaVuSans-119"/>
     <use x="2287.423828" xlink:href="#DejaVuSans-105"/>
     <use x="2315.207031" xlink:href="#DejaVuSans-110"/>
     <use x="2378.585938" xlink:href="#DejaVuSans-100"/>
     <use x="2442.0625" xlink:href="#DejaVuSans-111"/>
     <use x="2503.244141" xlink:href="#DejaVuSans-119"/>
     <use x="2585.03125" xlink:href="#DejaVuSans-32"/>
     <use x="2616.818359" xlink:href="#DejaVuSans-115"/>
     <use x="2668.917969" xlink:href="#DejaVuSans-105"/>
     <use x="2696.701172" xlink:href="#DejaVuSans-122"/>
     <use x="2749.191406" xlink:href="#DejaVuSans-101"/>
     <use x="2810.714844" xlink:href="#DejaVuSans-32"/>
     <use x="2842.501953" xlink:href="#DejaVuSans-49"/>
     <use x="2906.125" xlink:href="#DejaVuSans-41"/>
    </g>
   </g>
  </g>
 </g>
 <defs>
  <clipPath id="p37d7d371c8">
   <rect height="271.8" width="558" x="90" y="43.2"/>
  </clipPath>
 </defs>
</svg>
