<?xml version="1.0" encoding="utf-8" standalone="no"?>
<!DOCTYPE svg PUBLIC "-//W3C//DTD SVG 1.1//EN"
  "http://www.w3.org/Graphics/SVG/1.1/DTD/svg11.dtd">
<!-- Created with matplotlib (https://matplotlib.org/) -->
<svg height="360pt" version="1.1" viewBox="0 0 720 360" width="720pt" xmlns="http://www.w3.org/2000/svg" xmlns:xlink="http://www.w3.org/1999/xlink">
 <defs>
  <style type="text/css">
*{stroke-linecap:butt;stroke-linejoin:round;white-space:pre;}
  </style>
 </defs>
 <g id="figure_1">
  <g id="patch_1">
   <path d="M 0 360 
L 720 360 
L 720 0 
L 0 0 
z
" style="fill:#ffffff;"/>
  </g>
  <g id="axes_1">
   <g id="patch_2">
    <path d="M 90 315 
L 648 315 
L 648 43.2 
L 90 43.2 
z
" style="fill:#ffffff;"/>
   </g>
   <g id="matplotlib.axis_1">
    <g id="xtick_1">
     <g id="line2d_1">
      <path clip-path="url(#pf22c7e9ea0)" d="M 115.363636 315 
L 115.363636 43.2 
" style="fill:none;stroke:#b0b0b0;stroke-linecap:square;stroke-width:0.8;"/>
     </g>
     <g id="line2d_2">
      <defs>
       <path d="M 0 0 
L 0 3.5 
" id="m6364efde15" style="stroke:#000000;stroke-width:0.8;"/>
      </defs>
      <g>
       <use style="stroke:#000000;stroke-width:0.8;" x="115.363636" xlink:href="#m6364efde15" y="315"/>
      </g>
     </g>
     <g id="text_1">
      <!-- 0 -->
      <defs>
       <path d="M 31.78125 66.40625 
Q 24.171875 66.40625 20.328125 58.90625 
Q 16.5 51.421875 16.5 36.375 
Q 16.5 21.390625 20.328125 13.890625 
Q 24.171875 6.390625 31.78125 6.390625 
Q 39.453125 6.390625 43.28125 13.890625 
Q 47.125 21.390625 47.125 36.375 
Q 47.125 51.421875 43.28125 58.90625 
Q 39.453125 66.40625 31.78125 66.40625 
z
M 31.78125 74.21875 
Q 44.046875 74.21875 50.515625 64.515625 
Q 56.984375 54.828125 56.984375 36.375 
Q 56.984375 17.96875 50.515625 8.265625 
Q 44.046875 -1.421875 31.78125 -1.421875 
Q 19.53125 -1.421875 13.0625 8.265625 
Q 6.59375 17.96875 6.59375 36.375 
Q 6.59375 54.828125 13.0625 64.515625 
Q 19.53125 74.21875 31.78125 74.21875 
z
" id="DejaVuSans-48"/>
      </defs>
      <g transform="translate(112.182386 329.598437)scale(0.1 -0.1)">
       <use xlink:href="#DejaVuSans-48"/>
      </g>
     </g>
    </g>
    <g id="xtick_2">
     <g id="line2d_3">
      <path clip-path="url(#pf22c7e9ea0)" d="M 183.045121 315 
L 183.045121 43.2 
" style="fill:none;stroke:#b0b0b0;stroke-linecap:square;stroke-width:0.8;"/>
     </g>
     <g id="line2d_4">
      <g>
       <use style="stroke:#000000;stroke-width:0.8;" x="183.045121" xlink:href="#m6364efde15" y="315"/>
      </g>
     </g>
     <g id="text_2">
      <!-- 200 -->
      <defs>
       <path d="M 19.1875 8.296875 
L 53.609375 8.296875 
L 53.609375 0 
L 7.328125 0 
L 7.328125 8.296875 
Q 12.9375 14.109375 22.625 23.890625 
Q 32.328125 33.6875 34.8125 36.53125 
Q 39.546875 41.84375 41.421875 45.53125 
Q 43.3125 49.21875 43.3125 52.78125 
Q 43.3125 58.59375 39.234375 62.25 
Q 35.15625 65.921875 28.609375 65.921875 
Q 23.96875 65.921875 18.8125 64.3125 
Q 13.671875 62.703125 7.8125 59.421875 
L 7.8125 69.390625 
Q 13.765625 71.78125 18.9375 73 
Q 24.125 74.21875 28.421875 74.21875 
Q 39.75 74.21875 46.484375 68.546875 
Q 53.21875 62.890625 53.21875 53.421875 
Q 53.21875 48.921875 51.53125 44.890625 
Q 49.859375 40.875 45.40625 35.40625 
Q 44.1875 33.984375 37.640625 27.21875 
Q 31.109375 20.453125 19.1875 8.296875 
z
" id="DejaVuSans-50"/>
      </defs>
      <g transform="translate(173.501371 329.598437)scale(0.1 -0.1)">
       <use xlink:href="#DejaVuSans-50"/>
       <use x="63.623047" xlink:href="#DejaVuSans-48"/>
       <use x="127.246094" xlink:href="#DejaVuSans-48"/>
      </g>
     </g>
    </g>
    <g id="xtick_3">
     <g id="line2d_5">
      <path clip-path="url(#pf22c7e9ea0)" d="M 250.726606 315 
L 250.726606 43.2 
" style="fill:none;stroke:#b0b0b0;stroke-linecap:square;stroke-width:0.8;"/>
     </g>
     <g id="line2d_6">
      <g>
       <use style="stroke:#000000;stroke-width:0.8;" x="250.726606" xlink:href="#m6364efde15" y="315"/>
      </g>
     </g>
     <g id="text_3">
      <!-- 400 -->
      <defs>
       <path d="M 37.796875 64.3125 
L 12.890625 25.390625 
L 37.796875 25.390625 
z
M 35.203125 72.90625 
L 47.609375 72.90625 
L 47.609375 25.390625 
L 58.015625 25.390625 
L 58.015625 17.1875 
L 47.609375 17.1875 
L 47.609375 0 
L 37.796875 0 
L 37.796875 17.1875 
L 4.890625 17.1875 
L 4.890625 26.703125 
z
" id="DejaVuSans-52"/>
      </defs>
      <g transform="translate(241.182856 329.598437)scale(0.1 -0.1)">
       <use xlink:href="#DejaVuSans-52"/>
       <use x="63.623047" xlink:href="#DejaVuSans-48"/>
       <use x="127.246094" xlink:href="#DejaVuSans-48"/>
      </g>
     </g>
    </g>
    <g id="xtick_4">
     <g id="line2d_7">
      <path clip-path="url(#pf22c7e9ea0)" d="M 318.40809 315 
L 318.40809 43.2 
" style="fill:none;stroke:#b0b0b0;stroke-linecap:square;stroke-width:0.8;"/>
     </g>
     <g id="line2d_8">
      <g>
       <use style="stroke:#000000;stroke-width:0.8;" x="318.40809" xlink:href="#m6364efde15" y="315"/>
      </g>
     </g>
     <g id="text_4">
      <!-- 600 -->
      <defs>
       <path d="M 33.015625 40.375 
Q 26.375 40.375 22.484375 35.828125 
Q 18.609375 31.296875 18.609375 23.390625 
Q 18.609375 15.53125 22.484375 10.953125 
Q 26.375 6.390625 33.015625 6.390625 
Q 39.65625 6.390625 43.53125 10.953125 
Q 47.40625 15.53125 47.40625 23.390625 
Q 47.40625 31.296875 43.53125 35.828125 
Q 39.65625 40.375 33.015625 40.375 
z
M 52.59375 71.296875 
L 52.59375 62.3125 
Q 48.875 64.0625 45.09375 64.984375 
Q 41.3125 65.921875 37.59375 65.921875 
Q 27.828125 65.921875 22.671875 59.328125 
Q 17.53125 52.734375 16.796875 39.40625 
Q 19.671875 43.65625 24.015625 45.921875 
Q 28.375 48.1875 33.59375 48.1875 
Q 44.578125 48.1875 50.953125 41.515625 
Q 57.328125 34.859375 57.328125 23.390625 
Q 57.328125 12.15625 50.6875 5.359375 
Q 44.046875 -1.421875 33.015625 -1.421875 
Q 20.359375 -1.421875 13.671875 8.265625 
Q 6.984375 17.96875 6.984375 36.375 
Q 6.984375 53.65625 15.1875 63.9375 
Q 23.390625 74.21875 37.203125 74.21875 
Q 40.921875 74.21875 44.703125 73.484375 
Q 48.484375 72.75 52.59375 71.296875 
z
" id="DejaVuSans-54"/>
      </defs>
      <g transform="translate(308.86434 329.598437)scale(0.1 -0.1)">
       <use xlink:href="#DejaVuSans-54"/>
       <use x="63.623047" xlink:href="#DejaVuSans-48"/>
       <use x="127.246094" xlink:href="#DejaVuSans-48"/>
      </g>
     </g>
    </g>
    <g id="xtick_5">
     <g id="line2d_9">
      <path clip-path="url(#pf22c7e9ea0)" d="M 386.089575 315 
L 386.089575 43.2 
" style="fill:none;stroke:#b0b0b0;stroke-linecap:square;stroke-width:0.8;"/>
     </g>
     <g id="line2d_10">
      <g>
       <use style="stroke:#000000;stroke-width:0.8;" x="386.089575" xlink:href="#m6364efde15" y="315"/>
      </g>
     </g>
     <g id="text_5">
      <!-- 800 -->
      <defs>
       <path d="M 31.78125 34.625 
Q 24.75 34.625 20.71875 30.859375 
Q 16.703125 27.09375 16.703125 20.515625 
Q 16.703125 13.921875 20.71875 10.15625 
Q 24.75 6.390625 31.78125 6.390625 
Q 38.8125 6.390625 42.859375 10.171875 
Q 46.921875 13.96875 46.921875 20.515625 
Q 46.921875 27.09375 42.890625 30.859375 
Q 38.875 34.625 31.78125 34.625 
z
M 21.921875 38.8125 
Q 15.578125 40.375 12.03125 44.71875 
Q 8.5 49.078125 8.5 55.328125 
Q 8.5 64.0625 14.71875 69.140625 
Q 20.953125 74.21875 31.78125 74.21875 
Q 42.671875 74.21875 48.875 69.140625 
Q 55.078125 64.0625 55.078125 55.328125 
Q 55.078125 49.078125 51.53125 44.71875 
Q 48 40.375 41.703125 38.8125 
Q 48.828125 37.15625 52.796875 32.3125 
Q 56.78125 27.484375 56.78125 20.515625 
Q 56.78125 9.90625 50.3125 4.234375 
Q 43.84375 -1.421875 31.78125 -1.421875 
Q 19.734375 -1.421875 13.25 4.234375 
Q 6.78125 9.90625 6.78125 20.515625 
Q 6.78125 27.484375 10.78125 32.3125 
Q 14.796875 37.15625 21.921875 38.8125 
z
M 18.3125 54.390625 
Q 18.3125 48.734375 21.84375 45.5625 
Q 25.390625 42.390625 31.78125 42.390625 
Q 38.140625 42.390625 41.71875 45.5625 
Q 45.3125 48.734375 45.3125 54.390625 
Q 45.3125 60.0625 41.71875 63.234375 
Q 38.140625 66.40625 31.78125 66.40625 
Q 25.390625 66.40625 21.84375 63.234375 
Q 18.3125 60.0625 18.3125 54.390625 
z
" id="DejaVuSans-56"/>
      </defs>
      <g transform="translate(376.545825 329.598437)scale(0.1 -0.1)">
       <use xlink:href="#DejaVuSans-56"/>
       <use x="63.623047" xlink:href="#DejaVuSans-48"/>
       <use x="127.246094" xlink:href="#DejaVuSans-48"/>
      </g>
     </g>
    </g>
    <g id="xtick_6">
     <g id="line2d_11">
      <path clip-path="url(#pf22c7e9ea0)" d="M 453.771059 315 
L 453.771059 43.2 
" style="fill:none;stroke:#b0b0b0;stroke-linecap:square;stroke-width:0.8;"/>
     </g>
     <g id="line2d_12">
      <g>
       <use style="stroke:#000000;stroke-width:0.8;" x="453.771059" xlink:href="#m6364efde15" y="315"/>
      </g>
     </g>
     <g id="text_6">
      <!-- 1000 -->
      <defs>
       <path d="M 12.40625 8.296875 
L 28.515625 8.296875 
L 28.515625 63.921875 
L 10.984375 60.40625 
L 10.984375 69.390625 
L 28.421875 72.90625 
L 38.28125 72.90625 
L 38.28125 8.296875 
L 54.390625 8.296875 
L 54.390625 0 
L 12.40625 0 
z
" id="DejaVuSans-49"/>
      </defs>
      <g transform="translate(441.046059 329.598437)scale(0.1 -0.1)">
       <use xlink:href="#DejaVuSans-49"/>
       <use x="63.623047" xlink:href="#DejaVuSans-48"/>
       <use x="127.246094" xlink:href="#DejaVuSans-48"/>
       <use x="190.869141" xlink:href="#DejaVuSans-48"/>
      </g>
     </g>
    </g>
    <g id="xtick_7">
     <g id="line2d_13">
      <path clip-path="url(#pf22c7e9ea0)" d="M 521.452544 315 
L 521.452544 43.2 
" style="fill:none;stroke:#b0b0b0;stroke-linecap:square;stroke-width:0.8;"/>
     </g>
     <g id="line2d_14">
      <g>
       <use style="stroke:#000000;stroke-width:0.8;" x="521.452544" xlink:href="#m6364efde15" y="315"/>
      </g>
     </g>
     <g id="text_7">
      <!-- 1200 -->
      <g transform="translate(508.727544 329.598437)scale(0.1 -0.1)">
       <use xlink:href="#DejaVuSans-49"/>
       <use x="63.623047" xlink:href="#DejaVuSans-50"/>
       <use x="127.246094" xlink:href="#DejaVuSans-48"/>
       <use x="190.869141" xlink:href="#DejaVuSans-48"/>
      </g>
     </g>
    </g>
    <g id="xtick_8">
     <g id="line2d_15">
      <path clip-path="url(#pf22c7e9ea0)" d="M 589.134029 315 
L 589.134029 43.2 
" style="fill:none;stroke:#b0b0b0;stroke-linecap:square;stroke-width:0.8;"/>
     </g>
     <g id="line2d_16">
      <g>
       <use style="stroke:#000000;stroke-width:0.8;" x="589.134029" xlink:href="#m6364efde15" y="315"/>
      </g>
     </g>
     <g id="text_8">
      <!-- 1400 -->
      <g transform="translate(576.409029 329.598437)scale(0.1 -0.1)">
       <use xlink:href="#DejaVuSans-49"/>
       <use x="63.623047" xlink:href="#DejaVuSans-52"/>
       <use x="127.246094" xlink:href="#DejaVuSans-48"/>
       <use x="190.869141" xlink:href="#DejaVuSans-48"/>
      </g>
     </g>
    </g>
    <g id="text_9">
     <!-- Episode -->
     <defs>
      <path d="M 9.8125 72.90625 
L 55.90625 72.90625 
L 55.90625 64.59375 
L 19.671875 64.59375 
L 19.671875 43.015625 
L 54.390625 43.015625 
L 54.390625 34.71875 
L 19.671875 34.71875 
L 19.671875 8.296875 
L 56.78125 8.296875 
L 56.78125 0 
L 9.8125 0 
z
" id="DejaVuSans-69"/>
      <path d="M 18.109375 8.203125 
L 18.109375 -20.796875 
L 9.078125 -20.796875 
L 9.078125 54.6875 
L 18.109375 54.6875 
L 18.109375 46.390625 
Q 20.953125 51.265625 25.265625 53.625 
Q 29.59375 56 35.59375 56 
Q 45.5625 56 51.78125 48.09375 
Q 58.015625 40.1875 58.015625 27.296875 
Q 58.015625 14.40625 51.78125 6.484375 
Q 45.5625 -1.421875 35.59375 -1.421875 
Q 29.59375 -1.421875 25.265625 0.953125 
Q 20.953125 3.328125 18.109375 8.203125 
z
M 48.6875 27.296875 
Q 48.6875 37.203125 44.609375 42.84375 
Q 40.53125 48.484375 33.40625 48.484375 
Q 26.265625 48.484375 22.1875 42.84375 
Q 18.109375 37.203125 18.109375 27.296875 
Q 18.109375 17.390625 22.1875 11.75 
Q 26.265625 6.109375 33.40625 6.109375 
Q 40.53125 6.109375 44.609375 11.75 
Q 48.6875 17.390625 48.6875 27.296875 
z
" id="DejaVuSans-112"/>
      <path d="M 9.421875 54.6875 
L 18.40625 54.6875 
L 18.40625 0 
L 9.421875 0 
z
M 9.421875 75.984375 
L 18.40625 75.984375 
L 18.40625 64.59375 
L 9.421875 64.59375 
z
" id="DejaVuSans-105"/>
      <path d="M 44.28125 53.078125 
L 44.28125 44.578125 
Q 40.484375 46.53125 36.375 47.5 
Q 32.28125 48.484375 27.875 48.484375 
Q 21.1875 48.484375 17.84375 46.4375 
Q 14.5 44.390625 14.5 40.28125 
Q 14.5 37.15625 16.890625 35.375 
Q 19.28125 33.59375 26.515625 31.984375 
L 29.59375 31.296875 
Q 39.15625 29.25 43.1875 25.515625 
Q 47.21875 21.78125 47.21875 15.09375 
Q 47.21875 7.46875 41.1875 3.015625 
Q 35.15625 -1.421875 24.609375 -1.421875 
Q 20.21875 -1.421875 15.453125 -0.5625 
Q 10.6875 0.296875 5.421875 2 
L 5.421875 11.28125 
Q 10.40625 8.6875 15.234375 7.390625 
Q 20.0625 6.109375 24.8125 6.109375 
Q 31.15625 6.109375 34.5625 8.28125 
Q 37.984375 10.453125 37.984375 14.40625 
Q 37.984375 18.0625 35.515625 20.015625 
Q 33.0625 21.96875 24.703125 23.78125 
L 21.578125 24.515625 
Q 13.234375 26.265625 9.515625 29.90625 
Q 5.8125 33.546875 5.8125 39.890625 
Q 5.8125 47.609375 11.28125 51.796875 
Q 16.75 56 26.8125 56 
Q 31.78125 56 36.171875 55.265625 
Q 40.578125 54.546875 44.28125 53.078125 
z
" id="DejaVuSans-115"/>
      <path d="M 30.609375 48.390625 
Q 23.390625 48.390625 19.1875 42.75 
Q 14.984375 37.109375 14.984375 27.296875 
Q 14.984375 17.484375 19.15625 11.84375 
Q 23.34375 6.203125 30.609375 6.203125 
Q 37.796875 6.203125 41.984375 11.859375 
Q 46.1875 17.53125 46.1875 27.296875 
Q 46.1875 37.015625 41.984375 42.703125 
Q 37.796875 48.390625 30.609375 48.390625 
z
M 30.609375 56 
Q 42.328125 56 49.015625 48.375 
Q 55.71875 40.765625 55.71875 27.296875 
Q 55.71875 13.875 49.015625 6.21875 
Q 42.328125 -1.421875 30.609375 -1.421875 
Q 18.84375 -1.421875 12.171875 6.21875 
Q 5.515625 13.875 5.515625 27.296875 
Q 5.515625 40.765625 12.171875 48.375 
Q 18.84375 56 30.609375 56 
z
" id="DejaVuSans-111"/>
      <path d="M 45.40625 46.390625 
L 45.40625 75.984375 
L 54.390625 75.984375 
L 54.390625 0 
L 45.40625 0 
L 45.40625 8.203125 
Q 42.578125 3.328125 38.25 0.953125 
Q 33.9375 -1.421875 27.875 -1.421875 
Q 17.96875 -1.421875 11.734375 6.484375 
Q 5.515625 14.40625 5.515625 27.296875 
Q 5.515625 40.1875 11.734375 48.09375 
Q 17.96875 56 27.875 56 
Q 33.9375 56 38.25 53.625 
Q 42.578125 51.265625 45.40625 46.390625 
z
M 14.796875 27.296875 
Q 14.796875 17.390625 18.875 11.75 
Q 22.953125 6.109375 30.078125 6.109375 
Q 37.203125 6.109375 41.296875 11.75 
Q 45.40625 17.390625 45.40625 27.296875 
Q 45.40625 37.203125 41.296875 42.84375 
Q 37.203125 48.484375 30.078125 48.484375 
Q 22.953125 48.484375 18.875 42.84375 
Q 14.796875 37.203125 14.796875 27.296875 
z
" id="DejaVuSans-100"/>
      <path d="M 56.203125 29.59375 
L 56.203125 25.203125 
L 14.890625 25.203125 
Q 15.484375 15.921875 20.484375 11.0625 
Q 25.484375 6.203125 34.421875 6.203125 
Q 39.59375 6.203125 44.453125 7.46875 
Q 49.3125 8.734375 54.109375 11.28125 
L 54.109375 2.78125 
Q 49.265625 0.734375 44.1875 -0.34375 
Q 39.109375 -1.421875 33.890625 -1.421875 
Q 20.796875 -1.421875 13.15625 6.1875 
Q 5.515625 13.8125 5.515625 26.8125 
Q 5.515625 40.234375 12.765625 48.109375 
Q 20.015625 56 32.328125 56 
Q 43.359375 56 49.78125 48.890625 
Q 56.203125 41.796875 56.203125 29.59375 
z
M 47.21875 32.234375 
Q 47.125 39.59375 43.09375 43.984375 
Q 39.0625 48.390625 32.421875 48.390625 
Q 24.90625 48.390625 20.390625 44.140625 
Q 15.875 39.890625 15.1875 32.171875 
z
" id="DejaVuSans-101"/>
     </defs>
     <g transform="translate(349.3625 343.276563)scale(0.1 -0.1)">
      <use xlink:href="#DejaVuSans-69"/>
      <use x="63.183594" xlink:href="#DejaVuSans-112"/>
      <use x="126.660156" xlink:href="#DejaVuSans-105"/>
      <use x="154.443359" xlink:href="#DejaVuSans-115"/>
      <use x="206.542969" xlink:href="#DejaVuSans-111"/>
      <use x="267.724609" xlink:href="#DejaVuSans-100"/>
      <use x="331.201172" xlink:href="#DejaVuSans-101"/>
     </g>
    </g>
   </g>
   <g id="matplotlib.axis_2">
    <g id="ytick_1">
     <g id="line2d_17">
      <path clip-path="url(#pf22c7e9ea0)" d="M 90 291.417152 
L 648 291.417152 
" style="fill:none;stroke:#b0b0b0;stroke-linecap:square;stroke-width:0.8;"/>
     </g>
     <g id="line2d_18">
      <defs>
       <path d="M 0 0 
L -3.5 0 
" id="m536d1c3b37" style="stroke:#000000;stroke-width:0.8;"/>
      </defs>
      <g>
       <use style="stroke:#000000;stroke-width:0.8;" x="90" xlink:href="#m536d1c3b37" y="291.417152"/>
      </g>
     </g>
     <g id="text_10">
      <!-- −2.75 -->
      <defs>
       <path d="M 10.59375 35.5 
L 73.1875 35.5 
L 73.1875 27.203125 
L 10.59375 27.203125 
z
" id="DejaVuSans-8722"/>
       <path d="M 10.6875 12.40625 
L 21 12.40625 
L 21 0 
L 10.6875 0 
z
" id="DejaVuSans-46"/>
       <path d="M 8.203125 72.90625 
L 55.078125 72.90625 
L 55.078125 68.703125 
L 28.609375 0 
L 18.3125 0 
L 43.21875 64.59375 
L 8.203125 64.59375 
z
" id="DejaVuSans-55"/>
       <path d="M 10.796875 72.90625 
L 49.515625 72.90625 
L 49.515625 64.59375 
L 19.828125 64.59375 
L 19.828125 46.734375 
Q 21.96875 47.46875 24.109375 47.828125 
Q 26.265625 48.1875 28.421875 48.1875 
Q 40.625 48.1875 47.75 41.5 
Q 54.890625 34.8125 54.890625 23.390625 
Q 54.890625 11.625 47.5625 5.09375 
Q 40.234375 -1.421875 26.90625 -1.421875 
Q 22.3125 -1.421875 17.546875 -0.640625 
Q 12.796875 0.140625 7.71875 1.703125 
L 7.71875 11.625 
Q 12.109375 9.234375 16.796875 8.0625 
Q 21.484375 6.890625 26.703125 6.890625 
Q 35.15625 6.890625 40.078125 11.328125 
Q 45.015625 15.765625 45.015625 23.390625 
Q 45.015625 31 40.078125 35.4375 
Q 35.15625 39.890625 26.703125 39.890625 
Q 22.75 39.890625 18.8125 39.015625 
Q 14.890625 38.140625 10.796875 36.28125 
z
" id="DejaVuSans-53"/>
      </defs>
      <g transform="translate(52.354687 295.21637)scale(0.1 -0.1)">
       <use xlink:href="#DejaVuSans-8722"/>
       <use x="83.789062" xlink:href="#DejaVuSans-50"/>
       <use x="147.412109" xlink:href="#DejaVuSans-46"/>
       <use x="179.199219" xlink:href="#DejaVuSans-55"/>
       <use x="242.822266" xlink:href="#DejaVuSans-53"/>
      </g>
     </g>
    </g>
    <g id="ytick_2">
     <g id="line2d_19">
      <path clip-path="url(#pf22c7e9ea0)" d="M 90 254.748605 
L 648 254.748605 
" style="fill:none;stroke:#b0b0b0;stroke-linecap:square;stroke-width:0.8;"/>
     </g>
     <g id="line2d_20">
      <g>
       <use style="stroke:#000000;stroke-width:0.8;" x="90" xlink:href="#m536d1c3b37" y="254.748605"/>
      </g>
     </g>
     <g id="text_11">
      <!-- −2.50 -->
      <g transform="translate(52.354687 258.547824)scale(0.1 -0.1)">
       <use xlink:href="#DejaVuSans-8722"/>
       <use x="83.789062" xlink:href="#DejaVuSans-50"/>
       <use x="147.412109" xlink:href="#DejaVuSans-46"/>
       <use x="179.199219" xlink:href="#DejaVuSans-53"/>
       <use x="242.822266" xlink:href="#DejaVuSans-48"/>
      </g>
     </g>
    </g>
    <g id="ytick_3">
     <g id="line2d_21">
      <path clip-path="url(#pf22c7e9ea0)" d="M 90 218.080059 
L 648 218.080059 
" style="fill:none;stroke:#b0b0b0;stroke-linecap:square;stroke-width:0.8;"/>
     </g>
     <g id="line2d_22">
      <g>
       <use style="stroke:#000000;stroke-width:0.8;" x="90" xlink:href="#m536d1c3b37" y="218.080059"/>
      </g>
     </g>
     <g id="text_12">
      <!-- −2.25 -->
      <g transform="translate(52.354687 221.879278)scale(0.1 -0.1)">
       <use xlink:href="#DejaVuSans-8722"/>
       <use x="83.789062" xlink:href="#DejaVuSans-50"/>
       <use x="147.412109" xlink:href="#DejaVuSans-46"/>
       <use x="179.199219" xlink:href="#DejaVuSans-50"/>
       <use x="242.822266" xlink:href="#DejaVuSans-53"/>
      </g>
     </g>
    </g>
    <g id="ytick_4">
     <g id="line2d_23">
      <path clip-path="url(#pf22c7e9ea0)" d="M 90 181.411512 
L 648 181.411512 
" style="fill:none;stroke:#b0b0b0;stroke-linecap:square;stroke-width:0.8;"/>
     </g>
     <g id="line2d_24">
      <g>
       <use style="stroke:#000000;stroke-width:0.8;" x="90" xlink:href="#m536d1c3b37" y="181.411512"/>
      </g>
     </g>
     <g id="text_13">
      <!-- −2.00 -->
      <g transform="translate(52.354687 185.210731)scale(0.1 -0.1)">
       <use xlink:href="#DejaVuSans-8722"/>
       <use x="83.789062" xlink:href="#DejaVuSans-50"/>
       <use x="147.412109" xlink:href="#DejaVuSans-46"/>
       <use x="179.199219" xlink:href="#DejaVuSans-48"/>
       <use x="242.822266" xlink:href="#DejaVuSans-48"/>
      </g>
     </g>
    </g>
    <g id="ytick_5">
     <g id="line2d_25">
      <path clip-path="url(#pf22c7e9ea0)" d="M 90 144.742966 
L 648 144.742966 
" style="fill:none;stroke:#b0b0b0;stroke-linecap:square;stroke-width:0.8;"/>
     </g>
     <g id="line2d_26">
      <g>
       <use style="stroke:#000000;stroke-width:0.8;" x="90" xlink:href="#m536d1c3b37" y="144.742966"/>
      </g>
     </g>
     <g id="text_14">
      <!-- −1.75 -->
      <g transform="translate(52.354687 148.542185)scale(0.1 -0.1)">
       <use xlink:href="#DejaVuSans-8722"/>
       <use x="83.789062" xlink:href="#DejaVuSans-49"/>
       <use x="147.412109" xlink:href="#DejaVuSans-46"/>
       <use x="179.199219" xlink:href="#DejaVuSans-55"/>
       <use x="242.822266" xlink:href="#DejaVuSans-53"/>
      </g>
     </g>
    </g>
    <g id="ytick_6">
     <g id="line2d_27">
      <path clip-path="url(#pf22c7e9ea0)" d="M 90 108.07442 
L 648 108.07442 
" style="fill:none;stroke:#b0b0b0;stroke-linecap:square;stroke-width:0.8;"/>
     </g>
     <g id="line2d_28">
      <g>
       <use style="stroke:#000000;stroke-width:0.8;" x="90" xlink:href="#m536d1c3b37" y="108.07442"/>
      </g>
     </g>
     <g id="text_15">
      <!-- −1.50 -->
      <g transform="translate(52.354687 111.873638)scale(0.1 -0.1)">
       <use xlink:href="#DejaVuSans-8722"/>
       <use x="83.789062" xlink:href="#DejaVuSans-49"/>
       <use x="147.412109" xlink:href="#DejaVuSans-46"/>
       <use x="179.199219" xlink:href="#DejaVuSans-53"/>
       <use x="242.822266" xlink:href="#DejaVuSans-48"/>
      </g>
     </g>
    </g>
    <g id="ytick_7">
     <g id="line2d_29">
      <path clip-path="url(#pf22c7e9ea0)" d="M 90 71.405873 
L 648 71.405873 
" style="fill:none;stroke:#b0b0b0;stroke-linecap:square;stroke-width:0.8;"/>
     </g>
     <g id="line2d_30">
      <g>
       <use style="stroke:#000000;stroke-width:0.8;" x="90" xlink:href="#m536d1c3b37" y="71.405873"/>
      </g>
     </g>
     <g id="text_16">
      <!-- −1.25 -->
      <g transform="translate(52.354687 75.205092)scale(0.1 -0.1)">
       <use xlink:href="#DejaVuSans-8722"/>
       <use x="83.789062" xlink:href="#DejaVuSans-49"/>
       <use x="147.412109" xlink:href="#DejaVuSans-46"/>
       <use x="179.199219" xlink:href="#DejaVuSans-50"/>
       <use x="242.822266" xlink:href="#DejaVuSans-53"/>
      </g>
     </g>
    </g>
    <g id="text_17">
     <!-- Episode Reward (Smoothed) -->
     <defs>
      <path id="DejaVuSans-32"/>
      <path d="M 44.390625 34.1875 
Q 47.5625 33.109375 50.5625 29.59375 
Q 53.5625 26.078125 56.59375 19.921875 
L 66.609375 0 
L 56 0 
L 46.6875 18.703125 
Q 43.0625 26.03125 39.671875 28.421875 
Q 36.28125 30.8125 30.421875 30.8125 
L 19.671875 30.8125 
L 19.671875 0 
L 9.8125 0 
L 9.8125 72.90625 
L 32.078125 72.90625 
Q 44.578125 72.90625 50.734375 67.671875 
Q 56.890625 62.453125 56.890625 51.90625 
Q 56.890625 45.015625 53.6875 40.46875 
Q 50.484375 35.9375 44.390625 34.1875 
z
M 19.671875 64.796875 
L 19.671875 38.921875 
L 32.078125 38.921875 
Q 39.203125 38.921875 42.84375 42.21875 
Q 46.484375 45.515625 46.484375 51.90625 
Q 46.484375 58.296875 42.84375 61.546875 
Q 39.203125 64.796875 32.078125 64.796875 
z
" id="DejaVuSans-82"/>
      <path d="M 4.203125 54.6875 
L 13.1875 54.6875 
L 24.421875 12.015625 
L 35.59375 54.6875 
L 46.1875 54.6875 
L 57.421875 12.015625 
L 68.609375 54.6875 
L 77.59375 54.6875 
L 63.28125 0 
L 52.6875 0 
L 40.921875 44.828125 
L 29.109375 0 
L 18.5 0 
z
" id="DejaVuSans-119"/>
      <path d="M 34.28125 27.484375 
Q 23.390625 27.484375 19.1875 25 
Q 14.984375 22.515625 14.984375 16.5 
Q 14.984375 11.71875 18.140625 8.90625 
Q 21.296875 6.109375 26.703125 6.109375 
Q 34.1875 6.109375 38.703125 11.40625 
Q 43.21875 16.703125 43.21875 25.484375 
L 43.21875 27.484375 
z
M 52.203125 31.203125 
L 52.203125 0 
L 43.21875 0 
L 43.21875 8.296875 
Q 40.140625 3.328125 35.546875 0.953125 
Q 30.953125 -1.421875 24.3125 -1.421875 
Q 15.921875 -1.421875 10.953125 3.296875 
Q 6 8.015625 6 15.921875 
Q 6 25.140625 12.171875 29.828125 
Q 18.359375 34.515625 30.609375 34.515625 
L 43.21875 34.515625 
L 43.21875 35.40625 
Q 43.21875 41.609375 39.140625 45 
Q 35.0625 48.390625 27.6875 48.390625 
Q 23 48.390625 18.546875 47.265625 
Q 14.109375 46.140625 10.015625 43.890625 
L 10.015625 52.203125 
Q 14.9375 54.109375 19.578125 55.046875 
Q 24.21875 56 28.609375 56 
Q 40.484375 56 46.34375 49.84375 
Q 52.203125 43.703125 52.203125 31.203125 
z
" id="DejaVuSans-97"/>
      <path d="M 41.109375 46.296875 
Q 39.59375 47.171875 37.8125 47.578125 
Q 36.03125 48 33.890625 48 
Q 26.265625 48 22.1875 43.046875 
Q 18.109375 38.09375 18.109375 28.8125 
L 18.109375 0 
L 9.078125 0 
L 9.078125 54.6875 
L 18.109375 54.6875 
L 18.109375 46.1875 
Q 20.953125 51.171875 25.484375 53.578125 
Q 30.03125 56 36.53125 56 
Q 37.453125 56 38.578125 55.875 
Q 39.703125 55.765625 41.0625 55.515625 
z
" id="DejaVuSans-114"/>
      <path d="M 31 75.875 
Q 24.46875 64.65625 21.28125 53.65625 
Q 18.109375 42.671875 18.109375 31.390625 
Q 18.109375 20.125 21.3125 9.0625 
Q 24.515625 -2 31 -13.1875 
L 23.1875 -13.1875 
Q 15.875 -1.703125 12.234375 9.375 
Q 8.59375 20.453125 8.59375 31.390625 
Q 8.59375 42.28125 12.203125 53.3125 
Q 15.828125 64.359375 23.1875 75.875 
z
" id="DejaVuSans-40"/>
      <path d="M 53.515625 70.515625 
L 53.515625 60.890625 
Q 47.90625 63.578125 42.921875 64.890625 
Q 37.9375 66.21875 33.296875 66.21875 
Q 25.25 66.21875 20.875 63.09375 
Q 16.5 59.96875 16.5 54.203125 
Q 16.5 49.359375 19.40625 46.890625 
Q 22.3125 44.4375 30.421875 42.921875 
L 36.375 41.703125 
Q 47.40625 39.59375 52.65625 34.296875 
Q 57.90625 29 57.90625 20.125 
Q 57.90625 9.515625 50.796875 4.046875 
Q 43.703125 -1.421875 29.984375 -1.421875 
Q 24.8125 -1.421875 18.96875 -0.25 
Q 13.140625 0.921875 6.890625 3.21875 
L 6.890625 13.375 
Q 12.890625 10.015625 18.65625 8.296875 
Q 24.421875 6.59375 29.984375 6.59375 
Q 38.421875 6.59375 43.015625 9.90625 
Q 47.609375 13.234375 47.609375 19.390625 
Q 47.609375 24.75 44.3125 27.78125 
Q 41.015625 30.8125 33.5 32.328125 
L 27.484375 33.5 
Q 16.453125 35.6875 11.515625 40.375 
Q 6.59375 45.0625 6.59375 53.421875 
Q 6.59375 63.09375 13.40625 68.65625 
Q 20.21875 74.21875 32.171875 74.21875 
Q 37.3125 74.21875 42.625 73.28125 
Q 47.953125 72.359375 53.515625 70.515625 
z
" id="DejaVuSans-83"/>
      <path d="M 52 44.1875 
Q 55.375 50.25 60.0625 53.125 
Q 64.75 56 71.09375 56 
Q 79.640625 56 84.28125 50.015625 
Q 88.921875 44.046875 88.921875 33.015625 
L 88.921875 0 
L 79.890625 0 
L 79.890625 32.71875 
Q 79.890625 40.578125 77.09375 44.375 
Q 74.3125 48.1875 68.609375 48.1875 
Q 61.625 48.1875 57.5625 43.546875 
Q 53.515625 38.921875 53.515625 30.90625 
L 53.515625 0 
L 44.484375 0 
L 44.484375 32.71875 
Q 44.484375 40.625 41.703125 44.40625 
Q 38.921875 48.1875 33.109375 48.1875 
Q 26.21875 48.1875 22.15625 43.53125 
Q 18.109375 38.875 18.109375 30.90625 
L 18.109375 0 
L 9.078125 0 
L 9.078125 54.6875 
L 18.109375 54.6875 
L 18.109375 46.1875 
Q 21.1875 51.21875 25.484375 53.609375 
Q 29.78125 56 35.6875 56 
Q 41.65625 56 45.828125 52.96875 
Q 50 49.953125 52 44.1875 
z
" id="DejaVuSans-109"/>
      <path d="M 18.3125 70.21875 
L 18.3125 54.6875 
L 36.8125 54.6875 
L 36.8125 47.703125 
L 18.3125 47.703125 
L 18.3125 18.015625 
Q 18.3125 11.328125 20.140625 9.421875 
Q 21.96875 7.515625 27.59375 7.515625 
L 36.8125 7.515625 
L 36.8125 0 
L 27.59375 0 
Q 17.1875 0 13.234375 3.875 
Q 9.28125 7.765625 9.28125 18.015625 
L 9.28125 47.703125 
L 2.6875 47.703125 
L 2.6875 54.6875 
L 9.28125 54.6875 
L 9.28125 70.21875 
z
" id="DejaVuSans-116"/>
      <path d="M 54.890625 33.015625 
L 54.890625 0 
L 45.90625 0 
L 45.90625 32.71875 
Q 45.90625 40.484375 42.875 44.328125 
Q 39.84375 48.1875 33.796875 48.1875 
Q 26.515625 48.1875 22.3125 43.546875 
Q 18.109375 38.921875 18.109375 30.90625 
L 18.109375 0 
L 9.078125 0 
L 9.078125 75.984375 
L 18.109375 75.984375 
L 18.109375 46.1875 
Q 21.34375 51.125 25.703125 53.5625 
Q 30.078125 56 35.796875 56 
Q 45.21875 56 50.046875 50.171875 
Q 54.890625 44.34375 54.890625 33.015625 
z
" id="DejaVuSans-104"/>
      <path d="M 8.015625 75.875 
L 15.828125 75.875 
Q 23.140625 64.359375 26.78125 53.3125 
Q 30.421875 42.28125 30.421875 31.390625 
Q 30.421875 20.453125 26.78125 9.375 
Q 23.140625 -1.703125 15.828125 -13.1875 
L 8.015625 -13.1875 
Q 14.5 -2 17.703125 9.0625 
Q 20.90625 20.125 20.90625 31.390625 
Q 20.90625 42.671875 17.703125 53.65625 
Q 14.5 64.65625 8.015625 75.875 
z
" id="DejaVuSans-41"/>
     </defs>
     <g transform="translate(46.275 250.289844)rotate(-90)scale(0.1 -0.1)">
      <use xlink:href="#DejaVuSans-69"/>
      <use x="63.183594" xlink:href="#DejaVuSans-112"/>
      <use x="126.660156" xlink:href="#DejaVuSans-105"/>
      <use x="154.443359" xlink:href="#DejaVuSans-115"/>
      <use x="206.542969" xlink:href="#DejaVuSans-111"/>
      <use x="267.724609" xlink:href="#DejaVuSans-100"/>
      <use x="331.201172" xlink:href="#DejaVuSans-101"/>
      <use x="392.724609" xlink:href="#DejaVuSans-32"/>
      <use x="424.511719" xlink:href="#DejaVuSans-82"/>
      <use x="493.931641" xlink:href="#DejaVuSans-101"/>
      <use x="555.455078" xlink:href="#DejaVuSans-119"/>
      <use x="637.242188" xlink:href="#DejaVuSans-97"/>
      <use x="698.521484" xlink:href="#DejaVuSans-114"/>
      <use x="739.619141" xlink:href="#DejaVuSans-100"/>
      <use x="803.095703" xlink:href="#DejaVuSans-32"/>
      <use x="834.882812" xlink:href="#DejaVuSans-40"/>
      <use x="873.896484" xlink:href="#DejaVuSans-83"/>
      <use x="937.373047" xlink:href="#DejaVuSans-109"/>
      <use x="1034.785156" xlink:href="#DejaVuSans-111"/>
      <use x="1095.966797" xlink:href="#DejaVuSans-111"/>
      <use x="1157.148438" xlink:href="#DejaVuSans-116"/>
      <use x="1196.357422" xlink:href="#DejaVuSans-104"/>
      <use x="1259.736328" xlink:href="#DejaVuSans-101"/>
      <use x="1321.259766" xlink:href="#DejaVuSans-100"/>
      <use x="1384.736328" xlink:href="#DejaVuSans-41"/>
     </g>
    </g>
   </g>
   <g id="line2d_31">
    <path clip-path="url(#pf22c7e9ea0)" d="M 115.363636 194.6049 
L 115.702044 190.351375 
L 116.040451 109.772174 
L 116.378859 198.501298 
L 116.717266 180.40256 
L 117.055673 241.57291 
L 117.394081 198.641791 
L 117.732488 230.863517 
L 118.070896 205.546743 
L 118.409303 192.143143 
L 118.747711 242.469414 
L 119.086118 258.651013 
L 119.424525 104.105009 
L 120.439748 79.304907 
L 120.778155 92.418971 
L 121.116563 302.645455 
L 121.45497 211.720265 
L 121.793377 197.635891 
L 122.131785 214.406597 
L 122.470192 196.113555 
L 122.8086 208.639381 
L 123.147007 202.411508 
L 123.485415 205.376649 
L 123.823822 232.452194 
L 124.162229 198.344066 
L 124.500637 196.184292 
L 124.839044 189.940888 
L 125.515859 234.305019 
L 125.854266 209.948731 
L 126.192674 201.193382 
L 126.531081 197.196867 
L 126.869489 187.581455 
L 127.207896 207.225504 
L 127.546304 172.676547 
L 127.884711 197.901928 
L 128.223118 180.536292 
L 128.561526 205.434136 
L 128.899933 157.054501 
L 129.238341 209.044313 
L 129.576748 197.69248 
L 129.915156 210.488668 
L 130.253563 210.920687 
L 130.59197 215.897732 
L 130.930378 225.538071 
L 131.268785 188.449698 
L 131.607193 194.552766 
L 131.9456 230.071265 
L 132.284008 190.988528 
L 132.622415 196.896624 
L 132.960822 196.793261 
L 133.29923 199.077763 
L 133.637637 192.004273 
L 133.976045 165.011033 
L 134.314452 180.880567 
L 134.652859 230.852437 
L 134.991267 188.755776 
L 135.329674 203.436672 
L 135.668082 189.746023 
L 136.006489 202.754152 
L 136.344897 223.061767 
L 136.683304 231.603776 
L 137.021711 199.482832 
L 137.360119 201.761041 
L 137.698526 176.88387 
L 138.036934 191.277781 
L 138.375341 190.982422 
L 138.713749 171.402122 
L 139.052156 182.432265 
L 139.390563 206.335932 
L 139.728971 203.519305 
L 140.405786 243.745834 
L 140.744193 222.007013 
L 141.082601 191.209013 
L 141.421008 224.54396 
L 141.759415 197.820112 
L 142.097823 204.282327 
L 142.43623 202.406365 
L 142.774638 196.446683 
L 143.113045 205.383834 
L 143.451452 225.284208 
L 143.78986 199.776535 
L 144.128267 202.358478 
L 144.466675 200.976966 
L 144.805082 229.448141 
L 145.14349 191.856996 
L 145.481897 185.666491 
L 145.820304 232.642428 
L 146.158712 69.589185 
L 146.497119 102.181318 
L 146.835527 97.334327 
L 147.173934 123.076189 
L 147.512342 122.016812 
L 147.850749 103.702436 
L 148.189156 124.193988 
L 148.527564 122.016831 
L 148.865971 95.857365 
L 149.204379 119.18328 
L 149.542786 103.005719 
L 149.881194 109.311685 
L 150.219601 112.874541 
L 150.558008 112.859349 
L 150.896416 116.3495 
L 151.234823 108.251408 
L 151.573231 119.183165 
L 151.911638 105.224135 
L 152.250045 116.349527 
L 152.92686 112.801083 
L 153.265268 116.3495 
L 153.603675 113.920932 
L 153.942083 102.525821 
L 154.28049 115.693041 
L 154.618897 106.481148 
L 154.957305 118.526904 
L 155.295712 113.515972 
L 155.63412 101.869398 
L 155.972527 103.240618 
L 156.310935 111.085179 
L 156.649342 107.595029 
L 156.987749 116.349667 
L 157.326157 96.85858 
L 157.664564 115.739925 
L 158.002972 113.515949 
L 158.679787 92.771661 
L 159.018194 115.693129 
L 159.356601 106.074386 
L 159.695009 110.025851 
L 160.033416 96.918557 
L 160.371824 95.857631 
L 160.710231 91.821387 
L 161.048638 108.251749 
L 161.725453 113.516008 
L 162.402268 87.773229 
L 162.740676 86.012653 
L 163.079083 119.18328 
L 163.41749 118.526855 
L 163.755898 82.814136 
L 164.094305 121.360505 
L 164.77112 97.976299 
L 165.109528 103.702095 
L 165.447935 91.65784 
L 165.786342 113.516002 
L 166.12475 111.741726 
L 166.463157 79.512125 
L 166.801565 89.07408 
L 167.139972 79.512125 
L 167.47838 82.753791 
L 167.816787 78.857887 
L 168.155194 79.548335 
L 168.493602 88.049332 
L 168.832009 88.049332 
L 169.170417 96.516126 
L 169.508824 93.427416 
L 169.847231 94.740244 
L 170.185639 86.049844 
L 170.524046 88.013122 
L 170.862454 82.348122 
L 171.200861 88.014699 
L 171.539269 75.312543 
L 171.877676 84.936222 
L 172.554491 69.314959 
L 172.892898 64.051308 
L 173.569713 93.091506 
L 173.908121 72.148557 
L 174.584935 105.015525 
L 174.923343 69.316517 
L 175.26175 71.472565 
L 175.600158 72.15011 
L 175.938565 74.250269 
L 176.276973 62.967496 
L 176.61538 73.214275 
L 176.953787 67.806022 
L 177.292195 65.223974 
L 177.630602 65.141414 
L 177.96901 79.512383 
L 178.307417 72.15011 
L 178.645824 73.267909 
L 178.984232 81.676262 
L 179.322639 105.015525 
L 179.661047 72.15011 
L 179.999454 89.110463 
L 180.337862 89.110463 
L 181.014676 63.93617 
L 181.353084 79.6346 
L 181.691491 76.288667 
L 182.029899 74.904176 
L 182.368306 65.410969 
L 182.706714 70.346985 
L 183.045121 70.434645 
L 183.383528 66.060851 
L 183.721936 89.537411 
L 184.060343 90.867033 
L 184.398751 63.286118 
L 184.737158 69.344611 
L 185.075566 107.192705 
L 185.413973 58.691935 
L 185.75238 66.679251 
L 186.090788 64.92368 
L 186.429195 89.110463 
L 186.767603 84.526691 
L 187.10601 63.987049 
L 187.444417 70.343328 
L 187.782825 60.017075 
L 188.798047 78.902624 
L 189.136455 72.208564 
L 189.474862 60.017075 
L 189.813269 55.554545 
L 190.151677 160.698792 
L 190.490084 91.906155 
L 190.828492 83.414804 
L 191.505307 129.121059 
L 191.843714 75.393323 
L 192.520529 113.805983 
L 192.858936 103.609457 
L 193.197344 287.176498 
L 193.535751 182.696284 
L 193.874159 190.984652 
L 194.212566 240.959354 
L 194.550973 177.204039 
L 194.889381 215.558157 
L 195.227788 238.654719 
L 195.566196 201.560865 
L 195.904603 238.528405 
L 196.24301 149.496432 
L 196.581418 200.850638 
L 196.919825 214.006847 
L 197.258233 259.14776 
L 197.59664 216.756973 
L 197.935048 224.798933 
L 198.273455 223.946817 
L 198.611862 219.879172 
L 198.95027 225.84028 
L 199.288677 197.370935 
L 199.627085 80.283078 
L 199.965492 112.218392 
L 200.3039 124.850477 
L 200.980714 124.850477 
L 201.319122 117.870305 
L 201.657529 120.242527 
L 201.995937 121.360326 
L 202.334344 122.016812 
L 202.672752 124.850477 
L 203.011159 117.408862 
L 203.349566 124.850477 
L 203.687974 122.016812 
L 204.026381 121.360425 
L 204.364789 124.850477 
L 204.703196 124.850477 
L 205.041603 121.360327 
L 205.380011 110.428569 
L 205.718418 108.251401 
L 206.056826 118.526661 
L 206.733641 112.800922 
L 207.072048 115.036531 
L 207.410455 118.526665 
L 207.748863 124.850477 
L 208.08727 124.850477 
L 208.425678 104.702825 
L 208.764085 124.850477 
L 209.102493 124.850477 
L 209.4409 117.870176 
L 210.456122 117.870176 
L 211.132937 115.692997 
L 211.471345 116.752377 
L 211.809752 118.526661 
L 212.148159 109.772075 
L 212.486567 78.822047 
L 212.824974 102.825512 
L 213.163382 87.744966 
L 213.840196 114.42261 
L 214.178604 108.178422 
L 214.517011 97.593867 
L 214.855419 110.438975 
L 215.193826 103.915329 
L 215.532234 93.449156 
L 215.870641 116.098516 
L 216.209048 96.939307 
L 216.547456 98.687728 
L 216.885863 92.827391 
L 217.224271 89.376301 
L 217.562678 102.178027 
L 217.901086 99.80589 
L 218.239493 78.90585 
L 218.5779 82.383955 
L 218.916308 89.558245 
L 219.254715 82.031958 
L 219.93153 97.112619 
L 220.269938 130.603302 
L 220.608345 74.093718 
L 220.946752 73.888539 
L 221.28516 97.654365 
L 221.623567 88.950426 
L 221.961975 84.531603 
L 222.300382 71.828252 
L 222.638789 72.31077 
L 222.977197 77.095078 
L 223.315604 84.531603 
L 223.654012 96.011775 
L 223.992419 76.680511 
L 224.330827 84.05181 
L 224.669234 168.070577 
L 225.007641 103.936806 
L 225.346049 97.61168 
L 225.684456 96.956508 
L 226.022864 87.226431 
L 226.361271 86.50043 
L 226.699679 72.516238 
L 227.376493 72.516238 
L 228.053308 62.759952 
L 228.391716 62.759952 
L 229.068531 63.677351 
L 229.406938 69.524698 
L 229.745345 66.699293 
L 230.083753 226.862505 
L 230.42216 107.426957 
L 230.760568 86.491967 
L 231.098975 94.102081 
L 231.437382 107.426957 
L 231.77579 71.418724 
L 232.114197 99.331314 
L 232.452605 95.180351 
L 232.791012 76.68093 
L 233.12942 76.096005 
L 233.467827 69.051221 
L 233.806234 69.051221 
L 234.144642 72.516238 
L 234.483049 89.958901 
L 234.821457 69.245426 
L 235.159864 98.120199 
L 235.498272 247.11585 
L 235.836679 116.096274 
L 236.175086 102.388986 
L 236.513494 82.312198 
L 236.851901 111.54695 
L 237.190309 114.380615 
L 237.528716 114.380615 
L 238.205531 61.266231 
L 238.543938 92.567694 
L 238.882346 94.310743 
L 239.220753 94.310743 
L 239.559161 79.232675 
L 239.897568 104.593292 
L 240.235975 94.310743 
L 240.574383 79.894594 
L 240.91279 94.310743 
L 241.251198 94.310743 
L 241.589605 91.477077 
L 241.928013 94.310743 
L 242.26642 87.987061 
L 242.604827 94.310743 
L 242.943235 78.891625 
L 243.281642 96.956511 
L 243.62005 86.58414 
L 243.958457 86.58414 
L 244.296865 89.990598 
L 244.635272 82.323104 
L 244.973679 82.323104 
L 245.312087 86.58414 
L 245.988902 86.58414 
L 246.327309 69.843009 
L 246.665717 135.234476 
L 247.004124 65.519379 
L 247.342531 80.916868 
L 247.680939 76.613964 
L 248.019346 128.102714 
L 248.357754 240.388645 
L 248.696161 84.433289 
L 249.034569 86.046112 
L 249.372976 108.061746 
L 249.711383 87.126866 
L 250.049791 87.126866 
L 250.726606 100.428388 
L 251.065013 102.830511 
L 251.40342 94.190229 
L 251.741828 94.801843 
L 252.080235 106.797699 
L 252.75705 87.249893 
L 253.095458 103.914965 
L 253.433865 87.216321 
L 253.772272 103.914965 
L 254.11068 90.706472 
L 254.449087 103.914965 
L 254.787495 64.137374 
L 255.125902 96.934687 
L 255.46431 96.93466 
L 255.802717 86.583813 
L 256.479532 93.444509 
L 256.817939 86.583813 
L 257.156347 69.854744 
L 257.494754 103.259322 
L 257.833162 69.854744 
L 258.171569 69.854744 
L 258.509976 75.353798 
L 258.848384 75.346101 
L 259.186791 89.298149 
L 259.525199 75.346101 
L 259.863606 74.252988 
L 260.202013 92.788024 
L 260.540421 75.346101 
L 260.878828 85.808585 
L 261.217236 75.346101 
L 261.555643 89.297874 
L 261.894051 72.895659 
L 262.232458 69.770841 
L 262.570865 69.770841 
L 263.24768 89.981117 
L 263.586088 186.006504 
L 263.924495 73.269321 
L 264.262903 66.33052 
L 264.60131 86.583813 
L 264.939717 69.331396 
L 265.278125 76.373268 
L 265.616532 59.465497 
L 266.293347 78.668006 
L 266.631755 78.668006 
L 266.970162 181.628194 
L 267.308569 76.064288 
L 267.646977 92.609605 
L 267.985384 231.587326 
L 268.323792 86.339439 
L 268.662199 108.729842 
L 269.000606 93.893062 
L 269.339014 103.050543 
L 269.677421 119.59884 
L 270.015829 96.726727 
L 270.354236 115.036648 
L 270.692644 98.920638 
L 271.031051 108.251383 
L 271.369458 113.262363 
L 271.707866 111.563507 
L 272.384681 100.631741 
L 272.723088 99.57236 
L 273.061496 108.073356 
L 273.399903 95.496728 
L 273.73831 95.496728 
L 274.076718 74.349195 
L 274.415125 95.059263 
L 274.753533 108.729842 
L 275.09194 95.496728 
L 275.430348 92.663063 
L 275.768755 96.566322 
L 276.107162 91.576028 
L 276.44557 95.496728 
L 276.783977 103.066066 
L 277.122385 95.496728 
L 277.460792 95.496728 
L 277.799199 85.798625 
L 278.137607 95.496728 
L 278.476014 76.989898 
L 278.814422 68.26609 
L 279.152829 94.891856 
L 279.491237 91.401705 
L 279.829644 72.476533 
L 280.168051 71.103067 
L 280.506459 91.401705 
L 280.844866 66.774457 
L 281.183274 234.841004 
L 281.521681 99.823653 
L 281.860089 68.26609 
L 282.198496 81.569573 
L 282.536903 81.569573 
L 282.875311 98.363836 
L 283.213718 81.569573 
L 283.552126 93.354921 
L 283.890533 81.569573 
L 284.567348 81.569573 
L 284.905755 83.285453 
L 285.244163 100.471215 
L 285.58257 66.200333 
L 285.920978 70.008107 
L 286.259385 80.515051 
L 286.597792 72.664939 
L 286.9362 133.38452 
L 287.274607 131.477797 
L 287.613015 217.061457 
L 287.951422 68.026961 
L 288.628237 91.986981 
L 289.305052 91.986981 
L 289.643459 86.26829 
L 289.981867 104.134775 
L 290.320274 91.98698 
L 290.658682 93.248584 
L 290.997089 86.26829 
L 291.335496 93.440642 
L 291.673904 87.379034 
L 292.012311 96.930793 
L 292.350719 94.77933 
L 292.689126 83.004662 
L 293.365941 83.004662 
L 293.704348 87.151298 
L 294.042756 249.764407 
L 294.381163 70.219081 
L 294.719571 95.949865 
L 295.057978 92.459714 
L 295.396385 105.519242 
L 295.734793 105.519242 
L 296.0732 95.949865 
L 296.411608 100.911292 
L 296.750015 95.949865 
L 297.088423 76.355085 
L 297.42683 105.519242 
L 298.103645 86.912404 
L 298.442052 83.339256 
L 298.78046 86.247026 
L 299.118867 83.343908 
L 299.457275 88.552812 
L 299.795682 83.343908 
L 300.134089 88.552812 
L 300.472497 88.552812 
L 300.810904 105.519242 
L 301.149312 95.949865 
L 301.487719 95.950009 
L 301.826127 98.785728 
L 302.164534 95.949865 
L 302.502941 87.853088 
L 302.841349 89.017933 
L 303.179756 99.095319 
L 303.518164 89.017933 
L 303.856571 112.204265 
L 304.194978 70.219081 
L 304.533386 95.949865 
L 304.871793 98.101563 
L 305.210201 106.09373 
L 305.548608 91.758825 
L 305.887016 96.306481 
L 306.56383 70.864845 
L 306.902238 95.950009 
L 307.240645 93.127735 
L 307.579053 91.604916 
L 307.91746 91.604916 
L 308.594275 100.869736 
L 309.27109 96.949905 
L 309.609497 98.706555 
L 310.286312 98.706555 
L 310.62472 87.389533 
L 310.963127 85.422211 
L 311.301534 74.087406 
L 311.978349 89.582689 
L 312.316757 81.545126 
L 312.655164 81.545126 
L 312.993571 88.983487 
L 313.331979 87.389533 
L 313.670386 80.417795 
L 314.008794 81.545126 
L 314.347201 74.087406 
L 314.685609 88.983487 
L 315.024016 75.471762 
L 315.362423 89.61828 
L 315.700831 93.055825 
L 316.039238 88.923302 
L 316.377646 88.923302 
L 316.716053 68.37803 
L 317.054461 84.563853 
L 317.392868 82.636992 
L 317.731275 82.636992 
L 318.069683 90.240403 
L 318.40809 90.240403 
L 318.746498 88.923302 
L 319.084905 64.082728 
L 319.423313 88.923302 
L 319.76172 68.667169 
L 320.100127 87.406737 
L 320.438535 68.667169 
L 320.776942 78.90985 
L 321.11535 68.800707 
L 321.453757 81.793152 
L 321.792164 75.528649 
L 322.130572 93.127735 
L 322.468979 85.600386 
L 322.807387 93.454195 
L 323.145794 77.796772 
L 323.484202 77.796772 
L 323.822609 83.245232 
L 324.161016 74.087406 
L 324.499424 81.793152 
L 324.837831 78.314675 
L 325.176239 87.451102 
L 325.514646 91.278255 
L 325.853054 98.101825 
L 326.191461 63.007584 
L 326.529868 71.533191 
L 326.868276 71.533191 
L 327.206683 73.718721 
L 327.545091 93.101651 
L 327.883498 76.106058 
L 328.560313 71.533191 
L 328.89872 71.533191 
L 329.237128 78.90985 
L 329.575535 76.250148 
L 329.913943 87.406737 
L 330.25235 71.533191 
L 330.590757 81.775529 
L 330.929165 75.462171 
L 331.267572 71.575197 
L 331.60598 81.078892 
L 331.944387 71.533191 
L 332.282795 71.575197 
L 332.621202 86.796683 
L 332.959609 78.90985 
L 333.298017 86.140198 
L 333.636424 87.406737 
L 333.974832 71.533191 
L 334.313239 93.101651 
L 334.990054 63.078906 
L 335.328461 76.106058 
L 335.666869 63.078906 
L 336.005276 84.60627 
L 336.343684 64.128951 
L 336.682091 63.755614 
L 337.020499 66.841926 
L 337.358906 75.339831 
L 337.697313 57.635703 
L 338.035721 68.134541 
L 338.374128 57.635703 
L 338.712536 76.669356 
L 339.050943 57.635703 
L 339.38935 74.734214 
L 339.727758 57.635703 
L 340.066165 73.341133 
L 340.404573 72.337796 
L 340.74298 61.569689 
L 341.081388 72.337796 
L 341.419795 61.569689 
L 341.758202 161.041228 
L 342.09661 105.850774 
L 342.435017 79.582994 
L 342.773425 64.707761 
L 343.111832 71.865117 
L 343.45024 85.121935 
L 343.788647 85.121935 
L 344.127054 82.100809 
L 345.142277 82.100809 
L 345.819092 71.865117 
L 346.157499 60.725922 
L 346.495906 85.121935 
L 346.834314 85.121935 
L 347.172721 101.534155 
L 347.511129 95.709371 
L 347.849536 58.852939 
L 348.187943 67.998988 
L 348.526351 67.998988 
L 348.864758 71.865117 
L 349.203166 84.941496 
L 349.541573 168.260854 
L 349.879981 97.81138 
L 350.218388 77.529641 
L 350.895203 77.529677 
L 351.23361 61.80215 
L 351.572018 77.529641 
L 351.910425 77.529641 
L 352.248833 76.990778 
L 352.58724 63.91332 
L 352.925647 74.333325 
L 353.264055 77.600635 
L 353.602462 70.715674 
L 353.94087 94.553869 
L 354.279277 70.715674 
L 354.956092 70.715674 
L 355.294499 78.809123 
L 355.632907 70.715674 
L 355.971314 78.809123 
L 356.309722 65.161115 
L 356.648129 66.936055 
L 356.986536 77.626148 
L 357.324944 69.22042 
L 357.663351 66.936055 
L 358.001759 87.290042 
L 358.340166 65.396983 
L 358.678574 68.65695 
L 359.016981 93.540274 
L 359.355388 76.649548 
L 359.693796 113.014253 
L 360.032203 109.545395 
L 360.370611 209.192817 
L 360.709018 238.565388 
L 361.047426 164.924187 
L 361.385833 225.698231 
L 361.72424 207.13392 
L 362.062648 204.206138 
L 362.739463 187.981025 
L 363.07787 172.974281 
L 363.416278 174.748565 
L 363.754685 172.760971 
L 364.093092 172.974281 
L 364.4315 177.510477 
L 364.769907 174.087019 
L 365.108315 166.667621 
L 365.446722 177.577865 
L 365.785129 176.405307 
L 366.123537 174.743325 
L 366.800352 173.404947 
L 367.138759 177.577865 
L 367.477167 174.008222 
L 367.815574 174.743325 
L 368.153981 174.087019 
L 368.492389 177.577865 
L 368.830796 172.974281 
L 369.169204 174.743325 
L 369.507611 177.510477 
L 369.846019 171.649476 
L 370.184426 172.844525 
L 370.522833 177.577865 
L 370.861241 179.269408 
L 371.199648 182.183389 
L 372.214871 174.087019 
L 372.553278 174.743325 
L 372.891685 179.548462 
L 373.230093 172.974281 
L 373.5685 177.577865 
L 373.906908 174.087019 
L 374.245315 179.349634 
L 374.583722 178.674616 
L 374.92213 174.743325 
L 375.260537 174.008222 
L 375.598945 177.510477 
L 375.937352 178.693307 
L 376.27576 174.743325 
L 376.614167 172.974281 
L 376.952574 174.087019 
L 377.290982 182.183389 
L 377.629389 174.661458 
L 377.967797 174.008222 
L 378.306204 174.743325 
L 378.644612 174.618809 
L 378.983019 176.405307 
L 379.321426 179.349634 
L 379.659834 174.827548 
L 379.998241 179.339372 
L 380.336649 177.577865 
L 380.675056 174.743325 
L 381.013464 174.940513 
L 381.351871 172.974281 
L 381.690278 174.087019 
L 382.028686 177.577865 
L 382.367093 178.674616 
L 382.705501 179.339372 
L 383.043908 174.661458 
L 383.382315 177.510477 
L 383.720723 175.836792 
L 384.05913 170.912185 
L 384.397538 172.974281 
L 384.735945 177.577865 
L 385.074353 174.087019 
L 385.41276 183.301257 
L 385.751167 174.743325 
L 386.089575 176.405307 
L 386.427982 172.844525 
L 386.76639 172.974281 
L 387.443205 182.183389 
L 387.781612 174.743325 
L 388.120019 174.661458 
L 388.458427 174.008222 
L 388.796834 174.940513 
L 389.135242 172.974281 
L 389.473649 172.81204 
L 389.812057 174.087019 
L 390.150464 179.349634 
L 390.488871 178.693307 
L 390.827279 178.361235 
L 391.165686 174.827548 
L 391.504094 177.510477 
L 391.842501 174.743325 
L 392.180908 166.903552 
L 392.857723 177.510477 
L 393.196131 174.008222 
L 393.534538 177.577865 
L 393.872946 174.743325 
L 394.211353 174.661458 
L 394.54976 177.577865 
L 394.888168 178.361235 
L 395.226575 178.674616 
L 395.564983 176.955481 
L 395.90339 175.847495 
L 396.241798 176.405307 
L 396.580205 174.940513 
L 396.918612 172.974281 
L 397.25702 174.661458 
L 397.595427 174.008222 
L 397.933835 177.577865 
L 398.272242 174.743325 
L 398.61065 178.677658 
L 398.949057 158.716264 
L 399.287464 172.844525 
L 399.625872 172.974281 
L 399.964279 174.661458 
L 400.302687 177.510477 
L 400.641094 174.087019 
L 400.979501 177.577865 
L 401.317909 179.339372 
L 401.656316 170.912185 
L 401.994724 177.452475 
L 402.333131 176.405307 
L 402.671539 177.510477 
L 403.009946 174.661458 
L 403.348353 174.008222 
L 403.686761 166.667621 
L 404.363576 181.59879 
L 404.701983 174.661458 
L 405.040391 178.677658 
L 405.378798 174.008222 
L 405.717205 172.974281 
L 406.39402 182.183389 
L 406.732428 182.183389 
L 407.070835 172.760971 
L 407.409243 172.974281 
L 407.74765 177.510477 
L 408.086057 175.520135 
L 408.424465 176.405307 
L 408.762872 172.844525 
L 409.10128 164.68063 
L 409.439687 172.974281 
L 409.778094 174.661458 
L 410.116502 174.008222 
L 410.454909 177.510477 
L 410.793317 174.661458 
L 411.131724 174.745648 
L 411.470132 173.404947 
L 411.808539 172.974281 
L 412.146946 172.760971 
L 412.485354 172.974281 
L 412.823761 178.054695 
L 413.162169 164.68063 
L 413.500576 181.013257 
L 413.838984 179.06821 
L 414.177391 174.008222 
L 414.515798 181.59879 
L 414.854206 174.661458 
L 415.192613 178.272754 
L 415.531021 174.661458 
L 415.869428 177.510477 
L 416.207836 174.008222 
L 416.546243 169.026343 
L 416.88465 166.903552 
L 417.223058 166.667621 
L 417.561465 164.891998 
L 417.899873 172.974281 
L 418.23828 177.510477 
L 418.576687 178.677658 
L 418.915095 175.071003 
L 419.253502 174.008222 
L 419.59191 179.243733 
L 420.268725 166.667621 
L 420.607132 173.404947 
L 420.945539 172.974281 
L 421.283947 176.405307 
L 421.622354 177.510477 
L 421.960762 174.661458 
L 422.299169 178.589556 
L 422.637577 178.054695 
L 422.975984 169.288576 
L 423.314391 164.891998 
L 423.652799 172.974281 
L 423.991206 176.405307 
L 424.329614 172.844525 
L 424.668021 173.404947 
L 425.006429 172.974281 
L 425.344836 180.678889 
L 425.683243 164.68063 
L 426.021651 166.667621 
L 426.360058 172.974281 
L 426.698466 173.404947 
L 427.036873 172.844525 
L 427.37528 164.891998 
L 427.713688 178.179592 
L 428.052095 173.404947 
L 428.390503 164.68063 
L 428.72891 172.974281 
L 429.067318 174.661458 
L 429.405725 177.510477 
L 429.744132 177.510477 
L 430.08254 174.661458 
L 430.420947 174.008222 
L 430.759355 182.081159 
L 431.097762 179.06821 
L 431.43617 174.661458 
L 431.774577 174.008222 
L 432.112984 179.243733 
L 432.451392 158.716264 
L 433.128207 172.974281 
L 433.466614 172.844525 
L 433.805022 172.974281 
L 434.143429 176.405307 
L 434.481836 173.404947 
L 434.820244 164.891998 
L 435.158651 172.974281 
L 435.497059 172.844525 
L 435.835466 176.405307 
L 436.173873 172.844525 
L 436.512281 164.68063 
L 436.850688 164.891998 
L 437.189096 172.974281 
L 437.527503 173.404947 
L 437.865911 166.667621 
L 438.204318 176.405307 
L 438.542725 174.743325 
L 438.881133 177.582231 
L 439.21954 167.757078 
L 439.557948 172.844525 
L 439.896355 164.68063 
L 440.234763 172.974281 
L 440.57317 176.405307 
L 440.911577 173.404947 
L 441.249985 172.974281 
L 441.588392 172.844525 
L 441.9268 170.670169 
L 442.265207 164.68063 
L 442.603615 172.974281 
L 442.942022 173.404947 
L 443.280429 166.667621 
L 443.618837 164.891998 
L 443.957244 172.974281 
L 444.295652 176.405307 
L 444.634059 173.404947 
L 444.972466 167.757078 
L 445.310874 164.68063 
L 445.649281 172.974281 
L 445.987689 172.844525 
L 446.326096 166.667621 
L 446.664504 176.405307 
L 447.002911 173.404947 
L 447.341318 172.974281 
L 447.679726 172.844525 
L 448.018133 164.68063 
L 448.356541 164.891998 
L 448.694948 172.974281 
L 449.033356 158.8683 
L 449.371763 172.974281 
L 449.71017 176.405307 
L 450.048578 172.844525 
L 450.386985 173.404947 
L 450.725393 172.974281 
L 451.0638 177.5082 
L 451.740615 164.68063 
L 452.079022 166.667621 
L 452.41743 158.716264 
L 452.755837 172.974281 
L 453.094245 173.404947 
L 453.432652 164.891998 
L 453.771059 172.974281 
L 454.109467 172.844525 
L 454.447874 176.405307 
L 454.786282 173.404947 
L 455.124689 164.68063 
L 455.463097 166.667621 
L 455.801504 172.974281 
L 456.139911 167.757078 
L 456.478319 164.891998 
L 456.816726 172.844525 
L 457.155134 172.974281 
L 457.831949 180.359355 
L 458.508763 164.68063 
L 458.847171 172.974281 
L 459.185578 173.404947 
L 459.523986 166.667621 
L 459.862393 172.974281 
L 460.200801 176.405307 
L 460.539208 177.5082 
L 460.877615 176.908068 
L 461.216023 158.8683 
L 461.55443 172.974281 
L 461.892838 164.891998 
L 462.569652 172.974281 
L 462.90806 173.404947 
L 463.584875 164.68063 
L 463.923282 164.891998 
L 464.26169 166.903552 
L 464.600097 172.974281 
L 465.276912 180.359355 
L 465.953727 166.667621 
L 466.292134 164.68063 
L 466.630542 172.974281 
L 466.968949 176.405307 
L 467.307356 172.844525 
L 467.645764 164.891998 
L 467.984171 166.667621 
L 468.322579 172.974281 
L 468.660986 158.8683 
L 468.999394 172.974281 
L 469.337801 176.405307 
L 469.676208 177.5082 
L 470.014616 176.908068 
L 470.353023 180.359355 
L 470.691431 164.68063 
L 471.029838 172.974281 
L 471.368245 173.404947 
L 471.706653 172.974281 
L 472.04506 164.891998 
L 472.383468 166.667621 
L 472.721875 172.974281 
L 473.060283 170.670169 
L 473.39869 158.716264 
L 473.737097 164.68063 
L 474.075505 172.974281 
L 474.413912 164.891998 
L 474.75232 164.68063 
L 475.090727 166.903552 
L 475.429135 172.974281 
L 475.767542 166.667621 
L 476.105949 164.68063 
L 477.121172 176.405307 
L 477.459579 167.757078 
L 477.797987 164.68063 
L 478.136394 164.891998 
L 478.474801 158.716264 
L 479.151616 172.974281 
L 479.490024 176.405307 
L 479.828431 173.404947 
L 480.166838 172.974281 
L 480.505246 164.68063 
L 480.843653 164.891998 
L 481.182061 164.68063 
L 481.520468 166.667621 
L 481.858876 172.974281 
L 482.197283 176.405307 
L 482.53569 172.844525 
L 482.874098 172.974281 
L 483.212505 158.8683 
L 483.550913 172.974281 
L 483.88932 166.903552 
L 484.227728 172.974281 
L 484.566135 176.405307 
L 485.24295 164.68063 
L 485.581357 164.891998 
L 486.258172 172.974281 
L 486.59658 164.68063 
L 486.934987 164.891998 
L 487.273394 160.838017 
L 487.611802 158.716264 
L 487.950209 172.974281 
L 488.288617 166.667621 
L 488.627024 172.974281 
L 488.965431 164.68063 
L 489.303839 164.891998 
L 489.642246 158.716264 
L 489.980654 172.974281 
L 490.319061 162.401461 
L 490.657469 166.667621 
L 490.995876 164.68063 
L 491.334283 166.667621 
L 491.672691 166.903552 
L 492.011098 172.974281 
L 492.349506 164.68063 
L 492.687913 164.891998 
L 493.364728 172.974281 
L 493.703135 160.838017 
L 494.041543 172.974281 
L 494.37995 164.68063 
L 494.718358 164.891998 
L 495.056765 161.283662 
L 495.395173 160.838017 
L 495.73358 172.974281 
L 496.071987 164.68063 
L 496.410395 161.283662 
L 496.748802 161.283662 
L 497.08721 160.838017 
L 497.764025 172.974281 
L 498.102432 164.68063 
L 498.440839 161.283662 
L 498.779247 160.838017 
L 499.117654 172.974281 
L 499.456062 164.68063 
L 499.794469 164.891998 
L 500.132876 160.221137 
L 500.471284 161.283662 
L 500.809691 164.68063 
L 501.148099 158.716264 
L 501.486506 169.026343 
L 501.824914 172.974281 
L 502.163321 164.68063 
L 502.501728 166.667621 
L 502.840136 166.903552 
L 503.178543 172.974281 
L 503.516951 172.974281 
L 503.855358 164.68063 
L 504.193766 160.838017 
L 504.532173 158.716264 
L 504.87058 172.974281 
L 505.208988 164.891998 
L 505.547395 164.68063 
L 505.885803 160.221137 
L 506.22421 161.283662 
L 506.562618 161.283662 
L 506.901025 160.838017 
L 507.239432 172.974281 
L 507.57784 164.68063 
L 507.916247 160.221137 
L 508.254655 161.283662 
L 508.593062 160.838017 
L 508.931469 172.974281 
L 509.269877 164.68063 
L 509.608284 160.221137 
L 509.946692 161.283662 
L 510.285099 158.425913 
L 510.623507 172.974281 
L 510.961914 166.903552 
L 511.300321 172.974281 
L 511.638729 158.716264 
L 511.977136 172.974281 
L 512.315544 164.68063 
L 512.653951 160.221137 
L 512.992359 161.283662 
L 513.330766 160.838017 
L 513.669173 164.68063 
L 514.007581 161.283662 
L 514.345988 148.602314 
L 514.684396 172.974281 
L 515.022803 164.68063 
L 515.361211 160.221137 
L 515.699618 160.838017 
L 516.038025 169.026343 
L 516.376433 172.974281 
L 516.71484 166.903552 
L 517.053248 172.974281 
L 517.391655 164.68063 
L 517.730062 161.283662 
L 518.06847 155.628393 
L 518.406877 172.974281 
L 518.745285 164.68063 
L 519.083692 161.283662 
L 519.760507 160.221137 
L 520.098914 161.283662 
L 520.437322 161.283662 
L 520.775729 160.221137 
L 521.114137 160.838017 
L 521.452544 148.602314 
L 521.790952 172.974281 
L 522.129359 164.68063 
L 522.467766 160.221137 
L 522.806174 161.283662 
L 523.144581 160.838017 
L 523.482989 158.716264 
L 523.821396 172.974281 
L 524.159804 158.425913 
L 524.498211 172.974281 
L 524.836618 164.68063 
L 525.175026 148.602314 
L 525.513433 172.974281 
L 525.851841 164.68063 
L 526.190248 160.221137 
L 526.528655 161.283662 
L 526.867063 161.283662 
L 527.20547 160.838017 
L 527.543878 169.026343 
L 527.882285 158.716264 
L 528.220693 172.974281 
L 528.897507 155.628393 
L 529.235915 172.974281 
L 529.574322 172.974281 
L 529.91273 164.68063 
L 530.251137 160.221137 
L 530.589545 161.283662 
L 530.927952 161.283662 
L 531.266359 160.838017 
L 531.604767 148.602314 
L 531.943174 166.903552 
L 532.281582 172.974281 
L 532.958397 158.425913 
L 533.296804 172.974281 
L 533.635211 164.68063 
L 533.973619 160.221137 
L 534.312026 161.283662 
L 534.650434 160.221137 
L 534.988841 153.367406 
L 535.327248 161.283662 
L 535.665656 160.838017 
L 536.004063 148.602314 
L 536.342471 164.68063 
L 536.680878 155.628393 
L 537.019286 172.974281 
L 537.357693 172.974281 
L 537.6961 164.68063 
L 538.034508 161.283662 
L 538.372915 160.838017 
L 538.711323 153.367406 
L 539.04973 158.425913 
L 539.388138 148.602314 
L 539.726545 172.974281 
L 540.064952 164.68063 
L 540.40336 161.283662 
L 540.741767 153.367406 
L 541.080175 161.283662 
L 541.418582 153.367406 
L 541.75699 148.602314 
L 542.095397 164.68063 
L 542.433804 158.425913 
L 542.772212 164.68063 
L 543.110619 161.283662 
L 543.449027 153.367406 
L 543.787434 161.283662 
L 544.125841 153.367406 
L 544.464249 148.602314 
L 544.802656 164.68063 
L 545.141064 160.838017 
L 545.479471 155.628393 
L 545.817879 172.974281 
L 546.156286 164.68063 
L 546.494693 161.283662 
L 546.833101 153.367406 
L 547.171508 161.283662 
L 547.509916 155.311406 
L 547.848323 161.283662 
L 548.186731 153.367406 
L 548.525138 155.311406 
L 548.863545 148.602314 
L 549.201953 164.68063 
L 549.54036 161.283662 
L 549.878768 150.98369 
L 550.217175 153.367406 
L 550.555583 150.98369 
L 550.89399 161.283662 
L 551.232397 155.311406 
L 551.570805 161.283662 
L 551.909212 150.98369 
L 552.24762 153.367406 
L 552.586027 150.98369 
L 552.924434 161.283662 
L 553.262842 161.051905 
L 553.601249 164.68063 
L 553.939657 155.311406 
L 554.278064 161.283662 
L 554.616472 161.051905 
L 554.954879 164.68063 
L 555.293286 161.283662 
L 555.631694 161.051905 
L 555.970101 157.327966 
L 556.308509 164.68063 
L 556.646916 158.425913 
L 556.985324 155.628393 
L 557.323731 172.974281 
L 557.662138 172.974281 
L 558.000546 164.68063 
L 558.338953 161.283662 
L 558.677361 161.283662 
L 559.015768 153.367406 
L 559.354176 150.98369 
L 559.692583 161.283662 
L 560.03099 161.051905 
L 560.369398 161.283662 
L 561.046213 150.98369 
L 561.38462 161.283662 
L 561.723027 161.051905 
L 562.061435 164.68063 
L 562.399842 153.367406 
L 562.73825 150.98369 
L 563.076657 161.283662 
L 563.415065 161.051905 
L 563.753472 164.68063 
L 564.091879 161.283662 
L 564.430287 161.051905 
L 564.768694 148.602314 
L 565.107102 164.68063 
L 565.445509 158.425913 
L 565.783917 172.974281 
L 566.122324 164.68063 
L 566.460731 161.283662 
L 566.799139 161.283662 
L 567.137546 153.367406 
L 567.475954 155.311406 
L 567.814361 150.98369 
L 568.152769 161.283662 
L 568.491176 161.051905 
L 568.829583 161.283662 
L 569.167991 161.051905 
L 569.506398 157.327966 
L 569.844806 172.974281 
L 570.183213 164.68063 
L 570.52162 161.283662 
L 570.860028 153.367406 
L 571.198435 148.602314 
L 571.536843 164.68063 
L 571.87525 164.68063 
L 572.213658 172.974281 
L 572.552065 161.283662 
L 573.22888 150.98369 
L 573.567287 161.283662 
L 573.905695 150.98369 
L 574.244102 161.283662 
L 574.58251 161.051905 
L 574.920917 161.283662 
L 575.259324 161.051905 
L 575.597732 153.367406 
L 575.936139 150.98369 
L 576.274547 161.283662 
L 576.612954 161.051905 
L 576.951362 157.327966 
L 577.289769 164.68063 
L 577.628176 161.283662 
L 577.966584 155.311406 
L 578.304991 161.283662 
L 578.643399 161.051905 
L 578.981806 155.628393 
L 579.320213 172.974281 
L 579.658621 172.974281 
L 579.997028 164.68063 
L 580.335436 161.283662 
L 580.673843 150.98369 
L 581.012251 161.283662 
L 581.350658 161.051905 
L 581.689065 161.283662 
L 582.027473 161.051905 
L 582.36588 150.98369 
L 582.704288 161.283662 
L 583.042695 161.051905 
L 583.381103 164.68063 
L 583.71951 153.367406 
L 584.057917 155.311406 
L 584.396325 161.283662 
L 584.734732 161.051905 
L 585.07314 150.98369 
L 585.411547 161.283662 
L 585.749955 161.051905 
L 586.088362 164.68063 
L 586.426769 161.283662 
L 586.765177 161.051905 
L 587.103584 150.98369 
L 587.441992 161.283662 
L 587.780399 153.367406 
L 588.118806 161.051905 
L 588.457214 148.602314 
L 588.795621 172.974281 
L 589.134029 164.68063 
L 589.472436 161.283662 
L 589.810844 155.311406 
L 590.149251 164.68063 
L 590.487658 161.283662 
L 590.826066 150.98369 
L 591.164473 172.974281 
L 591.841288 153.367406 
L 592.179696 150.98369 
L 592.518103 161.283662 
L 592.85651 161.051905 
L 593.194918 150.98369 
L 593.533325 161.283662 
L 593.871733 161.051905 
L 594.21014 155.311406 
L 594.548548 161.283662 
L 594.886955 161.051905 
L 595.225362 164.68063 
L 595.56377 150.98369 
L 595.902177 161.283662 
L 596.240585 153.367406 
L 596.578992 161.051905 
L 596.917399 150.98369 
L 597.255807 161.283662 
L 597.594214 150.98369 
L 597.932622 161.283662 
L 598.271029 161.051905 
L 598.609437 161.283662 
L 598.947844 161.051905 
L 599.286251 155.311406 
L 599.963066 172.974281 
L 600.301474 161.283662 
L 600.639881 159.499938 
L 600.978289 164.68063 
L 601.316696 172.974281 
L 601.655103 161.283662 
L 601.993511 161.051905 
L 602.331918 153.367406 
L 602.670326 150.98369 
L 603.008733 161.283662 
L 603.347141 161.051905 
L 603.685548 150.98369 
L 604.023955 161.283662 
L 604.362363 150.98369 
L 604.70077 161.283662 
L 605.039178 161.051905 
L 605.377585 161.283662 
L 605.715992 161.051905 
L 606.0544 161.051905 
L 606.392807 164.68063 
L 606.731215 161.283662 
L 607.069622 159.499938 
L 607.40803 172.974281 
L 607.746437 164.68063 
L 608.084844 161.283662 
L 608.423252 159.499938 
L 608.761659 164.68063 
L 609.100067 172.974281 
L 609.438474 161.283662 
L 609.776882 161.051905 
L 610.115289 153.367406 
L 610.453696 161.051905 
L 610.792104 155.311406 
L 611.130511 161.283662 
L 611.468919 150.98369 
L 611.807326 161.283662 
L 612.145734 161.051905 
L 612.484141 150.98369 
L 612.822548 161.283662 
L 613.160956 161.051905 
L 613.499363 153.367406 
L 613.837771 161.051905 
L 614.176178 150.98369 
L 614.514585 161.283662 
L 614.852993 150.98369 
L 615.1914 161.283662 
L 615.529808 161.051905 
L 615.868215 150.98369 
L 616.206623 161.283662 
L 616.54503 161.051905 
L 616.883437 155.311406 
L 617.221845 164.68063 
L 617.560252 161.283662 
L 617.89866 161.051905 
L 618.237067 161.283662 
L 618.575475 161.051905 
L 618.913882 161.051905 
L 619.252289 150.98369 
L 619.590697 161.283662 
L 619.929104 153.367406 
L 620.267512 161.051905 
L 620.605919 161.051905 
L 620.944327 150.98369 
L 621.282734 161.283662 
L 621.621141 161.283662 
L 621.959549 148.602314 
L 622.297956 172.974281 
L 622.636364 164.68063 
L 622.636364 164.68063 
" style="fill:none;stroke:#1f77b4;stroke-linecap:square;stroke-width:1.5;"/>
   </g>
   <g id="patch_3">
    <path d="M 90 315 
L 90 43.2 
" style="fill:none;stroke:#000000;stroke-linecap:square;stroke-linejoin:miter;stroke-width:0.8;"/>
   </g>
   <g id="patch_4">
    <path d="M 648 315 
L 648 43.2 
" style="fill:none;stroke:#000000;stroke-linecap:square;stroke-linejoin:miter;stroke-width:0.8;"/>
   </g>
   <g id="patch_5">
    <path d="M 90 315 
L 648 315 
" style="fill:none;stroke:#000000;stroke-linecap:square;stroke-linejoin:miter;stroke-width:0.8;"/>
   </g>
   <g id="patch_6">
    <path d="M 90 43.2 
L 648 43.2 
" style="fill:none;stroke:#000000;stroke-linecap:square;stroke-linejoin:miter;stroke-width:0.8;"/>
   </g>
   <g id="text_18">
    <!-- Episode Reward over Time (Smoothed over window size 1) -->
    <defs>
     <path d="M 2.984375 54.6875 
L 12.5 54.6875 
L 29.59375 8.796875 
L 46.6875 54.6875 
L 56.203125 54.6875 
L 35.6875 0 
L 23.484375 0 
z
" id="DejaVuSans-118"/>
     <path d="M -0.296875 72.90625 
L 61.375 72.90625 
L 61.375 64.59375 
L 35.5 64.59375 
L 35.5 0 
L 25.59375 0 
L 25.59375 64.59375 
L -0.296875 64.59375 
z
" id="DejaVuSans-84"/>
     <path d="M 54.890625 33.015625 
L 54.890625 0 
L 45.90625 0 
L 45.90625 32.71875 
Q 45.90625 40.484375 42.875 44.328125 
Q 39.84375 48.1875 33.796875 48.1875 
Q 26.515625 48.1875 22.3125 43.546875 
Q 18.109375 38.921875 18.109375 30.90625 
L 18.109375 0 
L 9.078125 0 
L 9.078125 54.6875 
L 18.109375 54.6875 
L 18.109375 46.1875 
Q 21.34375 51.125 25.703125 53.5625 
Q 30.078125 56 35.796875 56 
Q 45.21875 56 50.046875 50.171875 
Q 54.890625 44.34375 54.890625 33.015625 
z
" id="DejaVuSans-110"/>
     <path d="M 5.515625 54.6875 
L 48.1875 54.6875 
L 48.1875 46.484375 
L 14.40625 7.171875 
L 48.1875 7.171875 
L 48.1875 0 
L 4.296875 0 
L 4.296875 8.203125 
L 38.09375 47.515625 
L 5.515625 47.515625 
z
" id="DejaVuSans-122"/>
    </defs>
    <g transform="translate(192.289688 37.2)scale(0.12 -0.12)">
     <use xlink:href="#DejaVuSans-69"/>
     <use x="63.183594" xlink:href="#DejaVuSans-112"/>
     <use x="126.660156" xlink:href="#DejaVuSans-105"/>
     <use x="154.443359" xlink:href="#DejaVuSans-115"/>
     <use x="206.542969" xlink:href="#DejaVuSans-111"/>
     <use x="267.724609" xlink:href="#DejaVuSans-100"/>
     <use x="331.201172" xlink:href="#DejaVuSans-101"/>
     <use x="392.724609" xlink:href="#DejaVuSans-32"/>
     <use x="424.511719" xlink:href="#DejaVuSans-82"/>
     <use x="493.931641" xlink:href="#DejaVuSans-101"/>
     <use x="555.455078" xlink:href="#DejaVuSans-119"/>
     <use x="637.242188" xlink:href="#DejaVuSans-97"/>
     <use x="698.521484" xlink:href="#DejaVuSans-114"/>
     <use x="739.619141" xlink:href="#DejaVuSans-100"/>
     <use x="803.095703" xlink:href="#DejaVuSans-32"/>
     <use x="834.882812" xlink:href="#DejaVuSans-111"/>
     <use x="896.064453" xlink:href="#DejaVuSans-118"/>
     <use x="955.244141" xlink:href="#DejaVuSans-101"/>
     <use x="1016.767578" xlink:href="#DejaVuSans-114"/>
     <use x="1057.880859" xlink:href="#DejaVuSans-32"/>
     <use x="1089.667969" xlink:href="#DejaVuSans-84"/>
     <use x="1150.705078" xlink:href="#DejaVuSans-105"/>
     <use x="1178.488281" xlink:href="#DejaVuSans-109"/>
     <use x="1275.900391" xlink:href="#DejaVuSans-101"/>
     <use x="1337.423828" xlink:href="#DejaVuSans-32"/>
     <use x="1369.210938" xlink:href="#DejaVuSans-40"/>
     <use x="1408.224609" xlink:href="#DejaVuSans-83"/>
     <use x="1471.701172" xlink:href="#DejaVuSans-109"/>
     <use x="1569.113281" xlink:href="#DejaVuSans-111"/>
     <use x="1630.294922" xlink:href="#DejaVuSans-111"/>
     <use x="1691.476562" xlink:href="#DejaVuSans-116"/>
     <use x="1730.685547" xlink:href="#DejaVuSans-104"/>
     <use x="1794.064453" xlink:href="#DejaVuSans-101"/>
     <use x="1855.587891" xlink:href="#DejaVuSans-100"/>
     <use x="1919.064453" xlink:href="#DejaVuSans-32"/>
     <use x="1950.851562" xlink:href="#DejaVuSans-111"/>
     <use x="2012.033203" xlink:href="#DejaVuSans-118"/>
     <use x="2071.212891" xlink:href="#DejaVuSans-101"/>
     <use x="2132.736328" xlink:href="#DejaVuSans-114"/>
     <use x="2173.849609" xlink:href="#DejaVuSans-32"/>
     <use x="2205.636719" xlink:href="#DejaVuSans-119"/>
     <use x="2287.423828" xlink:href="#DejaVuSans-105"/>
     <use x="2315.207031" xlink:href="#DejaVuSans-110"/>
     <use x="2378.585938" xlink:href="#DejaVuSans-100"/>
     <use x="2442.0625" xlink:href="#DejaVuSans-111"/>
     <use x="2503.244141" xlink:href="#DejaVuSans-119"/>
     <use x="2585.03125" xlink:href="#DejaVuSans-32"/>
     <use x="2616.818359" xlink:href="#DejaVuSans-115"/>
     <use x="2668.917969" xlink:href="#DejaVuSans-105"/>
     <use x="2696.701172" xlink:href="#DejaVuSans-122"/>
     <use x="2749.191406" xlink:href="#DejaVuSans-101"/>
     <use x="2810.714844" xlink:href="#DejaVuSans-32"/>
     <use x="2842.501953" xlink:href="#DejaVuSans-49"/>
     <use x="2906.125" xlink:href="#DejaVuSans-41"/>
    </g>
   </g>
  </g>
 </g>
 <defs>
  <clipPath id="pf22c7e9ea0">
   <rect height="271.8" width="558" x="90" y="43.2"/>
  </clipPath>
 </defs>
</svg>
