<?xml version="1.0" encoding="utf-8" standalone="no"?>
<!DOCTYPE svg PUBLIC "-//W3C//DTD SVG 1.1//EN"
  "http://www.w3.org/Graphics/SVG/1.1/DTD/svg11.dtd">
<!-- Created with matplotlib (https://matplotlib.org/) -->
<svg height="360pt" version="1.1" viewBox="0 0 720 360" width="720pt" xmlns="http://www.w3.org/2000/svg" xmlns:xlink="http://www.w3.org/1999/xlink">
 <defs>
  <style type="text/css">
*{stroke-linecap:butt;stroke-linejoin:round;white-space:pre;}
  </style>
 </defs>
 <g id="figure_1">
  <g id="patch_1">
   <path d="M 0 360 
L 720 360 
L 720 0 
L 0 0 
z
" style="fill:#ffffff;"/>
  </g>
  <g id="axes_1">
   <g id="patch_2">
    <path d="M 90 315 
L 648 315 
L 648 43.2 
L 90 43.2 
z
" style="fill:#ffffff;"/>
   </g>
   <g id="matplotlib.axis_1">
    <g id="xtick_1">
     <g id="line2d_1">
      <path clip-path="url(#p9f51146116)" d="M 115.363636 315 
L 115.363636 43.2 
" style="fill:none;stroke:#b0b0b0;stroke-linecap:square;stroke-width:0.8;"/>
     </g>
     <g id="line2d_2">
      <defs>
       <path d="M 0 0 
L 0 3.5 
" id="m56bf2ab728" style="stroke:#000000;stroke-width:0.8;"/>
      </defs>
      <g>
       <use style="stroke:#000000;stroke-width:0.8;" x="115.363636" xlink:href="#m56bf2ab728" y="315"/>
      </g>
     </g>
     <g id="text_1">
      <!-- 0 -->
      <defs>
       <path d="M 31.78125 66.40625 
Q 24.171875 66.40625 20.328125 58.90625 
Q 16.5 51.421875 16.5 36.375 
Q 16.5 21.390625 20.328125 13.890625 
Q 24.171875 6.390625 31.78125 6.390625 
Q 39.453125 6.390625 43.28125 13.890625 
Q 47.125 21.390625 47.125 36.375 
Q 47.125 51.421875 43.28125 58.90625 
Q 39.453125 66.40625 31.78125 66.40625 
z
M 31.78125 74.21875 
Q 44.046875 74.21875 50.515625 64.515625 
Q 56.984375 54.828125 56.984375 36.375 
Q 56.984375 17.96875 50.515625 8.265625 
Q 44.046875 -1.421875 31.78125 -1.421875 
Q 19.53125 -1.421875 13.0625 8.265625 
Q 6.59375 17.96875 6.59375 36.375 
Q 6.59375 54.828125 13.0625 64.515625 
Q 19.53125 74.21875 31.78125 74.21875 
z
" id="DejaVuSans-48"/>
      </defs>
      <g transform="translate(112.182386 329.598437)scale(0.1 -0.1)">
       <use xlink:href="#DejaVuSans-48"/>
      </g>
     </g>
    </g>
    <g id="xtick_2">
     <g id="line2d_3">
      <path clip-path="url(#p9f51146116)" d="M 179.091366 315 
L 179.091366 43.2 
" style="fill:none;stroke:#b0b0b0;stroke-linecap:square;stroke-width:0.8;"/>
     </g>
     <g id="line2d_4">
      <g>
       <use style="stroke:#000000;stroke-width:0.8;" x="179.091366" xlink:href="#m56bf2ab728" y="315"/>
      </g>
     </g>
     <g id="text_2">
      <!-- 25 -->
      <defs>
       <path d="M 19.1875 8.296875 
L 53.609375 8.296875 
L 53.609375 0 
L 7.328125 0 
L 7.328125 8.296875 
Q 12.9375 14.109375 22.625 23.890625 
Q 32.328125 33.6875 34.8125 36.53125 
Q 39.546875 41.84375 41.421875 45.53125 
Q 43.3125 49.21875 43.3125 52.78125 
Q 43.3125 58.59375 39.234375 62.25 
Q 35.15625 65.921875 28.609375 65.921875 
Q 23.96875 65.921875 18.8125 64.3125 
Q 13.671875 62.703125 7.8125 59.421875 
L 7.8125 69.390625 
Q 13.765625 71.78125 18.9375 73 
Q 24.125 74.21875 28.421875 74.21875 
Q 39.75 74.21875 46.484375 68.546875 
Q 53.21875 62.890625 53.21875 53.421875 
Q 53.21875 48.921875 51.53125 44.890625 
Q 49.859375 40.875 45.40625 35.40625 
Q 44.1875 33.984375 37.640625 27.21875 
Q 31.109375 20.453125 19.1875 8.296875 
z
" id="DejaVuSans-50"/>
       <path d="M 10.796875 72.90625 
L 49.515625 72.90625 
L 49.515625 64.59375 
L 19.828125 64.59375 
L 19.828125 46.734375 
Q 21.96875 47.46875 24.109375 47.828125 
Q 26.265625 48.1875 28.421875 48.1875 
Q 40.625 48.1875 47.75 41.5 
Q 54.890625 34.8125 54.890625 23.390625 
Q 54.890625 11.625 47.5625 5.09375 
Q 40.234375 -1.421875 26.90625 -1.421875 
Q 22.3125 -1.421875 17.546875 -0.640625 
Q 12.796875 0.140625 7.71875 1.703125 
L 7.71875 11.625 
Q 12.109375 9.234375 16.796875 8.0625 
Q 21.484375 6.890625 26.703125 6.890625 
Q 35.15625 6.890625 40.078125 11.328125 
Q 45.015625 15.765625 45.015625 23.390625 
Q 45.015625 31 40.078125 35.4375 
Q 35.15625 39.890625 26.703125 39.890625 
Q 22.75 39.890625 18.8125 39.015625 
Q 14.890625 38.140625 10.796875 36.28125 
z
" id="DejaVuSans-53"/>
      </defs>
      <g transform="translate(172.728866 329.598437)scale(0.1 -0.1)">
       <use xlink:href="#DejaVuSans-50"/>
       <use x="63.623047" xlink:href="#DejaVuSans-53"/>
      </g>
     </g>
    </g>
    <g id="xtick_3">
     <g id="line2d_5">
      <path clip-path="url(#p9f51146116)" d="M 242.819095 315 
L 242.819095 43.2 
" style="fill:none;stroke:#b0b0b0;stroke-linecap:square;stroke-width:0.8;"/>
     </g>
     <g id="line2d_6">
      <g>
       <use style="stroke:#000000;stroke-width:0.8;" x="242.819095" xlink:href="#m56bf2ab728" y="315"/>
      </g>
     </g>
     <g id="text_3">
      <!-- 50 -->
      <g transform="translate(236.456595 329.598437)scale(0.1 -0.1)">
       <use xlink:href="#DejaVuSans-53"/>
       <use x="63.623047" xlink:href="#DejaVuSans-48"/>
      </g>
     </g>
    </g>
    <g id="xtick_4">
     <g id="line2d_7">
      <path clip-path="url(#p9f51146116)" d="M 306.546825 315 
L 306.546825 43.2 
" style="fill:none;stroke:#b0b0b0;stroke-linecap:square;stroke-width:0.8;"/>
     </g>
     <g id="line2d_8">
      <g>
       <use style="stroke:#000000;stroke-width:0.8;" x="306.546825" xlink:href="#m56bf2ab728" y="315"/>
      </g>
     </g>
     <g id="text_4">
      <!-- 75 -->
      <defs>
       <path d="M 8.203125 72.90625 
L 55.078125 72.90625 
L 55.078125 68.703125 
L 28.609375 0 
L 18.3125 0 
L 43.21875 64.59375 
L 8.203125 64.59375 
z
" id="DejaVuSans-55"/>
      </defs>
      <g transform="translate(300.184325 329.598437)scale(0.1 -0.1)">
       <use xlink:href="#DejaVuSans-55"/>
       <use x="63.623047" xlink:href="#DejaVuSans-53"/>
      </g>
     </g>
    </g>
    <g id="xtick_5">
     <g id="line2d_9">
      <path clip-path="url(#p9f51146116)" d="M 370.274555 315 
L 370.274555 43.2 
" style="fill:none;stroke:#b0b0b0;stroke-linecap:square;stroke-width:0.8;"/>
     </g>
     <g id="line2d_10">
      <g>
       <use style="stroke:#000000;stroke-width:0.8;" x="370.274555" xlink:href="#m56bf2ab728" y="315"/>
      </g>
     </g>
     <g id="text_5">
      <!-- 100 -->
      <defs>
       <path d="M 12.40625 8.296875 
L 28.515625 8.296875 
L 28.515625 63.921875 
L 10.984375 60.40625 
L 10.984375 69.390625 
L 28.421875 72.90625 
L 38.28125 72.90625 
L 38.28125 8.296875 
L 54.390625 8.296875 
L 54.390625 0 
L 12.40625 0 
z
" id="DejaVuSans-49"/>
      </defs>
      <g transform="translate(360.730805 329.598437)scale(0.1 -0.1)">
       <use xlink:href="#DejaVuSans-49"/>
       <use x="63.623047" xlink:href="#DejaVuSans-48"/>
       <use x="127.246094" xlink:href="#DejaVuSans-48"/>
      </g>
     </g>
    </g>
    <g id="xtick_6">
     <g id="line2d_11">
      <path clip-path="url(#p9f51146116)" d="M 434.002284 315 
L 434.002284 43.2 
" style="fill:none;stroke:#b0b0b0;stroke-linecap:square;stroke-width:0.8;"/>
     </g>
     <g id="line2d_12">
      <g>
       <use style="stroke:#000000;stroke-width:0.8;" x="434.002284" xlink:href="#m56bf2ab728" y="315"/>
      </g>
     </g>
     <g id="text_6">
      <!-- 125 -->
      <g transform="translate(424.458534 329.598437)scale(0.1 -0.1)">
       <use xlink:href="#DejaVuSans-49"/>
       <use x="63.623047" xlink:href="#DejaVuSans-50"/>
       <use x="127.246094" xlink:href="#DejaVuSans-53"/>
      </g>
     </g>
    </g>
    <g id="xtick_7">
     <g id="line2d_13">
      <path clip-path="url(#p9f51146116)" d="M 497.730014 315 
L 497.730014 43.2 
" style="fill:none;stroke:#b0b0b0;stroke-linecap:square;stroke-width:0.8;"/>
     </g>
     <g id="line2d_14">
      <g>
       <use style="stroke:#000000;stroke-width:0.8;" x="497.730014" xlink:href="#m56bf2ab728" y="315"/>
      </g>
     </g>
     <g id="text_7">
      <!-- 150 -->
      <g transform="translate(488.186264 329.598437)scale(0.1 -0.1)">
       <use xlink:href="#DejaVuSans-49"/>
       <use x="63.623047" xlink:href="#DejaVuSans-53"/>
       <use x="127.246094" xlink:href="#DejaVuSans-48"/>
      </g>
     </g>
    </g>
    <g id="xtick_8">
     <g id="line2d_15">
      <path clip-path="url(#p9f51146116)" d="M 561.457743 315 
L 561.457743 43.2 
" style="fill:none;stroke:#b0b0b0;stroke-linecap:square;stroke-width:0.8;"/>
     </g>
     <g id="line2d_16">
      <g>
       <use style="stroke:#000000;stroke-width:0.8;" x="561.457743" xlink:href="#m56bf2ab728" y="315"/>
      </g>
     </g>
     <g id="text_8">
      <!-- 175 -->
      <g transform="translate(551.913993 329.598437)scale(0.1 -0.1)">
       <use xlink:href="#DejaVuSans-49"/>
       <use x="63.623047" xlink:href="#DejaVuSans-55"/>
       <use x="127.246094" xlink:href="#DejaVuSans-53"/>
      </g>
     </g>
    </g>
    <g id="xtick_9">
     <g id="line2d_17">
      <path clip-path="url(#p9f51146116)" d="M 625.185473 315 
L 625.185473 43.2 
" style="fill:none;stroke:#b0b0b0;stroke-linecap:square;stroke-width:0.8;"/>
     </g>
     <g id="line2d_18">
      <g>
       <use style="stroke:#000000;stroke-width:0.8;" x="625.185473" xlink:href="#m56bf2ab728" y="315"/>
      </g>
     </g>
     <g id="text_9">
      <!-- 200 -->
      <g transform="translate(615.641723 329.598437)scale(0.1 -0.1)">
       <use xlink:href="#DejaVuSans-50"/>
       <use x="63.623047" xlink:href="#DejaVuSans-48"/>
       <use x="127.246094" xlink:href="#DejaVuSans-48"/>
      </g>
     </g>
    </g>
    <g id="text_10">
     <!-- Episode -->
     <defs>
      <path d="M 9.8125 72.90625 
L 55.90625 72.90625 
L 55.90625 64.59375 
L 19.671875 64.59375 
L 19.671875 43.015625 
L 54.390625 43.015625 
L 54.390625 34.71875 
L 19.671875 34.71875 
L 19.671875 8.296875 
L 56.78125 8.296875 
L 56.78125 0 
L 9.8125 0 
z
" id="DejaVuSans-69"/>
      <path d="M 18.109375 8.203125 
L 18.109375 -20.796875 
L 9.078125 -20.796875 
L 9.078125 54.6875 
L 18.109375 54.6875 
L 18.109375 46.390625 
Q 20.953125 51.265625 25.265625 53.625 
Q 29.59375 56 35.59375 56 
Q 45.5625 56 51.78125 48.09375 
Q 58.015625 40.1875 58.015625 27.296875 
Q 58.015625 14.40625 51.78125 6.484375 
Q 45.5625 -1.421875 35.59375 -1.421875 
Q 29.59375 -1.421875 25.265625 0.953125 
Q 20.953125 3.328125 18.109375 8.203125 
z
M 48.6875 27.296875 
Q 48.6875 37.203125 44.609375 42.84375 
Q 40.53125 48.484375 33.40625 48.484375 
Q 26.265625 48.484375 22.1875 42.84375 
Q 18.109375 37.203125 18.109375 27.296875 
Q 18.109375 17.390625 22.1875 11.75 
Q 26.265625 6.109375 33.40625 6.109375 
Q 40.53125 6.109375 44.609375 11.75 
Q 48.6875 17.390625 48.6875 27.296875 
z
" id="DejaVuSans-112"/>
      <path d="M 9.421875 54.6875 
L 18.40625 54.6875 
L 18.40625 0 
L 9.421875 0 
z
M 9.421875 75.984375 
L 18.40625 75.984375 
L 18.40625 64.59375 
L 9.421875 64.59375 
z
" id="DejaVuSans-105"/>
      <path d="M 44.28125 53.078125 
L 44.28125 44.578125 
Q 40.484375 46.53125 36.375 47.5 
Q 32.28125 48.484375 27.875 48.484375 
Q 21.1875 48.484375 17.84375 46.4375 
Q 14.5 44.390625 14.5 40.28125 
Q 14.5 37.15625 16.890625 35.375 
Q 19.28125 33.59375 26.515625 31.984375 
L 29.59375 31.296875 
Q 39.15625 29.25 43.1875 25.515625 
Q 47.21875 21.78125 47.21875 15.09375 
Q 47.21875 7.46875 41.1875 3.015625 
Q 35.15625 -1.421875 24.609375 -1.421875 
Q 20.21875 -1.421875 15.453125 -0.5625 
Q 10.6875 0.296875 5.421875 2 
L 5.421875 11.28125 
Q 10.40625 8.6875 15.234375 7.390625 
Q 20.0625 6.109375 24.8125 6.109375 
Q 31.15625 6.109375 34.5625 8.28125 
Q 37.984375 10.453125 37.984375 14.40625 
Q 37.984375 18.0625 35.515625 20.015625 
Q 33.0625 21.96875 24.703125 23.78125 
L 21.578125 24.515625 
Q 13.234375 26.265625 9.515625 29.90625 
Q 5.8125 33.546875 5.8125 39.890625 
Q 5.8125 47.609375 11.28125 51.796875 
Q 16.75 56 26.8125 56 
Q 31.78125 56 36.171875 55.265625 
Q 40.578125 54.546875 44.28125 53.078125 
z
" id="DejaVuSans-115"/>
      <path d="M 30.609375 48.390625 
Q 23.390625 48.390625 19.1875 42.75 
Q 14.984375 37.109375 14.984375 27.296875 
Q 14.984375 17.484375 19.15625 11.84375 
Q 23.34375 6.203125 30.609375 6.203125 
Q 37.796875 6.203125 41.984375 11.859375 
Q 46.1875 17.53125 46.1875 27.296875 
Q 46.1875 37.015625 41.984375 42.703125 
Q 37.796875 48.390625 30.609375 48.390625 
z
M 30.609375 56 
Q 42.328125 56 49.015625 48.375 
Q 55.71875 40.765625 55.71875 27.296875 
Q 55.71875 13.875 49.015625 6.21875 
Q 42.328125 -1.421875 30.609375 -1.421875 
Q 18.84375 -1.421875 12.171875 6.21875 
Q 5.515625 13.875 5.515625 27.296875 
Q 5.515625 40.765625 12.171875 48.375 
Q 18.84375 56 30.609375 56 
z
" id="DejaVuSans-111"/>
      <path d="M 45.40625 46.390625 
L 45.40625 75.984375 
L 54.390625 75.984375 
L 54.390625 0 
L 45.40625 0 
L 45.40625 8.203125 
Q 42.578125 3.328125 38.25 0.953125 
Q 33.9375 -1.421875 27.875 -1.421875 
Q 17.96875 -1.421875 11.734375 6.484375 
Q 5.515625 14.40625 5.515625 27.296875 
Q 5.515625 40.1875 11.734375 48.09375 
Q 17.96875 56 27.875 56 
Q 33.9375 56 38.25 53.625 
Q 42.578125 51.265625 45.40625 46.390625 
z
M 14.796875 27.296875 
Q 14.796875 17.390625 18.875 11.75 
Q 22.953125 6.109375 30.078125 6.109375 
Q 37.203125 6.109375 41.296875 11.75 
Q 45.40625 17.390625 45.40625 27.296875 
Q 45.40625 37.203125 41.296875 42.84375 
Q 37.203125 48.484375 30.078125 48.484375 
Q 22.953125 48.484375 18.875 42.84375 
Q 14.796875 37.203125 14.796875 27.296875 
z
" id="DejaVuSans-100"/>
      <path d="M 56.203125 29.59375 
L 56.203125 25.203125 
L 14.890625 25.203125 
Q 15.484375 15.921875 20.484375 11.0625 
Q 25.484375 6.203125 34.421875 6.203125 
Q 39.59375 6.203125 44.453125 7.46875 
Q 49.3125 8.734375 54.109375 11.28125 
L 54.109375 2.78125 
Q 49.265625 0.734375 44.1875 -0.34375 
Q 39.109375 -1.421875 33.890625 -1.421875 
Q 20.796875 -1.421875 13.15625 6.1875 
Q 5.515625 13.8125 5.515625 26.8125 
Q 5.515625 40.234375 12.765625 48.109375 
Q 20.015625 56 32.328125 56 
Q 43.359375 56 49.78125 48.890625 
Q 56.203125 41.796875 56.203125 29.59375 
z
M 47.21875 32.234375 
Q 47.125 39.59375 43.09375 43.984375 
Q 39.0625 48.390625 32.421875 48.390625 
Q 24.90625 48.390625 20.390625 44.140625 
Q 15.875 39.890625 15.1875 32.171875 
z
" id="DejaVuSans-101"/>
     </defs>
     <g transform="translate(349.3625 343.276563)scale(0.1 -0.1)">
      <use xlink:href="#DejaVuSans-69"/>
      <use x="63.183594" xlink:href="#DejaVuSans-112"/>
      <use x="126.660156" xlink:href="#DejaVuSans-105"/>
      <use x="154.443359" xlink:href="#DejaVuSans-115"/>
      <use x="206.542969" xlink:href="#DejaVuSans-111"/>
      <use x="267.724609" xlink:href="#DejaVuSans-100"/>
      <use x="331.201172" xlink:href="#DejaVuSans-101"/>
     </g>
    </g>
   </g>
   <g id="matplotlib.axis_2">
    <g id="ytick_1">
     <g id="line2d_19">
      <path clip-path="url(#p9f51146116)" d="M 90 290.786102 
L 648 290.786102 
" style="fill:none;stroke:#b0b0b0;stroke-linecap:square;stroke-width:0.8;"/>
     </g>
     <g id="line2d_20">
      <defs>
       <path d="M 0 0 
L -3.5 0 
" id="m9427a5216c" style="stroke:#000000;stroke-width:0.8;"/>
      </defs>
      <g>
       <use style="stroke:#000000;stroke-width:0.8;" x="90" xlink:href="#m9427a5216c" y="290.786102"/>
      </g>
     </g>
     <g id="text_11">
      <!-- −2.5 -->
      <defs>
       <path d="M 10.59375 35.5 
L 73.1875 35.5 
L 73.1875 27.203125 
L 10.59375 27.203125 
z
" id="DejaVuSans-8722"/>
       <path d="M 10.6875 12.40625 
L 21 12.40625 
L 21 0 
L 10.6875 0 
z
" id="DejaVuSans-46"/>
      </defs>
      <g transform="translate(58.717187 294.585321)scale(0.1 -0.1)">
       <use xlink:href="#DejaVuSans-8722"/>
       <use x="83.789062" xlink:href="#DejaVuSans-50"/>
       <use x="147.412109" xlink:href="#DejaVuSans-46"/>
       <use x="179.199219" xlink:href="#DejaVuSans-53"/>
      </g>
     </g>
    </g>
    <g id="ytick_2">
     <g id="line2d_21">
      <path clip-path="url(#p9f51146116)" d="M 90 234.853865 
L 648 234.853865 
" style="fill:none;stroke:#b0b0b0;stroke-linecap:square;stroke-width:0.8;"/>
     </g>
     <g id="line2d_22">
      <g>
       <use style="stroke:#000000;stroke-width:0.8;" x="90" xlink:href="#m9427a5216c" y="234.853865"/>
      </g>
     </g>
     <g id="text_12">
      <!-- −2.0 -->
      <g transform="translate(58.717187 238.653084)scale(0.1 -0.1)">
       <use xlink:href="#DejaVuSans-8722"/>
       <use x="83.789062" xlink:href="#DejaVuSans-50"/>
       <use x="147.412109" xlink:href="#DejaVuSans-46"/>
       <use x="179.199219" xlink:href="#DejaVuSans-48"/>
      </g>
     </g>
    </g>
    <g id="ytick_3">
     <g id="line2d_23">
      <path clip-path="url(#p9f51146116)" d="M 90 178.921629 
L 648 178.921629 
" style="fill:none;stroke:#b0b0b0;stroke-linecap:square;stroke-width:0.8;"/>
     </g>
     <g id="line2d_24">
      <g>
       <use style="stroke:#000000;stroke-width:0.8;" x="90" xlink:href="#m9427a5216c" y="178.921629"/>
      </g>
     </g>
     <g id="text_13">
      <!-- −1.5 -->
      <g transform="translate(58.717187 182.720848)scale(0.1 -0.1)">
       <use xlink:href="#DejaVuSans-8722"/>
       <use x="83.789062" xlink:href="#DejaVuSans-49"/>
       <use x="147.412109" xlink:href="#DejaVuSans-46"/>
       <use x="179.199219" xlink:href="#DejaVuSans-53"/>
      </g>
     </g>
    </g>
    <g id="ytick_4">
     <g id="line2d_25">
      <path clip-path="url(#p9f51146116)" d="M 90 122.989392 
L 648 122.989392 
" style="fill:none;stroke:#b0b0b0;stroke-linecap:square;stroke-width:0.8;"/>
     </g>
     <g id="line2d_26">
      <g>
       <use style="stroke:#000000;stroke-width:0.8;" x="90" xlink:href="#m9427a5216c" y="122.989392"/>
      </g>
     </g>
     <g id="text_14">
      <!-- −1.0 -->
      <g transform="translate(58.717187 126.788611)scale(0.1 -0.1)">
       <use xlink:href="#DejaVuSans-8722"/>
       <use x="83.789062" xlink:href="#DejaVuSans-49"/>
       <use x="147.412109" xlink:href="#DejaVuSans-46"/>
       <use x="179.199219" xlink:href="#DejaVuSans-48"/>
      </g>
     </g>
    </g>
    <g id="ytick_5">
     <g id="line2d_27">
      <path clip-path="url(#p9f51146116)" d="M 90 67.057155 
L 648 67.057155 
" style="fill:none;stroke:#b0b0b0;stroke-linecap:square;stroke-width:0.8;"/>
     </g>
     <g id="line2d_28">
      <g>
       <use style="stroke:#000000;stroke-width:0.8;" x="90" xlink:href="#m9427a5216c" y="67.057155"/>
      </g>
     </g>
     <g id="text_15">
      <!-- −0.5 -->
      <g transform="translate(58.717187 70.856374)scale(0.1 -0.1)">
       <use xlink:href="#DejaVuSans-8722"/>
       <use x="83.789062" xlink:href="#DejaVuSans-48"/>
       <use x="147.412109" xlink:href="#DejaVuSans-46"/>
       <use x="179.199219" xlink:href="#DejaVuSans-53"/>
      </g>
     </g>
    </g>
    <g id="text_16">
     <!-- Episode Reward -->
     <defs>
      <path id="DejaVuSans-32"/>
      <path d="M 44.390625 34.1875 
Q 47.5625 33.109375 50.5625 29.59375 
Q 53.5625 26.078125 56.59375 19.921875 
L 66.609375 0 
L 56 0 
L 46.6875 18.703125 
Q 43.0625 26.03125 39.671875 28.421875 
Q 36.28125 30.8125 30.421875 30.8125 
L 19.671875 30.8125 
L 19.671875 0 
L 9.8125 0 
L 9.8125 72.90625 
L 32.078125 72.90625 
Q 44.578125 72.90625 50.734375 67.671875 
Q 56.890625 62.453125 56.890625 51.90625 
Q 56.890625 45.015625 53.6875 40.46875 
Q 50.484375 35.9375 44.390625 34.1875 
z
M 19.671875 64.796875 
L 19.671875 38.921875 
L 32.078125 38.921875 
Q 39.203125 38.921875 42.84375 42.21875 
Q 46.484375 45.515625 46.484375 51.90625 
Q 46.484375 58.296875 42.84375 61.546875 
Q 39.203125 64.796875 32.078125 64.796875 
z
" id="DejaVuSans-82"/>
      <path d="M 4.203125 54.6875 
L 13.1875 54.6875 
L 24.421875 12.015625 
L 35.59375 54.6875 
L 46.1875 54.6875 
L 57.421875 12.015625 
L 68.609375 54.6875 
L 77.59375 54.6875 
L 63.28125 0 
L 52.6875 0 
L 40.921875 44.828125 
L 29.109375 0 
L 18.5 0 
z
" id="DejaVuSans-119"/>
      <path d="M 34.28125 27.484375 
Q 23.390625 27.484375 19.1875 25 
Q 14.984375 22.515625 14.984375 16.5 
Q 14.984375 11.71875 18.140625 8.90625 
Q 21.296875 6.109375 26.703125 6.109375 
Q 34.1875 6.109375 38.703125 11.40625 
Q 43.21875 16.703125 43.21875 25.484375 
L 43.21875 27.484375 
z
M 52.203125 31.203125 
L 52.203125 0 
L 43.21875 0 
L 43.21875 8.296875 
Q 40.140625 3.328125 35.546875 0.953125 
Q 30.953125 -1.421875 24.3125 -1.421875 
Q 15.921875 -1.421875 10.953125 3.296875 
Q 6 8.015625 6 15.921875 
Q 6 25.140625 12.171875 29.828125 
Q 18.359375 34.515625 30.609375 34.515625 
L 43.21875 34.515625 
L 43.21875 35.40625 
Q 43.21875 41.609375 39.140625 45 
Q 35.0625 48.390625 27.6875 48.390625 
Q 23 48.390625 18.546875 47.265625 
Q 14.109375 46.140625 10.015625 43.890625 
L 10.015625 52.203125 
Q 14.9375 54.109375 19.578125 55.046875 
Q 24.21875 56 28.609375 56 
Q 40.484375 56 46.34375 49.84375 
Q 52.203125 43.703125 52.203125 31.203125 
z
" id="DejaVuSans-97"/>
      <path d="M 41.109375 46.296875 
Q 39.59375 47.171875 37.8125 47.578125 
Q 36.03125 48 33.890625 48 
Q 26.265625 48 22.1875 43.046875 
Q 18.109375 38.09375 18.109375 28.8125 
L 18.109375 0 
L 9.078125 0 
L 9.078125 54.6875 
L 18.109375 54.6875 
L 18.109375 46.1875 
Q 20.953125 51.171875 25.484375 53.578125 
Q 30.03125 56 36.53125 56 
Q 37.453125 56 38.578125 55.875 
Q 39.703125 55.765625 41.0625 55.515625 
z
" id="DejaVuSans-114"/>
     </defs>
     <g transform="translate(52.6375 219.25625)rotate(-90)scale(0.1 -0.1)">
      <use xlink:href="#DejaVuSans-69"/>
      <use x="63.183594" xlink:href="#DejaVuSans-112"/>
      <use x="126.660156" xlink:href="#DejaVuSans-105"/>
      <use x="154.443359" xlink:href="#DejaVuSans-115"/>
      <use x="206.542969" xlink:href="#DejaVuSans-111"/>
      <use x="267.724609" xlink:href="#DejaVuSans-100"/>
      <use x="331.201172" xlink:href="#DejaVuSans-101"/>
      <use x="392.724609" xlink:href="#DejaVuSans-32"/>
      <use x="424.511719" xlink:href="#DejaVuSans-82"/>
      <use x="493.931641" xlink:href="#DejaVuSans-101"/>
      <use x="555.455078" xlink:href="#DejaVuSans-119"/>
      <use x="637.242188" xlink:href="#DejaVuSans-97"/>
      <use x="698.521484" xlink:href="#DejaVuSans-114"/>
      <use x="739.619141" xlink:href="#DejaVuSans-100"/>
     </g>
    </g>
   </g>
   <g id="line2d_29">
    <path clip-path="url(#p9f51146116)" d="M 115.363636 273.107406 
L 117.912746 100.768665 
L 120.461855 226.882458 
L 123.010964 111.672566 
L 125.560073 242.839145 
L 130.658291 116.464329 
L 133.207401 261.249847 
L 135.75651 209.596735 
L 138.305619 107.580904 
L 140.854728 175.871466 
L 143.403837 236.532217 
L 145.952947 201.67592 
L 148.502056 262.297013 
L 151.051165 299.099733 
L 153.600274 230.273935 
L 156.149383 107.118922 
L 158.698492 238.013471 
L 161.247602 288.199238 
L 163.796711 297.266589 
L 166.34582 272.576256 
L 168.894929 102.636252 
L 171.444038 260.62486 
L 173.993148 126.894428 
L 176.542257 105.280615 
L 179.091366 104.789878 
L 181.640475 289.223801 
L 184.189584 122.571322 
L 186.738693 107.646477 
L 189.287803 253.064202 
L 191.836912 232.023663 
L 194.386021 253.950341 
L 196.93513 109.104958 
L 199.484239 296.50344 
L 202.033349 104.936206 
L 204.582458 273.749516 
L 207.131567 115.166545 
L 209.680676 213.331967 
L 212.229785 280.799268 
L 214.778894 296.683052 
L 219.877113 113.947929 
L 222.426222 113.150723 
L 224.975331 217.875414 
L 227.52444 245.603348 
L 230.07355 244.004361 
L 232.622659 247.320554 
L 235.171768 268.212273 
L 237.720877 101.493208 
L 240.269986 105.300614 
L 242.819095 260.591124 
L 245.368205 110.829097 
L 247.917314 277.075769 
L 250.466423 207.390049 
L 253.015532 221.527798 
L 255.564641 90.177917 
L 258.113751 218.917508 
L 260.66286 116.09756 
L 263.211969 104.054695 
L 265.761078 265.184761 
L 268.310187 258.769439 
L 270.859296 283.624786 
L 273.408406 239.237952 
L 275.957515 159.244139 
L 278.506624 133.646517 
L 281.055733 204.497586 
L 283.604842 100.485478 
L 286.153952 105.295431 
L 288.703061 109.627779 
L 291.25217 223.906401 
L 293.801279 281.499903 
L 296.350388 256.373648 
L 298.899497 108.599001 
L 301.448607 185.238791 
L 303.997716 226.98761 
L 306.546825 98.840146 
L 309.095934 106.436013 
L 311.645043 100.96102 
L 314.194153 110.856495 
L 316.743262 271.023943 
L 319.292371 257.031591 
L 321.84148 264.583093 
L 324.390589 109.818388 
L 326.939698 288.820767 
L 329.488808 246.627559 
L 332.037917 274.22282 
L 334.587026 289.47338 
L 337.136135 275.905471 
L 339.685244 227.27901 
L 342.234354 96.138143 
L 344.783463 109.112429 
L 347.332572 98.799896 
L 349.881681 232.843292 
L 352.43079 183.760005 
L 354.979899 228.716486 
L 357.529009 185.800938 
L 360.078118 111.757648 
L 362.627227 273.039155 
L 365.176336 219.43064 
L 367.725445 98.795087 
L 370.274555 103.199431 
L 372.823664 247.621942 
L 375.372773 217.242229 
L 377.921882 290.054698 
L 380.470991 98.797123 
L 383.020101 279.262263 
L 385.56921 259.437165 
L 388.118319 260.295063 
L 390.667428 248.057302 
L 393.216537 232.534042 
L 395.765646 230.429679 
L 398.314756 195.551965 
L 400.863865 185.665596 
L 403.412974 272.006702 
L 405.962083 116.171183 
L 408.511192 110.674654 
L 411.060302 265.425805 
L 413.609411 93.615837 
L 416.15852 113.929004 
L 418.707629 130.345641 
L 421.256738 295.096324 
L 423.805847 234.7946 
L 426.354957 228.489214 
L 428.904066 106.017336 
L 431.453175 217.436418 
L 434.002284 243.824824 
L 436.551393 240.865397 
L 439.100503 258.541937 
L 441.649612 157.432984 
L 444.198721 269.598919 
L 446.74783 175.045331 
L 449.296939 116.889259 
L 451.846048 265.085609 
L 454.395158 98.298549 
L 456.944267 223.766155 
L 459.493376 248.009466 
L 462.042485 231.599156 
L 464.591594 119.487306 
L 467.140704 109.616995 
L 469.689813 188.491681 
L 472.238922 231.239128 
L 474.788031 197.006906 
L 477.33714 153.85154 
L 479.886249 102.816591 
L 482.435359 108.993953 
L 484.984468 102.620921 
L 487.533577 274.110962 
L 490.082686 152.078344 
L 492.631795 121.962964 
L 495.180905 126.8513 
L 497.730014 147.188849 
L 500.279123 256.208984 
L 502.828232 139.08824 
L 505.377341 113.437661 
L 510.47556 212.240607 
L 513.024669 214.96136 
L 515.573778 100.46126 
L 518.122887 280.085181 
L 520.671996 158.935769 
L 523.221106 204.170505 
L 525.770215 281.827663 
L 528.319324 109.126982 
L 530.868433 238.551753 
L 533.417542 271.221114 
L 535.966651 119.66545 
L 538.515761 255.932031 
L 543.613979 111.774855 
L 546.163088 105.032844 
L 548.712197 120.168197 
L 551.261307 100.604373 
L 553.810416 238.50594 
L 556.359525 215.844494 
L 558.908634 107.012688 
L 561.457743 294.088578 
L 564.006852 251.613789 
L 566.555962 103.113734 
L 569.105071 109.668688 
L 571.65418 145.036829 
L 574.203289 282.024557 
L 576.752398 109.168402 
L 579.301508 256.479963 
L 581.850617 117.537431 
L 584.399726 292.867257 
L 586.948835 114.671225 
L 589.497944 98.795492 
L 592.047053 109.597471 
L 594.596163 240.477631 
L 597.145272 283.585733 
L 599.694381 107.432914 
L 602.24349 214.969927 
L 604.792599 290.153892 
L 607.341709 276.455524 
L 609.890818 271.458441 
L 612.439927 247.232367 
L 614.989036 104.775113 
L 617.538145 107.452417 
L 620.087254 243.907883 
L 622.636364 302.645455 
L 622.636364 302.645455 
" style="fill:none;stroke:#f08080;stroke-linecap:square;stroke-width:1.5;"/>
   </g>
   <g id="line2d_30">
    <path clip-path="url(#p9f51146116)" d="M 115.363636 78.967152 
L 117.912746 210.985367 
L 120.461855 145.131404 
L 123.010964 229.299498 
L 125.560073 224.97752 
L 128.109182 265.835894 
L 130.658291 206.114868 
L 133.207401 223.955299 
L 135.75651 58.548336 
L 138.305619 263.119581 
L 140.854728 185.171836 
L 143.403837 238.943502 
L 145.952947 242.124473 
L 148.502056 251.628926 
L 151.051165 264.47125 
L 153.600274 148.034282 
L 156.149383 261.509685 
L 158.698492 228.262296 
L 161.247602 262.311261 
L 163.796711 235.293441 
L 166.34582 95.703886 
L 168.894929 58.180643 
L 171.444038 185.003444 
L 173.993148 58.43831 
L 176.542257 248.775132 
L 179.091366 221.182231 
L 181.640475 191.593346 
L 184.189584 224.065074 
L 186.738693 200.12196 
L 189.287803 217.495878 
L 191.836912 267.391322 
L 194.386021 251.504371 
L 196.93513 239.548215 
L 199.484239 185.268563 
L 202.033349 267.002555 
L 207.131567 60.013936 
L 209.680676 152.432437 
L 212.229785 211.290941 
L 214.778894 231.224414 
L 217.328004 115.795906 
L 219.877113 57.461287 
L 222.426222 254.728427 
L 224.975331 127.566637 
L 227.52444 242.677835 
L 230.07355 92.938787 
L 232.622659 245.438128 
L 235.171768 237.621555 
L 237.720877 249.521102 
L 240.269986 265.184245 
L 242.819095 138.965578 
L 245.368205 257.282205 
L 247.917314 267.170443 
L 250.466423 147.601323 
L 253.015532 258.866626 
L 255.564641 235.641096 
L 258.113751 89.964894 
L 260.66286 236.702279 
L 263.211969 199.196261 
L 265.761078 269.971198 
L 268.310187 270.828264 
L 270.859296 248.82669 
L 273.408406 193.474836 
L 275.957515 209.854465 
L 278.506624 228.594728 
L 281.055733 242.630475 
L 283.604842 267.901736 
L 286.153952 160.304416 
L 288.703061 218.635957 
L 291.25217 104.828959 
L 293.801279 183.831109 
L 296.350388 255.406062 
L 298.899497 156.356885 
L 301.448607 97.30511 
L 303.997716 101.380643 
L 306.546825 135.724206 
L 309.095934 265.475466 
L 311.645043 223.919181 
L 314.194153 202.681538 
L 316.743262 256.925841 
L 319.292371 228.218738 
L 321.84148 225.700265 
L 324.390589 258.435996 
L 326.939698 260.380493 
L 329.488808 59.960367 
L 332.037917 184.074099 
L 334.587026 228.237657 
L 337.136135 259.760899 
L 339.685244 201.700352 
L 342.234354 150.352411 
L 344.783463 209.976492 
L 347.332572 60.035025 
L 349.881681 235.9808 
L 352.43079 171.400656 
L 354.979899 187.420405 
L 357.529009 58.522278 
L 360.078118 255.456353 
L 362.627227 241.10726 
L 365.176336 264.105182 
L 367.725445 237.832827 
L 370.274555 57.678581 
L 372.823664 255.340842 
L 375.372773 260.204774 
L 377.921882 246.402842 
L 380.470991 95.00332 
L 383.020101 257.134675 
L 385.56921 245.386813 
L 388.118319 257.542328 
L 390.667428 60.745861 
L 393.216537 258.718272 
L 395.765646 107.392151 
L 398.314756 57.822882 
L 400.863865 232.666154 
L 403.412974 141.624822 
L 405.962083 255.004661 
L 408.511192 265.445079 
L 411.060302 255.900633 
L 413.609411 251.951465 
L 416.15852 252.321761 
L 418.707629 141.628476 
L 421.256738 255.087957 
L 423.805847 219.98828 
L 426.354957 179.350256 
L 428.904066 232.914065 
L 431.453175 56.927424 
L 434.002284 202.651678 
L 436.551393 213.72695 
L 439.100503 250.879396 
L 441.649612 264.564109 
L 444.198721 250.548726 
L 446.74783 150.194797 
L 449.296939 256.827863 
L 451.846048 226.319036 
L 454.395158 219.002139 
L 456.944267 248.324167 
L 459.493376 195.418744 
L 462.042485 59.666886 
L 464.591594 121.741184 
L 467.140704 65.50632 
L 469.689813 225.909346 
L 472.238922 259.458593 
L 474.788031 184.216249 
L 477.33714 214.769961 
L 479.886249 250.853328 
L 482.435359 262.076606 
L 484.984468 258.2428 
L 487.533577 192.772775 
L 490.082686 230.638459 
L 492.631795 191.388949 
L 495.180905 249.630023 
L 497.730014 235.452301 
L 500.279123 263.917374 
L 502.828232 206.658374 
L 505.377341 220.577734 
L 507.92645 266.948783 
L 510.47556 175.182347 
L 513.024669 58.00891 
L 515.573778 240.31323 
L 518.122887 247.416732 
L 520.671996 197.327184 
L 523.221106 215.38282 
L 525.770215 195.273838 
L 528.319324 264.127406 
L 530.868433 60.961804 
L 533.417542 157.880169 
L 535.966651 168.374354 
L 538.515761 268.612416 
L 541.06487 234.979923 
L 543.613979 258.860133 
L 546.163088 217.012731 
L 548.712197 211.695579 
L 551.261307 189.150032 
L 553.810416 119.760236 
L 556.359525 176.40327 
L 558.908634 251.19312 
L 561.457743 267.102589 
L 564.006852 254.983388 
L 566.555962 56.620598 
L 569.105071 119.438571 
L 571.65418 195.036522 
L 574.203289 208.243732 
L 576.752398 95.691604 
L 579.301508 240.425712 
L 581.850617 234.243547 
L 584.399726 260.781001 
L 586.948835 138.551984 
L 589.497944 257.448901 
L 592.047053 261.165694 
L 594.596163 268.360443 
L 597.145272 251.416903 
L 599.694381 180.298453 
L 602.24349 244.848611 
L 604.792599 232.777677 
L 607.341709 58.032505 
L 609.890818 205.250015 
L 612.439927 128.810724 
L 617.538145 259.392463 
L 620.087254 224.027577 
L 622.636364 241.438809 
L 622.636364 241.438809 
" style="fill:none;stroke:#90ee90;stroke-linecap:square;stroke-width:1.5;"/>
   </g>
   <g id="line2d_31">
    <path clip-path="url(#p9f51146116)" d="M 115.363636 197.275769 
L 117.912746 191.564931 
L 120.461855 130.370572 
L 123.010964 199.860329 
L 125.560073 252.151848 
L 128.109182 164.748329 
L 130.658291 260.163141 
L 133.207401 239.875122 
L 135.75651 258.89672 
L 138.305619 184.887546 
L 140.854728 240.503681 
L 143.403837 227.3215 
L 145.952947 168.23713 
L 148.502056 244.968583 
L 151.051165 55.673837 
L 153.600274 259.380751 
L 156.149383 262.124099 
L 158.698492 245.271708 
L 161.247602 222.399032 
L 163.796711 260.57633 
L 166.34582 266.022088 
L 168.894929 55.713605 
L 171.444038 106.467345 
L 173.993148 251.917153 
L 176.542257 258.227832 
L 179.091366 215.88024 
L 181.640475 259.148545 
L 184.189584 194.619415 
L 186.738693 246.211018 
L 189.287803 236.332307 
L 191.836912 100.793411 
L 196.93513 236.959565 
L 199.484239 257.908798 
L 202.033349 99.881373 
L 204.582458 193.115921 
L 209.680676 254.630296 
L 212.229785 64.201419 
L 214.778894 260.203504 
L 217.328004 265.621712 
L 219.877113 218.953733 
L 222.426222 253.004444 
L 224.975331 217.479668 
L 227.52444 244.168711 
L 230.07355 251.768994 
L 232.622659 55.918823 
L 235.171768 240.555908 
L 237.720877 155.855818 
L 240.269986 254.141072 
L 242.819095 183.923956 
L 245.368205 229.845062 
L 247.917314 262.111604 
L 250.466423 100.725076 
L 253.015532 262.965023 
L 255.564641 240.118844 
L 258.113751 107.473904 
L 260.66286 263.879285 
L 263.211969 55.575542 
L 265.761078 129.427404 
L 268.310187 257.128119 
L 270.859296 64.034744 
L 273.408406 247.263365 
L 275.957515 55.554545 
L 278.506624 266.306049 
L 281.055733 59.082964 
L 283.604842 55.568681 
L 286.153952 257.395188 
L 288.703061 247.495327 
L 291.25217 255.493293 
L 293.801279 244.921231 
L 296.350388 259.213803 
L 298.899497 262.957223 
L 301.448607 169.929765 
L 303.997716 257.871013 
L 306.546825 265.286186 
L 309.095934 262.708875 
L 311.645043 105.718015 
L 314.194153 212.380325 
L 316.743262 179.418782 
L 319.292371 151.924548 
L 321.84148 228.475133 
L 324.390589 253.134665 
L 326.939698 214.958152 
L 329.488808 252.779239 
L 332.037917 55.701833 
L 334.587026 84.307137 
L 337.136135 261.650653 
L 339.685244 252.712272 
L 342.234354 230.161067 
L 344.783463 228.042426 
L 347.332572 74.097049 
L 349.881681 255.544288 
L 352.43079 200.285573 
L 354.979899 154.627868 
L 357.529009 258.98537 
L 360.078118 266.246701 
L 362.627227 245.636215 
L 365.176336 261.861229 
L 367.725445 56.944988 
L 370.274555 262.827888 
L 372.823664 251.64609 
L 375.372773 235.787476 
L 377.921882 261.845191 
L 380.470991 170.807189 
L 383.020101 261.47302 
L 385.56921 172.470313 
L 388.118319 259.010034 
L 390.667428 218.314689 
L 393.216537 182.6265 
L 395.765646 264.726714 
L 398.314756 253.122513 
L 400.863865 167.795325 
L 403.412974 166.512216 
L 405.962083 222.705854 
L 408.511192 224.685033 
L 411.060302 224.309924 
L 413.609411 264.94832 
L 416.15852 253.19321 
L 418.707629 266.668778 
L 421.256738 199.503305 
L 423.805847 238.322695 
L 426.354957 266.459911 
L 428.904066 80.004937 
L 431.453175 203.73372 
L 434.002284 249.729911 
L 436.551393 220.472285 
L 439.100503 55.957146 
L 441.649612 262.141707 
L 444.198721 228.12367 
L 446.74783 253.485055 
L 449.296939 217.27889 
L 451.846048 235.09152 
L 454.395158 69.012437 
L 456.944267 233.145726 
L 459.493376 262.535817 
L 462.042485 144.986876 
L 464.591594 221.534468 
L 467.140704 265.823739 
L 469.689813 259.643898 
L 472.238922 180.567689 
L 474.788031 198.622546 
L 477.33714 263.568117 
L 479.886249 254.62885 
L 482.435359 256.469553 
L 484.984468 255.784805 
L 487.533577 216.349439 
L 490.082686 249.708609 
L 492.631795 211.207803 
L 495.180905 266.34374 
L 497.730014 57.25139 
L 500.279123 154.874391 
L 502.828232 264.595921 
L 505.377341 113.289626 
L 507.92645 253.984368 
L 510.47556 57.200159 
L 513.024669 169.139773 
L 515.573778 258.996884 
L 518.122887 234.748096 
L 520.671996 216.382113 
L 523.221106 232.587849 
L 525.770215 246.4355 
L 528.319324 222.658256 
L 530.868433 262.27754 
L 533.417542 181.819885 
L 535.966651 234.71458 
L 538.515761 60.349554 
L 541.06487 170.399141 
L 543.613979 55.575521 
L 546.163088 228.91063 
L 548.712197 243.712739 
L 551.261307 239.448933 
L 553.810416 248.779275 
L 556.359525 255.378076 
L 558.908634 243.481771 
L 561.457743 263.982366 
L 564.006852 252.193441 
L 566.555962 258.177201 
L 569.105071 197.700936 
L 571.65418 182.6997 
L 574.203289 265.659145 
L 576.752398 264.518121 
L 579.301508 157.580074 
L 581.850617 108.683326 
L 584.399726 238.501013 
L 586.948835 258.926335 
L 589.497944 259.128402 
L 592.047053 195.912039 
L 594.596163 263.77768 
L 597.145272 255.433541 
L 599.694381 205.856513 
L 602.24349 227.544549 
L 604.792599 266.059663 
L 607.341709 212.434635 
L 609.890818 255.185288 
L 612.439927 239.633922 
L 614.989036 55.561427 
L 617.538145 250.976722 
L 620.087254 181.642577 
L 622.636364 248.685103 
L 622.636364 248.685103 
" style="fill:none;stroke:#87cefa;stroke-linecap:square;stroke-width:1.5;"/>
   </g>
   <g id="line2d_32">
    <path clip-path="url(#p9f51146116)" d="M 115.363636 243.532539 
L 117.912746 274.01112 
L 120.461855 271.350424 
L 123.010964 222.675329 
L 125.560073 92.589401 
L 128.109182 79.665305 
L 130.658291 261.321893 
L 133.207401 274.388495 
L 135.75651 266.968286 
L 138.305619 251.707968 
L 140.854728 258.251856 
L 143.403837 272.1821 
L 145.952947 81.024542 
L 148.502056 88.300446 
L 151.051165 272.286066 
L 153.600274 201.875654 
L 156.149383 161.040938 
L 158.698492 191.267137 
L 161.247602 229.977847 
L 163.796711 81.012394 
L 166.34582 250.346286 
L 168.894929 228.655386 
L 171.444038 79.510614 
L 173.993148 182.985109 
L 176.542257 242.908346 
L 179.091366 89.761394 
L 181.640475 80.59316 
L 184.189584 247.297779 
L 186.738693 271.019316 
L 189.287803 261.172271 
L 191.836912 79.512626 
L 194.386021 80.642548 
L 196.93513 78.005835 
L 199.484239 81.51199 
L 202.033349 80.524227 
L 204.582458 238.763596 
L 207.131567 162.815503 
L 209.680676 239.507724 
L 212.229785 183.942951 
L 214.778894 202.160292 
L 217.328004 80.012107 
L 219.877113 250.38655 
L 222.426222 239.498015 
L 224.975331 209.495679 
L 227.52444 213.110163 
L 230.07355 275.538739 
L 232.622659 240.868495 
L 235.171768 251.098903 
L 237.720877 197.209292 
L 240.269986 250.433014 
L 242.819095 274.451402 
L 245.368205 260.566596 
L 247.917314 245.418832 
L 250.466423 262.307103 
L 253.015532 179.777611 
L 255.564641 265.211315 
L 258.113751 161.616356 
L 260.66286 168.781587 
L 263.211969 209.730113 
L 265.761078 137.083944 
L 268.310187 240.377852 
L 270.859296 263.740351 
L 273.408406 193.80435 
L 275.957515 273.149705 
L 278.506624 164.753137 
L 281.055733 266.853721 
L 283.604842 252.209259 
L 286.153952 270.382098 
L 288.703061 217.551065 
L 291.25217 256.867786 
L 293.801279 274.570328 
L 296.350388 204.060051 
L 298.899497 197.808294 
L 301.448607 275.030632 
L 303.997716 265.86143 
L 306.546825 224.127063 
L 309.095934 109.836222 
L 311.645043 263.748938 
L 314.194153 277.515516 
L 316.743262 198.389003 
L 319.292371 80.02714 
L 321.84148 274.534005 
L 324.390589 232.831618 
L 326.939698 256.421889 
L 329.488808 79.605275 
L 332.037917 256.071587 
L 334.587026 262.495838 
L 337.136135 265.798051 
L 339.685244 274.44524 
L 342.234354 253.846353 
L 344.783463 248.650241 
L 347.332572 220.323383 
L 349.881681 242.755902 
L 352.43079 81.519024 
L 354.979899 269.6328 
L 357.529009 215.221601 
L 360.078118 269.797745 
L 362.627227 267.775414 
L 365.176336 99.706463 
L 367.725445 242.553457 
L 370.274555 211.059207 
L 372.823664 207.029719 
L 375.372773 129.26016 
L 377.921882 79.510163 
L 380.470991 80.019855 
L 383.020101 80.011971 
L 385.56921 130.256389 
L 388.118319 241.058458 
L 390.667428 242.79058 
L 393.216537 237.723895 
L 395.765646 230.538471 
L 398.314756 261.235686 
L 400.863865 229.760148 
L 403.412974 257.118927 
L 405.962083 80.056861 
L 408.511192 264.345521 
L 411.060302 79.012609 
L 413.609411 231.322386 
L 416.15852 230.815975 
L 418.707629 266.961916 
L 421.256738 231.36415 
L 423.805847 199.987976 
L 426.354957 226.965496 
L 428.904066 235.723326 
L 431.453175 188.95948 
L 434.002284 83.135364 
L 436.551393 161.947857 
L 439.100503 142.840057 
L 441.649612 206.746564 
L 444.198721 207.551674 
L 446.74783 167.38747 
L 449.296939 271.738675 
L 451.846048 238.995724 
L 454.395158 237.463174 
L 456.944267 259.852121 
L 459.493376 246.542596 
L 462.042485 192.882151 
L 464.591594 239.293156 
L 467.140704 253.942928 
L 469.689813 246.664019 
L 472.238922 261.750766 
L 474.788031 85.415035 
L 477.33714 81.895262 
L 479.886249 255.138028 
L 482.435359 212.367436 
L 484.984468 225.31027 
L 487.533577 207.163563 
L 490.082686 262.8948 
L 492.631795 228.821231 
L 495.180905 204.025858 
L 497.730014 79.510918 
L 500.279123 80.299503 
L 502.828232 267.921332 
L 505.377341 263.667531 
L 507.92645 101.844275 
L 510.47556 273.545315 
L 513.024669 79.284243 
L 515.573778 257.949441 
L 518.122887 258.816329 
L 520.671996 152.217814 
L 523.221106 234.373237 
L 525.770215 214.771107 
L 528.319324 161.805645 
L 530.868433 206.891188 
L 533.417542 171.304232 
L 535.966651 254.546128 
L 538.515761 234.535457 
L 541.06487 79.037796 
L 543.613979 281.315474 
L 546.163088 202.453304 
L 548.712197 80.033115 
L 551.261307 263.423918 
L 553.810416 79.789779 
L 556.359525 243.382381 
L 558.908634 232.625125 
L 561.457743 215.942798 
L 564.006852 80.561865 
L 566.555962 81.948223 
L 569.105071 130.862613 
L 571.65418 125.069236 
L 574.203289 256.143048 
L 576.752398 131.762805 
L 579.301508 80.509357 
L 581.850617 97.447909 
L 584.399726 255.502757 
L 586.948835 188.730699 
L 589.497944 249.986728 
L 592.047053 142.766886 
L 594.596163 215.555318 
L 597.145272 227.544203 
L 599.694381 261.140666 
L 602.24349 220.807149 
L 604.792599 273.128147 
L 607.341709 197.377766 
L 609.890818 223.307035 
L 612.439927 182.109416 
L 614.989036 164.526015 
L 617.538145 80.037311 
L 620.087254 210.395284 
L 622.636364 202.617189 
L 622.636364 202.617189 
" style="fill:none;stroke:#4682b4;stroke-linecap:square;stroke-width:1.5;"/>
   </g>
   <g id="line2d_33">
    <path clip-path="url(#p9f51146116)" d="M 115.363636 198.291899 
L 117.912746 272.614204 
L 120.461855 229.234871 
L 123.010964 272.676315 
L 125.560073 81.524916 
L 128.109182 128.526524 
L 130.658291 251.025275 
L 133.207401 83.670789 
L 135.75651 85.714047 
L 138.305619 254.665152 
L 140.854728 245.93873 
L 143.403837 256.113055 
L 145.952947 251.740336 
L 148.502056 247.822274 
L 151.051165 210.151839 
L 153.600274 149.539183 
L 156.149383 183.057419 
L 158.698492 275.695599 
L 161.247602 88.016278 
L 163.796711 190.935179 
L 166.34582 269.650717 
L 168.894929 202.065456 
L 171.444038 265.138888 
L 173.993148 90.57579 
L 176.542257 275.0254 
L 179.091366 94.483309 
L 181.640475 265.935904 
L 184.189584 194.671636 
L 186.738693 269.967859 
L 189.287803 83.693172 
L 191.836912 232.054765 
L 194.386021 115.701727 
L 196.93513 234.986423 
L 199.484239 199.550096 
L 202.033349 211.483385 
L 204.582458 236.06454 
L 207.131567 265.974811 
L 209.680676 249.887448 
L 212.229785 127.91192 
L 214.778894 175.907538 
L 217.328004 271.473072 
L 219.877113 273.236967 
L 222.426222 83.690551 
L 224.975331 244.511391 
L 227.52444 254.671089 
L 230.07355 106.065476 
L 232.622659 144.41359 
L 235.171768 201.487514 
L 237.720877 81.510159 
L 240.269986 85.838583 
L 242.819095 81.517286 
L 245.368205 262.62725 
L 247.917314 234.829004 
L 250.466423 169.804629 
L 253.015532 196.706756 
L 255.564641 267.561684 
L 258.113751 240.669351 
L 260.66286 273.467417 
L 263.211969 249.458115 
L 265.761078 218.092239 
L 268.310187 167.813494 
L 270.859296 145.827337 
L 273.408406 267.602115 
L 275.957515 157.904053 
L 278.506624 270.420588 
L 281.055733 275.802531 
L 283.604842 231.568453 
L 286.153952 268.082968 
L 288.703061 139.558103 
L 291.25217 218.262087 
L 293.801279 274.447644 
L 298.899497 250.389587 
L 301.448607 135.495721 
L 303.997716 241.717257 
L 306.546825 123.174669 
L 309.095934 171.915133 
L 311.645043 114.473331 
L 314.194153 81.559608 
L 316.743262 81.853441 
L 319.292371 272.830061 
L 321.84148 267.9248 
L 324.390589 256.56168 
L 326.939698 257.651955 
L 329.488808 87.99958 
L 332.037917 83.826589 
L 334.587026 81.514402 
L 337.136135 275.339147 
L 339.685244 81.513083 
L 342.234354 108.449007 
L 344.783463 88.352087 
L 347.332572 133.762923 
L 349.881681 236.046317 
L 352.43079 254.829292 
L 357.529009 170.238602 
L 360.078118 263.514603 
L 365.176336 155.058722 
L 367.725445 81.512468 
L 370.274555 81.51757 
L 372.823664 194.00068 
L 375.372773 272.365679 
L 377.921882 83.049061 
L 380.470991 236.787025 
L 383.020101 180.34263 
L 385.56921 261.790951 
L 388.118319 81.370249 
L 390.667428 81.512691 
L 393.216537 81.992014 
L 395.765646 264.970462 
L 398.314756 186.400309 
L 400.863865 169.1185 
L 403.412974 251.754745 
L 405.962083 196.056025 
L 408.511192 196.924098 
L 411.060302 85.83286 
L 413.609411 235.220449 
L 416.15852 83.732425 
L 418.707629 81.540335 
L 421.256738 250.819611 
L 423.805847 273.262058 
L 426.354957 98.415162 
L 428.904066 83.198025 
L 431.453175 239.955772 
L 434.002284 230.172548 
L 436.551393 277.597002 
L 439.100503 197.491329 
L 441.649612 210.39138 
L 444.198721 197.616747 
L 446.74783 257.388353 
L 449.296939 244.374409 
L 451.846048 135.363167 
L 454.395158 169.337621 
L 456.944267 244.461726 
L 459.493376 260.537275 
L 462.042485 186.876911 
L 464.591594 231.055001 
L 467.140704 90.012025 
L 469.689813 229.27736 
L 472.238922 274.273188 
L 474.788031 252.684228 
L 477.33714 272.098247 
L 479.886249 83.672103 
L 482.435359 272.360315 
L 484.984468 81.511898 
L 487.533577 260.454758 
L 490.082686 96.606403 
L 492.631795 250.569987 
L 495.180905 207.938811 
L 497.730014 204.617558 
L 500.279123 258.239107 
L 502.828232 238.227856 
L 505.377341 141.023385 
L 507.92645 81.557045 
L 510.47556 83.68668 
L 513.024669 94.341315 
L 515.573778 81.785843 
L 518.122887 236.01779 
L 520.671996 274.218591 
L 523.221106 229.186196 
L 525.770215 267.620519 
L 528.319324 179.278551 
L 530.868433 84.166685 
L 535.966651 268.546336 
L 538.515761 271.016117 
L 541.06487 271.719198 
L 543.613979 268.368562 
L 546.163088 81.534923 
L 548.712197 271.524262 
L 551.261307 259.801878 
L 553.810416 232.304137 
L 556.359525 105.915707 
L 558.908634 234.936339 
L 561.457743 194.716604 
L 564.006852 246.259583 
L 566.555962 277.598187 
L 569.105071 168.932059 
L 571.65418 271.542272 
L 574.203289 150.427258 
L 579.301508 88.455339 
L 581.850617 246.859495 
L 584.399726 237.490867 
L 586.948835 81.55394 
L 589.497944 268.096948 
L 592.047053 269.037196 
L 594.596163 236.060519 
L 597.145272 173.60477 
L 599.694381 214.417171 
L 602.24349 81.583674 
L 604.792599 149.78815 
L 607.341709 262.080609 
L 609.890818 252.295048 
L 612.439927 83.550608 
L 614.989036 276.508525 
L 617.538145 257.669725 
L 620.087254 155.465364 
L 622.636364 182.735664 
L 622.636364 182.735664 
" style="fill:none;stroke:#ffd700;stroke-linecap:square;stroke-width:1.5;"/>
   </g>
   <g id="line2d_34">
    <path clip-path="url(#p9f51146116)" d="M 115.363636 111.753645 
L 117.912746 119.904182 
L 120.461855 244.769645 
L 123.010964 245.100668 
L 125.560073 195.606657 
L 128.109182 113.931552 
L 130.658291 177.873999 
L 133.207401 109.621741 
L 135.75651 206.200953 
L 138.305619 283.54313 
L 140.854728 228.919236 
L 143.403837 198.447326 
L 145.952947 276.10886 
L 148.502056 229.692374 
L 151.051165 236.455915 
L 153.600274 116.427616 
L 156.149383 111.843822 
L 158.698492 265.128516 
L 161.247602 127.657189 
L 163.796711 218.552668 
L 166.34582 111.26706 
L 168.894929 223.679204 
L 171.444038 246.948055 
L 173.993148 104.328916 
L 176.542257 282.677374 
L 179.091366 244.588366 
L 181.640475 96.879082 
L 184.189584 205.777793 
L 186.738693 104.817193 
L 189.287803 235.940795 
L 191.836912 112.976261 
L 194.386021 131.283462 
L 196.93513 240.893781 
L 199.484239 217.764846 
L 202.033349 221.030767 
L 204.582458 129.297236 
L 207.131567 246.727455 
L 209.680676 258.890844 
L 212.229785 159.354063 
L 214.778894 122.199617 
L 217.328004 289.36597 
L 219.877113 112.636366 
L 222.426222 158.741227 
L 224.975331 102.112299 
L 227.52444 116.143387 
L 230.07355 278.472238 
L 232.622659 225.981241 
L 235.171768 130.893046 
L 237.720877 197.163471 
L 240.269986 118.274659 
L 242.819095 261.214811 
L 245.368205 109.600578 
L 247.917314 198.312555 
L 250.466423 125.746989 
L 253.015532 117.425709 
L 255.564641 212.578871 
L 258.113751 174.145134 
L 260.66286 138.674213 
L 263.211969 256.217929 
L 265.761078 107.445262 
L 268.310187 107.435971 
L 270.859296 272.526592 
L 273.408406 264.491033 
L 275.957515 230.553279 
L 278.506624 283.395335 
L 281.055733 245.809574 
L 283.604842 120.409105 
L 286.153952 118.276456 
L 288.703061 271.373066 
L 291.25217 300.812115 
L 293.801279 106.987618 
L 296.350388 184.638008 
L 298.899497 217.701479 
L 301.448607 113.993226 
L 303.997716 237.449463 
L 306.546825 111.757572 
L 309.095934 111.775353 
L 311.645043 105.516934 
L 314.194153 120.408239 
L 316.743262 247.024426 
L 319.292371 111.772375 
L 321.84148 228.377987 
L 324.390589 107.44924 
L 326.939698 156.194105 
L 329.488808 108.801756 
L 332.037917 109.609249 
L 334.587026 115.589347 
L 337.136135 207.026385 
L 339.685244 111.273166 
L 342.234354 266.817635 
L 344.783463 109.612561 
L 347.332572 109.6449 
L 349.881681 121.380698 
L 352.43079 113.956972 
L 354.979899 109.596567 
L 357.529009 117.748392 
L 360.078118 295.959722 
L 362.627227 109.850119 
L 365.176336 150.669054 
L 367.725445 109.605927 
L 372.823664 118.364931 
L 375.372773 107.122507 
L 377.921882 228.473151 
L 380.470991 283.80954 
L 383.020101 229.698458 
L 385.56921 159.583625 
L 388.118319 239.6328 
L 390.667428 231.561309 
L 393.216537 295.616408 
L 395.765646 225.171881 
L 398.314756 287.241792 
L 400.863865 293.751783 
L 403.412974 122.713808 
L 405.962083 281.881721 
L 408.511192 229.06612 
L 411.060302 248.022442 
L 413.609411 113.422239 
L 416.15852 186.247524 
L 418.707629 109.167074 
L 421.256738 269.019705 
L 423.805847 282.557311 
L 426.354957 98.774954 
L 428.904066 130.053308 
L 431.453175 109.053914 
L 434.002284 280.689478 
L 436.551393 253.716542 
L 439.100503 191.314715 
L 441.649612 105.283046 
L 444.198721 108.635051 
L 446.74783 113.422668 
L 449.296939 122.179933 
L 454.395158 277.713697 
L 456.944267 284.202089 
L 459.493376 103.144315 
L 462.042485 114.051341 
L 464.591594 122.10252 
L 467.140704 183.261551 
L 469.689813 250.177322 
L 472.238922 119.940033 
L 474.788031 102.110388 
L 477.33714 109.139719 
L 479.886249 100.965399 
L 482.435359 177.09107 
L 484.984468 190.911913 
L 487.533577 122.596175 
L 490.082686 107.832355 
L 492.631795 226.019731 
L 495.180905 216.445308 
L 497.730014 219.758077 
L 500.279123 113.919548 
L 502.828232 186.848613 
L 505.377341 197.340272 
L 507.92645 118.264891 
L 510.47556 281.14471 
L 513.024669 246.032791 
L 515.573778 300.077738 
L 518.122887 124.376432 
L 520.671996 276.154152 
L 523.221106 284.196252 
L 525.770215 111.764202 
L 528.319324 229.470213 
L 530.868433 293.189019 
L 533.417542 124.723461 
L 535.966651 107.490534 
L 538.515761 178.222629 
L 541.06487 258.935238 
L 543.613979 105.283372 
L 546.163088 287.312573 
L 548.712197 159.677079 
L 551.261307 109.651615 
L 553.810416 281.047566 
L 556.359525 188.55847 
L 558.908634 255.83468 
L 561.457743 115.659694 
L 564.006852 298.815925 
L 566.555962 104.059473 
L 569.105071 112.492387 
L 571.65418 109.102997 
L 574.203289 115.08486 
L 576.752398 267.317828 
L 579.301508 120.963978 
L 581.850617 236.368396 
L 584.399726 177.380199 
L 586.948835 114.190508 
L 589.497944 198.529017 
L 592.047053 275.144789 
L 594.596163 237.128996 
L 597.145272 264.573298 
L 599.694381 244.014916 
L 602.24349 143.636836 
L 604.792599 130.715844 
L 607.341709 192.500643 
L 609.890818 202.314186 
L 612.439927 116.084452 
L 614.989036 289.707198 
L 617.538145 109.162865 
L 620.087254 283.967606 
L 622.636364 168.677642 
L 622.636364 168.677642 
" style="fill:none;stroke:#9370db;stroke-linecap:square;stroke-width:1.5;"/>
   </g>
   <g id="line2d_35">
    <path clip-path="url(#p9f51146116)" d="M 115.363636 234.833128 
L 117.912746 233.420114 
L 120.461855 229.676728 
L 123.010964 235.020173 
L 125.560073 226.12587 
L 128.109182 235.589663 
L 130.658291 123.849806 
L 133.207401 218.631227 
L 135.75651 229.219299 
L 138.305619 118.518726 
L 140.854728 221.996352 
L 143.403837 179.632884 
L 145.952947 232.162584 
L 148.502056 231.549844 
L 151.051165 202.203952 
L 153.600274 234.509477 
L 156.149383 178.125003 
L 158.698492 166.849444 
L 161.247602 229.802055 
L 163.796711 165.014518 
L 166.34582 219.054049 
L 168.894929 236.220451 
L 171.444038 227.262125 
L 173.993148 162.94131 
L 176.542257 210.942073 
L 179.091366 211.413569 
L 181.640475 232.276914 
L 184.189584 221.550712 
L 186.738693 239.425062 
L 189.287803 227.030752 
L 191.836912 172.219389 
L 194.386021 177.094467 
L 196.93513 231.960077 
L 199.484239 239.29404 
L 202.033349 217.846838 
L 204.582458 235.017368 
L 207.131567 207.48562 
L 209.680676 154.148464 
L 212.229785 153.237775 
L 214.778894 185.562384 
L 217.328004 223.649753 
L 219.877113 213.777127 
L 222.426222 170.199946 
L 224.975331 222.19137 
L 227.52444 229.939783 
L 230.07355 232.556032 
L 232.622659 235.767912 
L 235.171768 172.047043 
L 237.720877 228.808392 
L 240.269986 235.160201 
L 242.819095 225.144065 
L 245.368205 199.63902 
L 247.917314 214.54243 
L 250.466423 162.80556 
L 253.015532 229.398922 
L 255.564641 235.853173 
L 258.113751 186.424864 
L 260.66286 210.472501 
L 263.211969 226.00274 
L 265.761078 235.219541 
L 268.310187 224.439857 
L 270.859296 231.628973 
L 273.408406 174.730355 
L 275.957515 204.933005 
L 278.506624 230.593857 
L 281.055733 196.149082 
L 283.604842 233.712288 
L 286.153952 229.993797 
L 288.703061 235.510375 
L 291.25217 233.153952 
L 293.801279 232.590929 
L 296.350388 226.105893 
L 298.899497 237.48866 
L 301.448607 232.500431 
L 303.997716 232.036053 
L 306.546825 194.445051 
L 309.095934 227.363653 
L 311.645043 213.198703 
L 314.194153 232.209533 
L 316.743262 218.376367 
L 319.292371 212.82096 
L 321.84148 193.714567 
L 324.390589 229.862233 
L 326.939698 224.476505 
L 329.488808 225.50616 
L 332.037917 229.78853 
L 334.587026 227.185117 
L 337.136135 218.391202 
L 339.685244 232.654369 
L 342.234354 231.854082 
L 344.783463 218.292782 
L 347.332572 232.138302 
L 349.881681 122.141073 
L 352.43079 225.756587 
L 354.979899 166.26011 
L 357.529009 197.147801 
L 360.078118 111.980398 
L 362.627227 185.589258 
L 365.176336 234.421815 
L 367.725445 175.575668 
L 370.274555 221.891733 
L 372.823664 124.359393 
L 375.372773 226.745874 
L 377.921882 224.145959 
L 380.470991 234.244501 
L 383.020101 224.894035 
L 385.56921 151.360988 
L 388.118319 223.598731 
L 390.667428 214.815246 
L 393.216537 231.061974 
L 395.765646 224.732753 
L 398.314756 213.664268 
L 400.863865 160.438584 
L 403.412974 194.21868 
L 405.962083 235.635996 
L 408.511192 227.408457 
L 411.060302 235.321945 
L 413.609411 234.877642 
L 416.15852 236.124454 
L 418.707629 235.894341 
L 421.256738 225.814047 
L 423.805847 227.34124 
L 426.354957 213.737222 
L 428.904066 111.739872 
L 431.453175 203.660754 
L 434.002284 230.589612 
L 436.551393 202.459497 
L 439.100503 202.137171 
L 441.649612 235.198986 
L 444.198721 233.496076 
L 446.74783 195.791378 
L 449.296939 232.031774 
L 451.846048 232.001319 
L 454.395158 219.714352 
L 456.944267 231.154269 
L 459.493376 232.575618 
L 462.042485 234.753924 
L 464.591594 234.867712 
L 467.140704 199.090454 
L 469.689813 235.955995 
L 472.238922 233.159116 
L 474.788031 192.480968 
L 477.33714 229.128699 
L 479.886249 218.084475 
L 482.435359 209.493332 
L 484.984468 236.085483 
L 487.533577 208.214176 
L 490.082686 223.636764 
L 492.631795 158.862113 
L 495.180905 228.874644 
L 497.730014 232.740019 
L 500.279123 170.512041 
L 502.828232 187.339841 
L 505.377341 225.100736 
L 507.92645 231.262744 
L 510.47556 231.374992 
L 513.024669 227.055945 
L 515.573778 209.032246 
L 518.122887 230.753766 
L 520.671996 236.007727 
L 523.221106 226.115429 
L 525.770215 200.697245 
L 528.319324 231.217123 
L 530.868433 229.184664 
L 533.417542 228.697633 
L 535.966651 230.482459 
L 538.515761 230.064498 
L 541.06487 205.314806 
L 543.613979 223.773618 
L 546.163088 235.471723 
L 548.712197 115.639294 
L 551.261307 230.307925 
L 553.810416 236.131224 
L 556.359525 216.709931 
L 558.908634 120.924011 
L 561.457743 230.854067 
L 564.006852 218.022729 
L 566.555962 228.56056 
L 569.105071 235.935079 
L 571.65418 220.684514 
L 574.203289 118.260945 
L 576.752398 217.874788 
L 579.301508 163.33416 
L 581.850617 196.825689 
L 584.399726 234.658398 
L 586.948835 234.573039 
L 589.497944 232.233533 
L 592.047053 215.851139 
L 594.596163 232.133266 
L 597.145272 222.287874 
L 599.694381 222.427647 
L 602.24349 218.442384 
L 604.792599 227.004935 
L 607.341709 221.631998 
L 609.890818 238.027482 
L 612.439927 234.553249 
L 614.989036 225.20815 
L 617.538145 195.43776 
L 620.087254 232.702084 
L 622.636364 121.063354 
L 622.636364 121.063354 
" style="fill:none;stroke:#ffb6c1;stroke-linecap:square;stroke-width:1.5;"/>
   </g>
   <g id="line2d_36">
    <path clip-path="url(#p9f51146116)" d="M 115.363636 222.412053 
L 117.912746 189.339534 
L 120.461855 192.246117 
L 123.010964 192.212613 
L 125.560073 134.545106 
L 128.109182 234.294824 
L 130.658291 234.746444 
L 133.207401 198.317871 
L 135.75651 235.184607 
L 138.305619 220.184738 
L 140.854728 209.265328 
L 143.403837 151.693673 
L 145.952947 206.355748 
L 148.502056 213.703651 
L 151.051165 220.637429 
L 153.600274 126.633725 
L 156.149383 216.224165 
L 158.698492 228.567602 
L 161.247602 152.141447 
L 163.796711 224.518769 
L 166.34582 188.666805 
L 168.894929 235.052747 
L 171.444038 212.633878 
L 173.993148 225.244365 
L 176.542257 173.780833 
L 179.091366 167.828627 
L 181.640475 211.368291 
L 184.189584 212.377682 
L 186.738693 215.712376 
L 189.287803 190.493046 
L 191.836912 227.543541 
L 194.386021 233.367527 
L 196.93513 234.46887 
L 199.484239 235.08144 
L 202.033349 230.888753 
L 204.582458 233.307109 
L 207.131567 222.693055 
L 209.680676 131.359919 
L 212.229785 186.536184 
L 214.778894 214.732634 
L 217.328004 230.949795 
L 219.877113 224.133707 
L 222.426222 208.501532 
L 224.975331 231.688262 
L 227.52444 218.224039 
L 230.07355 221.419283 
L 232.622659 216.739022 
L 235.171768 223.235952 
L 237.720877 231.307 
L 240.269986 215.329546 
L 242.819095 225.054973 
L 245.368205 219.310389 
L 247.917314 216.845428 
L 250.466423 226.232967 
L 253.015532 231.296902 
L 255.564641 200.012875 
L 258.113751 140.382993 
L 260.66286 233.523817 
L 263.211969 227.020356 
L 265.761078 233.114681 
L 268.310187 223.053382 
L 270.859296 216.590004 
L 273.408406 168.739339 
L 275.957515 234.83955 
L 278.506624 232.801877 
L 281.055733 234.230664 
L 283.604842 232.233738 
L 286.153952 224.919479 
L 288.703061 223.636992 
L 291.25217 237.543354 
L 293.801279 232.791835 
L 296.350388 169.518639 
L 298.899497 142.656827 
L 301.448607 170.446967 
L 303.997716 234.090572 
L 306.546825 235.028685 
L 309.095934 115.415371 
L 311.645043 235.800191 
L 314.194153 199.730556 
L 316.743262 229.138397 
L 319.292371 226.846699 
L 321.84148 211.720317 
L 324.390589 227.580087 
L 326.939698 227.838151 
L 329.488808 127.933844 
L 332.037917 183.286938 
L 334.587026 211.917282 
L 337.136135 209.824948 
L 339.685244 125.471437 
L 342.234354 207.313698 
L 344.783463 201.519278 
L 347.332572 235.553054 
L 349.881681 235.368985 
L 352.43079 233.202341 
L 354.979899 233.68567 
L 357.529009 219.048504 
L 360.078118 211.822116 
L 362.627227 234.960779 
L 365.176336 230.818145 
L 367.725445 230.684556 
L 370.274555 232.247694 
L 372.823664 229.250988 
L 375.372773 215.475073 
L 377.921882 219.043697 
L 383.020101 227.524411 
L 385.56921 218.574743 
L 388.118319 215.987138 
L 390.667428 212.805315 
L 393.216537 228.655607 
L 395.765646 117.064913 
L 398.314756 220.101153 
L 400.863865 234.418906 
L 403.412974 225.426269 
L 405.962083 190.218367 
L 408.511192 196.997907 
L 411.060302 183.077699 
L 413.609411 200.877344 
L 416.15852 198.631206 
L 418.707629 224.958618 
L 421.256738 228.975204 
L 423.805847 209.272243 
L 426.354957 150.802052 
L 428.904066 224.738241 
L 431.453175 226.259862 
L 434.002284 225.625837 
L 436.551393 132.524278 
L 439.100503 205.91495 
L 441.649612 203.269897 
L 444.198721 204.54985 
L 446.74783 236.008333 
L 449.296939 228.039097 
L 451.846048 125.405532 
L 454.395158 178.410254 
L 456.944267 221.328029 
L 459.493376 107.823219 
L 462.042485 173.929128 
L 464.591594 230.155615 
L 467.140704 224.509675 
L 469.689813 233.900831 
L 472.238922 234.229936 
L 474.788031 119.479759 
L 477.33714 232.360896 
L 479.886249 124.353225 
L 482.435359 239.25179 
L 484.984468 229.711923 
L 487.533577 191.631454 
L 490.082686 235.117561 
L 492.631795 231.245163 
L 495.180905 234.972966 
L 497.730014 231.868926 
L 500.279123 218.65255 
L 502.828232 235.869903 
L 505.377341 201.655623 
L 507.92645 159.608596 
L 510.47556 201.184402 
L 513.024669 156.320907 
L 515.573778 193.562584 
L 518.122887 195.784572 
L 520.671996 235.864702 
L 523.221106 233.064409 
L 525.770215 207.944843 
L 528.319324 208.118351 
L 530.868433 162.811937 
L 535.966651 235.108315 
L 538.515761 222.271676 
L 541.06487 160.957689 
L 543.613979 219.403714 
L 546.163088 234.302695 
L 548.712197 204.311221 
L 551.261307 233.314296 
L 553.810416 150.765253 
L 556.359525 119.90817 
L 558.908634 234.546433 
L 561.457743 187.484069 
L 564.006852 220.832897 
L 566.555962 224.492523 
L 569.105071 227.548962 
L 571.65418 234.945306 
L 574.203289 158.666773 
L 576.752398 176.200243 
L 579.301508 221.947543 
L 581.850617 234.33752 
L 584.399726 233.7172 
L 586.948835 226.073049 
L 589.497944 203.6049 
L 592.047053 233.325423 
L 594.596163 232.263164 
L 597.145272 237.045588 
L 599.694381 235.219661 
L 602.24349 234.546072 
L 604.792599 193.863372 
L 607.341709 209.644405 
L 609.890818 231.535991 
L 612.439927 229.96336 
L 614.989036 232.280473 
L 617.538145 133.321358 
L 620.087254 233.107215 
L 622.636364 195.582369 
L 622.636364 195.582369 
" style="fill:none;stroke:#cd853f;stroke-linecap:square;stroke-width:1.5;"/>
   </g>
   <g id="line2d_37">
    <path clip-path="url(#p9f51146116)" d="M 115.363636 218.171079 
L 117.912746 105.674387 
L 120.461855 208.666322 
L 123.010964 201.424392 
L 125.560073 235.751888 
L 128.109182 174.51601 
L 130.658291 220.475949 
L 133.207401 232.653902 
L 135.75651 169.835338 
L 138.305619 231.040334 
L 140.854728 228.135083 
L 143.403837 211.796341 
L 145.952947 219.186638 
L 148.502056 214.90119 
L 151.051165 219.065243 
L 153.600274 209.116352 
L 156.149383 203.399454 
L 158.698492 215.434612 
L 161.247602 236.035654 
L 163.796711 148.363927 
L 166.34582 140.703543 
L 168.894929 233.504747 
L 171.444038 172.448875 
L 173.993148 229.933692 
L 176.542257 143.304735 
L 179.091366 222.658101 
L 181.640475 215.60511 
L 184.189584 230.567097 
L 186.738693 229.660443 
L 189.287803 236.074401 
L 191.836912 233.353845 
L 194.386021 234.332958 
L 196.93513 232.801037 
L 199.484239 225.963838 
L 202.033349 165.227543 
L 204.582458 143.892543 
L 207.131567 120.28833 
L 209.680676 116.513295 
L 212.229785 147.498145 
L 214.778894 230.36346 
L 217.328004 225.37663 
L 219.877113 105.410822 
L 222.426222 137.543449 
L 224.975331 229.993693 
L 227.52444 149.387683 
L 230.07355 223.620692 
L 232.622659 194.464661 
L 235.171768 224.739637 
L 237.720877 138.813154 
L 240.269986 200.728381 
L 242.819095 164.192666 
L 245.368205 224.351519 
L 247.917314 223.444111 
L 250.466423 234.091641 
L 253.015532 233.156392 
L 255.564641 131.573594 
L 258.113751 223.895981 
L 260.66286 209.232791 
L 263.211969 160.039642 
L 265.761078 235.625579 
L 268.310187 227.008087 
L 270.859296 236.075682 
L 273.408406 205.177307 
L 275.957515 231.958087 
L 278.506624 232.188745 
L 281.055733 238.532203 
L 283.604842 228.620424 
L 286.153952 203.944459 
L 288.703061 225.450658 
L 291.25217 148.33557 
L 293.801279 108.761982 
L 296.350388 233.859298 
L 298.899497 225.220488 
L 301.448607 235.298723 
L 303.997716 216.713759 
L 306.546825 201.793764 
L 309.095934 235.18561 
L 311.645043 233.313769 
L 314.194153 228.219312 
L 316.743262 149.091345 
L 319.292371 230.435074 
L 321.84148 217.973894 
L 324.390589 224.371948 
L 326.939698 230.020937 
L 329.488808 232.087914 
L 332.037917 218.759021 
L 334.587026 175.253507 
L 337.136135 209.92288 
L 339.685244 232.178211 
L 342.234354 226.430936 
L 344.783463 233.634983 
L 347.332572 168.264307 
L 349.881681 196.863557 
L 352.43079 202.780672 
L 354.979899 140.749987 
L 357.529009 234.357547 
L 360.078118 236.023492 
L 362.627227 228.540209 
L 365.176336 182.96878 
L 367.725445 201.00764 
L 370.274555 213.206511 
L 372.823664 191.255878 
L 375.372773 220.830054 
L 377.921882 181.33357 
L 380.470991 234.088616 
L 383.020101 228.960959 
L 385.56921 227.628279 
L 388.118319 187.821287 
L 390.667428 236.023482 
L 393.216537 210.326919 
L 395.765646 232.212127 
L 398.314756 235.073592 
L 400.863865 218.410327 
L 403.412974 109.933067 
L 405.962083 192.573294 
L 408.511192 234.953828 
L 411.060302 208.323153 
L 413.609411 202.156696 
L 416.15852 231.663884 
L 418.707629 233.229669 
L 421.256738 223.529342 
L 423.805847 232.412127 
L 426.354957 127.115128 
L 428.904066 230.976867 
L 431.453175 173.455398 
L 434.002284 222.028852 
L 436.551393 229.938546 
L 439.100503 234.276875 
L 441.649612 175.570651 
L 444.198721 223.765481 
L 446.74783 191.129678 
L 449.296939 234.082622 
L 451.846048 226.850944 
L 454.395158 224.064645 
L 456.944267 190.792189 
L 459.493376 235.786014 
L 462.042485 234.724262 
L 464.591594 178.259282 
L 467.140704 187.292683 
L 469.689813 222.824623 
L 472.238922 230.636474 
L 474.788031 235.625788 
L 477.33714 231.626855 
L 479.886249 233.806538 
L 482.435359 185.295575 
L 484.984468 235.069275 
L 487.533577 228.292433 
L 490.082686 227.87316 
L 492.631795 184.797373 
L 495.180905 179.126436 
L 497.730014 234.898393 
L 500.279123 145.581773 
L 502.828232 233.598476 
L 505.377341 214.057627 
L 507.92645 224.229564 
L 510.47556 229.839425 
L 513.024669 140.172524 
L 515.573778 230.963164 
L 518.122887 206.337223 
L 520.671996 213.070178 
L 523.221106 204.243721 
L 525.770215 220.342696 
L 528.319324 202.325795 
L 530.868433 217.453185 
L 533.417542 231.900202 
L 535.966651 225.104815 
L 538.515761 233.711289 
L 541.06487 185.460487 
L 543.613979 172.739731 
L 546.163088 193.805445 
L 548.712197 234.52665 
L 551.261307 159.694894 
L 553.810416 215.721301 
L 556.359525 227.360981 
L 558.908634 231.907131 
L 561.457743 229.270518 
L 564.006852 177.620204 
L 566.555962 227.392435 
L 569.105071 214.283558 
L 571.65418 233.125981 
L 574.203289 172.505571 
L 576.752398 233.216567 
L 579.301508 211.537165 
L 581.850617 236.009583 
L 584.399726 228.669203 
L 586.948835 212.878849 
L 589.497944 160.889272 
L 592.047053 215.374406 
L 594.596163 210.574637 
L 597.145272 217.28996 
L 599.694381 217.786981 
L 602.24349 213.924232 
L 604.792599 192.025447 
L 607.341709 200.045117 
L 609.890818 187.73818 
L 612.439927 201.88541 
L 614.989036 113.88301 
L 617.538145 230.691918 
L 620.087254 237.206097 
L 622.636364 177.539141 
L 622.636364 177.539141 
" style="fill:none;stroke:#778899;stroke-linecap:square;stroke-width:1.5;"/>
   </g>
   <g id="line2d_38">
    <path clip-path="url(#p9f51146116)" d="M 115.363636 149.955262 
L 117.912746 211.486351 
L 120.461855 163.749117 
L 123.010964 234.732485 
L 125.560073 201.378403 
L 128.109182 218.655757 
L 130.658291 229.931936 
L 133.207401 150.713537 
L 135.75651 222.094821 
L 138.305619 212.536424 
L 140.854728 235.668033 
L 143.403837 235.704725 
L 145.952947 225.763697 
L 148.502056 183.156391 
L 151.051165 235.73717 
L 153.600274 197.834757 
L 156.149383 228.35346 
L 158.698492 180.844217 
L 161.247602 235.134205 
L 163.796711 198.613994 
L 166.34582 212.670084 
L 168.894929 222.799719 
L 171.444038 114.279774 
L 173.993148 220.966338 
L 176.542257 229.320508 
L 179.091366 227.010736 
L 181.640475 196.485214 
L 184.189584 234.395645 
L 186.738693 139.201859 
L 189.287803 235.30671 
L 191.836912 223.697352 
L 194.386021 207.639761 
L 196.93513 228.782011 
L 199.484239 146.957735 
L 202.033349 219.661965 
L 204.582458 130.914256 
L 207.131567 154.869354 
L 209.680676 233.507897 
L 212.229785 223.907159 
L 214.778894 234.731667 
L 217.328004 168.943145 
L 219.877113 226.085329 
L 222.426222 235.706293 
L 224.975331 230.872732 
L 227.52444 201.405722 
L 230.07355 215.538856 
L 232.622659 231.422829 
L 235.171768 181.728717 
L 237.720877 233.725461 
L 240.269986 225.680305 
L 242.819095 152.727336 
L 245.368205 108.155376 
L 247.917314 141.521509 
L 250.466423 235.660044 
L 253.015532 236.238715 
L 255.564641 231.083306 
L 258.113751 203.219774 
L 260.66286 217.213096 
L 263.211969 159.070236 
L 265.761078 227.494614 
L 268.310187 219.427293 
L 270.859296 226.087733 
L 273.408406 189.792779 
L 275.957515 209.868286 
L 278.506624 235.700778 
L 281.055733 134.251218 
L 283.604842 229.353948 
L 286.153952 176.342344 
L 288.703061 209.102001 
L 291.25217 225.666543 
L 293.801279 146.649091 
L 296.350388 233.814248 
L 298.899497 232.101386 
L 301.448607 161.835633 
L 306.546825 228.058612 
L 309.095934 145.57659 
L 311.645043 206.162017 
L 314.194153 230.029931 
L 316.743262 232.934633 
L 319.292371 232.332891 
L 321.84148 229.795857 
L 324.390589 178.919731 
L 326.939698 225.218723 
L 329.488808 142.96377 
L 332.037917 230.139832 
L 334.587026 235.468579 
L 337.136135 222.767355 
L 339.685244 195.893184 
L 342.234354 232.42272 
L 344.783463 230.406605 
L 347.332572 225.091114 
L 349.881681 148.781617 
L 352.43079 231.506116 
L 354.979899 220.553148 
L 357.529009 216.593417 
L 360.078118 135.245814 
L 362.627227 224.28204 
L 365.176336 224.198122 
L 367.725445 233.450306 
L 370.274555 233.125203 
L 372.823664 212.034489 
L 375.372773 200.793963 
L 377.921882 232.393917 
L 380.470991 235.661595 
L 383.020101 234.656949 
L 385.56921 223.91379 
L 388.118319 219.80441 
L 390.667428 179.949263 
L 393.216537 191.373523 
L 395.765646 236.169777 
L 398.314756 174.811134 
L 400.863865 223.077488 
L 403.412974 204.277831 
L 405.962083 177.884124 
L 408.511192 140.535758 
L 411.060302 211.909746 
L 413.609411 232.582993 
L 416.15852 213.446949 
L 418.707629 187.022764 
L 421.256738 235.433979 
L 423.805847 234.789621 
L 426.354957 232.403806 
L 428.904066 180.168044 
L 431.453175 227.819996 
L 434.002284 218.857751 
L 436.551393 222.968418 
L 439.100503 178.295356 
L 441.649612 230.789068 
L 444.198721 193.711386 
L 446.74783 199.741259 
L 449.296939 200.458814 
L 451.846048 234.242086 
L 454.395158 236.128723 
L 456.944267 193.018662 
L 459.493376 234.196971 
L 462.042485 213.989683 
L 464.591594 226.931976 
L 467.140704 128.580045 
L 469.689813 234.815691 
L 472.238922 228.231489 
L 474.788031 223.903678 
L 477.33714 211.006049 
L 479.886249 234.028683 
L 482.435359 156.089957 
L 484.984468 176.70881 
L 487.533577 190.420718 
L 490.082686 161.11051 
L 492.631795 235.760237 
L 495.180905 232.368066 
L 497.730014 215.02509 
L 500.279123 235.826693 
L 502.828232 144.373124 
L 505.377341 212.730107 
L 507.92645 210.93219 
L 510.47556 201.635733 
L 513.024669 199.765619 
L 515.573778 205.036981 
L 518.122887 235.660485 
L 520.671996 127.07321 
L 523.221106 225.128968 
L 525.770215 116.541808 
L 528.319324 198.13461 
L 530.868433 225.388719 
L 533.417542 232.095705 
L 535.966651 233.718732 
L 538.515761 227.717612 
L 541.06487 235.787686 
L 543.613979 193.154642 
L 546.163088 235.867783 
L 548.712197 225.676687 
L 551.261307 219.647194 
L 553.810416 116.66802 
L 556.359525 234.04435 
L 558.908634 196.478627 
L 561.457743 234.156139 
L 564.006852 233.111235 
L 566.555962 230.959087 
L 569.105071 180.39806 
L 571.65418 219.884566 
L 574.203289 109.804036 
L 576.752398 106.907396 
L 579.301508 220.215235 
L 581.850617 216.139449 
L 584.399726 165.39082 
L 586.948835 235.46257 
L 589.497944 216.066049 
L 592.047053 221.423033 
L 594.596163 219.006027 
L 597.145272 163.238451 
L 599.694381 214.351744 
L 602.24349 222.365764 
L 604.792599 120.169978 
L 607.341709 231.668753 
L 609.890818 153.346112 
L 612.439927 235.328073 
L 614.989036 212.787332 
L 617.538145 220.153352 
L 620.087254 225.215606 
L 622.636364 210.770631 
L 622.636364 210.770631 
" style="fill:none;stroke:#da70d6;stroke-linecap:square;stroke-width:1.5;"/>
   </g>
   <g id="patch_3">
    <path d="M 90 315 
L 90 43.2 
" style="fill:none;stroke:#000000;stroke-linecap:square;stroke-linejoin:miter;stroke-width:0.8;"/>
   </g>
   <g id="patch_4">
    <path d="M 648 315 
L 648 43.2 
" style="fill:none;stroke:#000000;stroke-linecap:square;stroke-linejoin:miter;stroke-width:0.8;"/>
   </g>
   <g id="patch_5">
    <path d="M 90 315 
L 648 315 
" style="fill:none;stroke:#000000;stroke-linecap:square;stroke-linejoin:miter;stroke-width:0.8;"/>
   </g>
   <g id="patch_6">
    <path d="M 90 43.2 
L 648 43.2 
" style="fill:none;stroke:#000000;stroke-linecap:square;stroke-linejoin:miter;stroke-width:0.8;"/>
   </g>
   <g id="text_17">
    <!-- Episode Reward over Time (Smoothed over window size 1) -->
    <defs>
     <path d="M 2.984375 54.6875 
L 12.5 54.6875 
L 29.59375 8.796875 
L 46.6875 54.6875 
L 56.203125 54.6875 
L 35.6875 0 
L 23.484375 0 
z
" id="DejaVuSans-118"/>
     <path d="M -0.296875 72.90625 
L 61.375 72.90625 
L 61.375 64.59375 
L 35.5 64.59375 
L 35.5 0 
L 25.59375 0 
L 25.59375 64.59375 
L -0.296875 64.59375 
z
" id="DejaVuSans-84"/>
     <path d="M 52 44.1875 
Q 55.375 50.25 60.0625 53.125 
Q 64.75 56 71.09375 56 
Q 79.640625 56 84.28125 50.015625 
Q 88.921875 44.046875 88.921875 33.015625 
L 88.921875 0 
L 79.890625 0 
L 79.890625 32.71875 
Q 79.890625 40.578125 77.09375 44.375 
Q 74.3125 48.1875 68.609375 48.1875 
Q 61.625 48.1875 57.5625 43.546875 
Q 53.515625 38.921875 53.515625 30.90625 
L 53.515625 0 
L 44.484375 0 
L 44.484375 32.71875 
Q 44.484375 40.625 41.703125 44.40625 
Q 38.921875 48.1875 33.109375 48.1875 
Q 26.21875 48.1875 22.15625 43.53125 
Q 18.109375 38.875 18.109375 30.90625 
L 18.109375 0 
L 9.078125 0 
L 9.078125 54.6875 
L 18.109375 54.6875 
L 18.109375 46.1875 
Q 21.1875 51.21875 25.484375 53.609375 
Q 29.78125 56 35.6875 56 
Q 41.65625 56 45.828125 52.96875 
Q 50 49.953125 52 44.1875 
z
" id="DejaVuSans-109"/>
     <path d="M 31 75.875 
Q 24.46875 64.65625 21.28125 53.65625 
Q 18.109375 42.671875 18.109375 31.390625 
Q 18.109375 20.125 21.3125 9.0625 
Q 24.515625 -2 31 -13.1875 
L 23.1875 -13.1875 
Q 15.875 -1.703125 12.234375 9.375 
Q 8.59375 20.453125 8.59375 31.390625 
Q 8.59375 42.28125 12.203125 53.3125 
Q 15.828125 64.359375 23.1875 75.875 
z
" id="DejaVuSans-40"/>
     <path d="M 53.515625 70.515625 
L 53.515625 60.890625 
Q 47.90625 63.578125 42.921875 64.890625 
Q 37.9375 66.21875 33.296875 66.21875 
Q 25.25 66.21875 20.875 63.09375 
Q 16.5 59.96875 16.5 54.203125 
Q 16.5 49.359375 19.40625 46.890625 
Q 22.3125 44.4375 30.421875 42.921875 
L 36.375 41.703125 
Q 47.40625 39.59375 52.65625 34.296875 
Q 57.90625 29 57.90625 20.125 
Q 57.90625 9.515625 50.796875 4.046875 
Q 43.703125 -1.421875 29.984375 -1.421875 
Q 24.8125 -1.421875 18.96875 -0.25 
Q 13.140625 0.921875 6.890625 3.21875 
L 6.890625 13.375 
Q 12.890625 10.015625 18.65625 8.296875 
Q 24.421875 6.59375 29.984375 6.59375 
Q 38.421875 6.59375 43.015625 9.90625 
Q 47.609375 13.234375 47.609375 19.390625 
Q 47.609375 24.75 44.3125 27.78125 
Q 41.015625 30.8125 33.5 32.328125 
L 27.484375 33.5 
Q 16.453125 35.6875 11.515625 40.375 
Q 6.59375 45.0625 6.59375 53.421875 
Q 6.59375 63.09375 13.40625 68.65625 
Q 20.21875 74.21875 32.171875 74.21875 
Q 37.3125 74.21875 42.625 73.28125 
Q 47.953125 72.359375 53.515625 70.515625 
z
" id="DejaVuSans-83"/>
     <path d="M 18.3125 70.21875 
L 18.3125 54.6875 
L 36.8125 54.6875 
L 36.8125 47.703125 
L 18.3125 47.703125 
L 18.3125 18.015625 
Q 18.3125 11.328125 20.140625 9.421875 
Q 21.96875 7.515625 27.59375 7.515625 
L 36.8125 7.515625 
L 36.8125 0 
L 27.59375 0 
Q 17.1875 0 13.234375 3.875 
Q 9.28125 7.765625 9.28125 18.015625 
L 9.28125 47.703125 
L 2.6875 47.703125 
L 2.6875 54.6875 
L 9.28125 54.6875 
L 9.28125 70.21875 
z
" id="DejaVuSans-116"/>
     <path d="M 54.890625 33.015625 
L 54.890625 0 
L 45.90625 0 
L 45.90625 32.71875 
Q 45.90625 40.484375 42.875 44.328125 
Q 39.84375 48.1875 33.796875 48.1875 
Q 26.515625 48.1875 22.3125 43.546875 
Q 18.109375 38.921875 18.109375 30.90625 
L 18.109375 0 
L 9.078125 0 
L 9.078125 75.984375 
L 18.109375 75.984375 
L 18.109375 46.1875 
Q 21.34375 51.125 25.703125 53.5625 
Q 30.078125 56 35.796875 56 
Q 45.21875 56 50.046875 50.171875 
Q 54.890625 44.34375 54.890625 33.015625 
z
" id="DejaVuSans-104"/>
     <path d="M 54.890625 33.015625 
L 54.890625 0 
L 45.90625 0 
L 45.90625 32.71875 
Q 45.90625 40.484375 42.875 44.328125 
Q 39.84375 48.1875 33.796875 48.1875 
Q 26.515625 48.1875 22.3125 43.546875 
Q 18.109375 38.921875 18.109375 30.90625 
L 18.109375 0 
L 9.078125 0 
L 9.078125 54.6875 
L 18.109375 54.6875 
L 18.109375 46.1875 
Q 21.34375 51.125 25.703125 53.5625 
Q 30.078125 56 35.796875 56 
Q 45.21875 56 50.046875 50.171875 
Q 54.890625 44.34375 54.890625 33.015625 
z
" id="DejaVuSans-110"/>
     <path d="M 5.515625 54.6875 
L 48.1875 54.6875 
L 48.1875 46.484375 
L 14.40625 7.171875 
L 48.1875 7.171875 
L 48.1875 0 
L 4.296875 0 
L 4.296875 8.203125 
L 38.09375 47.515625 
L 5.515625 47.515625 
z
" id="DejaVuSans-122"/>
     <path d="M 8.015625 75.875 
L 15.828125 75.875 
Q 23.140625 64.359375 26.78125 53.3125 
Q 30.421875 42.28125 30.421875 31.390625 
Q 30.421875 20.453125 26.78125 9.375 
Q 23.140625 -1.703125 15.828125 -13.1875 
L 8.015625 -13.1875 
Q 14.5 -2 17.703125 9.0625 
Q 20.90625 20.125 20.90625 31.390625 
Q 20.90625 42.671875 17.703125 53.65625 
Q 14.5 64.65625 8.015625 75.875 
z
" id="DejaVuSans-41"/>
    </defs>
    <g transform="translate(192.289688 37.2)scale(0.12 -0.12)">
     <use xlink:href="#DejaVuSans-69"/>
     <use x="63.183594" xlink:href="#DejaVuSans-112"/>
     <use x="126.660156" xlink:href="#DejaVuSans-105"/>
     <use x="154.443359" xlink:href="#DejaVuSans-115"/>
     <use x="206.542969" xlink:href="#DejaVuSans-111"/>
     <use x="267.724609" xlink:href="#DejaVuSans-100"/>
     <use x="331.201172" xlink:href="#DejaVuSans-101"/>
     <use x="392.724609" xlink:href="#DejaVuSans-32"/>
     <use x="424.511719" xlink:href="#DejaVuSans-82"/>
     <use x="493.931641" xlink:href="#DejaVuSans-101"/>
     <use x="555.455078" xlink:href="#DejaVuSans-119"/>
     <use x="637.242188" xlink:href="#DejaVuSans-97"/>
     <use x="698.521484" xlink:href="#DejaVuSans-114"/>
     <use x="739.619141" xlink:href="#DejaVuSans-100"/>
     <use x="803.095703" xlink:href="#DejaVuSans-32"/>
     <use x="834.882812" xlink:href="#DejaVuSans-111"/>
     <use x="896.064453" xlink:href="#DejaVuSans-118"/>
     <use x="955.244141" xlink:href="#DejaVuSans-101"/>
     <use x="1016.767578" xlink:href="#DejaVuSans-114"/>
     <use x="1057.880859" xlink:href="#DejaVuSans-32"/>
     <use x="1089.667969" xlink:href="#DejaVuSans-84"/>
     <use x="1150.705078" xlink:href="#DejaVuSans-105"/>
     <use x="1178.488281" xlink:href="#DejaVuSans-109"/>
     <use x="1275.900391" xlink:href="#DejaVuSans-101"/>
     <use x="1337.423828" xlink:href="#DejaVuSans-32"/>
     <use x="1369.210938" xlink:href="#DejaVuSans-40"/>
     <use x="1408.224609" xlink:href="#DejaVuSans-83"/>
     <use x="1471.701172" xlink:href="#DejaVuSans-109"/>
     <use x="1569.113281" xlink:href="#DejaVuSans-111"/>
     <use x="1630.294922" xlink:href="#DejaVuSans-111"/>
     <use x="1691.476562" xlink:href="#DejaVuSans-116"/>
     <use x="1730.685547" xlink:href="#DejaVuSans-104"/>
     <use x="1794.064453" xlink:href="#DejaVuSans-101"/>
     <use x="1855.587891" xlink:href="#DejaVuSans-100"/>
     <use x="1919.064453" xlink:href="#DejaVuSans-32"/>
     <use x="1950.851562" xlink:href="#DejaVuSans-111"/>
     <use x="2012.033203" xlink:href="#DejaVuSans-118"/>
     <use x="2071.212891" xlink:href="#DejaVuSans-101"/>
     <use x="2132.736328" xlink:href="#DejaVuSans-114"/>
     <use x="2173.849609" xlink:href="#DejaVuSans-32"/>
     <use x="2205.636719" xlink:href="#DejaVuSans-119"/>
     <use x="2287.423828" xlink:href="#DejaVuSans-105"/>
     <use x="2315.207031" xlink:href="#DejaVuSans-110"/>
     <use x="2378.585938" xlink:href="#DejaVuSans-100"/>
     <use x="2442.0625" xlink:href="#DejaVuSans-111"/>
     <use x="2503.244141" xlink:href="#DejaVuSans-119"/>
     <use x="2585.03125" xlink:href="#DejaVuSans-32"/>
     <use x="2616.818359" xlink:href="#DejaVuSans-115"/>
     <use x="2668.917969" xlink:href="#DejaVuSans-105"/>
     <use x="2696.701172" xlink:href="#DejaVuSans-122"/>
     <use x="2749.191406" xlink:href="#DejaVuSans-101"/>
     <use x="2810.714844" xlink:href="#DejaVuSans-32"/>
     <use x="2842.501953" xlink:href="#DejaVuSans-49"/>
     <use x="2906.125" xlink:href="#DejaVuSans-41"/>
    </g>
   </g>
  </g>
 </g>
 <defs>
  <clipPath id="p9f51146116">
   <rect height="271.8" width="558" x="90" y="43.2"/>
  </clipPath>
 </defs>
</svg>
